<svg width="235" height="170" viewBox="0 0 235 170" fill="none" xmlns="http://www.w3.org/2000/svg">
<path d="M201.621 35.365C194.125 10.873 129.332 -20.7377 78.1424 18.5585C54.3353 36.8358 61.7251 49.9523 48.0175 75.8467C39.8465 91.2803 25.3736 105.996 26.3405 123.715C27.172 139.01 35.1673 152.843 45.9829 159.779C70.3075 175.378 108.847 178.025 128.995 131.982C149.142 85.9396 220.948 98.5335 201.621 35.365Z" fill="url(#paint0_linear_5102_17976)"/>
<path d="M226.008 92.6717C218.691 85.1571 207.526 86.8494 190.609 93.1879C177.886 97.9574 166.238 102.132 155.084 112.764C147.276 120.202 141.844 128.889 138.316 136.858C134.492 145.491 128.671 155.734 134.742 162.732C143.084 172.344 176.702 173.306 202.85 149.974C231.573 124.337 233.163 100.015 226.008 92.6717Z" fill="url(#paint1_linear_5102_17976)"/>
<path d="M50.8429 44.5662C43.634 63.8068 36.4188 84.1372 23.2204 96.7371C9.60807 109.738 5.22776 105.15 1.83599 96.899C-1.55614 88.6473 -2.05706 67.0756 16.6223 49.7152C35.3063 32.35 57.587 26.5594 50.8429 44.5662Z" fill="url(#paint2_linear_5102_17976)"/>
<path d="M204.265 149.405H35.9114C30.9543 149.405 26.9341 145.381 26.9341 140.418V34.8299C26.9341 29.8676 30.9543 25.8438 35.9114 25.8438H204.265C209.222 25.8438 213.242 29.8676 213.242 34.8299V140.418C213.242 145.381 209.222 149.405 204.265 149.405Z" fill="white" stroke="#E1E4E5" stroke-width="1.43784"/>
<path d="M69.486 68.0931C72.5668 69.9414 76.9868 68.2328 76.9868 68.2328C76.9868 68.2328 76.4088 63.5284 73.326 61.6822C70.2454 59.8339 65.8271 61.5404 65.8271 61.5404C65.8271 61.5404 66.4051 66.2448 69.486 68.0931Z" fill="url(#paint3_linear_5102_17976)"/>
<path d="M196.407 133.997C195.631 133.997 195.002 134.628 195.002 135.407C195.002 136.186 195.631 136.817 196.407 136.817C197.182 136.817 197.812 136.186 197.812 135.407C197.812 134.628 197.182 133.997 196.407 133.997Z" fill="#6143F0"/>
<path d="M83.6549 122.427C82.1505 122.427 80.9309 121.206 80.9309 119.7C80.9309 118.194 82.1505 116.974 83.6549 116.974C85.1593 116.974 86.3789 118.194 86.3789 119.7C86.3789 121.206 85.1593 122.427 83.6549 122.427Z" fill="#6143F0"/>
<path d="M77.2713 11.5449C76.569 11.5449 75.9997 10.9752 75.9997 10.2725C75.9997 9.5697 76.569 9 77.2713 9C77.9736 9 78.543 9.5697 78.543 10.2725C78.543 10.9752 77.9736 11.5449 77.2713 11.5449Z" fill="#6143F0"/>
<path d="M78.6771 55.3912C77.7745 55.3912 77.0427 54.6587 77.0427 53.7552C77.0427 52.8516 77.7745 52.1191 78.6771 52.1191C79.5798 52.1191 80.3115 52.8516 80.3115 53.7552C80.3115 54.6587 79.5798 55.3912 78.6771 55.3912Z" fill="#E1E4E5"/>
<path d="M84.3609 85.7263C83.057 85.7263 82.0001 84.6682 82.0001 83.3631C82.0001 82.058 83.057 81 84.3609 81C85.6647 81 86.7217 82.058 86.7217 83.3631C86.7217 84.6682 85.6647 85.7263 84.3609 85.7263Z" fill="#E1E4E5"/>
<path d="M148.361 61.7263C147.057 61.7263 146 60.6682 146 59.3631C146 58.058 147.057 57 148.361 57C149.665 57 150.722 58.058 150.722 59.3631C150.722 60.6682 149.665 61.7263 148.361 61.7263Z" fill="#E1E4E5"/>
<path d="M227.797 140.597C226.805 140.597 226 139.792 226 138.798C226 137.805 226.805 137 227.797 137C228.789 137 229.594 137.805 229.594 138.798C229.594 139.792 228.789 140.597 227.797 140.597Z" fill="#E1E4E5"/>
<path d="M122.961 169.927C121.326 169.927 120 168.601 120 166.964C120 165.327 121.326 164 122.961 164C124.596 164 125.922 165.327 125.922 166.964C125.922 168.601 124.596 169.927 122.961 169.927Z" fill="#E1E4E5"/>
<path d="M47.9299 48.7344C48.1864 49.6922 47.6185 50.6767 46.6616 50.9333C45.7046 51.1899 44.7209 50.6214 44.4644 49.6635C44.2079 48.7057 44.7758 47.7212 45.7327 47.4646C46.6897 47.208 47.6734 47.7765 47.9299 48.7344Z" fill="#E1E4E5"/>
<path d="M92.2094 57.9189C90.8915 57.9189 89.8232 56.8494 89.8232 55.5302C89.8232 54.211 90.8915 53.1416 92.2094 53.1416C93.5273 53.1416 94.5957 54.211 94.5957 55.5302C94.5957 56.8494 93.5273 57.9189 92.2094 57.9189Z" fill="#E1E4E5"/>
<path d="M22.5176 10H22.5656C22.8501 14.0329 25.8464 14.0951 25.8464 14.0951C25.8464 14.0951 22.5423 14.1597 22.5423 18.8198C22.5423 14.1597 19.2382 14.0951 19.2382 14.0951C19.2382 14.0951 22.2333 14.0329 22.5176 10ZM12.7147 23.595H12.7398C12.8884 25.7846 14.455 25.8182 14.455 25.8182C14.455 25.8182 12.7276 25.8534 12.7276 28.3834C12.7276 25.8534 11 25.8182 11 25.8182C11 25.8182 12.5661 25.7846 12.7147 23.595Z" fill="#E1E4E5"/>
<path d="M96.9848 56.4253H63.753C59.7829 56.4253 56.5645 59.6468 56.5645 63.6208C56.5645 67.5948 59.7829 70.8163 63.753 70.8163H96.9848C100.955 70.8163 104.173 67.5948 104.173 63.6208C104.173 59.6468 100.955 56.4253 96.9848 56.4253Z" fill="url(#paint4_linear_5102_17976)"/>
<path d="M101.699 50.999H68.4669C64.4967 50.999 61.2783 54.2206 61.2783 58.1945C61.2783 62.1685 64.4967 65.3901 68.4669 65.3901H101.699C105.669 65.3901 108.887 62.1685 108.887 58.1945C108.887 54.2206 105.669 50.999 101.699 50.999Z" fill="#EFECFE"/>
<path d="M69.8351 60.2188H70.8933L70.791 58.695L72.0657 59.5494L72.5927 58.6201L71.2239 57.9507L72.5927 57.2813L72.0657 56.352L70.791 57.2066L70.8933 55.6826H69.8351L69.9336 57.2066L68.6591 56.352L68.1318 57.2813L69.5047 57.9507L68.1318 58.6201L68.6591 59.5494L69.9336 58.695L69.8351 60.2188ZM77.1956 60.2188H78.2538L78.1515 58.695L79.426 59.5494L79.953 58.6201L78.5842 57.9507L79.953 57.2813L79.426 56.352L78.1515 57.2066L78.2538 55.6826H77.1956L77.2938 57.2066L76.0194 56.352L75.4923 57.2813L76.865 57.9507L75.4923 58.6201L76.0194 59.5494L77.2938 58.695L77.1956 60.2188ZM84.5559 60.2188H85.6141L85.5118 58.695L86.7863 59.5494L87.3135 58.6201L85.9444 57.9507L87.3135 57.2813L86.7863 56.352L85.5118 57.2066L85.6141 55.6826H84.5559L84.6541 57.2066L83.3797 56.352L82.8526 57.2813L84.2255 57.9507L82.8526 58.6201L83.3797 59.5494L84.6541 58.695L84.5559 60.2188ZM91.9162 60.2188H92.9743L92.8721 58.695L94.1467 59.5494L94.6738 58.6201L93.3047 57.9507L94.6738 57.2813L94.1467 56.352L92.8721 57.2066L92.9743 55.6826H91.9162L92.0146 57.2066L90.7401 56.352L90.2129 57.2813L91.5858 57.9507L90.2129 58.6201L90.7401 59.5494L92.0146 58.695L91.9162 60.2188ZM99.2765 60.2188H100.335L100.233 58.695L101.507 59.5494L102.034 58.6201L100.665 57.9507L102.034 57.2813L101.507 56.352L100.233 57.2066L100.335 55.6826H99.2765L99.3749 57.2066L98.1004 56.352L97.5732 57.2813L98.9461 57.9507L97.5732 58.6201L98.1004 59.5494L99.3749 58.695L99.2765 60.2188Z" fill="#6143F0"/>
<path opacity="0.4" d="M126.777 75.5H114.222C104.277 75.5 104.277 80.7875 104.277 85.445V89.4725C104.277 89.9675 104.502 90.4175 104.885 90.71C105.267 91.0025 105.785 91.115 106.257 90.98C107.27 90.71 108.53 90.575 110.037 90.575C111.545 90.575 111.86 90.755 112.76 91.43L114.807 93.59C116.27 95.165 118.362 96.065 120.522 96.065C122.682 96.065 124.752 95.165 126.237 93.59L128.285 91.43C129.185 90.755 129.5 90.575 131.007 90.575C132.515 90.575 133.775 90.71 134.787 90.98C135.26 91.115 135.755 91.0025 136.16 90.71C136.542 90.4175 136.767 89.945 136.767 89.4725V85.445C136.722 80.7875 136.722 75.5 126.777 75.5Z" fill="#6143F0"/>
<path d="M125.63 73.1375C125.045 73.7225 124.077 73.7225 123.492 73.1375L122.03 71.675V82.4075C122.03 83.24 121.355 83.9375 120.5 83.9375C119.645 83.9375 118.97 83.2625 118.97 82.4075V71.675L117.507 73.1375C116.922 73.7225 115.955 73.7225 115.37 73.1375C114.785 72.5525 114.785 71.585 115.37 71L119.42 66.95C119.442 66.9275 119.442 66.9275 119.465 66.9275C119.6 66.815 119.735 66.7025 119.915 66.635C120.117 66.545 120.297 66.5 120.5 66.5C120.702 66.5 120.882 66.545 121.085 66.6125C121.265 66.68 121.445 66.7925 121.58 66.95L125.63 71C126.215 71.585 126.215 72.5525 125.63 73.1375Z" fill="#6143F0"/>
<path d="M135.553 87.9418C134.27 87.6043 132.763 87.4243 130.963 87.4243C128.465 87.4243 127.543 88.0318 126.26 88.9993C126.193 89.0443 126.125 89.1118 126.058 89.1793L123.92 91.4518C122.12 93.3418 118.88 93.3643 117.08 91.4293L114.943 89.1793C114.875 89.1118 114.808 89.0443 114.74 88.9993C113.458 88.0318 112.535 87.4243 110.038 87.4243C108.238 87.4243 106.73 87.6043 105.448 87.9418C100.093 89.3818 100.093 93.6343 100.093 97.3693V99.4618C100.093 105.109 100.093 111.499 112.13 111.499H128.87C136.858 111.499 140.908 107.449 140.908 99.4618V97.3693C140.908 93.6343 140.908 89.3818 135.553 87.9418ZM125.743 103.399H115.258C114.403 103.399 113.705 102.702 113.705 101.824C113.705 100.947 114.403 100.249 115.258 100.249H125.743C126.598 100.249 127.295 100.947 127.295 101.824C127.295 102.702 126.598 103.399 125.743 103.399Z" fill="#6143F0"/>
<path opacity="0.4" d="M127.295 101.825C127.295 102.703 126.598 103.4 125.743 103.4H115.258C114.403 103.4 113.705 102.703 113.705 101.825C113.705 100.948 114.403 100.25 115.258 100.25H125.743C126.598 100.25 127.295 100.948 127.295 101.825Z" fill="#6143F0"/>
<path d="M147.837 130.678L147.613 130.628C138.983 128.69 132.557 120.722 132.557 112.143V105.79V105.79C132.557 104.879 132.829 103.989 133.336 103.234C133.844 102.478 134.565 101.891 135.408 101.547C135.408 101.547 135.408 101.547 135.408 101.547L144.318 97.9029C144.319 97.9028 144.319 97.9028 144.319 97.9028C146.574 96.9802 149.1 96.9802 151.355 97.9028C151.355 97.9028 151.355 97.9028 151.355 97.9029L160.265 101.547L147.837 130.678ZM147.837 130.678L148.061 130.628M147.837 130.678L148.061 130.628M148.061 130.628C156.69 128.69 163.117 120.722 163.117 112.143V105.79V105.789M148.061 130.628L163.117 105.789M163.117 105.789C163.116 104.879 162.845 103.989 162.337 103.234C161.829 102.478 161.109 101.891 160.266 101.547L163.117 105.789Z" fill="#EFECFE" stroke="white" stroke-width="2.04409"/>
<path d="M153.62 110.291L146.947 116.97L142.944 112.963" stroke="#6143F0" stroke-width="2.31664" stroke-linecap="round" stroke-linejoin="round"/>
<path d="M213.242 37.6394H26.9341V34.8299C26.9341 29.8676 30.9543 25.8438 35.9114 25.8438H204.265C209.222 25.8438 213.242 29.8676 213.242 34.8299V37.6394Z" fill="white" stroke="#E1E4E5" stroke-width="1.43784"/>
<path d="M35.9294 34.2514C36.2029 34.2513 36.4736 34.1974 36.7262 34.0926C36.9789 33.9878 37.2084 33.8342 37.4017 33.6406C37.5951 33.447 37.7484 33.2172 37.853 32.9643C37.9576 32.7114 38.0114 32.4403 38.0114 32.1666C38.0113 31.8929 37.9574 31.6219 37.8527 31.369C37.748 31.1161 37.5946 30.8863 37.4012 30.6928C37.2078 30.4993 36.9782 30.3458 36.7256 30.2411C36.4729 30.1364 36.2021 30.0825 35.9287 30.0826C35.3764 30.0827 34.8468 30.3024 34.4563 30.6933C34.0659 31.0843 33.8466 31.6145 33.8467 32.1673C33.8468 32.7202 34.0663 33.2503 34.4568 33.6411C34.8474 34.032 35.3771 34.2515 35.9294 34.2514ZM44.6052 34.2514C44.881 34.255 45.1547 34.2037 45.4106 34.1006C45.6664 33.9974 45.8992 33.8444 46.0955 33.6505C46.2918 33.4565 46.4476 33.2255 46.554 32.9708C46.6604 32.716 46.7151 32.4427 46.7151 32.1666C46.7151 31.8905 46.6603 31.6172 46.5539 31.3625C46.4474 31.1078 46.2916 30.8768 46.0952 30.6829C45.8989 30.489 45.6661 30.336 45.4102 30.2329C45.1544 30.1298 44.8806 30.0786 44.6048 30.0822C44.0573 30.0895 43.5346 30.3123 43.1499 30.7025C42.7653 31.0927 42.5496 31.6188 42.5497 32.167C42.5497 32.7151 42.7654 33.2412 43.1502 33.6314C43.5349 34.0215 44.0576 34.2442 44.6052 34.2514ZM52.9342 34.2514C53.21 34.255 53.4838 34.2037 53.7396 34.1006C53.9954 33.9974 54.2283 33.8444 54.4246 33.6505C54.6208 33.4565 54.7767 33.2255 54.883 32.9708C54.9894 32.716 55.0442 32.4427 55.0441 32.1666C55.0441 31.8905 54.9893 31.6172 54.8829 31.3625C54.7765 31.1078 54.6206 30.8768 54.4243 30.6829C54.228 30.489 53.9951 30.336 53.7393 30.2329C53.4834 30.1298 53.2097 30.0786 52.9339 30.0822C52.3863 30.0895 51.8636 30.3123 51.479 30.7025C51.0943 31.0927 50.8787 31.6188 50.8787 32.167C50.8788 32.7151 51.0945 33.2412 51.4792 33.6314C51.8639 34.0215 52.3867 34.2442 52.9342 34.2514Z" fill="#E1E4E5"/>
<path d="M182.814 30.935C178.761 33.2775 173.578 31.8873 171.237 27.8299C168.897 23.7724 170.286 18.5842 174.339 16.2416C178.393 13.899 183.576 15.2892 185.916 19.3467C188.256 23.4041 186.868 28.5924 182.814 30.935Z" fill="#6143F0"/>
<path d="M204.847 59.1104C203.386 59.9552 201.517 59.4539 200.673 57.9907C199.829 56.5275 200.33 54.6566 201.791 53.8118C203.253 52.967 205.122 53.4684 205.966 54.9315C206.81 56.3947 206.309 58.2657 204.847 59.1104Z" fill="#E1E4E5"/>
<path d="M228.173 88.6902C224.402 88.6902 221.345 91.7499 221.345 95.5243C221.345 99.2987 224.402 102.358 228.173 102.358C231.943 102.358 235 99.2987 235 95.5243C235 91.7499 231.943 88.6902 228.173 88.6902Z" fill="#6143F0"/>
<path d="M25.2761 115.602C21.5055 115.602 18.4487 118.662 18.4487 122.436C18.4487 126.211 21.5055 129.271 25.2761 129.271C29.0468 129.271 32.1035 126.211 32.1035 122.436C32.1035 118.662 29.0468 115.602 25.2761 115.602Z" fill="#6143F0"/>
<path d="M205.826 83.8962C206.798 84.4578 207.131 85.7016 206.57 86.6743C206.009 87.647 204.766 87.9803 203.795 87.4187C202.823 86.8571 202.49 85.6133 203.051 84.6406C203.612 83.6679 204.855 83.3347 205.826 83.8962Z" fill="#E1E4E5"/>
<path d="M19.1714 150.601C21.4537 150.601 23.3038 152.453 23.3038 154.737C23.3038 157.022 21.4537 158.874 19.1714 158.874C16.8892 158.874 15.0391 157.022 15.0391 154.737C15.0391 152.453 16.8892 150.601 19.1714 150.601Z" fill="#E1E4E5"/>
<path d="M41.576 136.809C40.0876 136.809 38.881 135.602 38.881 134.112C38.881 132.622 40.0876 131.414 41.576 131.414C43.0644 131.414 44.271 132.622 44.271 134.112C44.271 135.602 43.0644 136.809 41.576 136.809Z" fill="#E1E4E5"/>
<path d="M12.29 59.4763C15.0684 59.4763 17.3207 57.3023 17.3207 54.6205C17.3207 51.9387 15.0684 49.7646 12.29 49.7646C9.5116 49.7646 7.25928 51.9387 7.25928 54.6205C7.25928 57.3023 9.5116 59.4763 12.29 59.4763Z" fill="#E1E4E5"/>
<defs>
<linearGradient id="paint0_linear_5102_17976" x1="92.8235" y1="-87.9983" x2="150.37" y2="340.412" gradientUnits="userSpaceOnUse">
<stop stop-color="white"/>
<stop offset="1" stop-color="#EEEEEE"/>
</linearGradient>
<linearGradient id="paint1_linear_5102_17976" x1="177.323" y1="44.3078" x2="186.343" y2="254.583" gradientUnits="userSpaceOnUse">
<stop stop-color="white"/>
<stop offset="1" stop-color="#EEEEEE"/>
</linearGradient>
<linearGradient id="paint2_linear_5102_17976" x1="23.7771" y1="-4.99013" x2="32.8415" y2="180.287" gradientUnits="userSpaceOnUse">
<stop stop-color="white"/>
<stop offset="1" stop-color="#EEEEEE"/>
</linearGradient>
<linearGradient id="paint3_linear_5102_17976" x1="81.4079" y1="74.0428" x2="56.5958" y2="51.0117" gradientUnits="userSpaceOnUse">
<stop stop-color="white"/>
<stop offset="1" stop-color="#EEEEEE"/>
</linearGradient>
<linearGradient id="paint4_linear_5102_17976" x1="81.384" y1="78.8849" x2="81.2498" y2="40.7657" gradientUnits="userSpaceOnUse">
<stop stop-color="white"/>
<stop offset="1" stop-color="#EEEEEE"/>
</linearGradient>
</defs>
</svg>
