<svg width="32" height="32" viewBox="0 0 32 32" fill="none" xmlns="http://www.w3.org/2000/svg">
<path d="M1.33337 29.3335H30.6667" stroke="#6143F0" stroke-width="1.5" stroke-miterlimit="10" stroke-linecap="round" stroke-linejoin="round"/>
<path d="M26.3737 29.3466V23.3999" stroke="#6143F0" stroke-width="1.5" stroke-miterlimit="10" stroke-linecap="round" stroke-linejoin="round"/>
<path d="M26.3995 14.52C24.7729 14.52 23.4662 15.8267 23.4662 17.4534V20.48C23.4662 22.1066 24.7729 23.4133 26.3995 23.4133C28.0262 23.4133 29.3329 22.1066 29.3329 20.48V17.4534C29.3329 15.8267 28.0262 14.52 26.3995 14.52Z" stroke="#6143F0" stroke-width="1.5" stroke-miterlimit="10" stroke-linecap="round" stroke-linejoin="round"/>
<path d="M2.79944 29.3332V8.03988C2.79944 5.35988 4.13284 4.01318 6.78617 4.01318H15.0928C17.7461 4.01318 19.0661 5.35988 19.0661 8.03988V29.3332" stroke="#6143F0" stroke-width="1.5" stroke-miterlimit="10" stroke-linecap="round" stroke-linejoin="round"/>
<path d="M7.73328 11H14.3333" stroke="#6143F0" stroke-width="1.5" stroke-miterlimit="10" stroke-linecap="round" stroke-linejoin="round"/>
<path d="M7.73328 16H14.3333" stroke="#6143F0" stroke-width="1.5" stroke-miterlimit="10" stroke-linecap="round" stroke-linejoin="round"/>
<path d="M11 29.3335V24.3335" stroke="#6143F0" stroke-width="1.5" stroke-miterlimit="10" stroke-linecap="round" stroke-linejoin="round"/>
</svg>
