<svg width="14" height="16" viewBox="0 0 14 16" fill="none" xmlns="http://www.w3.org/2000/svg">
<path d="M13.2887 2.66666H11.2221C10.9031 1.11572 9.53879 0.002 7.95538 0H6.62204C5.03863 0.002 3.67432 1.11572 3.35538 2.66666H1.28873C0.920539 2.66666 0.62207 2.96513 0.62207 3.33331C0.62207 3.7015 0.920539 4 1.28873 4H1.95538V12.6667C1.9576 14.5067 3.4487 15.9978 5.28873 16H9.28873C11.1288 15.9978 12.6199 14.5067 12.6221 12.6667V4H13.2887C13.6569 4 13.9554 3.70153 13.9554 3.33334C13.9554 2.96516 13.6569 2.66666 13.2887 2.66666ZM6.62207 11.3333C6.62207 11.7015 6.3236 12 5.95541 12C5.58719 12 5.28873 11.7015 5.28873 11.3333V7.33334C5.28873 6.96516 5.58719 6.66669 5.95538 6.66669C6.32357 6.66669 6.62204 6.96516 6.62204 7.33334V11.3333H6.62207ZM9.28873 11.3333C9.28873 11.7015 8.99026 12 8.62207 12C8.25388 12 7.95541 11.7015 7.95541 11.3333V7.33334C7.95541 6.96516 8.25388 6.66669 8.62207 6.66669C8.99026 6.66669 9.28873 6.96516 9.28873 7.33334V11.3333ZM4.73607 2.66666C5.01963 1.86819 5.77476 1.33434 6.62207 1.33331H7.95541C8.80273 1.33434 9.55785 1.86819 9.84141 2.66666H4.73607Z" fill="#EB3D4D"/>
</svg>
