<svg width="32" height="32" viewBox="0 0 32 32" fill="none" xmlns="http://www.w3.org/2000/svg">
<path opacity="0.4" d="M27.3333 13.5865H23.48C20.32 13.5865 17.7467 11.0132 17.7467 7.85317V3.99984C17.7467 3.2665 17.1467 2.6665 16.4133 2.6665H10.76C6.65333 2.6665 3.33333 5.33317 3.33333 10.0932V21.9065C3.33333 26.6665 6.65333 29.3332 10.76 29.3332H21.24C25.3467 29.3332 28.6667 26.6665 28.6667 21.9065V14.9198C28.6667 14.1865 28.0667 13.5865 27.3333 13.5865Z" fill="#6143F0"/>
<path d="M21.0667 2.94682C20.52 2.40015 19.5733 2.77349 19.5733 3.53349V8.18682C19.5733 10.1335 21.2267 11.7468 23.24 11.7468C24.5067 11.7602 26.2667 11.7602 27.7733 11.7602C28.5333 11.7602 28.9333 10.8668 28.4 10.3335C26.48 8.40015 23.04 4.92015 21.0667 2.94682Z" fill="#6143F0"/>
<path d="M15.3733 16.6265L12.7067 13.9598C12.6933 13.9465 12.68 13.9465 12.68 13.9332C12.6 13.8532 12.4933 13.7865 12.3867 13.7332C12.3733 13.7332 12.3733 13.7332 12.36 13.7332C12.2533 13.6932 12.1467 13.6798 12.04 13.6665C12 13.6665 11.9733 13.6665 11.9333 13.6665C11.8533 13.6665 11.76 13.6932 11.68 13.7198C11.64 13.7332 11.6133 13.7465 11.5867 13.7598C11.48 13.8132 11.3733 13.8665 11.2933 13.9598L8.62667 16.6265C8.24 17.0132 8.24 17.6532 8.62667 18.0398C9.01333 18.4265 9.65333 18.4265 10.04 18.0398L11 17.0798V22.6665C11 23.2132 11.4533 23.6665 12 23.6665C12.5467 23.6665 13 23.2132 13 22.6665V17.0798L13.96 18.0398C14.16 18.2398 14.4133 18.3332 14.6667 18.3332C14.92 18.3332 15.1733 18.2398 15.3733 18.0398C15.76 17.6532 15.76 17.0132 15.3733 16.6265Z" fill="#6143F0"/>
</svg>
