<svg width="17" height="16" viewBox="0 0 17 16" fill="none" xmlns="http://www.w3.org/2000/svg">
<g clip-path="url(#clip0_5595_7975)">
<path d="M1.06991 12.7459C0.569776 13.2459 0.288725 13.9241 0.288574 14.6312L0.288574 15.9999H1.65724C2.36443 15.9997 3.04259 15.7187 3.54257 15.2186L12.4379 6.32325L9.96524 3.85059L1.06991 12.7459Z" fill="#1D1F2C"/>
<path d="M15.7184 0.570239C15.556 0.407729 15.3633 0.278809 15.1511 0.19085C14.9389 0.102891 14.7114 0.0576172 14.4817 0.0576172C14.252 0.0576172 14.0246 0.102891 13.8124 0.19085C13.6002 0.278809 13.4074 0.407729 13.245 0.570239L10.9077 2.90824L13.3804 5.38091L15.7184 3.04357C15.8809 2.88123 16.0098 2.68845 16.0978 2.47626C16.1857 2.26406 16.231 2.03661 16.231 1.80691C16.231 1.5772 16.1857 1.34975 16.0978 1.13755C16.0098 0.925358 15.8809 0.73258 15.7184 0.570239Z" fill="#374957"/>
</g>
<defs>
<clipPath id="clip0_5595_7975">
<rect width="16" height="16" fill="white" transform="translate(0.288574)"/>
</clipPath>
</defs>
</svg>
