<svg width="16" height="16" viewBox="0 0 16 16" fill="none" xmlns="http://www.w3.org/2000/svg">
<path d="M4.2998 14.6668C4.02647 14.6668 3.7998 14.4402 3.7998 14.1668V1.8335C3.7998 1.56016 4.02647 1.3335 4.2998 1.3335C4.57314 1.3335 4.7998 1.56016 4.7998 1.8335V14.1668C4.7998 14.4402 4.57314 14.6668 4.2998 14.6668Z" fill="#6143F0"/>
<path opacity="0.4" d="M10.1334 4.77352L4.73339 2.44019C4.65339 2.40019 4.56672 2.41352 4.49339 2.46019C4.42672 2.50686 4.38672 2.58019 4.38672 2.66686V11.3335C4.38672 11.4202 4.43339 11.5002 4.50672 11.5469C4.54672 11.5735 4.59339 11.5869 4.64005 11.5869C4.68005 11.5869 4.71339 11.5802 4.75339 11.5602L10.2867 8.82686C10.2867 8.82686 10.2867 8.82686 10.2934 8.82686C11.4001 8.25352 11.9934 7.51352 11.9601 6.73352C11.9201 5.94686 11.2734 5.25352 10.1334 4.77352Z" fill="#6143F0"/>
</svg>
