<svg width="43" height="43" viewBox="0 0 43 43" fill="none" xmlns="http://www.w3.org/2000/svg">
<rect x="1.40909" y="0.909091" width="40.3636" height="40.3636" rx="20.1818" fill="#6143F0"/>
<rect x="1.40909" y="0.909091" width="40.3636" height="40.3636" rx="20.1818" stroke="white" stroke-width="1.81818"/>
<path d="M18.5908 19.8408C17.0708 19.8408 15.8408 18.6108 15.8408 17.0908C15.8408 15.5708 17.0708 14.3408 18.5908 14.3408C20.1108 14.3408 21.3408 15.5708 21.3408 17.0908C21.3408 18.6108 20.1108 19.8408 18.5908 19.8408ZM18.5908 15.8408C17.9008 15.8408 17.3408 16.4008 17.3408 17.0908C17.3408 17.7808 17.9008 18.3408 18.5908 18.3408C19.2808 18.3408 19.8408 17.7808 19.8408 17.0908C19.8408 16.4008 19.2808 15.8408 18.5908 15.8408Z" fill="white"/>
<path d="M24.5908 31.8408H18.5908C13.1608 31.8408 10.8408 29.5208 10.8408 24.0908V18.0908C10.8408 12.6608 13.1608 10.3408 18.5908 10.3408H22.5908C23.0008 10.3408 23.3408 10.6808 23.3408 11.0908C23.3408 11.5008 23.0008 11.8408 22.5908 11.8408H18.5908C13.9808 11.8408 12.3408 13.4808 12.3408 18.0908V24.0908C12.3408 28.7008 13.9808 30.3408 18.5908 30.3408H24.5908C29.2008 30.3408 30.8408 28.7008 30.8408 24.0908V19.0908C30.8408 18.6808 31.1808 18.3408 31.5908 18.3408C32.0008 18.3408 32.3408 18.6808 32.3408 19.0908V24.0908C32.3408 29.5208 30.0208 31.8408 24.5908 31.8408Z" fill="white"/>
<path d="M25.2607 18.8408C24.8707 18.8408 24.5107 18.7008 24.2507 18.4308C23.9407 18.1208 23.7907 17.6608 23.8607 17.1908L24.0607 15.8008C24.1107 15.4508 24.3207 15.0208 24.5807 14.7708L28.2107 11.1408C29.6607 9.69076 30.9207 10.5208 31.5407 11.1408C32.1307 11.7308 32.4007 12.3508 32.3407 12.9908C32.2907 13.5008 32.0307 13.9908 31.5407 14.4708L27.9107 18.1008C27.6607 18.3508 27.2307 18.5608 26.8807 18.6208L25.4907 18.8208C25.4107 18.8408 25.3307 18.8408 25.2607 18.8408ZM29.2607 12.2108L25.6307 15.8408C25.6007 15.8708 25.5507 15.9808 25.5407 16.0308L25.3507 17.3308L26.6607 17.1508C26.7007 17.1408 26.8107 17.0908 26.8507 17.0508L30.4807 13.4208C30.7007 13.2008 30.8307 13.0008 30.8407 12.8508C30.8607 12.6408 30.6507 12.3808 30.4807 12.2108C29.9607 11.6908 29.7207 11.7508 29.2607 12.2108Z" fill="white"/>
<path d="M30.4906 15.2206C30.4206 15.2206 30.3506 15.2106 30.2906 15.1906C28.9506 14.8106 27.8806 13.7406 27.5006 12.4006C27.3906 12.0006 27.6206 11.5906 28.0206 11.4806C28.4206 11.3706 28.8306 11.6006 28.9406 12.0006C29.1806 12.8406 29.8506 13.5206 30.7006 13.7606C31.1006 13.8706 31.3306 14.2906 31.2206 14.6806C31.1106 15.0006 30.8106 15.2206 30.4906 15.2206Z" fill="white"/>
<path d="M12.2606 28.7909C12.0206 28.7909 11.7806 28.6709 11.6406 28.4609C11.4106 28.1209 11.5006 27.6509 11.8406 27.4209L16.7706 24.1109C17.8506 23.3909 19.3406 23.4709 20.3206 24.3009L20.6506 24.5909C21.1506 25.0209 22.0006 25.0209 22.4906 24.5909L26.6506 21.0209C27.7106 20.1109 29.3806 20.1109 30.4506 21.0209L32.0806 22.4209C32.3906 22.6909 32.4306 23.1609 32.1606 23.4809C31.8906 23.7909 31.4206 23.8309 31.1006 23.5609L29.4706 22.1609C28.9706 21.7309 28.1206 21.7309 27.6306 22.1609L23.4706 25.7309C22.4106 26.6409 20.7406 26.6409 19.6706 25.7309L19.3406 25.4409C18.8806 25.0509 18.1206 25.0109 17.6106 25.3609L12.6906 28.6709C12.5506 28.7509 12.4006 28.7909 12.2606 28.7909Z" fill="white"/>
</svg>
