<svg width="14" height="15" viewBox="0 0 14 15" fill="none" xmlns="http://www.w3.org/2000/svg">
<path d="M5.25 11.0934V4.57637C5.25002 4.46102 5.28425 4.34826 5.34835 4.25236C5.41245 4.15645 5.50354 4.0817 5.61012 4.03756C5.71669 3.99342 5.83396 3.98187 5.9471 4.00437C6.06024 4.02686 6.16417 4.0824 6.24575 4.16396L9.50424 7.42246C9.6136 7.53185 9.67503 7.68019 9.67503 7.83487C9.67503 7.98955 9.6136 8.1379 9.50424 8.24729L6.24575 11.5058C6.16417 11.5873 6.06024 11.6429 5.9471 11.6654C5.83396 11.6879 5.71669 11.6763 5.61012 11.6322C5.50354 11.588 5.41245 11.5133 5.34835 11.4174C5.28425 11.3215 5.25002 11.2087 5.25 11.0934Z" fill="#1D1F2C"/>
</svg>
