<svg width="14" height="15" viewBox="0 0 14 15" fill="none" xmlns="http://www.w3.org/2000/svg">
<path d="M7.75251 11.5079L4.49751 8.2471C4.38886 8.13781 4.32788 7.98996 4.32788 7.83585C4.32788 7.68175 4.38886 7.5339 4.49751 7.4246L7.75251 4.16377C7.8341 4.0815 7.93834 4.0254 8.05195 4.00261C8.16555 3.97982 8.28337 3.99137 8.39037 4.0358C8.49738 4.08023 8.58874 4.15553 8.65279 4.25208C8.71684 4.34863 8.75068 4.46207 8.75001 4.57794V11.0938C8.75068 11.2096 8.71684 11.3231 8.65279 11.4196C8.58874 11.5162 8.49738 11.5915 8.39037 11.6359C8.28337 11.6803 8.16555 11.6919 8.05195 11.6691C7.93834 11.6463 7.8341 11.5902 7.75251 11.5079Z" fill="#1D1F2C"/>
</svg>
