<svg width="28" height="28" viewBox="0 0 28 28" fill="none" xmlns="http://www.w3.org/2000/svg">
<path d="M17.3333 12.6668H18.6666C19.9999 12.6668 20.6666 12.0002 20.6666 10.6668V9.3335C20.6666 8.00016 19.9999 7.3335 18.6666 7.3335H17.3333C15.9999 7.3335 15.3333 8.00016 15.3333 9.3335V10.6668C15.3333 12.0002 15.9999 12.6668 17.3333 12.6668Z" stroke="#FAFAFA" stroke-width="1.5" stroke-miterlimit="10" stroke-linecap="round" stroke-linejoin="round"/>
<path d="M9.33325 20.6668H10.6666C11.9999 20.6668 12.6666 20.0002 12.6666 18.6668V17.3335C12.6666 16.0002 11.9999 15.3335 10.6666 15.3335H9.33325C7.99992 15.3335 7.33325 16.0002 7.33325 17.3335V18.6668C7.33325 20.0002 7.99992 20.6668 9.33325 20.6668Z" stroke="#FAFAFA" stroke-width="1.5" stroke-miterlimit="10" stroke-linecap="round" stroke-linejoin="round"/>
<path d="M9.99992 12.6668C11.4727 12.6668 12.6666 11.4729 12.6666 10.0002C12.6666 8.5274 11.4727 7.3335 9.99992 7.3335C8.52716 7.3335 7.33325 8.5274 7.33325 10.0002C7.33325 11.4729 8.52716 12.6668 9.99992 12.6668Z" stroke="#FAFAFA" stroke-width="1.5" stroke-miterlimit="10" stroke-linecap="round" stroke-linejoin="round"/>
<path d="M17.9999 20.6668C19.4727 20.6668 20.6666 19.4729 20.6666 18.0002C20.6666 16.5274 19.4727 15.3335 17.9999 15.3335C16.5272 15.3335 15.3333 16.5274 15.3333 18.0002C15.3333 19.4729 16.5272 20.6668 17.9999 20.6668Z" stroke="#FAFAFA" stroke-width="1.5" stroke-miterlimit="10" stroke-linecap="round" stroke-linejoin="round"/>
</svg>
