<svg width="28" height="28" viewBox="0 0 28 28" fill="none" xmlns="http://www.w3.org/2000/svg">
<path d="M21 8.3535C20.93 8.34183 20.8483 8.34183 20.7783 8.3535C19.1683 8.29517 17.885 6.97683 17.885 5.3435C17.885 3.67516 19.2267 2.3335 20.895 2.3335C22.5633 2.3335 23.905 3.68683 23.905 5.3435C23.8933 6.97683 22.61 8.29517 21 8.3535Z" stroke="white" stroke-width="1.5" stroke-linecap="round" stroke-linejoin="round"/>
<path d="M19.7987 16.847C21.397 17.1154 23.1587 16.8353 24.3953 16.007C26.0403 14.9103 26.0403 13.1137 24.3953 12.017C23.147 11.1887 21.362 10.9087 19.7637 11.1887" stroke="white" stroke-width="1.5" stroke-linecap="round" stroke-linejoin="round"/>
<path d="M6.9653 8.3535C7.0353 8.34183 7.11697 8.34183 7.18697 8.3535C8.79697 8.29517 10.0803 6.97683 10.0803 5.3435C10.0803 3.67516 8.73864 2.3335 7.07031 2.3335C5.40197 2.3335 4.0603 3.68683 4.0603 5.3435C4.07197 6.97683 5.3553 8.29517 6.9653 8.3535Z" stroke="white" stroke-width="1.5" stroke-linecap="round" stroke-linejoin="round"/>
<path d="M8.16709 16.847C6.56875 17.1154 4.80709 16.8353 3.57042 16.007C1.92542 14.9103 1.92542 13.1137 3.57042 12.017C4.81875 11.1887 6.60375 10.9087 8.20208 11.1887" stroke="white" stroke-width="1.5" stroke-linecap="round" stroke-linejoin="round"/>
<path d="M14 17.0688C13.93 17.0572 13.8483 17.0572 13.7783 17.0688C12.1683 17.0105 10.885 15.6922 10.885 14.0588C10.885 12.3905 12.2267 11.0488 13.895 11.0488C15.5633 11.0488 16.905 12.4022 16.905 14.0588C16.8933 15.6922 15.61 17.0222 14 17.0688Z" stroke="white" stroke-width="1.5" stroke-linecap="round" stroke-linejoin="round"/>
<path d="M10.6046 20.7439C8.9596 21.8406 8.9596 23.6372 10.6046 24.7339C12.4713 25.9822 15.5279 25.9822 17.3946 24.7339C19.0396 23.6372 19.0396 21.8406 17.3946 20.7439C15.5396 19.5072 12.4713 19.5072 10.6046 20.7439Z" stroke="white" stroke-width="1.5" stroke-linecap="round" stroke-linejoin="round"/>
</svg>
