<svg width="28" height="28" viewBox="0 0 28 28" fill="none" xmlns="http://www.w3.org/2000/svg">
<path d="M1.16675 25.6665H26.8334" stroke="white" stroke-width="1.5" stroke-miterlimit="10" stroke-linecap="round" stroke-linejoin="round"/>
<path d="M23.0769 25.678V20.4746" stroke="white" stroke-width="1.5" stroke-miterlimit="10" stroke-linecap="round" stroke-linejoin="round"/>
<path d="M23.0996 12.7051C21.6763 12.7051 20.533 13.8484 20.533 15.2718V17.92C20.533 19.3434 21.6763 20.4867 23.0996 20.4867C24.523 20.4867 25.6663 19.3434 25.6663 17.92V15.2718C25.6663 13.8484 24.523 12.7051 23.0996 12.7051Z" stroke="white" stroke-width="1.5" stroke-miterlimit="10" stroke-linecap="round" stroke-linejoin="round"/>
<path d="M2.44946 25.6662V7.03459C2.44946 4.68959 3.61619 3.51123 5.93786 3.51123H13.2062C15.5278 3.51123 16.6828 4.68959 16.6828 7.03459V25.6662" stroke="white" stroke-width="1.5" stroke-miterlimit="10" stroke-linecap="round" stroke-linejoin="round"/>
<path d="M6.7666 9.625H12.5416" stroke="white" stroke-width="1.5" stroke-miterlimit="10" stroke-linecap="round" stroke-linejoin="round"/>
<path d="M6.7666 14H12.5416" stroke="white" stroke-width="1.5" stroke-miterlimit="10" stroke-linecap="round" stroke-linejoin="round"/>
<path d="M9.625 25.6665V21.2915" stroke="white" stroke-width="1.5" stroke-miterlimit="10" stroke-linecap="round" stroke-linejoin="round"/>
</svg>
