<svg width="28" height="28" viewBox="0 0 28 28" fill="none" xmlns="http://www.w3.org/2000/svg">
<path d="M19.8333 23.9168H8.16659C4.66659 23.9168 2.33325 22.1668 2.33325 18.0835V9.91683C2.33325 5.8335 4.66659 4.0835 8.16659 4.0835H19.8333C23.3333 4.0835 25.6666 5.8335 25.6666 9.91683V18.0835C25.6666 22.1668 23.3333 23.9168 19.8333 23.9168Z" stroke="#777980" stroke-width="1.5" stroke-miterlimit="10" stroke-linecap="round" stroke-linejoin="round"/>
<path d="M19.8333 23.9168H8.16659C4.66659 23.9168 2.33325 22.1668 2.33325 18.0835V9.91683C2.33325 5.8335 4.66659 4.0835 8.16659 4.0835H19.8333C23.3333 4.0835 25.6666 5.8335 25.6666 9.91683V18.0835C25.6666 22.1668 23.3333 23.9168 19.8333 23.9168Z" stroke="black" stroke-opacity="0.2" stroke-width="1.5" stroke-miterlimit="10" stroke-linecap="round" stroke-linejoin="round"/>
<path d="M14 17.5C15.933 17.5 17.5 15.933 17.5 14C17.5 12.067 15.933 10.5 14 10.5C12.067 10.5 10.5 12.067 10.5 14C10.5 15.933 12.067 17.5 14 17.5Z" stroke="#777980" stroke-width="1.5" stroke-miterlimit="10" stroke-linecap="round" stroke-linejoin="round"/>
<path d="M14 17.5C15.933 17.5 17.5 15.933 17.5 14C17.5 12.067 15.933 10.5 14 10.5C12.067 10.5 10.5 12.067 10.5 14C10.5 15.933 12.067 17.5 14 17.5Z" stroke="black" stroke-opacity="0.2" stroke-width="1.5" stroke-miterlimit="10" stroke-linecap="round" stroke-linejoin="round"/>
<path d="M22.1667 8.1665H18.6667" stroke="#777980" stroke-width="1.5" stroke-miterlimit="10" stroke-linecap="round" stroke-linejoin="round"/>
<path d="M22.1667 8.1665H18.6667" stroke="black" stroke-opacity="0.2" stroke-width="1.5" stroke-miterlimit="10" stroke-linecap="round" stroke-linejoin="round"/>
<path d="M9.33325 19.8335H5.83325" stroke="#777980" stroke-width="1.5" stroke-miterlimit="10" stroke-linecap="round" stroke-linejoin="round"/>
<path d="M9.33325 19.8335H5.83325" stroke="black" stroke-opacity="0.2" stroke-width="1.5" stroke-miterlimit="10" stroke-linecap="round" stroke-linejoin="round"/>
</svg>
