<svg width="40" height="40" viewBox="0 0 40 40" fill="none" xmlns="http://www.w3.org/2000/svg">
<rect x="0.935379" y="0.935303" width="38.1046" height="38.1046" rx="19.0523" fill="#6143F0"/>
<path fill-rule="evenodd" clip-rule="evenodd" d="M19.9877 11.8287C15.4816 11.8287 11.8287 15.4816 11.8287 19.9877C11.8287 24.4937 15.4816 28.1466 19.9877 28.1466C24.4938 28.1466 28.1467 24.4937 28.1467 19.9877C28.1467 15.4816 24.4938 11.8287 19.9877 11.8287ZM10.5056 19.9877C10.5056 14.7509 14.7509 10.5056 19.9877 10.5056C25.2245 10.5056 29.4697 14.7509 29.4697 19.9877C29.4697 25.2245 25.2245 29.4697 19.9877 29.4697C14.7509 29.4697 10.5056 25.2245 10.5056 19.9877ZM19.9877 14.0338C20.3531 14.0338 20.6492 14.33 20.6492 14.6954V14.9747C22.0874 15.2322 23.2954 16.3127 23.2954 17.7825C23.2954 18.1479 22.9992 18.4441 22.6339 18.4441C22.2685 18.4441 21.9723 18.1479 21.9723 17.7825C21.9723 17.0379 21.2018 16.2389 19.9877 16.2389C18.7736 16.2389 18.0031 17.0379 18.0031 17.7825C18.0031 18.5272 18.7736 19.3261 19.9877 19.3261C21.6964 19.3261 23.2954 20.5018 23.2954 22.1928C23.2954 23.6626 22.0874 24.7431 20.6492 25.0006V25.28C20.6492 25.6453 20.3531 25.9415 19.9877 25.9415C19.6223 25.9415 19.3262 25.6453 19.3262 25.28V25.0006C17.888 24.7431 16.68 23.6626 16.68 22.1928C16.68 21.8274 16.9762 21.5313 17.3415 21.5313C17.7069 21.5313 18.0031 21.8274 18.0031 22.1928C18.0031 22.9375 18.7736 23.7364 19.9877 23.7364C21.2018 23.7364 21.9723 22.9375 21.9723 22.1928C21.9723 21.4481 21.2018 20.6492 19.9877 20.6492C18.279 20.6492 16.68 19.4736 16.68 17.7825C16.68 16.3127 17.888 15.2322 19.3262 14.9747V14.6954C19.3262 14.33 19.6223 14.0338 19.9877 14.0338Z" fill="white"/>
</svg>
