<svg width="39" height="40" viewBox="0 0 39 40" fill="none" xmlns="http://www.w3.org/2000/svg">
<rect x="0.183594" y="0.630615" width="38.6638" height="38.6638" rx="19.3319" fill="#6143F0"/>
<path d="M16.8031 28.9126H22.173C26.648 28.9126 28.438 27.1226 28.438 22.6476V17.2777C28.438 12.8027 26.648 11.0127 22.173 11.0127H16.8031C12.3281 11.0127 10.5381 12.8027 10.5381 17.2777V22.6476C10.5381 27.1226 12.3281 28.9126 16.8031 28.9126Z" stroke="white" stroke-width="1.61099" stroke-linecap="round" stroke-linejoin="round"/>
<path d="M10.5381 20.5892L15.9081 20.5713C16.5793 20.5713 17.3311 21.0814 17.5817 21.7079L18.602 24.2855C18.8347 24.8673 19.2017 24.8673 19.4344 24.2855L21.4839 19.0856C21.6808 18.5844 22.0477 18.5665 22.2983 19.0409L23.2291 20.804C23.5066 21.332 24.2226 21.7616 24.8133 21.7616H28.447" stroke="white" stroke-width="1.61099" stroke-linecap="round" stroke-linejoin="round"/>
</svg>
