<svg width="489" height="488" viewBox="0 0 489 488" fill="none" xmlns="http://www.w3.org/2000/svg">
<path d="M244.334 421.648C376.846 421.648 484.268 418.648 484.268 414.946C484.268 411.245 376.846 408.245 244.334 408.245C111.823 408.245 4.40112 411.245 4.40112 414.946C4.40112 418.648 111.823 421.648 244.334 421.648Z" fill="#EEEEEE"/>
<path d="M409.287 314.624H383.814V185.304H398.145C404.294 185.304 409.287 190.298 409.287 196.447V314.624ZM87.9231 307.646H113.397V178.326H99.0658C92.917 178.326 87.9231 183.32 87.9231 189.469V307.646Z" fill="#F7991C"/>
<path d="M378.119 268.167H114.42C106.823 268.167 100.658 262.002 100.658 254.405V81.5393C100.658 73.9428 106.823 67.7777 114.42 67.7777H378.119C385.715 67.7777 391.88 73.9428 391.88 81.5393V254.405C391.88 262.002 385.715 268.167 378.119 268.167Z" fill="#EEEEEE"/>
<path d="M426.335 238.984L409.417 399.504C408.393 409.166 400.243 416.519 390.499 416.519H99.7325C90.005 416.519 81.8392 409.182 80.8306 399.504L75.2186 346.361L61.4408 215.674C60.2533 204.45 69.0536 194.658 80.3426 194.658H216.901L235.104 220.993H410.133C419.812 220.993 427.359 229.371 426.335 238.984Z" fill="#FFA726"/>
<path d="M394.142 284.092H309.653C306.856 284.092 304.594 281.831 304.594 279.033V252.03C304.594 249.232 306.856 246.971 309.653 246.971H394.142C396.94 246.971 399.201 249.232 399.201 252.03V279.033C399.201 281.831 396.924 284.092 394.142 284.092Z" fill="white"/>
<path d="M386.023 253.689H317.768V257.642H386.023V253.689Z" fill="#E0E0E0"/>
<path d="M337.5 263.563H317.768V267.516H337.5V263.563Z" fill="#E0E0E0"/>
<path d="M386.025 263.563H342.495V267.516H386.025V263.563Z" fill="#E0E0E0"/>
<path d="M342.494 273.437H317.768V277.39H342.494V273.437Z" fill="#E0E0E0"/>
<path d="M370.962 273.437H346.237V277.39H370.962V273.437Z" fill="#E0E0E0"/>
<path d="M286.261 183.775C285.155 183.775 284.032 183.401 283.105 182.62C258.315 161.62 234.224 161.62 209.433 182.62C207.384 184.361 204.309 184.1 202.569 182.051C200.828 180.001 201.089 176.927 203.138 175.186C231.768 150.933 260.787 150.933 289.417 175.186C291.466 176.927 291.726 180.001 289.986 182.051C289.01 183.19 287.644 183.775 286.261 183.775Z" fill="#414042"/>
<path d="M204.667 132.405C203.398 132.405 202.129 131.917 201.169 130.924L172.849 101.775C170.979 99.8389 171.011 96.7645 172.947 94.8776C174.883 93.0069 177.957 93.0394 179.844 94.9752L208.164 124.125C210.035 126.061 210.002 129.135 208.067 131.022C207.107 131.949 205.887 132.405 204.667 132.405Z" fill="#414042"/>
<path d="M176.332 132.405C175.112 132.405 173.876 131.949 172.932 131.022C170.997 129.151 170.964 126.061 172.835 124.125L201.171 94.975C203.042 93.0393 206.133 93.0068 208.068 94.8774C210.004 96.7481 210.037 99.8388 208.166 101.774L179.829 130.924C178.886 131.9 177.617 132.405 176.332 132.405Z" fill="#414042"/>
<path d="M316.207 132.405C314.938 132.405 313.67 131.917 312.71 130.925L284.39 101.775C282.519 99.8391 282.551 96.7647 284.487 94.8778C286.423 92.9908 289.497 93.0396 291.384 94.9754L319.704 124.125C321.575 126.061 321.543 129.135 319.607 131.022C318.647 131.95 317.427 132.405 316.207 132.405Z" fill="#414042"/>
<path d="M287.887 132.404C286.667 132.404 285.431 131.949 284.488 131.022C282.552 129.151 282.519 126.061 284.39 124.125L312.71 94.9749C314.581 93.0392 317.672 93.0066 319.607 94.8773C321.543 96.748 321.576 99.8386 319.705 101.774L291.385 130.924C290.425 131.9 289.156 132.404 287.887 132.404Z" fill="#414042"/>
</svg>
