<svg width="180" height="189" viewBox="0 0 180 189" fill="none" xmlns="http://www.w3.org/2000/svg">
<g clip-path="url(#clip0_5794_4034)">
<path d="M22.0624 44.8043L20.6636 46.4918L47.9523 129.383L49.614 129.277L22.0624 44.8043Z" fill="black"/>
<path d="M47.9526 129.709C47.8116 129.709 47.6856 129.62 47.6422 129.484L20.3535 46.595C20.3182 46.4879 20.3399 46.3713 20.4118 46.2832L21.8092 44.5957C21.8851 44.5036 22.0057 44.4588 22.1223 44.4832C22.2389 44.5049 22.3351 44.5903 22.3717 44.7028L49.9234 129.175C49.9545 129.272 49.9396 129.377 49.8827 129.46C49.8258 129.544 49.7336 129.597 49.6319 129.602L47.9716 129.708C47.9661 129.709 47.9594 129.709 47.9526 129.709ZM21.0326 46.5611L48.1857 129.04L49.1725 128.976L21.9353 45.4713L21.0326 46.5611Z" fill="black"/>
<path d="M120.114 36.2314L147.666 120.704L49.6146 129.277L22.063 44.8044L120.114 36.2314Z" fill="white"/>
<path d="M120.114 36.2314L123.745 47.3648L25.6942 55.9378L22.063 44.8044L120.114 36.2314Z" fill="#D3D3D3"/>
<path d="M49.6142 129.604C49.4732 129.604 49.3472 129.513 49.3025 129.377L21.7508 44.9061C21.7196 44.8112 21.7332 44.7069 21.7887 44.6242C21.8443 44.5415 21.9338 44.4873 22.0327 44.4792L120.085 35.9061C120.243 35.8953 120.378 35.9861 120.425 36.1311L147.977 120.604C148.008 120.699 147.995 120.803 147.939 120.886C147.884 120.968 147.794 121.023 147.694 121.031L49.6427 129.604C49.6332 129.604 49.6237 129.604 49.6142 129.604ZM22.5017 45.0945L49.8446 128.929L147.226 120.414L119.883 36.5798L22.5017 45.0945Z" fill="black"/>
<path d="M30.4379 50.3455C30.7591 51.3296 30.446 52.1835 29.7385 52.2458C29.0336 52.3068 28.1973 51.5545 27.8761 50.5692C27.5535 49.5811 27.8666 48.7271 28.5714 48.6648C29.2776 48.6038 30.1153 49.3574 30.4379 50.3455ZM34.4133 49.9985C34.7345 50.9826 34.4214 51.8365 33.7139 51.8988C33.0091 51.9598 32.1728 51.2076 31.8516 50.2222C31.529 49.2341 31.8421 48.3802 32.5469 48.3178C33.2544 48.2568 34.0921 49.0104 34.4133 49.9985ZM38.3901 49.6502C38.7114 50.6342 38.3982 51.4881 37.6907 51.5505C36.9859 51.6115 36.1496 50.8592 35.8284 49.8738C35.5058 48.8857 35.8189 48.0318 36.5237 47.9695C37.2312 47.9085 38.0675 48.6621 38.3901 49.6502Z" fill="white"/>
<path d="M151.652 98.0236C151.523 98.0236 151.4 97.9463 151.348 97.8189L142.587 76.2826C142.519 76.1159 142.599 75.9248 142.767 75.857C142.932 75.7893 143.125 75.8679 143.192 76.0373L151.954 97.5736C152.022 97.7403 151.942 97.9314 151.774 97.9992C151.734 98.0155 151.692 98.0236 151.652 98.0236Z" fill="black"/>
<path d="M143.896 80.0846L149.774 95.0241L159.06 94.7828L153.052 79.8447L143.896 80.0846Z" fill="white"/>
<path d="M149.774 95.3522C149.64 95.3522 149.519 95.2695 149.469 95.1448L143.592 80.2053C143.553 80.1064 143.565 79.9939 143.625 79.9044C143.683 79.815 143.782 79.7608 143.889 79.758L153.045 79.5195C153.194 79.5181 153.306 79.5981 153.358 79.7242L159.366 94.6609C159.406 94.7612 159.395 94.8737 159.337 94.9632C159.278 95.0526 159.178 95.1082 159.071 95.1109L149.785 95.3535C149.78 95.3522 149.777 95.3522 149.774 95.3522ZM144.371 80.3992L149.994 94.6907L158.579 94.4671L152.832 80.1782L144.371 80.3992Z" fill="black"/>
<path d="M143.968 100.293L138.089 85.3518L143.896 80.0846L149.774 95.0241L143.968 100.293Z" fill="#E5E5E5"/>
<path d="M143.968 100.619C143.944 100.619 143.918 100.617 143.894 100.611C143.789 100.587 143.702 100.512 143.663 100.412L137.786 85.4725C137.736 85.3465 137.77 85.2014 137.871 85.1106L143.678 79.8421C143.758 79.7703 143.867 79.7418 143.972 79.7662C144.077 79.7906 144.163 79.8651 144.203 79.9654L150.08 94.9049C150.13 95.031 150.096 95.176 149.994 95.2668L144.188 100.535C144.127 100.59 144.048 100.619 143.968 100.619ZM138.477 85.4427L144.098 99.7316L149.386 94.9334L143.765 80.6445L138.477 85.4427Z" fill="black"/>
<path d="M159.06 94.7828L153.415 100.046L143.968 100.293L149.774 95.0241L159.06 94.7828Z" fill="#D3D3D3"/>
<path d="M143.967 100.619C143.835 100.619 143.714 100.538 143.664 100.413C143.614 100.286 143.646 100.141 143.748 100.049L149.554 94.7802C149.613 94.7273 149.687 94.6975 149.766 94.6948L159.052 94.4521C159.186 94.4549 159.312 94.5294 159.364 94.6555C159.415 94.7815 159.383 94.9265 159.284 95.0187L153.638 100.283C153.58 100.337 153.503 100.369 153.424 100.371L143.977 100.618C143.973 100.619 143.97 100.619 143.967 100.619ZM149.904 95.3481L144.842 99.9416L153.283 99.722L158.206 95.1326L149.904 95.3481Z" fill="black"/>
<path d="M155.533 107.722C155.402 107.722 155.28 107.644 155.229 107.516L151.348 97.8162C151.281 97.6482 151.363 97.4584 151.531 97.3906C151.698 97.3242 151.889 97.4042 151.957 97.5736L155.838 107.273C155.905 107.441 155.823 107.631 155.655 107.699C155.614 107.715 155.572 107.722 155.533 107.722Z" fill="black"/>
<path d="M134.291 94.5253C134.164 94.5253 134.042 94.4494 133.989 94.3247L123.97 70.3473C123.901 70.1806 123.979 69.9894 124.146 69.919C124.313 69.8512 124.504 69.9284 124.574 70.0952L134.594 94.0726C134.663 94.2393 134.584 94.4304 134.417 94.5009C134.377 94.5172 134.333 94.5253 134.291 94.5253Z" fill="black"/>
<path d="M125.278 74.1451L132.414 91.5257L141.7 91.2844L134.434 73.9065L125.278 74.1451Z" fill="#727EF4"/>
<path d="M132.414 91.8538C132.281 91.8538 132.162 91.7739 132.112 91.6505L124.976 74.2699C124.935 74.1696 124.946 74.0571 125.004 73.9663C125.062 73.8755 125.163 73.8199 125.27 73.8172L134.426 73.5787C134.561 73.58 134.684 73.6546 134.736 73.7793L142.002 91.1571C142.044 91.2574 142.033 91.3699 141.975 91.4608C141.917 91.5516 141.817 91.6071 141.708 91.6099L132.422 91.8525C132.419 91.8538 132.417 91.8538 132.414 91.8538ZM125.762 74.4611L132.631 91.1937L141.213 90.9701L134.218 74.2401L125.762 74.4611Z" fill="black"/>
<path d="M126.608 96.7943L119.472 79.4137L125.278 74.1452L132.415 91.5258L126.608 96.7943Z" fill="#4A61D8"/>
<path d="M126.608 97.121C126.583 97.121 126.559 97.1182 126.536 97.1128C126.432 97.0898 126.346 97.0166 126.306 96.9176L119.169 79.5371C119.116 79.4097 119.15 79.2633 119.252 79.1698L125.059 73.9026C125.137 73.8308 125.247 73.8023 125.35 73.8253C125.454 73.8484 125.54 73.9216 125.58 74.0205L132.717 91.4011C132.77 91.5285 132.736 91.6749 132.634 91.7684L126.827 97.0369C126.768 97.0911 126.689 97.121 126.608 97.121ZM119.862 79.5018L126.734 96.2386L132.024 91.4377L125.152 74.7009L119.862 79.5018Z" fill="black"/>
<path d="M141.7 91.2845L136.055 96.5476L126.607 96.7943L132.414 91.5258L141.7 91.2845Z" fill="#4A61D8"/>
<path d="M126.608 97.1209C126.475 97.1209 126.355 97.0396 126.304 96.9149C126.254 96.7875 126.287 96.6424 126.388 96.5503L132.195 91.2817C132.253 91.2289 132.328 91.1991 132.407 91.1964L141.693 90.9537C141.838 90.9497 141.953 91.031 142.004 91.157C142.056 91.2831 142.023 91.4281 141.924 91.5203L136.279 96.7848C136.221 96.839 136.143 96.8702 136.065 96.8729L126.618 97.1195C126.613 97.1209 126.611 97.1209 126.608 97.1209ZM132.545 91.8497L127.482 96.4432L135.924 96.2236L140.847 91.6342L132.545 91.8497Z" fill="black"/>
<path d="M140.263 109.453C140.133 109.453 140.011 109.375 139.96 109.247L133.988 94.3192C133.92 94.1512 134.002 93.9614 134.171 93.8936C134.337 93.8286 134.528 93.9086 134.596 94.0766L140.568 109.004C140.636 109.172 140.553 109.362 140.385 109.429C140.344 109.444 140.304 109.453 140.263 109.453Z" fill="black"/>
<path d="M117.266 102.751C117.137 102.751 117.015 102.675 116.964 102.549L101.569 65.2293C101.5 65.0625 101.58 64.8714 101.746 64.8023C101.913 64.7345 102.106 64.8131 102.173 64.9799L117.568 102.299C117.637 102.465 117.557 102.657 117.391 102.726C117.35 102.743 117.307 102.751 117.266 102.751Z" fill="black"/>
<path d="M103.323 70.7675L114.556 98.5685L127.955 98.2189L116.533 70.4232L103.323 70.7675Z" fill="white"/>
<path d="M114.556 98.8965C114.423 98.8965 114.303 98.8165 114.253 98.6918L103.019 70.8894C102.978 70.7891 102.991 70.6766 103.049 70.5872C103.107 70.4977 103.206 70.4421 103.314 70.4394L116.524 70.0952C116.665 70.0992 116.785 70.1724 116.836 70.2985L128.258 98.0954C128.299 98.1958 128.288 98.3082 128.23 98.3991C128.172 98.4899 128.071 98.5455 127.964 98.5482L114.566 98.8979C114.562 98.8965 114.559 98.8965 114.556 98.8965ZM103.804 71.0819L114.776 98.2351L127.472 97.9043L116.317 70.7552L103.804 71.0819Z" fill="black"/>
<path d="M106.286 106.167L95.0522 78.3646L103.43 70.7647L114.664 98.5658L106.286 106.167Z" fill="#E5E5E5"/>
<path d="M106.286 106.494C106.261 106.494 106.237 106.491 106.213 106.485C106.108 106.461 106.021 106.388 105.982 106.289L94.7484 78.4865C94.6969 78.3591 94.7308 78.2127 94.8325 78.1219L103.21 70.5207C103.289 70.4489 103.4 70.4204 103.503 70.4435C103.607 70.4679 103.694 70.5411 103.734 70.64L114.967 98.4424C115.019 98.5698 114.985 98.7162 114.883 98.807L106.505 106.408C106.444 106.464 106.367 106.494 106.286 106.494ZM95.441 78.454L106.413 105.609L114.275 98.4763L103.302 71.3218L95.441 78.454Z" fill="black"/>
<path d="M127.955 98.219L119.809 105.815L106.179 106.17L114.557 98.5687L127.955 98.219Z" fill="#D3D3D3"/>
<path d="M106.178 106.496C106.046 106.496 105.925 106.415 105.875 106.29C105.825 106.163 105.857 106.018 105.959 105.926L114.337 98.3246C114.395 98.2718 114.469 98.2419 114.548 98.2392L127.946 97.8895C128.09 97.9004 128.207 97.9668 128.258 98.0928C128.31 98.2189 128.277 98.3639 128.178 98.4561L120.032 106.051C119.974 106.105 119.897 106.136 119.818 106.139L106.188 106.494C106.184 106.496 106.181 106.496 106.178 106.496ZM114.686 98.8925L107.051 105.819L119.676 105.491L127.099 98.5699L114.686 98.8925Z" fill="black"/>
<path d="M122.521 115.888C122.391 115.888 122.269 115.811 122.217 115.682L116.961 102.544C116.893 102.376 116.976 102.186 117.144 102.118C117.31 102.052 117.502 102.132 117.569 102.301L122.826 115.439C122.893 115.608 122.811 115.797 122.643 115.865C122.603 115.881 122.561 115.888 122.521 115.888Z" fill="black"/>
<path d="M90.4329 90.5688C90.3069 90.5688 90.1876 90.4956 90.1334 90.3723L75.0001 55.8212C74.9269 55.6558 75.0028 55.4634 75.1681 55.3902C75.3322 55.317 75.526 55.3929 75.5992 55.5583L90.7324 90.1107C90.8056 90.276 90.7297 90.4685 90.5644 90.5417C90.5224 90.5593 90.4776 90.5688 90.4329 90.5688Z" fill="black"/>
<path d="M77.4243 62.9603L86.9421 85.3789L102.834 84.2499L93.093 61.8475L77.4243 62.9603Z" fill="#727EF4"/>
<path d="M86.9425 85.7069C86.811 85.7069 86.693 85.6283 86.6415 85.5077L77.1238 63.089C77.0818 62.9914 77.0899 62.8803 77.1455 62.7908C77.201 62.7013 77.2959 62.6431 77.4016 62.6349L93.0703 61.5221C93.2113 61.514 93.3387 61.5913 93.3929 61.7187L103.134 84.1197C103.176 84.2173 103.17 84.3285 103.114 84.4193C103.058 84.5101 102.964 84.5684 102.856 84.5765L86.9655 85.7056C86.9587 85.7056 86.9506 85.7069 86.9425 85.7069ZM77.9045 63.2544L87.1525 85.036L102.35 83.9571L92.8846 62.1904L77.9045 63.2544Z" fill="black"/>
<path d="M77.528 95.6597L68.0103 73.241L77.425 62.9602L86.9428 85.3788L77.528 95.6597Z" fill="#4A61D8"/>
<path d="M77.5275 95.9863C77.5085 95.9863 77.4909 95.985 77.4719 95.9823C77.3621 95.9633 77.2699 95.8901 77.2266 95.7871L67.7088 73.3684C67.6586 73.2505 67.6817 73.1136 67.7684 73.0187L77.1832 62.7378C77.2577 62.6565 77.3689 62.6185 77.48 62.6362C77.5898 62.6551 77.682 62.7283 77.7254 62.8313L87.2431 85.25C87.2933 85.3679 87.2702 85.5048 87.1835 85.5997L77.7687 95.8806C77.7064 95.9484 77.6183 95.9863 77.5275 95.9863ZM68.3933 73.306L77.6305 95.0633L86.56 85.3137L77.3228 63.5565L68.3933 73.306Z" fill="black"/>
<path d="M102.835 84.2497L93.6953 94.5116L77.5278 95.6597L86.9426 85.3788L102.835 84.2497Z" fill="#4A61D8"/>
<path d="M77.5276 95.9864C77.4029 95.9864 77.2877 95.9145 77.2321 95.802C77.1738 95.6814 77.1955 95.5377 77.2863 95.4388L86.7011 85.1579C86.758 85.0956 86.8353 85.059 86.9193 85.0522L102.81 83.9231C102.943 83.9177 103.068 83.9855 103.127 84.1048C103.186 84.224 103.167 84.3677 103.079 84.4666L93.939 94.7272C93.8821 94.7909 93.8035 94.8302 93.7181 94.8356L77.552 95.9837C77.5439 95.9864 77.5357 95.9864 77.5276 95.9864ZM87.0955 85.696L78.3232 95.2748L93.5378 94.1945L102.054 84.6347L87.0955 85.696Z" fill="black"/>
<path d="M98.5449 109.542C98.4175 109.542 98.2969 109.468 98.244 109.343L90.1318 90.3696C90.06 90.2029 90.1373 90.0118 90.304 89.94C90.4707 89.8695 90.6632 89.9454 90.7336 90.1121L98.8458 109.085C98.9177 109.252 98.8404 109.443 98.6737 109.515C98.6317 109.533 98.5883 109.542 98.5449 109.542Z" fill="black"/>
<path d="M82.0076 124.557C81.8789 124.557 81.7569 124.482 81.7054 124.355L61.7075 75.8761C61.6384 75.7094 61.7183 75.5183 61.8851 75.4491C62.0518 75.3814 62.2442 75.46 62.312 75.6267L82.3099 124.105C82.379 124.271 82.2991 124.463 82.1323 124.532C82.0917 124.549 82.0497 124.557 82.0076 124.557Z" fill="black"/>
<path d="M63.895 83.1073L78.4889 119.223L95.8925 118.768L81.056 82.6587L63.895 83.1073Z" fill="white"/>
<path d="M78.4887 119.549C78.3559 119.549 78.2352 119.469 78.1851 119.345L63.5912 83.2294C63.5506 83.129 63.5628 83.0166 63.6211 82.9271C63.6793 82.8376 63.7783 82.7821 63.8867 82.7793L81.0477 82.3321C81.1927 82.3361 81.308 82.4093 81.3595 82.5354L96.1959 118.644C96.2366 118.744 96.2257 118.857 96.1675 118.947C96.1092 119.038 96.0102 119.094 95.9018 119.097L78.4968 119.551C78.4941 119.549 78.4914 119.549 78.4887 119.549ZM64.376 83.4218L78.7069 118.889L95.4098 118.454L80.839 82.9935L64.376 83.4218Z" fill="black"/>
<path d="M67.7116 129.094L53.1191 92.9775L64.0018 83.1032L78.5956 119.22L67.7116 129.094Z" fill="#E5E5E5"/>
<path d="M67.7119 129.421C67.6875 129.421 67.6631 129.418 67.6387 129.412C67.5343 129.388 67.4476 129.315 67.4083 129.216L52.8158 93.1007C52.7643 92.9733 52.7982 92.8269 52.8998 92.7361L63.7825 82.8619C63.8611 82.79 63.9723 82.7602 64.0753 82.7846C64.1797 82.809 64.2664 82.8822 64.3057 82.9812L78.8982 119.096C78.9497 119.224 78.9158 119.37 78.8141 119.461L67.9315 129.334C67.8705 129.391 67.7932 129.421 67.7119 129.421ZM53.5084 93.0669L67.8393 128.536L78.2056 119.13L63.8747 83.6616L53.5084 93.0669Z" fill="black"/>
<path d="M95.8926 118.768L85.3122 128.634L67.605 129.097L78.489 119.222L95.8926 118.768Z" fill="#D3D3D3"/>
<path d="M67.6047 129.423C67.4718 129.423 67.3512 129.342 67.301 129.217C67.2509 129.09 67.2834 128.945 67.3851 128.853L78.2678 118.979C78.326 118.926 78.4006 118.896 78.4792 118.893L95.8842 118.439C96.0238 118.446 96.1444 118.516 96.1959 118.642C96.2474 118.768 96.2149 118.913 96.116 119.006L85.5342 128.872C85.4759 128.926 85.3986 128.957 85.32 128.96L67.6141 129.422C67.6101 129.423 67.6074 129.423 67.6047 129.423ZM78.6188 119.546L68.4789 128.746L85.1791 128.311L95.0384 119.118L78.6188 119.546Z" fill="black"/>
<path d="M89.7288 143.86C89.5987 143.86 89.4767 143.783 89.4252 143.654L81.7034 124.35C81.6356 124.182 81.7183 123.992 81.8864 123.924C82.0531 123.858 82.2442 123.939 82.312 124.107L90.0338 143.411C90.1016 143.579 90.0189 143.769 89.8508 143.837C89.8115 143.853 89.7695 143.86 89.7288 143.86Z" fill="black"/>
<path d="M64.3461 140.032C64.216 140.032 64.094 139.955 64.0425 139.826L47.6609 98.8776C47.5931 98.7095 47.6758 98.5198 47.8439 98.452C48.0106 98.3856 48.2017 98.4656 48.2695 98.635L64.6511 139.584C64.7189 139.752 64.6362 139.941 64.4681 140.009C64.4275 140.024 64.3868 140.032 64.3461 140.032Z" fill="black"/>
<path d="M49.8511 106.111L60.8273 134.697L78.2323 134.243L67.0107 105.664L49.8511 106.111Z" fill="#727EF4"/>
<path d="M60.8278 135.024C60.6922 135.024 60.5702 134.941 60.5228 134.814L49.5466 106.228C49.5086 106.129 49.5208 106.018 49.5805 105.928C49.6401 105.84 49.7377 105.786 49.8448 105.783L67.0058 105.336C67.1495 105.339 67.2687 105.416 67.3189 105.543L78.5391 134.123C78.5784 134.221 78.5662 134.334 78.5065 134.423C78.4482 134.513 78.3493 134.567 78.2422 134.57L60.8373 135.024C60.8332 135.024 60.8305 135.024 60.8278 135.024ZM50.3232 106.427L61.0501 134.364L77.757 133.929L66.7903 105.997L50.3232 106.427Z" fill="black"/>
<path d="M49.9435 144.572L38.9673 115.986L49.8513 106.112L60.8275 134.697L49.9435 144.572Z" fill="#4A61D8"/>
<path d="M49.9433 144.898C49.9176 144.898 49.8932 144.895 49.8674 144.889C49.7631 144.863 49.6763 144.788 49.6384 144.688L38.6622 116.102C38.6134 115.976 38.6473 115.834 38.7476 115.743L49.6302 105.869C49.7102 105.797 49.82 105.767 49.9257 105.793C50.0301 105.819 50.1168 105.893 50.1548 105.994L61.131 134.579C61.1798 134.705 61.1459 134.848 61.0456 134.939L50.1629 144.813C50.1033 144.868 50.0247 144.898 49.9433 144.898ZM39.3534 116.078L50.0789 144.008L60.4424 134.605L49.717 106.675L39.3534 116.078Z" fill="black"/>
<path d="M78.2324 134.243L67.6506 144.109L49.9434 144.572L60.8274 134.697L78.2324 134.243Z" fill="black"/>
<path d="M49.9435 144.898C49.8107 144.898 49.6901 144.817 49.6399 144.692C49.5898 144.565 49.6223 144.42 49.7239 144.328L60.6066 134.453C60.6649 134.4 60.7395 134.371 60.8181 134.368L78.223 133.914C78.3654 133.917 78.4833 133.991 78.5348 134.117C78.5863 134.243 78.5538 134.388 78.4548 134.48L67.873 144.347C67.8148 144.401 67.7375 144.432 67.6589 144.435L49.9517 144.897C49.9489 144.898 49.9462 144.898 49.9435 144.898ZM60.9577 135.021L50.8178 144.22L67.5179 143.785L77.3773 134.593L60.9577 135.021Z" fill="black"/>
<path d="M72.0682 159.335C71.9381 159.335 71.8161 159.257 71.7646 159.129L64.0427 139.825C63.975 139.657 64.0576 139.467 64.2257 139.399C64.3924 139.333 64.5836 139.413 64.6513 139.582L72.3732 158.886C72.4409 159.054 72.3583 159.244 72.1902 159.312C72.1509 159.328 72.1089 159.335 72.0682 159.335Z" fill="black"/>
<path d="M39.9961 64.8189C39.9934 64.9423 39.9907 65.067 39.9907 65.1957C40.0043 70.631 43.935 75.6813 48.7725 76.4755C51.0144 76.7114 52.4335 76.4986 54.0492 75.5661C53.0583 75.8426 51.9781 75.9063 50.849 75.7206C46.0115 74.9263 42.0808 69.8774 42.0672 64.4408C42.0578 60.8923 43.7209 58.0581 46.2189 56.7365L45.8583 56.8667C42.4806 58.0947 40.11 61.2257 39.9961 64.8189Z" fill="black"/>
<path d="M42.0689 64.4407C42.0824 69.8759 46.0132 74.9262 50.8507 75.7205C51.9797 75.9062 53.06 75.8425 54.0508 75.566C57.2997 74.6619 59.5945 71.478 59.585 67.3128C59.5728 61.8749 55.6407 56.8273 50.8032 56.033C49.1225 55.7565 47.5529 56.0317 46.2205 56.7365C43.7225 58.0594 42.0594 60.8922 42.0689 64.4407Z" fill="#FEA300"/>
<path d="M51.9397 74.0764C51.5806 74.0764 51.2159 74.0466 50.8473 73.9856C46.7729 73.3173 43.4467 69.06 43.4331 64.4963C43.4277 61.5713 44.7547 59.122 46.983 57.9442C48.1662 57.3207 49.5244 57.1106 50.9137 57.3369C54.9908 58.0079 58.3157 62.2666 58.3251 66.8289C58.3333 70.2948 56.4736 73.053 53.5866 73.8555C53.0553 74.0018 52.5036 74.0764 51.9397 74.0764ZM44.0891 64.4936C44.1013 68.7523 47.1822 72.7196 50.9557 73.339C51.8042 73.4786 52.631 73.4407 53.4144 73.2225C56.0101 72.5014 57.6813 69.9911 57.6732 66.8289C57.6637 62.5716 54.5842 58.6029 50.8093 57.9821C49.5623 57.7788 48.3452 57.9645 47.2906 58.5216C45.2806 59.5842 44.0837 61.8166 44.0891 64.4936Z" fill="black"/>
<path d="M53.5798 70.0443C53.5106 70.0972 53.4402 70.1189 53.3683 70.108C53.2965 70.0972 53.2396 70.0551 53.2003 69.9847L52.8655 69.3951C52.5036 69.6336 52.1552 69.8234 51.8231 69.9616C51.487 70.1012 51.178 70.2097 50.8987 70.2842C50.8161 70.3045 50.7293 70.2991 50.6371 70.2707C50.545 70.2422 50.4758 70.1907 50.4298 70.1148C50.3688 70.0158 50.3484 69.906 50.3701 69.7854C50.3918 69.6648 50.4596 69.5618 50.5748 69.4791C50.6344 69.4357 50.6995 69.4059 50.7673 69.391C50.9923 69.3381 51.2498 69.2554 51.5385 69.1443C51.8245 69.0345 52.1295 68.8746 52.4507 68.6645L51.285 66.611C51.0004 66.71 50.7117 66.7954 50.4176 66.8685C50.1207 66.9417 49.828 66.9797 49.542 66.981C49.2519 66.9824 48.9808 66.9187 48.7287 66.7899C48.4739 66.6598 48.2475 66.4375 48.051 66.119C47.8396 65.7774 47.7284 65.4006 47.7176 64.9926C47.7067 64.582 47.8111 64.1726 48.028 63.766C48.2435 63.3621 48.585 62.9947 49.0472 62.6654L48.6162 61.9063C48.5633 61.8128 48.5457 61.7166 48.5674 61.619C48.5877 61.5214 48.642 61.4469 48.7301 61.3981C48.8236 61.3452 48.9171 61.3344 49.0106 61.3683C49.1028 61.4008 49.176 61.4645 49.2275 61.558L49.6355 62.2926C49.9716 62.1137 50.2929 61.9741 50.6019 61.8752C50.9069 61.7776 51.1915 61.7071 51.4572 61.6664C51.5385 61.6542 51.6198 61.6637 51.7025 61.6935C51.7852 61.7247 51.8584 61.8006 51.9207 61.9226C51.9722 62.0243 51.9912 62.1381 51.9749 62.2669C51.9587 62.3957 51.895 62.4946 51.7825 62.5637C51.7581 62.5786 51.7323 62.5881 51.7025 62.5922C51.6727 62.5963 51.6442 62.603 51.6171 62.6112C51.3853 62.6559 51.1441 62.721 50.892 62.8077C50.6385 62.8945 50.3796 63.0137 50.118 63.1642L51.4165 65.5063C51.6998 65.4047 51.9831 65.3139 52.265 65.2366C52.5442 65.1594 52.8126 65.1268 53.0728 65.135C53.329 65.1431 53.5662 65.2149 53.7831 65.3491C53.9972 65.482 54.1816 65.7015 54.3374 66.0079C54.4947 66.3169 54.5611 66.6463 54.5367 66.9973C54.5123 67.347 54.4025 67.6954 54.206 68.0437C54.0094 68.3934 53.7302 68.7201 53.3656 69.0237L53.6923 69.6119C53.7316 69.6824 53.7411 69.7583 53.7221 69.8396C53.7018 69.9169 53.6543 69.986 53.5798 70.0443ZM48.9158 65.4725C49.0418 65.6853 49.2017 65.8208 49.3942 65.8818C49.5853 65.9428 49.7995 65.9536 50.0367 65.9143C50.2725 65.875 50.5219 65.8127 50.7849 65.7273L49.5501 63.5491C49.2045 63.8338 48.9645 64.1469 48.8331 64.4884C48.7002 64.83 48.7287 65.158 48.9158 65.4725ZM53.5852 66.4646C53.4944 66.2939 53.3683 66.1881 53.2057 66.1515C53.0417 66.1136 52.8492 66.1204 52.6296 66.1719C52.4087 66.2247 52.1661 66.2939 51.9031 66.382L52.9617 68.2917C53.2816 68.0179 53.5079 67.7306 53.6462 67.427C53.7831 67.1247 53.7641 66.8048 53.5852 66.4646Z" fill="white"/>
<path d="M150.586 54.2882C150.59 54.4224 150.592 54.5593 150.592 54.7002C150.577 60.6316 146.288 66.1427 141.008 67.0088C138.561 67.2664 137.928 67.0536 136.166 66.037C137.248 66.3393 138.427 66.407 139.658 66.2051C144.937 65.339 149.227 59.8278 149.242 53.8965C149.253 50.024 147.438 46.9323 144.712 45.4888L145.105 45.6311C148.792 46.9716 150.463 50.367 150.586 54.2882Z" fill="black"/>
<path d="M149.242 53.8965C149.227 59.8279 144.938 65.339 139.657 66.2051C138.425 66.4071 137.246 66.338 136.166 66.0371C132.62 65.0503 130.117 61.575 130.126 57.0303C130.14 51.0962 134.429 45.5878 139.71 44.7217C141.545 44.4208 143.257 44.7203 144.712 45.4889C147.437 46.9324 149.252 50.0241 149.242 53.8965Z" fill="#FEA300"/>
<path d="M138.469 64.3821C137.857 64.3821 137.258 64.3008 136.678 64.1395C133.54 63.268 131.519 60.2698 131.529 56.5017C131.54 51.5368 135.157 46.904 139.592 46.1734C141.102 45.9281 142.58 46.1544 143.863 46.8321C146.285 48.113 147.727 50.7764 147.721 53.9562C147.706 58.9225 144.088 63.5553 139.653 64.2832C139.255 64.3482 138.859 64.3821 138.469 64.3821ZM140.766 46.7305C140.414 46.7305 140.057 46.7589 139.698 46.8186C135.565 47.499 132.193 51.8431 132.184 56.5031C132.174 59.9689 134.008 62.719 136.853 63.5092C137.711 63.7491 138.618 63.7912 139.548 63.6367C143.68 62.9589 147.052 58.6162 147.066 53.9549C147.071 51.0231 145.759 48.5766 143.557 47.4109C142.704 46.9595 141.755 46.7305 140.766 46.7305Z" fill="black"/>
<path d="M140.368 55.8416C140.917 56.0449 141.521 55.9947 142.051 55.7413C142.592 55.4783 143.048 55.0066 143.275 54.3953C143.729 53.1714 143.085 51.9461 141.913 51.6764L140.629 51.3809L141.009 50.3575L139.998 50.1596L139.631 51.1504L139.143 51.0379L139.504 50.062L138.583 49.8818L138.232 50.8292L137.892 50.7506L136.935 50.531L136.525 51.6357L137.469 51.8919L135.621 56.8757L134.737 56.4583L134.328 57.5629L135.198 58.017L135.173 58.0861L135.482 58.2488L135.131 59.1962L135.946 59.6598L136.308 58.6839L136.752 58.917L136.384 59.9078L137.28 60.4161L137.66 59.3928L138.825 60.0054C139.349 60.2806 139.927 60.2968 140.438 60.0922C140.96 59.8807 141.405 59.4402 141.631 58.8289C142.084 57.6063 141.487 56.2563 140.368 55.8416ZM138.664 52.411L140.99 53.0589C141.452 53.1876 141.689 53.6905 141.509 54.1785C141.418 54.4238 141.241 54.6135 141.031 54.7233C140.819 54.8318 140.575 54.8602 140.352 54.7843L138.072 54.0145L138.664 52.411ZM139.708 58.4318C139.452 58.5443 139.159 58.5497 138.892 58.4236L136.803 57.4355L137.546 55.4322L139.689 56.2726C140.245 56.4908 140.525 57.1712 140.297 57.7825C140.185 58.0889 139.965 58.3166 139.708 58.4318Z" fill="white"/>
<path d="M86.1971 42.9501C86.2093 43.1141 86.2242 43.2809 86.2418 43.4516C87.0049 50.6706 92.9186 56.8405 99.4545 57.2322C102.465 57.2376 104.322 56.7605 106.34 55.3007C105.062 55.8036 103.635 56.0354 102.11 55.9446C95.5739 55.5528 89.6602 49.383 88.8971 42.164C88.3983 37.4512 90.2186 33.4581 93.3564 31.3599L92.8956 31.5822C88.5772 33.6763 85.8569 38.1628 86.1971 42.9501Z" fill="black"/>
<path d="M88.8986 42.1654C89.6617 49.3843 95.5754 55.5542 102.111 55.9459C103.636 56.0368 105.063 55.805 106.342 55.3021C110.534 53.6566 113.146 49.1106 112.563 43.5791C111.801 36.3574 105.886 30.1902 99.3503 29.7985C97.0786 29.6616 95.0319 30.2417 93.358 31.3613C90.2202 33.4595 88.3999 37.4526 88.8986 42.1654Z" fill="#FEA300"/>
<path d="M102.438 53.5482C102.253 53.5482 102.066 53.5428 101.879 53.5306C96.4252 53.2039 91.4684 48.0479 90.8313 42.0366C90.4274 38.194 91.8357 34.7959 94.6008 32.9485C96.0673 31.9712 97.824 31.5144 99.6728 31.6215C105.13 31.9509 110.085 37.1083 110.718 43.1169C111.199 47.6697 109.134 51.5435 105.455 52.987C104.508 53.3611 103.494 53.5482 102.438 53.5482ZM91.4819 41.9688C92.0878 47.6751 96.7694 52.5696 101.919 52.8772C103.082 52.9477 104.19 52.781 105.215 52.3771C108.612 51.0447 110.516 47.4366 110.066 43.186C109.464 37.481 104.784 32.5866 99.6335 32.2748C97.9243 32.1732 96.31 32.5947 94.964 33.492C92.405 35.2039 91.1038 38.3715 91.4819 41.9688Z" fill="black"/>
<path d="M104.887 48.0018C104.801 48.0818 104.711 48.1197 104.614 48.1157C104.517 48.1103 104.437 48.0642 104.373 47.9747L103.849 47.2374C103.4 47.6047 102.963 47.9042 102.542 48.1333C102.114 48.3651 101.719 48.5508 101.357 48.6877C101.25 48.7256 101.134 48.731 101.009 48.7053C100.883 48.6795 100.784 48.6199 100.712 48.5264C100.617 48.403 100.575 48.2607 100.587 48.0967C100.6 47.9327 100.675 47.7877 100.816 47.6616C100.89 47.5965 100.972 47.5478 101.06 47.5179C101.352 47.4163 101.683 47.2726 102.051 47.0856C102.417 46.9012 102.798 46.6464 103.197 46.3238L101.367 43.7553C101.003 43.9261 100.631 44.0792 100.25 44.2161C99.8649 44.3544 99.4813 44.4452 99.1018 44.4845C98.7169 44.5252 98.3482 44.4791 97.9958 44.3422C97.6393 44.2053 97.3086 43.9396 97.0036 43.5438C96.6756 43.1182 96.4764 42.6343 96.4059 42.0922C96.3354 41.5487 96.4167 40.9902 96.6499 40.4209C96.8816 39.8544 97.2842 39.319 97.8521 38.8188L97.1758 37.8687C97.0917 37.7508 97.0565 37.6261 97.07 37.4932C97.0836 37.3604 97.146 37.2547 97.2557 37.1774C97.3737 37.0934 97.4957 37.0676 97.6244 37.0988C97.7518 37.13 97.8562 37.2045 97.9375 37.3211L98.58 38.2414C99.0015 37.9568 99.4109 37.7277 99.8053 37.5542C100.196 37.3821 100.566 37.2506 100.914 37.1584C101.02 37.1313 101.13 37.1313 101.245 37.1612C101.359 37.191 101.466 37.2818 101.566 37.435C101.649 37.5624 101.689 37.7128 101.685 37.885C101.683 38.0584 101.611 38.1981 101.47 38.3065C101.44 38.3295 101.406 38.3458 101.368 38.3566C101.33 38.3675 101.294 38.3797 101.258 38.3932C100.956 38.484 100.644 38.6047 100.322 38.7538C99.9964 38.9042 99.6697 39.0967 99.3417 39.3325L101.388 42.267C101.752 42.0922 102.115 41.9349 102.48 41.7926C102.84 41.653 103.192 41.5703 103.539 41.5459C103.882 41.5215 104.205 41.5853 104.511 41.733C104.814 41.8794 105.09 42.1464 105.338 42.5313C105.589 42.9203 105.722 43.3487 105.738 43.819C105.754 44.288 105.655 44.7651 105.442 45.2544C105.228 45.7464 104.902 46.2181 104.46 46.6721L104.974 47.4081C105.036 47.4962 105.059 47.5965 105.044 47.7063C105.03 47.8161 104.978 47.9151 104.887 48.0018ZM98.0622 42.5679C98.2588 42.8322 98.4905 42.9922 98.7535 43.0464C99.0151 43.102 99.3011 43.0857 99.6115 43.0003C99.9191 42.9163 100.242 42.7997 100.579 42.6493L98.6396 39.9262C98.2194 40.3518 97.9443 40.8005 97.8155 41.2721C97.6881 41.7425 97.7708 42.1762 98.0622 42.5679ZM104.402 43.2456C104.258 43.0301 104.076 42.9081 103.854 42.881C103.63 42.8539 103.375 42.8892 103.091 42.9881C102.803 43.0884 102.492 43.2145 102.154 43.3663L103.823 45.7586C104.209 45.352 104.472 44.9386 104.614 44.5157C104.757 44.0955 104.686 43.6726 104.402 43.2456Z" fill="white"/>
</g>
<defs>
<clipPath id="clip0_5794_4034">
<rect width="180" height="188.675" fill="white"/>
</clipPath>
</defs>
</svg>
