<svg width="16" height="17" viewBox="0 0 16 17" fill="none" xmlns="http://www.w3.org/2000/svg">
<path d="M12.5875 15.1797H3.4125C2.25937 15.1797 1.32031 14.2422 1.32031 13.0875V3.89687C1.32031 2.75156 2.25156 1.82031 3.39687 1.82031H7.77344V2.75781H3.39687C2.76875 2.75781 2.25781 3.26875 2.25781 3.89687V13.0891C2.25781 13.725 2.775 14.2437 3.4125 14.2437H12.5891C13.225 14.2437 13.7437 13.7266 13.7437 13.0891V8.72656H14.6812V13.0875C14.6797 14.2422 13.7422 15.1797 12.5875 15.1797ZM14.6719 5.73438H13.7344V2.76562H10.7656V1.82812H14.6719V5.73438Z" fill="#6143F0"/>
<path d="M13.88 1.95752L14.5429 2.62046L8.34455 8.81858L7.68164 8.15564L13.88 1.95752Z" fill="#6143F0"/>
</svg>
