<svg width="408" height="16" viewBox="0 0 408 16" fill="none" xmlns="http://www.w3.org/2000/svg">
<path d="M0.679875 16L2.74388 9.616H7.30388L8.31188 6.544H3.75188L5.79188 0.279999H21.7759L21.0559 6.544H16.7119L15.7039 9.616H20.7679L20.0479 16H0.679875ZM43.8861 16H35.3661L36.2781 6.496H32.9421L29.8461 16H21.4221L26.5341 0.279999H42.9261C43.4541 0.279999 43.8621 0.423999 44.1981 0.663999C44.5341 0.904 44.7741 1.216 44.9421 1.576C45.1101 1.96 45.2061 2.344 45.2541 2.752C45.3021 3.184 45.3021 3.568 45.2541 3.904L43.8861 16ZM47.8974 0.279999H56.2974L55.3614 9.784H57.6174L58.7454 0.279999H67.2174L65.9454 11.992L61.0974 16H46.4094L47.8974 0.279999ZM71.6044 0.279999H87.5644L86.8684 6.544H77.9884L77.8204 7.048H81.6364L81.4204 9.112H77.1484L76.9804 9.616H86.5804L85.8604 16H66.4924L71.6044 0.279999ZM108.739 6.544H102.091L108.283 9.496C108.307 10.216 108.307 10.864 108.283 11.464C108.235 12.064 108.115 12.712 107.899 13.432C107.803 13.72 107.659 14.032 107.491 14.32C107.299 14.608 107.083 14.896 106.843 15.136C106.579 15.4 106.267 15.616 105.931 15.76C105.571 15.928 105.187 16 104.755 16H87.2346L89.2986 9.64H97.9386L91.7466 6.952C91.2666 6.52 91.0026 6.136 90.9066 5.752C90.8106 5.368 90.8346 4.912 91.0266 4.336L91.8906 1.648C91.9386 1.504 92.0346 1.36 92.2266 1.192C92.4186 1.024 92.6106 0.879999 92.8506 0.735999C93.0906 0.615999 93.3306 0.519999 93.5706 0.423999C93.8106 0.327999 94.0266 0.279999 94.2186 0.279999H109.435L108.739 6.544ZM131.576 0.279999L130.856 6.544H124.376L121.304 16H112.928L116 6.544H110.456L112.496 0.279999H131.576ZM163.748 16H155.228L156.068 6.664H152.732L151.604 16H143.108L143.948 6.664H140.612L137.588 16H129.164L134.276 0.279999H162.788C163.316 0.279999 163.748 0.423999 164.084 0.663999C164.42 0.904 164.66 1.216 164.828 1.576C164.996 1.96 165.092 2.344 165.14 2.752C165.188 3.184 165.188 3.568 165.14 3.904L163.748 16ZM170.253 0.279999H186.213L185.517 6.544H176.637L176.469 7.048H180.285L180.069 9.112H175.797L175.629 9.616H185.229L184.509 16H165.141L170.253 0.279999ZM208.347 16H199.827L200.739 6.496H197.403L194.307 16H185.883L190.995 0.279999H207.387C207.915 0.279999 208.323 0.423999 208.659 0.663999C208.995 0.904 209.235 1.216 209.403 1.576C209.571 1.96 209.667 2.344 209.715 2.752C209.763 3.184 209.763 3.568 209.715 3.904L208.347 16ZM232.638 0.279999L231.918 6.544H225.438L222.366 16H213.99L217.062 6.544H211.518L213.558 0.279999H232.638ZM273.084 16H264.564L265.404 6.664H262.068L260.94 16H252.444L253.284 6.664H249.948L246.924 16H238.5L243.612 0.279999H272.124C272.652 0.279999 273.084 0.423999 273.42 0.663999C273.756 0.904 273.996 1.216 274.164 1.576C274.332 1.96 274.428 2.344 274.476 2.752C274.524 3.184 274.524 3.568 274.476 3.904L273.084 16ZM288.421 16L288.709 13.216H284.917L286.909 7.048H289.261L289.333 6.496H285.997L282.901 16H274.477L278.869 2.512C278.965 2.2 279.157 1.912 279.469 1.624C279.781 1.36 280.141 1.12 280.525 0.927999C280.909 0.735999 281.317 0.568 281.749 0.448C282.181 0.352 282.565 0.279999 282.901 0.279999H295.981C296.485 0.279999 296.893 0.423999 297.229 0.663999C297.565 0.904 297.805 1.216 297.997 1.576C298.165 1.96 298.261 2.344 298.309 2.752C298.357 3.184 298.357 3.568 298.309 3.904L296.965 16H288.421ZM319.84 6.544H313.192L319.384 9.496C319.408 10.216 319.408 10.864 319.384 11.464C319.336 12.064 319.216 12.712 319 13.432C318.904 13.72 318.76 14.032 318.592 14.32C318.4 14.608 318.184 14.896 317.944 15.136C317.68 15.4 317.368 15.616 317.032 15.76C316.672 15.928 316.288 16 315.856 16H298.336L300.4 9.64H309.04L302.848 6.952C302.368 6.52 302.104 6.136 302.008 5.752C301.912 5.368 301.936 4.912 302.128 4.336L302.992 1.648C303.04 1.504 303.136 1.36 303.328 1.192C303.52 1.024 303.712 0.879999 303.952 0.735999C304.192 0.615999 304.432 0.519999 304.672 0.423999C304.912 0.327999 305.128 0.279999 305.32 0.279999H320.536L319.84 6.544ZM342.677 0.279999L341.957 6.544H335.477L332.405 16H324.029L327.101 6.544H321.557L323.597 0.279999H342.677ZM345.378 0.279999H361.338L360.642 6.544H351.762L351.594 7.048H355.41L355.194 9.112H350.922L350.754 9.616H360.354L359.634 16H340.266L345.378 0.279999ZM372.528 6.496L369.432 16H361.008L366.12 0.279999H383.352C383.592 0.279999 383.832 0.352 384.048 0.448C384.24 0.568 384.432 0.711999 384.576 0.879999C384.72 1.048 384.84 1.24 384.936 1.432C385.008 1.624 385.056 1.816 385.056 2.008L384.576 7.336C384.48 7.624 384.36 7.864 384.216 8.08C384.072 8.296 383.904 8.488 383.76 8.656C383.616 8.824 383.472 8.968 383.328 9.088C383.184 9.232 383.064 9.328 382.968 9.424L382.584 9.76H384.12L383.496 16H376.152C375.048 16 374.088 15.76 373.272 15.232C372.456 14.728 371.832 14.056 371.424 13.24L373.44 7.096H375.816L376.008 6.496H372.528ZM406.395 6.544H399.747L405.939 9.496C405.963 10.216 405.963 10.864 405.939 11.464C405.891 12.064 405.771 12.712 405.555 13.432C405.459 13.72 405.315 14.032 405.147 14.32C404.955 14.608 404.739 14.896 404.499 15.136C404.235 15.4 403.923 15.616 403.587 15.76C403.227 15.928 402.843 16 402.411 16H384.891L386.955 9.64H395.595L389.403 6.952C388.923 6.52 388.659 6.136 388.563 5.752C388.467 5.368 388.491 4.912 388.683 4.336L389.547 1.648C389.595 1.504 389.691 1.36 389.883 1.192C390.075 1.024 390.267 0.879999 390.507 0.735999C390.747 0.615999 390.987 0.519999 391.227 0.423999C391.467 0.327999 391.683 0.279999 391.875 0.279999H407.091L406.395 6.544Z" fill="#6143F0"/>
</svg>
