<svg width="19" height="24" viewBox="0 0 19 24" fill="none" xmlns="http://www.w3.org/2000/svg">
<g clip-path="url(#clip0_5087_10792)">
<mask id="mask0_5087_10792" style="mask-type:luminance" maskUnits="userSpaceOnUse" x="0" y="0" width="19" height="24">
<path d="M0.0620117 0.929644H18.1072V23.7471H0.0620117V0.929644Z" fill="white"/>
</mask>
<g mask="url(#mask0_5087_10792)">
<path d="M16.1335 5.81744C16.125 5.78551 16.087 5.6935 16.087 5.6935L7.51781 5.69268C7.07965 5.69185 6.43874 5.69162 6.37959 5.6915H6.37052C5.96005 5.68148 5.74151 5.77939 5.53462 5.89921C5.32974 6.01761 5.15054 6.19881 5.0504 6.37589C4.95038 6.55296 4.88475 6.72756 4.8414 6.94058C4.8011 7.13874 4.70508 7.94212 4.69377 8.0478C4.70061 8.04792 12.84 8.04757 12.84 8.04757C11.966 8.91139 10.9724 9.88572 10.1424 10.686C10.026 10.7976 9.90687 10.9131 9.78894 11.027H8.4026C8.4026 11.027 8.40237 11.0275 8.40237 11.0277C7.56305 11.0277 6.94735 11.0275 6.94252 11.027C6.72126 11.0279 6.5992 11.0819 6.4795 11.1511C6.35191 11.2249 6.24022 11.3378 6.17801 11.4481C6.11557 11.5583 6.07481 11.667 6.04783 11.7998C6.0225 11.9231 6.01613 11.9782 5.99976 12.1471C5.98927 12.2555 5.98385 12.4541 5.9749 12.538H8.24179C7.99155 12.7845 7.74366 13.0288 7.49955 13.2703C7.38091 13.3876 7.26356 13.5032 7.1474 13.6176H6.47173C6.47161 13.6179 6.47161 13.6181 6.47149 13.6185C5.63229 13.6185 5.01671 13.6181 5.01188 13.6176C4.79062 13.6187 4.66856 13.6727 4.54851 13.7419C4.42103 13.8158 4.30958 13.9287 4.24714 14.0387C4.18481 14.1491 4.14393 14.2579 4.11695 14.3906C4.09186 14.5137 4.08526 14.569 4.06912 14.7378C4.05851 14.8462 4.05298 15.0449 4.04414 15.1287H5.5973C5.45133 15.2708 5.31113 15.4073 5.18035 15.5347C4.69519 16.0075 4.21521 16.6139 3.90865 17.2081C3.53412 17.9342 3.33489 18.7687 3.28859 19.5828C3.2708 19.8928 3.28588 20.2171 3.32806 20.4985C3.32806 20.4985 13.1493 20.4963 13.1737 20.4985C13.5292 20.4971 13.7252 20.4105 13.9174 20.2991C14.1222 20.1806 14.3014 19.9995 14.4015 19.8224C14.5017 19.6453 14.5672 19.4709 14.6105 19.2576C14.6509 19.0597 14.6613 18.9711 14.6877 18.7003C14.7045 18.5258 14.7538 18.206 14.7678 18.0718H6.06267C6.91448 17.2457 7.84239 16.3989 8.65661 15.6032C8.81837 15.4478 8.98332 15.2884 9.14814 15.1287H11.0008L11.001 15.1282C11.8402 15.1282 12.4558 15.1283 12.4606 15.1287C12.6819 15.1278 12.804 15.074 12.9238 15.0046C13.0515 14.9308 13.1631 14.8181 13.2253 14.7077C13.2876 14.5974 13.3285 14.4888 13.3554 14.356C13.3808 14.2328 13.3871 14.1774 13.4034 14.0088C13.4139 13.9003 13.4194 13.7015 13.4284 13.6176H11.1438H11.1393H10.6968C10.903 13.4165 11.1082 13.2168 11.3119 13.0189C11.4854 12.8505 11.6481 12.6924 11.8064 12.538H12.9314L12.9315 12.5375C13.7709 12.5374 14.3866 12.5375 14.3914 12.538C14.6128 12.537 14.7347 12.4832 14.8548 12.4138C14.9822 12.3399 15.0937 12.2272 15.156 12.117C15.2185 12.0066 15.2593 11.8979 15.2863 11.7651C15.3114 11.642 15.3179 11.5867 15.3342 11.418C15.3448 11.3096 15.3503 11.1109 15.359 11.027H13.3458C13.4326 10.9418 13.5172 10.8594 13.5981 10.7803C14.2434 10.1553 14.7962 9.5503 15.1598 9.06219C15.523 8.57432 15.7379 8.18459 15.9013 7.79568C16.0645 7.40689 16.1554 7.05262 16.1736 6.7324C16.1922 6.41229 16.2079 6.10126 16.1335 5.81744Z" fill="#31CFCB"/>
</g>
</g>
<defs>
<clipPath id="clip0_5087_10792">
<rect width="18.0452" height="22.8174" fill="white" transform="translate(0.0620117 0.929688)"/>
</clipPath>
</defs>
</svg>
