<svg width="35" height="35" viewBox="0 0 35 35" fill="none" xmlns="http://www.w3.org/2000/svg">
<g clip-path="url(#clip0_6094_7047)">
<path d="M17.2772 34.6919C26.6466 34.6919 34.2419 27.0965 34.2419 17.7272C34.2419 8.35781 26.6466 0.762451 17.2772 0.762451C7.90786 0.762451 0.3125 8.35781 0.3125 17.7272C0.3125 27.0965 7.90786 34.6919 17.2772 34.6919Z" fill="#F79D3C"/>
<path d="M17.2772 30.4507C24.3042 30.4507 30.0008 24.7542 30.0008 17.7272C30.0008 10.7002 24.3042 5.00366 17.2772 5.00366C10.2502 5.00366 4.55371 10.7002 4.55371 17.7272C4.55371 24.7542 10.2502 30.4507 17.2772 30.4507Z" fill="#FFBD00"/>
<mask id="mask0_6094_7047" style="mask-type:luminance" maskUnits="userSpaceOnUse" x="9" y="6" width="16" height="22">
<path d="M9.98535 6.17043H24.7095V27.8413H9.98535V6.17043Z" fill="white"/>
</mask>
<g mask="url(#mask0_6094_7047)">
<path d="M23.1002 10.813C23.0933 10.7826 23.0622 10.6952 23.0622 10.6952L16.0701 10.6945C15.7126 10.6937 15.1897 10.6935 15.1414 10.6933H15.134C14.7991 10.6838 14.6207 10.7768 14.4519 10.8906C14.2848 11.0031 14.1385 11.1752 14.0568 11.3433C13.9752 11.5115 13.9217 11.6773 13.8863 11.8797C13.8534 12.0679 13.7751 12.8309 13.7658 12.9312C13.7714 12.9314 20.4128 12.931 20.4128 12.931C19.6997 13.7514 18.8889 14.6768 18.2117 15.4369C18.1167 15.5429 18.0195 15.6525 17.9233 15.7607H16.7921C16.7921 15.7607 16.7919 15.7612 16.7919 15.7614C16.107 15.7614 15.6047 15.7612 15.6007 15.7607C15.4202 15.7616 15.3206 15.8129 15.2229 15.8786C15.1188 15.9487 15.0277 16.0559 14.9769 16.1607C14.926 16.2654 14.8927 16.3686 14.8707 16.4947C14.85 16.6118 14.8448 16.6642 14.8315 16.8245C14.8229 16.9275 14.8185 17.1161 14.8112 17.1958H16.6609C16.4567 17.4299 16.2544 17.662 16.0552 17.8913C15.9584 18.0027 15.8627 18.1126 15.7679 18.2212H15.2166C15.2165 18.2214 15.2165 18.2217 15.2164 18.222C14.5316 18.222 14.0293 18.2217 14.0254 18.2212C13.8449 18.2222 13.7453 18.2735 13.6473 18.3393C13.5433 18.4094 13.4524 18.5166 13.4014 18.6211C13.3505 18.726 13.3172 18.8293 13.2952 18.9554C13.2747 19.0723 13.2693 19.1248 13.2561 19.2851C13.2475 19.3881 13.243 19.5767 13.2358 19.6564H14.5031C14.384 19.7913 14.2696 19.9209 14.1629 20.042C13.767 20.491 13.3754 21.0669 13.1252 21.6312C12.8196 22.3208 12.6571 23.1134 12.6193 23.8866C12.6048 24.1811 12.6171 24.489 12.6515 24.7563C12.6515 24.7563 20.6652 24.7542 20.6851 24.7563C20.9752 24.755 21.1351 24.6728 21.2919 24.5669C21.459 24.4543 21.6052 24.2824 21.687 24.1142C21.7687 23.946 21.8221 23.7804 21.8575 23.5778C21.8905 23.3898 21.8989 23.3056 21.9205 23.0485C21.9342 22.8828 21.9744 22.579 21.9858 22.4515H14.8828C15.5778 21.6669 16.335 20.8627 16.9993 20.107C17.1313 19.9594 17.2659 19.808 17.4004 19.6564H18.9121L18.9123 19.6558C19.597 19.6558 20.0993 19.6559 20.1033 19.6564C20.2838 19.6555 20.3834 19.6044 20.4812 19.5384C20.5854 19.4684 20.6764 19.3613 20.7272 19.2565C20.778 19.1517 20.8114 19.0486 20.8334 18.9225C20.8541 18.8054 20.8593 18.7528 20.8725 18.5927C20.8811 18.4896 20.8856 18.3009 20.8929 18.2212H19.0288H19.0251H18.6641C18.8323 18.0302 18.9998 17.8405 19.166 17.6526C19.3075 17.4927 19.4402 17.3425 19.5694 17.1958H20.4874L20.4875 17.1954C21.1724 17.1952 21.6747 17.1954 21.6787 17.1958C21.8593 17.1949 21.9588 17.1438 22.0568 17.0779C22.1608 17.0077 22.2517 16.9006 22.3026 16.796C22.3535 16.6912 22.3869 16.5879 22.4089 16.4618C22.4294 16.3448 22.4347 16.2924 22.4479 16.1321C22.4566 16.0292 22.4611 15.8404 22.4682 15.7607H20.8255C20.8964 15.6798 20.9654 15.6015 21.0314 15.5264C21.5579 14.9328 22.009 14.3582 22.3057 13.8947C22.602 13.4313 22.7774 13.0612 22.9107 12.6918C23.0439 12.3225 23.1181 11.9861 23.1329 11.6819C23.1481 11.3779 23.1609 11.0825 23.1002 10.813Z" fill="#FDEEC4"/>
</g>
</g>
<defs>
<clipPath id="clip0_6094_7047">
<rect width="33.9294" height="33.9294" fill="white" transform="translate(0.310547 0.762451)"/>
</clipPath>
</defs>
</svg>
