<svg width="14" height="16" viewBox="0 0 14 16" fill="none" xmlns="http://www.w3.org/2000/svg">
<path d="M13.7326 0.551748C13.7241 0.519882 13.6862 0.428047 13.6862 0.428047L5.13361 0.427224C4.6963 0.426401 4.05663 0.426166 3.9976 0.426048H3.98855C3.57888 0.416053 3.36075 0.513768 3.15427 0.633353C2.94979 0.751528 2.77094 0.932376 2.67099 1.10911C2.57116 1.28584 2.50566 1.4601 2.46239 1.6727C2.42218 1.87048 2.32634 2.67231 2.31506 2.77778C2.32188 2.7779 10.4455 2.77755 10.4455 2.77755C9.57321 3.63969 8.58149 4.61213 7.75309 5.4109C7.63691 5.52226 7.51803 5.63749 7.40033 5.7512H6.01669C6.01669 5.7512 6.01645 5.75167 6.01645 5.7519C5.17876 5.7519 4.56425 5.75167 4.55943 5.7512C4.33861 5.75214 4.21679 5.80599 4.09732 5.87502C3.96997 5.94874 3.8585 6.06139 3.79641 6.17145C3.73409 6.28151 3.69341 6.38993 3.66648 6.52245C3.6412 6.64556 3.63485 6.70059 3.6185 6.86909C3.60804 6.97727 3.60263 7.17552 3.59369 7.25925H5.85618C5.60643 7.50524 5.35902 7.74911 5.11538 7.99017C4.99697 8.10716 4.87986 8.22263 4.76392 8.33681H4.08956C4.08944 8.33705 4.08944 8.33728 4.08932 8.33763C3.25175 8.33763 2.63736 8.33728 2.63254 8.33681C2.41171 8.33787 2.28989 8.39172 2.17007 8.46087C2.04284 8.53459 1.93161 8.64724 1.86928 8.75707C1.80708 8.86724 1.76628 8.97578 1.73935 9.1083C1.71431 9.23118 1.70772 9.28632 1.69161 9.45483C1.68103 9.56301 1.6755 9.76126 1.66668 9.84498H3.21683C3.07114 9.98679 2.93121 10.123 2.80069 10.2502C2.31647 10.7221 1.83742 11.3273 1.53146 11.9203C1.15765 12.645 0.958811 13.4778 0.912599 14.2903C0.894844 14.5998 0.909895 14.9234 0.951991 15.2043C0.951991 15.2043 10.7541 15.2021 10.7785 15.2043C11.1334 15.2029 11.3289 15.1165 11.5208 15.0053C11.7252 14.887 11.904 14.7062 12.004 14.5295C12.1039 14.3528 12.1693 14.1788 12.2126 13.9658C12.2529 13.7683 12.2632 13.6798 12.2896 13.4096C12.3064 13.2355 12.3555 12.9162 12.3695 12.7823H3.6813C4.53145 11.9578 5.45756 11.1127 6.2702 10.3185C6.43165 10.1634 6.59627 10.0043 6.76077 9.84498H8.60983L8.61006 9.84439C9.44763 9.84439 10.062 9.84451 10.0668 9.84498C10.2877 9.84404 10.4095 9.7903 10.5291 9.72104C10.6565 9.64743 10.7679 9.5349 10.83 9.42472C10.8922 9.31466 10.933 9.20625 10.9599 9.07373C10.9852 8.95073 10.9915 8.89547 11.0078 8.7272C11.0182 8.6189 11.0238 8.42053 11.0327 8.33681H8.75257H8.74811H8.30645C8.51223 8.13609 8.71706 7.93678 8.92037 7.73924C9.09346 7.5712 9.25585 7.4134 9.41388 7.25925H10.5367L10.5368 7.25878C11.3745 7.25866 11.989 7.25878 11.9939 7.25925C12.2148 7.25831 12.3365 7.20457 12.4563 7.13531C12.5836 7.06158 12.6948 6.94905 12.757 6.83911C12.8193 6.72893 12.8601 6.6204 12.887 6.48788C12.9121 6.365 12.9186 6.30985 12.9348 6.14147C12.9454 6.03329 12.9509 5.83492 12.9596 5.7512H10.9503C11.0369 5.66618 11.1214 5.58387 11.2021 5.50497C11.8462 4.88117 12.3979 4.27737 12.7608 3.7902C13.1233 3.30328 13.3378 2.9143 13.5008 2.52615C13.6637 2.13811 13.7545 1.78453 13.7726 1.46493C13.7912 1.14544 13.8068 0.835014 13.7326 0.551748Z" fill="#34C759"/>
</svg>
