<svg width="11" height="13" viewBox="0 0 11 13" fill="none" xmlns="http://www.w3.org/2000/svg">
<g clip-path="url(#clip0_5063_10442)">
<mask id="mask0_5063_10442" style="mask-type:luminance" maskUnits="userSpaceOnUse" x="0" y="0" width="11" height="13">
<path d="M0 0.000976562H10.0235V12.6753H0V0.000976562Z" fill="white"/>
</mask>
<g mask="url(#mask0_5063_10442)">
<path d="M8.92624 2.71599C8.92153 2.69826 8.90039 2.64715 8.90039 2.64715L4.1405 2.64669C3.89712 2.64623 3.54111 2.6461 3.50826 2.64604H3.50322C3.27522 2.64047 3.15382 2.69485 3.0389 2.76141C2.9251 2.82718 2.82556 2.92783 2.76994 3.02619C2.71438 3.12455 2.67792 3.22154 2.65384 3.33986C2.63146 3.44993 2.57812 3.89618 2.57184 3.95489C2.57564 3.95495 7.0968 3.95475 7.0968 3.95475C6.61135 4.43458 6.0594 4.97579 5.59836 5.42034C5.5337 5.48231 5.46754 5.54645 5.40203 5.60973H4.63197C4.63197 5.60973 4.63184 5.60999 4.63184 5.61012C4.16563 5.61012 3.82363 5.60999 3.82094 5.60973C3.69804 5.61025 3.63024 5.64023 3.56375 5.67864C3.49288 5.71967 3.43084 5.78237 3.39629 5.84362C3.3616 5.90488 3.33896 5.96521 3.32397 6.03897C3.3099 6.10749 3.30637 6.13811 3.29727 6.23189C3.29145 6.2921 3.28844 6.40243 3.28346 6.44903H4.54264C4.40364 6.58594 4.26595 6.72166 4.13036 6.85582C4.06445 6.92094 3.99927 6.9852 3.93475 7.04875H3.55943C3.55937 7.04888 3.55937 7.04901 3.5593 7.0492C3.09316 7.0492 2.75122 7.04901 2.74854 7.04875C2.62564 7.04933 2.55784 7.07931 2.49115 7.11779C2.42034 7.15882 2.35843 7.22151 2.32375 7.28264C2.28913 7.34396 2.26642 7.40436 2.25143 7.47811C2.2375 7.5465 2.23383 7.57719 2.22487 7.67097C2.21898 7.73118 2.2159 7.84152 2.21099 7.88811H3.07372C2.99264 7.96703 2.91476 8.04282 2.84212 8.11363C2.57263 8.37625 2.30601 8.71308 2.13573 9.04311C1.92769 9.44643 1.81703 9.90996 1.79131 10.3622C1.78143 10.5344 1.7898 10.7145 1.81323 10.8708C1.81323 10.8708 7.26858 10.8696 7.28213 10.8708C7.47964 10.8701 7.58847 10.822 7.69527 10.7601C7.80901 10.6942 7.90855 10.5936 7.96417 10.4953C8.0198 10.3969 8.05619 10.3001 8.08027 10.1815C8.10272 10.0716 8.10847 10.0224 8.12313 9.872C8.13249 9.77508 8.15985 9.5974 8.16763 9.52286H3.33222C3.80537 9.06398 4.32079 8.59365 4.77307 8.15165C4.86292 8.06533 4.95454 7.97679 5.04609 7.88811H6.07518L6.07531 7.88778C6.54145 7.88778 6.88339 7.88785 6.88607 7.88811C7.00897 7.88759 7.07677 7.85768 7.14333 7.81913C7.21427 7.77817 7.27624 7.71554 7.3108 7.65422C7.34541 7.59297 7.36812 7.53263 7.38311 7.45887C7.39718 7.39042 7.40071 7.35966 7.40974 7.26601C7.41557 7.20574 7.41864 7.09534 7.42362 7.04875H6.15462H6.15214H5.90633C6.02086 6.93703 6.13486 6.82611 6.24801 6.71617C6.34434 6.62265 6.43472 6.53483 6.52267 6.44903H7.14758L7.14765 6.44877C7.61386 6.4487 7.95586 6.44877 7.95855 6.44903C8.08151 6.44851 8.14924 6.4186 8.21593 6.38005C8.28674 6.33902 8.34865 6.27639 8.38327 6.2152C8.41795 6.15388 8.44066 6.09348 8.45565 6.01973C8.46959 5.95134 8.47319 5.92065 8.48222 5.82693C8.48811 5.76673 8.49118 5.65632 8.49603 5.60973H7.37774C7.42597 5.56241 7.47296 5.51661 7.51792 5.47269C7.87635 5.12552 8.18341 4.78947 8.38536 4.51835C8.58712 4.24735 8.70649 4.03086 8.79726 3.81484C8.88789 3.59888 8.93842 3.40209 8.94849 3.22422C8.95883 3.04641 8.96754 2.87364 8.92624 2.71599Z" fill="#6143F0"/>
</g>
</g>
<defs>
<clipPath id="clip0_5063_10442">
<rect width="10.0235" height="12.6743" fill="white"/>
</clipPath>
</defs>
</svg>
