<svg width="290" height="16" viewBox="0 0 290 16" fill="none" xmlns="http://www.w3.org/2000/svg">
<path d="M5.78406 0.279999H14.2081L12.6001 5.2L16.9921 0.279999H25.9441L19.4881 7.936L23.1121 16H13.1281L10.8001 10.72L9.09606 16H0.672063L5.78406 0.279999ZM29.62 0.279999H38.044L32.932 16H24.508L29.62 0.279999ZM57.4017 16H48.8817L49.7937 6.496H46.4577L43.3617 16H34.9377L40.0497 0.279999H56.4417C56.9697 0.279999 57.3777 0.423999 57.7137 0.663999C58.0497 0.904 58.2897 1.216 58.4577 1.576C58.6257 1.96 58.7217 2.344 58.7697 2.752C58.8177 3.184 58.8177 3.568 58.7697 3.904L57.4017 16ZM82.1491 7.048L81.6451 12.712C81.6211 12.76 81.5971 12.856 81.5491 13.024C81.5011 13.216 81.4771 13.336 81.4531 13.432C81.3571 13.72 81.2131 14.032 81.0451 14.32C80.8531 14.608 80.6371 14.896 80.3731 15.136C80.1091 15.4 79.7971 15.616 79.4611 15.76C79.1251 15.928 78.7411 16 78.3091 16H62.3251C61.9891 16 61.6291 15.952 61.2451 15.832C60.8611 15.736 60.5491 15.568 60.2611 15.376C59.9731 15.184 59.7331 14.944 59.5891 14.656C59.4451 14.392 59.4211 14.08 59.5411 13.744L63.4531 1.648C63.5011 1.504 63.5971 1.36 63.7891 1.192C63.9811 1.024 64.1731 0.879999 64.4131 0.735999C64.6531 0.615999 64.8931 0.519999 65.1331 0.423999C65.3731 0.327999 65.5891 0.279999 65.7811 0.279999H83.0131L82.3171 6.544H70.2931L69.2851 9.616H75.4771L75.5251 9.112H73.5811L73.7731 7.048H82.1491ZM112.946 0.279999C113.186 0.279999 113.426 0.352 113.642 0.448C113.834 0.568 114.026 0.711999 114.17 0.879999C114.314 1.048 114.434 1.24 114.53 1.432C114.602 1.624 114.65 1.816 114.65 2.008C114.458 3.688 114.314 5.152 114.17 6.352C114.026 7.552 113.93 8.584 113.834 9.424C113.738 10.264 113.642 10.936 113.57 11.44C113.498 11.968 113.45 12.352 113.402 12.64C113.354 12.928 113.33 13.144 113.33 13.24C113.306 13.336 113.306 13.408 113.306 13.408L113.162 13.696C113.066 13.936 112.922 14.2 112.73 14.464C112.538 14.752 112.298 14.992 112.01 15.208C111.722 15.448 111.434 15.64 111.098 15.784C110.762 15.928 110.45 16 110.138 16H94.1298C93.7938 16 93.4338 15.952 93.0498 15.832C92.6658 15.736 92.3538 15.568 92.0658 15.376C91.7778 15.184 91.5378 14.944 91.3938 14.656C91.2498 14.392 91.2258 14.08 91.3458 13.744L95.2578 1.648C95.3058 1.504 95.4018 1.36 95.5938 1.192C95.7858 1.024 95.9778 0.879999 96.2178 0.735999C96.4578 0.615999 96.6978 0.519999 96.9378 0.423999C97.1778 0.327999 97.3938 0.279999 97.5858 0.279999H112.946ZM105.146 9.616C105.218 9.064 105.29 8.536 105.338 8.008C105.386 7.504 105.434 7.024 105.482 6.544H102.098L101.09 9.616H105.146ZM131.343 7.072L130.647 13.216H123.399L122.487 16H114.063L119.175 0.279999H137.175L136.455 6.544H125.559L125.391 7.072H131.343ZM145.239 6.496L146.079 0.279999H165.855C166.095 0.279999 166.311 0.352 166.527 0.472C166.743 0.592 166.935 0.735999 167.079 0.927999C167.223 1.12 167.343 1.312 167.439 1.504C167.535 1.696 167.559 1.864 167.559 2.008L166.527 10.984L166.503 11.08C166.407 11.32 166.287 11.584 166.095 11.824C165.903 12.064 165.687 12.304 165.447 12.52C165.207 12.736 164.919 12.904 164.631 13.048C164.319 13.192 164.007 13.24 163.695 13.24H153.951L155.967 7.096H158.319L158.511 6.496H155.031L151.935 16H143.511L146.607 6.496H145.239ZM178.012 6.496L174.916 16H166.492L171.604 0.279999H188.836C189.076 0.279999 189.316 0.352 189.532 0.448C189.724 0.568 189.916 0.711999 190.06 0.879999C190.204 1.048 190.324 1.24 190.42 1.432C190.492 1.624 190.54 1.816 190.54 2.008L190.06 7.336C189.964 7.624 189.844 7.864 189.7 8.08C189.556 8.296 189.388 8.488 189.244 8.656C189.1 8.824 188.956 8.968 188.812 9.088C188.668 9.232 188.548 9.328 188.452 9.424L188.068 9.76H189.604L188.98 16H181.636C180.532 16 179.572 15.76 178.756 15.232C177.94 14.728 177.316 14.056 176.908 13.24L178.924 7.096H181.3L181.492 6.496H178.012ZM212.719 0.279999C212.959 0.279999 213.199 0.352 213.415 0.448C213.607 0.568 213.799 0.711999 213.943 0.879999C214.087 1.048 214.207 1.24 214.303 1.432C214.375 1.624 214.423 1.816 214.423 2.008C214.231 3.688 214.087 5.152 213.943 6.352C213.799 7.552 213.703 8.584 213.607 9.424C213.511 10.264 213.415 10.936 213.343 11.44C213.271 11.968 213.223 12.352 213.175 12.64C213.127 12.928 213.103 13.144 213.103 13.24C213.079 13.336 213.079 13.408 213.079 13.408L212.935 13.696C212.839 13.936 212.695 14.2 212.503 14.464C212.311 14.752 212.071 14.992 211.783 15.208C211.495 15.448 211.207 15.64 210.871 15.784C210.535 15.928 210.223 16 209.911 16H193.903C193.567 16 193.207 15.952 192.823 15.832C192.439 15.736 192.127 15.568 191.839 15.376C191.551 15.184 191.311 14.944 191.167 14.656C191.023 14.392 190.999 14.08 191.119 13.744L195.031 1.648C195.079 1.504 195.175 1.36 195.367 1.192C195.559 1.024 195.751 0.879999 195.991 0.735999C196.231 0.615999 196.471 0.519999 196.711 0.423999C196.951 0.327999 197.167 0.279999 197.359 0.279999H212.719ZM204.919 9.616C204.991 9.064 205.063 8.536 205.111 8.008C205.159 7.504 205.207 7.024 205.255 6.544H201.871L200.863 9.616H204.919ZM231.116 7.072L230.42 13.216H223.172L222.26 16H213.836L218.948 0.279999H236.948L236.228 6.544H225.332L225.164 7.072H231.116ZM239.667 0.279999H248.091L242.979 16H234.555L239.667 0.279999ZM269.31 0.279999L268.59 6.544H262.11L259.038 16H250.662L253.734 6.544H248.19L250.23 0.279999H269.31ZM288.403 6.544H281.755L287.947 9.496C287.971 10.216 287.971 10.864 287.947 11.464C287.899 12.064 287.779 12.712 287.563 13.432C287.467 13.72 287.323 14.032 287.155 14.32C286.963 14.608 286.747 14.896 286.507 15.136C286.243 15.4 285.931 15.616 285.595 15.76C285.235 15.928 284.851 16 284.419 16H266.899L268.963 9.64H277.603L271.411 6.952C270.931 6.52 270.667 6.136 270.571 5.752C270.475 5.368 270.499 4.912 270.691 4.336L271.555 1.648C271.603 1.504 271.699 1.36 271.891 1.192C272.083 1.024 272.275 0.879999 272.515 0.735999C272.755 0.615999 272.995 0.519999 273.235 0.423999C273.475 0.327999 273.691 0.279999 273.883 0.279999H289.099L288.403 6.544Z" fill="#6143F0"/>
</svg>
