<svg width="699" height="692" viewBox="0 0 699 692" fill="none" xmlns="http://www.w3.org/2000/svg">
<mask id="mask0_7001_6083" style="mask-type:alpha" maskUnits="userSpaceOnUse" x="0" y="0" width="699" height="692">
<rect x="0.555664" y="0.297363" width="697.778" height="691.406" rx="14.2222" fill="#003DF6"/>
</mask>
<g mask="url(#mask0_7001_6083)">
<rect x="0.555664" y="6.55615" width="697.778" height="839.111" rx="14.2222" fill="#6143F0"/>
<circle opacity="0.1" cx="745.444" cy="11.0006" r="292.444" fill="white"/>
<circle opacity="0.1" cx="505.445" cy="-148.111" r="376.889" fill="white"/>
<circle opacity="0.1" cx="122.334" cy="766.556" r="227.556" fill="white"/>
<circle opacity="0.1" cx="257.444" cy="843.89" r="227.556" fill="white"/>
</g>
<path d="M142.583 357.481H108.811V411.283H142.583V357.481Z" fill="#FFBDBD"/>
<path d="M190.168 279.681H156.396V351.728H190.168V279.681Z" fill="#FF8383"/>
<path d="M246.543 193.14H212.771V295.196H246.543V193.14Z" fill="#FFBDBD"/>
<path d="M304.592 256.616H270.819V299.38H304.592V256.616Z" fill="#FF8383"/>
<path d="M361.384 166.585H327.611V281.412H361.384V166.585Z" fill="#FF8383"/>
<path d="M411.898 290.202H378.126V344.238H411.898V290.202Z" fill="#FF8383"/>
<path d="M463.25 232.107H429.478V305.659H463.25V232.107Z" fill="#FFBDBD"/>
<path d="M519.756 169.843H485.983V267.618H519.756V169.843Z" fill="#FFBDBD"/>
<path d="M578.771 89.8276H544.999V232.073H578.771V89.8276Z" fill="#FF8383"/>
<path d="M105.478 416.819L99.9756 412.307L249.608 229.818C250.261 229.022 251.228 228.548 252.258 228.519C253.293 228.491 254.28 228.908 254.978 229.668L290.723 268.556L320.34 242.785C321.794 241.519 323.992 241.643 325.296 243.062L400.693 325.166L590.633 173.627L595.072 179.189L402.538 332.798C401.076 333.964 398.963 333.801 397.699 332.424L322.401 250.427L292.785 276.196C291.331 277.461 289.135 277.338 287.831 275.92L252.516 237.5L105.478 416.819Z" fill="#31CFCB"/>
<path d="M104.82 419.085C109.166 419.085 112.689 415.562 112.689 411.215C112.689 406.869 109.166 403.346 104.82 403.346C100.473 403.346 96.9502 406.869 96.9502 411.215C96.9502 415.562 100.473 419.085 104.82 419.085Z" fill="#FF4343"/>
<path d="M251.313 239.944C255.659 239.944 259.182 236.421 259.182 232.074C259.182 227.728 255.659 224.205 251.313 224.205C246.967 224.205 243.443 227.728 243.443 232.074C243.443 236.421 246.967 239.944 251.313 239.944Z" fill="#FF4343"/>
<path d="M290.239 281.381C294.585 281.381 298.108 277.858 298.108 273.511C298.108 269.165 294.585 265.642 290.239 265.642C285.892 265.642 282.369 269.165 282.369 273.511C282.369 277.858 285.892 281.381 290.239 281.381Z" fill="#FF4343"/>
<path d="M323.723 254.593C328.069 254.593 331.592 251.07 331.592 246.723C331.592 242.377 328.069 238.854 323.723 238.854C319.377 238.854 315.854 242.377 315.854 246.723C315.854 251.07 319.377 254.593 323.723 254.593Z" fill="#FF4343"/>
<path d="M400.318 336.211C404.664 336.211 408.187 332.688 408.187 328.342C408.187 323.995 404.664 320.472 400.318 320.472C395.972 320.472 392.448 323.995 392.448 328.342C392.448 332.688 395.972 336.211 400.318 336.211Z" fill="#FF4343"/>
<path d="M590.76 185.531C595.106 185.531 598.629 182.008 598.629 177.662C598.629 173.316 595.106 169.792 590.76 169.792C586.414 169.792 582.891 173.316 582.891 177.662C582.891 182.008 586.414 185.531 590.76 185.531Z" fill="#FF4343"/>
<path d="M285.581 574.943C357.847 574.943 416.43 516.36 416.43 444.094C416.43 371.828 357.847 313.245 285.581 313.245C213.315 313.245 154.731 371.828 154.731 444.094C154.731 516.36 213.315 574.943 285.581 574.943Z" fill="#D9EBF5"/>
<path d="M349.23 398.964C348.632 395.069 345.15 394.065 342.243 393.918C340.018 393.811 338.131 394.209 338.131 394.209C335.489 353.514 301.666 355.1 301.666 355.1C301.666 355.1 312.236 389.452 257.8 393.68C257.8 393.68 250.311 391.809 244.73 394.854C241.416 396.656 238.773 400.198 238.773 406.894C238.773 413.463 241.716 416.808 245.591 418.319C249.929 420.016 255.442 419.408 259.279 418.467C260.663 421.622 262.56 424.582 264.86 427.277C275.624 439.908 295.231 446.804 312.761 441.245C316.376 440.098 319.42 438.422 321.978 436.42C330.143 430.052 333.388 420.412 334.668 414.281C336.745 414.229 338.706 413.985 339.651 413.853C340.027 413.8 340.243 413.764 340.243 413.764C347.117 412.177 350.447 406.87 349.23 398.964ZM318.123 421.531C317.928 423.931 316.613 427.999 310.487 430.67C309.054 431.287 307.364 431.832 305.366 432.26C290.568 435.431 280.527 426.447 279.999 419.577C279.984 419.355 279.973 419.138 279.978 418.927C279.999 414.985 283.059 412.722 285.506 411.581C286.997 410.879 288.26 410.593 288.455 410.593C288.455 410.593 294.797 410.064 299.026 411.649C303.253 413.235 309.597 413.764 309.597 413.764C313.619 414.624 315.769 416.269 316.89 417.59C317.577 418.394 317.99 419.377 318.105 420.413C318.15 420.781 318.156 421.156 318.123 421.531Z" fill="#FFA896"/>
<path d="M259.28 419.437C258.844 419.437 258.448 419.141 258.339 418.699C258.211 418.179 258.528 417.654 259.049 417.524C261.082 417.022 262.575 416.44 263.101 416.111C263.555 415.827 264.154 415.966 264.437 416.419C264.721 416.873 264.584 417.472 264.129 417.755C263.305 418.27 261.494 418.918 259.514 419.408C259.435 419.428 259.357 419.437 259.28 419.437ZM334.67 415.251C334.604 415.251 334.538 415.245 334.47 415.23C333.947 415.12 333.609 414.606 333.72 414.082C334.416 410.753 334.518 408.461 334.52 408.438C334.543 407.904 335 407.483 335.528 407.51C336.064 407.531 336.48 407.982 336.458 408.518C336.454 408.617 336.352 410.981 335.619 414.481C335.524 414.937 335.12 415.251 334.67 415.251ZM312.454 406.572C311.7 406.572 311.099 406.419 310.642 406.114C310.195 405.817 310.075 405.215 310.372 404.77C310.67 404.325 311.272 404.203 311.717 404.5C311.785 404.547 312.447 404.919 314.925 404.169C315.758 403.918 316.266 403.059 316.081 402.215L312.61 386.222C312.496 385.699 312.829 385.183 313.352 385.069C313.876 384.956 314.392 385.287 314.506 385.811L317.977 401.802C318.377 403.627 317.284 405.485 315.487 406.027C314.284 406.39 313.277 406.572 312.454 406.572Z" fill="#F66A69"/>
<path d="M331.79 379.323C331.435 379.323 331.093 379.126 330.922 378.787C328.135 373.211 325.025 370.225 321.68 369.914C317.159 369.489 313.571 374.138 313.535 374.184C313.21 374.611 312.602 374.694 312.177 374.369C311.75 374.046 311.667 373.436 311.992 373.011C312.165 372.784 316.28 367.462 321.862 367.983C325.918 368.361 329.55 371.705 332.658 377.92C332.896 378.399 332.702 378.983 332.223 379.222C332.085 379.291 331.937 379.323 331.79 379.323ZM272.964 460.133C263.578 461.422 236.418 466.47 218.186 483.222L214.359 483.809C212.875 484.037 211.86 485.421 212.086 486.901L212.451 489.285C211.871 489.988 211.31 490.713 210.765 491.452C190.154 519.462 149.387 555.823 170.6 585.523C174.099 590.417 178.348 593.973 182.946 596.522C146.772 583.886 134.441 554.195 144.705 519.991C155.804 482.997 211.999 453.232 228.735 443.359C239.315 437.118 243.766 426.844 245.594 418.319C249.932 420.016 255.445 419.408 259.281 418.467C260.666 421.622 262.563 424.582 264.862 427.277L272.964 460.133Z" fill="#282525"/>
<path d="M192.268 599.991C192.211 599.991 192.152 599.985 192.094 599.97C188.821 599.169 185.671 598.243 182.726 597.218C182.347 597.085 182.146 596.671 182.278 596.292C182.41 595.912 182.825 595.712 183.204 595.844C186.105 596.854 189.211 597.768 192.439 598.556C192.829 598.651 193.069 599.046 192.973 599.435C192.893 599.768 192.596 599.991 192.268 599.991Z" fill="black"/>
<path d="M342.244 393.918C340.019 393.812 338.132 394.209 338.132 394.209C335.489 353.514 301.666 355.101 301.666 355.101C301.666 355.101 312.237 389.452 257.801 393.681C257.801 393.681 250.312 391.81 244.731 394.854C243.119 383.529 243.193 363.213 258.857 345.06C282.111 318.107 308.007 337.662 308.007 337.662C308.007 337.662 329.511 324.233 338.13 355.63C342.777 372.556 342.84 386.148 342.244 393.918Z" fill="#282525"/>
<path d="M318.101 420.41C300.397 420.886 290.085 415.084 285.504 411.58C286.995 410.878 288.257 410.591 288.453 410.591C288.453 410.591 294.795 410.063 299.024 411.648C303.251 413.234 309.594 413.762 309.594 413.762C313.617 414.623 315.766 416.268 316.888 417.589C317.573 418.393 317.986 419.376 318.101 420.41Z" fill="#FCF2F2"/>
<path d="M318.123 421.531C317.928 423.931 316.613 427.999 310.486 430.67C303.791 420.84 296.382 423.804 296.382 423.804C292.117 418.471 284.501 418.397 279.978 418.926C279.999 414.983 283.059 412.721 285.506 411.58C290.088 415.083 300.399 420.886 318.103 420.41C318.15 420.781 318.156 421.156 318.123 421.531Z" fill="#282525"/>
<path d="M310.487 430.67C309.054 431.287 307.363 431.833 305.366 432.261C290.568 435.432 280.527 426.447 279.999 419.577C279.984 419.355 279.973 419.138 279.978 418.927C284.502 418.399 292.117 418.473 296.382 423.806C296.382 423.805 303.791 420.838 310.487 430.67Z" fill="#DB3A3A"/>
<path d="M218.163 536.571C217.843 536.571 217.549 536.358 217.461 536.034C217.356 535.645 217.584 535.247 217.972 535.14L219.323 534.771C219.709 534.664 220.11 534.892 220.216 535.279C220.322 535.667 220.094 536.066 219.708 536.172L218.353 536.543C218.291 536.563 218.226 536.571 218.163 536.571Z" fill="black"/>
<path d="M258.917 591.678L248.394 594.506L228.734 599.791C228.734 599.791 202.685 607.433 182.967 596.531C182.962 596.526 182.956 596.52 182.945 596.52C178.347 593.973 174.098 590.416 170.599 585.521C149.386 555.821 190.154 519.46 210.764 491.45C211.308 490.711 211.868 489.986 212.45 489.284L219.516 535.474C221.93 534.803 227.311 533.281 233.399 531.363C232.37 546.33 233.924 575.772 258.917 591.678Z" fill="#31CFCB"/>
<path d="M333.408 563.573C331.859 569.08 327.377 573.277 321.855 574.757L258.923 591.678C258.918 591.678 258.918 591.678 258.918 591.678C233.925 575.77 232.371 546.328 233.402 531.361C243.205 528.286 254.843 524.2 258.859 521.045C266.258 515.231 281.585 490.921 292.683 492.505C299.463 493.473 300.721 497.209 300.674 499.962C300.647 501.431 300.204 502.859 299.479 504.132L293.739 514.173L309.065 511.002L308.537 506.245C308.558 506.245 308.585 506.25 308.606 506.25C328.615 507.878 325.449 528.97 325.449 528.97C335.49 538.482 331.791 550.637 331.791 550.637C333.825 554.895 334.316 560.346 333.408 563.573Z" fill="#FFA896"/>
<path d="M382.805 450.35C359.097 456.263 330.987 457.03 320.866 457.104C321.373 453.357 321.744 444.129 321.981 436.419C330.146 430.051 333.391 420.41 334.671 414.28C336.748 414.227 338.709 413.984 339.654 413.852C339.934 422.619 343.866 446.264 377.769 449.7C379.471 449.875 381.151 450.086 382.805 450.35ZM445.415 523.161C441.812 561.254 407.617 589.824 372.632 593.228C380.284 587.631 379.882 565.44 379.882 565.44C383.386 557.809 411.851 534.401 445.25 508.691C445.817 513.346 445.886 518.182 445.415 523.161Z" fill="#282525"/>
<path d="M599.568 337.021C598.5 341.434 595.862 345.312 592.274 348.103L580.98 356.887L562.367 371.367L547.945 382.582C547.945 382.582 538.348 392.179 556.656 394.911C557.559 395.048 558.531 395.165 559.572 395.265C572.362 396.48 581.288 397.353 586.864 399.281C590.965 400.703 593.254 402.7 593.925 405.834C594.079 406.553 594.147 407.271 594.136 407.979C594.058 414.606 587.186 420.732 578.599 421.688C569.086 422.745 561.687 422.745 561.687 422.745C561.687 422.745 549.933 431.121 532.393 443.852C498.411 423.358 491.905 398.735 492.291 381.981C532.567 353.58 571.201 326.03 571.201 326.03C571.201 326.03 588.113 314.403 596.568 323.915C600.37 328.2 600.539 333.014 599.568 337.021Z" fill="#FFA896"/>
<path d="M532.389 443.855C508.924 460.883 475.112 485.706 445.252 508.691C411.851 534.403 383.387 557.809 379.883 565.44C379.883 565.44 380.285 587.631 372.633 593.228C371.529 594.042 370.255 594.507 368.786 594.507H248.396L258.919 591.68C258.919 591.68 258.919 591.68 258.924 591.68L321.856 574.758C327.378 573.278 331.86 569.082 333.409 563.575C334.318 560.346 333.826 554.897 331.792 550.642C331.792 550.642 335.491 538.487 325.45 528.974C325.45 528.974 328.617 507.882 308.607 506.255L303.729 474.377C312.491 469.726 319.953 461.487 320.693 458.157C320.756 457.883 320.815 457.529 320.867 457.106C330.988 457.032 359.098 456.265 382.806 450.351H382.811C392.128 448.026 400.764 444.907 407.365 440.717C420.217 432.563 456.889 406.946 492.288 381.986C491.901 398.738 498.408 423.359 532.389 443.855Z" fill="#31CFCB"/>
<path d="M571.197 382.053C571.197 382.053 559.57 389.452 556.927 394.209C556.806 394.43 556.716 394.663 556.653 394.911C538.346 392.179 547.943 382.582 547.943 382.582L562.365 371.367C564.544 375.399 571.197 382.053 571.197 382.053Z" fill="#F66A69"/>
<path d="M597.094 381.525C597.094 381.525 595.323 391.788 586.862 399.283C581.287 397.353 572.36 396.482 559.57 395.267C558.529 395.166 557.556 395.049 556.653 394.912C556.716 394.664 556.807 394.432 556.927 394.21C559.57 389.453 571.197 382.055 571.197 382.055C571.197 382.055 564.543 375.401 562.367 371.369L580.981 356.888C586.472 358.87 594.748 363.849 596.676 376.03C596.676 376.03 596.676 376.03 596.676 376.035C596.946 377.72 597.094 379.548 597.094 381.525Z" fill="#FFA896"/>
<path d="M562.367 372.338C562.078 372.338 561.793 372.21 561.601 371.964C561.271 371.542 561.348 370.932 561.77 370.602L580.384 356.122C580.806 355.792 581.416 355.869 581.745 356.291C582.075 356.713 581.998 357.323 581.576 357.652L562.962 372.133C562.786 372.27 562.575 372.338 562.367 372.338ZM586.863 400.252C586.758 400.252 586.65 400.235 586.545 400.198C580.986 398.275 571.495 397.372 559.48 396.231C558.377 396.125 557.406 396.006 556.508 395.871L555.448 395.709L555.713 394.671C555.798 394.338 555.918 394.035 556.077 393.742C556.334 393.273 556.924 393.1 557.393 393.357C557.683 393.516 557.858 393.799 557.892 394.104C558.445 394.175 559.032 394.24 559.663 394.3C572.282 395.499 581.399 396.366 587.178 398.365C587.685 398.541 587.953 399.092 587.777 399.599C587.64 400.001 587.265 400.252 586.863 400.252Z" fill="#F66A69"/>
<path d="M600.265 400.55C600.265 400.55 598.763 404.619 594.134 407.981C594.145 407.273 594.076 406.553 593.923 405.836C593.252 402.702 590.963 400.704 586.862 399.283C595.323 391.789 597.094 381.525 597.094 381.525C597.094 379.549 596.946 377.72 596.677 376.034C599.419 380.795 602.543 389.171 600.265 400.55Z" fill="#F66A69"/>
<path d="M281.773 473.499L218.185 483.222C236.418 466.469 263.576 461.422 272.962 460.133L273.126 460.798C273.127 460.798 276.007 468.483 281.773 473.499Z" fill="#31CFCB"/>
<path d="M300.672 499.965C300.72 497.212 299.462 493.476 292.681 492.509C281.582 490.922 266.256 515.234 258.858 521.048C254.842 524.203 243.204 528.287 233.4 531.364C227.313 533.283 221.932 534.805 219.517 535.476L212.452 489.285L212.087 486.901C211.859 485.421 212.874 484.037 214.36 483.809L218.187 483.222L281.775 473.499L300.415 470.645C301.895 470.423 303.284 471.438 303.507 472.923L303.729 474.377L308.608 506.255C308.586 506.255 308.56 506.25 308.538 506.25L309.067 511.007L293.741 514.178L299.48 504.137C300.202 502.86 300.646 501.434 300.672 499.965Z" fill="#633434"/>
<path d="M275.769 387.779C275.669 387.779 275.569 387.764 275.469 387.731C274.959 387.565 274.681 387.018 274.847 386.509C277.708 377.721 281.848 372.091 287.153 369.775C292.568 367.411 297.125 369.458 297.316 369.546C297.802 369.77 298.015 370.346 297.79 370.833C297.567 371.318 296.992 371.531 296.506 371.309C296.456 371.287 292.492 369.543 287.892 371.569C283.135 373.667 279.367 378.895 276.692 387.109C276.558 387.519 276.178 387.779 275.769 387.779Z" fill="#4C4C4C"/>
<path d="M265.033 427.468C264.978 427.403 264.918 427.34 264.862 427.276L272.964 460.132L273.127 460.797C273.127 460.797 276.007 468.481 281.773 473.497L300.413 470.644C301.893 470.422 303.282 471.437 303.506 472.921L303.727 474.375C312.49 469.724 319.951 461.485 320.692 458.156C320.755 457.882 320.814 457.527 320.866 457.104C321.142 455.071 321.376 451.427 321.571 447.288C307.5 457.144 281.658 467.459 265.033 427.468Z" fill="#FFA896"/>
<path d="M312.765 441.243C295.326 446.775 275.834 439.974 265.032 427.468C281.658 467.457 307.499 457.142 321.57 447.286C321.735 443.792 321.872 439.947 321.98 436.417C319.423 438.422 316.38 440.098 312.765 441.243ZM338.817 403.372C338.769 403.379 338.718 403.381 338.667 403.376C338.352 403.344 338.124 403.07 338.158 402.762C338.175 402.609 338.606 399.004 341.603 398.314C343.697 397.832 344.861 399.551 344.909 399.625C345.081 399.885 345.004 400.233 344.736 400.404C344.47 400.574 344.116 400.503 343.943 400.244C343.908 400.192 343.152 399.112 341.858 399.409C339.664 399.914 339.305 402.845 339.302 402.874C339.273 403.133 339.068 403.333 338.817 403.372Z" fill="#F66A69"/>
<path d="M339.811 407.525C339.543 407.567 339.276 407.419 339.182 407.16C339.076 406.868 339.233 406.546 339.533 406.439C339.641 406.401 342.225 405.446 342.501 402.951C342.652 401.571 341.876 400.601 340.191 400.068C339.889 399.973 339.726 399.656 339.826 399.36C339.926 399.064 340.251 398.903 340.553 398.998C342.758 399.697 343.855 401.14 343.644 403.064C343.288 406.272 340.052 407.448 339.915 407.497C339.881 407.511 339.846 407.521 339.811 407.525ZM254.516 406.079C254.582 406.09 254.652 406.091 254.721 406.085C255.152 406.042 255.465 405.665 255.419 405.243C255.396 405.033 254.804 400.096 250.699 399.152C247.829 398.493 246.236 400.846 246.169 400.948C245.934 401.304 246.04 401.781 246.405 402.015C246.768 402.248 247.255 402.149 247.492 401.796C247.542 401.724 248.576 400.246 250.349 400.654C253.355 401.345 253.848 405.36 253.852 405.4C253.892 405.751 254.173 406.025 254.516 406.079Z" fill="#F66A69"/>
<path d="M253.155 411.768C253.522 411.825 253.888 411.623 254.016 411.269C254.161 410.869 253.945 410.427 253.536 410.282C253.388 410.228 249.847 408.922 249.469 405.505C249.261 403.615 250.325 402.286 252.632 401.556C253.044 401.425 253.269 400.991 253.132 400.586C252.995 400.181 252.55 399.959 252.136 400.09C249.116 401.046 247.613 403.024 247.902 405.659C248.389 410.052 252.823 411.665 253.011 411.731C253.058 411.748 253.106 411.76 253.155 411.768Z" fill="#F66A69"/>
<path d="M324.232 392.761C325.709 392.584 326.642 390.23 326.315 387.503C325.989 384.776 324.526 382.709 323.049 382.886C321.572 383.063 320.64 385.417 320.967 388.144C321.293 390.871 322.755 392.938 324.232 392.761Z" fill="#282525"/>
<path d="M294.637 392.76C296.114 392.583 297.046 390.229 296.72 387.503C296.393 384.776 294.931 382.709 293.454 382.886C291.977 383.063 291.044 385.417 291.371 388.143C291.698 390.87 293.16 392.937 294.637 392.76Z" fill="#282525"/>
</svg>
