<svg width="749" height="581" viewBox="0 0 749 581" fill="none" xmlns="http://www.w3.org/2000/svg">
<g opacity="0.41">
<path d="M714.697 203.094C714.697 162.227 679.851 129.095 636.864 129.095H620.626C628.22 122.845 633.033 113.62 633.033 103.324C633.033 84.4993 616.981 69.2402 597.182 69.2402H543.145C548.611 64.7665 552.084 58.1552 552.084 50.7637C552.084 37.2941 540.598 26.3765 526.432 26.3765H390.744C376.578 26.3765 365.092 37.2941 365.092 50.7637C365.092 64.2332 376.578 75.1508 390.744 75.1508H441.55C451.009 81.2862 457.224 91.6132 457.224 103.324C457.224 113.625 452.41 122.845 444.816 129.095H361.253C318.266 129.095 283.419 162.227 283.419 203.094C283.419 243.961 318.266 277.093 361.253 277.093H250.561C230.762 277.093 214.709 292.352 214.709 311.177C214.709 330.002 230.762 345.261 250.561 345.261H205.458C156.181 345.261 115.274 379.226 107.155 423.87H91.363C60.6377 423.87 35.7305 447.552 35.7305 476.761V482.121C35.7305 511.33 60.6377 535.012 91.363 535.012H205.458H578.864H614.905C670.017 535.012 714.697 492.536 714.697 440.139C714.697 387.741 670.017 345.265 614.905 345.265H440.197C459.996 345.265 476.048 330.006 476.048 311.182C476.048 292.357 459.996 277.098 440.197 277.098H636.859C679.851 277.093 714.697 243.961 714.697 203.094ZM318.036 75.1508C330.907 75.1508 341.344 64.2332 341.344 50.7637C341.344 37.2941 330.911 26.3765 318.036 26.3765C305.166 26.3765 294.729 37.2941 294.729 50.7637C294.729 64.2332 305.162 75.1508 318.036 75.1508Z" fill="#ABE9FF"/>
</g>
<path opacity="0.15" d="M370.693 553.907C556.626 553.907 707.354 546.626 707.354 537.643C707.354 528.661 556.626 521.379 370.693 521.379C184.761 521.379 34.0332 528.661 34.0332 537.643C34.0332 546.626 184.761 553.907 370.693 553.907Z" fill="#231F20"/>
<path d="M300.216 180.448H469.327C475.422 180.448 480.363 175.507 480.363 169.412V77.5708C480.363 71.4751 475.422 66.5342 469.327 66.5342H300.216C294.121 66.5342 289.18 71.4751 289.18 77.5708V169.412C289.18 175.507 294.121 180.448 300.216 180.448Z" fill="#6CC0EF"/>
<path opacity="0.15" d="M289.814 73.7185C291.348 69.5578 295.689 66.5342 300.868 66.5342H468.678C475.135 66.5342 480.367 71.2018 480.367 76.9581V153.769C458.382 151.746 345.178 147.634 289.814 73.7185Z" fill="#126CD4"/>
<path d="M334.039 152.046H301.851V157.705H334.039V152.046Z" fill="#EBF2F7"/>
<path d="M378.592 152.046H346.403V157.705H378.592V152.046Z" fill="#EBF2F7"/>
<path d="M423.143 152.046H390.955V157.705H423.143V152.046Z" fill="#EBF2F7"/>
<path d="M467.695 152.046H435.507V157.705H467.695V152.046Z" fill="#EBF2F7"/>
<path d="M458.338 112.77H431.161C425.995 112.77 421.804 116.639 421.804 121.413V131.29C421.804 136.064 425.991 139.933 431.161 139.933H458.338C463.504 139.933 467.696 136.064 467.696 131.29V121.413C467.696 116.639 463.508 112.77 458.338 112.77Z" fill="#EBF2F7"/>
<path d="M588.813 421.082C590.205 417.722 588.61 413.87 585.25 412.478C581.89 411.087 578.038 412.682 576.646 416.042C575.254 419.402 576.85 423.254 580.21 424.646C583.57 426.037 587.422 424.442 588.813 421.082Z" fill="#E3BA5D"/>
<path d="M610.369 533.924H342.313C331.589 533.924 322.897 525.232 322.897 514.508V294.464C322.897 283.74 331.589 275.048 342.313 275.048H601.193C611.916 275.048 620.608 283.74 620.608 294.464V523.694C620.604 529.34 616.024 533.924 610.369 533.924Z" fill="#824316"/>
<path d="M346.914 322.218H620.608V294.459C620.608 283.736 611.916 275.044 601.193 275.044H342.313C331.589 275.044 322.897 283.736 322.897 294.459V298.197C322.893 311.464 333.648 322.218 346.914 322.218Z" fill="#481B08"/>
<path d="M623.997 322.218H610.726C613.49 324.303 615.288 327.6 615.288 331.329V524.813C615.288 528.542 613.494 531.843 610.726 533.923H623.997C634.038 533.923 642.179 525.782 642.179 515.742V340.404C642.179 330.359 634.038 322.218 623.997 322.218Z" fill="#461C0A"/>
<path d="M655.627 452.401H564.407C557.642 452.401 552.159 446.918 552.159 440.152V407.364C552.159 400.598 557.642 395.115 564.407 395.115H655.627C655.825 395.115 655.988 395.278 655.988 395.477V452.044C655.988 452.238 655.825 452.401 655.627 452.401Z" fill="#63250C"/>
<path d="M652.237 395.115H630.322C632.394 395.115 634.073 396.552 634.073 398.32V449.196C634.073 450.968 632.394 452.401 630.322 452.401H652.237C654.308 452.401 655.988 450.964 655.988 449.196V398.32C655.988 396.548 654.308 395.115 652.237 395.115Z" fill="#6E2D15"/>
<path d="M583.501 439.292C592.398 439.292 599.611 432.08 599.611 423.182C599.611 414.285 592.398 407.073 583.501 407.073C574.604 407.073 567.391 414.285 567.391 423.182C567.391 432.08 574.604 439.292 583.501 439.292Z" fill="#D49C46"/>
<path d="M598.817 306.113H344.684C341.704 306.113 339.289 303.697 339.289 300.718C339.289 297.738 341.704 295.323 344.684 295.323H598.817C601.796 295.323 604.211 297.738 604.211 300.718C604.211 303.697 601.796 306.113 598.817 306.113Z" fill="#824316"/>
<path d="M436.252 306.188C434.581 297.796 432.104 289.452 428.367 281.36C419.19 261.464 414.734 239.453 410.423 218.16C407.554 203.985 404.843 190.599 400.96 179.329L398.342 171.726L494.445 153.007L496.53 158.525C501.969 172.92 506.015 189.687 510.299 207.427C514.742 225.811 519.335 244.821 526.052 264.223C531.024 278.566 533.558 292.643 534.872 306.188H436.252Z" fill="#3D9D0F"/>
<path d="M443.401 306.188C441.642 296.879 438.927 287.561 434.718 278.429C419.741 245.962 417.414 205.593 407.572 177.045C435.044 171.695 462.517 166.344 489.989 160.997C500.708 189.36 505.962 227.592 519.454 266.515C524.113 279.958 526.537 293.295 527.824 306.188H443.401Z" fill="#89C80A"/>
<path d="M500.272 189.065C482.836 193.847 464.857 183.04 460.11 164.929C460.075 164.792 460.049 164.656 460.013 164.519L491.832 155.788L500.523 188.981C500.44 189.008 500.356 189.038 500.272 189.065ZM437.46 168.728C437.486 168.865 437.521 168.997 437.552 169.138C441.175 187.513 429.733 205.21 411.993 208.665C411.904 208.683 411.816 208.692 411.728 208.709L405.086 175.036L437.46 168.728ZM462.918 240.7C447.989 243.609 438.412 258.771 441.523 274.568C444.64 290.364 459.268 300.815 474.197 297.906C489.125 294.997 498.703 279.835 495.591 264.038C492.475 248.246 477.846 237.795 462.918 240.7ZM456.765 202.539C451.361 203.592 447.897 209.08 449.025 214.796C450.154 220.513 455.447 224.295 460.846 223.241C466.25 222.188 469.714 216.7 468.586 210.988C467.458 205.267 462.169 201.485 456.765 202.539Z" fill="#3D9D0F"/>
<path d="M472.143 265.77C474.06 268.67 474.999 269.525 476.418 269.248C477.961 268.948 478.666 267.661 478.282 265.717C477.846 263.509 476.427 261.495 475.457 260.481L481.659 257.801C481.963 258.141 482.267 258.551 482.566 259.018L484.559 257.942L486.855 262.509L484.59 263.73C484.673 264.051 484.748 264.382 484.814 264.717C486.07 271.077 482.619 276.005 477.004 277.098C473.434 277.847 469.639 276.459 466.492 271.557C464.729 268.789 463.834 268.146 462.292 268.446C460.749 268.745 459.96 269.935 460.436 272.355C460.903 274.718 462.737 277.525 464.077 278.795L457.628 281.523C457.029 280.893 456.456 280.108 455.936 279.205L453.847 280.333L451.55 275.767L454.071 274.405C454.01 274.149 453.952 273.889 453.9 273.629C452.449 266.273 455.839 261.684 461.454 260.587C465.901 259.78 469.203 261.266 472.143 265.77Z" fill="#89C80A"/>
<path d="M395.79 306.188C393.864 302.807 391.766 299.489 389.408 296.275C376.446 278.614 367.688 257.934 359.216 237.928C353.579 224.612 348.25 212.033 342.19 201.764L338.108 194.839L428.543 157.317L431.69 162.307C439.893 175.327 447.205 190.947 454.945 207.476C462.967 224.604 471.262 242.313 481.716 259.983C490.814 275.348 496.526 291.017 500.718 306.184H395.79V306.188Z" fill="#3D9D0F"/>
<path d="M403.795 306.188C401.269 301.388 398.382 296.686 395.045 292.137C373.889 263.316 363.553 224.22 348.215 198.211C374.065 187.488 399.92 176.76 425.771 166.036C441.933 191.688 454.715 228.104 475.7 263.549C484.013 277.587 489.425 292.08 493.44 306.188H403.795Z" fill="#89C80A"/>
<path d="M441.444 191.485C425.312 199.652 405.54 192.653 397.275 175.851C397.214 175.723 397.161 175.595 397.099 175.472L426.537 160.565L441.682 191.357C441.598 191.396 441.523 191.445 441.444 191.485ZM375.832 184.093C375.89 184.221 375.947 184.344 376.004 184.477C383.224 201.759 375.542 221.386 358.846 228.31C358.762 228.345 358.678 228.372 358.594 228.407L345.367 196.734L375.832 184.093ZM415.144 249.537C401.092 255.364 394.737 272.135 400.942 286.993C407.148 301.851 423.567 309.172 437.618 303.34C451.665 297.514 458.025 280.743 451.819 265.885C445.613 251.031 429.195 243.71 415.144 249.537ZM401.502 213.373C396.42 215.484 394.12 221.549 396.363 226.926C398.606 232.303 404.548 234.952 409.634 232.841C414.716 230.73 417.017 224.665 414.773 219.288C412.526 213.91 406.584 211.261 401.502 213.373Z" fill="#3D9D0F"/>
<path d="M429.191 272.263C431.651 274.722 432.739 275.374 434.075 274.819C435.525 274.215 435.961 272.818 435.199 270.989C434.33 268.913 432.536 267.22 431.386 266.423L436.926 262.557C437.292 262.83 437.671 263.17 438.059 263.567L439.796 262.116L442.956 266.132L440.981 267.78C441.127 268.08 441.268 268.388 441.4 268.701C443.899 274.682 441.501 280.201 436.217 282.391C432.867 283.837 428.869 283.233 424.81 279.064C422.531 276.706 421.522 276.252 420.072 276.855C418.622 277.459 418.084 278.782 419.032 281.056C419.962 283.277 422.32 285.666 423.884 286.636L418.11 290.598C417.401 290.1 416.678 289.448 415.986 288.663L414.161 290.188L410.997 286.173L413.192 284.335C413.081 284.097 412.971 283.855 412.87 283.608C409.978 276.688 412.385 271.513 417.67 269.323C421.879 267.639 425.414 268.437 429.191 272.263Z" fill="#89C80A"/>
<path d="M354.742 306.188C343.014 295.711 332.444 283.798 322.148 272.144C312.575 261.306 303.53 251.067 294.526 243.257L288.457 237.985L362.306 173.7L366.872 177.434C378.786 187.179 390.673 199.67 403.261 212.888C416.303 226.583 429.79 240.749 445.314 254.183C463.742 270.13 476.396 288.611 487.04 306.188H354.742Z" fill="#3D9D0F"/>
<path d="M365.515 306.188C340.078 285.472 319.826 255.959 299.11 237.972C320.222 219.597 341.335 201.221 362.447 182.846C385.917 202.041 409.595 232.52 440.743 259.472C457.139 273.66 468.943 290.219 478.834 306.188H365.515Z" fill="#89C80A"/>
<path d="M385.384 202.001C372.681 214.863 351.706 214.501 338.536 201.195C338.439 201.093 338.346 200.992 338.249 200.891L361.433 177.411L385.569 201.807C385.507 201.869 385.45 201.94 385.384 202.001ZM320.826 215.815C320.919 215.92 321.016 216.017 321.108 216.123C333.436 230.223 332.383 251.269 318.75 263.134C318.68 263.196 318.609 263.249 318.543 263.306L295.945 237.469L320.826 215.815ZM378.023 306.188C377.781 305.932 377.525 305.699 377.292 305.43C366.691 293.309 367.401 275.388 378.874 265.404C390.347 255.417 408.242 257.149 418.842 269.27C428.424 280.227 428.733 295.901 420.239 306.192H378.023V306.188ZM354.456 235.437C350.304 239.051 350.048 245.535 353.883 249.921C357.718 254.306 364.192 254.932 368.344 251.318C372.496 247.704 372.752 241.22 368.917 236.834C365.083 232.449 358.608 231.823 354.456 235.437Z" fill="#3D9D0F"/>
<path d="M399.404 282.493C402.516 284.044 403.755 284.317 404.848 283.365C406.033 282.334 406.002 280.866 404.698 279.376C403.217 277.684 400.978 276.648 399.633 276.256L403.662 270.835C404.094 270.98 404.566 271.178 405.055 271.434L406.24 269.508L410.516 272.311L409.167 274.502C409.401 274.74 409.63 274.986 409.859 275.242C414.126 280.121 413.606 286.111 409.291 289.871C406.575 292.304 402.591 293 397.416 290.334C394.507 288.817 393.406 288.712 392.22 289.743C391.034 290.774 390.946 292.202 392.568 294.058C394.155 295.87 397.148 297.386 398.942 297.813L394.723 303.402C393.89 303.155 393 302.763 392.097 302.239L390.849 304.262L386.574 301.458L388.077 299.021C387.896 298.831 387.715 298.633 387.539 298.435C382.603 292.789 383.242 287.121 387.557 283.365C391.003 280.43 394.604 280.06 399.404 282.493Z" fill="#89C80A"/>
<path d="M492.167 285.496C511.135 266.528 511.135 235.774 492.166 216.806C473.197 197.838 442.444 197.838 423.476 216.807C404.507 235.776 404.508 266.529 423.477 285.498C442.445 304.466 473.199 304.465 492.167 285.496Z" fill="#FDCE14"/>
<path d="M491.884 268.189C499.799 249.082 490.725 227.177 471.618 219.263C452.511 211.348 430.606 220.422 422.692 239.529C414.777 258.636 423.851 280.541 442.958 288.456C462.065 296.37 483.97 287.297 491.884 268.189Z" fill="#FFEB67"/>
<path d="M457.827 288.597C478.509 288.597 495.274 271.832 495.274 251.15C495.274 230.469 478.509 213.703 457.827 213.703C437.146 213.703 420.38 230.469 420.38 251.15C420.38 271.832 437.146 288.597 457.827 288.597Z" fill="#FFA500"/>
<path d="M457.827 218.609C477.683 218.609 493.921 234.067 495.186 253.601C495.239 252.79 495.274 251.975 495.274 251.146C495.274 230.466 478.508 213.699 457.827 213.699C437.147 213.699 420.38 230.466 420.38 251.146C420.38 251.97 420.416 252.786 420.469 253.601C421.738 234.067 437.975 218.609 457.827 218.609Z" fill="#EB860D"/>
<path d="M378.663 317.947C376.666 312.786 375.564 307.18 375.564 301.313C375.564 275.811 396.24 255.135 421.742 255.135C447.245 255.135 467.921 275.811 467.921 301.313C467.921 307.18 466.814 312.786 464.822 317.947H378.663Z" fill="#FDCE14"/>
<path d="M391.29 317.947C387.72 312.398 385.622 305.813 385.622 298.721C385.622 279.059 401.56 263.121 421.222 263.121C440.884 263.121 456.822 279.059 456.822 298.721C456.822 305.809 454.724 312.398 451.154 317.947H391.29Z" fill="#FFEB67"/>
<path d="M390.276 317.947C387.645 312.98 386.142 307.325 386.142 301.313C386.142 281.651 402.08 265.713 421.742 265.713C441.404 265.713 457.342 281.651 457.342 301.313C457.342 307.325 455.839 312.98 453.208 317.947H390.276Z" fill="#FFA500"/>
<path d="M390.276 317.947C387.645 312.98 386.142 307.325 386.142 301.313C386.142 300.528 386.177 299.753 386.226 298.981C386.684 306.073 389.232 312.588 393.238 317.947H390.276ZM450.242 317.947C454.248 312.588 456.796 306.073 457.254 298.981C457.303 299.753 457.338 300.528 457.338 301.313C457.338 307.325 455.835 312.98 453.204 317.947H450.242Z" fill="#F26D1F"/>
<path d="M424.77 310.344C422.774 305.183 421.672 299.576 421.672 293.71C421.672 268.208 442.348 247.532 467.85 247.532C493.352 247.532 514.028 268.208 514.028 293.71C514.028 299.576 512.922 305.183 510.93 310.344H424.77Z" fill="#FDCE14"/>
<path d="M437.399 310.344C433.828 304.795 431.73 298.21 431.73 291.118C431.73 271.456 447.668 255.518 467.331 255.518C486.993 255.518 502.931 271.456 502.931 291.118C502.931 298.205 500.833 304.795 497.262 310.344H437.399Z" fill="#FFEB67"/>
<path d="M436.384 310.344C433.753 305.377 432.25 299.722 432.25 293.71C432.25 274.048 448.188 258.11 467.85 258.11C487.512 258.11 503.45 274.048 503.45 293.71C503.45 299.722 501.947 305.377 499.316 310.344H436.384Z" fill="#FFA500"/>
<path d="M436.384 310.344C433.753 305.377 432.25 299.722 432.25 293.71C432.25 292.925 432.285 292.15 432.334 291.378C432.792 298.47 435.34 304.984 439.346 310.344H436.384ZM496.35 310.344C500.356 304.984 502.904 298.47 503.362 291.378C503.411 292.15 503.446 292.925 503.446 293.71C503.446 299.722 501.943 305.377 499.311 310.344H496.35Z" fill="#F26D1F"/>
<path d="M577 306.113H362.112V322.223H577V306.113Z" fill="#481B08"/>
<path d="M612.658 531.05C612.658 527.087 612.658 523.949 612.658 519.965C624.47 521.754 638.676 523.125 654.768 523.112C670.662 523.098 684.709 521.736 696.415 519.965C696.415 523.971 696.415 527.083 696.415 531.072C696.45 531.16 696.468 531.248 696.468 531.336C696.468 534.316 677.736 536.612 654.587 536.612C631.438 536.612 612.658 534.333 612.658 531.354C612.658 531.257 612.653 531.16 612.658 531.05Z" fill="#FFAF5D"/>
<path d="M612.658 530.018C612.658 526.056 612.658 522.918 612.658 518.933C624.47 520.723 638.676 522.094 654.768 522.08C670.662 522.067 684.709 520.705 696.415 518.933C696.415 522.94 696.415 526.052 696.415 530.04C696.45 530.129 696.468 530.217 696.468 530.305C696.468 533.284 677.736 535.581 654.587 535.581C631.438 535.581 612.658 533.302 612.658 530.323C612.658 530.226 612.653 530.129 612.658 530.018Z" fill="#EB8511"/>
<path d="M686.326 533.774V520.344C687.384 520.198 688.424 520.053 689.451 519.899V533.262C688.495 533.439 687.45 533.611 686.326 533.774ZM677.529 534.739V521.375C678.265 521.305 678.996 521.23 679.719 521.15V534.549C679.005 534.611 678.278 534.677 677.529 534.739ZM622.72 533.769C621.953 533.659 621.222 533.54 620.53 533.421V520.304H622.72V533.769ZM683.378 534.162V520.727C683.73 520.683 684.083 520.639 684.431 520.595V534.034C684.087 534.078 683.739 534.118 683.378 534.162Z" fill="#FFB017"/>
<path d="M612.574 518.951C612.574 515.972 631.438 513.675 654.587 513.675C677.736 513.675 696.503 516.091 696.503 519.07C696.503 522.05 677.736 524.465 654.587 524.465C631.438 524.469 612.574 521.931 612.574 518.951Z" fill="#FDCE14"/>
<path d="M617.809 518.554C617.809 516.456 634.311 514.755 654.67 514.755C675.028 514.755 691.53 516.456 691.53 518.554C691.53 520.652 675.028 522.354 654.67 522.354C634.311 522.354 617.809 520.652 617.809 518.554Z" fill="#FE920C"/>
<path d="M643.016 518.625C643.175 518.074 645.696 517.854 647.975 517.761C648.094 517.303 648.089 517.003 648.42 516.58C644.021 516.65 639.561 517.281 637.851 518.087L634.325 518.083L633.54 518.969L637.194 518.973C637.727 519.749 641.496 520.163 647.164 520.163C652.065 520.163 656.019 519.877 658.756 518.519C660.475 517.669 661.868 517.413 664.86 517.356C667.553 517.307 669.122 517.51 668.933 518.118C668.739 518.726 666.98 519.119 663.265 519.251C663.075 519.692 662.956 519.912 662.568 520.348C667.712 520.269 671.93 519.828 673.825 519L677.431 519.004L678.215 518.118L674.874 518.114C675.284 516.686 671.128 516.399 664.442 516.434C659.245 516.461 654.917 516.827 651.999 518.211C650.381 518.978 649.302 519.172 646.754 519.194C644.162 519.216 642.911 519.004 643.016 518.625Z" fill="#FEB05B"/>
<path d="M620.384 518.695C620.384 514.733 620.384 511.595 620.384 507.61C632.196 509.4 646.402 510.77 662.494 510.757C678.388 510.744 692.435 509.382 704.141 507.61C704.141 511.617 704.141 514.728 704.141 518.717C704.176 518.805 704.194 518.894 704.194 518.982C704.194 521.961 685.462 524.258 662.313 524.258C639.165 524.258 620.384 521.979 620.384 518.999C620.384 518.902 620.379 518.805 620.384 518.695Z" fill="#FFAF5D"/>
<path d="M620.384 517.664C620.384 513.702 620.384 510.564 620.384 506.579C632.196 508.369 646.402 509.739 662.494 509.726C678.388 509.713 692.435 508.351 704.141 506.579C704.141 510.586 704.141 513.697 704.141 517.686C704.176 517.774 704.194 517.862 704.194 517.951C704.194 520.93 685.462 523.227 662.313 523.227C639.165 523.227 620.384 520.948 620.384 517.968C620.384 517.876 620.379 517.779 620.384 517.664Z" fill="#EB8511"/>
<path d="M694.052 521.424V507.994C695.11 507.848 696.15 507.703 697.177 507.549V520.912C696.221 521.084 695.176 521.261 694.052 521.424ZM685.255 522.385V509.021C685.991 508.95 686.722 508.875 687.445 508.796V522.195C686.731 522.261 686 522.323 685.255 522.385ZM630.446 521.419C629.679 521.309 628.948 521.19 628.256 521.071V507.954H630.446V521.419ZM691.104 521.807V508.373C691.456 508.329 691.809 508.285 692.157 508.241V521.679C691.813 521.723 691.461 521.767 691.104 521.807Z" fill="#FFB017"/>
<path d="M620.3 506.601C620.3 503.622 639.164 501.325 662.313 501.325C685.462 501.325 704.229 503.741 704.229 506.72C704.229 509.7 685.462 512.115 662.313 512.115C639.164 512.115 620.3 509.581 620.3 506.601Z" fill="#FFAF5D"/>
<path d="M625.537 506.2C625.537 504.102 642.039 502.4 662.397 502.4C682.756 502.4 699.258 504.102 699.258 506.2C699.258 508.298 682.756 509.999 662.397 509.999C642.039 509.999 625.537 508.298 625.537 506.2Z" fill="#FE920C"/>
<path d="M650.743 506.275C650.902 505.724 653.423 505.504 655.701 505.411C655.82 504.953 655.816 504.653 656.147 504.23C651.748 504.3 647.287 504.931 645.577 505.737L642.051 505.733L641.267 506.619L644.92 506.623C645.454 507.399 649.222 507.813 654.89 507.813C659.792 507.813 663.745 507.527 666.482 506.169C668.201 505.318 669.594 505.063 672.587 505.005C675.28 504.957 676.849 505.16 676.659 505.768C676.466 506.376 674.707 506.769 670.991 506.901C670.802 507.342 670.683 507.562 670.295 507.998C675.439 507.919 679.657 507.478 681.552 506.65L685.157 506.654L685.942 505.768L682.601 505.764C683.011 504.336 678.854 504.049 672.168 504.084C666.972 504.111 662.643 504.477 659.73 505.861C658.112 506.628 657.033 506.821 654.485 506.843C651.884 506.861 650.633 506.65 650.743 506.275Z" fill="#FEB05B"/>
<path d="M610.599 506.341C610.599 502.379 610.599 499.24 610.599 495.256C622.411 497.045 636.617 498.416 652.709 498.403C668.602 498.39 682.649 497.028 694.356 495.256C694.356 499.262 694.356 502.374 694.356 506.363C694.391 506.451 694.409 506.539 694.409 506.627C694.409 509.607 675.677 511.903 652.528 511.903C629.379 511.903 610.599 509.625 610.599 506.645C610.599 506.548 610.594 506.456 610.599 506.341Z" fill="#FFAF5D"/>
<path d="M610.599 505.314C610.599 501.351 610.599 498.213 610.599 494.229C622.411 496.018 636.617 497.389 652.709 497.376C668.602 497.363 682.649 496.001 694.356 494.229C694.356 498.235 694.356 501.347 694.356 505.336C694.391 505.424 694.409 505.512 694.409 505.6C694.409 508.58 675.677 510.876 652.528 510.876C629.379 510.876 610.599 508.597 610.599 505.618C610.599 505.521 610.594 505.424 610.599 505.314Z" fill="#EB8511"/>
<path d="M684.267 509.069V495.64C685.325 495.494 686.365 495.349 687.392 495.194V508.558C686.436 508.734 685.391 508.906 684.267 509.069ZM675.47 510.03V496.667C676.206 496.596 676.937 496.521 677.66 496.442V509.841C676.946 509.907 676.215 509.969 675.47 510.03ZM620.661 509.065C619.894 508.955 619.163 508.836 618.471 508.717V495.6H620.661V509.065ZM681.319 509.453V496.019C681.671 495.974 682.024 495.93 682.372 495.886V509.325C682.028 509.369 681.676 509.413 681.319 509.453Z" fill="#FFB017"/>
<path d="M610.515 494.247C610.515 491.267 629.38 488.971 652.528 488.971C675.677 488.971 694.444 491.386 694.444 494.366C694.444 497.345 675.677 499.761 652.528 499.761C629.38 499.761 610.515 497.226 610.515 494.247Z" fill="#FFAF5D"/>
<path d="M615.751 493.845C615.751 491.747 632.253 490.046 652.612 490.046C672.971 490.046 689.473 491.747 689.473 493.845C689.473 495.943 672.971 497.645 652.612 497.645C632.253 497.645 615.751 495.948 615.751 493.845Z" fill="#FE920C"/>
<path d="M640.958 493.92C641.117 493.369 643.638 493.149 645.917 493.057C646.036 492.598 646.031 492.298 646.362 491.875C641.963 491.946 637.503 492.576 635.793 493.383L632.266 493.378L631.482 494.264L635.136 494.269C635.669 495.044 639.438 495.459 645.106 495.459C650.007 495.459 653.961 495.172 656.698 493.815C658.417 492.964 659.81 492.708 662.802 492.651C665.495 492.603 667.064 492.805 666.875 493.414C666.681 494.022 664.922 494.414 661.207 494.546C661.017 494.987 660.898 495.207 660.51 495.644C665.654 495.564 669.872 495.124 671.767 494.295L675.373 494.299L676.157 493.414L672.816 493.409C673.226 491.981 669.07 491.695 662.384 491.73C657.187 491.756 652.859 492.122 649.945 493.506C648.328 494.273 647.248 494.467 644.7 494.489C642.104 494.511 640.852 494.295 640.958 493.92Z" fill="#FEB05B"/>
<path d="M534.903 531.05C534.903 527.087 534.903 523.949 534.903 519.965C546.715 521.754 560.921 523.125 577.013 523.112C592.906 523.098 606.953 521.736 618.66 519.965C618.66 523.971 618.66 527.083 618.66 531.072C618.695 531.16 618.713 531.248 618.713 531.336C618.713 534.316 599.981 536.612 576.832 536.612C553.683 536.612 534.903 534.333 534.903 531.354C534.898 531.257 534.894 531.16 534.903 531.05Z" fill="#FFAF5D"/>
<path d="M534.903 530.019C534.903 526.056 534.903 522.918 534.903 518.934C546.715 520.723 560.921 522.094 577.013 522.081C592.906 522.067 606.953 520.705 618.66 518.934C618.66 522.94 618.66 526.052 618.66 530.041C618.695 530.129 618.713 530.217 618.713 530.305C618.713 533.285 599.981 535.581 576.832 535.581C553.683 535.581 534.903 533.302 534.903 530.323C534.898 530.226 534.894 530.129 534.903 530.019Z" fill="#EB8511"/>
<path d="M608.567 533.774V520.344C609.625 520.199 610.665 520.053 611.692 519.899V533.263C610.735 533.439 609.691 533.611 608.567 533.774ZM599.774 534.739V521.375C600.51 521.305 601.242 521.23 601.964 521.151V534.55C601.25 534.611 600.519 534.678 599.774 534.739ZM544.966 533.77C544.199 533.659 543.467 533.54 542.775 533.421V520.304H544.966V533.77ZM605.623 534.162V520.728C605.975 520.683 606.328 520.639 606.676 520.595V534.034C606.328 534.078 605.98 534.118 605.623 534.162Z" fill="#FFB017"/>
<path d="M534.819 518.951C534.819 515.972 553.684 513.675 576.832 513.675C599.981 513.675 618.749 516.091 618.749 519.07C618.749 522.05 599.981 524.465 576.832 524.465C553.684 524.469 534.819 521.931 534.819 518.951Z" fill="#FDCE14"/>
<path d="M540.051 518.554C540.051 516.456 556.553 514.755 576.912 514.755C597.271 514.755 613.773 516.456 613.773 518.554C613.773 520.652 597.271 522.354 576.912 522.354C556.558 522.354 540.051 520.652 540.051 518.554Z" fill="#FE920C"/>
<path d="M565.263 518.625C565.422 518.074 567.943 517.854 570.221 517.761C570.34 517.303 570.336 517.003 570.667 516.58C566.268 516.65 561.807 517.281 560.097 518.087L556.571 518.083L555.787 518.969L559.441 518.973C559.974 519.749 563.742 520.163 569.41 520.163C574.312 520.163 578.265 519.877 581.002 518.519C582.721 517.669 584.114 517.413 587.107 517.356C589.8 517.307 591.369 517.51 591.18 518.118C590.986 518.726 589.227 519.119 585.511 519.251C585.322 519.692 585.203 519.912 584.815 520.348C589.959 520.269 594.177 519.828 596.072 519L599.677 519.004L600.462 518.118L597.121 518.114C597.531 516.686 593.375 516.399 586.688 516.434C581.492 516.461 577.163 516.827 574.246 518.211C572.628 518.978 571.548 519.172 569.001 519.194C566.404 519.216 565.153 519.004 565.263 518.625Z" fill="#FEB05B"/>
<path d="M542.625 518.695C542.625 514.733 542.625 511.595 542.625 507.61C554.438 509.4 568.643 510.77 584.736 510.757C600.629 510.744 614.676 509.382 626.383 507.61C626.383 511.617 626.383 514.728 626.383 518.717C626.418 518.805 626.436 518.894 626.436 518.982C626.436 521.961 607.704 524.258 584.555 524.258C561.406 524.258 542.625 521.979 542.625 518.999C542.625 518.902 542.621 518.805 542.625 518.695Z" fill="#FFAF5D"/>
<path d="M542.625 517.664C542.625 513.702 542.625 510.564 542.625 506.579C554.438 508.369 568.643 509.739 584.736 509.726C600.629 509.713 614.676 508.351 626.383 506.579C626.383 510.586 626.383 513.697 626.383 517.686C626.418 517.774 626.436 517.862 626.436 517.951C626.436 520.93 607.704 523.227 584.555 523.227C561.406 523.227 542.625 520.948 542.625 517.968C542.625 517.876 542.621 517.779 542.625 517.664Z" fill="#EB8511"/>
<path d="M616.294 521.424V507.994C617.352 507.848 618.392 507.703 619.419 507.549V520.912C618.463 521.084 617.418 521.261 616.294 521.424ZM607.497 522.385V509.021C608.233 508.95 608.964 508.875 609.687 508.796V522.195C608.973 522.261 608.246 522.323 607.497 522.385ZM552.688 521.419C551.921 521.309 551.19 521.19 550.498 521.071V507.954H552.688V521.419ZM613.35 521.807V508.373C613.702 508.329 614.055 508.285 614.403 508.241V521.679C614.055 521.723 613.707 521.767 613.35 521.807Z" fill="#FFB017"/>
<path d="M542.541 506.601C542.541 503.622 561.405 501.325 584.554 501.325C607.703 501.325 626.47 503.741 626.47 506.72C626.47 509.7 607.703 512.115 584.554 512.115C561.405 512.115 542.541 509.581 542.541 506.601Z" fill="#FFAF5D"/>
<path d="M547.778 506.2C547.778 504.102 564.28 502.4 584.638 502.4C604.997 502.4 621.499 504.102 621.499 506.2C621.499 508.298 604.997 509.999 584.638 509.999C564.284 509.999 547.778 508.298 547.778 506.2Z" fill="#FE920C"/>
<path d="M572.985 506.275C573.143 505.724 575.664 505.504 577.943 505.411C578.062 504.953 578.058 504.653 578.388 504.23C573.99 504.3 569.529 504.931 567.819 505.737L564.293 505.733L563.508 506.619L567.162 506.623C567.696 507.399 571.464 507.813 577.132 507.813C582.033 507.813 585.987 507.527 588.724 506.169C590.443 505.318 591.836 505.063 594.829 505.005C597.522 504.957 599.091 505.16 598.901 505.768C598.707 506.376 596.949 506.769 593.233 506.901C593.044 507.342 592.925 507.562 592.537 507.998C597.68 507.919 601.898 507.478 603.794 506.65L607.399 506.654L608.184 505.768L604.843 505.764C605.253 504.336 601.096 504.049 594.41 504.084C589.213 504.111 584.885 504.477 581.972 505.861C580.354 506.628 579.274 506.821 576.727 506.843C574.131 506.861 572.879 506.65 572.985 506.275Z" fill="#FEB05B"/>
<path d="M532.845 506.341C532.845 502.379 532.845 499.24 532.845 495.256C544.657 497.045 558.863 498.416 574.955 498.403C590.849 498.39 604.896 497.028 616.602 495.256C616.602 499.262 616.602 502.374 616.602 506.363C616.638 506.451 616.655 506.539 616.655 506.627C616.655 509.607 597.923 511.903 574.774 511.903C551.626 511.903 532.845 509.625 532.845 506.645C532.841 506.548 532.836 506.456 532.845 506.341Z" fill="#FFAF5D"/>
<path d="M532.845 505.314C532.845 501.351 532.845 498.213 532.845 494.229C544.657 496.018 558.863 497.389 574.955 497.376C590.849 497.363 604.896 496.001 616.602 494.229C616.602 498.235 616.602 501.347 616.602 505.336C616.638 505.424 616.655 505.512 616.655 505.6C616.655 508.58 597.923 510.876 574.774 510.876C551.626 510.876 532.845 508.597 532.845 505.618C532.841 505.521 532.836 505.424 532.845 505.314Z" fill="#EB8511"/>
<path d="M606.509 509.069V495.64C607.567 495.494 608.607 495.349 609.634 495.194V508.558C608.677 508.734 607.633 508.906 606.509 509.069ZM597.711 510.03V496.667C598.447 496.596 599.179 496.521 599.902 496.442V509.841C599.192 509.907 598.461 509.969 597.711 510.03ZM542.907 509.065C542.14 508.955 541.409 508.836 540.717 508.717V495.6H542.907V509.065ZM603.565 509.453V496.019C603.917 495.974 604.27 495.93 604.618 495.886V509.325C604.27 509.369 603.922 509.413 603.565 509.453Z" fill="#FFB017"/>
<path d="M532.757 494.247C532.757 491.267 551.621 488.971 574.77 488.971C597.919 488.971 616.686 491.386 616.686 494.366C616.686 497.345 597.919 499.761 574.77 499.761C551.621 499.761 532.757 497.226 532.757 494.247Z" fill="#FFAF5D"/>
<path d="M537.993 493.845C537.993 491.747 554.495 490.046 574.854 490.046C595.212 490.046 611.714 491.747 611.714 493.845C611.714 495.943 595.212 497.645 574.854 497.645C554.495 497.645 537.993 495.948 537.993 493.845Z" fill="#FE920C"/>
<path d="M563.204 493.92C563.363 493.369 565.884 493.149 568.163 493.057C568.282 492.598 568.277 492.298 568.608 491.875C564.209 491.946 559.749 492.576 558.039 493.383L554.513 493.378L553.728 494.264L557.382 494.269C557.915 495.044 561.684 495.459 567.352 495.459C572.253 495.459 576.207 495.172 578.944 493.815C580.663 492.964 582.056 492.708 585.048 492.651C587.741 492.603 589.31 492.805 589.121 493.414C588.927 494.022 587.168 494.414 583.453 494.546C583.263 494.987 583.144 495.207 582.756 495.644C587.9 495.564 592.118 495.124 594.013 494.295L597.619 494.299L598.403 493.414L595.062 493.409C595.472 491.981 591.316 491.695 584.63 491.73C579.433 491.756 575.105 492.122 572.191 493.506C570.574 494.273 569.494 494.467 566.946 494.489C564.346 494.511 563.094 494.295 563.204 493.92Z" fill="#FEB05B"/>
<path d="M521.253 493.991C521.253 490.029 521.253 486.891 521.253 482.906C533.065 484.696 547.271 486.066 563.363 486.053C579.257 486.04 593.304 484.678 605.01 482.906C605.01 486.913 605.01 490.025 605.01 494.013C605.046 494.102 605.063 494.19 605.063 494.278C605.063 497.257 586.331 499.554 563.182 499.554C540.034 499.554 521.253 497.275 521.253 494.295C521.253 494.199 521.249 494.102 521.253 493.991Z" fill="#FFAF5D"/>
<path d="M521.253 492.959C521.253 488.997 521.253 485.859 521.253 481.874C533.065 483.664 547.271 485.035 563.363 485.021C579.257 485.008 593.304 483.646 605.01 481.874C605.01 485.881 605.01 488.993 605.01 492.981C605.046 493.07 605.063 493.158 605.063 493.246C605.063 496.225 586.331 498.522 563.182 498.522C540.034 498.522 521.253 496.243 521.253 493.263C521.253 493.166 521.249 493.07 521.253 492.959Z" fill="#EB8511"/>
<path d="M594.921 496.715V483.285C595.979 483.14 597.019 482.994 598.046 482.84V496.204C597.09 496.38 596.045 496.552 594.921 496.715ZM586.124 497.676V484.312C586.86 484.241 587.592 484.167 588.315 484.087V497.486C587.6 497.552 586.873 497.618 586.124 497.676ZM531.316 496.711C530.549 496.6 529.817 496.481 529.125 496.362V483.245H531.316V496.711ZM591.973 497.103V483.668C592.325 483.624 592.678 483.58 593.026 483.536V496.975C592.682 497.015 592.334 497.059 591.973 497.103Z" fill="#FFB017"/>
<path d="M521.168 481.892C521.168 478.913 540.033 476.616 563.182 476.616C586.33 476.616 605.098 479.032 605.098 482.011C605.098 484.991 586.33 487.406 563.182 487.406C540.033 487.41 521.168 484.872 521.168 481.892Z" fill="#FDCE14"/>
<path d="M526.405 481.495C526.405 479.397 542.907 477.696 563.266 477.696C583.625 477.696 600.127 479.397 600.127 481.495C600.127 483.593 583.625 485.295 563.266 485.295C542.912 485.295 526.405 483.593 526.405 481.495Z" fill="#FE920C"/>
<path d="M551.613 481.566C551.771 481.015 554.292 480.795 556.571 480.702C556.69 480.244 556.686 479.944 557.016 479.521C552.617 479.591 548.157 480.222 546.447 481.028L542.921 481.024L542.136 481.91L545.79 481.914C546.323 482.69 550.092 483.104 555.76 483.104C560.661 483.104 564.615 482.818 567.352 481.46C569.071 480.609 570.464 480.354 573.457 480.297C576.15 480.248 577.719 480.451 577.529 481.059C577.335 481.667 575.577 482.06 571.861 482.192C571.671 482.632 571.552 482.853 571.165 483.289C576.308 483.21 580.526 482.769 582.422 481.941L586.027 481.945L586.812 481.059L583.471 481.055C583.88 479.627 579.724 479.34 573.038 479.375C567.841 479.402 563.513 479.768 560.6 481.152C558.982 481.918 557.902 482.112 555.355 482.134C552.759 482.156 551.507 481.945 551.613 481.566Z" fill="#FEB05B"/>
<path d="M532.845 481.637C532.845 477.674 532.845 474.536 532.845 470.552C544.657 472.341 558.863 473.712 574.955 473.699C590.849 473.685 604.896 472.323 616.602 470.552C616.602 474.558 616.602 477.67 616.602 481.659C616.638 481.747 616.655 481.835 616.655 481.923C616.655 484.903 597.923 487.199 574.774 487.199C551.626 487.199 532.845 484.92 532.845 481.941C532.841 481.844 532.836 481.747 532.845 481.637Z" fill="#FFAF5D"/>
<path d="M532.845 480.605C532.845 476.642 532.845 473.504 532.845 469.52C544.657 471.309 558.863 472.68 574.955 472.667C590.849 472.654 604.896 471.292 616.602 469.52C616.602 473.526 616.602 476.638 616.602 480.627C616.638 480.715 616.655 480.803 616.655 480.891C616.655 483.871 597.923 486.167 574.774 486.167C551.626 486.167 532.845 483.889 532.845 480.909C532.841 480.812 532.836 480.719 532.845 480.605Z" fill="#EB8511"/>
<path d="M606.509 484.36V470.931C607.567 470.785 608.607 470.64 609.634 470.485V483.849C608.677 484.025 607.633 484.197 606.509 484.36ZM597.711 485.326V471.962C598.447 471.891 599.179 471.816 599.902 471.737V485.136C599.192 485.202 598.461 485.264 597.711 485.326ZM542.907 484.36C542.14 484.25 541.409 484.131 540.717 484.012V470.895H542.907V484.36ZM603.565 484.748V471.314C603.917 471.27 604.27 471.226 604.618 471.182V484.62C604.27 484.665 603.922 484.704 603.565 484.748Z" fill="#FFB017"/>
<path d="M532.757 469.542C532.757 466.563 551.621 464.266 574.77 464.266C597.919 464.266 616.686 466.682 616.686 469.661C616.686 472.641 597.919 475.056 574.77 475.056C551.621 475.056 532.757 472.522 532.757 469.542Z" fill="#FDCE14"/>
<path d="M537.993 469.141C537.993 467.043 554.495 465.342 574.854 465.342C595.212 465.342 611.714 467.043 611.714 469.141C611.714 471.239 595.212 472.94 574.854 472.94C554.495 472.94 537.993 471.239 537.993 469.141Z" fill="#FE920C"/>
<path d="M563.204 469.216C563.363 468.665 565.884 468.444 568.163 468.352C568.282 467.894 568.277 467.594 568.608 467.171C564.209 467.241 559.749 467.871 558.039 468.678L554.513 468.674L553.728 469.56L557.382 469.564C557.915 470.34 561.684 470.754 567.352 470.754C572.253 470.754 576.207 470.468 578.944 469.11C580.663 468.259 582.056 468.004 585.048 467.946C587.741 467.898 589.31 468.101 589.121 468.709C588.927 469.317 587.168 469.709 583.453 469.842C583.263 470.282 583.144 470.503 582.756 470.939C587.9 470.86 592.118 470.419 594.013 469.59L597.619 469.595L598.403 468.709L595.062 468.704C595.472 467.276 591.316 466.99 584.63 467.025C579.433 467.052 575.105 467.417 572.191 468.801C570.574 469.568 569.494 469.762 566.946 469.784C564.346 469.802 563.094 469.59 563.204 469.216Z" fill="#FEB05B"/>
<path d="M536.962 469.282C536.962 465.32 536.962 462.181 536.962 458.197C548.774 459.987 562.98 461.357 579.072 461.344C594.966 461.331 609.013 459.969 620.719 458.197C620.719 462.204 620.719 465.315 620.719 469.304C620.754 469.392 620.772 469.48 620.772 469.569C620.772 472.548 602.04 474.844 578.891 474.844C555.743 474.844 536.962 472.566 536.962 469.586C536.957 469.489 536.957 469.392 536.962 469.282Z" fill="#FFAF5D"/>
<path d="M536.962 468.255C536.962 464.293 536.962 461.154 536.962 457.17C548.774 458.959 562.98 460.33 579.072 460.317C594.966 460.304 609.013 458.942 620.719 457.17C620.719 461.176 620.719 464.288 620.719 468.277C620.754 468.365 620.772 468.453 620.772 468.541C620.772 471.521 602.04 473.817 578.891 473.817C555.743 473.817 536.962 471.539 536.962 468.559C536.957 468.462 536.957 468.365 536.962 468.255Z" fill="#EB8511"/>
<path d="M610.626 472.01V458.58C611.683 458.435 612.724 458.29 613.751 458.135V471.499C612.794 471.675 611.749 471.847 610.626 472.01ZM601.832 472.971V459.607C602.568 459.537 603.3 459.462 604.023 459.383V472.782C603.309 472.848 602.577 472.909 601.832 472.971ZM547.024 472.006C546.257 471.896 545.525 471.777 544.833 471.658V458.541H547.024V472.006ZM607.681 472.394V458.959C608.034 458.915 608.386 458.871 608.735 458.827V472.266C608.391 472.31 608.038 472.354 607.681 472.394Z" fill="#FFB017"/>
<path d="M536.877 457.187C536.877 454.208 555.741 451.912 578.89 451.912C602.039 451.912 620.806 454.327 620.806 457.307C620.806 460.286 602.039 462.701 578.89 462.701C555.741 462.701 536.877 460.167 536.877 457.187Z" fill="#FDCE14"/>
<path d="M542.114 456.787C542.114 454.689 558.616 452.987 578.974 452.987C599.333 452.987 615.835 454.689 615.835 456.787C615.835 458.885 599.333 460.586 578.974 460.586C558.616 460.586 542.114 458.885 542.114 456.787Z" fill="#FE920C"/>
<path d="M567.322 456.861C567.48 456.31 570.001 456.09 572.28 455.997C572.399 455.539 572.395 455.239 572.725 454.816C568.326 454.887 563.866 455.517 562.156 456.324L558.63 456.319L557.845 457.205L561.499 457.21C562.032 457.985 565.801 458.4 571.469 458.4C576.37 458.4 580.324 458.113 583.061 456.756C584.78 455.905 586.173 455.649 589.165 455.592C591.859 455.543 593.428 455.746 593.238 456.354C593.044 456.963 591.286 457.355 587.57 457.487C587.38 457.928 587.261 458.148 586.874 458.585C592.017 458.505 596.235 458.065 598.131 457.236L601.736 457.24L602.521 456.354L599.18 456.35C599.589 454.922 595.433 454.635 588.747 454.671C583.55 454.697 579.222 455.063 576.304 456.447C574.687 457.214 573.607 457.408 571.059 457.43C568.463 457.452 567.211 457.236 567.322 456.861Z" fill="#FEB05B"/>
<path d="M643.056 495.322C665.329 495.322 683.385 477.266 683.385 454.993C683.385 432.719 665.329 414.663 643.056 414.663C620.783 414.663 602.727 432.719 602.727 454.993C602.727 477.266 620.783 495.322 643.056 495.322Z" fill="#FDCE14"/>
<path d="M672.532 465.544C677.115 448.995 667.416 431.865 650.867 427.282C634.319 422.699 617.189 432.399 612.606 448.947C608.023 465.495 617.723 482.625 634.271 487.208C650.819 491.791 667.949 482.092 672.532 465.544Z" fill="#FFEB67"/>
<path d="M673.528 461.232C676.981 444.412 666.145 427.977 649.324 424.524C632.504 421.071 616.069 431.907 612.616 448.728C609.163 465.548 619.999 481.983 636.82 485.436C653.64 488.889 670.075 478.053 673.528 461.232Z" fill="#FFA500"/>
<path d="M643.056 427.978C659.541 427.978 673.024 440.813 674.073 457.033C674.117 456.359 674.148 455.68 674.148 454.997C674.148 437.825 660.228 423.906 643.056 423.906C625.885 423.906 611.965 437.825 611.965 454.997C611.965 455.68 611.996 456.359 612.04 457.033C613.089 440.809 626.568 427.978 643.056 427.978Z" fill="#EB860D"/>
<path d="M87.6954 537.357L298.85 537.159C309.825 537.15 318.715 528.569 318.701 517.99L318.309 121.343C318.3 110.487 309.159 101.698 297.893 101.707L87.7879 101.901C76.5221 101.91 67.3984 110.721 67.4116 121.576L67.8039 518.228C67.8171 528.802 76.7205 537.371 87.6954 537.357Z" fill="#2BC6FF"/>
<path d="M93.1782 533.47L296.782 533.28C307.391 533.271 315.982 524.928 315.973 514.641L315.589 128.06C315.581 117.504 306.743 108.958 295.852 108.966L93.262 109.156C82.3708 109.165 73.5556 117.733 73.5645 128.285L73.9479 514.865C73.9611 525.148 82.5692 533.479 93.1782 533.47Z" fill="#0046A4"/>
<path d="M296.462 149.943H91.835V485.096H296.462V149.943Z" fill="#C0DDEE"/>
<path d="M296.351 149.939H91.7241V253.411H296.351V149.939Z" fill="url(#paint0_linear_5137_1418)"/>
<path d="M233.952 129.871H152.306V135.654H233.952V129.871Z" fill="white"/>
<path d="M172.449 521.067L220.699 521.023C222.713 521.023 224.348 519.436 224.344 517.479L224.339 511.524C224.339 509.572 222.7 507.985 220.685 507.989L172.44 508.033C170.426 508.038 168.791 509.62 168.795 511.577L168.799 517.536C168.795 519.484 170.43 521.067 172.449 521.067Z" fill="white"/>
<path d="M279.497 363.147H108.804C105.278 363.147 102.422 360.291 102.422 356.765V291.162C102.422 287.636 105.278 284.78 108.804 284.78H279.501C283.027 284.78 285.883 287.636 285.883 291.162V356.765C285.883 360.291 283.023 363.147 279.497 363.147Z" fill="white"/>
<path d="M159.254 342.539C169.514 332.279 169.514 315.643 159.253 305.383C148.993 295.123 132.357 295.123 122.097 305.384C111.837 315.644 111.837 332.28 122.098 342.54C132.358 352.8 148.994 352.8 159.254 342.539Z" fill="#FDCE14"/>
<path d="M159.166 333.038C163.37 322.673 158.376 310.862 148.011 306.657C137.646 302.453 125.835 307.447 121.63 317.812C117.426 328.177 122.42 339.988 132.785 344.193C143.15 348.397 154.961 343.403 159.166 333.038Z" fill="#FFEB67"/>
<path d="M160.583 327.827C162.721 316.848 155.555 306.214 144.576 304.076C133.597 301.937 122.963 309.104 120.824 320.083C118.686 331.062 125.852 341.696 136.831 343.834C147.81 345.973 158.444 338.806 160.583 327.827Z" fill="#FFA500"/>
<path d="M140.68 306.364C151.421 306.364 160.201 314.725 160.884 325.29C160.91 324.85 160.932 324.409 160.932 323.964C160.932 312.777 151.866 303.711 140.68 303.711C129.493 303.711 120.427 312.777 120.427 323.964C120.427 324.409 120.444 324.85 120.475 325.29C121.158 314.721 129.943 306.364 140.68 306.364Z" fill="#EB860D"/>
<path d="M270.377 309.119H185.355C183.398 309.119 181.802 307.519 181.802 305.566C181.802 303.609 183.402 302.014 185.355 302.014H270.377C272.33 302.014 273.93 303.614 273.93 305.566C273.93 307.519 272.334 309.119 270.377 309.119ZM270.377 327.516H185.355C183.398 327.516 181.802 325.916 181.802 323.964C181.802 322.007 183.402 320.411 185.355 320.411H270.377C272.33 320.411 273.93 322.011 273.93 323.964C273.93 325.916 272.334 327.516 270.377 327.516ZM270.377 345.913H185.355C183.398 345.913 181.802 344.313 181.802 342.361C181.802 340.408 183.402 338.808 185.355 338.808H270.377C272.33 338.808 273.93 340.408 273.93 342.361C273.93 344.313 272.334 345.913 270.377 345.913Z" fill="#9AD4FC"/>
<path d="M279.497 462.252H108.804C105.278 462.252 102.422 459.396 102.422 455.869V390.267C102.422 386.741 105.278 383.885 108.804 383.885H279.501C283.027 383.885 285.883 386.741 285.883 390.267V455.869C285.883 459.396 283.023 462.252 279.497 462.252Z" fill="white"/>
<path d="M159.252 441.644C169.513 431.384 169.512 414.748 159.252 404.488C148.991 394.227 132.355 394.228 122.095 404.488C111.835 414.749 111.835 431.385 122.096 441.645C132.356 451.905 148.992 451.905 159.252 441.644Z" fill="#FDCE14"/>
<path d="M159.171 432.144C163.375 421.779 158.381 409.968 148.016 405.764C137.651 401.56 125.84 406.554 121.635 416.919C117.431 427.284 122.425 439.095 132.79 443.299C143.155 447.504 154.966 442.509 159.171 432.144Z" fill="#FFEB67"/>
<path d="M160.585 426.934C162.723 415.955 155.557 405.321 144.578 403.182C133.599 401.044 122.965 408.211 120.826 419.19C118.688 430.169 125.854 440.802 136.833 442.941C147.812 445.079 158.446 437.913 160.585 426.934Z" fill="#FFA500"/>
<path d="M140.68 405.469C151.421 405.469 160.201 413.83 160.884 424.395C160.91 423.954 160.932 423.513 160.932 423.068C160.932 411.882 151.866 402.815 140.68 402.815C129.493 402.815 120.427 411.882 120.427 423.068C120.427 423.513 120.444 423.954 120.475 424.395C121.158 413.83 129.943 405.469 140.68 405.469Z" fill="#EB860D"/>
<path d="M270.377 408.224H185.355C183.398 408.224 181.802 406.624 181.802 404.671C181.802 402.719 183.402 401.119 185.355 401.119H270.377C272.33 401.119 273.93 402.719 273.93 404.671C273.93 406.628 272.334 408.224 270.377 408.224ZM270.377 426.621H185.355C183.398 426.621 181.802 425.021 181.802 423.068C181.802 421.111 183.402 419.516 185.355 419.516H270.377C272.33 419.516 273.93 421.116 273.93 423.068C273.93 425.025 272.334 426.621 270.377 426.621ZM270.377 445.023H185.355C183.398 445.023 181.802 443.423 181.802 441.47C181.802 439.513 183.402 437.918 185.355 437.918H270.377C272.33 437.918 273.93 439.518 273.93 441.47C273.93 443.423 272.334 445.023 270.377 445.023Z" fill="#9AD4FC"/>
<g clip-path="url(#clip0_5137_1418)">
<path d="M122.097 226.887H113.899V232.176H123.054V236.306H108.839V214.025H122.591V218.16H113.899V222.788H122.097V226.887ZM133.958 225.961V229.298H125.297V225.961H133.958ZM139.939 236.31L134.65 214.03H140.041L141.724 223.22C142.222 225.864 142.685 228.738 143.047 230.986H143.113C143.479 228.57 144.007 225.895 144.567 223.153L146.454 214.03H151.809L153.594 223.418C154.092 226.027 154.453 228.407 154.784 230.889H154.85C155.181 228.412 155.679 225.798 156.137 223.153L157.953 214.03H163.079L157.327 236.31H151.871L149.984 226.724C149.557 224.476 149.191 222.395 148.926 219.848H148.86C148.464 222.36 148.102 224.476 147.573 226.724L145.458 236.31H139.939ZM169.087 230.589L167.5 236.306H162.277L169.087 214.025H175.698L182.609 236.306H177.188L175.469 230.589H169.087ZM174.742 226.821L173.353 222.096C172.957 220.773 172.56 219.121 172.229 217.798H172.163C171.833 219.121 171.502 220.809 171.141 222.096L169.818 226.821H174.742ZM185.575 214.025H190.635V232.074H199.495V236.306H185.58V214.025H185.575ZM202.461 214.025H207.521V232.074H216.38V236.306H202.465V214.025H202.461ZM232.604 226.887H224.406V232.176H233.561V236.306H219.351V214.025H233.102V218.16H224.411V222.788H232.609V226.887H232.604ZM241.459 218.257H235.474V214.025H252.597V218.257H246.515V236.306H241.459V218.257Z" fill="#032781"/>
</g>
<path d="M664.411 213.58C637.348 212.518 607.756 195.791 607.756 195.791C607.756 195.791 577.828 211.896 550.748 212.39C550.748 212.39 541.117 295.508 608.399 325.251C675.425 296.707 664.411 213.58 664.411 213.58Z" fill="#0071BC"/>
<path d="M664.393 217.424C638.261 216.397 609.677 200.243 609.677 200.243C609.677 200.243 580.772 215.797 554.622 216.273C554.622 216.273 543.423 296.527 608.399 325.251C673.953 297.893 664.393 217.424 664.393 217.424Z" fill="white"/>
<path d="M659.258 221.699C635.546 220.769 609.616 206.135 609.616 206.135C609.616 206.135 583.391 220.222 559.669 220.654C559.669 220.654 549.509 293.34 608.461 319.358C667.933 294.583 659.258 221.699 659.258 221.699Z" fill="url(#paint1_linear_5137_1418)"/>
<path opacity="0.54" d="M656.032 224.335C633.844 223.466 609.58 209.772 609.58 209.772C609.58 209.772 585.043 222.955 562.842 223.356C562.842 223.356 553.335 291.374 608.501 315.717C664.151 292.538 656.032 224.335 656.032 224.335Z" fill="#939393"/>
<path d="M650.654 227.773C631.177 226.966 609.884 214.069 609.884 214.069C609.884 214.069 588.331 226.516 568.841 226.913C568.841 226.913 560.449 291.061 608.862 313.981C657.733 292.084 650.654 227.773 650.654 227.773Z" fill="url(#paint2_linear_5137_1418)"/>
<path d="M649.967 227.781C630.653 227.001 609.532 214.55 609.532 214.55C609.532 214.55 588.164 226.552 568.837 226.926C568.837 226.926 560.533 288.804 608.549 310.931C657.006 289.823 649.967 227.781 649.967 227.781Z" fill="url(#paint3_linear_5137_1418)"/>
<path opacity="0.15" d="M634.196 290.784C626.448 293.887 614.292 297.549 601.241 290.259C583.456 280.32 572.556 244.046 568.576 229.567C567.642 241.586 566.447 291.542 608.544 310.94C619.854 306.012 628.14 298.858 634.196 290.784Z" fill="#1B1464"/>
<path opacity="0.18" d="M624.734 224C624.734 224 632.672 228.315 646.873 229.562C646.873 229.562 650.69 239.942 645.348 254.804C645.348 254.804 649.161 238.417 624.734 224Z" fill="white"/>
<path d="M604.45 277.733C603.198 277.733 601.946 277.305 600.893 276.441L600.747 276.313L587.67 264.501C585.982 262.976 585.801 260.323 587.269 258.568C588.732 256.814 591.289 256.629 592.977 258.15L604.41 268.477L626.8 247.016C628.444 245.443 631.001 245.553 632.517 247.259C634.029 248.969 633.928 251.626 632.284 253.2L608.35 276.141C607.24 277.199 605.847 277.733 604.45 277.733Z" fill="#FDFDFD"/>
<path d="M126.796 375.087C126.796 375.087 129.304 374.47 129.811 373.267C130.265 372.183 130.124 372.571 130.291 372.095C130.348 371.932 130.485 371.619 130.485 371.619C130.485 371.619 131.719 368.657 132.715 368.586C133.711 368.52 134.011 369.362 133.077 370.803C132.142 372.244 134.104 373.985 136.122 372.103C138.145 370.226 141.05 368.74 141.187 369.856C141.323 370.971 139.371 372.244 139.371 372.244C139.371 372.244 139.432 372.35 139.908 371.993C140.384 371.641 141.195 370.31 141.363 370.693C141.53 371.081 142.795 373.501 140.345 376.313C137.89 379.125 135.351 379.023 134.311 379.125C133.271 379.226 129.758 380.407 128.956 381.333C128.956 381.342 125.284 376.555 126.796 375.087Z" fill="#FBCD9B"/>
<path d="M125.098 375.572L127.694 374.426L131.48 380.967L129.043 382.333L125.098 375.572Z" fill="#DEEBF4"/>
<path d="M78.6382 377.15C78.6382 377.15 83.156 373.862 90.6048 376.727C98.1506 379.632 104.907 381.871 104.907 381.871L127.025 374.338L130.872 381.527C130.872 381.527 110.805 391.444 104.273 392.171C101.328 392.524 84.3152 393.679 78.6382 377.15Z" fill="#4484E0"/>
<path d="M73.9884 525.928L73.4463 531.407C73.4463 531.407 78.8015 533.69 79.7535 532.606C80.7056 531.521 81.3579 531.808 81.3579 531.808L81.8119 524.879L73.9884 525.928Z" fill="#22313B"/>
<path d="M50.6323 524.253L50.9629 529.507L57.9445 529.159L58.7687 523.306L50.6323 524.253Z" fill="#22313B"/>
<path d="M52.4974 435.603C52.4974 435.603 52.1051 449.351 52.9073 457.236C53.7095 465.121 55.1993 484.814 54.0048 490.676C52.9117 496.062 49.5663 519.647 48.9449 526.479C48.8744 527.237 49.5002 527.89 50.2936 527.89C53.3701 527.903 58.2934 528.41 59.1308 526.907C60.2107 524.972 68.2193 495.009 69.4093 489.147C70.5994 483.285 72.7855 478.432 72.7855 478.432C72.7855 478.432 73.5877 486.317 73.4202 492.206L72.4329 526.937C72.4109 527.788 73.1602 528.471 74.0461 528.392C76.8493 528.141 80.2696 528.092 82.5483 527.436C82.5483 527.436 86.2154 504.34 87.5465 493.568C88.8776 482.796 90.9448 443.594 88.1283 439.081C85.3119 434.568 52.4974 435.603 52.4974 435.603Z" fill="#3F4752"/>
<path d="M48.9488 526.479C48.8783 527.237 49.5041 527.889 50.2975 527.889C50.9675 527.894 51.8225 527.885 52.7569 527.863C54.3437 516.83 59.9325 485.347 61.0079 478.59C61.9379 472.746 59.1347 447.772 57.6538 435.51C54.542 435.537 52.4969 435.603 52.4969 435.603C52.4969 435.603 52.1046 449.35 52.9068 457.235C53.709 465.121 55.1987 484.814 54.0043 490.676C52.9112 496.062 49.5703 519.647 48.9488 526.479ZM75.9805 456.416C74.8478 460.312 72.3178 479.564 72.3178 479.564C72.6043 478.846 72.7938 478.432 72.7938 478.432C72.7938 478.432 73.596 486.317 73.4285 492.205L72.4412 526.937C72.4192 527.788 73.1685 528.471 74.0544 528.392C76.3948 528.18 79.0614 528.03 81.7412 527.51C79.8239 527.127 76.8708 525.787 76.1083 524.218C75.1387 522.225 78.2196 485.955 78.2196 485.955C76.364 479.027 75.9805 456.416 75.9805 456.416Z" fill="#2F3740"/>
<path d="M49.8215 529.749C49.8215 529.749 57.4466 527.175 59.3066 528.158C59.3066 528.158 59.2537 530.018 60.1705 530.975C61.0873 531.931 66.588 537.67 65.6183 538.573C64.6486 539.477 55.1899 540.138 49.5879 538.119L49.8215 529.749ZM73.3624 530.239C73.0406 530.203 72.7586 530.45 72.7498 530.772L72.5514 537.802C72.5514 537.802 71.6743 538.626 76.7959 538.772C81.9175 538.917 95.5722 539.305 96.4493 538.481C97.3265 537.657 96.4978 536.788 92.2798 534.972C88.0617 533.156 83.4514 530.058 81.7941 528.317C81.7941 528.317 78.3782 528.22 79.1628 530.785C79.154 530.781 78.365 530.759 73.3624 530.239Z" fill="#2D313D"/>
<path d="M64.2607 371.588L65.4993 366.59L76.3067 366.651L77.0736 373.016C77.0736 373.02 71.6214 380.941 64.2607 371.588Z" fill="#BA6549"/>
<path d="M81.0315 351.392C81.0315 351.392 81.8558 356.633 82.1423 359.454C82.4287 362.279 83.1736 368.732 77.6201 370.248C72.0709 371.764 68.5625 369.318 66.3631 368.326C66.3631 368.326 58.9804 363.112 59.7297 361.133C60.479 359.154 60.8448 353.411 66.4909 352.838C72.1414 352.265 81.0315 351.392 81.0315 351.392Z" fill="#FEB48C"/>
<path d="M78.2374 344.966L67.787 341.973C63.9965 340.889 59.9371 342.674 58.2754 346.249C57.4644 347.994 57.1206 349.515 57.1206 349.515L55.4281 351.591C53.7356 353.667 54.0265 356.487 56.292 360.062C58.5575 363.637 66.6631 368.516 66.6631 368.516C67.6063 368.419 64.4945 365.884 63.4543 365.038C62.4186 364.192 62.3833 362.495 64.2653 362.305C66.1474 362.116 66.2752 364.752 66.2752 364.752C66.9275 361.834 64.3755 355.438 64.3755 355.438C64.3755 355.438 70.1186 355.804 77.4528 353.155C84.7915 350.506 85.2499 345.706 85.2499 345.706C84.5446 345.777 83.8306 345.79 83.1607 345.773C81.499 345.711 79.8418 345.424 78.2374 344.966Z" fill="#221E52"/>
<path d="M62.1317 370.733C62.1317 370.733 60.2276 376.555 61.2369 377.23C62.2463 377.9 66.9492 380.363 66.9492 380.363C66.9492 380.363 64.4853 383.612 64.4853 385.291C64.4853 386.97 82.5124 408.823 82.5124 408.823C82.5124 408.823 87.5546 385.181 86.4351 384.061C85.3156 382.942 83.4203 380.928 83.4203 380.928C83.4203 380.928 84.9938 376.225 83.4203 375.105C81.8468 373.986 77.2541 372.866 77.2541 372.866L75.1252 374.66L64.3751 368.948L62.1317 370.733Z" fill="#F5F5F5"/>
<path d="M87.8898 427.85C87.8898 426.506 88.5597 403.662 88.5597 403.662C88.5597 403.662 91.0236 387.089 88.3349 381.262C87.2595 378.931 85.6111 377.291 84.0155 376.149C84.4122 377.93 83.4117 380.927 83.4117 380.927C83.4117 380.927 85.3069 382.942 86.4265 384.061C87.546 385.181 82.5037 408.823 82.5037 408.823L79.9297 435.731L81.4988 443.665C81.4988 443.665 86.6512 444.824 90.5696 439.698C90.5784 439.698 87.8898 429.195 87.8898 427.85Z" fill="#4484E0"/>
<path d="M82.8783 436.586C82.8783 436.586 84.1918 409.541 85.2584 404.838C85.7918 402.472 85.3818 399.514 84.8397 397.156C83.7334 403.102 82.5125 408.827 82.5125 408.827L79.9385 435.736L81.5076 443.669C81.5076 443.669 84.3725 444.313 87.4578 442.51C86.0782 441.342 84.1742 439.376 82.8783 436.586Z" fill="#286BCE"/>
<path d="M77.2492 372.861L75.1204 374.655L64.3703 368.943L63.9956 369.243L71.6207 377.904L74.8956 375.524L78.6773 377.37L80.6827 373.871C78.9814 373.285 77.2492 372.861 77.2492 372.861Z" fill="#9BD4DF"/>
<path d="M77.4521 379.385L78.2411 377.155L74.9001 375.52L72.0264 377.609L74.7326 380.562L76.4957 393.895L81.6702 407.801C82.2035 408.449 82.512 408.823 82.512 408.823C82.512 408.823 82.6531 408.162 82.8779 407.069L77.4521 379.385Z" fill="#DE3D73"/>
<path d="M81.6655 407.796C74.8822 388.641 61.9371 371.345 61.9371 371.345C61.4832 372.857 60.4253 376.687 61.2319 377.225C62.2413 377.895 66.9442 380.359 66.9442 380.359C66.9442 380.359 64.4803 383.607 64.4803 385.287C64.4847 386.754 78.1174 403.468 81.6655 407.796ZM86.4345 384.061C85.315 382.942 83.4197 380.928 83.4197 380.928C83.4197 380.928 84.9932 376.225 83.4197 375.105C82.8115 374.673 81.7537 374.241 80.687 373.875C80.7575 379.363 83.1949 405.544 83.1949 405.548C84.5304 399.012 87.294 384.921 86.4345 384.061Z" fill="#68A9EA"/>
<path d="M54.0213 421.411C54.0213 421.411 51.5707 389.553 52.417 382.69C52.8666 379.041 54.0081 376.207 54.9822 374.338C58.7375 372.156 62.1357 370.737 62.1357 370.737C62.1357 370.737 60.2316 376.559 61.241 377.234C62.2503 377.904 66.9532 380.368 66.9532 380.368C66.9532 380.368 64.4894 383.616 64.4894 385.295C64.4894 386.975 82.5164 408.827 82.5164 408.827C82.9087 409.876 83.1775 410.595 83.3054 410.886C84.3147 413.239 78.6025 442.973 78.6025 442.973C69.633 445.067 54.3563 442.259 51.1035 441.615L54.0213 421.411Z" fill="#4484E0"/>
<path d="M54.0219 421.411C54.0219 421.411 54.0175 421.323 54.0042 421.2C53.9998 421.147 53.9954 421.094 53.991 421.019C53.9778 420.825 53.9558 420.547 53.9293 420.217C53.9205 420.124 53.9161 420.027 53.9073 419.921C53.8985 419.824 53.8941 419.719 53.8852 419.617C53.872 419.428 53.8588 419.234 53.8412 419.018C53.8368 418.947 53.8323 418.872 53.8235 418.802C53.8015 418.529 53.7839 418.238 53.7618 417.929C53.7618 417.916 53.7618 417.903 53.7574 417.885C53.4974 414.253 53.0919 408.277 52.7613 402.198C52.4968 397.341 52.2897 392.431 52.2412 388.597L56.3976 394.917L58.4074 391.061C58.4074 391.061 55.6086 411.618 55.6086 414.306C55.6086 416.995 60.6729 433.453 60.6729 433.453L65.2436 443.431C63.8155 443.326 62.4536 443.233 61.1578 443.154C61.1578 443.154 61.1578 443.154 61.1534 443.154C60.5848 443.092 60.0338 443.026 59.4917 442.955C59.4652 442.951 59.4432 442.951 59.4168 442.947C58.8834 442.881 58.3589 442.81 57.8565 442.739C57.83 442.735 57.808 442.731 57.7816 442.731C57.2835 442.66 56.8031 442.59 56.3403 442.519C56.3138 442.515 56.283 442.51 56.2565 442.506C55.8069 442.435 55.3706 442.369 54.9607 442.303C54.9166 442.294 54.8725 442.29 54.8241 442.281C54.4362 442.219 54.0659 442.158 53.7222 442.096C53.6516 442.083 53.5899 442.074 53.5238 442.061C53.2153 442.008 52.9156 441.955 52.6467 441.906C52.5894 441.898 52.5409 441.889 52.4924 441.88C52.444 441.871 52.3955 441.862 52.3514 441.854C52.1487 441.814 51.9415 441.779 51.7696 441.743C51.5095 441.695 51.2715 441.646 51.0864 441.611L54.0219 421.411Z" fill="#286BCE"/>
<path d="M102.224 429.19C105.609 414.327 96.3052 399.535 81.4427 396.149C66.5801 392.764 51.7872 402.068 48.4018 416.93C45.0164 431.793 54.3204 446.586 69.183 449.971C84.0455 453.357 98.8384 444.053 102.224 429.19Z" fill="#FDCE14"/>
<path d="M95.41 430.707C98.7888 419.451 92.4028 407.587 81.1464 404.208C69.89 400.829 58.0259 407.215 54.6471 418.472C51.2683 429.728 57.6544 441.592 68.9108 444.971C80.1671 448.35 92.0313 441.964 95.41 430.707Z" fill="#FFEB67"/>
<path d="M95.1514 430.758C99.4047 419.802 93.9711 407.473 83.0152 403.219C72.0593 398.966 59.7298 404.4 55.4766 415.355C51.2233 426.311 56.6569 438.641 67.6128 442.894C78.5687 447.147 90.8982 441.714 95.1514 430.758Z" fill="#FFA500"/>
<path d="M75.3282 404.548C86.6116 404.548 95.8367 413.332 96.5551 424.43C96.586 423.968 96.6036 423.505 96.6036 423.038C96.6036 411.287 87.0788 401.758 75.3238 401.758C63.5731 401.758 54.0439 411.283 54.0439 423.038C54.0439 423.505 54.066 423.972 54.0924 424.43C54.8197 413.332 64.0448 404.548 75.3282 404.548Z" fill="#EB860D"/>
<path d="M64.8823 434.647C64.8823 434.647 65.3935 431.205 60.6554 431.412C59.5623 431.46 58.9585 430.42 58.6059 428.732L54.0264 429.957C55.8687 434.678 57.4334 438.208 58.0241 438.883C59.6637 440.756 60.6422 441.717 61.7308 440.113C62.8151 438.504 64.5517 440.769 65.204 439.271C65.8607 437.772 68.1968 440.038 68.2232 438.204C68.2497 436.366 64.8823 434.647 64.8823 434.647Z" fill="#FBC0A4"/>
<path d="M53.0962 430.53L54.176 433.386C54.176 433.386 58.3809 433.082 61.1709 430.764L60.166 428.093L53.0962 430.53Z" fill="#F8E8D8"/>
<path d="M55.1324 374.052C55.1324 374.052 39.7235 402.432 40.129 408.312C40.5345 414.191 53.3649 432.796 53.3649 432.796L61.4396 430.323L50.9275 406.857C50.932 406.853 74.9665 384.136 55.1324 374.052Z" fill="#4484E0"/>
<path d="M46.1763 416.682C43.2761 409.021 45.9339 405.455 45.9339 405.455C45.5945 401.471 53.1271 377.833 53.1315 377.815C48.9751 385.731 39.8162 403.758 40.1335 408.307C40.4553 412.979 48.6181 425.673 51.9591 430.698C50.412 427.158 47.9967 421.495 46.1763 416.682Z" fill="#286BCE"/>
<path d="M170.431 170.074V164.727H180.42V194.944H174.451V170.074H170.431ZM205.633 169.743H192.204V176.83C192.784 176.112 193.613 175.532 194.691 175.09C195.768 174.62 196.915 174.385 198.131 174.385C200.342 174.385 202.152 174.869 203.561 175.836C204.97 176.803 205.992 178.046 206.628 179.566C207.264 181.058 207.581 182.661 207.581 184.374C207.581 187.552 206.669 190.108 204.846 192.042C203.05 193.976 200.48 194.944 197.136 194.944C193.986 194.944 191.472 194.156 189.593 192.581C187.714 191.006 186.65 188.947 186.401 186.405H192.038C192.287 187.51 192.839 188.395 193.696 189.058C194.58 189.721 195.699 190.053 197.053 190.053C198.684 190.053 199.913 189.541 200.742 188.519C201.571 187.497 201.986 186.143 201.986 184.457C201.986 182.744 201.557 181.445 200.701 180.561C199.872 179.649 198.642 179.193 197.012 179.193C195.851 179.193 194.884 179.483 194.11 180.064C193.337 180.644 192.784 181.417 192.453 182.385H186.898V164.645H205.633V169.743Z" fill="#010409"/>
<g clip-path="url(#clip1_5137_1418)">
<mask id="mask0_5137_1418" style="mask-type:luminance" maskUnits="userSpaceOnUse" x="209" y="152" width="24" height="31">
<path d="M209.801 152.946H232.844V182.083H209.801V152.946Z" fill="white"/>
</mask>
<g mask="url(#mask0_5137_1418)">
<path d="M230.323 159.187C230.312 159.146 230.264 159.029 230.264 159.029L219.321 159.028C218.762 159.027 217.943 159.026 217.868 159.026H217.856C217.332 159.013 217.053 159.138 216.789 159.291C216.527 159.443 216.298 159.674 216.17 159.9C216.043 160.126 215.959 160.349 215.903 160.621C215.852 160.874 215.729 161.9 215.715 162.035C215.724 162.035 226.117 162.035 226.117 162.035C225.001 163.138 223.732 164.382 222.673 165.404C222.524 165.546 222.372 165.694 222.221 165.839H220.451C220.451 165.839 220.451 165.84 220.451 165.84C219.379 165.84 218.593 165.84 218.586 165.839C218.304 165.841 218.148 165.909 217.995 165.998C217.832 166.092 217.69 166.236 217.61 166.377C217.53 166.518 217.478 166.657 217.444 166.826C217.412 166.984 217.403 167.054 217.383 167.27C217.369 167.408 217.362 167.662 217.351 167.769H220.246C219.926 168.084 219.609 168.396 219.298 168.704C219.146 168.854 218.996 169.001 218.848 169.147H217.985C217.985 169.148 217.985 169.148 217.985 169.149C216.913 169.149 216.127 169.148 216.121 169.147C215.839 169.149 215.683 169.218 215.529 169.306C215.367 169.401 215.224 169.545 215.145 169.685C215.065 169.826 215.013 169.965 214.978 170.135C214.946 170.292 214.938 170.362 214.917 170.578C214.904 170.716 214.897 170.97 214.885 171.077H216.869C216.682 171.259 216.503 171.433 216.336 171.596C215.717 172.199 215.104 172.974 214.712 173.732C214.234 174.659 213.98 175.725 213.921 176.765C213.898 177.161 213.917 177.575 213.971 177.934C213.971 177.934 226.512 177.931 226.543 177.934C226.997 177.932 227.248 177.822 227.493 177.679C227.755 177.528 227.983 177.297 228.111 177.071C228.239 176.845 228.323 176.622 228.378 176.349C228.43 176.097 228.443 175.984 228.477 175.638C228.498 175.415 228.561 175.007 228.579 174.835H217.463C218.551 173.78 219.736 172.699 220.775 171.683C220.982 171.484 221.192 171.281 221.403 171.077H223.769L223.769 171.076C224.841 171.076 225.627 171.076 225.633 171.077C225.915 171.076 226.071 171.007 226.224 170.919C226.387 170.824 226.53 170.68 226.609 170.539C226.689 170.399 226.741 170.26 226.775 170.09C226.808 169.933 226.816 169.862 226.837 169.647C226.85 169.508 226.857 169.255 226.869 169.147H223.951H223.946H223.381C223.644 168.891 223.906 168.636 224.166 168.383C224.387 168.168 224.595 167.966 224.797 167.769H226.234L226.234 167.768C227.306 167.768 228.092 167.768 228.098 167.769C228.381 167.768 228.537 167.699 228.69 167.61C228.853 167.516 228.995 167.372 229.075 167.231C229.154 167.09 229.207 166.951 229.241 166.782C229.273 166.625 229.281 166.554 229.302 166.339C229.316 166.2 229.323 165.946 229.334 165.839H226.763C226.874 165.731 226.982 165.625 227.085 165.524C227.909 164.726 228.615 163.954 229.08 163.33C229.543 162.707 229.818 162.21 230.026 161.713C230.235 161.217 230.351 160.764 230.374 160.355C230.398 159.947 230.418 159.549 230.323 159.187Z" fill="#6143F0"/>
</g>
</g>
<mask id="mask1_5137_1418" style="mask-type:luminance" maskUnits="userSpaceOnUse" x="63" y="407" width="24" height="30">
<path d="M63.0283 407.702H86.0713V436.839H63.0283V407.702Z" fill="white"/>
</mask>
<g mask="url(#mask1_5137_1418)">
<path d="M83.55 413.943C83.5392 413.902 83.4906 413.785 83.4906 413.785L72.5481 413.783C71.9886 413.782 71.1702 413.782 71.0946 413.782H71.0831C70.5589 413.769 70.2798 413.894 70.0156 414.047C69.754 414.198 69.5252 414.43 69.3973 414.656C69.2696 414.882 69.1858 415.105 69.1304 415.377C69.079 415.63 68.9564 416.656 68.9419 416.791C68.9506 416.791 79.3443 416.791 79.3443 416.791C78.2283 417.894 76.9595 419.138 75.8996 420.16C75.7509 420.302 75.5988 420.45 75.4482 420.595H73.6779C73.6779 420.595 73.6776 420.596 73.6776 420.596C72.6059 420.596 71.8196 420.596 71.8135 420.595C71.5309 420.596 71.3751 420.665 71.2222 420.754C71.0593 420.848 70.9167 420.992 70.8372 421.133C70.7575 421.274 70.7054 421.412 70.671 421.582C70.6386 421.739 70.6305 421.81 70.6096 422.025C70.5962 422.164 70.5893 422.418 70.5779 422.525H73.4726C73.153 422.839 72.8365 423.151 72.5248 423.46C72.3733 423.61 72.2234 423.757 72.0751 423.903H71.2123C71.2121 423.904 71.2121 423.904 71.212 423.904C70.1404 423.904 69.3543 423.904 69.3481 423.903C69.0656 423.905 68.9097 423.974 68.7564 424.062C68.5936 424.156 68.4513 424.301 68.3716 424.441C68.292 424.582 68.2398 424.721 68.2053 424.89C68.1733 425.048 68.1649 425.118 68.1443 425.334C68.1307 425.472 68.1236 425.726 68.1124 425.833H70.0957C69.9093 426.014 69.7303 426.189 69.5633 426.351C68.9437 426.955 68.3308 427.729 67.9394 428.488C67.4611 429.415 67.2067 430.481 67.1476 431.521C67.1248 431.917 67.1441 432.331 67.198 432.69C67.198 432.69 79.7392 432.687 79.7704 432.69C80.2244 432.688 80.4746 432.578 80.7201 432.435C80.9816 432.284 81.2104 432.053 81.3383 431.827C81.4662 431.6 81.5498 431.378 81.6052 431.105C81.6568 430.853 81.67 430.739 81.7037 430.394C81.7253 430.171 81.7881 429.762 81.806 429.591H70.6899C71.7777 428.536 72.9626 427.455 74.0023 426.439C74.2089 426.24 74.4195 426.037 74.63 425.833H76.9957L76.996 425.832C78.0676 425.832 78.8537 425.832 78.8599 425.833C79.1424 425.832 79.2983 425.763 79.4513 425.674C79.6144 425.58 79.7568 425.436 79.8363 425.295C79.9159 425.154 79.9681 425.016 80.0025 424.846C80.0349 424.689 80.043 424.618 80.0637 424.403C80.0771 424.264 80.0842 424.01 80.0956 423.903H77.1783H77.1726H76.6076C76.8708 423.647 77.1329 423.392 77.393 423.139C77.6145 422.924 77.8223 422.722 78.0245 422.525H79.4611L79.4612 422.524C80.533 422.524 81.3192 422.524 81.3254 422.525C81.6081 422.523 81.7638 422.455 81.9171 422.366C82.0799 422.272 82.2222 422.128 82.3018 421.987C82.3815 421.846 82.4337 421.707 82.4682 421.538C82.5002 421.381 82.5085 421.31 82.5292 421.095C82.5428 420.956 82.5499 420.702 82.561 420.595H79.9902C80.1011 420.486 80.2091 420.381 80.3124 420.28C81.1364 419.482 81.8423 418.71 82.3066 418.086C82.7704 417.463 83.0448 416.966 83.2535 416.469C83.4618 415.972 83.578 415.52 83.6012 415.111C83.6249 414.702 83.6449 414.305 83.55 413.943Z" fill="#FFEF04"/>
</g>
<mask id="mask2_5137_1418" style="mask-type:luminance" maskUnits="userSpaceOnUse" x="129" y="407" width="24" height="30">
<path d="M129.142 407.702H152.185V436.839H129.142V407.702Z" fill="white"/>
</mask>
<g mask="url(#mask2_5137_1418)">
<path d="M149.664 413.943C149.653 413.902 149.605 413.785 149.605 413.785L138.662 413.783C138.103 413.782 137.284 413.782 137.209 413.782H137.197C136.673 413.769 136.394 413.894 136.13 414.047C135.868 414.198 135.639 414.43 135.512 414.656C135.384 414.882 135.3 415.105 135.245 415.377C135.193 415.63 135.071 416.656 135.056 416.791C135.065 416.791 145.459 416.791 145.459 416.791C144.343 417.894 143.074 419.138 142.014 420.16C141.865 420.302 141.713 420.45 141.562 420.595H139.792C139.792 420.595 139.792 420.596 139.792 420.596C138.72 420.596 137.934 420.596 137.928 420.595C137.645 420.596 137.489 420.665 137.336 420.754C137.174 420.848 137.031 420.992 136.951 421.133C136.872 421.274 136.82 421.412 136.785 421.582C136.753 421.739 136.745 421.81 136.724 422.025C136.71 422.164 136.704 422.418 136.692 422.525H139.587C139.267 422.839 138.951 423.151 138.639 423.46C138.488 423.61 138.338 423.757 138.189 423.903H137.327C137.326 423.904 137.326 423.904 137.326 423.904C136.255 423.904 135.469 423.904 135.462 423.903C135.18 423.905 135.024 423.974 134.871 424.062C134.708 424.156 134.566 424.301 134.486 424.441C134.406 424.582 134.354 424.721 134.32 424.89C134.288 425.048 134.279 425.118 134.259 425.334C134.245 425.472 134.238 425.726 134.227 425.833H136.21C136.024 426.014 135.845 426.189 135.678 426.351C135.058 426.955 134.445 427.729 134.054 428.488C133.575 429.415 133.321 430.481 133.262 431.521C133.239 431.917 133.258 432.331 133.312 432.69C133.312 432.69 145.853 432.687 145.885 432.69C146.339 432.688 146.589 432.578 146.834 432.435C147.096 432.284 147.325 432.053 147.453 431.827C147.58 431.6 147.664 431.378 147.719 431.105C147.771 430.853 147.784 430.739 147.818 430.394C147.84 430.171 147.902 429.762 147.92 429.591H136.804C137.892 428.536 139.077 427.455 140.117 426.439C140.323 426.24 140.534 426.037 140.744 425.833H143.11L143.11 425.832C144.182 425.832 144.968 425.832 144.974 425.833C145.257 425.832 145.413 425.763 145.566 425.674C145.729 425.58 145.871 425.436 145.951 425.295C146.03 425.154 146.082 425.016 146.117 424.846C146.149 424.689 146.157 424.618 146.178 424.403C146.191 424.264 146.198 424.01 146.21 423.903H143.293H143.287H142.722C142.985 423.647 143.247 423.392 143.507 423.139C143.729 422.924 143.937 422.722 144.139 422.525H145.575L145.575 422.524C146.647 422.524 147.433 422.524 147.44 422.525C147.722 422.523 147.878 422.455 148.031 422.366C148.194 422.272 148.336 422.128 148.416 421.987C148.496 421.846 148.548 421.707 148.582 421.538C148.614 421.381 148.623 421.31 148.643 421.095C148.657 420.956 148.664 420.702 148.675 420.595H146.104C146.215 420.486 146.323 420.381 146.427 420.28C147.251 419.482 147.957 418.71 148.421 418.086C148.885 417.463 149.159 416.966 149.368 416.469C149.576 415.972 149.692 415.52 149.715 415.111C149.739 414.702 149.759 414.305 149.664 413.943Z" fill="#FFEF04"/>
</g>
<mask id="mask3_5137_1418" style="mask-type:luminance" maskUnits="userSpaceOnUse" x="129" y="309" width="24" height="30">
<path d="M129.142 309.41H152.185V338.547H129.142V309.41Z" fill="white"/>
</mask>
<g mask="url(#mask3_5137_1418)">
<path d="M149.664 315.651C149.653 315.611 149.605 315.493 149.605 315.493L138.662 315.492C138.103 315.491 137.284 315.491 137.209 315.49H137.197C136.673 315.478 136.394 315.603 136.13 315.756C135.868 315.907 135.639 316.138 135.512 316.364C135.384 316.591 135.3 316.813 135.245 317.085C135.193 317.339 135.071 318.364 135.056 318.499C135.065 318.5 145.459 318.499 145.459 318.499C144.343 319.602 143.074 320.846 142.014 321.868C141.865 322.011 141.713 322.158 141.562 322.304H139.792C139.792 322.304 139.792 322.304 139.792 322.305C138.72 322.305 137.934 322.304 137.928 322.304C137.645 322.305 137.489 322.374 137.336 322.462C137.174 322.556 137.031 322.701 136.951 322.841C136.872 322.982 136.82 323.121 136.785 323.29C136.753 323.448 136.745 323.518 136.724 323.734C136.71 323.872 136.704 324.126 136.692 324.233H139.587C139.267 324.548 138.951 324.86 138.639 325.168C138.488 325.318 138.338 325.466 138.189 325.612H137.327C137.326 325.612 137.326 325.612 137.326 325.613C136.255 325.613 135.469 325.612 135.462 325.612C135.18 325.613 135.024 325.682 134.871 325.771C134.708 325.865 134.566 326.009 134.486 326.15C134.406 326.29 134.354 326.429 134.32 326.599C134.288 326.756 134.279 326.827 134.259 327.042C134.245 327.181 134.238 327.434 134.227 327.541H136.21C136.024 327.723 135.845 327.897 135.678 328.06C135.058 328.664 134.445 329.438 134.054 330.197C133.575 331.124 133.321 332.189 133.262 333.229C133.239 333.625 133.258 334.039 133.312 334.398C133.312 334.398 145.853 334.396 145.885 334.398C146.339 334.397 146.589 334.286 146.834 334.144C147.096 333.992 147.325 333.761 147.453 333.535C147.58 333.309 147.664 333.086 147.719 332.814C147.771 332.561 147.784 332.448 147.818 332.102C147.84 331.879 147.902 331.471 147.92 331.3H136.804C137.892 330.245 139.077 329.163 140.117 328.147C140.323 327.949 140.534 327.745 140.744 327.541H143.11L143.11 327.541C144.182 327.541 144.968 327.541 144.974 327.541C145.257 327.54 145.413 327.471 145.566 327.383C145.729 327.289 145.871 327.145 145.951 327.004C146.03 326.863 146.082 326.724 146.117 326.555C146.149 326.397 146.157 326.327 146.178 326.111C146.191 325.973 146.198 325.719 146.21 325.612H143.293H143.287H142.722C142.985 325.355 143.247 325.1 143.507 324.847C143.729 324.632 143.937 324.43 144.139 324.233H145.575L145.575 324.233C146.647 324.232 147.433 324.233 147.44 324.233C147.722 324.232 147.878 324.163 148.031 324.075C148.194 323.98 148.336 323.836 148.416 323.696C148.496 323.555 148.548 323.416 148.582 323.246C148.614 323.089 148.623 323.018 148.643 322.803C148.657 322.665 148.664 322.411 148.675 322.304H146.104C146.215 322.195 146.323 322.09 146.427 321.989C147.251 321.191 147.957 320.418 148.421 319.795C148.885 319.172 149.159 318.674 149.368 318.177C149.576 317.681 149.692 317.229 149.715 316.82C149.739 316.411 149.759 316.014 149.664 315.651Z" fill="#FFEF04"/>
</g>
<mask id="mask4_5137_1418" style="mask-type:luminance" maskUnits="userSpaceOnUse" x="624" y="431" width="38" height="48">
<path d="M624.114 431.503H661.412V478.664H624.114V431.503Z" fill="white"/>
</mask>
<g mask="url(#mask4_5137_1418)">
<path d="M657.331 441.605C657.314 441.539 657.235 441.349 657.235 441.349L639.524 441.347C638.618 441.345 637.293 441.345 637.171 441.344H637.152C636.304 441.324 635.852 441.526 635.425 441.774C635.001 442.018 634.631 442.393 634.424 442.759C634.217 443.125 634.081 443.486 633.992 443.926C633.908 444.336 633.71 445.996 633.687 446.215C633.701 446.215 650.524 446.214 650.524 446.214C648.718 448 646.664 450.013 644.948 451.668C644.708 451.898 644.462 452.137 644.218 452.372H641.352C641.352 452.372 641.352 452.373 641.352 452.374C639.617 452.374 638.345 452.373 638.335 452.372C637.877 452.374 637.625 452.486 637.378 452.629C637.114 452.781 636.883 453.015 636.754 453.243C636.625 453.471 636.541 453.695 636.485 453.97C636.433 454.224 636.42 454.338 636.386 454.687C636.364 454.911 636.353 455.322 636.335 455.495H641.02C640.503 456.005 639.99 456.51 639.486 457.009C639.241 457.251 638.998 457.49 638.758 457.727H637.361C637.361 457.727 637.361 457.728 637.361 457.729C635.626 457.729 634.354 457.728 634.344 457.727C633.887 457.729 633.635 457.841 633.386 457.984C633.123 458.136 632.893 458.37 632.763 458.597C632.635 458.825 632.55 459.05 632.494 459.325C632.443 459.579 632.429 459.693 632.396 460.042C632.374 460.266 632.362 460.677 632.344 460.85H635.554C635.252 461.144 634.963 461.426 634.692 461.689C633.69 462.667 632.697 463.92 632.064 465.148C631.29 466.649 630.878 468.373 630.782 470.056C630.745 470.697 630.777 471.367 630.864 471.949C630.864 471.949 651.163 471.944 651.214 471.949C651.949 471.946 652.354 471.767 652.751 471.537C653.174 471.292 653.545 470.917 653.752 470.551C653.959 470.185 654.094 469.825 654.184 469.384C654.267 468.975 654.288 468.792 654.343 468.232C654.378 467.872 654.48 467.21 654.509 466.933H636.516C638.277 465.226 640.194 463.475 641.877 461.831C642.212 461.51 642.553 461.18 642.893 460.85H646.723L646.723 460.849C648.458 460.849 649.73 460.849 649.74 460.85C650.197 460.848 650.449 460.737 650.697 460.594C650.961 460.441 651.192 460.208 651.32 459.98C651.449 459.752 651.534 459.527 651.589 459.253C651.642 458.998 651.655 458.884 651.688 458.535C651.71 458.311 651.722 457.9 651.74 457.727H647.018H647.009H646.094C646.52 457.311 646.945 456.898 647.366 456.489C647.724 456.141 648.06 455.815 648.388 455.495H650.713L650.713 455.494C652.448 455.494 653.721 455.494 653.731 455.495C654.188 455.493 654.44 455.382 654.688 455.239C654.952 455.086 655.182 454.853 655.311 454.625C655.44 454.397 655.525 454.172 655.58 453.898C655.632 453.643 655.646 453.529 655.679 453.181C655.701 452.957 655.713 452.546 655.731 452.372H651.569C651.749 452.196 651.924 452.026 652.091 451.862C653.425 450.571 654.567 449.32 655.319 448.311C656.07 447.303 656.514 446.497 656.851 445.694C657.189 444.89 657.377 444.158 657.414 443.496C657.453 442.834 657.485 442.191 657.331 441.605Z" fill="#FFEF04"/>
</g>
<g clip-path="url(#clip2_5137_1418)">
<mask id="mask5_5137_1418" style="mask-type:luminance" maskUnits="userSpaceOnUse" x="433" y="209" width="46" height="58">
<path d="M433.707 209.801H478.464V266.395H433.707V209.801Z" fill="white"/>
</mask>
<g mask="url(#mask5_5137_1418)">
<path d="M473.567 221.924C473.546 221.844 473.452 221.616 473.452 221.616L452.198 221.614C451.111 221.612 449.521 221.611 449.375 221.611H449.352C448.334 221.586 447.792 221.829 447.279 222.126C446.771 222.42 446.326 222.869 446.078 223.309C445.83 223.748 445.667 224.181 445.56 224.709C445.46 225.201 445.221 227.193 445.193 227.455C445.21 227.456 465.398 227.455 465.398 227.455C463.231 229.597 460.766 232.014 458.707 233.999C458.419 234.276 458.123 234.562 457.831 234.845H454.392C454.392 234.845 454.392 234.846 454.392 234.846C452.31 234.846 450.783 234.846 450.771 234.845C450.222 234.847 449.919 234.981 449.622 235.152C449.306 235.336 449.029 235.616 448.875 235.889C448.72 236.163 448.619 236.432 448.552 236.761C448.489 237.067 448.473 237.204 448.433 237.623C448.407 237.892 448.393 238.384 448.371 238.592H453.993C453.373 239.204 452.758 239.81 452.152 240.409C451.858 240.699 451.567 240.986 451.279 241.27H449.603C449.603 241.271 449.603 241.271 449.603 241.272C447.521 241.272 445.994 241.271 445.982 241.27C445.434 241.273 445.131 241.407 444.833 241.578C444.517 241.762 444.24 242.042 444.086 242.315C443.931 242.588 443.83 242.858 443.763 243.187C443.7 243.493 443.684 243.63 443.644 244.049C443.618 244.317 443.604 244.81 443.582 245.018H447.434C447.072 245.371 446.725 245.709 446.4 246.025C445.197 247.198 444.006 248.702 443.246 250.175C442.317 251.976 441.823 254.046 441.708 256.065C441.664 256.834 441.701 257.639 441.806 258.337C441.806 258.337 466.165 258.331 466.226 258.337C467.108 258.333 467.594 258.118 468.071 257.842C468.578 257.548 469.023 257.099 469.271 256.66C469.52 256.22 469.682 255.788 469.79 255.259C469.89 254.768 469.916 254.548 469.981 253.877C470.023 253.444 470.145 252.65 470.18 252.318H448.589C450.701 250.269 453.003 248.168 455.022 246.195C455.424 245.809 455.833 245.414 456.241 245.018H460.836L460.837 245.017C462.919 245.017 464.445 245.017 464.457 245.018C465.006 245.016 465.309 244.882 465.606 244.71C465.923 244.527 466.2 244.248 466.354 243.974C466.508 243.7 466.61 243.431 466.677 243.101C466.74 242.796 466.755 242.659 466.796 242.24C466.822 241.971 466.835 241.478 466.858 241.27H461.191H461.18H460.083C460.594 240.771 461.103 240.276 461.608 239.785C462.038 239.368 462.442 238.975 462.835 238.592H465.625L465.625 238.591C467.707 238.591 469.234 238.591 469.246 238.592C469.795 238.59 470.098 238.456 470.395 238.284C470.712 238.101 470.988 237.821 471.143 237.548C471.297 237.274 471.399 237.005 471.466 236.675C471.528 236.37 471.544 236.233 471.584 235.815C471.611 235.546 471.624 235.053 471.646 234.845H466.653C466.868 234.633 467.078 234.429 467.279 234.233C468.879 232.683 470.25 231.182 471.152 229.971C472.053 228.761 472.586 227.795 472.991 226.83C473.396 225.866 473.621 224.987 473.666 224.193C473.713 223.399 473.751 222.628 473.567 221.924Z" fill="#FFEF04"/>
</g>
</g>
<g clip-path="url(#clip3_5137_1418)">
<g clip-path="url(#clip4_5137_1418)">
<mask id="mask6_5137_1418" style="mask-type:luminance" maskUnits="userSpaceOnUse" x="448" y="262" width="48" height="61">
<path d="M448.251 262.692H495.309V322.194H448.251V262.692Z" fill="white"/>
</mask>
<g mask="url(#mask6_5137_1418)">
<path d="M490.161 275.438C490.139 275.354 490.039 275.114 490.039 275.114L467.693 275.112C466.55 275.11 464.879 275.109 464.725 275.109H464.701C463.631 275.083 463.061 275.338 462.521 275.651C461.987 275.96 461.52 276.432 461.259 276.894C460.998 277.356 460.827 277.811 460.714 278.366C460.608 278.883 460.358 280.978 460.329 281.254C460.346 281.254 481.572 281.253 481.572 281.253C479.293 283.506 476.702 286.047 474.537 288.134C474.234 288.425 473.923 288.726 473.616 289.023H470C470 289.023 470 289.024 470 289.025C467.811 289.025 466.205 289.024 466.193 289.023C465.616 289.025 465.297 289.166 464.985 289.346C464.653 289.539 464.361 289.833 464.199 290.121C464.036 290.409 463.93 290.692 463.86 291.038C463.794 291.36 463.777 291.504 463.734 291.944C463.707 292.226 463.693 292.744 463.669 292.963H469.581C468.928 293.606 468.282 294.243 467.645 294.873C467.336 295.179 467.03 295.48 466.727 295.779H464.965C464.965 295.779 464.965 295.78 464.964 295.781C462.776 295.781 461.171 295.78 461.158 295.779C460.581 295.781 460.263 295.922 459.95 296.103C459.617 296.295 459.327 296.59 459.164 296.877C459.001 297.165 458.895 297.448 458.824 297.794C458.759 298.116 458.742 298.26 458.7 298.7C458.672 298.983 458.657 299.501 458.634 299.719H462.685C462.304 300.09 461.938 300.446 461.597 300.778C460.332 302.011 459.081 303.592 458.281 305.142C457.304 307.035 456.785 309.211 456.664 311.334C456.618 312.143 456.657 312.988 456.767 313.722C456.767 313.722 482.378 313.717 482.442 313.722C483.369 313.719 483.88 313.493 484.382 313.202C484.916 312.893 485.383 312.421 485.644 311.959C485.905 311.497 486.076 311.043 486.189 310.486C486.294 309.97 486.322 309.739 486.39 309.033C486.434 308.578 486.563 307.744 486.599 307.394H463.898C466.12 305.24 468.539 303.032 470.663 300.957C471.085 300.551 471.515 300.136 471.944 299.719H476.776L476.776 299.718C478.965 299.718 480.57 299.718 480.583 299.719C481.16 299.717 481.478 299.576 481.79 299.395C482.123 299.203 482.414 298.909 482.577 298.621C482.739 298.334 482.846 298.05 482.916 297.704C482.982 297.383 482.999 297.238 483.041 296.799C483.069 296.516 483.083 295.997 483.106 295.779H477.149H477.137H475.983C476.521 295.254 477.056 294.733 477.587 294.217C478.039 293.778 478.464 293.366 478.877 292.963H481.81L481.811 292.962C483.999 292.962 485.605 292.962 485.618 292.963C486.195 292.961 486.513 292.82 486.826 292.639C487.158 292.447 487.449 292.153 487.612 291.865C487.774 291.578 487.881 291.294 487.951 290.948C488.017 290.627 488.034 290.483 488.076 290.043C488.104 289.76 488.118 289.242 488.141 289.023H482.891C483.117 288.801 483.338 288.586 483.549 288.38C485.232 286.75 486.673 285.172 487.621 283.899C488.569 282.627 489.129 281.611 489.555 280.596C489.981 279.583 490.218 278.659 490.265 277.824C490.314 276.989 490.355 276.178 490.161 275.438Z" fill="#FFEF04"/>
</g>
</g>
</g>
<g clip-path="url(#clip5_5137_1418)">
<g clip-path="url(#clip6_5137_1418)">
<mask id="mask7_5137_1418" style="mask-type:luminance" maskUnits="userSpaceOnUse" x="386" y="261" width="48" height="61">
<path d="M386.546 261.811H433.603V321.313H386.546V261.811Z" fill="white"/>
</mask>
<g mask="url(#mask7_5137_1418)">
<path d="M428.455 274.556C428.433 274.473 428.333 274.233 428.333 274.233L405.987 274.231C404.844 274.229 403.173 274.228 403.019 274.228H402.995C401.925 274.201 401.355 274.457 400.815 274.769C400.281 275.078 399.814 275.551 399.552 276.012C399.292 276.474 399.121 276.929 399.007 277.485C398.902 278.002 398.652 280.097 398.622 280.372C398.64 280.373 419.866 280.372 419.866 280.372C417.587 282.624 414.996 285.165 412.831 287.252C412.528 287.543 412.217 287.844 411.909 288.141H408.294C408.294 288.141 408.294 288.143 408.294 288.143C406.105 288.143 404.499 288.143 404.487 288.141C403.91 288.144 403.591 288.284 403.279 288.465C402.947 288.657 402.655 288.952 402.493 289.239C402.33 289.527 402.224 289.81 402.154 290.156C402.087 290.478 402.071 290.622 402.028 291.062C402.001 291.345 401.987 291.863 401.963 292.082H407.875C407.222 292.724 406.576 293.362 405.939 293.991C405.63 294.297 405.324 294.599 405.021 294.897H403.259C403.259 294.898 403.259 294.898 403.258 294.899C401.07 294.899 399.465 294.898 399.452 294.897C398.875 294.9 398.557 295.041 398.244 295.221C397.911 295.414 397.621 295.708 397.458 295.995C397.295 296.283 397.189 296.567 397.118 296.913C397.053 297.234 397.036 297.378 396.994 297.818C396.966 298.101 396.951 298.619 396.928 298.838H400.979C400.598 299.208 400.232 299.564 399.891 299.896C398.626 301.129 397.375 302.711 396.575 304.26C395.598 306.154 395.079 308.33 394.958 310.453C394.912 311.261 394.951 312.107 395.061 312.841C395.061 312.841 420.672 312.835 420.736 312.841C421.663 312.837 422.174 312.611 422.676 312.321C423.21 312.012 423.677 311.539 423.938 311.078C424.199 310.616 424.37 310.161 424.483 309.605C424.588 309.089 424.615 308.858 424.684 308.151C424.728 307.696 424.857 306.862 424.893 306.512H402.192C404.414 304.358 406.833 302.15 408.957 300.075C409.378 299.67 409.809 299.254 410.238 298.838H415.07L415.07 298.836C417.259 298.836 418.864 298.836 418.877 298.838C419.454 298.835 419.772 298.695 420.084 298.514C420.417 298.322 420.708 298.028 420.871 297.74C421.033 297.452 421.14 297.169 421.21 296.823C421.276 296.501 421.293 296.357 421.335 295.917C421.362 295.634 421.377 295.116 421.4 294.897H415.443H415.431H414.277C414.815 294.373 415.35 293.852 415.881 293.336C416.333 292.897 416.758 292.484 417.171 292.082H420.104L420.105 292.08C422.293 292.08 423.899 292.08 423.912 292.082C424.489 292.079 424.807 291.939 425.12 291.758C425.452 291.565 425.743 291.271 425.906 290.984C426.068 290.696 426.175 290.412 426.245 290.066C426.311 289.745 426.328 289.601 426.37 289.161C426.398 288.878 426.412 288.36 426.435 288.141H421.185C421.411 287.919 421.632 287.704 421.843 287.498C423.526 285.868 424.967 284.29 425.915 283.018C426.863 281.745 427.423 280.729 427.849 279.715C428.275 278.701 428.512 277.777 428.559 276.942C428.608 276.107 428.649 275.296 428.455 274.556Z" fill="#FFEF04"/>
</g>
</g>
</g>
<defs>
<linearGradient id="paint0_linear_5137_1418" x1="194.033" y1="253.416" x2="193.939" y2="149.936" gradientUnits="userSpaceOnUse">
<stop stop-color="#FDFDFD"/>
<stop offset="0.258" stop-color="#FAFCFD"/>
<stop offset="0.482" stop-color="#EFFAFD"/>
<stop offset="0.693" stop-color="#DDF6FE"/>
<stop offset="0.894" stop-color="#C4F0FF"/>
<stop offset="1" stop-color="#B4ECFF"/>
</linearGradient>
<linearGradient id="paint1_linear_5137_1418" x1="609.651" y1="206.141" x2="608.473" y2="319.369" gradientUnits="userSpaceOnUse">
<stop stop-color="#E6E6E6"/>
<stop offset="0.156" stop-color="#E2E2E2"/>
<stop offset="0.297" stop-color="#D7D7D7"/>
<stop offset="0.433" stop-color="#C5C5C5"/>
<stop offset="0.565" stop-color="#ABABAB"/>
<stop offset="0.695" stop-color="#898989"/>
<stop offset="0.823" stop-color="#606060"/>
<stop offset="0.947" stop-color="#313131"/>
<stop offset="1" stop-color="#1A1A1A"/>
</linearGradient>
<linearGradient id="paint2_linear_5137_1418" x1="568.284" y1="264.028" x2="651.01" y2="264.028" gradientUnits="userSpaceOnUse">
<stop stop-color="#29ABE2"/>
<stop offset="0.281" stop-color="#29A8E0"/>
<stop offset="0.454" stop-color="#29A0DB"/>
<stop offset="0.598" stop-color="#2A91D1"/>
<stop offset="0.726" stop-color="#2B7DC4"/>
<stop offset="0.843" stop-color="#2C62B2"/>
<stop offset="0.951" stop-color="#2D429D"/>
<stop offset="1" stop-color="#2E3192"/>
</linearGradient>
<linearGradient id="paint3_linear_5137_1418" x1="568.288" y1="262.745" x2="650.324" y2="262.745" gradientUnits="userSpaceOnUse">
<stop stop-color="#29ABE2"/>
<stop offset="0.233" stop-color="#2A93D2"/>
<stop offset="0.72" stop-color="#2C57AB"/>
<stop offset="1" stop-color="#2E3192"/>
</linearGradient>
<clipPath id="clip0_5137_1418">
<rect width="117.683" height="22.0379" fill="white" transform="translate(134.872 214.208)"/>
</clipPath>
<clipPath id="clip1_5137_1418">
<rect width="31.0866" height="39.3077" fill="white" transform="translate(209.801 152.944)"/>
</clipPath>
<clipPath id="clip2_5137_1418">
<rect width="44.9574" height="39.6683" fill="white" transform="translate(433.707 209.802)"/>
</clipPath>
<clipPath id="clip3_5137_1418">
<rect width="47.1612" height="43.6351" fill="white" transform="translate(448.251 262.692)"/>
</clipPath>
<clipPath id="clip4_5137_1418">
<rect width="47.0576" height="59.5024" fill="white" transform="translate(448.251 262.692)"/>
</clipPath>
<clipPath id="clip5_5137_1418">
<rect width="36.583" height="43.6351" fill="white" transform="translate(386.545 261.811)"/>
</clipPath>
<clipPath id="clip6_5137_1418">
<rect width="47.0576" height="59.5024" fill="white" transform="translate(386.544 261.811)"/>
</clipPath>
</defs>
</svg>
