<svg width="36" height="36" viewBox="0 0 36 36" fill="none" xmlns="http://www.w3.org/2000/svg">
<rect width="36" height="36" rx="18" fill="#6143F0"/>
<path d="M15.8845 20.7673C17.3211 20.6441 18.7655 20.6441 20.202 20.7673C20.9876 20.82 21.7679 20.9347 22.5356 21.1105C24.1962 21.4448 25.2799 22.1048 25.7344 23.0726C26.0975 23.8768 26.0879 24.8016 25.7082 25.5979C25.245 26.5658 24.1612 27.2257 22.4744 27.5689C21.7093 27.7411 20.932 27.8529 20.1496 27.9032C19.2843 28 18.5502 28 17.8685 28H17.5975C17.2113 27.9581 16.9186 27.63 16.9186 27.2389C16.9186 26.8478 17.2113 26.5197 17.5975 26.4778L18.1955 26.4777C18.7949 26.4706 19.398 26.4426 20.001 26.3898C20.7124 26.3432 21.4194 26.2432 22.1161 26.0906C23.3134 25.8267 24.0651 25.4483 24.301 24.9468C24.4846 24.5631 24.4846 24.1162 24.301 23.7325C24.0651 23.2222 23.3134 22.8263 22.1423 22.5887C21.4348 22.4289 20.7159 22.3259 19.9923 22.2807C18.6403 22.1575 17.2801 22.1575 15.9282 22.2807C15.2139 22.3273 14.504 22.4273 13.8044 22.5799C12.607 22.8439 11.8641 23.2222 11.6194 23.7237C11.5327 23.9142 11.488 24.1213 11.4883 24.3309C11.4878 24.5432 11.5325 24.7533 11.6194 24.9468C12.0354 25.5188 12.6683 25.8915 13.3674 25.9763L13.4688 26.0038C13.6988 26.0837 13.8794 26.2709 13.9497 26.5099C14.0301 26.7829 13.9532 27.0784 13.7502 27.2767C13.5472 27.4751 13.2516 27.5435 12.9829 27.4545C11.8561 27.2695 10.8678 26.5934 10.2822 25.6067C9.90593 24.8076 9.90593 23.8806 10.2822 23.0814C10.7454 22.0872 11.8292 21.4448 13.4985 21.1017C14.2845 20.9305 15.082 20.8188 15.8845 20.7673ZM15.9647 8.40721C17.9547 7.57833 20.2447 8.0384 21.7663 9.57275C23.2879 11.1071 23.7411 13.4133 22.9145 15.4154C22.0879 17.4174 20.1444 18.7207 17.9908 18.7172C15.0546 18.7123 12.677 16.3147 12.677 13.3587L12.6819 13.1272C12.7705 11.0524 14.0458 9.20648 15.9647 8.40721ZM17.9908 9.53114C16.981 9.52882 16.0117 9.93104 15.2969 10.6491C14.582 11.3671 14.1802 12.342 14.1802 13.3587C14.1767 14.9111 15.1029 16.3127 16.5265 16.9092C17.9501 17.5058 19.5906 17.1797 20.6822 16.0833C21.7739 14.9868 22.1015 13.336 21.5122 11.9014C20.9229 10.4668 19.5329 9.53114 17.9908 9.53114Z" fill="white"/>
</svg>
