<svg width="88" height="36" viewBox="0 0 88 36" fill="none" xmlns="http://www.w3.org/2000/svg">
<mask id="mask0_3247_8230" style="mask-type:alpha" maskUnits="userSpaceOnUse" x="0" y="0" width="88" height="36">
<rect x="0.511719" y="0.252686" width="86.5877" height="35.0134" fill="#FCFCFC"/>
</mask>
<g mask="url(#mask0_3247_8230)">
<path opacity="0.08" d="M78.1107 14.3846C85.8046 14.3846 88.0947 25.423 88.0947 25.423V35.2661H-0.234673V0.533936C-0.234673 0.533936 3.64149 6.3695 9.86683 6.3695C16.0922 6.3695 16.2096 10.3771 23.081 10.3771C29.9524 10.3771 28.2492 0.533936 35.5317 0.533936C42.8142 0.533936 42.7554 8.26782 50.9189 8.26782C59.0823 8.26782 60.1394 18.2516 66.7759 18.2516C73.4123 18.2516 70.4167 14.3846 78.1107 14.3846Z" fill="url(#paint0_linear_3247_8230)"/>
<path d="M88.0947 25.423C88.0947 25.423 85.8046 14.3846 78.1107 14.3846C70.4167 14.3846 73.4123 18.2516 66.7759 18.2516C60.1394 18.2516 59.0823 8.26782 50.9189 8.26782C42.7554 8.26782 42.8142 0.533936 35.5317 0.533936C28.2492 0.533936 29.9524 10.3771 23.081 10.3771C16.2096 10.3771 16.0922 6.3695 9.86683 6.3695C3.64149 6.3695 -0.234671 0.533936 -0.234671 0.533936" stroke="#F12705" stroke-width="0.81176"/>
</g>
<defs>
<linearGradient id="paint0_linear_3247_8230" x1="28.8348" y1="-34.8406" x2="57.9671" y2="71.9779" gradientUnits="userSpaceOnUse">
<stop stop-color="#F12705"/>
<stop offset="1" stop-color="#F12705" stop-opacity="0"/>
</linearGradient>
</defs>
</svg>
