<svg width="22" height="22" viewBox="0 0 22 22" fill="none" xmlns="http://www.w3.org/2000/svg">
<path d="M8 15C8 15.5523 7.55229 16 7 16C6.44772 16 6 15.5523 6 15C6 14.4477 6.44772 14 7 14C7.55229 14 8 14.4477 8 15Z" fill="#9AA0A6"/>
<path d="M12 15C12 15.5523 11.5523 16 11 16C10.4477 16 10 15.5523 10 15C10 14.4477 10.4477 14 11 14C11.5523 14 12 14.4477 12 15Z" fill="#9AA0A6"/>
<path d="M15 16C15.5523 16 16 15.5523 16 15C16 14.4477 15.5523 14 15 14C14.4477 14 14 14.4477 14 15C14 15.5523 14.4477 16 15 16Z" fill="#9AA0A6"/>
<path fill-rule="evenodd" clip-rule="evenodd" d="M4.25 7V8.30277C4.02317 8.31872 3.80938 8.33948 3.60825 8.36652C2.70814 8.48754 1.95027 8.74643 1.34835 9.34835C0.746434 9.95027 0.487541 10.7081 0.366524 11.6082C0.249964 12.4752 0.24998 13.5775 0.250001 14.9451V15.0549C0.24998 16.4225 0.249964 17.5248 0.366524 18.3918C0.487541 19.2919 0.746434 20.0497 1.34835 20.6516C1.95027 21.2536 2.70814 21.5125 3.60825 21.6335C4.47522 21.75 5.57754 21.75 6.94513 21.75H15.0549C16.4225 21.75 17.5248 21.75 18.3918 21.6335C19.2919 21.5125 20.0497 21.2536 20.6517 20.6516C21.2536 20.0497 21.5125 19.2919 21.6335 18.3918C21.75 17.5248 21.75 16.4225 21.75 15.0549V14.9451C21.75 13.5775 21.75 12.4752 21.6335 11.6082C21.5125 10.7081 21.2536 9.95027 20.6517 9.34835C20.0497 8.74643 19.2919 8.48754 18.3918 8.36652C18.1906 8.33948 17.9768 8.31872 17.75 8.30277V7C17.75 3.27208 14.7279 0.25 11 0.25C7.27208 0.25 4.25 3.27208 4.25 7ZM11 1.75C8.10051 1.75 5.75 4.10051 5.75 7V8.25344C6.12349 8.24999 6.52152 8.24999 6.94499 8.25H15.0549C15.4783 8.24999 15.8765 8.24999 16.25 8.25344V7C16.25 4.10051 13.8995 1.75 11 1.75ZM3.80812 9.85315C3.07435 9.9518 2.68577 10.1322 2.40901 10.409C2.13225 10.6858 1.9518 11.0743 1.85315 11.8081C1.75159 12.5635 1.75 13.5646 1.75 15C1.75 16.4354 1.75159 17.4365 1.85315 18.1919C1.9518 18.9257 2.13225 19.3142 2.40901 19.591C2.68577 19.8678 3.07435 20.0482 3.80812 20.1469C4.56347 20.2484 5.56459 20.25 7 20.25H15C16.4354 20.25 17.4365 20.2484 18.1919 20.1469C18.9257 20.0482 19.3142 19.8678 19.591 19.591C19.8678 19.3142 20.0482 18.9257 20.1469 18.1919C20.2484 17.4365 20.25 16.4354 20.25 15C20.25 13.5646 20.2484 12.5635 20.1469 11.8081C20.0482 11.0743 19.8678 10.6858 19.591 10.409C19.3142 10.1322 18.9257 9.9518 18.1919 9.85315C17.4365 9.75159 16.4354 9.75 15 9.75H7C5.56459 9.75 4.56347 9.75159 3.80812 9.85315Z" fill="#9AA0A6"/>
</svg>
