<svg width="88" height="36" viewBox="0 0 88 36" fill="none" xmlns="http://www.w3.org/2000/svg">
<mask id="mask0_3247_8284" style="mask-type:alpha" maskUnits="userSpaceOnUse" x="0" y="0" width="88" height="36">
<rect x="0.655273" y="0.125977" width="86.7431" height="35.0762" fill="#FCFCFC"/>
</mask>
<g mask="url(#mask0_3247_8284)">
<path opacity="0.08" d="M9.90919 14.2833C2.20143 14.2833 -0.0927734 25.3414 -0.0927734 25.3414V35.2022H88.3951V0.407715C88.3951 0.407715 84.512 6.25376 78.2755 6.25376C72.039 6.25376 71.9213 10.2685 65.0376 10.2685C58.1539 10.2685 59.8601 0.407715 52.5646 0.407715C45.2691 0.407715 45.3279 8.15548 37.1498 8.15548C28.9717 8.15548 27.9127 18.1571 21.2644 18.1571C14.616 18.1571 17.6169 14.2833 9.90919 14.2833Z" fill="url(#paint0_linear_3247_8284)"/>
<path d="M-0.0927734 25.3414C-0.0927734 25.3414 2.20143 14.2833 9.90919 14.2833C17.6169 14.2833 14.616 18.1571 21.2644 18.1571C27.9127 18.1571 28.9717 8.15548 37.1498 8.15548C45.3279 8.15548 45.2691 0.407715 52.5646 0.407715C59.8601 0.407715 58.1539 10.2685 65.0376 10.2685C71.9213 10.2685 72.039 6.25375 78.2755 6.25375C84.512 6.25375 88.3952 0.407715 88.3952 0.407715" stroke="#25A324" stroke-width="0.813216"/>
</g>
<defs>
<linearGradient id="paint0_linear_3247_8284" x1="23.3135" y1="-63.259" x2="55.6827" y2="106.679" gradientUnits="userSpaceOnUse">
<stop stop-color="#25A324"/>
<stop offset="1" stop-color="#25A324" stop-opacity="0"/>
<stop offset="1" stop-color="#25A324" stop-opacity="0"/>
</linearGradient>
</defs>
</svg>
