<svg width="62" height="62" viewBox="0 0 62 62" fill="none" xmlns="http://www.w3.org/2000/svg">
<path d="M14.6296 25.1377L16.1976 26.0455L16.2094 33.2865L13.4389 34.8898L11.8709 33.9939L11.8591 27.9919C12.8141 27.0606 13.7454 26.1045 14.6296 25.1377ZM20.0998 18.511L21.656 19.4187L21.6796 30.1258L18.9091 31.7291L17.3529 30.8331L17.3294 22.0371C18.3197 20.8346 19.2392 19.6557 20.0998 18.511ZM59.5445 38.923L59.5327 41.6109C59.5327 41.8939 59.3323 42.1768 58.9432 42.389L28.9795 58.8988C28.2014 59.335 26.9164 59.335 26.1147 58.8988L3.53234 46.5282C3.14329 46.316 2.94287 46.0331 2.94287 45.7384L2.95466 43.0504C2.95466 42.7675 3.15508 42.4845 3.54413 42.2605L33.496 25.7861C34.2741 25.3499 35.5591 25.3499 36.349 25.7861L58.9432 38.1331C59.3323 38.3571 59.5445 38.64 59.5445 38.923ZM9.15701 30.4665L10.7132 31.3625L10.7368 36.4566L7.9545 38.06L6.39831 37.1522L6.38653 32.6723C7.33607 31.9708 8.26016 31.2342 9.15701 30.4665ZM25.5618 10.4683L27.118 11.3643L27.1652 26.9663L24.3829 28.5696L22.8267 27.6618L22.7913 14.749C23.7504 13.3458 24.6742 11.9177 25.5618 10.4683ZM4.50024 29.2887L4.33519 28.0509L4.53561 27.8976C13.8739 21.081 21.3389 9.11254 23.4845 5.44489L22.4353 4.83185L25.8306 2.41504L27.3998 3.32282L26.8103 7.34297L25.879 6.81245C24.2509 9.59708 16.1858 22.7917 6.24505 30.0562L6.05643 30.1977L4.50024 29.2887Z" fill="#BAC1CE"/>
<path d="M59.5406 38.9193L59.5288 41.6155C59.5288 41.8985 59.3284 42.1814 58.9429 42.3936L28.9803 58.8927C28.1964 59.3289 26.9137 59.3289 26.1167 58.8927L3.53668 46.5328C3.1382 46.3206 2.93896 46.0377 2.93896 45.743L2.95075 43.0479C2.95075 43.3427 3.15117 43.6256 3.54847 43.8378L58.9546 39.6986C59.3413 39.4864 59.5406 39.2023 59.5406 38.9193Z" fill="#CAD0DD"/>
<path d="M58.9524 39.6975L28.9958 56.1943C28.2059 56.6258 26.9185 56.6258 26.1275 56.1943L3.55686 43.8391C2.75165 43.4065 2.75165 42.7074 3.54271 42.2641L33.4993 25.7803C34.2774 25.3488 35.5636 25.3488 36.3547 25.7803L58.9394 38.1366C59.7293 38.5681 59.7293 39.2661 58.9524 39.6975Z" fill="#E4E8F4"/>
<path d="M40.87 31.0159C43.5391 32.4754 43.5697 34.8262 40.9808 36.2998C40.778 36.189 36.3441 33.764 36.1118 33.6355L40.87 31.0159Z" fill="#748BFD"/>
<path d="M39.2288 31.0206L34.4695 33.6413L39.3302 36.2998L39.2595 36.3387C36.5916 37.8077 32.2472 37.8124 29.5616 36.3434C26.876 34.8745 26.8619 32.4848 29.5298 31.0159C32.1977 29.5469 36.5432 29.5516 39.2288 31.0206Z" fill="#5B5E71"/>
<path d="M48.4719 35.4333L38.4545 40.9483L36.896 40.096L46.9134 34.5809L48.4719 35.4333Z" fill="#6EBA6E"/>
<path d="M48.7114 38.8098L41.6508 42.6967L40.0923 41.8443L47.1529 37.9574L48.7114 38.8098Z" fill="#EFAC41"/>
<path d="M48.9425 42.1814L44.8387 44.4402L43.2896 43.5926L47.3922 41.3337L48.9425 42.1814Z" fill="#4C7891"/>
<path d="M36.962 45.4813L36.3855 45.7996L24.5137 39.3061L25.0913 38.9878L36.962 45.4813ZM42.3933 46.2335L41.8074 46.5565L26.5261 38.1979L27.112 37.8749L42.3933 46.2335ZM31.2842 48.6079L30.7066 48.9262L18.8359 42.4326L19.4136 42.1143L31.2842 48.6079ZM36.7061 49.3647L36.1296 49.683L20.8484 41.3244L21.426 41.0061L36.7061 49.3647ZM25.6065 51.7344L25.0288 52.0515L13.1582 45.5591L13.7347 45.2408L25.6065 51.7344ZM31.0284 52.4913L30.4507 52.8096L15.1695 44.4509L15.7471 44.1326L31.0284 52.4913Z" fill="#CAD0DD"/>
<path d="M25.894 36.7573L22.4739 38.6412L19.0303 36.7573L22.4515 34.8745L25.894 36.7573Z" fill="#6EBA6E"/>
<path d="M20.2164 39.8837L16.7869 41.7724L13.3433 39.8884L16.7728 38.001L20.2164 39.8837Z" fill="#748BFD"/>
<path d="M14.5387 43.0103L11.108 44.8989L7.66553 43.015L11.095 41.1263L14.5387 43.0103Z" fill="#F9607F"/>
<path d="M10.7192 31.3671L9.16301 30.4629C8.26436 31.2319 7.33748 31.9673 6.38428 32.6675L7.94164 33.5717C8.89445 32.8715 9.82094 32.1361 10.7192 31.3671Z" fill="#748BFD"/>
<path d="M7.94164 33.5717L6.38428 32.6675L6.39725 37.1521L7.95461 38.0575L7.94164 33.5717Z" fill="#576CFB"/>
<path d="M10.719 31.3672C9.8207 32.1362 8.89421 32.8715 7.94141 33.5718L7.9532 38.0576L10.7331 36.4531L10.719 31.3672Z" fill="#4562EF"/>
<path d="M16.1912 26.0431C15.2927 27.0211 14.3673 27.9741 13.416 28.9008L13.4325 34.8945L16.2124 33.29L16.1912 26.0431Z" fill="#6EBA6E"/>
<path d="M16.1915 26.0431L14.6353 25.1377C13.7364 26.1161 12.8106 27.0695 11.8589 27.9966L13.4151 28.9008C14.3668 27.9741 15.2926 27.0212 16.1915 26.0431Z" fill="#9AD898"/>
<path d="M13.4163 28.9008L11.8589 27.9966L11.8754 33.9891L13.4328 34.8945L13.4163 28.9008Z" fill="#75CA75"/>
<path d="M27.121 11.3701L25.5637 10.4647C24.6741 11.9151 23.7499 13.344 22.792 14.7501L24.3482 15.6555C25.3065 14.2494 26.2311 12.8205 27.121 11.3701Z" fill="#FED57A"/>
<path d="M24.3494 15.6555L22.792 14.7501L22.8285 27.6653L24.3859 28.5707L24.3494 15.6555Z" fill="#F9BB4A"/>
<path d="M27.1218 11.3701C26.2322 12.8205 25.3081 14.2494 24.3501 15.6555L24.3855 28.5707L27.1654 26.9662L27.1218 11.3701Z" fill="#EFAC41"/>
<path d="M21.6568 19.4128L20.0982 18.5085C19.2012 19.7058 18.2763 20.8819 17.3242 22.0359L18.8816 22.9413C19.8336 21.7869 20.7586 20.6104 21.6556 19.4128H21.6568Z" fill="#4C7891"/>
<path d="M18.8816 22.9413L17.3242 22.0359L17.349 30.8283L18.9063 31.7338L18.8816 22.9413Z" fill="#416E84"/>
<path d="M21.657 19.4128C20.7596 20.6105 19.8343 21.787 18.8818 22.9414L18.9066 31.7338L21.6865 30.1293L21.6559 19.4128H21.657Z" fill="#37617B"/>
<path d="M5.89721 28.9551L4.33984 28.0497L4.499 29.2899L6.05637 30.1953L5.89721 28.9551Z" fill="#E63044"/>
<path d="M27.3947 3.32046L25.8362 2.41504L22.4326 4.83538L23.99 5.73962L27.3947 3.32046Z" fill="#FA5168"/>
<path d="M25.0439 6.34316C22.9077 9.98959 15.4474 21.9734 6.09145 28.8088L5.90046 28.9562L4.33838 28.0508L4.53054 27.9034C13.8854 21.068 21.3468 9.08299 23.483 5.43774L25.0439 6.34316Z" fill="#F34858"/>
<path d="M27.3952 3.32043L23.9917 5.7396L25.0433 6.34557C22.9059 9.98846 15.4456 21.9711 6.09081 28.8113L5.89746 28.9551L6.05662 30.1953L6.24996 30.0515C16.1919 22.7952 24.2475 9.59234 25.8791 6.81007L26.8129 7.34294L27.3952 3.32043Z" fill="#F9607F"/>
</svg>
