<svg width="68" height="68" viewBox="0 0 68 68" fill="none" xmlns="http://www.w3.org/2000/svg">
<g clip-path="url(#clip0_6123_4276)">
<path d="M36.1598 32.504V31.5199C38.4273 30.7154 40.0556 28.5504 40.0556 26.011C40.0556 22.7888 37.434 20.1673 34.2119 20.1673C33.138 20.1673 32.264 19.2932 32.264 18.2194C32.264 17.1455 33.138 16.2715 34.2119 16.2715H38.1077C39.1836 16.2715 40.0556 15.3995 40.0556 14.3236C40.0556 13.2476 39.1836 12.3756 38.1077 12.3756H36.1598V11.7263C36.1598 10.6504 35.2878 9.77844 34.2119 9.77844C33.136 9.77844 32.264 10.6504 32.264 11.7263V12.7104C29.9965 13.515 28.3682 15.68 28.3682 18.2194C28.3682 21.4415 30.9897 24.0631 34.2119 24.0631C35.2858 24.0631 36.1598 24.9371 36.1598 26.011C36.1598 27.0849 35.2858 27.9589 34.2119 27.9589H30.3161C29.2402 27.9589 28.3682 28.8309 28.3682 29.9068C28.3682 30.9827 29.2402 31.8547 30.3161 31.8547H32.264V32.504C32.264 33.5799 33.136 34.4519 34.2119 34.4519C35.2878 34.4519 36.1598 33.5799 36.1598 32.504Z" fill="#654BDC"/>
<path d="M53.2967 46.1706C49.7428 43.824 44.3881 44.0726 39.6553 46.8047C38.3405 47.5641 37.1687 48.4609 36.1658 49.4511V43.5836C47.1426 42.5954 55.7747 33.3454 55.7747 22.1155C55.7747 10.2292 46.1042 0.558716 34.2179 0.558716C22.3317 0.558716 12.6611 10.2292 12.6611 22.1155C12.6611 33.3454 21.2933 42.5954 32.27 43.5836V49.4511C31.2672 48.4609 30.0954 47.5641 28.7805 46.8047C24.0477 44.0726 18.6935 43.8235 15.1391 46.1706C14.6273 46.5085 14.3047 47.0675 14.2676 47.6792C14.0125 51.9306 16.9054 56.4438 21.6382 59.1759C24.2101 60.6607 26.9655 61.412 29.5161 61.412C30.4697 61.412 31.3945 61.3064 32.27 61.0954V65.0993C32.27 66.1752 33.1425 67.0472 34.2179 67.0472C35.2938 67.0472 36.1658 66.1752 36.1658 65.0993V61.0954C37.0419 61.3064 37.9661 61.412 38.9198 61.412C41.4703 61.412 44.2263 60.6607 46.7976 59.1759C51.5304 56.4433 54.4234 51.9306 54.1682 47.6792C54.1312 47.0675 53.8086 46.5085 53.2967 46.1706ZM23.5861 55.8021C20.6455 54.1043 18.5688 51.4071 18.205 48.9464C20.5177 48.0308 23.892 48.4812 26.8326 50.1785C29.7728 51.8764 31.85 54.5735 32.2132 57.0342C29.9006 57.9499 26.5263 57.4994 23.5861 55.8021ZM16.5569 22.1155C16.5569 12.377 24.4794 4.45452 34.2179 4.45452C43.9559 4.45452 51.8789 12.377 51.8789 22.1155C51.8789 31.854 43.9559 39.7765 34.2179 39.7765C24.4794 39.7765 16.5569 31.854 16.5569 22.1155ZM44.8497 55.8021C41.9096 57.4994 38.5353 57.9499 36.2227 57.0342C36.5859 54.5735 38.6631 51.8764 41.6032 50.1785C44.5439 48.4812 47.9182 48.0308 50.2308 48.9464C49.8676 51.4071 47.7904 54.1043 44.8497 55.8021Z" fill="#654BDC"/>
</g>
<defs>
<clipPath id="clip0_6123_4276">
<rect width="66.4885" height="66.4885" fill="white" transform="translate(0.969727 0.558838)"/>
</clipPath>
</defs>
</svg>
