<svg width="699" height="692" viewBox="0 0 699 692" fill="none" xmlns="http://www.w3.org/2000/svg">
<mask id="mask0_7001_6082" style="mask-type:alpha" maskUnits="userSpaceOnUse" x="0" y="0" width="699" height="692">
<rect x="0.555664" y="0.186035" width="697.778" height="691.406" rx="14.2222" fill="#003DF6"/>
</mask>
<g mask="url(#mask0_7001_6082)">
<rect x="0.555664" y="6.44482" width="697.778" height="839.111" rx="14.2222" fill="#6143F0"/>
<circle opacity="0.1" cx="745.444" cy="10.8893" r="292.444" fill="white"/>
<circle opacity="0.1" cx="505.445" cy="-148.222" r="376.889" fill="white"/>
<circle opacity="0.1" cx="122.334" cy="766.445" r="227.556" fill="white"/>
<circle opacity="0.1" cx="257.444" cy="843.778" r="227.556" fill="white"/>
</g>
<path d="M255.506 482.229C343.517 482.229 414.865 410.881 414.865 322.869C414.865 234.858 343.517 163.51 255.506 163.51C167.494 163.51 96.1465 234.858 96.1465 322.869C96.1465 410.881 167.494 482.229 255.506 482.229Z" fill="#D9EBF5"/>
<path d="M412.216 372.869L430.037 359.242L453.1 383.352L487.693 312.068L509.707 347.71L526.479 334.083L542.204 357.146L555.831 344.565L569.459 355.048L599.86 308.924L613.488 326.54V232.398H328.407C322.586 232.398 317.869 237.117 317.869 242.936V385.448H305.19H294.808H363.064L389.154 351.902L412.216 372.869Z" fill="#F4F4F4"/>
<path d="M294.807 230.3H294.806V385.448H294.807V375.065V230.3Z" fill="#31CFCB"/>
<path d="M305.19 385.447H317.869V242.936V232.397H328.407H613.487V219.717C613.487 213.984 608.839 209.334 603.104 209.334H305.188C299.455 209.334 294.806 213.982 294.806 219.717V230.3V375.065C294.807 380.8 299.455 385.447 305.19 385.447Z" fill="#C6C6C6"/>
<path d="M317.869 242.936C317.869 237.115 322.588 232.398 328.407 232.398H317.869V242.936ZM613.489 375.065V326.538L599.862 308.922L569.46 355.047L555.833 344.564L542.206 357.144L526.481 334.081L509.708 347.709L487.694 312.067L453.101 383.35L430.038 359.24L412.217 372.867L389.154 351.902L363.064 385.448H603.106C608.84 385.448 613.489 380.8 613.489 375.065Z" fill="#C6C6C6"/>
<path d="M361.268 226.107H326.888C325.381 226.107 324.16 224.886 324.16 223.379V218.351C324.16 216.845 325.381 215.624 326.888 215.624H361.268C362.774 215.624 363.995 216.845 363.995 218.351V223.379C363.995 224.886 362.774 226.107 361.268 226.107ZM409.488 226.107H375.108C373.602 226.107 372.381 224.886 372.381 223.379V218.351C372.381 216.845 373.602 215.624 375.108 215.624H409.488C410.995 215.624 412.216 216.845 412.216 218.351V223.379C412.216 224.886 410.995 226.107 409.488 226.107ZM458.759 226.107H424.379C422.873 226.107 421.651 224.886 421.651 223.379V218.351C421.651 216.845 422.873 215.624 424.379 215.624H458.759C460.265 215.624 461.487 216.845 461.487 218.351V223.379C461.487 224.886 460.265 226.107 458.759 226.107ZM506.98 226.107H472.599C471.093 226.107 469.872 224.886 469.872 223.379V218.351C469.872 216.845 471.093 215.624 472.599 215.624H506.98C508.486 215.624 509.707 216.845 509.707 218.351V223.379C509.707 224.886 508.486 226.107 506.98 226.107Z" fill="white"/>
<path d="M313.007 252.621C314.626 249.223 313.183 245.157 309.785 243.538C306.388 241.92 302.321 243.362 300.703 246.76C299.084 250.158 300.527 254.225 303.925 255.843C307.323 257.461 311.389 256.019 313.007 252.621Z" fill="white"/>
<path d="M313.007 271.49C314.626 268.092 313.183 264.026 309.785 262.407C306.388 260.789 302.321 262.232 300.703 265.629C299.084 269.027 300.527 273.094 303.925 274.712C307.323 276.33 311.389 274.888 313.007 271.49Z" fill="white"/>
<path d="M313.008 290.359C314.627 286.961 313.184 282.895 309.786 281.277C306.388 279.658 302.322 281.101 300.704 284.499C299.085 287.896 300.528 291.963 303.926 293.581C307.324 295.2 311.39 293.757 313.008 290.359Z" fill="white"/>
<path d="M313.008 309.228C314.627 305.83 313.184 301.764 309.786 300.145C306.388 298.527 302.322 299.969 300.704 303.367C299.085 306.765 300.528 310.831 303.926 312.45C307.324 314.068 311.39 312.626 313.008 309.228Z" fill="white"/>
<path d="M313.006 328.096C314.625 324.698 313.182 320.632 309.784 319.013C306.387 317.395 302.32 318.838 300.702 322.235C299.083 325.633 300.526 329.7 303.924 331.318C307.322 332.936 311.388 331.494 313.006 328.096Z" fill="white"/>
<path d="M313.006 346.965C314.625 343.567 313.182 339.501 309.784 337.882C306.387 336.264 302.32 337.706 300.702 341.104C299.083 344.502 300.526 348.569 303.924 350.187C307.322 351.805 311.388 350.363 313.006 346.965Z" fill="white"/>
<path d="M313.007 365.834C314.626 362.436 313.183 358.37 309.785 356.751C306.388 355.133 302.321 356.575 300.703 359.973C299.084 363.371 300.527 367.437 303.925 369.056C307.323 370.674 311.389 369.232 313.007 365.834Z" fill="white"/>
<path d="M346.821 256.508H330.85C328.892 256.508 327.305 254.92 327.305 252.963V246.425C327.305 244.468 328.892 242.88 330.85 242.88H346.821C348.778 242.88 350.366 244.468 350.366 246.425V252.963C350.366 254.92 348.78 256.508 346.821 256.508ZM346.821 275.377H330.85C328.892 275.377 327.305 273.79 327.305 271.832V265.295C327.305 263.338 328.892 261.75 330.85 261.75H346.821C348.778 261.75 350.366 263.338 350.366 265.295V271.832C350.366 273.79 348.78 275.377 346.821 275.377ZM346.821 294.246H330.85C328.892 294.246 327.305 292.658 327.305 290.7V284.163C327.305 282.206 328.892 280.618 330.85 280.618H346.821C348.778 280.618 350.366 282.206 350.366 284.163V290.7C350.366 292.659 348.78 294.246 346.821 294.246ZM346.821 313.115H330.85C328.892 313.115 327.305 311.527 327.305 309.57V303.033C327.305 301.075 328.892 299.488 330.85 299.488H346.821C348.778 299.488 350.366 301.075 350.366 303.033V309.57C350.366 311.527 348.78 313.115 346.821 313.115ZM346.821 331.985H330.85C328.892 331.985 327.305 330.397 327.305 328.44V321.902C327.305 319.945 328.892 318.357 330.85 318.357H346.821C348.778 318.357 350.366 319.945 350.366 321.902V328.44C350.366 330.397 348.78 331.985 346.821 331.985ZM346.821 350.854H330.85C328.892 350.854 327.305 349.267 327.305 347.309V340.772C327.305 338.815 328.892 337.227 330.85 337.227H346.821C348.778 337.227 350.366 338.815 350.366 340.772V347.309C350.366 349.267 348.78 350.854 346.821 350.854ZM346.821 369.722H330.85C328.892 369.722 327.305 368.135 327.305 366.177V359.64C327.305 357.683 328.892 356.095 330.85 356.095H346.821C348.778 356.095 350.366 357.683 350.366 359.64V366.177C350.366 368.136 348.78 369.722 346.821 369.722Z" fill="#C6C6C6"/>
<path d="M573.41 200.481L583.694 210.755L536.839 254.514L491.18 297.156L454.947 264.932L368.605 325.562C362.014 330.191 358.09 337.74 358.09 345.796V366.609C358.09 366.637 358.09 366.664 358.09 366.694C358.091 370.391 362.446 372.368 365.24 369.946L454.947 292.158L498.713 329.118L562.084 254.515L591.94 219.369L602.118 228.545L623.413 180.203L573.41 200.481Z" fill="#31CFCB"/>
<path d="M232.22 345.154C231.935 345.154 231.669 344.975 231.567 344.692C231.222 343.712 230.906 342.728 230.629 341.767C230.163 340.141 229.972 339.164 229.964 339.123C229.891 338.747 230.136 338.385 230.512 338.313C230.885 338.237 231.25 338.485 231.322 338.861C231.324 338.87 231.51 339.824 231.958 341.384C232.228 342.318 232.536 343.276 232.871 344.231C232.998 344.591 232.808 344.986 232.449 345.114C232.374 345.141 232.297 345.154 232.22 345.154ZM262.527 315.393C262.273 315.393 262.028 315.253 261.908 315.011C261.737 314.669 261.876 314.255 262.218 314.084C264.303 313.043 266.203 311.794 267.863 310.371C268.154 310.122 268.59 310.157 268.838 310.447C269.086 310.736 269.052 311.173 268.763 311.421C267.016 312.918 265.022 314.23 262.835 315.321C262.737 315.37 262.632 315.393 262.527 315.393Z" fill="black"/>
<path d="M446.659 437.903C442.346 453.041 435.87 482.379 432.746 496.857C428.836 514.964 413.034 528.184 394.512 528.481C394.201 528.487 393.89 528.492 393.576 528.492C393.198 528.492 392.826 528.489 392.451 528.481C373.736 528.139 356.714 517.533 347.767 501.092L339.913 486.653V521.959H279.631C284.33 521.959 289.02 521.389 293.562 520.179C297.23 519.201 300.828 517.818 301.782 516.016C303.901 512.017 302.957 504.954 300.724 501.308C300.724 501.308 300.694 501.255 300.663 501.204C301.223 500.904 301.782 500.602 301.782 500.602C306.329 498.151 304.41 483.922 302.311 481.254C302.739 481.057 303.116 480.835 303.43 480.593C308.605 476.594 302.605 461.058 302.605 461.058C302.605 461.058 298.139 455.476 286.811 458.017L274.994 414.601C283.481 409.385 286.723 401.368 287.4 399.453H327.905C327.905 399.453 343.088 398.215 357.738 420.813C371.013 441.281 384.722 462.044 387.185 465.763L402.9 411.244C407.426 422.001 418.721 436.862 446.659 437.903Z" fill="#31CFCB"/>
<path d="M281.135 485.078L197.282 485.265C192.983 485.275 189.183 482.128 187.927 477.516L172.137 419.583C170.221 412.554 174.901 405.446 181.454 405.43L265.307 405.242C269.607 405.233 273.406 408.379 274.663 412.992L290.452 470.925C292.368 477.955 287.688 485.064 281.135 485.078Z" fill="#633434"/>
<path d="M328.813 330.721C326.294 333.372 322.643 334.714 319.231 335.294C319.276 334.748 319.307 334.202 319.328 333.656C319.546 327.851 319.55 319.057 318.298 310.294C320.573 309.917 324.558 309.678 327.643 311.746C329.52 313.004 331.062 315.117 331.678 318.573C332.685 324.236 331.294 328.112 328.813 330.721ZM287.544 373.234V399.029C287.544 399.029 287.5 399.178 287.403 399.451C286.725 401.366 283.482 409.382 274.996 414.598L274.441 412.548C273.286 408.307 269.439 405.364 265.042 405.364H232.771C231.527 402.495 231.296 400.324 231.296 400.324V345.083C231.604 344.882 231.912 344.678 232.223 344.46C235.887 354.862 246.964 376.34 275.662 375.002C280.043 374.8 283.99 374.175 287.544 373.234Z" fill="#FFA896"/>
<path d="M300.037 371.914C300.037 371.914 260.163 417.63 235.058 366.618C219.375 334.749 247.643 335.792 247.643 335.792L300.037 371.914Z" fill="#F66A69"/>
<path d="M318.297 310.294C316.803 299.86 313.534 289.484 306.727 284.271C290.134 271.56 270.54 277.914 270.54 277.914C270.54 277.914 282.896 289.391 273.54 304.747C272.063 307.171 270.294 309.199 268.313 310.896C268.383 311.332 268.435 311.781 268.469 312.243C268.769 316.198 267.619 319.506 265.9 319.639C264.483 319.746 263.123 317.658 262.526 314.703C246.863 322.537 225.053 317.164 225.053 317.164C225.053 317.164 217.752 314.181 211.178 316.006C206.998 317.164 203.11 320.272 201.585 327.328C200.147 333.979 202.063 340.983 206.998 345.663C209.367 347.91 212.516 349.726 216.577 349.967C220.556 350.206 225.42 348.937 231.293 345.086C231.601 344.885 231.909 344.681 232.22 344.463C235.884 354.865 246.961 376.343 275.659 375.005C280.042 374.801 283.991 374.175 287.543 373.235C297.181 370.683 303.929 365.789 308.627 360.546C314.888 353.556 318.534 344.63 319.23 335.296C319.275 334.749 319.306 334.204 319.327 333.657C319.544 327.851 319.549 319.058 318.297 310.294ZM292.882 348.58C291.804 350.577 289.681 351.76 287.597 352.659C285.426 353.596 283.162 354.346 280.846 354.809C279.293 355.12 277.713 355.303 276.127 355.328C273.52 355.367 270.893 354.962 268.446 354.045C265.241 352.849 261.908 350.679 260.695 347.322C260.042 345.524 260.142 343.502 260.857 341.728C261.312 340.581 262.032 339.54 262.965 338.728C263.02 338.681 263.076 338.631 263.134 338.587C263.562 338.234 264.034 337.931 264.534 337.698C264.884 337.536 265.25 337.407 265.631 337.325C266.917 337.045 268.261 337.287 269.519 337.689C272.202 338.542 274.791 339.666 277.421 340.672C280.421 341.819 285.278 342.435 287.218 342.435C288.785 342.435 290.523 342.366 291.881 343.274C292.932 343.977 293.426 345.076 293.454 346.227C293.48 347.024 293.277 347.85 292.882 348.58ZM304.405 318.106C302.691 318.237 301.055 315.137 300.755 311.182C300.458 307.231 301.608 303.92 303.327 303.792C305.045 303.661 306.676 306.761 306.977 310.716C307.274 314.667 306.122 317.978 304.405 318.106Z" fill="#FFA896"/>
<path d="M287.853 331.876C287.013 331.876 286.177 331.749 285.364 331.498C284.725 331.301 284.368 330.625 284.563 329.986C284.76 329.347 285.435 328.99 286.076 329.185C286.688 329.375 287.321 329.467 287.95 329.453C288.573 329.442 289.149 329.153 289.528 328.659C289.907 328.164 290.038 327.536 289.887 326.932L286.017 311.452C285.855 310.804 286.25 310.148 286.898 309.985C287.545 309.823 288.202 310.217 288.366 310.865L292.236 326.344C292.567 327.668 292.28 329.048 291.45 330.131C290.619 331.215 289.359 331.849 287.993 331.873C287.945 331.876 287.899 331.876 287.853 331.876Z" fill="#F66A69"/>
<path d="M327.642 311.746C324.559 309.679 320.572 309.918 318.298 310.294C316.804 299.86 313.534 289.484 306.728 284.271C290.134 271.56 270.541 277.914 270.541 277.914C270.541 277.914 282.896 289.391 273.541 304.747C272.064 307.171 270.294 309.199 268.314 310.896C267.789 307.613 266.336 305.206 264.823 305.32C263.104 305.451 261.954 308.76 262.251 312.715C262.303 313.409 262.396 314.076 262.528 314.703C246.865 322.537 225.055 317.164 225.055 317.164C225.055 317.164 217.754 314.181 211.18 316.006C210.063 312.559 209.213 309.302 208.569 306.482C205.648 293.619 207.909 280.047 215.232 269.076C218.267 264.523 222.394 260.002 227.998 256.029C250.416 240.141 277.777 254.085 277.777 254.085C277.777 254.085 285.015 246.67 298.961 251.261C303.03 252.599 306.771 255.185 310.031 258.174C318.127 265.6 323.298 275.673 324.906 286.541C325.945 293.572 327.126 302.9 327.642 311.746ZM231.295 345.084V399.451H194.634C194.634 399.451 172.569 399.626 161.096 426.812C149.623 453.997 138.148 489.832 138.148 489.832C138.148 489.832 125.614 521.956 167.096 521.956H92.6352C79.2079 503.116 69.4566 478.274 77.5108 449.671C94.2737 390.154 151.121 382.68 184.484 379.237C210.635 376.537 215.638 357.897 216.577 349.964C220.557 350.204 225.422 348.935 231.295 345.084ZM410.553 384.697L402.902 411.242L387.186 465.761C384.725 462.042 371.015 441.28 357.74 420.812C343.09 398.214 327.907 399.452 327.907 399.452H287.402C287.499 399.18 287.544 399.03 287.544 399.03V373.235C297.181 370.683 303.929 365.789 308.628 360.546C314.888 353.555 318.535 344.63 319.231 335.296C322.643 334.715 326.293 333.374 328.813 330.722C330.807 336.83 336.688 349.687 352.091 356.203C367.129 362.563 392.268 365.557 410.553 384.697Z" fill="#282525"/>
<path d="M222.349 335.789C221.681 335.789 221.139 335.247 221.139 334.578C221.139 332.069 220.089 329.51 218.464 328.059C217.766 327.437 216.627 326.729 215.159 326.895C211.997 327.254 211.388 330.71 211.363 330.858C211.254 331.514 210.634 331.962 209.975 331.855C209.318 331.749 208.87 331.135 208.973 330.476C209.267 328.604 210.881 324.945 214.886 324.49C216.753 324.279 218.547 324.887 220.076 326.253C222.224 328.172 223.56 331.361 223.56 334.577C223.558 335.247 223.018 335.789 222.349 335.789Z" fill="#F66A69"/>
<path d="M217.284 337C216.679 337 216.018 336.806 215.399 336.423C213.625 335.326 212.773 333.141 213.118 330.575C213.531 327.515 215.835 325.865 219.437 326.051C220.104 326.085 220.618 326.655 220.583 327.321C220.549 327.988 219.984 328.516 219.312 328.467C215.869 328.289 215.612 330.184 215.516 330.899C215.33 332.276 215.615 333.409 216.315 334.087C216.722 334.479 217.129 334.581 217.281 334.581C217.283 334.581 217.284 334.581 217.284 334.581C217.826 334.275 218.522 334.43 218.878 334.954C219.254 335.507 219.111 336.258 218.559 336.634C218.2 336.88 217.76 337 217.284 337ZM320.734 325.769C320.065 325.769 319.523 325.227 319.523 324.559C319.523 321.647 320.578 318.856 322.212 317.448C323.118 316.668 324.159 316.34 325.227 316.497C327.878 316.891 328.916 319.758 329.111 321.391C329.191 322.055 328.717 322.657 328.053 322.737C327.388 322.814 326.789 322.344 326.709 321.683C326.703 321.64 326.336 319.11 324.872 318.891C324.739 318.871 324.337 318.811 323.792 319.281C322.703 320.219 321.943 322.39 321.943 324.559C321.943 325.227 321.4 325.769 320.734 325.769Z" fill="#F66A69"/>
<path d="M323.712 326.707C323.282 326.707 322.878 326.564 322.561 326.28C322.062 325.837 322.018 325.071 322.461 324.573C322.788 324.206 323.286 324.084 323.725 324.221C323.973 323.992 324.42 323.27 324.26 321.716C324.115 320.299 323.476 320.048 322.564 320.11C321.897 320.153 321.32 319.651 321.275 318.984C321.231 318.317 321.734 317.74 322.401 317.695C324.817 317.532 326.406 318.944 326.665 321.468C326.953 324.26 325.851 325.872 324.722 326.45C324.388 326.622 324.041 326.707 323.712 326.707Z" fill="#F66A69"/>
<path d="M293.456 346.225C278.359 348.417 267.47 341.845 263.135 338.585C263.563 338.233 264.034 337.929 264.535 337.697C264.884 337.535 265.251 337.406 265.631 337.324C266.917 337.044 268.261 337.285 269.52 337.687C272.202 338.541 274.791 339.665 277.421 340.67C280.421 341.818 285.278 342.434 287.219 342.434C288.785 342.434 290.524 342.364 291.882 343.273C292.934 343.975 293.43 345.075 293.456 346.225Z" fill="#F9F9F9"/>
<path d="M293.455 346.225C293.48 347.024 293.275 347.85 292.881 348.58C291.803 350.577 289.679 351.76 287.595 352.659C285.424 353.596 283.16 354.345 280.844 354.809C278.887 347.816 273.335 346.053 270.404 345.611C270.177 345.283 269.927 344.941 269.654 344.583C267.397 341.642 263.528 341.437 260.856 341.728C261.312 340.581 262.031 339.54 262.965 338.728C263.02 338.681 263.076 338.631 263.134 338.587C267.471 341.845 278.36 348.416 293.455 346.225Z" fill="#282525"/>
<path d="M280.845 354.809C279.293 355.12 277.713 355.304 276.127 355.328C273.52 355.367 270.892 354.962 268.445 354.045C265.241 352.849 261.908 350.679 260.694 347.322C260.042 345.525 260.142 343.503 260.856 341.729C263.528 341.437 267.397 341.642 269.654 344.584C269.927 344.939 270.176 345.281 270.404 345.611C273.336 346.053 278.888 347.816 280.845 354.809Z" fill="#DB3A3A"/>
<path d="M227.197 516.485C227.774 518.265 228.414 520.09 229.127 521.956H167.095C125.612 521.956 138.148 489.832 138.148 489.832C138.148 489.832 149.621 453.997 161.096 426.812C172.569 399.626 194.634 399.451 194.634 399.451H231.293V400.325C231.293 400.325 231.524 402.497 232.769 405.366H184.52C178.097 405.366 173.434 411.467 175.122 417.663L188.069 465.23H228.061C223.761 474.041 218.995 491.125 227.197 516.485Z" fill="#31CFCB"/>
<path d="M301.784 500.601C301.784 500.601 301.223 500.901 300.664 501.203C300.695 501.255 300.726 501.306 300.726 501.306C302.959 504.953 303.903 512.015 301.784 516.015C300.829 517.817 297.232 519.198 293.563 520.177C289.02 521.388 284.329 521.958 279.632 521.958H229.127C228.415 520.091 227.774 518.266 227.197 516.486C218.993 491.127 223.761 474.042 228.061 465.23H238.939C240.267 463.173 249.462 451.306 254.378 445.207C257.649 441.155 262.381 438.49 267.567 438.009C269.88 437.795 272.171 438.034 273.893 439.22C276.392 440.944 277.164 443.455 277.278 445.621C277.389 447.71 276.863 449.779 275.861 451.612L269.185 463.807C277.886 464.254 284.223 463.693 288.195 463.088L286.812 458.014C298.14 455.473 302.606 461.055 302.606 461.055C302.606 461.055 308.608 476.591 303.432 480.59C303.117 480.832 302.74 481.054 302.312 481.251C304.411 483.921 306.33 498.149 301.784 500.601ZM470.385 393.71C470.637 392.313 470.648 390.961 470.304 389.741C468.421 383.034 460.248 366.21 454.416 360.322C453.397 359.292 452.031 359.043 450.468 359.337C450.465 357.65 450.693 355.621 451.592 354.085C451.592 354.085 455.005 346.787 459.829 345.492C464.656 344.199 468.419 355.379 468.419 355.379C468.419 355.379 475.599 377.386 476.07 380.798C476.434 383.442 472.271 390.622 470.385 393.71Z" fill="#FFA896"/>
<path d="M470.385 393.71C469.518 398.595 464.761 405.077 462.684 407.721C462.794 408.001 462.901 408.284 463.009 408.571C463.009 408.571 453.949 423.401 449.948 428.697C449.19 429.7 448.037 433.08 446.66 437.903C418.721 436.862 407.427 422.001 402.902 411.244L410.553 384.699L416.171 365.209C416.171 365.209 418.843 352.547 437.725 348.093C440.138 347.527 442.699 348.304 444.293 350.199C445.198 351.27 446.049 352.729 446.534 354.675L451.594 354.087C450.695 355.623 450.467 357.651 450.47 359.339C452.033 359.044 453.397 359.294 454.418 360.324C460.25 366.212 468.422 383.036 470.307 389.743C470.647 390.961 470.636 392.313 470.385 393.71Z" fill="#FFA896"/>
<path d="M384.574 475.517C384.51 475.517 384.446 475.508 384.381 475.49C384.015 475.383 383.802 475 383.908 474.633L386.517 465.589C386.594 465.292 386.865 465.072 387.185 465.072C387.567 465.072 387.877 465.38 387.877 465.761V465.863L385.237 475.018C385.15 475.32 384.872 475.517 384.574 475.517Z" fill="#282525"/>
<path d="M434.998 387.742C428.88 382.682 431.469 374.091 431.469 374.091C431.469 374.091 443.119 360.713 450.468 359.337" fill="#FFA896"/>
<path d="M462.681 407.72C457.562 394.578 448.518 389.049 444.321 387.111H444.318C442.922 386.461 442.061 386.211 442.061 386.211C437.051 386.612 432.534 389.969 429.564 392.799C427.203 395.046 426.436 398.5 427.652 401.528C429.661 406.527 433.146 413.572 436.531 412.573C440.638 411.359 443.116 408.666 443.963 407.605C444.187 407.325 444.298 407.158 444.298 407.158" fill="#FFA896"/>
<path d="M444.319 387.111H444.322C446.002 386.361 447.849 385.2 448.727 383.495M448.034 379.68C448.034 379.68 447.681 385.329 452.888 388.241L448.034 379.68ZM443.974 405.364C443.974 405.364 442.915 409.336 447.151 411.808L443.974 405.364Z" fill="#FFA896"/>
<path d="M188.069 465.92H180.337C179.955 465.92 179.646 465.611 179.646 465.229C179.646 464.847 179.955 464.537 180.337 464.537H188.069C188.451 464.537 188.761 464.847 188.761 465.229C188.761 465.611 188.451 465.92 188.069 465.92ZM304.406 318.106C302.692 318.237 301.056 315.137 300.756 311.182C300.459 307.231 301.609 303.92 303.328 303.792C305.046 303.661 306.677 306.761 306.977 310.716C307.275 314.667 306.123 317.978 304.406 318.106ZM265.902 319.639C264.486 319.746 263.126 317.658 262.528 314.703C262.397 314.078 262.303 313.409 262.251 312.715C261.954 308.76 263.104 305.452 264.823 305.32C266.337 305.206 267.789 307.611 268.314 310.896C268.383 311.332 268.436 311.782 268.47 312.244C268.771 316.198 267.62 319.508 265.902 319.639ZM310.847 297.466C310.604 297.466 310.367 297.336 310.241 297.108C307.903 292.866 305.186 290.482 302.165 290.02C298.096 289.399 294.765 292.535 294.731 292.567C294.456 292.83 294.018 292.823 293.753 292.547C293.49 292.271 293.498 291.835 293.772 291.571C293.926 291.423 297.605 287.932 302.359 288.651C305.832 289.176 308.892 291.797 311.449 296.442C311.634 296.776 311.513 297.196 311.177 297.381C311.074 297.438 310.96 297.466 310.847 297.466Z" fill="#282525"/>
<path d="M250.121 305.232C250.018 305.232 249.912 305.209 249.813 305.16C249.472 304.989 249.333 304.573 249.504 304.233C253.409 296.42 258.062 291.888 263.332 290.762C267.602 289.849 270.981 291.446 272.424 292.127C272.585 292.204 272.766 292.288 272.852 292.322C273.149 292.355 273.402 292.578 273.457 292.887C273.525 293.263 273.275 293.624 272.9 293.691C272.605 293.745 272.381 293.637 271.834 293.379C263.592 289.484 256.494 293.345 250.742 304.852C250.619 305.092 250.374 305.232 250.121 305.232Z" fill="#5B5B5B"/>
<path d="M448.056 360.293L444.708 362.381L469.658 249.119C469.926 247.905 471.125 247.137 472.34 247.405C473.554 247.673 474.321 248.872 474.054 250.088L450.066 359.01C449.864 359.919 448.965 360.493 448.056 360.293Z" fill="#282525"/>
<path d="M470.385 394.401C470.344 394.401 470.303 394.398 470.262 394.39C469.886 394.322 469.637 393.962 469.704 393.586C469.954 392.203 469.932 390.971 469.64 389.927C467.681 382.956 459.527 366.462 453.927 360.809C453.131 360.005 452.042 359.745 450.598 360.017L449.78 360.171L449.778 359.34C449.774 357.011 450.183 355.126 450.997 353.737C451.189 353.408 451.611 353.295 451.942 353.491C452.272 353.683 452.383 354.107 452.188 354.436C451.6 355.44 451.255 356.851 451.177 358.548C452.695 358.436 453.95 358.869 454.908 359.837C460.643 365.626 468.976 382.454 470.97 389.555C471.32 390.802 471.352 392.242 471.064 393.833C471.004 394.167 470.713 394.401 470.385 394.401Z" fill="#F66A69"/>
<path d="M434.999 388.434C434.843 388.434 434.688 388.381 434.558 388.275C428.159 382.982 430.696 374.259 430.807 373.891L430.85 373.748L430.947 373.636C431.429 373.083 442.84 360.061 450.34 358.656C450.719 358.585 451.076 358.833 451.147 359.209C451.218 359.585 450.97 359.945 450.594 360.016C443.92 361.265 433.257 373.114 432.093 374.427C431.809 375.519 430.161 382.845 435.437 387.209C435.732 387.453 435.773 387.888 435.53 388.183C435.396 388.349 435.197 388.434 434.999 388.434Z" fill="#F66A69"/>
<path d="M435.861 413.363C433.074 413.363 430.101 409.477 427.012 401.787C425.686 398.486 426.501 394.763 429.088 392.299C432.088 389.439 436.765 385.942 442.007 385.523L442.133 385.512L442.255 385.547C442.29 385.558 443.125 385.801 444.473 386.419L444.614 386.482C448.478 388.269 458.039 393.888 463.328 407.469C463.467 407.825 463.291 408.225 462.936 408.364C462.582 408.503 462.18 408.327 462.041 407.971C456.993 395.012 447.961 389.581 444.166 387.799L444.029 387.737C442.993 387.255 442.258 387 441.987 386.912C437.201 387.348 432.856 390.619 430.044 393.3C427.868 395.369 427.183 398.499 428.298 401.271C431.224 408.555 434.227 412.533 436.338 411.911C440.245 410.756 442.597 408.215 443.425 407.175C443.626 406.926 443.726 406.778 443.727 406.776C443.94 406.459 444.369 406.374 444.685 406.587C445.002 406.799 445.089 407.227 444.878 407.545C444.864 407.565 444.744 407.745 444.507 408.041C443.596 409.18 441.015 411.972 436.731 413.238C436.44 413.321 436.152 413.363 435.861 413.363Z" fill="#F66A69"/>
<path d="M444.469 387.802H444.321C443.939 387.802 443.628 387.492 443.628 387.11C443.628 386.813 443.814 386.559 444.078 386.462C446.072 385.566 447.466 384.431 448.111 383.177C448.286 382.839 448.704 382.706 449.043 382.879C449.383 383.054 449.515 383.47 449.341 383.81C448.534 385.375 446.94 386.698 444.604 387.74L444.469 387.802Z" fill="#F66A69"/>
<path d="M452.887 388.932C452.773 388.932 452.658 388.905 452.55 388.845C447.026 385.755 447.328 379.885 447.343 379.637C447.367 379.255 447.69 378.966 448.076 378.99C448.457 379.013 448.746 379.341 448.723 379.722C448.711 379.945 448.481 384.984 453.225 387.637C453.557 387.824 453.677 388.246 453.491 388.578C453.365 388.806 453.129 388.932 452.887 388.932ZM447.149 412.499C447.031 412.499 446.911 412.468 446.801 412.405C442.163 409.699 443.293 405.232 443.304 405.187C443.403 404.819 443.78 404.599 444.151 404.697C444.519 404.796 444.738 405.173 444.642 405.541C444.604 405.692 443.798 409.053 447.499 411.212C447.829 411.404 447.939 411.828 447.748 412.157C447.619 412.376 447.388 412.499 447.149 412.499ZM276.815 484.177C276.393 484.177 275.975 484.174 275.561 484.168C275.179 484.161 274.874 483.847 274.88 483.465C274.886 483.083 275.198 482.779 275.583 482.785C287.122 482.962 302.057 480.593 302.206 480.57C302.583 480.509 302.938 480.767 302.998 481.143C303.058 481.52 302.801 481.875 302.425 481.935C302.277 481.958 288.274 484.177 276.815 484.177ZM275.047 504.46C274.625 504.46 274.207 504.457 273.793 504.451C273.411 504.445 273.106 504.131 273.112 503.749C273.119 503.37 273.427 503.068 273.804 503.068C273.807 503.068 273.812 503.068 273.815 503.068C285.348 503.237 300.287 500.877 300.437 500.854C300.812 500.79 301.168 501.049 301.228 501.426C301.288 501.804 301.031 502.158 300.655 502.218C300.509 502.243 286.506 504.46 275.047 504.46Z" fill="#F66A69"/>
</svg>
