<svg width="35" height="35" viewBox="0 0 35 35" fill="none" xmlns="http://www.w3.org/2000/svg">
<g clip-path="url(#clip0_6094_7069)">
<path d="M15.3331 9.61098C15.1367 9.28306 14.7717 9.0948 14.3905 9.12377L6.19784 9.75663C5.36839 9.82075 4.62954 10.2555 4.17062 10.9495L0.732443 16.1497C0.384492 16.6761 0.32911 17.3347 0.584378 17.9116C0.839578 18.4886 1.36416 18.8905 1.98754 18.9871L8.63068 20.0161C8.68237 20.0241 8.73399 20.028 8.7852 20.028C9.12549 20.028 9.44743 19.8554 9.63448 19.5628L15.3176 10.6719C15.5235 10.3498 15.5294 9.93897 15.3331 9.61098Z" fill="#E45A6E"/>
<path d="M25.4638 19.7382C25.1359 19.5418 24.725 19.5478 24.4029 19.7537L15.5121 25.4368C15.1754 25.652 14.9977 26.0458 15.0588 26.4406L16.0876 33.0838C16.1842 33.7072 16.5863 34.2317 17.1633 34.487C17.4032 34.5931 17.6573 34.6455 17.9101 34.6455C18.2651 34.6455 18.6177 34.5421 18.9251 34.3389L24.1254 30.9007C24.8194 30.4419 25.2542 29.703 25.3182 28.8735L25.9511 20.6808C25.9806 20.2997 25.7918 19.9347 25.4638 19.7382Z" fill="#D82E44"/>
<path d="M13.3916 27.9428C13.7929 28.3441 14.363 28.5318 14.9227 28.4382C23.13 27.0658 29.6245 20.2705 32.097 15.4903C34.8425 10.1824 34.9442 4.57319 34.8007 1.94255C34.7515 1.04112 34.0329 0.322563 33.1315 0.273365C30.5009 0.129937 24.8918 0.231627 19.5838 2.97713C14.8036 5.44962 8.00829 11.9442 6.63597 20.1514C6.54241 20.7111 6.73007 21.2812 7.13132 21.6825L13.3916 27.9428Z" fill="#F1F1FB"/>
<path d="M34.285 0.788574L10.2607 24.8128L13.3909 27.943C13.7921 28.3442 14.3623 28.5319 14.922 28.4383C23.1292 27.066 29.6238 20.2707 32.0963 15.4905C34.8418 10.1826 34.9435 4.57343 34.8 1.94279C34.7754 1.49207 34.5834 1.08706 34.285 0.788574Z" fill="#D7D6FB"/>
<path d="M24.0009 16.1109C22.7098 16.1109 21.4193 15.6196 20.4365 14.6368C19.4843 13.6848 18.96 12.4188 18.96 11.0724C18.96 9.72596 19.4843 8.46004 20.4365 7.508C22.4018 5.54261 25.5997 5.54255 27.5652 7.508C28.5173 8.46004 29.0416 9.72596 29.0416 11.0724C29.0416 12.4188 28.5173 13.6848 27.5652 14.6368C26.5826 15.6194 25.2915 16.1107 24.0009 16.1109Z" fill="#466288"/>
<path d="M6.63597 20.1516C6.54241 20.7112 6.73007 21.2814 7.13132 21.6826L13.3916 27.943C13.7929 28.3442 14.363 28.5319 14.9227 28.4383C16.7086 28.1397 18.4132 27.5841 20.0131 26.8486L8.22565 15.0613C7.49016 16.6611 6.93459 18.3658 6.63597 20.1516Z" fill="#466288"/>
<path d="M1.45541 28.5921C1.71336 28.5921 1.97146 28.4936 2.16825 28.2968L5.4598 25.0052C5.85353 24.6116 5.85353 23.9732 5.4598 23.5795C5.06615 23.1857 4.42784 23.1857 4.03404 23.5795L0.74256 26.871C0.348834 27.2647 0.348834 27.9031 0.74256 28.2968C0.939422 28.4937 1.19738 28.5921 1.45541 28.5921Z" fill="#FDB43A"/>
<path d="M8.47507 26.596C8.08141 26.2024 7.44304 26.2024 7.04931 26.596L0.721075 32.9243C0.32735 33.3179 0.32735 33.9563 0.721075 34.35C0.917938 34.5469 1.17596 34.6453 1.43399 34.6453C1.69201 34.6453 1.95004 34.5468 2.14683 34.35L8.47507 28.0217C8.8688 27.6281 8.8688 26.9897 8.47507 26.596Z" fill="#FDB43A"/>
<path d="M11.4959 29.6126C11.1023 29.219 10.4639 29.219 10.0702 29.6126L6.77869 32.9041C6.38497 33.2978 6.38497 33.9361 6.77869 34.3299C6.97556 34.5267 7.23358 34.6252 7.49154 34.6252C7.7495 34.6252 8.00759 34.5267 8.20438 34.3299L11.4959 31.0383C11.8897 30.6447 11.8897 30.0063 11.4959 29.6126Z" fill="#F57A21"/>
<path d="M0.72168 34.35C0.918542 34.5469 1.17657 34.6453 1.43459 34.6453C1.69262 34.6453 1.95064 34.5468 2.14744 34.3499L8.47568 28.0217C8.8694 27.628 8.8694 26.9897 8.47568 26.5959L0.72168 34.35Z" fill="#F57A21"/>
<path d="M10.2607 24.8127L13.3909 27.9428C13.7921 28.3441 14.3623 28.5317 14.922 28.4382C16.7078 28.1396 18.4124 27.584 20.0123 26.8485L14.1187 20.9548L10.2607 24.8127Z" fill="#354A67"/>
<path d="M20.4355 14.6371C21.4184 15.6199 22.7089 16.1113 23.9999 16.1112C25.2906 16.111 26.5817 15.6197 27.5643 14.6371C28.5164 13.685 29.0407 12.4191 29.0407 11.0727C29.0407 9.72627 28.5164 8.46035 27.5643 7.5083L20.4355 14.6371Z" fill="#354A67"/>
<path d="M24.0011 8.04956C23.2266 8.04956 22.4521 8.34435 21.8625 8.934C21.2912 9.50523 20.9766 10.2647 20.9766 11.0726C20.9766 11.8805 21.2912 12.64 21.8625 13.2112C23.0417 14.3904 24.9606 14.3905 26.1398 13.2112C26.7111 12.6399 27.0257 11.8804 27.0257 11.0725C27.0257 10.2647 26.7111 9.50516 26.1398 8.93393C25.5502 8.34435 24.7757 8.04956 24.0011 8.04956Z" fill="#4BBEFD"/>
<path d="M26.1386 8.93408L21.8613 13.2114C23.0406 14.3906 24.9594 14.3907 26.1386 13.2114C26.7098 12.6401 27.0245 11.8806 27.0245 11.0727C27.0245 10.2648 26.7099 9.50531 26.1386 8.93408Z" fill="#0590FB"/>
</g>
<defs>
<clipPath id="clip0_6094_7069">
<rect width="34.4123" height="34.4123" fill="white" transform="translate(0.425781 0.233154)"/>
</clipPath>
</defs>
</svg>
