<svg width="37" height="37" viewBox="0 0 37 37" fill="none" xmlns="http://www.w3.org/2000/svg">
<path fill-rule="evenodd" clip-rule="evenodd" d="M21.5512 33.2446L14.7658 35.9844C13.6306 36.4453 12.41 36.1637 11.7955 35.3784H11.787L11.7784 35.3613C11.676 35.2333 11.5907 35.0882 11.5309 34.9261C9.38859 29.6172 3.12377 17.7703 3.77244 11.8469C5.59044 20.6638 14.2451 26.3823 20.5782 32.7154C20.6977 32.8349 20.8343 32.9374 20.9708 33.0142L20.9794 33.0227C21.1501 33.1166 21.3378 33.1849 21.5341 33.2276L21.5512 33.2446ZM5.59044 2.04001C5.91477 1.67299 7.64741 0.0171677 11.8126 0.921897C15.1925 1.64739 19.1784 2.08268 21.5598 4.464L21.611 4.41279L35.4806 18.2825C35.6001 18.4019 35.7025 18.5385 35.7794 18.6751L35.7879 18.6836C36.2659 19.5542 36.044 20.7918 35.1819 21.6538L30.1974 26.6384L24.9909 31.8449C24.1288 32.7069 22.8912 32.9288 22.0207 32.4508L22.0121 32.4423C21.867 32.3655 21.739 32.2631 21.6195 32.1436L7.74984 18.2739L7.80105 18.2227C5.4112 15.8329 4.98444 11.8555 4.25895 8.47553C3.36275 4.31036 5.01004 2.57772 5.37706 2.25338L5.48801 2.14243L5.59897 2.03147L5.59044 2.04001ZM7.11823 3.78972C7.71569 3.19225 8.6887 3.19225 9.28617 3.78972C9.88363 4.38718 9.88363 5.36019 9.28617 5.95765C8.6887 6.55512 7.71569 6.55512 7.11823 5.95765C6.52077 5.36019 6.52077 4.38718 7.11823 3.78972Z" fill="#6143F1"/>
<g clip-path="url(#clip0_6121_4469)">
<mask id="mask0_6121_4469" style="mask-type:luminance" maskUnits="userSpaceOnUse" x="7" y="4" width="24" height="25">
<path d="M7.67998 13.8568L18.8947 4.28882L30.993 18.4694L19.7783 28.0374L7.67998 13.8568Z" fill="white"/>
</mask>
<g mask="url(#mask0_6121_4469)">
<path d="M20.2598 8.37271C20.2376 8.35736 20.1652 8.32035 20.1652 8.32035L14.8392 12.8634C14.5664 13.0952 14.168 13.4349 14.1312 13.4662L14.1255 13.471C13.8651 13.6824 13.7812 13.8592 13.7162 14.0433C13.6516 14.2255 13.6363 14.4332 13.668 14.5963C13.6997 14.7594 13.7515 14.9027 13.8375 15.0581C13.9175 15.2026 14.2838 15.7528 14.3328 15.8245C14.3371 15.8209 19.3954 11.505 19.3954 11.505C19.3103 12.5052 19.2094 13.6376 19.1179 14.5751C19.1047 14.7061 19.0919 14.8411 19.079 14.9744L18.2174 15.7095C18.2174 15.7095 18.2175 15.7099 18.2176 15.71C17.696 16.155 17.3133 16.4814 17.31 16.4836C17.173 16.6015 17.1258 16.6998 17.088 16.8062C17.0479 16.9198 17.0383 17.0492 17.0581 17.1507C17.0778 17.2523 17.1101 17.3414 17.1637 17.4383C17.2134 17.5284 17.2387 17.566 17.318 17.6796C17.3689 17.7525 17.4709 17.8788 17.5098 17.9357L18.9186 16.7338C18.8938 17.0196 18.8693 17.3029 18.8457 17.5825C18.8341 17.7182 18.8225 17.8523 18.811 17.985L18.391 18.3433C18.3911 18.3435 18.3912 18.3436 18.3913 18.3439C17.8698 18.7889 17.487 19.1151 17.4838 19.1173C17.3468 19.2353 17.2996 19.3336 17.2617 19.4403C17.2217 19.5538 17.2122 19.683 17.2318 19.7845C17.2516 19.8862 17.2838 19.9754 17.3375 20.0722C17.3871 20.1621 17.4123 20.1999 17.4918 20.3134C17.5427 20.3864 17.6446 20.5127 17.6836 20.5696L18.6488 19.746C18.6334 19.9117 18.6187 20.0709 18.605 20.2194C18.5541 20.7705 18.5774 21.4019 18.7019 21.9337C18.8541 22.5835 19.1728 23.2078 19.5756 23.7383C19.729 23.9404 19.9103 24.1339 20.0857 24.2865C20.0857 24.2865 26.1882 19.0776 26.2046 19.0661C26.4248 18.8767 26.5006 18.719 26.561 18.5478C26.6255 18.3655 26.6408 18.158 26.6091 17.9948C26.5775 17.8317 26.5258 17.6886 26.4396 17.533C26.3597 17.3886 26.3192 17.328 26.1921 17.1458C26.11 17.0284 25.971 16.8035 25.9086 16.7126L20.4985 21.3283C20.5899 20.3633 20.7176 19.345 20.8017 18.4188C20.8198 18.2364 20.8378 18.0499 20.8556 17.8633L22.007 16.881L22.0068 16.8805C22.5284 16.4355 22.911 16.1092 22.9142 16.1069C23.0513 15.989 23.0986 15.8909 23.1362 15.7842C23.1765 15.6707 23.1861 15.5414 23.1662 15.4398C23.1464 15.3383 23.1143 15.2491 23.0606 15.1522C23.011 15.0622 22.9856 15.0244 22.9063 14.911C22.8553 14.838 22.7534 14.7116 22.7144 14.6547L21.2946 15.866L21.2919 15.8684L21.0168 16.103C21.0383 15.8687 21.06 15.6358 21.0817 15.4048C21.1002 15.2082 21.1175 15.0237 21.134 14.8437L21.8331 14.2472L21.833 14.2469C22.3545 13.8018 22.7372 13.4754 22.7405 13.4731C22.8776 13.3551 22.9248 13.257 22.9626 13.1502C23.0027 13.0367 23.0122 12.9076 22.9925 12.8061C22.9728 12.7044 22.9405 12.6151 22.8869 12.5183C22.8372 12.4284 22.8119 12.3907 22.7326 12.2772C22.6817 12.2042 22.5797 12.0778 22.5407 12.021L21.2895 13.0885C21.2983 12.9895 21.3071 12.8934 21.3155 12.8013C21.3852 12.0708 21.4079 11.4017 21.3751 10.9056C21.3421 10.4098 21.269 10.0536 21.1644 9.72526C21.0597 9.39712 20.9283 9.12872 20.7698 8.92009C20.6117 8.71128 20.4565 8.50967 20.2598 8.37271Z" fill="white"/>
</g>
</g>
<defs>
<clipPath id="clip0_6121_4469">
<rect width="14.7416" height="18.6402" fill="white" transform="translate(7.67871 13.8588) rotate(-40.4696)"/>
</clipPath>
</defs>
</svg>
