<svg width="37" height="37" viewBox="0 0 37 37" fill="none" xmlns="http://www.w3.org/2000/svg">
<g clip-path="url(#clip0_6121_4412)">
<path d="M30.4714 6.28428C26.8187 2.6317 21.9623 0.620117 16.7967 0.620117C16.0271 0.620117 15.4032 1.24399 15.4032 2.01362V3.6824C11.5413 4.00695 7.95518 5.67636 5.19745 8.45737C2.14373 11.537 0.461914 15.6216 0.461914 19.9589C0.461914 24.3221 2.16108 28.4241 5.24629 31.5094C8.3315 34.5946 12.4335 36.2937 16.7967 36.2937C20.49 36.2937 24.1096 35.0263 26.9889 32.7246C27.59 32.2441 27.6878 31.3673 27.2073 30.7661C26.7268 30.1649 25.8499 30.0671 25.2488 30.5477C22.827 32.4835 19.9044 33.5067 16.7967 33.5067C13.4778 33.5067 10.4339 32.3071 8.07565 30.3187L17.0954 21.6078L32.7113 28.388C32.8921 28.4664 33.0803 28.5036 33.2656 28.5036C33.8037 28.5036 34.3163 28.19 34.5444 27.665C35.6001 25.2348 36.1355 22.6422 36.1355 19.9589C36.1355 14.7933 34.1239 9.93692 30.4714 6.28428ZM15.4032 6.4825V19.3674L6.13924 28.3144C4.32944 26.0109 3.24891 23.1087 3.24891 19.9589C3.24891 12.9833 8.59445 7.18525 15.4032 6.4825ZM32.4893 25.2531L18.1902 19.0448V3.46453C20.6553 3.66861 23.0097 4.41316 25.1147 5.64076L22.3495 7.49648C21.7104 7.92533 21.5401 8.79112 21.9689 9.43011C22.2378 9.83081 22.6784 10.0472 23.1273 10.0472C23.3943 10.0472 23.6641 9.97058 23.9025 9.81067L27.5423 7.36786C27.8713 7.64956 28.191 7.94533 28.5006 8.25497C28.9265 8.68082 29.3263 9.12584 29.6992 9.58799L21.6601 14.983C21.0211 15.4118 20.8507 16.2776 21.2795 16.9166C21.5484 17.3173 21.9891 17.5337 22.4379 17.5337C22.7049 17.5337 22.9747 17.4571 23.2131 17.2972L31.2608 11.8964C31.7659 12.7993 32.1833 13.7463 32.5087 14.7266L28.8496 17.1823C28.2105 17.6111 28.0402 18.4769 28.469 19.1158C28.7379 19.5165 29.1785 19.733 29.6274 19.733C29.8944 19.733 30.1642 19.6563 30.4026 19.4963L33.1867 17.6279C33.294 18.3936 33.3485 19.1719 33.3485 19.9587C33.3485 21.7843 33.0599 23.5593 32.4893 25.2531Z" fill="#654BDC"/>
</g>
<defs>
<clipPath id="clip0_6121_4412">
<rect width="35.6736" height="35.6736" fill="white" transform="translate(0.461914 0.620117)"/>
</clipPath>
</defs>
</svg>
