<svg width="20" height="11" viewBox="0 0 20 11" fill="none" xmlns="http://www.w3.org/2000/svg">
<path d="M1.80426 0.548031C1.6207 0.548031 1.44434 0.591222 1.28237 0.674005C0.846865 0.886359 0.598518 1.34706 0.677701 1.79337C0.73169 2.0921 0.864861 2.37284 1.03403 2.5492C2.83004 4.37401 4.63326 6.17003 6.00096 7.52694C6.24571 7.76809 6.53725 7.89766 6.83958 7.89766C7.15632 7.89766 7.46225 7.76089 7.725 7.49815L10.8203 4.40281L15.0314 8.61751L14.6067 8.62111C14.0668 8.62471 13.3254 8.62831 12.9007 8.63191C12.2312 8.6391 11.7633 9.1034 11.7597 9.76566C11.7597 10.0896 11.8713 10.3811 12.0801 10.5899C12.2888 10.7986 12.5732 10.9102 12.8899 10.9102C13.7465 10.9138 14.5995 10.9138 15.4238 10.9138C16.284 10.9138 17.1406 10.9102 17.9684 10.9102C18.6091 10.9066 19.077 10.4495 19.0806 9.81965C19.0914 8.06323 19.0914 6.332 19.0806 4.67275C19.077 4.04289 18.5983 3.58578 17.9432 3.58578H17.9288C17.2774 3.59298 16.8167 4.05008 16.8059 4.70154C16.7987 5.21264 16.7987 5.73092 16.8023 6.23122C16.8023 6.45077 16.8023 6.67032 16.8023 6.88988V7.01945C16.7843 7.00505 16.7699 6.99066 16.7555 6.97626C15.3302 5.54736 13.9085 4.11487 12.4832 2.68237L11.8893 2.0885C11.5366 1.72858 11.2019 1.55582 10.8743 1.55582C10.5468 1.55582 10.2229 1.72498 9.87734 2.07411L6.83958 5.11906L6.58404 4.86711C6.3177 4.60437 6.06935 4.35602 5.8246 4.11127L4.68005 2.95952C4.02139 2.29726 3.34113 1.6098 2.66808 0.936748C2.41973 0.681202 2.12099 0.548031 1.80426 0.548031Z" fill="#FF0702"/>
</svg>
