<svg width="62" height="62" viewBox="0 0 62 62" fill="none" xmlns="http://www.w3.org/2000/svg">
<path d="M53.2638 42.5766C52.2851 43.4139 50.6696 43.8502 48.948 43.9327C47.6273 44.0035 46.2594 43.8738 45.1156 43.5554C42.4742 42.8478 41.295 40.0178 41.6487 36.209C42.0025 32.4238 45.2099 30.1361 45.4457 29.9828C45.4811 29.9592 45.5047 29.9357 45.5165 29.9121C45.5401 29.8885 45.5519 29.8649 45.5637 29.8413C45.5873 29.8177 45.5873 29.7942 45.5873 29.7706C45.6108 29.6644 45.5755 29.5583 45.5637 29.5111L45.5519 29.4994L45.5401 29.4876C45.3986 29.2871 44.1841 27.7541 43.618 27.0466C43.1464 26.4334 43.2879 25.8556 43.3704 25.6434C43.3939 25.5963 43.4057 25.5609 43.4057 25.5609C43.6887 24.9005 44.6203 25.0184 45.1392 25.2071C45.658 25.3958 45.7995 25.2779 46.8372 24.8298C47.8513 24.3935 48.889 25.1364 49.2899 25.3604C49.6673 25.5963 50.139 25.1246 50.139 25.1246C50.8819 24.6529 51.2238 24.9005 51.6365 25.1717C51.6601 25.1953 51.6719 25.1953 51.6955 25.2071C52.12 25.5019 51.5894 26.4216 51.1885 27.1292C50.8229 27.8014 50.0093 29.0866 49.9149 29.2517C49.8913 29.2754 49.8913 29.2754 49.8913 29.2754C50.1036 29.3461 50.1036 29.6526 50.1036 29.6526C50.2215 29.6762 50.3276 29.6881 50.4338 29.7352C50.705 29.8059 50.9644 29.9121 51.212 30.03C53.4525 31.162 54.7024 34.393 54.9618 36.2915C55.2566 38.5084 54.9972 41.0555 53.2638 42.5766Z" fill="#BAC1CE"/>
<path d="M46.0595 47.294L46.0713 49.9348L36.9087 55.2175L35.1521 56.2314L32.2389 57.9185L25.4825 53.9915L25.4707 51.3495L28.3944 49.6636L30.1522 48.6497L39.3019 43.3669L46.0595 47.294Z" fill="#BAC1CE"/>
<path d="M23.9257 52.706V52.7532C23.9493 52.8357 23.9493 52.9183 23.9493 53.0008L23.9375 54.7106C23.9375 55.0172 23.8549 55.312 23.7134 55.595C23.6545 55.713 23.5837 55.8191 23.5012 55.9252C23.3479 56.1375 23.1356 56.3497 22.888 56.5384C22.8172 56.5974 22.7465 56.6445 22.6757 56.6917C22.5933 56.7625 22.4989 56.8096 22.4045 56.8686C22.2866 56.9275 22.1805 56.9865 22.0508 57.0455C21.9919 57.0808 21.9211 57.1162 21.8386 57.1515C21.638 57.2459 21.4494 57.3167 21.2372 57.3874C21.1664 57.3992 21.0957 57.4346 21.0131 57.4464C20.8245 57.5054 20.6122 57.5525 20.3999 57.5997C20.3292 57.6233 20.2466 57.6233 20.1877 57.6469C19.9754 57.6822 19.775 57.7058 19.5745 57.7176C19.5037 57.7294 19.433 57.7412 19.3622 57.7412C19.15 57.7648 18.9495 57.7766 18.7373 57.7766H18.525C18.3245 57.7766 18.1122 57.753 17.9118 57.7412C17.8528 57.7412 17.7703 57.7294 17.6996 57.7176C17.4991 57.7058 17.2869 57.6704 17.0863 57.6351C17.0156 57.6233 16.933 57.6115 16.8741 57.5879C16.6619 57.5525 16.4614 57.4936 16.2609 57.4346C16.1784 57.4228 16.1077 57.3992 16.0486 57.3756C15.8246 57.3049 15.6242 57.2341 15.4237 57.1398C15.353 57.1162 15.2822 57.0808 15.2115 57.0455C15.0935 56.9865 14.9992 56.9275 14.8931 56.8686C14.7869 56.8096 14.6926 56.7507 14.5983 56.6917C14.5275 56.6445 14.4568 56.5856 14.386 56.5266C14.1384 56.3497 13.9261 56.1375 13.7728 55.9252C13.6903 55.8191 13.6077 55.713 13.5606 55.595C13.3955 55.3002 13.3247 54.9937 13.3247 54.6871V52.9772C13.3247 52.8947 13.3365 52.8239 13.3365 52.7532C13.3247 52.6706 13.3247 52.5763 13.3247 52.4938V50.784C13.3247 49.9938 13.8436 49.2156 14.8694 48.6142C16.933 47.4115 20.2938 47.4115 22.3692 48.6142C23.4186 49.2156 23.9493 50.0175 23.9493 50.8075L23.9375 52.5291C23.9375 52.5881 23.9375 52.647 23.9257 52.706Z" fill="#BAC1CE"/>
<path d="M20.2229 44.4516L10.9308 49.8169C10.4238 50.1117 9.96386 50.147 9.63365 49.9584L9.10307 49.64L7.41675 48.6731C7.07482 48.4726 6.88618 48.0717 6.88618 47.5057L6.86258 45.4421L6.81543 23.851C6.81543 22.719 7.62908 21.3158 8.61956 20.7379L38.2645 3.62787C38.7598 3.3448 39.2197 3.29766 39.5381 3.4981L41.7078 4.75985C41.7314 4.77165 41.7432 4.78346 41.7667 4.79527C42.0969 4.98391 42.2974 5.38486 42.2974 5.96266L42.3328 27.5419V29.6055C42.3446 30.7493 41.5309 32.1526 40.5286 32.7304L29.621 39.0273L29.6328 39.9589L34.6208 42.3998C34.6562 42.4115 34.6798 42.4352 34.7033 42.447C34.8926 42.5588 34.9787 42.7022 34.9625 42.8447C34.9639 42.8332 34.9746 42.8246 34.9746 42.8125L34.9628 44.1921C34.9628 44.3218 34.8803 44.4516 34.7034 44.5577L27.3688 48.8264C27.0151 49.0269 26.449 49.0151 26.107 48.8146C26.0834 48.8028 26.0598 48.791 26.0363 48.7674L20.2229 44.4516Z" fill="#BAC1CE"/>
<path d="M23.2721 54.2758V55.8371C23.2172 55.9391 23.1544 56.0411 23.0759 56.1352V54.5818C23.1544 54.4798 23.2172 54.3778 23.2721 54.2758ZM22.5189 55.1309V56.6923C22.4561 56.7472 22.3933 56.7943 22.3228 56.8335V55.2722C22.3933 55.2329 22.4561 55.1859 22.5189 55.1309Z" fill="#D89B39"/>
<path d="M34.9695 42.8104L34.9646 44.1913C34.9646 44.3231 34.8816 44.4501 34.7058 44.5527L27.3653 48.8212C27.0137 49.0214 26.452 49.0165 26.1102 48.8163C26.0809 48.8017 26.0613 48.787 26.0369 48.7724L19.2817 43.756L19.2866 42.3751L34.7107 43.1718C34.8816 43.0741 34.9695 42.9423 34.9695 42.8104Z" fill="#474B59"/>
<path d="M34.7093 42.4469C35.0495 42.6433 35.058 42.9703 34.7096 43.1727L27.3677 47.4394C27.0178 47.6427 26.4529 47.636 26.1107 47.4384C26.0856 47.4239 26.0616 47.4084 26.0391 47.3918L19.2861 42.3746L26.2635 38.3198L34.6232 42.4032C34.6539 42.4169 34.6826 42.4315 34.7093 42.4469Z" fill="#525566"/>
<path d="M25.1747 45.5668L24.0205 44.8948L24.0063 37.7163L25.1605 38.3871L25.1747 45.5668Z" fill="#363A44"/>
<path d="M29.6158 35.8148L29.63 42.9945L25.1748 45.5669L25.1606 38.3872L29.6158 35.8148Z" fill="#3F434F"/>
<path d="M19.5405 41.4808L30.0012 35.4022L31.0528 36.0094L20.5921 42.0879L19.5405 41.4808Z" fill="#90959F"/>
<path d="M21.0947 42.4133L22.4116 43.1796L30.1913 38.6879L28.8733 37.9227L21.0947 42.4133Z" fill="#4E5161"/>
<path d="M41.7812 4.79918C41.4778 4.63663 9.10237 48.8007 9.10237 48.8007C9.11322 49.375 9.30825 49.7759 9.63328 49.9601L9.10237 49.6458L7.41337 48.6768C7.07748 48.4709 6.88239 48.07 6.88239 47.5066L6.86077 45.4479L6.81738 23.8535C6.81738 22.7158 7.63002 21.318 8.61605 20.7329L38.261 3.62419C38.7595 3.34253 39.2145 3.29915 39.5396 3.49418L41.7812 4.79918Z" fill="#BAC1CE"/>
<path d="M42.3273 27.5414V29.6042C42.3404 30.7532 41.5309 32.1502 40.5256 32.7247L10.9269 49.8155C9.92151 50.4029 9.09896 49.9329 9.09896 48.784V46.7211L9.03369 25.1651C9.03369 24.0161 9.85624 22.6191 10.8485 22.0316L40.4864 4.9278C41.4917 4.35332 42.3012 4.81026 42.3012 5.95922L42.3273 27.5414Z" fill="#5B5E71"/>
<path d="M40.1438 29.7185L10.8345 46.6208L10.9818 24.207L40.3348 7.27405L40.1438 29.7185Z" fill="#FED57A"/>
<path d="M27.8174 38.8964C27.8174 39.2864 27.5466 39.7523 27.2215 39.9365C26.8856 40.1315 26.6147 39.9799 26.6147 39.5898C26.6147 39.2106 26.8748 38.7555 27.2107 38.5605C27.5466 38.3763 27.8174 38.5171 27.8174 38.8964Z" fill="#D4DAE8"/>
<path d="M26.3138 29.7233L25.228 29.0926L31.0343 19.0304L32.1201 19.6611L26.3138 29.7233Z" fill="#F34858"/>
<path d="M30.921 18.9726L29.8364 18.3419L34.0216 14.8275L35.1062 15.4582L30.921 18.9726Z" fill="#F34858"/>
<path d="M23.2262 27.9632L22.1416 27.3336L25.228 29.0926L26.3138 29.7233L23.2262 27.9632Z" fill="#737880"/>
<path d="M16.5736 39.4825L15.4878 38.8518L22.1417 27.3336L23.2263 27.9632L16.5736 39.4825Z" fill="#F34858"/>
<path d="M35.106 15.4583L34.1664 20.8212L32.8991 20.0997L26.3183 31.4964L23.2318 29.7375L17.3513 39.921L16.5732 39.4825L23.2259 27.9632L26.3136 29.7233L32.1198 19.6611L30.9208 18.9726L35.106 15.4583Z" fill="#F9607F"/>
<path d="M23.2721 51.671V53.2323C23.2172 53.3343 23.1544 53.4363 23.0759 53.5305V51.977C23.1544 51.875 23.2172 51.773 23.2721 51.671ZM22.5189 52.5262V54.0876C22.4561 54.1425 22.3933 54.1896 22.3228 54.2288V52.6675C22.3933 52.6282 22.4561 52.5811 22.5189 52.5262Z" fill="#D89B39"/>
<path d="M45.1211 43.5577C46.2625 43.869 47.6285 44.0072 48.9428 43.9381C50.672 43.8517 52.2802 43.4193 53.2658 42.5721C54.9951 41.0503 55.2545 38.5083 54.9604 36.2949C54.7011 34.3927 53.456 31.1591 51.208 30.0351C50.9659 29.9141 50.7066 29.8103 50.4299 29.7411C50.3261 29.6893 50.2224 29.672 50.1013 29.6547C50.1013 29.6547 50.1013 29.3434 49.8938 29.2743C49.8938 29.2743 49.8938 29.2743 49.9111 29.257C50.0149 29.084 50.8277 27.8044 51.1907 27.1301C51.5885 26.421 52.1246 25.5046 51.6923 25.2105C51.675 25.1932 51.6576 25.1932 51.6403 25.176C51.2253 24.8993 50.8795 24.6572 50.1359 25.1241C50.1359 25.1241 49.669 25.591 49.2886 25.3662C48.8909 25.1414 47.8533 24.3978 46.8331 24.8301C45.7955 25.2798 45.6572 25.4008 45.1384 25.2105C44.6197 25.0203 43.6859 24.8993 43.4092 25.5564C43.4092 25.5564 43.3919 25.591 43.3747 25.6428C43.2881 25.8503 43.1499 26.4383 43.6167 27.0435C44.1874 27.7525 45.3979 29.2916 45.5362 29.4818L45.5534 29.4991C45.5534 29.4991 45.6745 29.7239 45.5362 29.8968C45.5189 29.9314 45.4843 29.9486 45.4497 29.9832C45.2077 30.1389 42.0085 32.4215 41.6455 36.2085C41.2996 40.0127 42.4755 42.8487 45.1211 43.5577Z" fill="#4C7891"/>
<path d="M43.3747 25.6428C43.5995 25.7985 43.9808 26.9885 44.5342 27.2306C45.5372 27.6629 46.5055 27.2133 46.9724 26.902C47.4393 26.5908 48.0964 26.6772 48.4941 26.9712C48.9092 27.2479 49.1167 27.3516 50.0677 27.4208C51.0188 27.4726 51.6403 25.176 51.6403 25.176C51.2254 24.8993 50.8795 24.6572 50.1359 25.1241C50.1359 25.1241 49.669 25.591 49.2886 25.3662C48.8909 25.1414 47.8533 24.3978 46.8331 24.8301C45.7955 25.2798 45.6572 25.4008 45.1384 25.2105C44.6197 25.0203 43.6859 24.8993 43.4092 25.5564C43.4092 25.5564 43.3919 25.591 43.3747 25.6428ZM45.1211 43.5577C46.2625 43.869 47.6285 44.0072 48.9428 43.9381C48.6488 43.5404 48.2165 43.2118 47.8015 42.9524C46.9887 42.451 46.055 42.1051 45.3979 41.4134C44.2738 40.203 44.3431 38.3181 44.4986 36.658C44.5851 35.5686 44.7234 34.3754 45.4843 33.5627C46.0377 32.9921 46.8158 32.7154 47.5767 32.4906C48.3376 32.2831 49.1329 32.1101 49.8074 31.6778C50.1532 31.4531 51.0352 30.6403 51.208 30.0351C50.9659 29.9141 50.7066 29.8103 50.4299 29.7411C50.3261 29.6893 50.2224 29.672 50.1013 29.6546C49.4788 29.9486 48.3894 30.7441 47.9571 30.6576C47.2827 30.5193 46.6256 30.2253 45.9685 30.0005C45.8302 29.9486 45.6745 29.9141 45.5362 29.8968C45.5189 29.9314 45.4843 29.9486 45.4497 29.9832C45.2077 30.1389 42.0085 32.4215 41.6455 36.2085C41.2996 40.0127 42.4755 42.8487 45.1211 43.5577Z" fill="#37617B"/>
<path d="M45.4492 29.9832C45.4492 29.9832 46.1236 31.4012 48.7694 30.9516C48.7694 30.9516 49.8588 30.7095 50.4294 29.7411C50.3257 29.6893 50.2219 29.672 50.1009 29.6547C50.1009 29.6547 50.1009 29.3434 49.8933 29.2743C49.8933 29.2743 48.4927 30.7268 45.553 29.4991C45.553 29.4991 45.7086 29.8103 45.4492 29.9832Z" fill="#BAC1CE"/>
<path d="M52.2323 36.6046C52.4469 36.6919 52.5548 36.9375 52.5559 37.3328C52.5571 37.7368 52.4357 38.1324 52.1918 38.5284C51.9403 38.9287 51.612 39.2591 51.2069 39.5106L51.2083 40.0112L50.8261 40.2319L50.8246 39.7224C50.2741 39.9787 49.7841 40.0152 49.3472 39.8276L49.7812 38.9787C50.1185 39.1184 50.4631 39.1217 50.8225 38.9758L50.8187 37.6407C50.3674 37.7781 50.0382 37.801 49.8236 37.7226C49.6166 37.6397 49.5088 37.4028 49.5076 37.0075C49.5065 36.6122 49.6279 36.2167 49.8718 35.8207C50.1081 35.438 50.4211 35.1164 50.8109 34.865L50.8099 34.5224L51.1921 34.3018L51.1931 34.6531C51.6366 34.4323 52.0498 34.3696 52.4406 34.452L52.0525 35.3095C51.792 35.24 51.5011 35.2759 51.1952 35.3997L51.1989 36.6998L51.2142 36.6909C51.6808 36.5447 52.0176 36.5174 52.2323 36.6046ZM51.6629 38.3147C51.7696 38.1475 51.8304 37.9804 51.8299 37.8223C51.8295 37.6642 51.7832 37.5589 51.6912 37.5153C51.6069 37.476 51.4385 37.4853 51.2013 37.5342L51.2048 38.7727C51.3958 38.6448 51.5485 38.4863 51.6629 38.3147ZM50.8163 36.7974L50.8129 35.6028C50.6295 35.7264 50.4921 35.8673 50.3931 36.0301C50.2863 36.1972 50.2408 36.3467 50.2413 36.5048C50.2417 36.6541 50.2802 36.755 50.3569 36.7988C50.4413 36.838 50.5944 36.8376 50.8163 36.7974Z" fill="white"/>
<path d="M25.4756 51.353L25.4827 53.9927L32.2391 57.9185L32.2309 55.2789L25.4756 51.353Z" fill="#75CA75"/>
<path d="M32.2305 55.2789L32.2387 57.9185L46.0652 49.9348L46.0581 47.2964L32.2305 55.2789Z" fill="#6EBA6E"/>
<path d="M25.4756 51.353L32.2309 55.2789L46.0585 47.2963L39.3033 43.3705L25.4756 51.353Z" fill="#9AD898"/>
<path d="M44.5335 47.296L32.2357 54.3962L26.9995 51.3532L39.2973 44.2531L44.5335 47.296ZM31.2526 53.3778C31.8037 53.0596 32.6896 53.0636 33.2303 53.3779L43.7644 47.296L40.2805 45.2713C39.7293 45.5896 38.8434 45.5856 38.3027 45.2713L28.7607 50.7804C29.3015 51.0946 29.3055 51.6078 28.7543 51.926L31.2526 53.3778Z" fill="#6EBA6E"/>
<path d="M37.5108 50.3339C36.7447 50.7781 35.3575 50.6784 34.392 50.1163C33.4309 49.5587 33.2632 48.7518 34.0248 48.3121C34.7818 47.8724 36.178 47.9721 37.1436 48.5297C38.1046 49.0872 38.2678 49.8987 37.5108 50.3339Z" fill="#6EBA6E"/>
<path d="M36.2797 49.6913L35.8083 49.4173C35.5824 49.5019 35.3891 49.545 35.233 49.5521C35.077 49.5593 34.9286 49.5249 34.7904 49.4446C34.6497 49.3628 34.5834 49.2667 34.5963 49.1591C34.6019 49.0501 34.6817 48.9497 34.8358 48.8522L34.7149 48.7819L34.8689 48.693L34.9923 48.7647C35.181 48.6671 35.4117 48.6055 35.6793 48.5768L35.7424 48.7977C35.5566 48.8163 35.3954 48.855 35.2564 48.9182L35.7105 49.1821L35.718 49.1778C35.9488 49.096 36.1422 49.0501 36.3057 49.0415C36.4667 49.0343 36.6224 49.0731 36.7607 49.1534C36.9038 49.2366 36.9652 49.3327 36.9547 49.4417C36.9417 49.5522 36.8569 49.6583 36.7003 49.7573L36.8731 49.8577L36.7191 49.9466L36.5438 49.8448C36.298 49.961 36.0129 50.0255 35.676 50.0398L35.6476 49.8132C35.9002 49.8046 36.1084 49.7616 36.2797 49.6913ZM36.4411 49.6067C36.5083 49.5565 36.5482 49.5077 36.5583 49.4618C36.566 49.4116 36.5415 49.3715 36.4847 49.3385C36.4304 49.3069 36.3661 49.2925 36.2968 49.2925C36.225 49.294 36.1308 49.3141 36.0042 49.3528L36.4411 49.6067ZM35.0925 49.0014C35.0278 49.0501 34.9855 49.0946 34.9852 49.1405C34.9775 49.185 35.0021 49.2222 35.0564 49.2538C35.1132 49.2868 35.1701 49.2997 35.2344 49.3026C35.2963 49.3011 35.3906 49.2811 35.5121 49.2452L35.0925 49.0014Z" fill="#9AD898"/>
<path d="M28.3979 49.666L35.1544 53.5918L36.9098 52.5779L30.1546 48.6521L28.3979 49.666Z" fill="#E4E8F4"/>
<path d="M36.9085 52.5732V55.2176L35.1543 56.235V53.5918L36.9085 52.5732Z" fill="#CAD0DD"/>
<path d="M42.7794 46.7233C42.2282 47.0415 42.2322 47.5546 42.7729 47.8689L43.765 47.2961L42.7794 46.7233Z" fill="#5FA05F"/>
<path d="M23.9451 52.9974L23.9365 54.7151C23.9365 55.0157 23.8592 55.3163 23.7132 55.5997C23.6531 55.7113 23.5844 55.823 23.4985 55.926C23.3439 56.1408 23.1378 56.3469 22.8888 56.5358C22.82 56.596 22.7513 56.6475 22.6741 56.6904C22.5881 56.7591 22.4937 56.8107 22.3992 56.8708C22.2876 56.9309 22.1759 56.991 22.0557 57.0511C21.987 57.0855 21.9183 57.1199 21.841 57.1542C21.6434 57.2401 21.4459 57.3174 21.2312 57.3861C21.1625 57.4032 21.0938 57.429 21.0165 57.4462C20.8189 57.5063 20.6128 57.5579 20.3981 57.6008C20.3294 57.6179 20.2521 57.6265 20.1834 57.6437C19.9773 57.6781 19.7798 57.7039 19.5737 57.7211C19.5049 57.7296 19.4276 57.7382 19.359 57.7382C19.1528 57.764 18.9467 57.7726 18.7406 57.7726H18.5259C18.3197 57.7726 18.1136 57.7554 17.916 57.7382C17.8474 57.7382 17.7701 57.7296 17.7013 57.7211C17.4952 57.7039 17.2891 57.6695 17.083 57.6351C17.0143 57.6265 16.937 57.6094 16.8683 57.5922C16.6622 57.5493 16.4561 57.4977 16.2585 57.4376C16.1812 57.4204 16.1125 57.4032 16.0438 57.3775C15.8291 57.3088 15.623 57.2315 15.4255 57.137C15.3481 57.1112 15.2795 57.0769 15.2107 57.0425C15.0991 56.9824 14.996 56.9309 14.893 56.8707C14.7899 56.8107 14.6869 56.7505 14.6009 56.6904C14.5237 56.6389 14.455 56.5874 14.3862 56.5272C14.1372 56.3469 13.9311 56.1408 13.7765 55.926C13.6906 55.823 13.6133 55.7113 13.5618 55.5911C13.3986 55.2991 13.3213 54.9985 13.3213 54.6893L13.3299 52.963C13.3299 53.2722 13.4072 52.953 13.5618 53.245C13.6219 53.3566 13.6906 53.4683 13.7765 53.5799C13.9311 53.7947 14.1372 54.0008 14.3862 54.1897C14.455 54.2499 14.5237 54.3014 14.6009 54.3529C14.6954 54.4131 14.7899 54.4732 14.893 54.5332C14.996 54.5934 15.0991 54.6449 15.2107 54.705C15.2795 54.7394 15.3481 54.7737 15.4255 54.7995C15.623 54.894 15.8291 54.9713 16.0438 55.04C16.1125 55.0657 16.1898 55.0829 16.2585 55.1001C16.4561 55.1602 16.6622 55.2118 16.8683 55.2547C16.937 55.2719 17.0057 55.289 17.083 55.2976C17.2891 55.332 17.4952 55.3663 17.7013 55.3835C17.7701 55.3921 17.8388 55.4007 17.916 55.4007C18.1136 55.4179 18.3197 55.4351 18.5259 55.4265C18.5946 55.4351 18.6718 55.4351 18.7406 55.4351C18.9467 55.4351 19.1528 55.4265 19.359 55.4007C19.4276 55.4007 19.5049 55.3921 19.5737 55.3835C19.7798 55.3663 19.9859 55.3406 20.1834 55.3062C20.2521 55.289 20.3294 55.2804 20.3981 55.2633C20.6128 55.2203 20.8189 55.1688 21.0165 55.1087C21.0938 55.0915 21.1625 55.0743 21.2312 55.0486C21.4459 54.9799 21.6434 54.9026 21.841 54.8167C21.9183 54.7823 21.987 54.7566 22.0557 54.7222C22.1759 54.6621 22.2962 54.602 22.4078 54.5333C22.5023 54.4817 22.5881 54.4216 22.6741 54.3615C22.7513 54.3185 22.82 54.267 22.8888 54.2069C23.1378 54.018 23.3439 53.8204 23.4985 53.6057C23.5844 53.4941 23.6531 53.3824 23.7132 53.2708C23.8678 52.9788 23.9451 53.298 23.9451 52.9974Z" fill="#F9BB4A"/>
<path d="M23.713 53.8905V55.5996C23.6529 55.7113 23.5842 55.8229 23.4983 55.926V54.2255C23.5842 54.1138 23.6529 54.0022 23.713 53.8905ZM22.8885 54.8266V56.5358C22.8198 56.5959 22.7511 56.6474 22.6738 56.6904V54.9813C22.7511 54.9383 22.8198 54.8868 22.8885 54.8266ZM22.0554 55.342V57.0511C21.9868 57.0854 21.918 57.1198 21.8407 57.1541V55.4364C21.918 55.4021 21.9868 55.3763 22.0554 55.342ZM21.231 55.6683V57.386C21.1623 57.4032 21.0935 57.429 21.0163 57.4462V55.7285C21.0935 55.7113 21.1622 55.6941 21.231 55.6683ZM20.3979 55.8831V57.6008C20.3292 57.6179 20.2519 57.6265 20.1832 57.6437V55.926C20.2519 55.9088 20.3292 55.9002 20.3979 55.8831ZM19.5734 56.0033V57.721C19.5047 57.7295 19.4274 57.7381 19.3587 57.7381V56.0205C19.4274 56.0205 19.5047 56.0118 19.5734 56.0033ZM18.7403 56.0548V57.7725H18.5256V56.0462C18.5943 56.0548 18.6716 56.0548 18.7403 56.0548ZM17.9158 56.0205V57.7381C17.8471 57.7381 17.7698 57.7295 17.7011 57.721V56.0033C17.7698 56.0118 17.8385 56.0205 17.9158 56.0205ZM17.0828 55.9174V57.6351C17.014 57.6265 16.9368 57.6093 16.868 57.5921V55.8745C16.9368 55.8917 17.0054 55.9088 17.0828 55.9174ZM16.2582 55.7199V57.4376C16.181 57.4204 16.1123 57.4032 16.0435 57.3774V55.6597C16.1123 55.6855 16.1896 55.7027 16.2582 55.7199ZM15.4252 55.4192V57.1369C15.3479 57.1112 15.2792 57.0769 15.2105 57.0425V55.3248C15.2792 55.3592 15.3479 55.3935 15.4252 55.4192ZM14.6007 54.9727V56.6904C14.5234 56.6389 14.4547 56.5873 14.386 56.5272V54.8095C14.4547 54.8696 14.5234 54.9212 14.6007 54.9727ZM13.7762 54.1997V55.926C13.6903 55.8229 13.613 55.7113 13.5615 55.591V53.8647C13.6216 53.9764 13.6903 54.0881 13.7762 54.1997Z" fill="#D89B39"/>
<path d="M22.3748 50.8056C24.4528 52.0054 24.4679 53.9532 22.4034 55.153C20.3347 56.3552 16.9719 56.3528 14.8938 55.153C12.8158 53.9532 12.8048 52.0078 14.8735 50.8056C16.938 49.6058 20.2967 49.6058 22.3748 50.8056Z" fill="#FED57A"/>
<path d="M21.6008 51.4548C23.2488 52.2963 23.2607 53.6625 21.6236 54.504C19.9831 55.3472 17.3164 55.3455 15.6685 54.504C14.0206 53.6625 14.0119 52.298 15.6524 51.4548C17.2895 50.6134 19.9529 50.6134 21.6008 51.4548Z" fill="#EFAC41"/>
<path d="M20.5578 52.0807L20.9816 51.8346L20.6591 51.6482L20.2298 51.8979L20.1823 51.8761C19.8622 51.7309 19.5215 51.6565 19.1697 51.6553C19.1674 51.6553 19.165 51.6553 19.1622 51.6553C18.8192 51.6553 18.5129 51.7325 18.2514 51.884C18.0088 52.0253 17.8905 52.1665 17.9 52.3038C17.9111 52.457 18.0369 52.6524 18.2751 52.8855L18.3705 52.9785L17.4533 53.5115L17.3979 53.4521C17.255 53.2982 17.1605 53.0921 17.1161 52.8384L16.3042 52.8843C16.3647 53.1949 16.5456 53.4715 16.8423 53.7065L16.9587 53.7991L16.6223 53.9942L16.9448 54.1806L17.2835 53.9835L17.331 54.0053C17.6705 54.1604 18.0227 54.2403 18.378 54.2431C18.7234 54.2478 19.0439 54.1695 19.309 54.0156C19.5528 53.8739 19.6703 53.7291 19.658 53.5851C19.6438 53.4224 19.5128 53.2187 19.2679 52.9789L19.1729 52.8859L20.064 52.3679L20.119 52.4241C20.2421 52.5496 20.3366 52.7066 20.4011 52.8914L21.1763 52.8103C21.0754 52.563 20.908 52.3489 20.6777 52.1725L20.5578 52.0807ZM18.5806 53.7564C18.4793 53.8154 18.3649 53.8446 18.2387 53.8446C18.1465 53.8446 18.048 53.8292 17.9431 53.7976L17.7196 53.7303L18.6055 53.2155L18.6589 53.2899C18.7333 53.3924 18.7618 53.4802 18.7456 53.5582C18.7309 53.6337 18.6755 53.701 18.5806 53.7564ZM18.9355 52.6501L18.8841 52.5642C18.8346 52.4815 18.8196 52.4016 18.839 52.326C18.8592 52.2477 18.9157 52.1808 19.0071 52.1278C19.1622 52.0368 19.3518 52.0233 19.569 52.0831L19.8001 52.1479L18.9355 52.6501Z" fill="#FED57A"/>
<path d="M23.9451 50.8063L23.9365 52.5239C23.9365 52.8245 23.8592 53.1251 23.7132 53.4085C23.6531 53.5202 23.5844 53.6318 23.4985 53.7349C23.3439 53.9496 23.1378 54.1557 22.8888 54.3447C22.82 54.4048 22.7513 54.4563 22.6741 54.4993C22.5881 54.5679 22.4937 54.6195 22.3992 54.6796C22.2876 54.7397 22.1759 54.7998 22.0557 54.86C21.987 54.8943 21.9183 54.9287 21.841 54.963C21.6434 55.0489 21.4459 55.1262 21.2312 55.1949C21.1625 55.2121 21.0938 55.2379 21.0165 55.255C20.8189 55.3152 20.6128 55.3667 20.3981 55.4096C20.3294 55.4268 20.2521 55.4354 20.1834 55.4526C19.9773 55.4869 19.7798 55.5127 19.5737 55.5299C19.5049 55.5384 19.4276 55.547 19.359 55.547C19.1528 55.5728 18.9467 55.5814 18.7406 55.5814H18.5259C18.3197 55.5814 18.1136 55.5642 17.916 55.547C17.8474 55.547 17.7701 55.5384 17.7013 55.5299C17.4952 55.5127 17.2891 55.4784 17.083 55.444C17.0143 55.4354 16.937 55.4182 16.8683 55.401C16.6622 55.3581 16.4561 55.3066 16.2585 55.2464C16.1812 55.2293 16.1125 55.2121 16.0438 55.1863C15.8291 55.1176 15.623 55.0403 15.4255 54.9458C15.3481 54.9201 15.2795 54.8857 15.2107 54.8514C15.0991 54.7912 14.996 54.7397 14.893 54.6796C14.7899 54.6195 14.6869 54.5594 14.6009 54.4992C14.5237 54.4477 14.455 54.3962 14.3862 54.3361C14.1372 54.1557 13.9311 53.9496 13.7765 53.7349C13.6906 53.6318 13.6133 53.5201 13.5618 53.3999C13.3986 53.1079 13.3213 52.8073 13.3213 52.4981L13.3299 50.7719C13.3299 51.081 13.4072 50.7618 13.5618 51.0538C13.6219 51.1655 13.6906 51.2771 13.7765 51.3888C13.9311 51.6035 14.1372 51.8096 14.3862 51.9986C14.455 52.0587 14.5237 52.1102 14.6009 52.1618C14.6954 52.2219 14.7899 52.282 14.893 52.3421C14.996 52.4022 15.0991 52.4537 15.2107 52.5139C15.2795 52.5482 15.3481 52.5826 15.4255 52.6083C15.623 52.7028 15.8291 52.7801 16.0438 52.8488C16.1125 52.8746 16.1898 52.8918 16.2585 52.9089C16.4561 52.9691 16.6622 53.0206 16.8683 53.0635C16.937 53.0807 17.0057 53.0979 17.083 53.1065C17.2891 53.1408 17.4952 53.1752 17.7013 53.1924C17.7701 53.2009 17.8388 53.2095 17.916 53.2095C18.1136 53.2267 18.3197 53.2439 18.5259 53.2353C18.5946 53.2439 18.6718 53.2439 18.7406 53.2439C18.9467 53.2439 19.1528 53.2353 19.359 53.2095C19.4276 53.2095 19.5049 53.2009 19.5737 53.1924C19.7798 53.1752 19.9859 53.1494 20.1834 53.1151C20.2521 53.0979 20.3294 53.0893 20.3981 53.0721C20.6128 53.0292 20.8189 52.9777 21.0165 52.9176C21.0938 52.9004 21.1625 52.8832 21.2312 52.8574C21.4459 52.7887 21.6434 52.7114 21.841 52.6255C21.9183 52.5912 21.987 52.5654 22.0557 52.5311C22.1759 52.4709 22.2962 52.4108 22.4078 52.3421C22.5023 52.2906 22.5881 52.2304 22.6741 52.1704C22.7513 52.1274 22.82 52.0759 22.8888 52.0158C23.1378 51.8268 23.3439 51.6293 23.4985 51.4146C23.5844 51.3029 23.6531 51.1913 23.7132 51.0796C23.8678 50.7876 23.9451 51.1068 23.9451 50.8063Z" fill="#F9BB4A"/>
<path d="M23.713 51.6995V53.4086C23.6529 53.5202 23.5842 53.6319 23.4983 53.7349V52.0345C23.5842 51.9228 23.6529 51.8111 23.713 51.6995ZM22.8885 52.6356V54.3448C22.8198 54.4049 22.7511 54.4564 22.6738 54.4993V52.7902C22.7511 52.7473 22.8198 52.6957 22.8885 52.6356ZM22.0554 53.1509V54.86C21.9868 54.8944 21.918 54.9288 21.8407 54.9631V53.2454C21.918 53.2111 21.9868 53.1853 22.0554 53.1509ZM21.231 53.4773V55.195C21.1623 55.2121 21.0935 55.2379 21.0163 55.2551V53.5374C21.0935 53.5202 21.1622 53.503 21.231 53.4773ZM20.3979 53.692V55.4097C20.3292 55.4269 20.2519 55.4354 20.1832 55.4527V53.735C20.2519 53.7178 20.3292 53.7092 20.3979 53.692ZM19.5734 53.8123V55.5299C19.5047 55.5385 19.4274 55.5471 19.3587 55.5471V53.8294C19.4274 53.8294 19.5047 53.8208 19.5734 53.8123ZM18.7403 53.8638V55.5815H18.5256V53.8552C18.5943 53.8638 18.6716 53.8638 18.7403 53.8638ZM17.9158 53.8294V55.5471C17.8471 55.5471 17.7698 55.5385 17.7011 55.53V53.8123C17.7698 53.8208 17.8385 53.8294 17.9158 53.8294ZM17.0828 53.7264V55.444C17.014 55.4354 16.9368 55.4183 16.868 55.4011V53.6834C16.9368 53.7006 17.0054 53.7178 17.0828 53.7264ZM16.2582 53.5288V55.2465C16.181 55.2293 16.1123 55.2121 16.0435 55.1864V53.4687C16.1123 53.4944 16.1896 53.5116 16.2582 53.5288ZM15.4252 53.2282V54.9459C15.3479 54.9202 15.2792 54.8858 15.2105 54.8514V53.1338C15.2792 53.1681 15.3479 53.2025 15.4252 53.2282ZM14.6007 52.7816V54.4993C14.5234 54.4478 14.4547 54.3963 14.386 54.3361V52.6185C14.4547 52.6786 14.5234 52.7301 14.6007 52.7816ZM13.7762 52.0087V53.7349C13.6903 53.6319 13.613 53.5202 13.5615 53.4V51.6737C13.6216 51.7854 13.6903 51.897 13.7762 52.0087Z" fill="#D89B39"/>
<path d="M22.3748 48.6146C24.4528 49.8143 24.4679 51.7622 22.4034 52.9619C20.3347 54.1641 16.9719 54.1617 14.8938 52.962C12.8158 51.7622 12.8048 49.8168 14.8735 48.6146C16.938 47.4148 20.2967 47.4148 22.3748 48.6146Z" fill="#FED57A"/>
<path d="M21.6008 49.2638C23.2488 50.1053 23.2607 51.4715 21.6236 52.3129C19.9831 53.1561 17.3164 53.1545 15.6685 52.313C14.0206 51.4715 14.0119 50.107 15.6524 49.2638C17.2895 48.4223 19.9529 48.4223 21.6008 49.2638Z" fill="#EFAC41"/>
<path d="M20.5578 49.8895L20.9816 49.6434L20.6591 49.457L20.2298 49.7067L20.1823 49.6849C19.8622 49.5397 19.5215 49.4653 19.1697 49.4642C19.1674 49.4642 19.165 49.4642 19.1622 49.4642C18.8192 49.4642 18.5129 49.5413 18.2514 49.6929C18.0088 49.8341 17.8905 49.9754 17.9 50.1127C17.9111 50.2658 18.0369 50.4613 18.2751 50.6943L18.3705 50.7873L17.4533 51.3203L17.3979 51.261C17.255 51.107 17.1605 50.9009 17.1161 50.6472L16.3042 50.6932C16.3647 51.0038 16.5456 51.2803 16.8423 51.5154L16.9587 51.608L16.6223 51.8031L16.9448 51.9894L17.2835 51.7924L17.331 51.8141C17.6705 51.9693 18.0227 52.0492 18.378 52.0519C18.7234 52.0567 19.0439 51.9783 19.309 51.8244C19.5528 51.6828 19.6703 51.5379 19.658 51.3939C19.6438 51.2313 19.5128 51.0275 19.2679 50.7877L19.1729 50.6947L20.064 50.1768L20.119 50.233C20.2421 50.3584 20.3366 50.5155 20.4011 50.7003L21.1763 50.6192C21.0754 50.3719 20.908 50.1578 20.6777 49.9813L20.5578 49.8895ZM18.5806 51.5652C18.4793 51.6242 18.3649 51.6535 18.2387 51.6535C18.1465 51.6535 18.048 51.6381 17.9431 51.6064L17.7196 51.5391L18.6055 51.0243L18.6589 51.0987C18.7333 51.2012 18.7618 51.2891 18.7456 51.367C18.7309 51.4426 18.6755 51.5098 18.5806 51.5652ZM18.9355 50.4589L18.8841 50.373C18.8346 50.2903 18.8196 50.2104 18.839 50.1348C18.8592 50.0565 18.9157 49.9896 19.0071 49.9366C19.1622 49.8456 19.3518 49.8321 19.569 49.8919L19.8001 49.9568L18.9355 50.4589Z" fill="#FED57A"/>
</svg>
