<svg width="19" height="11" viewBox="0 0 19 11" fill="none" xmlns="http://www.w3.org/2000/svg">
<path d="M1.90581 10.6487C1.73372 10.6487 1.56837 10.6083 1.41653 10.5306C1.00823 10.3316 0.775404 9.89965 0.84964 9.48123C0.900255 9.20116 1.02511 8.93796 1.1837 8.77262C2.86749 7.06183 4.55803 5.37804 5.84028 4.10591C6.06973 3.87983 6.34306 3.75836 6.6265 3.75836C6.92344 3.75836 7.21026 3.88658 7.45659 4.13291L10.3585 7.03484L14.3065 3.08349L13.9083 3.08012C13.4022 3.07674 12.707 3.07337 12.3089 3.06999C11.6813 3.06324 11.2426 2.62795 11.2392 2.00708C11.2392 1.70339 11.3438 1.43007 11.5395 1.23435C11.7352 1.03864 12.0018 0.934038 12.2988 0.934038C13.1018 0.930664 13.9016 0.930664 14.6743 0.930664C15.4808 0.930664 16.2838 0.934038 17.0599 0.934038C17.6606 0.937413 18.0992 1.36595 18.1026 1.95646C18.1127 3.60314 18.1127 5.22619 18.1026 6.78176C18.0992 7.37227 17.6504 7.80081 17.0363 7.80081H17.0228C16.4121 7.79406 15.9802 7.36552 15.97 6.75477C15.9633 6.27561 15.9633 5.78971 15.9667 5.32067C15.9667 5.11484 15.9667 4.909 15.9667 4.70317V4.58169C15.9498 4.59519 15.9363 4.60869 15.9228 4.62219C14.5866 5.9618 13.2537 7.30478 11.9175 8.64777L11.3607 9.20453C11.03 9.54197 10.7162 9.70393 10.4091 9.70393C10.1021 9.70393 9.79837 9.54534 9.47444 9.21803L6.6265 6.36334L6.38692 6.59955C6.13722 6.84587 5.90439 7.0787 5.67494 7.30816L4.6019 8.38794C3.9844 9.00882 3.34665 9.65332 2.71565 10.2843C2.48282 10.5239 2.20275 10.6487 1.90581 10.6487Z" fill="#0DAD14"/>
</svg>
