<svg width="234" height="235" viewBox="0 0 234 235" fill="none" xmlns="http://www.w3.org/2000/svg">
<path d="M86.4273 90.7326C86.7978 90.8925 100.522 94.2133 97.3553 110.718C96.2566 116.444 93.3879 121.681 89.2998 125.838C82.92 132.325 71.4872 142.55 66.4524 138.3C66.4524 138.3 53.5533 151.558 52.7315 142.235C52.7315 142.235 38.0346 154.703 38.3927 144.132C38.3927 144.132 17.0546 153.048 22.0275 143.75C22.0275 143.75 8.78831 144.868 12.8902 137.838L40.3936 103.516C45.7156 96.8749 52.8579 91.8674 61.001 89.3935C68.0893 87.2401 76.9083 86.6237 86.4273 90.7326Z" fill="white"/>
<path d="M41.2297 149.949C40.5217 149.949 39.8594 149.824 39.2684 149.538C38.08 148.963 37.3177 147.913 36.989 146.405C31.7925 148.418 23.118 151.165 20.5014 148.285C19.8116 147.526 19.5609 146.565 19.749 145.413C16.9408 145.385 12.7087 144.902 11.1318 142.406C10.4822 141.378 10.0223 139.612 11.5222 137.042C11.5614 136.974 11.6054 136.91 11.6542 136.849L39.1577 102.528C44.8061 95.4793 52.1999 90.4143 60.5401 87.8802C69.5805 85.1337 78.4788 85.5958 86.9913 89.2534L87.038 89.268C90.5926 90.36 101.953 95.1565 98.9098 111.018C97.7701 116.958 94.8373 122.467 90.428 126.95C79.4382 138.124 71.4605 142.61 66.6729 140.318C63.8783 143.036 57.8209 148.279 53.9695 146.909C53.2473 146.652 52.4149 146.109 51.835 144.977C49.1874 146.976 44.6705 149.949 41.2297 149.949ZM38.392 142.551C38.7088 142.551 39.0232 142.646 39.2921 142.831C39.7357 143.138 39.9928 143.649 39.9745 144.188C39.9529 144.831 39.9747 146.361 40.647 146.687C42.3155 147.496 47.713 144.414 51.7071 141.029C52.1584 140.647 52.7855 140.548 53.3329 140.773C53.88 140.998 54.2563 141.509 54.3082 142.098C54.3512 142.585 54.5075 143.739 55.0309 143.925C56.6891 144.513 61.6884 140.923 65.3175 137.197C65.8967 136.602 66.838 136.555 67.4733 137.091C70.3521 139.521 78.2816 134.784 88.1702 124.729C92.1399 120.693 94.7783 115.745 95.7997 110.421C98.2772 97.5101 89.8473 93.4438 86.1078 92.2949C85.9418 92.2437 85.838 92.2045 85.7997 92.1881C85.7995 92.1881 85.7995 92.1879 85.7992 92.1879C77.9754 88.811 69.7866 88.3809 61.4607 90.9102C53.7339 93.2576 46.8761 97.9598 41.6287 104.508L14.2018 138.734C13.836 139.383 13.4968 140.22 13.8086 140.714C14.6428 142.036 19.0396 142.413 21.8948 142.174C22.4724 142.126 23.0314 142.397 23.3499 142.882C23.6682 143.367 23.6968 143.987 23.4232 144.498C22.764 145.73 22.8634 146.177 22.8675 146.193C22.8736 146.192 23.17 146.402 24.2441 146.402C25.364 146.402 27.3236 146.165 30.6573 145.186C34.3475 144.103 37.7477 142.687 37.7817 142.673C37.9781 142.591 38.1855 142.551 38.392 142.551Z" fill="#6D4C41"/>
<g opacity="0.2">
<path d="M68.191 133.626C68.191 133.626 62.5999 138.698 57.5035 136.397L53.2368 142.107C53.2368 142.107 54.139 145.303 54.5348 145.303C54.9305 145.303 61.2639 144.115 61.2639 144.115L65.1485 139.697L68.3889 136.199L68.191 133.626Z" fill="#6D4C41"/>
</g>
<path d="M78.9884 118.705C78.9884 118.705 73.1322 133.168 66.4541 138.308L78.9884 118.705Z" fill="white"/>
<path d="M78.9889 118.705C78.3611 120.563 77.6502 122.395 76.8951 124.212C76.1374 126.029 75.3254 127.829 74.4225 129.595C73.5202 131.361 72.5619 133.111 71.4279 134.789C70.2927 136.464 69.0527 138.109 67.4203 139.562C66.7654 140.145 65.7621 140.087 65.1792 139.432C64.5964 138.777 64.6547 137.774 65.3096 137.191C65.3625 137.144 65.4178 137.101 65.4749 137.062L65.4889 137.053C66.9395 136.083 68.2861 134.754 69.5428 133.344C70.8084 131.93 71.9576 130.376 73.0614 128.786C74.1672 127.195 75.2004 125.543 76.1867 123.859C77.1705 122.174 78.1179 120.46 78.9889 118.705Z" fill="#6D4C41"/>
<path d="M63.053 127.084C63.053 127.084 54.8492 141.145 51.0005 143.87L63.053 127.084Z" fill="white"/>
<path d="M63.054 127.084C61.5243 130.197 59.9087 133.269 58.1907 136.305C57.3224 137.818 56.4271 139.322 55.4617 140.805C54.964 141.541 54.4667 142.28 53.905 143.004C53.352 143.73 52.732 144.45 51.9163 145.162C51.2555 145.739 50.2522 145.671 49.6752 145.01C49.0982 144.349 49.1661 143.346 49.8269 142.769C49.8725 142.729 49.9196 142.692 49.9682 142.659L50.0867 142.577L50.5095 142.286L50.7262 142.141C50.7996 142.085 50.8737 142.016 50.9478 141.953C51.2422 141.691 51.5492 141.461 51.839 141.158C52.4333 140.596 53.0053 139.976 53.5798 139.357C54.7108 138.091 55.8046 136.766 56.8783 135.419C59.011 132.713 61.0711 129.926 63.054 127.084Z" fill="#6D4C41"/>
<path d="M52.8845 124.387C52.8845 124.387 43.7172 144.083 35.3337 145.065L52.8845 124.387Z" fill="white"/>
<path d="M52.8861 124.387C52.0018 126.542 51.017 128.659 49.9579 130.744C48.8953 132.828 47.7525 134.878 46.4813 136.868C45.202 138.853 43.8143 140.793 42.1281 142.564C41.2827 143.447 40.3704 144.297 39.2957 145.026C38.2266 145.75 36.9879 146.386 35.5196 146.638L35.4884 146.643C34.6243 146.791 33.804 146.21 33.6561 145.346C33.5082 144.482 34.0889 143.661 34.953 143.514C35.0163 143.503 35.0884 143.496 35.1509 143.492C35.9994 143.455 36.9407 143.141 37.852 142.661C38.7686 142.186 39.654 141.539 40.5017 140.833C42.2024 139.414 43.7473 137.716 45.1973 135.942C46.6444 134.159 47.994 132.278 49.2737 130.346C50.5507 128.411 51.7644 126.427 52.8861 124.387Z" fill="#6D4C41"/>
<path d="M40.4204 126.604C40.4204 126.604 27.2683 144.168 18.6562 143.661L40.4204 126.604Z" fill="white"/>
<path d="M40.4216 126.604C39.0882 128.564 37.6621 130.465 36.1709 132.32C34.6753 134.172 33.109 135.975 31.4278 137.692C29.7411 139.402 27.957 141.046 25.9182 142.464C24.8963 143.169 23.8193 143.832 22.6103 144.347C21.4065 144.857 20.0624 145.252 18.5645 145.242L18.5363 145.242C17.6599 145.236 16.9539 144.521 16.9595 143.645C16.9652 142.768 17.6802 142.062 18.5568 142.068C18.6191 142.068 18.6898 142.074 18.7503 142.081C19.6247 142.194 20.6369 142.052 21.6479 141.749C22.6636 141.448 23.6784 140.977 24.6696 140.444C26.6578 139.37 28.5475 137.993 30.3596 136.523C32.1713 135.045 33.9055 133.449 35.5828 131.79C37.2567 130.127 38.8793 128.403 40.4216 126.604Z" fill="#6D4C41"/>
<g opacity="0.2">
<path d="M38.163 129.902C38.163 129.902 22.2736 138.777 15.1486 134.027L12.2695 139.487L15.7029 143.207L19.8516 143.636C19.8516 143.636 30.6984 139.236 38.163 129.902Z" fill="#6D4C41"/>
</g>
<g opacity="0.2">
<path d="M49.5847 130.455C49.5847 130.455 43.6472 139.559 29.7932 138.768L23.6578 142.132L20.887 146.091L25.2411 146.882L33.1578 145.695C33.1578 145.695 44.6369 143.32 49.5847 130.455Z" fill="#6D4C41"/>
</g>
<g opacity="0.2">
<path d="M60.0035 131.875C60.0035 131.875 51.5908 139.691 45.6396 136.859L42.8548 140.157L39.7035 142.795L38.531 144.92L40.2821 149.266L45.8595 147.045L51.7956 143.381C51.7956 143.381 58.746 137.047 60.0035 131.875Z" fill="#6D4C41"/>
</g>
<path d="M158.096 90.7316C157.726 90.8915 144.001 94.2123 147.168 110.717C148.267 116.443 151.135 121.68 155.224 125.837C161.603 132.324 173.036 142.549 178.071 138.299C178.071 138.299 190.97 151.557 191.792 142.234C191.792 142.234 206.489 154.702 206.131 144.131C206.131 144.131 227.469 153.047 222.496 143.749C222.496 143.749 235.735 144.867 231.633 137.837L204.13 103.515C198.808 96.8739 191.665 91.8664 183.522 89.3926C176.434 87.2391 167.615 86.6227 158.096 90.7316Z" fill="white"/>
<path d="M203.293 149.948C199.852 149.949 195.335 146.975 192.687 144.975C192.107 146.108 191.275 146.651 190.553 146.908C186.702 148.278 180.644 143.034 177.849 140.317C173.062 142.609 165.084 138.123 154.094 126.949C149.685 122.466 146.752 116.956 145.612 111.017C142.569 95.1553 153.93 90.359 157.484 89.2669L157.531 89.2524C166.044 85.5945 174.942 85.133 183.982 87.8791C192.322 90.4132 199.716 95.4782 205.364 102.527L232.868 136.848C232.917 136.909 232.961 136.973 233 137.041C234.5 139.611 234.04 141.377 233.39 142.405C231.813 144.901 227.581 145.384 224.773 145.412C224.961 146.564 224.711 147.525 224.021 148.284C221.404 151.163 212.729 148.417 207.533 146.404C207.204 147.912 206.442 148.962 205.254 149.537C204.663 149.822 204 149.948 203.293 149.948ZM191.791 140.653C192.16 140.653 192.524 140.781 192.815 141.028C196.809 144.413 202.206 147.494 203.875 146.686C204.547 146.36 204.569 144.83 204.548 144.187C204.529 143.648 204.787 143.137 205.23 142.83C205.674 142.524 206.243 142.465 206.74 142.672C206.774 142.686 210.196 144.11 213.888 145.192C220.299 147.072 221.614 146.202 221.677 146.155C221.664 146.148 221.738 145.692 221.099 144.497C220.825 143.986 220.853 143.365 221.172 142.88C221.491 142.395 222.049 142.122 222.628 142.173C225.483 142.411 229.879 142.035 230.713 140.713C231.025 140.219 230.686 139.382 230.32 138.733L202.893 104.507C197.646 97.9588 190.788 93.2567 183.061 90.9093C174.735 88.3797 166.546 88.8093 158.723 92.187C158.723 92.187 158.723 92.1871 158.722 92.1871C158.684 92.2035 158.58 92.2428 158.414 92.2939C154.675 93.4429 146.245 97.5092 148.722 110.42C149.744 115.745 152.382 120.692 156.352 124.728C166.241 134.784 174.173 139.52 177.049 137.09C177.684 136.554 178.625 136.6 179.205 137.196C182.834 140.922 187.833 144.511 189.491 143.924C190.014 143.738 190.171 142.584 190.214 142.097C190.266 141.508 190.642 140.997 191.189 140.772C191.384 140.692 191.588 140.653 191.791 140.653Z" fill="#6D4C41"/>
<g opacity="0.2">
<path d="M176.331 133.63C176.331 133.63 181.922 138.702 187.019 136.401L191.286 142.111C191.286 142.111 190.383 145.307 189.988 145.307C189.592 145.307 183.258 144.119 183.258 144.119L179.374 139.701L176.134 136.203L176.331 133.63Z" fill="#6D4C41"/>
</g>
<path d="M165.536 118.69C165.536 118.69 171.392 133.153 178.07 138.293L165.536 118.69Z" fill="white"/>
<path d="M165.536 118.69C166.407 120.445 167.354 122.159 168.338 123.844C169.324 125.528 170.358 127.18 171.464 128.771C172.567 130.361 173.717 131.915 174.982 133.329C176.239 134.739 177.586 136.068 179.036 137.038L179.043 137.042C179.771 137.53 179.967 138.516 179.479 139.244C178.992 139.973 178.006 140.169 177.278 139.681C177.219 139.642 177.156 139.593 177.105 139.548C175.472 138.095 174.232 136.449 173.097 134.774C171.963 133.097 171.005 131.346 170.102 129.58C169.199 127.814 168.387 126.014 167.63 124.197C166.875 122.38 166.164 120.548 165.536 118.69Z" fill="#6D4C41"/>
<path d="M181.47 127.084C181.47 127.084 189.674 141.146 193.523 143.87L181.47 127.084Z" fill="white"/>
<path d="M181.47 127.084C183.453 129.927 185.513 132.713 187.646 135.42C188.72 136.766 189.814 138.091 190.945 139.357C191.519 139.977 192.091 140.597 192.685 141.158C192.975 141.461 193.282 141.692 193.577 141.954C193.651 142.016 193.725 142.085 193.798 142.141L194.015 142.286L194.438 142.578L194.555 142.659C195.277 143.157 195.458 144.146 194.96 144.868C194.462 145.59 193.473 145.771 192.751 145.273C192.701 145.239 192.653 145.201 192.608 145.162C191.792 144.45 191.172 143.731 190.619 143.005C190.058 142.28 189.56 141.542 189.062 140.806C188.097 139.322 187.202 137.819 186.334 136.305C184.616 133.27 183 130.197 181.47 127.084Z" fill="#6D4C41"/>
<path d="M191.638 124.395C191.638 124.395 200.805 144.09 209.189 145.073L191.638 124.395Z" fill="white"/>
<path d="M191.638 124.395C192.76 126.435 193.973 128.419 195.25 130.354C196.53 132.286 197.88 134.167 199.327 135.95C200.777 137.724 202.322 139.422 204.022 140.841C204.87 141.547 205.755 142.193 206.672 142.669C207.583 143.149 208.525 143.463 209.373 143.5C210.249 143.539 210.928 144.28 210.889 145.156C210.85 146.032 210.109 146.71 209.233 146.672C209.169 146.669 209.106 146.662 209.044 146.652L209.004 146.645C207.536 146.394 206.297 145.758 205.228 145.034C204.153 144.305 203.241 143.454 202.396 142.572C200.71 140.8 199.322 138.861 198.043 136.876C196.771 134.886 195.629 132.835 194.566 130.752C193.507 128.667 192.522 126.55 191.638 124.395Z" fill="#6D4C41"/>
<path d="M204.098 126.6C204.098 126.6 217.25 144.164 225.862 143.658L204.098 126.6Z" fill="white"/>
<path d="M204.098 126.6C205.64 128.399 207.263 130.123 208.937 131.787C210.614 133.446 212.348 135.042 214.16 136.52C215.972 137.99 217.862 139.366 219.85 140.44C220.841 140.973 221.856 141.445 222.872 141.745C223.883 142.049 224.895 142.191 225.769 142.078C226.638 141.965 227.434 142.578 227.547 143.448C227.66 144.317 227.046 145.113 226.177 145.225C226.115 145.234 226.053 145.238 225.992 145.239L225.955 145.239C224.457 145.248 223.113 144.853 221.909 144.344C220.7 143.829 219.623 143.166 218.601 142.461C216.563 141.042 214.778 139.399 213.092 137.689C211.411 135.972 209.844 134.169 208.349 132.317C206.858 130.462 205.432 128.56 204.098 126.6Z" fill="#6D4C41"/>
<g opacity="0.2">
<path d="M206.355 129.904C206.355 129.904 222.245 138.778 229.37 134.028L232.249 139.488L228.815 143.208L224.667 143.637C224.667 143.637 213.82 139.237 206.355 129.904Z" fill="#6D4C41"/>
</g>
<g opacity="0.2">
<path d="M194.933 130.462C194.933 130.462 200.87 139.566 214.724 138.774L220.86 142.139L223.631 146.097L219.276 146.889L211.36 145.701C211.36 145.701 199.881 143.326 194.933 130.462Z" fill="#6D4C41"/>
</g>
<g opacity="0.2">
<path d="M184.513 131.876C184.513 131.876 192.926 139.692 198.877 136.86L201.662 140.158L204.813 142.796L205.986 144.921L204.235 149.267L198.657 147.047L192.721 143.382C192.721 143.382 185.771 137.048 184.513 131.876Z" fill="#6D4C41"/>
</g>
<path d="M163.982 173.689C163.108 173.689 162.399 172.98 162.399 172.106V151.008C162.399 150.134 163.108 149.425 163.982 149.425C164.856 149.425 165.565 150.134 165.565 151.008V172.106C165.565 172.98 164.856 173.689 163.982 173.689Z" fill="#6D4C41"/>
<path d="M163.983 197.458C163.109 197.458 162.4 196.749 162.4 195.875V182.892C162.4 182.017 163.109 181.308 163.983 181.308C164.858 181.308 165.567 182.017 165.567 182.892V195.875C165.567 196.749 164.858 197.458 163.983 197.458Z" fill="#6D4C41"/>
<path d="M77.1885 200.62C76.3141 200.62 75.6052 199.911 75.6052 199.037V144.756C75.6052 143.882 76.3141 143.173 77.1885 143.173C78.063 143.173 78.7719 143.882 78.7719 144.756V199.037C78.7719 199.911 78.063 200.62 77.1885 200.62Z" fill="#6D4C41"/>
<path d="M113.681 234.657C112.806 234.657 112.098 233.948 112.098 233.074V224.626C112.098 223.751 112.806 223.042 113.681 223.042C114.555 223.042 115.264 223.751 115.264 224.626V233.074C115.264 233.948 114.555 234.657 113.681 234.657Z" fill="#6D4C41"/>
<path d="M113.681 213.919C112.806 213.919 112.098 213.21 112.098 212.336V164.719C112.098 163.844 112.806 163.135 113.681 163.135C114.555 163.135 115.264 163.844 115.264 164.719V212.336C115.264 213.21 114.555 213.919 113.681 213.919Z" fill="#6D4C41"/>
<path d="M137.353 193.014C136.478 193.014 135.77 192.305 135.77 191.431V164.719C135.77 163.844 136.478 163.135 137.353 163.135C138.227 163.135 138.936 163.844 138.936 164.719V191.431C138.936 192.305 138.227 193.014 137.353 193.014Z" fill="#6D4C41"/>
<path d="M96.9163 176.373C96.0418 176.373 95.333 175.664 95.333 174.789V161.65C95.333 160.775 96.0418 160.066 96.9163 160.066C97.7908 160.066 98.4997 160.775 98.4997 161.65V174.789C98.4997 175.664 97.7908 176.373 96.9163 176.373Z" fill="#6D4C41"/>
<path d="M115.562 63.3266C115.564 63.3266 115.57 63.3266 115.572 63.3266C117.52 63.327 119.441 63.4412 121.331 63.6555C123.218 63.4423 125.135 63.3287 127.079 63.3287C127.083 63.3287 127.087 63.3287 127.091 63.3287C155.065 63.334 177.738 86.0157 177.733 113.99C177.728 141.962 155.054 164.633 127.082 164.633C127.08 164.633 127.073 164.633 127.072 164.633C125.124 164.632 123.203 164.518 121.313 164.304C119.426 164.517 117.509 164.63 115.565 164.63C115.561 164.63 115.557 164.63 115.553 164.63C87.5789 164.625 64.9055 141.943 64.9105 113.969C64.9158 85.9966 87.5901 63.3241 115.562 63.3266ZM115.558 60.1599C101.184 60.1594 87.6736 65.7555 77.5098 75.9179C67.3457 86.0806 61.7465 99.594 61.7439 113.968C61.7413 128.344 67.3369 141.86 77.5 152.027C87.6632 162.194 101.177 167.794 115.553 167.797C117.462 167.797 119.394 167.693 121.312 167.489C123.235 167.695 125.17 167.799 127.071 167.799C141.456 167.799 154.97 162.202 165.134 152.04C175.298 141.878 180.897 128.365 180.9 113.991C180.902 99.6152 175.307 86.0992 165.144 75.9322C154.98 65.7653 141.467 60.1647 127.091 60.1621C125.184 60.1621 123.252 60.2655 121.332 60.4699C119.409 60.2646 117.474 60.1604 115.573 60.1599C115.573 60.1599 115.563 60.1599 115.562 60.1599C115.562 60.1599 115.558 60.1599 115.558 60.1599Z" fill="#6D4C41"/>
<path d="M127.082 164.637C155.056 164.637 177.734 141.959 177.734 113.985C177.734 86.0109 155.056 63.3333 127.082 63.3333C99.1078 63.3333 76.4302 86.0109 76.4302 113.985C76.4302 141.959 99.1078 164.637 127.082 164.637Z" fill="#BF7334"/>
<path d="M115.564 164.637C143.538 164.637 166.216 141.959 166.216 113.985C166.216 86.0109 143.538 63.3333 115.564 63.3333C87.5897 63.3333 64.9121 86.0109 64.9121 113.985C64.9121 141.959 87.5897 164.637 115.564 164.637Z" fill="#F9D52F"/>
<path d="M145.326 84.1078C137.701 76.5114 127.186 71.8142 115.573 71.812C92.7448 71.8078 74.153 89.9447 73.4224 112.596L114.914 114.508L145.326 84.1078Z" fill="#DD7007"/>
<path d="M157.655 116.475C157.703 115.651 157.73 114.821 157.731 113.984C157.733 102.309 152.989 91.7417 145.324 84.1047L114.912 114.505L157.655 116.475Z" fill="#FDA420"/>
<path d="M73.4212 112.598C73.4065 113.055 73.3963 113.513 73.3962 113.974C73.3941 125.587 78.0875 136.104 85.6812 143.731L114.913 114.51L73.4212 112.598Z" fill="#F6A819"/>
<path d="M114.913 114.517L85.6814 143.738C93.3155 151.406 103.881 156.154 115.556 156.156C138.008 156.16 156.362 138.616 157.656 116.487L114.913 114.517Z" fill="#F9EFC3"/>
<path d="M115.563 151.841C136.471 151.841 153.421 134.892 153.421 113.983C153.421 93.0752 136.471 76.1257 115.563 76.1257C94.6546 76.1257 77.7051 93.0752 77.7051 113.983C77.7051 134.892 94.6546 151.841 115.563 151.841Z" fill="#F3C030"/>
<path d="M134.579 93.665C134.556 93.5772 134.451 93.3244 134.451 93.3244L110.908 93.3222C109.704 93.3199 107.943 93.3193 107.781 93.3189H107.756C106.628 93.2914 106.028 93.5604 105.46 93.8896C104.897 94.2149 104.404 94.7127 104.129 95.1992C103.854 95.6857 103.674 96.1654 103.555 96.7507C103.444 97.2951 103.18 99.5023 103.149 99.7927C103.168 99.793 125.53 99.792 125.53 99.792C123.129 102.165 120.399 104.842 118.119 107.041C117.799 107.348 117.472 107.665 117.148 107.978H113.339C113.339 107.978 113.338 107.979 113.338 107.98C111.032 107.98 109.341 107.979 109.328 107.978C108.72 107.98 108.384 108.129 108.055 108.319C107.705 108.522 107.398 108.832 107.227 109.135C107.056 109.438 106.944 109.736 106.869 110.101C106.8 110.44 106.782 110.591 106.737 111.055C106.709 111.353 106.694 111.899 106.669 112.129H112.897C112.21 112.806 111.529 113.478 110.858 114.141C110.532 114.463 110.21 114.781 109.89 115.095H108.034C108.034 115.096 108.034 115.097 108.033 115.098C105.728 115.098 104.037 115.097 104.023 115.095C103.415 115.098 103.08 115.247 102.75 115.437C102.4 115.64 102.094 115.95 101.922 116.252C101.751 116.555 101.639 116.854 101.565 117.219C101.496 117.557 101.477 117.709 101.433 118.173C101.404 118.471 101.389 119.016 101.365 119.247H105.632C105.231 119.637 104.845 120.012 104.486 120.362C103.153 121.661 101.835 123.327 100.992 124.96C99.9633 126.955 99.4159 129.247 99.2887 131.484C99.2398 132.336 99.2813 133.227 99.3972 134C99.3972 134 126.38 133.994 126.447 134C127.424 133.996 127.962 133.758 128.491 133.452C129.053 133.126 129.545 132.629 129.821 132.142C130.096 131.656 130.276 131.177 130.395 130.591C130.506 130.047 130.534 129.803 130.607 129.06C130.653 128.58 130.788 127.701 130.827 127.333H106.91C109.251 125.063 111.8 122.737 114.037 120.55C114.481 120.124 114.934 119.686 115.387 119.247H120.477L120.478 119.245C122.784 119.245 124.475 119.246 124.488 119.247C125.096 119.244 125.431 119.096 125.761 118.906C126.111 118.703 126.418 118.393 126.589 118.09C126.76 117.787 126.872 117.489 126.947 117.124C127.016 116.785 127.034 116.633 127.078 116.17C127.107 115.872 127.122 115.326 127.147 115.095H120.87H120.858H119.642C120.209 114.543 120.773 113.994 121.332 113.45C121.809 112.988 122.256 112.553 122.691 112.129H125.782L125.782 112.128C128.088 112.127 129.779 112.128 129.793 112.129C130.401 112.126 130.736 111.979 131.066 111.788C131.416 111.585 131.722 111.275 131.893 110.973C132.065 110.669 132.177 110.37 132.251 110.006C132.32 109.667 132.338 109.516 132.383 109.052C132.412 108.754 132.427 108.208 132.451 107.978H126.92C127.159 107.744 127.391 107.517 127.613 107.3C129.386 105.583 130.905 103.921 131.904 102.58C132.902 101.239 133.492 100.168 133.941 99.1C134.389 98.0318 134.639 97.0585 134.689 96.1787C134.74 95.2993 134.783 94.4447 134.579 93.665Z" fill="#D87A02"/>
<path d="M9.3591 78.2241C11.7187 78.2241 13.6315 76.3112 13.6315 73.9516C13.6315 71.592 11.7187 69.6792 9.3591 69.6792C6.9995 69.6792 5.08667 71.592 5.08667 73.9516C5.08667 76.3112 6.9995 78.2241 9.3591 78.2241Z" fill="#FDD835"/>
<path d="M12.3759 32.6277C14.3834 32.6277 16.0108 31.0003 16.0108 28.9928C16.0108 26.9853 14.3834 25.3579 12.3759 25.3579C10.3684 25.3579 8.74097 26.9853 8.74097 28.9928C8.74097 31.0003 10.3684 32.6277 12.3759 32.6277Z" fill="#FDD835"/>
<path d="M185.24 219.198C186.954 219.198 188.343 217.809 188.343 216.096C188.343 214.382 186.954 212.993 185.24 212.993C183.527 212.993 182.138 214.382 182.138 216.096C182.138 217.809 183.527 219.198 185.24 219.198Z" fill="#FDD835"/>
<path d="M225.429 229.98C227.788 229.98 229.701 228.067 229.701 225.707C229.701 223.348 227.788 221.435 225.429 221.435C223.069 221.435 221.156 223.348 221.156 225.707C221.156 228.067 223.069 229.98 225.429 229.98Z" fill="#FDD835"/>
<path d="M3.10116 201.268C4.8147 201.268 6.20379 199.878 6.20379 198.165C6.20379 196.451 4.8147 195.062 3.10116 195.062C1.38763 195.062 -0.00146484 196.451 -0.00146484 198.165C-0.00146484 199.878 1.38763 201.268 3.10116 201.268Z" fill="#FDD835"/>
<path d="M31.7822 182.96C33.9642 182.96 35.733 181.192 35.733 179.01C35.733 176.828 33.9642 175.059 31.7822 175.059C29.6003 175.059 27.8315 176.828 27.8315 179.01C27.8315 181.192 29.6003 182.96 31.7822 182.96Z" fill="#FDD835"/>
<path d="M227.849 81.7135C229.563 81.7135 230.952 80.3245 230.952 78.6109C230.952 76.8974 229.563 75.5083 227.849 75.5083C226.136 75.5083 224.747 76.8974 224.747 78.6109C224.747 80.3245 226.136 81.7135 227.849 81.7135Z" fill="#FDD835"/>
<path d="M229.895 28.9747C232.077 28.9747 233.845 27.2059 233.845 25.0239C233.845 22.842 232.077 21.0732 229.895 21.0732C227.713 21.0732 225.944 22.842 225.944 25.0239C225.944 27.2059 227.713 28.9747 229.895 28.9747Z" fill="#FDD835"/>
<path d="M59.0604 48.9136C59.0604 48.9136 51.2828 55.4389 55.2028 62.7789C55.2028 62.7789 47.9677 56.5996 40.3823 60.6675C40.3823 60.6675 48.3818 54.5103 44.2637 46.2861C44.2637 46.2861 51.6228 53.2268 59.0604 48.9136Z" fill="#FDD835"/>
<path d="M212.226 173.866C212.226 173.866 213.968 184.95 223.151 185.425C223.151 185.425 213.176 188.75 212.701 198.25C212.701 198.25 211.434 187.166 201.301 186.375C201.301 186.375 212.068 183.366 212.226 173.866Z" fill="#FDD835"/>
<path d="M197.009 36.988C197.009 36.988 196.457 50.2771 207.022 52.9644C207.022 52.9644 194.653 54.5105 191.892 65.4436C191.892 65.4436 192.996 52.2649 181.4 48.9886C181.4 48.9886 194.616 47.9948 197.009 36.988Z" fill="#FDD835"/>
<path d="M41.7436 201.85C41.7436 201.85 43.5854 213.637 53.4659 215.271C53.4659 215.271 42.1049 219.058 41.5638 229.878C41.5638 229.878 40.18 216.781 29.1436 215.735C29.1436 215.735 41.5633 212.67 41.7436 201.85Z" fill="#FDD835"/>
<path d="M145.225 36.9982C146.841 36.9982 148.15 35.6888 148.15 34.0735C148.15 32.4583 146.841 31.1489 145.225 31.1489C143.61 31.1489 142.301 32.4583 142.301 34.0735C142.301 35.6888 143.61 36.9982 145.225 36.9982Z" fill="#FDD835"/>
<path d="M98.0011 40.7361C99.6273 40.7361 100.946 39.4179 100.946 37.7917C100.946 36.1655 99.6273 34.8472 98.0011 34.8472C96.3749 34.8472 95.0566 36.1655 95.0566 37.7917C95.0566 39.4179 96.3749 40.7361 98.0011 40.7361Z" fill="#FDD835"/>
<path d="M124.339 0C124.339 0 123.994 8.31638 130.605 9.99811C130.605 9.99811 122.865 10.9656 121.137 17.8077C121.137 17.8077 121.828 9.56044 114.572 7.51011C114.572 7.51011 122.842 6.88808 124.339 0Z" fill="#FDD835"/>
</svg>
