<svg width="63" height="62" viewBox="0 0 63 62" fill="none" xmlns="http://www.w3.org/2000/svg">
<path d="M58.8623 43.3587C58.8741 43.3351 58.8859 43.2762 58.8859 43.1583C58.801 45.4395 59.0733 46.0372 58.5322 47.0605C58.3589 47.4319 57.9168 47.9978 57.2943 48.4646C57.2 48.5589 57.0939 48.6415 56.976 48.7004C56.8463 48.8065 56.7049 48.8772 56.5634 48.9716C56.3983 49.0659 56.2333 49.1484 56.0447 49.2427C55.9503 49.2899 55.8442 49.3488 55.7264 49.396C55.4316 49.5257 55.1369 49.6435 54.8186 49.7379C54.7125 49.7732 54.6064 49.8086 54.4885 49.8322C54.1937 49.9265 53.8872 49.9972 53.5689 50.068C53.4628 50.0915 53.3449 50.1033 53.2388 50.1269C52.9323 50.1859 52.6364 50.2212 52.3299 50.2448C52.2238 50.2566 52.1059 50.2684 52.0115 50.2684C51.6932 50.3155 51.3867 50.3273 51.0802 50.3273H50.7619C50.4436 50.3273 50.137 50.292 49.8423 50.2684C49.7362 50.2684 49.6301 50.2566 49.524 50.2448C49.2175 50.2212 48.8992 50.1741 48.5926 50.1151C48.4865 50.1033 48.3804 50.0798 48.2743 50.0562C47.9678 49.9854 47.6495 49.9147 47.3536 49.8204C47.2446 49.7999 47.1379 49.7683 47.0353 49.7261C46.717 49.6318 46.4104 49.5139 46.1039 49.3724C45.9978 49.337 45.8917 49.2781 45.7856 49.2309C45.7526 49.2121 45.1254 48.8808 44.8778 48.7004C44.7599 48.6179 44.6538 48.5471 44.5477 48.4528C44.1823 48.1817 43.864 47.8752 43.64 47.5568C43.5059 47.4048 43.3947 47.234 43.3099 47.0499C42.7393 45.9948 43.0364 45.3947 42.968 43.1111L42.9692 43.1583C42.968 43.0345 42.9692 42.9095 42.9786 42.781V42.7574C42.9668 42.6395 42.955 42.5334 42.955 42.4155L42.9668 39.9869V39.8337L42.9692 39.8962C42.9409 38.6995 43.7142 37.4982 45.2787 36.5904C48.3793 34.7985 53.4145 34.7985 56.528 36.5904C58.1785 37.5454 58.9566 38.8186 58.8623 40.0683C58.8741 40.0565 58.8859 39.9975 58.8859 39.8797C58.8859 39.8914 58.8741 43.2797 58.8623 43.3587Z" fill="#9AD898"/>
<path d="M49.523 33.2529C48.9288 33.5972 42.3469 37.4028 41.7527 37.7446C41.7527 38.696 41.761 38.7904 41.7291 38.9012C41.7409 38.913 41.7409 38.9248 41.7291 38.9365C41.7869 39.282 41.7551 42.0525 41.7409 42.1197C41.7527 42.2258 41.7645 42.3319 41.7645 42.438L41.7527 45.021C41.7527 45.1035 41.7527 45.1861 41.7291 45.2686C41.7409 45.2804 41.7409 45.2922 41.7291 45.3039C41.7928 45.6883 41.7527 45.7413 41.7527 48.2984C41.7527 48.3574 41.7527 48.4281 41.7409 48.4871C41.7527 48.5943 41.7645 48.6993 41.7645 48.8065L41.7527 51.3884C41.7527 51.4709 41.7527 51.5652 41.7291 51.6478C41.7904 51.7716 41.7492 53.6944 41.7527 54.667C41.7527 55.1268 41.6348 55.5748 41.4108 55.9992C41.3283 56.1642 41.2222 56.3293 41.0925 56.4826C40.8567 56.8127 40.5502 57.1192 40.1847 57.4021C40.0786 57.4964 39.9725 57.5672 39.8546 57.6379C39.7249 57.7322 39.5835 57.8148 39.442 57.9091C39.2769 57.9916 39.1119 58.0859 38.9351 58.1684C38.829 58.2274 38.7229 58.2745 38.605 58.3335C38.3102 58.4632 38.0155 58.5693 37.6972 58.6754C37.5911 58.6989 37.485 58.7461 37.3671 58.7697C37.0723 58.8522 36.7646 58.9359 36.4463 58.9937C36.3402 59.029 36.2223 59.0408 36.128 59.0656C35.8097 59.1128 35.515 59.1481 35.2085 59.1835C35.1024 59.1953 34.9845 59.2071 34.8902 59.2071C34.5718 59.2424 34.2653 59.2542 33.9588 59.2542H33.6405C33.334 59.2542 33.0157 59.2306 32.7209 59.2071C32.6266 59.2071 32.5087 59.1953 32.4026 59.1835C32.0961 59.1481 31.7896 59.101 31.4701 59.0538C31.3758 59.042 31.2579 59.0067 31.1518 58.9831C30.8452 58.9241 30.5387 58.8416 30.2322 58.7591C30.1261 58.7237 30.02 58.7001 29.9139 58.6648C29.5956 58.5587 29.2891 58.4408 28.9943 58.2993C28.8764 58.2639 28.7703 58.2168 28.6642 58.1578C28.4992 58.0753 28.3459 57.9928 28.1927 57.9102C28.0394 57.8159 27.8861 57.7216 27.7564 57.6391C27.6386 57.5566 27.5324 57.4858 27.4263 57.3915C27.0609 57.1204 26.7544 56.8138 26.5186 56.4837C26.3889 56.3305 26.271 56.1654 26.1991 55.9886C25.9515 55.5524 25.8336 55.0926 25.8336 54.6328L25.8454 52.0498C25.8454 51.9555 25.8454 51.8494 25.869 51.7551C25.8041 51.4002 25.8454 48.6698 25.8572 48.6061C25.8112 48.1499 25.8454 48.4034 25.8454 46.9321L18.8767 50.964V50.9522L4.00691 42.3213L3.99512 37.7812L5.07973 37.1564L4.00691 36.5315L3.99512 32.0033L5.07973 31.3784L4.00691 30.7536L3.99512 26.2135L5.07973 25.5887L4.00691 24.9639L3.99512 20.4238L7.43759 18.4432L13.146 15.141L24.5722 8.53666L27.4841 6.85079H27.4959L27.8732 6.6268L31.2095 4.70514C31.2095 4.70514 31.2213 4.70514 31.2213 4.71693L34.6544 2.73633L38.5448 4.99987L45.6208 9.10255L49.5112 11.3661H49.523V15.8955L48.4266 16.5322L49.5112 17.157H49.523V21.6841L48.4384 22.3089L49.5112 22.9349H49.523V27.4738L48.4384 28.0998L49.5112 28.7247H49.523V33.2529Z" fill="#9AD898"/>
<path d="M3.99854 37.7836L4.01268 42.3189L18.8778 50.9581L18.8637 46.4228L3.99854 37.7836Z" fill="#75CA75"/>
<path d="M49.5217 28.7258V33.2553C42.2866 37.4346 26.1105 46.78 18.8731 50.9593L18.853 46.4298L22.2931 44.4292L41.8987 33.1268L42.3986 32.8462V32.8261L42.7994 32.6069L46.0792 30.7064L49.5205 28.7258H49.5217Z" fill="#75CA75"/>
<path d="M3.99854 37.7835L18.8637 46.4227L49.5135 28.7258L34.6484 20.0878L3.99854 37.7835Z" fill="#9AD898"/>
<path d="M46.0792 30.7041L22.2954 44.4386C20.1427 43.1795 16.8688 43.0593 14.9743 44.1651L7.89481 40.0412C9.80467 38.9507 9.59246 37.0562 7.44092 35.7971L31.2081 22.0637C33.3609 23.3216 36.6501 23.4431 38.5446 22.3526L45.6241 26.4599C43.7295 27.5516 43.9264 29.4615 46.0792 30.7041Z" fill="#6EBA6E"/>
<path d="M34.2702 27.2003C33.439 27.6813 33.4249 28.4464 34.2513 28.9274C35.0789 29.4084 36.4005 29.4026 37.2328 28.9216C38.0557 28.4464 38.0699 27.6813 37.2423 27.2003C36.4158 26.7205 35.0931 26.7264 34.2702 27.2003ZM16.0392 37.6786C15.2163 38.1537 15.2022 38.9189 16.0298 39.3999C16.8562 39.8797 18.1778 39.875 19.0007 39.3999C19.833 38.9189 19.8472 38.1538 19.0195 37.6727C18.1931 37.1929 16.8715 37.1976 16.0392 37.6786ZM32.589 36.5822C30.0272 38.0677 25.3893 37.734 22.1602 35.8548C18.9465 33.9898 18.3865 31.2924 20.9329 29.8211C23.4641 28.3509 28.1327 28.6846 31.3618 30.5485C34.5755 32.4135 35.1214 35.1263 32.589 36.5822Z" fill="#9AD898"/>
<path d="M31.1281 34.2444C31.2861 34.0558 31.3651 33.866 31.3804 33.6774C31.4123 33.2518 31.1765 32.8733 30.6247 32.5421C30.0826 32.2361 29.4652 32.089 28.8434 32.1176C28.2127 32.1483 27.457 32.3216 26.5574 32.6364L26.5268 32.6529L26.3217 32.5421V32.5267L24.7607 31.6284C25.3125 31.3926 25.9279 31.2334 26.6529 31.1556L26.4171 30.3044C25.3762 30.4141 24.4778 30.651 23.7363 31.0295L23.2482 30.7607L22.6493 31.1073L23.122 31.3761C22.5231 31.7533 22.2084 32.1483 22.1919 32.5739C22.1737 32.7444 22.2127 32.916 22.3027 33.062C22.4123 33.2824 22.6175 33.4876 22.9487 33.6774C23.2164 33.8342 23.484 33.945 23.7681 34.0075H23.7834C24.0675 34.0864 24.367 34.1183 24.6676 34.1018C25.2807 34.0711 26.0375 33.9131 26.9194 33.583L28.7491 34.6382C28.0865 34.9211 27.2672 35.0791 26.2898 35.1109L26.4006 35.994C27.7093 35.9468 28.8281 35.6945 29.7724 35.2371L30.4668 35.6308L31.0657 35.2842L30.3878 34.907C30.7179 34.6853 30.9714 34.4649 31.1281 34.2444ZM25.6119 32.9358C25.5966 32.9523 25.5813 32.9523 25.5813 32.9523C25.1863 33.062 24.8869 33.1256 24.6829 33.1256C24.4306 33.1256 24.209 33.062 23.9886 32.937C23.9164 32.8965 23.8524 32.843 23.7999 32.779C23.76 32.7446 23.7301 32.7 23.7135 32.65C23.6968 32.6 23.6941 32.5464 23.7056 32.4949C23.7056 32.3216 23.8789 32.1483 24.13 31.9585L25.4551 32.7307L25.7063 32.8722L25.7228 32.8887L25.7546 32.9052C25.7074 32.9205 25.6591 32.9358 25.6119 32.9358ZM29.836 33.7552C29.7889 33.9297 29.6474 34.1183 29.3786 34.3069L27.6774 33.3308C27.9132 33.2518 28.1337 33.1893 28.3235 33.1563C28.5121 33.1091 28.6701 33.0938 28.8116 33.0938C29.0792 33.0938 29.3315 33.1409 29.5531 33.2671C29.7264 33.3614 29.8207 33.5029 29.836 33.6443V33.7552Z" fill="#6EBA6E"/>
<path d="M42.7922 32.594L39.4936 34.5109L24.5742 25.8977L27.8729 23.9807L42.7922 32.594Z" fill="#E4E8F4"/>
<path d="M42.7927 32.594L42.4013 32.8215L27.4819 24.2082L27.8733 23.9807L42.7927 32.594Z" fill="#F9607F"/>
<path d="M42.7995 32.5857V37.1364L39.4985 39.0368V34.5073L41.9 33.1268L42.3999 32.8262L42.8007 32.5869L42.7995 32.5857Z" fill="#CAD0DD"/>
<path d="M42.7996 32.5869V37.1364L42.3999 37.3757V32.8262L42.7996 32.5869Z" fill="#F9607F"/>
<path d="M3.99854 31.9985L4.01268 36.5339L18.8778 45.1719L18.8637 40.6366L3.99854 31.9985Z" fill="#75CA75"/>
<path d="M49.5215 22.9397V27.4691L42.7992 31.3502L42.3996 31.5907L18.874 45.1743L18.854 40.6449L22.2941 38.6442L39.4994 28.7212L40.7196 28.0209L41.8985 27.3406L42.3996 27.0612V27.0412L42.8004 26.8207L46.0802 24.9203L49.5215 22.9397Z" fill="#75CA75"/>
<path d="M3.99854 31.9986L18.8637 40.6366L49.5135 22.9409L34.6484 14.3029L3.99854 31.9986Z" fill="#9AD898"/>
<path d="M46.0792 24.9191L22.2954 38.6525C20.1427 37.3946 16.8688 37.2731 14.9743 38.379L7.89481 34.2563C9.80467 33.1646 9.59246 31.27 7.44092 30.0121L31.2081 16.2776C33.3609 17.5367 36.6501 17.6581 38.5446 16.5664L45.6241 20.675C43.7295 21.7655 43.9264 23.6754 46.0792 24.9191Z" fill="#6EBA6E"/>
<path d="M34.2699 21.4153C33.4388 21.8963 33.4246 22.6614 34.251 23.1424C35.0786 23.6223 36.4002 23.6164 37.2325 23.1365C38.0554 22.6614 38.0696 21.8963 37.242 21.4153C36.4156 20.9343 35.0928 20.9402 34.2699 21.4153ZM16.0377 31.8925C15.2149 32.3664 15.2007 33.1327 16.0283 33.6137C16.8547 34.0935 18.1763 34.0876 18.9992 33.6137C19.8315 33.1327 19.8457 32.3676 19.0181 31.8866C18.1917 31.4056 16.8701 31.4115 16.0377 31.8925ZM32.5876 30.7961C30.0258 32.2815 25.3878 31.9467 22.1588 30.0675C18.945 28.2036 18.385 25.505 20.9315 24.0349C23.4626 22.5648 28.1312 22.8984 31.3603 24.7623C34.5741 26.6262 35.1199 29.3401 32.5876 30.7949V30.7961Z" fill="#9AD898"/>
<path d="M31.1278 28.4595C31.2857 28.2697 31.3647 28.081 31.3801 27.8912C31.4119 27.4668 31.1761 27.0872 30.6244 26.7571C30.0824 26.4507 29.465 26.3031 28.843 26.3315C28.2123 26.3622 27.4566 26.5355 26.5571 26.8502L26.5264 26.8667L26.3213 26.7571V26.7406L24.7604 25.8422C25.3121 25.6065 25.9275 25.4485 26.6525 25.3707L26.4168 24.5183C25.3758 24.6291 24.4774 24.8649 23.7359 25.2434L23.2478 24.9757L22.6489 25.3223L23.1217 25.59C22.5228 25.9684 22.208 26.3622 22.1915 26.7877C22.173 26.9586 22.212 27.1308 22.3023 27.277C22.4119 27.4975 22.6171 27.7014 22.9484 27.8912C23.216 28.0492 23.4836 28.1588 23.7677 28.2213H23.783C24.0672 28.3015 24.3666 28.3333 24.6672 28.3168C25.2803 28.285 26.0372 28.1282 26.919 27.7969L28.7487 28.8532C28.0861 29.1362 27.2668 29.2942 26.2894 29.3248L26.4003 30.209C27.7089 30.1618 28.8277 29.9084 29.772 29.4521L30.4664 29.8459L31.0653 29.4993L30.3874 29.1209C30.7175 28.9004 30.971 28.6811 31.1278 28.4595ZM25.6116 27.1509C25.5962 27.1662 25.5809 27.1662 25.5809 27.1662C25.186 27.277 24.8865 27.3395 24.6826 27.3395C24.4303 27.3395 24.2086 27.277 23.9882 27.1509C23.916 27.1104 23.852 27.0568 23.7995 26.9929C23.7598 26.9586 23.73 26.9142 23.7134 26.8644C23.6968 26.8146 23.694 26.7612 23.7052 26.7099C23.7052 26.5355 23.8785 26.3622 24.1296 26.1735L25.4548 26.9457L25.7059 27.0872L25.7224 27.1037L25.7542 27.119C25.707 27.1344 25.6587 27.1509 25.6116 27.1509ZM29.8357 27.9702C29.7885 28.1435 29.647 28.3333 29.3782 28.522L27.677 27.5446C27.9128 27.4656 28.1333 27.4032 28.3231 27.3713C28.5117 27.3242 28.6697 27.3077 28.8112 27.3077C29.0788 27.3077 29.3311 27.3548 29.5527 27.4821C29.726 27.5765 29.8203 27.7179 29.8357 27.8594V27.9702Z" fill="#6EBA6E"/>
<path d="M42.7922 26.8089L39.4936 28.7258L24.5742 20.1114L27.8729 18.1945L42.7922 26.8089Z" fill="#E4E8F4"/>
<path d="M42.7927 26.8089L42.4013 27.0364L27.4819 18.422L27.8733 18.1945L42.7927 26.8089Z" fill="#F9607F"/>
<path d="M42.7998 26.8007V31.3501L42.4002 31.5907L39.5 33.2506V28.7211L40.7202 28.0209L41.9003 27.3406L42.4002 27.0412L42.7998 26.8007Z" fill="#CAD0DD"/>
<path d="M42.7996 26.8007V31.3501L42.3999 31.5907V27.0412L42.7996 26.8007Z" fill="#F9607F"/>
<path d="M3.99854 26.2124L4.01268 30.7477L18.8778 39.3869L18.8637 34.8516L3.99854 26.2124Z" fill="#75CA75"/>
<path d="M49.5215 17.1547V21.6841L42.7992 25.5651L42.3996 25.8057L39.4994 27.4656L18.874 39.3881L18.854 34.8587L22.2941 32.858L39.4994 22.9361L40.7196 22.2358L41.8997 21.5556L42.3996 21.275V21.2562L42.7992 21.0357L46.0802 19.1353L49.5215 17.1547Z" fill="#75CA75"/>
<path d="M3.99854 26.2123L18.8637 34.8515L49.5135 17.1558L34.6484 8.5166L3.99854 26.2123Z" fill="#9AD898"/>
<path d="M46.0792 19.1341L22.2954 32.8651C20.1427 31.6072 16.8688 31.4858 14.9743 32.5928L7.89481 28.4712C9.80467 27.3795 9.59246 25.485 7.44092 24.2271L31.2081 10.4926C33.3609 11.7517 36.6501 11.8719 38.5446 10.7814L45.6241 14.8888C43.7295 15.9805 43.9264 17.8915 46.0792 19.1341Z" fill="#6EBA6E"/>
<path d="M34.2699 15.6303C33.4388 16.1101 33.4246 16.8765 34.251 17.3563C35.0786 17.8373 36.4002 17.8314 37.2325 17.3504C38.0554 16.8765 38.0696 16.1101 37.242 15.6291C36.4156 15.1493 35.094 15.1552 34.2711 15.6291L34.2699 15.6303ZM16.0377 26.1063C15.2149 26.5814 15.2007 27.3465 16.0283 27.8275C16.8547 28.3085 18.1763 28.3026 18.9992 27.8275C19.8315 27.3465 19.8457 26.5814 19.0181 26.1004C18.1917 25.6206 16.8701 25.6265 16.0377 26.1063ZM32.5876 25.0099C30.0258 26.4953 25.3878 26.1617 22.1588 24.2825C18.945 22.4174 18.385 19.72 20.9315 18.2487C23.4626 16.7786 28.1312 17.1122 31.3603 18.9773C34.5741 20.8412 35.1199 23.5551 32.5876 25.0099Z" fill="#9AD898"/>
<path d="M31.1281 22.6733C31.2861 22.4846 31.3651 22.296 31.3804 22.1062C31.4123 21.6806 31.1765 21.3022 30.6247 20.9709C30.0826 20.6649 29.4652 20.5178 28.8434 20.5465C28.2127 20.5771 27.457 20.7504 26.5574 21.0652L26.5268 21.0817L26.3217 20.9709V20.9556L24.7607 20.0572C25.3125 19.8214 25.9279 19.6623 26.6529 19.5845L26.4171 18.7333C25.3762 18.8429 24.4778 19.0799 23.7363 19.4583L23.2482 19.1895L22.6493 19.5373L23.122 19.8049C22.5231 20.1822 22.2084 20.5771 22.1919 21.0027C22.1737 21.1732 22.2127 21.3449 22.3027 21.4908C22.4123 21.7113 22.6175 21.9164 22.9487 22.1062C23.2164 22.263 23.484 22.3738 23.7681 22.4363H23.7834C24.0675 22.5153 24.367 22.5471 24.6676 22.5306C25.2807 22.5 26.0375 22.342 26.9194 22.0119L28.7491 23.067C28.0865 23.35 27.2672 23.5091 26.2898 23.5398L26.4006 24.4228C27.7093 24.3756 28.8281 24.1233 29.7724 23.6659L30.4668 24.0597L31.0657 23.7131L30.3878 23.3358C30.7179 23.1142 30.9714 22.8937 31.1281 22.6733ZM25.6119 21.3646C25.5966 21.3812 25.5813 21.3812 25.5813 21.3812C25.1863 21.4908 24.8869 21.5545 24.6829 21.5545C24.4306 21.5545 24.209 21.4908 23.9886 21.3658C23.9164 21.3254 23.8524 21.2718 23.7999 21.2078C23.76 21.1735 23.7301 21.1289 23.7135 21.0788C23.6968 21.0288 23.6941 20.9752 23.7056 20.9237C23.7056 20.7504 23.8789 20.5771 24.13 20.3885L25.4551 21.1607L25.7063 21.3022L25.7228 21.3175L25.7546 21.334C25.7074 21.3493 25.6591 21.3646 25.6119 21.3646ZM29.836 22.1852C29.7889 22.3585 29.6474 22.5471 29.3786 22.7357L27.6774 21.7596C27.9132 21.6806 28.1337 21.6181 28.3235 21.5851C28.5121 21.5379 28.6701 21.5226 28.8116 21.5226C29.0792 21.5226 29.3315 21.5698 29.5531 21.6959C29.7264 21.7902 29.8207 21.9317 29.836 22.0732V22.1852Z" fill="#6EBA6E"/>
<path d="M42.7922 21.0227L39.4936 22.9396L24.5742 14.3264L27.8729 12.4094L42.7922 21.0227Z" fill="#E4E8F4"/>
<path d="M42.7927 21.0227L42.4013 21.2502L27.4819 12.637L27.8733 12.4094L42.7927 21.0227Z" fill="#F9607F"/>
<path d="M42.7998 21.0156V25.5651L42.4002 25.8056L39.5 27.4656V22.9361L40.7202 22.2358L41.9003 21.5556L42.4002 21.2561L42.7998 21.0156Z" fill="#CAD0DD"/>
<path d="M42.7996 21.0156V25.5651L42.3999 25.8056V21.2561L42.7996 21.0156Z" fill="#F9607F"/>
<path d="M3.99854 20.4274L4.01268 24.9627L18.8778 33.6007L18.8637 29.0654L3.99854 20.4274Z" fill="#75CA75"/>
<path d="M49.5215 11.3684V15.8979L42.7992 19.7789L42.3996 20.0194L39.4994 21.6793L18.874 33.603L18.854 29.0736L22.2941 27.0729L39.4994 17.1499L40.7196 16.4508L41.8997 15.7705L42.3996 15.4899V15.4699L42.7992 15.2494L46.0802 13.349L49.5215 11.3684Z" fill="#75CA75"/>
<path d="M3.99854 20.4273L18.8637 29.0653L49.5135 11.3696L34.6484 2.73157L3.99854 20.4273Z" fill="#9AD898"/>
<path d="M46.0792 13.3479L22.2954 27.08C20.1427 25.8221 16.8688 25.7007 14.9743 26.8065L7.89481 22.6838C9.80467 21.5921 9.59246 19.6976 7.44092 18.4397L31.2081 4.7063C33.3609 5.96422 36.6501 6.08565 38.5446 4.99396L45.6241 9.10253C43.7295 10.193 43.9264 12.1053 46.0792 13.3479Z" fill="#6EBA6E"/>
<path d="M34.2699 9.84406C33.4388 10.3251 33.4246 11.0902 34.251 11.5712C35.0786 12.051 36.4002 12.0463 37.2325 11.5653C38.0554 11.0902 38.0696 10.3251 37.242 9.84406C36.4156 9.36424 35.0928 9.36896 34.2699 9.84406ZM16.0377 20.3212C15.2149 20.7963 15.2007 21.5614 16.0283 22.0424C16.8547 22.5223 18.1763 22.5164 18.9992 22.0424C19.8315 21.5614 19.8457 20.7963 19.0181 20.3153C18.1917 19.8343 16.8701 19.8402 16.0377 20.3212ZM32.5876 19.2248C30.0258 20.7103 25.3878 20.3766 22.1588 18.4962C18.945 16.6323 18.385 13.9338 20.9315 12.4636C23.4626 10.9935 28.1312 11.3272 31.3603 13.191C34.5741 15.0561 35.1199 17.77 32.5876 19.2248Z" fill="#9AD898"/>
<path d="M31.1278 16.887C31.2857 16.6984 31.3647 16.5097 31.3801 16.3211C31.4119 15.8943 31.1761 15.5159 30.6244 15.1858C30.0824 14.8794 29.465 14.7319 28.843 14.7602C28.2123 14.7909 27.4566 14.9653 26.5571 15.2789L26.5264 15.2954L26.3213 15.1858V15.1693L24.7604 14.271C25.3121 14.0352 25.9275 13.8772 26.6525 13.7994L26.4168 12.947C25.3758 13.0578 24.4774 13.2936 23.7359 13.6721L23.2478 13.4044L22.6489 13.7511L23.1217 14.0187C22.5228 14.3971 22.208 14.7909 22.1915 15.2165C22.173 15.3873 22.212 15.5595 22.3023 15.7057C22.4119 15.9262 22.6171 16.1301 22.9484 16.3199C23.216 16.4779 23.4836 16.5876 23.7677 16.6512H23.783C24.0672 16.7302 24.3666 16.762 24.6672 16.7455C25.2803 16.7137 26.0372 16.5569 26.919 16.2256L28.7487 17.2819C28.0861 17.5649 27.2668 17.7229 26.2894 17.7535L26.4003 18.6377C27.7089 18.5906 28.8277 18.3383 29.772 17.8808L30.4664 18.2746L31.0653 17.928L30.3874 17.5507C30.7175 17.3291 30.971 17.1086 31.1278 16.887ZM25.6116 15.5784C25.5962 15.5949 25.5809 15.5949 25.5809 15.5949C25.186 15.7057 24.8865 15.7682 24.6826 15.7682C24.4303 15.7682 24.2086 15.7057 23.9882 15.5796C23.916 15.5391 23.852 15.4855 23.7995 15.4216C23.7598 15.3873 23.73 15.3429 23.7134 15.2931C23.6968 15.2433 23.694 15.1899 23.7052 15.1387C23.7052 14.9653 23.8785 14.7909 24.1296 14.6022L25.4548 15.3744L25.7059 15.5159L25.7224 15.5324L25.7542 15.5477C25.707 15.5642 25.6599 15.5796 25.6127 15.5796L25.6116 15.5784ZM29.8357 16.3989C29.7885 16.5722 29.647 16.762 29.3782 16.9507L27.677 15.9733C27.9128 15.8943 28.1333 15.8319 28.3231 15.8C28.5117 15.7529 28.6697 15.7375 28.8112 15.7375C29.0788 15.7375 29.3311 15.7847 29.5527 15.9109C29.726 16.0052 29.8203 16.1466 29.8357 16.2881V16.3989Z" fill="#6EBA6E"/>
<path d="M42.7922 15.2378L39.4936 17.1547L24.5742 8.54027L27.8729 6.62451L42.7922 15.2378Z" fill="#E4E8F4"/>
<path d="M42.7927 15.2378L42.4013 15.4653L27.4819 6.85204L27.8733 6.62451L42.7927 15.2378Z" fill="#F9607F"/>
<path d="M42.7998 15.2295V19.779L42.4002 20.0195L39.5 21.6794V17.15L40.7202 16.4509L41.9003 15.7706L42.4002 15.47L42.7998 15.2295Z" fill="#CAD0DD"/>
<path d="M42.7996 15.2295V19.779L42.3999 20.0195V15.47L42.7996 15.2295Z" fill="#F9607F"/>
<path d="M58.8836 43.163C58.7987 45.436 59.064 46.0396 58.5358 47.0653C58.2765 47.5451 57.8579 48.0449 57.2991 48.4682C57.2005 48.5569 57.0926 48.6348 56.9773 48.7004C56.8476 48.8042 56.7061 48.8808 56.5647 48.9716C56.3984 49.0612 56.231 49.1508 56.0506 49.2416C55.9469 49.2934 55.8443 49.3441 55.7288 49.396C55.4317 49.5257 55.1358 49.6412 54.8139 49.7438C54.7114 49.7697 54.6076 49.8086 54.4921 49.8334C54.1868 49.9259 53.8772 50.0034 53.5643 50.0656C53.4617 50.0916 53.3462 50.1045 53.2424 50.1305C52.9396 50.1816 52.6348 50.2201 52.3288 50.246C52.225 50.2578 52.1095 50.2719 52.0069 50.2719C51.699 50.3081 51.3891 50.3251 51.0791 50.3226H50.7572C50.4484 50.3226 50.1395 50.2979 49.8436 50.2719C49.7398 50.2719 49.6243 50.259 49.5217 50.246C48.7886 50.1745 48.0642 50.0324 47.3584 49.8216C46.7807 49.8184 46.2232 49.6085 45.7869 49.2298C45.6018 49.1284 45.175 48.9126 44.872 48.7004C44.7594 48.6263 44.6519 48.5448 44.5502 48.4564C44.1997 48.2062 43.8913 47.9017 43.6365 47.5545C43.5057 47.4034 43.3973 47.2343 43.3147 47.0523C42.7393 46.0219 43.0329 45.3758 42.9669 43.1123C42.9669 43.5756 43.0824 43.097 43.3147 43.5344C43.6196 44.0906 44.0415 44.574 44.5514 44.9514C44.6539 45.041 44.7565 45.1188 44.872 45.1955C45.0135 45.2863 45.155 45.3759 45.3106 45.4666C45.4639 45.5562 45.6195 45.634 45.7869 45.7236C45.8894 45.7755 45.9932 45.8262 46.1087 45.8651C46.4046 46.0066 46.7135 46.1233 47.0354 46.2259C47.1391 46.2648 47.2546 46.2907 47.3584 46.3166C47.8594 46.4699 48.4831 46.5996 48.5939 46.6114C48.878 46.6597 49.5547 46.767 49.8436 46.767C53.0974 47.0499 56.0872 46.0361 57.2991 44.9774C57.8179 44.5836 58.2175 44.1639 58.5358 43.5733C58.7669 43.1359 58.8836 43.6145 58.8836 43.163Z" fill="#F9BB4A"/>
<path d="M56.5291 39.8774C59.6462 41.6764 59.6686 44.5978 56.5727 46.3968C53.4697 48.2006 48.4263 48.1959 45.3104 46.3968C42.1945 44.5978 42.1779 41.6811 45.2797 39.8774C48.3768 38.0783 53.4132 38.0783 56.5291 39.8774Z" fill="#FED57A"/>
<path d="M55.3693 40.85C57.8404 42.1127 57.8581 44.1628 55.4035 45.4243C52.9431 46.6881 48.943 46.6857 46.472 45.4243C44.0009 44.1628 43.9879 42.1162 46.4484 40.85C48.9041 39.5886 52.8971 39.5886 55.3693 40.85Z" fill="#EFAC41"/>
<path d="M58.5361 44.5023V47.0653C58.4456 47.2388 58.3377 47.4027 58.2143 47.5545V45.0045C58.3428 44.8371 58.4453 44.6697 58.5361 44.5023ZM57.2994 45.9052V48.4694C57.2007 48.5577 57.0928 48.6352 56.9776 48.7005V46.1386C57.0931 46.0738 57.1968 45.996 57.2994 45.9052ZM56.0497 46.6786V49.2416C55.9472 49.2935 55.8446 49.3442 55.7279 49.396V46.8201C55.8446 46.7694 55.946 46.7305 56.0497 46.6786ZM54.8142 47.1678V49.7438C54.7117 49.7697 54.6079 49.8086 54.4924 49.8334V47.2586C54.6079 47.2327 54.7117 47.2068 54.8142 47.1678ZM53.5646 47.4897V50.0657C53.462 50.0916 53.3465 50.1046 53.2427 50.1305V47.5545C53.3465 47.5286 53.462 47.5156 53.5646 47.4897ZM52.329 47.6701V50.246C52.2253 50.2578 52.1098 50.272 52.0072 50.272V47.696C52.1098 47.696 52.2253 47.6842 52.329 47.6701ZM51.0794 47.7479V50.3227H50.7575V47.7349C50.8613 47.7467 50.9768 47.7479 51.0794 47.7479ZM49.8439 47.696V50.272C49.7401 50.272 49.6246 50.259 49.522 50.246V47.6701C49.6246 47.683 49.7271 47.696 49.8439 47.696ZM48.5942 47.5427V50.1175C48.4857 50.1021 48.3783 50.0805 48.2723 50.0527V47.4767C48.3761 47.5027 48.4787 47.5298 48.5942 47.5427ZM47.3587 47.2457V49.8204C47.249 49.7983 47.1411 49.7683 47.0356 49.7308V47.1549C47.1394 47.1938 47.2549 47.2197 47.3587 47.2457ZM46.109 46.7953V49.3701C45.9984 49.3308 45.8909 49.2835 45.7872 49.2286V46.6527C45.8897 46.7045 45.9935 46.7576 46.109 46.7953ZM44.8723 46.1257V48.7005C44.7597 48.6264 44.6522 48.5448 44.5505 48.4564V45.8805C44.6542 45.9712 44.7568 46.0479 44.8723 46.1257ZM43.6368 44.9656V47.5545C43.5059 47.4035 43.3975 47.2343 43.3149 47.0523V44.4634C43.4045 44.6308 43.5083 44.7982 43.6368 44.9656Z" fill="#D89B39"/>
<path d="M53.8048 41.7895L54.4414 41.4205L53.958 41.1411L53.3132 41.5148L53.2424 41.483C52.7656 41.2658 52.2479 41.1528 51.724 41.1517H51.7122C51.1982 41.1517 50.7384 41.2673 50.3458 41.4936C49.9827 41.7058 49.8047 41.918 49.8188 42.1243C49.8365 42.3542 50.0251 42.6466 50.3823 42.9968L50.525 43.1359L49.1492 43.9352C49.1114 43.8809 48.7648 43.6169 48.6434 42.926L47.4268 42.9944C47.5918 43.8432 48.3157 44.2735 48.4076 44.3667L47.903 44.659L48.3864 44.9384L48.8945 44.6437C48.9723 44.6697 49.5642 45.0245 50.5368 45.0328C51.0543 45.0398 51.5353 44.9219 51.9326 44.6909C52.5704 44.3207 52.7036 43.9517 51.8713 43.1359L51.7287 42.9968L53.0644 42.2198C53.108 42.2741 53.3921 42.4957 53.5713 43.005L54.7326 42.8836C54.5739 42.5035 54.3157 42.1732 53.9851 41.9275L53.8048 41.7895ZM50.3269 44.4339C50.0263 44.4339 49.8011 44.3301 49.5488 44.2617L50.8775 43.4895C50.9223 43.5674 51.1333 43.7819 51.0873 44.0036C51.0649 44.1179 50.6193 44.4339 50.3269 44.4339ZM51.3726 42.6419C51.3337 42.5594 51.1687 42.3837 51.2276 42.1562C51.2583 42.0383 51.3432 41.9381 51.4799 41.8591C51.7122 41.7223 51.9963 41.7023 52.3229 41.7919L52.6695 41.8897L51.3726 42.6419Z" fill="#FED57A"/>
<path d="M58.8836 39.8785C58.7987 42.1503 59.064 42.7551 58.5358 43.7808C58.2765 44.2606 57.8579 44.7605 57.2991 45.1837C57.0834 45.3723 56.6495 45.6329 56.5658 45.6859C56.323 45.8168 55.9823 45.9984 55.7288 46.1104C55.0344 46.4136 54.3085 46.6386 53.5643 46.7812C53.1567 46.8673 52.744 46.9276 52.3288 46.9615C52.1755 46.9804 51.5742 47.0382 51.0791 47.0382C50.7584 47.0299 50.7195 47.0629 49.8436 46.9875C49.5712 46.9875 48.8603 46.8767 48.5939 46.833C48.1768 46.7572 47.7644 46.658 47.3584 46.5359C46.7807 46.5327 46.2232 46.3228 45.7869 45.9441C45.6195 45.8533 45.465 45.7767 45.3106 45.6859C45.0411 45.5391 44.7865 45.3666 44.5502 45.1708C43.9124 44.7086 43.4502 44.0861 43.3147 43.7678C42.7393 42.7374 43.0329 42.0902 42.9669 39.8267C42.9669 40.2912 43.0824 39.8125 43.3147 40.2499C43.6188 40.8158 44.0315 41.272 44.5502 41.667C44.7754 41.8639 45.0489 42.0289 45.3106 42.181C45.4379 42.2564 45.8883 42.5075 46.1087 42.5818C47.0354 43.0239 48.5515 43.3752 49.5217 43.4566C49.6243 43.4684 49.7269 43.4825 49.8436 43.4825C52.1896 43.6865 55.1134 43.2279 56.9773 41.924C57.0928 41.8591 57.1966 41.7825 57.2991 41.6917C57.6728 41.4088 57.9817 41.1129 58.214 40.791C58.3425 40.6236 58.4451 40.4562 58.5358 40.2888C58.7669 39.8502 58.8836 40.3289 58.8836 39.8785Z" fill="#F9BB4A"/>
<path d="M56.5291 36.5928C59.6462 38.3919 59.6686 41.3132 56.5727 43.1123C53.4697 44.9161 48.4263 44.9113 45.3104 43.1123C42.1945 41.3132 42.1779 38.3966 45.2797 36.5928C48.3768 34.7938 53.4132 34.7938 56.5291 36.5928Z" fill="#FED57A"/>
<path d="M55.3693 37.5666C57.8404 38.828 57.8581 40.877 55.4035 42.1385C52.9431 43.4035 48.943 43.3999 46.472 42.1385C44.0009 40.877 43.9879 38.8304 46.4484 37.5666C48.9041 36.3051 52.8971 36.3051 55.3693 37.5666Z" fill="#EFAC41"/>
<path d="M58.5361 41.2177V43.7807C58.4456 43.9542 58.3377 44.1182 58.2143 44.27V41.72C58.3428 41.5526 58.4453 41.3851 58.5361 41.2177ZM57.2994 42.6207V45.1837C57.2008 45.2724 57.0929 45.3503 56.9776 45.4159V42.8529C57.0931 42.7892 57.1968 42.7103 57.2994 42.6207ZM56.0497 43.394V45.957C55.9472 46.0077 55.8446 46.0596 55.7279 46.1103V43.5355C55.8446 43.4848 55.946 43.4459 56.0497 43.394ZM54.8142 43.8833V46.4593C54.7117 46.4852 54.6079 46.5229 54.4924 46.5489V43.9741C54.6079 43.9481 54.7117 43.9222 54.8142 43.8833ZM53.5646 44.2051V46.7811C53.462 46.807 53.3465 46.82 53.2427 46.8448V44.27C53.3465 44.2441 53.462 44.2311 53.5646 44.2051ZM52.329 44.3855V46.9615C52.2253 46.9733 52.1098 46.9874 52.0072 46.9874V44.4103C52.1098 44.4103 52.2253 44.3997 52.329 44.3855ZM51.0794 44.4633V47.0381H50.7575V44.4504C50.8613 44.4622 50.9768 44.4633 51.0794 44.4633ZM49.8439 44.4115V46.9874C49.7401 46.9874 49.6246 46.9745 49.522 46.9615V44.3855C49.6246 44.3985 49.7271 44.4115 49.8439 44.4115ZM48.5942 44.257V46.833C48.4857 46.8176 48.3783 46.7959 48.2723 46.7681V44.1922C48.3761 44.2181 48.4787 44.2441 48.5942 44.257ZM47.3587 43.9611V46.5359C47.249 46.5137 47.1411 46.4838 47.0356 46.4463V43.8703C47.1394 43.9092 47.2549 43.9352 47.3587 43.9611ZM46.109 43.5096V46.0855C45.9984 46.0463 45.8909 45.999 45.7872 45.9441V43.3681C45.8897 43.42 45.9935 43.4719 46.109 43.5096ZM44.8723 42.8399V45.4159C44.7597 45.3414 44.6522 45.2595 44.5505 45.1707V42.5959C44.6542 42.6855 44.7568 42.7633 44.8723 42.8399ZM43.6368 41.6811V44.27C43.5059 44.1189 43.3975 43.9498 43.3149 43.7678V41.1788C43.4045 41.3462 43.5083 41.5136 43.6368 41.6811Z" fill="#D89B39"/>
<path d="M53.8048 38.5039L54.4414 38.1361L53.958 37.8567L53.3132 38.2304L53.2424 38.1986C52.7656 37.9814 52.2479 37.8684 51.724 37.8673H51.7122C51.1982 37.8673 50.7384 37.9828 50.3458 38.2092C49.9827 38.4214 49.8047 38.6336 49.8188 38.8399C49.8365 39.0686 50.0251 39.3622 50.3823 39.7123L50.525 39.8514L49.1492 40.6508L49.0666 40.5612C48.8521 40.3313 48.7106 40.0212 48.6434 39.6416L47.4268 39.71C47.5175 40.1756 47.7887 40.5906 48.2331 40.9431L48.4076 41.0822L47.903 41.3746L48.3864 41.654L48.8945 41.3593L48.9653 41.3911C49.4757 41.6234 50.0027 41.7436 50.5368 41.7483C51.0543 41.7554 51.5353 41.6375 51.9326 41.4064C52.2981 41.1942 52.4749 40.9773 52.4561 40.7604C52.4349 40.5175 52.238 40.211 51.8713 39.8526L51.7287 39.7123L53.0644 38.9354L53.1469 39.0203C53.332 39.2089 53.4735 39.4447 53.5713 39.7206L54.7326 39.5991C54.5739 39.219 54.3157 38.8887 53.9851 38.643L53.8048 38.5039ZM50.8398 41.0174C50.6839 41.107 50.5067 41.153 50.3269 41.1506C50.189 41.1506 50.0416 41.127 49.8836 41.0799L49.5488 40.9785L50.8775 40.2063L50.9577 40.3183C51.0696 40.4716 51.1109 40.6036 51.0873 40.7203C51.0649 40.8335 50.9824 40.9349 50.8398 41.0174ZM51.3726 39.3586L51.2948 39.229C51.2601 39.1773 51.2362 39.119 51.2247 39.0578C51.2131 38.9966 51.2141 38.9337 51.2276 38.8729C51.2583 38.755 51.3432 38.6548 51.4799 38.5758C51.7122 38.4391 51.9963 38.419 52.3229 38.5086L52.6695 38.6053L51.3726 39.3586Z" fill="#FED57A"/>
<path d="M41.7632 52.0969L41.7502 54.6729C41.7502 55.1232 41.6335 55.5736 41.4154 55.9992C41.3249 56.1727 41.2171 56.3366 41.0936 56.4884C40.8354 56.8365 40.5271 57.1444 40.1787 57.4021C40.0801 57.4908 39.9722 57.5687 39.8569 57.6344C39.7272 57.7369 39.5857 57.8147 39.4442 57.9055C39.2768 57.9951 39.1094 58.0847 38.9302 58.1755C38.8265 58.2262 38.7239 58.278 38.6072 58.3287C38.3125 58.4584 38.0154 58.574 37.6935 58.6777C37.591 58.7036 37.4872 58.7414 37.3717 58.7673C37.0664 58.8598 36.7567 58.9374 36.4439 58.9996C36.3413 59.0255 36.2258 59.0385 36.122 59.0632C35.8192 59.1147 35.5144 59.1537 35.2083 59.1799C35.1046 59.1917 34.9891 59.2059 34.8865 59.2059C34.5786 59.242 34.2687 59.259 33.9587 59.2566H33.6368C33.328 59.2566 33.0191 59.2306 32.7232 59.2059C32.6194 59.2059 32.5039 59.1929 32.4013 59.1799C31.6682 59.1084 30.9438 58.9663 30.238 58.7555C29.6602 58.7524 29.1027 58.5425 28.6665 58.1637C28.4991 58.0717 28.3446 57.9951 28.1902 57.9043C28.0405 57.8202 27.8942 57.7301 27.7516 57.6344C27.639 57.5599 27.5315 57.478 27.4298 57.3891C27.0794 57.1393 26.7709 56.8352 26.5161 56.4884C26.3853 56.3373 26.2769 56.1682 26.1942 55.9862C25.9586 55.5745 25.8342 55.1084 25.8335 54.634L25.8453 52.045C25.8453 52.5095 25.9632 52.0309 26.1942 52.4683C26.4984 53.0342 26.911 53.4904 27.4298 53.8854C27.6549 54.0822 27.9285 54.2473 28.1902 54.3994C28.3175 54.4748 28.7679 54.7259 28.9883 54.8002C29.3455 54.97 29.8183 55.1445 30.238 55.2494C32.7196 56.0051 35.9275 55.8341 37.6935 55.1727C38.1144 55.0323 38.5272 54.869 38.9302 54.6835C39.4454 54.4253 39.6152 54.3109 39.8569 54.1424C40.2105 53.9455 40.9827 53.31 41.4154 52.5072C41.6465 52.0686 41.7632 52.5473 41.7632 52.0969Z" fill="#F9BB4A"/>
<path d="M39.4101 48.8112C42.526 50.6102 42.5484 53.5316 39.4526 55.3307C36.3496 57.1344 31.3062 57.1297 28.1903 55.3307C25.0743 53.5316 25.0578 50.615 28.1596 48.8112C31.2566 47.0122 36.2942 47.0122 39.4101 48.8112Z" fill="#FED57A"/>
<path d="M38.2487 49.7851C40.7198 51.0465 40.7375 53.0955 38.2829 54.357C35.8225 55.622 31.8224 55.6184 29.3513 54.357C26.8803 53.0955 26.8673 51.0489 29.3278 49.7851C31.7835 48.5236 35.7765 48.5236 38.2487 49.7851Z" fill="#EFAC41"/>
<path d="M41.4143 53.4361V55.9991C41.3242 56.1726 41.2167 56.3365 41.0936 56.4884V53.9383C41.2222 53.7709 41.3235 53.6035 41.4143 53.4361ZM40.1788 54.8391V57.402C40.0802 57.4908 39.9722 57.5686 39.857 57.6343V55.0713C39.9725 55.0076 40.0762 54.9287 40.1788 54.8391ZM38.9291 55.6124V58.1754C38.8266 58.2261 38.724 58.278 38.6073 58.3287V55.7539C38.724 55.7032 38.8254 55.6643 38.9291 55.6124ZM37.6936 56.1017V58.6776C37.5911 58.7036 37.4873 58.7413 37.3718 58.7672V56.1925C37.4873 56.1665 37.5911 56.1406 37.6936 56.1017ZM36.444 56.4235V58.9995C36.3414 59.0254 36.2259 59.0384 36.1221 59.0632V56.4884C36.2259 56.4624 36.3414 56.4495 36.444 56.4235ZM35.2084 56.6039V59.1799C35.1047 59.1917 34.9892 59.2058 34.8866 59.2058V56.6298C34.9892 56.6298 35.1047 56.6181 35.2084 56.6039ZM33.9588 56.6817V59.2565H33.6369V56.6687C33.7407 56.6805 33.8562 56.6805 33.9588 56.6805V56.6817ZM32.7232 56.6298V59.2058C32.6195 59.2058 32.504 59.1928 32.4014 59.1799V56.6039C32.504 56.6169 32.6065 56.6298 32.7232 56.6298ZM31.4736 56.4754V59.0514C31.3651 59.036 31.2577 59.0143 31.1517 58.9865V56.4106C31.2543 56.4365 31.358 56.4624 31.4736 56.4754ZM30.2381 56.1795V58.7543C30.1284 58.7321 30.0205 58.7022 29.915 58.6647V56.0887C30.0188 56.1276 30.1343 56.1536 30.2381 56.1795ZM28.9884 55.728V58.3039C28.8778 58.2646 28.7703 58.2174 28.6666 58.1625V55.5865C28.7691 55.6384 28.8729 55.6902 28.9884 55.728ZM27.7517 55.0583V57.6343C27.6391 57.5598 27.5316 57.4779 27.4299 57.3891V54.8143C27.5336 54.9039 27.6362 54.9817 27.7517 55.0583ZM26.5162 53.8994V56.4884C26.3853 56.3373 26.2769 56.1681 26.1943 55.9862V53.3972C26.2839 53.5646 26.3877 53.732 26.5162 53.8994Z" fill="#D89B39"/>
<path d="M36.6844 50.7235L37.321 50.3545L36.8376 50.0751L36.1927 50.4488C36.1161 50.4229 35.5656 50.088 34.6036 50.0857H34.5918C34.0778 50.0857 33.618 50.2012 33.2254 50.4276C32.8623 50.6398 32.6843 50.852 32.6984 51.0583C32.7302 51.4874 33.3374 51.9932 33.4046 52.0698L32.0288 52.8691C31.991 52.8137 31.6444 52.5508 31.523 51.86L30.3052 51.9283C30.4702 52.7772 31.1953 53.2075 31.2872 53.3006L30.7826 53.593L31.266 53.8724L31.7741 53.5777C31.8519 53.6036 32.4438 53.9585 33.4152 53.9667C33.9339 53.9738 34.4149 53.8559 34.8122 53.6248C35.1777 53.4126 35.3545 53.1957 35.3357 52.9788C35.3144 52.7359 35.1176 52.4294 34.7497 52.071L34.6083 51.9307L35.944 51.1538C35.9876 51.208 36.2717 51.4297 36.4498 51.939L37.6122 51.8175C37.4535 51.4374 37.1953 51.1071 36.8647 50.8614L36.6844 50.7235ZM33.2065 53.369C32.9059 53.369 32.6807 53.2641 32.4284 53.1969L33.7571 52.4247C33.8019 52.5013 34.0129 52.7171 33.9669 52.9387C33.9445 53.0519 33.4989 53.369 33.2065 53.369ZM34.2522 51.577L34.1744 51.4473C34.1397 51.3956 34.1158 51.3374 34.1043 51.2762C34.0927 51.215 34.0937 51.1521 34.1072 51.0913C34.1379 50.9734 34.2228 50.8732 34.3595 50.7942C34.5918 50.6575 34.8759 50.6374 35.2024 50.727L35.5479 50.8237L34.2511 51.5782L34.2522 51.577Z" fill="#FED57A"/>
<path d="M41.763 48.8125C41.6781 51.0843 41.9434 51.6891 41.4152 52.7148C41.1559 53.1946 40.7373 53.6933 40.1785 54.1177C39.9628 54.3063 39.5278 54.5669 39.4441 54.6199C39.2024 54.7508 38.8617 54.9323 38.607 55.0443C38.2356 55.207 37.7051 55.4086 37.3715 55.4829C36.4755 55.7552 35.3331 55.9203 34.8863 55.9203C34.3452 55.9886 33.8665 55.9698 33.6366 55.9721C33.2794 55.9721 32.5226 55.9108 32.4011 55.8955C31.5299 55.8224 30.2791 55.5171 29.9148 55.3803C29.4878 55.2411 29.0707 55.0733 28.6663 54.8781C28.4812 54.7779 28.0544 54.5621 27.7514 54.3499C27.3105 54.0552 26.8271 53.6367 26.5159 53.204C26.3851 53.0529 26.2767 52.8838 26.1941 52.7018C25.6187 51.6714 25.9123 51.0242 25.8463 48.7606C25.8463 49.2239 25.9618 48.7465 26.1941 49.1839C26.2837 49.3513 26.3874 49.5187 26.5159 49.6861C27.1443 50.5585 28.0603 51.0466 28.6663 51.3719C28.8867 51.4828 29.4043 51.7115 29.9159 51.8754C29.9749 51.8989 30.6457 52.0923 31.1515 52.1972C31.3778 52.2538 32.0333 52.3599 32.4011 52.3905C32.6204 52.4177 33.2983 52.4684 33.6366 52.4542C33.8017 52.4754 34.3864 52.4778 34.8863 52.4165C34.9889 52.4165 35.1044 52.4035 35.2082 52.3905C36.1242 52.3139 37.2831 52.0416 37.6933 51.8883C38.6424 51.5842 39.3427 51.2163 39.8567 50.8579C40.1078 50.7176 40.7562 50.1918 41.0934 49.725C41.2219 49.5576 41.3244 49.3902 41.4152 49.2228C41.6463 48.7842 41.763 49.2628 41.763 48.8125Z" fill="#F9BB4A"/>
<path d="M39.4101 45.5268C42.526 47.3258 42.5484 50.2472 39.4526 52.0463C36.3496 53.85 31.3062 53.8453 28.1903 52.0463C25.0743 50.2472 25.0578 47.3294 28.1596 45.5268C31.2566 43.7277 36.2942 43.7277 39.4101 45.5268Z" fill="#FED57A"/>
<path d="M38.2487 46.5005C40.7198 47.762 40.7375 49.811 38.2829 51.0724C35.8225 52.3374 31.8224 52.3339 29.3513 51.0724C26.8803 49.811 26.8673 47.7643 29.3278 46.5005C31.7835 45.2391 35.7765 45.2391 38.2487 46.5005Z" fill="#EFAC41"/>
<path d="M41.4143 50.1517V52.7147C41.3242 52.8882 41.2167 53.0521 41.0936 53.2039V50.6539C41.2222 50.4865 41.3235 50.3191 41.4143 50.1517ZM40.1788 51.5546V54.1176C40.0802 54.2063 39.9722 54.2842 39.857 54.3499V51.7869C39.9725 51.7232 40.0762 51.6454 40.1788 51.5558V51.5546ZM38.9291 52.328V54.891C38.8266 54.9417 38.724 54.9936 38.6073 55.0443V52.4695C38.724 52.4176 38.8254 52.3799 38.9291 52.328ZM37.6936 52.8173V55.3932C37.5911 55.418 37.4873 55.4569 37.3718 55.4828V52.908C37.4873 52.8821 37.5911 52.8562 37.6936 52.8173ZM36.444 53.1391V55.7151C36.3414 55.7398 36.2259 55.7528 36.1221 55.7787V53.2051C36.2259 53.1792 36.3414 53.165 36.444 53.1391ZM35.2084 53.3195V55.8954C35.1047 55.9072 34.9892 55.9202 34.8866 55.9202V53.3466C34.9892 53.3466 35.1047 53.3325 35.2084 53.3195ZM33.9588 53.3973V55.9721H33.6369V53.3843C33.7407 53.3961 33.8562 53.3973 33.9588 53.3973ZM32.7232 53.3454V55.9202C32.6195 55.9202 32.504 55.9084 32.4014 55.8954V53.3195C32.504 53.3313 32.6065 53.3454 32.7232 53.3454ZM31.4736 53.191V55.7658C31.3652 55.7508 31.2577 55.7295 31.1517 55.7021V53.1261C31.2543 53.1521 31.358 53.178 31.4736 53.191ZM30.2381 52.8951V55.4699C30.1284 55.4477 30.0205 55.4177 29.915 55.3803V52.8043C30.0188 52.8432 30.1343 52.8691 30.2381 52.8951ZM28.9884 52.4435V55.0195C28.8778 54.9802 28.7703 54.9329 28.6666 54.878V52.3021C28.7691 52.3539 28.8729 52.4046 28.9884 52.4435ZM27.7517 51.7739V54.3499C27.6391 54.2754 27.5316 54.1935 27.4299 54.1047V51.531C27.5336 51.6206 27.6362 51.6973 27.7517 51.7739ZM26.5162 50.615V53.2039C26.3853 53.0529 26.2769 52.8837 26.1943 52.7017V50.1128C26.2839 50.2802 26.3877 50.4476 26.5162 50.615Z" fill="#D89B39"/>
<path d="M36.6846 47.439L37.3213 47.07L36.8379 46.7894L36.193 47.1643L36.1223 47.1313C35.6454 46.9145 35.1277 46.802 34.6038 46.8012H34.5921C34.078 46.8012 33.6183 46.9168 33.2257 47.1431C32.8626 47.3553 32.6845 47.5675 32.6987 47.7738C32.7164 48.0026 32.905 48.2961 33.2622 48.6462L33.4037 48.7854L32.0291 49.5847C31.9913 49.5293 31.6447 49.2664 31.5233 48.5755L30.3066 48.6439C30.4717 49.4927 31.1956 49.923 31.2875 50.0162L30.7829 50.3085L31.2663 50.5879L31.7744 50.2932C31.8522 50.3191 32.444 50.674 33.4155 50.6823C33.9342 50.6882 34.4152 50.5714 34.8125 50.3404C35.178 50.1282 35.3548 49.9112 35.336 49.6943C35.3147 49.4503 35.1179 49.1449 34.75 48.7865L34.6086 48.6451L35.9443 47.8693L36.0268 47.9542C36.2119 48.1428 36.3534 48.3774 36.45 48.6545L37.6125 48.5331C37.454 48.1525 37.1958 47.8218 36.865 47.5758L36.6846 47.439ZM33.7196 49.9513C33.5636 50.0405 33.3865 50.0861 33.2068 50.0834C33.0689 50.0834 32.9215 50.0598 32.7635 50.0126L32.4287 49.9124L33.7574 49.1402L33.8375 49.2522C33.9484 49.4055 33.9908 49.5375 33.9672 49.6542C33.9448 49.7674 33.8623 49.8688 33.7196 49.9513ZM34.2525 48.2926L34.1747 48.1629C34.14 48.1112 34.1161 48.053 34.1046 47.9918C34.093 47.9306 34.094 47.8677 34.1075 47.8068C34.1382 47.689 34.223 47.5887 34.3598 47.5098C34.592 47.373 34.8762 47.353 35.2027 47.4426L35.5482 47.5392L34.2525 48.2926Z" fill="#FED57A"/>
<path d="M41.7634 45.7259L41.7504 48.3019C41.7504 48.9857 41.4698 49.6659 41.0938 50.1175C40.6552 50.7246 40.0799 51.1302 39.4444 51.5334C38.8562 51.8517 38.0769 52.2395 37.3719 52.3963C36.7883 52.5732 36.0161 52.7406 35.2085 52.809C35.0553 52.8278 34.454 52.8856 33.9589 52.8856C33.9294 52.8844 33.1266 52.8986 32.4015 52.809C31.9817 52.768 31.5644 52.7035 31.1518 52.6156C30.7354 52.5253 30.3228 52.4179 29.9152 52.2938C29.4882 52.1546 29.0711 51.9868 28.6667 51.7915C28.4816 51.6913 28.0548 51.4756 27.7518 51.2634C27.3109 50.9686 26.8275 50.5501 26.5163 50.1175C26.1461 49.673 25.8325 48.9668 25.8325 48.263L25.8467 45.6741C25.8467 46.1374 25.9622 45.6587 26.1945 46.0973C27.2673 48.0932 30.1804 49.1189 32.4015 49.304C32.5041 49.3158 32.6066 49.3288 32.7234 49.3288C33.0181 49.3547 33.3282 49.3806 33.637 49.3677C33.7408 49.3806 33.8563 49.3806 33.9589 49.3806C34.2678 49.3806 34.5778 49.3688 34.8867 49.3288C34.9893 49.3288 35.1048 49.317 35.2085 49.304C35.624 49.2717 36.0367 49.2114 36.4441 49.1236C36.938 49.0246 37.6183 48.8289 37.6937 48.8018C38.1146 48.6614 38.5274 48.498 38.9304 48.3125C39.2548 48.1596 39.5649 47.9781 39.8571 47.7702C39.9726 47.7065 40.0763 47.6287 40.1789 47.5391C40.5526 47.2562 40.8615 46.9603 41.0938 46.6384C41.2223 46.471 41.3248 46.3036 41.4156 46.1362C41.6467 45.6977 41.7634 46.1763 41.7634 45.7259Z" fill="#F9BB4A"/>
<path d="M39.4101 42.4403C42.526 44.2393 42.5484 47.1607 39.4526 48.9597C36.3496 50.7623 31.3062 50.7588 28.1903 48.9597C25.0743 47.1607 25.0578 44.2428 28.1596 42.4403C31.2566 40.64 36.2942 40.64 39.4101 42.4403Z" fill="#FED57A"/>
<path d="M38.2487 43.4141C40.7198 44.6756 40.7375 46.7245 38.2829 47.986C35.8225 49.251 31.8224 49.2475 29.3513 47.986C26.8803 46.7245 26.8673 44.6779 29.3278 43.4141C31.7835 42.1527 35.7765 42.1527 38.2487 43.4141Z" fill="#EFAC41"/>
<path d="M41.4143 47.0653V49.6283C41.3242 49.8017 41.2167 49.9656 41.0936 50.1175V47.5675C41.2222 47.4001 41.3235 47.2327 41.4143 47.0653ZM40.1788 48.4682V51.0312C40.0802 51.1199 39.9722 51.1978 39.857 51.2634V48.7004C39.9725 48.6356 40.0762 48.559 40.1788 48.4682ZM38.9291 49.2416V51.8046C38.8266 51.8553 38.724 51.9071 38.6073 51.9578V49.383C38.724 49.3312 38.8254 49.2935 38.9291 49.2416ZM37.6936 49.7308V52.3068C37.5911 52.3316 37.4873 52.3705 37.3718 52.3964V49.8204C37.4873 49.7957 37.5911 49.7697 37.6936 49.7308ZM36.444 50.0527V52.6286C36.3414 52.6534 36.2259 52.6664 36.1221 52.6923V50.1175C36.2259 50.0916 36.3414 50.0786 36.444 50.0527ZM35.2084 50.2331V52.809C35.1047 52.8208 34.9892 52.8338 34.8866 52.8338V50.259C34.9892 50.259 35.1047 50.246 35.2084 50.2331ZM33.9588 50.3109V52.8856H33.6369V50.2979C33.7407 50.3097 33.8562 50.3109 33.9588 50.3109ZM32.7232 50.259V52.8338C32.6195 52.8338 32.504 52.822 32.4014 52.809V50.2331C32.504 50.2448 32.6065 50.259 32.7232 50.259ZM31.4736 50.1046V52.6793C31.3652 52.6643 31.2577 52.6431 31.1517 52.6157V50.0397C31.2543 50.0656 31.358 50.0916 31.4736 50.1046ZM30.2381 49.8075V52.3834C30.1284 52.3612 30.0205 52.3313 29.915 52.2938V49.7179C30.0188 49.7568 30.1343 49.7827 30.2381 49.8075ZM28.9884 49.3571V51.9331C28.8778 51.8938 28.7703 51.8465 28.6666 51.7916V49.2156C28.7691 49.2675 28.8729 49.3182 28.9884 49.3571ZM27.7517 48.6875V51.2634C27.6391 51.189 27.5316 51.107 27.4299 51.0182V48.4434C27.5336 48.533 27.6362 48.6108 27.7517 48.6875ZM26.5162 47.5286V50.1175C26.3853 49.9664 26.2769 49.7973 26.1943 49.6153V47.0264C26.2839 47.1938 26.3877 47.3612 26.5162 47.5286Z" fill="#D89B39"/>
<path d="M36.6846 44.3514L37.3213 43.9824L36.8379 43.703L36.193 44.0779C36.1164 44.052 35.5658 43.7172 34.6038 43.7136H34.5921C34.078 43.7136 33.6183 43.8303 33.2257 44.0567C32.5773 44.4339 32.4653 44.7805 33.261 45.5586L33.4049 45.6989L32.0291 46.4982C31.9913 46.4428 31.6447 46.1799 31.5233 45.4879L30.3066 45.5575C30.4717 46.4063 31.1956 46.8366 31.2875 46.9297L30.7829 47.2221L31.2663 47.5015L31.7744 47.2068C31.8522 47.2327 32.444 47.5876 33.4155 47.5958C33.9342 47.6017 34.4152 47.485 34.8125 47.2539C35.178 47.0417 35.3548 46.8236 35.336 46.6079C35.3147 46.3638 35.1179 46.0585 34.75 45.7001L34.6086 45.5586L35.9443 44.7829C35.9879 44.8371 36.272 45.0588 36.45 45.5681L37.6125 45.4466C37.454 45.0661 37.1958 44.7354 36.865 44.4893L36.6846 44.3514ZM33.7196 46.8649C33.2634 47.1302 32.8248 46.9321 32.4287 46.826L33.7574 46.0538L33.8375 46.1658C33.9484 46.319 33.9908 46.4511 33.9672 46.5678C33.9448 46.681 33.8623 46.7824 33.7196 46.8649ZM34.2525 45.2061L34.1747 45.0765C34.14 45.0248 34.1161 44.9665 34.1046 44.9053C34.093 44.8441 34.094 44.7812 34.1075 44.7204C34.1382 44.6025 34.223 44.5023 34.3598 44.4222C34.8255 44.1498 35.343 44.4174 35.5482 44.4528L34.2525 45.2061Z" fill="#FED57A"/>
<path d="M41.7632 42.4415C41.6783 44.7133 41.9436 45.3181 41.4154 46.3438C41.3248 46.5169 41.217 46.6804 41.0936 46.8319C39.9193 48.4623 37.2408 49.3548 35.2083 49.5234C35.1046 49.5363 34.9891 49.5493 34.8865 49.5493C34.5786 49.5859 34.2687 49.6032 33.9587 49.6012H33.6368C33.328 49.6012 33.0191 49.5752 32.7232 49.5493C32.406 49.5493 31.2648 49.4114 30.238 49.0989C29.1038 48.8466 27.3001 47.9224 26.5161 46.8319C26.3853 46.6808 26.2769 46.5116 26.1942 46.3296C25.9588 45.9182 25.8344 45.4526 25.8335 44.9786L25.8453 42.3896C25.8453 42.853 25.9632 42.3743 26.1942 42.8129C26.2838 42.9803 26.3876 43.1477 26.5161 43.3151C26.8556 43.7867 27.4097 44.2465 27.7516 44.474C28.4213 44.9164 29.1494 45.2632 29.9149 45.5044C29.9763 45.5268 30.6459 45.7201 31.1528 45.8262C31.565 45.9141 31.9819 45.9786 32.4013 46.0196C32.5039 46.0314 32.6064 46.0443 32.7232 46.0443C33.0179 46.0703 33.328 46.0962 33.6368 46.0832C33.7406 46.0962 33.8561 46.0962 33.9587 46.0962C34.2676 46.0962 34.5776 46.0844 34.8865 46.0443C34.9891 46.0443 35.1046 46.0325 35.2083 46.0196C37.4424 45.8321 40.3485 44.8324 41.4154 42.8506C41.6465 42.4132 41.7632 42.8919 41.7632 42.4415Z" fill="#F9BB4A"/>
<path d="M39.4101 39.1547C42.526 40.9549 42.5484 43.8751 39.4526 45.6742C36.3496 47.4779 31.3062 47.4744 28.1903 45.6742C25.0743 43.8751 25.0578 40.9585 28.1596 39.1547C31.2566 37.3557 36.2942 37.3557 39.4101 39.1547Z" fill="#FED57A"/>
<path d="M38.2487 40.1285C40.7198 41.3899 40.7375 43.4401 38.2829 44.7027C35.8225 45.9665 31.8224 45.9642 29.3513 44.7027C26.8803 43.4401 26.8673 41.3935 29.3278 40.1285C31.7835 38.867 35.7765 38.867 38.2487 40.1285Z" fill="#EFAC41"/>
<path d="M41.4143 43.7807V46.3425C41.3242 46.516 41.2167 46.6799 41.0936 46.8318V44.2829C41.2222 44.1155 41.3235 43.9481 41.4143 43.7807ZM40.1788 45.1837V47.7466C40.0802 47.8354 39.9722 47.9132 39.857 47.9789V45.4159C39.9725 45.3511 40.0762 45.2744 40.1788 45.1837ZM38.9291 45.957V48.5188C38.8266 48.5707 38.724 48.6226 38.6073 48.6733V46.0985C38.724 46.0466 38.8254 46.0077 38.9291 45.957ZM37.6936 46.4463V49.0211C37.5911 49.047 37.4873 49.0859 37.3718 49.1118V46.5359C37.4873 46.5099 37.5911 46.4852 37.6936 46.4463ZM36.444 46.7681V49.3429C36.3414 49.3689 36.2259 49.3818 36.1221 49.4078V46.8318C36.2259 46.807 36.3414 46.7941 36.444 46.7681ZM35.2084 46.9485V49.5233C35.1047 49.5363 34.9892 49.5492 34.8866 49.5492V46.9744C34.9892 46.9744 35.1047 46.9615 35.2084 46.9485ZM33.9588 47.0251V49.6011H33.6369V47.0122C33.7407 47.0251 33.8562 47.0251 33.9588 47.0251ZM32.7232 46.9744V49.5492C32.6195 49.5492 32.504 49.5374 32.4014 49.5233V46.9485C32.504 46.9603 32.6065 46.9744 32.7232 46.9744ZM31.4736 46.82V49.3948C31.3652 49.3798 31.2577 49.3585 31.1517 49.3311V46.7552C31.2543 46.7811 31.358 46.807 31.4736 46.82ZM30.2381 46.5229V49.0989C30.1284 49.0763 30.0204 49.046 29.915 49.0081V46.4333C30.0188 46.4722 30.1343 46.497 30.2381 46.5229ZM28.9884 46.0726V48.6485C28.8778 48.6092 28.7703 48.562 28.6666 48.5071V45.9311C28.7691 45.983 28.8729 46.0337 28.9884 46.0726ZM27.7517 45.4029V47.9789C27.6391 47.9044 27.5316 47.8225 27.4299 47.7337V45.1589C27.5336 45.2485 27.6362 45.3263 27.7517 45.4029ZM26.5162 44.244V46.8318C26.3853 46.6807 26.2769 46.5116 26.1943 46.3296V43.7418C26.2839 43.9092 26.3877 44.0766 26.5162 44.244Z" fill="#D89B39"/>
<path d="M36.6846 41.0669L37.3213 40.6979L36.8379 40.4185L36.193 40.7934C36.1812 40.7922 34.5779 39.9893 33.2257 40.7721C32.5773 41.1494 32.4653 41.496 33.261 42.2741L33.4049 42.4132L32.0291 43.2125C31.9913 43.1583 31.6447 42.8942 31.5233 42.2034L30.3066 42.2729C30.4717 43.1217 31.1956 43.5509 31.2875 43.644L30.7829 43.9376L31.2663 44.217L31.7744 43.9211C31.7862 43.9222 33.4308 44.7711 34.8125 43.9682C35.178 43.756 35.3548 43.5391 35.336 43.3233C35.2959 42.8706 34.6758 42.3507 34.6086 42.2741L35.9443 41.4984C35.9879 41.5526 36.272 41.7742 36.45 42.2835L37.6125 42.1621C37.3295 41.4665 36.7837 41.1588 36.6846 41.0669ZM33.2068 43.7124C32.9062 43.7124 32.681 43.6086 32.4287 43.5414L33.7574 42.7692L33.8375 42.8812C33.9484 43.0345 33.9908 43.1665 33.9672 43.2821C33.913 43.565 33.4992 43.7124 33.2068 43.7124ZM34.2525 41.9204C34.2124 41.8379 34.0486 41.6634 34.1075 41.4347C34.1947 41.094 34.704 40.9337 35.2027 41.0704L35.5482 41.1683L34.2513 41.9216L34.2525 41.9204Z" fill="#FED57A"/>
<path d="M41.7632 52.0969L41.7502 54.6729C41.7502 55.1232 41.6335 55.5736 41.4154 55.9992C41.3249 56.1727 41.2171 56.3366 41.0936 56.4884C40.8354 56.8365 40.5271 57.1444 40.1787 57.4021C40.0801 57.4908 39.9722 57.5687 39.8569 57.6344C39.7272 57.7369 39.5857 57.8147 39.4442 57.9055C39.2768 57.9951 39.1094 58.0847 38.9302 58.1755C38.8265 58.2262 38.7239 58.278 38.6072 58.3287C38.3125 58.4584 38.0154 58.574 37.6935 58.6777C37.591 58.7036 37.4872 58.7414 37.3717 58.7673C37.0664 58.8598 36.7567 58.9374 36.4439 58.9996C36.3413 59.0255 36.2258 59.0385 36.122 59.0632C35.8192 59.1147 35.5144 59.1537 35.2083 59.1799C35.1046 59.1917 34.9891 59.2059 34.8865 59.2059C34.5786 59.242 34.2687 59.259 33.9587 59.2566H33.6368C33.328 59.2566 33.0191 59.2306 32.7232 59.2059C32.6194 59.2059 32.5039 59.1929 32.4013 59.1799C31.6682 59.1084 30.9438 58.9663 30.238 58.7555C29.6602 58.7524 29.1027 58.5425 28.6665 58.1637C28.4991 58.0717 28.3446 57.9951 28.1902 57.9043C28.0405 57.8202 27.8942 57.7301 27.7516 57.6344C27.639 57.5599 27.5315 57.478 27.4298 57.3891C27.0794 57.1393 26.7709 56.8352 26.5161 56.4884C26.3853 56.3373 26.2769 56.1682 26.1942 55.9862C25.9586 55.5745 25.8342 55.1084 25.8335 54.634L25.8453 52.045C25.8453 52.5095 25.9632 52.0309 26.1942 52.4683C26.4984 53.0342 26.911 53.4904 27.4298 53.8854C27.6549 54.0822 27.9285 54.2473 28.1902 54.3994C28.3175 54.4748 28.7679 54.7259 28.9883 54.8002C29.3455 54.97 29.8183 55.1445 30.238 55.2494C32.7196 56.0051 35.9275 55.8341 37.6935 55.1727C38.1144 55.0323 38.5272 54.869 38.9302 54.6835C39.4454 54.4253 39.6152 54.3109 39.8569 54.1424C40.2105 53.9455 40.9827 53.31 41.4154 52.5072C41.6465 52.0686 41.7632 52.5473 41.7632 52.0969Z" fill="#F9BB4A"/>
<path d="M39.4101 48.8112C42.526 50.6102 42.5484 53.5316 39.4526 55.3307C36.3496 57.1344 31.3062 57.1297 28.1903 55.3307C25.0743 53.5316 25.0578 50.615 28.1596 48.8112C31.2566 47.0122 36.2942 47.0122 39.4101 48.8112Z" fill="#FED57A"/>
<path d="M38.2487 49.7851C40.7198 51.0465 40.7375 53.0955 38.2829 54.357C35.8225 55.622 31.8224 55.6184 29.3513 54.357C26.8803 53.0955 26.8673 51.0489 29.3278 49.7851C31.7835 48.5236 35.7765 48.5236 38.2487 49.7851Z" fill="#EFAC41"/>
<path d="M41.4143 53.4361V55.9991C41.3242 56.1726 41.2167 56.3365 41.0936 56.4884V53.9383C41.2222 53.7709 41.3235 53.6035 41.4143 53.4361ZM40.1788 54.8391V57.402C40.0802 57.4908 39.9722 57.5686 39.857 57.6343V55.0713C39.9725 55.0076 40.0762 54.9287 40.1788 54.8391ZM38.9291 55.6124V58.1754C38.8266 58.2261 38.724 58.278 38.6073 58.3287V55.7539C38.724 55.7032 38.8254 55.6643 38.9291 55.6124ZM37.6936 56.1017V58.6776C37.5911 58.7036 37.4873 58.7413 37.3718 58.7672V56.1925C37.4873 56.1665 37.5911 56.1406 37.6936 56.1017ZM36.444 56.4235V58.9995C36.3414 59.0254 36.2259 59.0384 36.1221 59.0632V56.4884C36.2259 56.4624 36.3414 56.4495 36.444 56.4235ZM35.2084 56.6039V59.1799C35.1047 59.1917 34.9892 59.2058 34.8866 59.2058V56.6298C34.9892 56.6298 35.1047 56.6181 35.2084 56.6039ZM33.9588 56.6817V59.2565H33.6369V56.6687C33.7407 56.6805 33.8562 56.6805 33.9588 56.6805V56.6817ZM32.7232 56.6298V59.2058C32.6195 59.2058 32.504 59.1928 32.4014 59.1799V56.6039C32.504 56.6169 32.6065 56.6298 32.7232 56.6298ZM31.4736 56.4754V59.0514C31.3651 59.036 31.2577 59.0143 31.1517 58.9865V56.4106C31.2543 56.4365 31.358 56.4624 31.4736 56.4754ZM30.2381 56.1795V58.7543C30.1284 58.7321 30.0205 58.7022 29.915 58.6647V56.0887C30.0188 56.1276 30.1343 56.1536 30.2381 56.1795ZM28.9884 55.728V58.3039C28.8778 58.2646 28.7703 58.2174 28.6666 58.1625V55.5865C28.7691 55.6384 28.8729 55.6902 28.9884 55.728ZM27.7517 55.0583V57.6343C27.6391 57.5598 27.5316 57.4779 27.4299 57.3891V54.8143C27.5336 54.9039 27.6362 54.9817 27.7517 55.0583ZM26.5162 53.8994V56.4884C26.3853 56.3373 26.2769 56.1681 26.1943 55.9862V53.3972C26.2839 53.5646 26.3877 53.732 26.5162 53.8994Z" fill="#D89B39"/>
<path d="M36.6844 50.7235L37.321 50.3545L36.8376 50.0751L36.1927 50.4488C36.1161 50.4229 35.5656 50.088 34.6036 50.0857H34.5918C34.0778 50.0857 33.618 50.2012 33.2254 50.4276C32.8623 50.6398 32.6843 50.852 32.6984 51.0583C32.7302 51.4874 33.3374 51.9932 33.4046 52.0698L32.0288 52.8691C31.991 52.8137 31.6444 52.5508 31.523 51.86L30.3052 51.9283C30.4702 52.7772 31.1953 53.2075 31.2872 53.3006L30.7826 53.593L31.266 53.8724L31.7741 53.5777C31.8519 53.6036 32.4438 53.9585 33.4152 53.9667C33.9339 53.9738 34.4149 53.8559 34.8122 53.6248C35.1777 53.4126 35.3545 53.1957 35.3357 52.9788C35.3144 52.7359 35.1176 52.4294 34.7497 52.071L34.6083 51.9307L35.944 51.1538C35.9876 51.208 36.2717 51.4297 36.4498 51.939L37.6122 51.8175C37.4535 51.4374 37.1953 51.1071 36.8647 50.8614L36.6844 50.7235ZM33.2065 53.369C32.9059 53.369 32.6807 53.2641 32.4284 53.1969L33.7571 52.4247C33.8019 52.5013 34.0129 52.7171 33.9669 52.9387C33.9445 53.0519 33.4989 53.369 33.2065 53.369ZM34.2522 51.577L34.1744 51.4473C34.1397 51.3956 34.1158 51.3374 34.1043 51.2762C34.0927 51.215 34.0937 51.1521 34.1072 51.0913C34.1379 50.9734 34.2228 50.8732 34.3595 50.7942C34.5918 50.6575 34.8759 50.6374 35.2024 50.727L35.5479 50.8237L34.2511 51.5782L34.2522 51.577Z" fill="#FED57A"/>
<path d="M41.763 48.8125C41.6781 51.0843 41.9434 51.6891 41.4152 52.7148C41.1559 53.1946 40.7373 53.6933 40.1785 54.1177C39.9628 54.3063 39.5278 54.5669 39.4441 54.6199C39.2024 54.7508 38.8617 54.9323 38.607 55.0443C38.2356 55.207 37.7051 55.4086 37.3715 55.4829C36.4755 55.7552 35.3331 55.9203 34.8863 55.9203C34.3452 55.9886 33.8665 55.9698 33.6366 55.9721C33.2794 55.9721 32.5226 55.9108 32.4011 55.8955C31.5299 55.8224 30.2791 55.5171 29.9148 55.3803C29.4878 55.2411 29.0707 55.0733 28.6663 54.8781C28.4812 54.7779 28.0544 54.5621 27.7514 54.3499C27.3105 54.0552 26.8271 53.6367 26.5159 53.204C26.3851 53.0529 26.2767 52.8838 26.1941 52.7018C25.6187 51.6714 25.9123 51.0242 25.8463 48.7606C25.8463 49.2239 25.9618 48.7465 26.1941 49.1839C26.2837 49.3513 26.3874 49.5187 26.5159 49.6861C27.1443 50.5585 28.0603 51.0466 28.6663 51.3719C28.8867 51.4828 29.4043 51.7115 29.9159 51.8754C29.9749 51.8989 30.6457 52.0923 31.1515 52.1972C31.3778 52.2538 32.0333 52.3599 32.4011 52.3905C32.6204 52.4177 33.2983 52.4684 33.6366 52.4542C33.8017 52.4754 34.3864 52.4778 34.8863 52.4165C34.9889 52.4165 35.1044 52.4035 35.2082 52.3905C36.1242 52.3139 37.2831 52.0416 37.6933 51.8883C38.6424 51.5842 39.3427 51.2163 39.8567 50.8579C40.1078 50.7176 40.7562 50.1918 41.0934 49.725C41.2219 49.5576 41.3244 49.3902 41.4152 49.2228C41.6463 48.7842 41.763 49.2628 41.763 48.8125Z" fill="#F9BB4A"/>
<path d="M39.4101 45.5268C42.526 47.3258 42.5484 50.2472 39.4526 52.0463C36.3496 53.85 31.3062 53.8453 28.1903 52.0463C25.0743 50.2472 25.0578 47.3294 28.1596 45.5268C31.2566 43.7277 36.2942 43.7277 39.4101 45.5268Z" fill="#FED57A"/>
<path d="M38.2487 46.5005C40.7198 47.762 40.7375 49.811 38.2829 51.0724C35.8225 52.3374 31.8224 52.3339 29.3513 51.0724C26.8803 49.811 26.8673 47.7643 29.3278 46.5005C31.7835 45.2391 35.7765 45.2391 38.2487 46.5005Z" fill="#EFAC41"/>
<path d="M41.4143 50.1517V52.7147C41.3242 52.8882 41.2167 53.0521 41.0936 53.2039V50.6539C41.2222 50.4865 41.3235 50.3191 41.4143 50.1517ZM40.1788 51.5546V54.1176C40.0802 54.2063 39.9722 54.2842 39.857 54.3499V51.7869C39.9725 51.7232 40.0762 51.6454 40.1788 51.5558V51.5546ZM38.9291 52.328V54.891C38.8266 54.9417 38.724 54.9936 38.6073 55.0443V52.4695C38.724 52.4176 38.8254 52.3799 38.9291 52.328ZM37.6936 52.8173V55.3932C37.5911 55.418 37.4873 55.4569 37.3718 55.4828V52.908C37.4873 52.8821 37.5911 52.8562 37.6936 52.8173ZM36.444 53.1391V55.7151C36.3414 55.7398 36.2259 55.7528 36.1221 55.7787V53.2051C36.2259 53.1792 36.3414 53.165 36.444 53.1391ZM35.2084 53.3195V55.8954C35.1047 55.9072 34.9892 55.9202 34.8866 55.9202V53.3466C34.9892 53.3466 35.1047 53.3325 35.2084 53.3195ZM33.9588 53.3973V55.9721H33.6369V53.3843C33.7407 53.3961 33.8562 53.3973 33.9588 53.3973ZM32.7232 53.3454V55.9202C32.6195 55.9202 32.504 55.9084 32.4014 55.8954V53.3195C32.504 53.3313 32.6065 53.3454 32.7232 53.3454ZM31.4736 53.191V55.7658C31.3652 55.7508 31.2577 55.7295 31.1517 55.7021V53.1261C31.2543 53.1521 31.358 53.178 31.4736 53.191ZM30.2381 52.8951V55.4699C30.1284 55.4477 30.0205 55.4177 29.915 55.3803V52.8043C30.0188 52.8432 30.1343 52.8691 30.2381 52.8951ZM28.9884 52.4435V55.0195C28.8778 54.9802 28.7703 54.9329 28.6666 54.878V52.3021C28.7691 52.3539 28.8729 52.4046 28.9884 52.4435ZM27.7517 51.7739V54.3499C27.6391 54.2754 27.5316 54.1935 27.4299 54.1047V51.531C27.5336 51.6206 27.6362 51.6973 27.7517 51.7739ZM26.5162 50.615V53.2039C26.3853 53.0529 26.2769 52.8837 26.1943 52.7017V50.1128C26.2839 50.2802 26.3877 50.4476 26.5162 50.615Z" fill="#D89B39"/>
<path d="M36.6846 47.439L37.3213 47.07L36.8379 46.7894L36.193 47.1643L36.1223 47.1313C35.6454 46.9145 35.1277 46.802 34.6038 46.8012H34.5921C34.078 46.8012 33.6183 46.9168 33.2257 47.1431C32.8626 47.3553 32.6845 47.5675 32.6987 47.7738C32.7164 48.0026 32.905 48.2961 33.2622 48.6462L33.4037 48.7854L32.0291 49.5847C31.9913 49.5293 31.6447 49.2664 31.5233 48.5755L30.3066 48.6439C30.4717 49.4927 31.1956 49.923 31.2875 50.0162L30.7829 50.3085L31.2663 50.5879L31.7744 50.2932C31.8522 50.3191 32.444 50.674 33.4155 50.6823C33.9342 50.6882 34.4152 50.5714 34.8125 50.3404C35.178 50.1282 35.3548 49.9112 35.336 49.6943C35.3147 49.4503 35.1179 49.1449 34.75 48.7865L34.6086 48.6451L35.9443 47.8693L36.0268 47.9542C36.2119 48.1428 36.3534 48.3774 36.45 48.6545L37.6125 48.5331C37.454 48.1525 37.1958 47.8218 36.865 47.5758L36.6846 47.439ZM33.7196 49.9513C33.5636 50.0405 33.3865 50.0861 33.2068 50.0834C33.0689 50.0834 32.9215 50.0598 32.7635 50.0126L32.4287 49.9124L33.7574 49.1402L33.8375 49.2522C33.9484 49.4055 33.9908 49.5375 33.9672 49.6542C33.9448 49.7674 33.8623 49.8688 33.7196 49.9513ZM34.2525 48.2926L34.1747 48.1629C34.14 48.1112 34.1161 48.053 34.1046 47.9918C34.093 47.9306 34.094 47.8677 34.1075 47.8068C34.1382 47.689 34.223 47.5887 34.3598 47.5098C34.592 47.373 34.8762 47.353 35.2027 47.4426L35.5482 47.5392L34.2525 48.2926Z" fill="#FED57A"/>
<path d="M41.7634 45.7259L41.7504 48.3019C41.7504 48.9857 41.4698 49.6659 41.0938 50.1175C40.6552 50.7246 40.0799 51.1302 39.4444 51.5334C38.8562 51.8517 38.0769 52.2395 37.3719 52.3963C36.7883 52.5732 36.0161 52.7406 35.2085 52.809C35.0553 52.8278 34.454 52.8856 33.9589 52.8856C33.9294 52.8844 33.1266 52.8986 32.4015 52.809C31.9817 52.768 31.5644 52.7035 31.1518 52.6156C30.7354 52.5253 30.3228 52.4179 29.9152 52.2938C29.4882 52.1546 29.0711 51.9868 28.6667 51.7915C28.4816 51.6913 28.0548 51.4756 27.7518 51.2634C27.3109 50.9686 26.8275 50.5501 26.5163 50.1175C26.1461 49.673 25.8325 48.9668 25.8325 48.263L25.8467 45.6741C25.8467 46.1374 25.9622 45.6587 26.1945 46.0973C27.2673 48.0932 30.1804 49.1189 32.4015 49.304C32.5041 49.3158 32.6066 49.3288 32.7234 49.3288C33.0181 49.3547 33.3282 49.3806 33.637 49.3677C33.7408 49.3806 33.8563 49.3806 33.9589 49.3806C34.2678 49.3806 34.5778 49.3688 34.8867 49.3288C34.9893 49.3288 35.1048 49.317 35.2085 49.304C35.624 49.2717 36.0367 49.2114 36.4441 49.1236C36.938 49.0246 37.6183 48.8289 37.6937 48.8018C38.1146 48.6614 38.5274 48.498 38.9304 48.3125C39.2548 48.1596 39.5649 47.9781 39.8571 47.7702C39.9726 47.7065 40.0763 47.6287 40.1789 47.5391C40.5526 47.2562 40.8615 46.9603 41.0938 46.6384C41.2223 46.471 41.3248 46.3036 41.4156 46.1362C41.6467 45.6977 41.7634 46.1763 41.7634 45.7259Z" fill="#F9BB4A"/>
<path d="M39.4101 42.4403C42.526 44.2393 42.5484 47.1607 39.4526 48.9597C36.3496 50.7623 31.3062 50.7588 28.1903 48.9597C25.0743 47.1607 25.0578 44.2428 28.1596 42.4403C31.2566 40.64 36.2942 40.64 39.4101 42.4403Z" fill="#FED57A"/>
<path d="M38.2487 43.4141C40.7198 44.6756 40.7375 46.7245 38.2829 47.986C35.8225 49.251 31.8224 49.2475 29.3513 47.986C26.8803 46.7245 26.8673 44.6779 29.3278 43.4141C31.7835 42.1527 35.7765 42.1527 38.2487 43.4141Z" fill="#EFAC41"/>
<path d="M41.4143 47.0653V49.6283C41.3242 49.8017 41.2167 49.9656 41.0936 50.1175V47.5675C41.2222 47.4001 41.3235 47.2327 41.4143 47.0653ZM40.1788 48.4682V51.0312C40.0802 51.1199 39.9722 51.1978 39.857 51.2634V48.7004C39.9725 48.6356 40.0762 48.559 40.1788 48.4682ZM38.9291 49.2416V51.8046C38.8266 51.8553 38.724 51.9071 38.6073 51.9578V49.383C38.724 49.3312 38.8254 49.2935 38.9291 49.2416ZM37.6936 49.7308V52.3068C37.5911 52.3316 37.4873 52.3705 37.3718 52.3964V49.8204C37.4873 49.7957 37.5911 49.7697 37.6936 49.7308ZM36.444 50.0527V52.6286C36.3414 52.6534 36.2259 52.6664 36.1221 52.6923V50.1175C36.2259 50.0916 36.3414 50.0786 36.444 50.0527ZM35.2084 50.2331V52.809C35.1047 52.8208 34.9892 52.8338 34.8866 52.8338V50.259C34.9892 50.259 35.1047 50.246 35.2084 50.2331ZM33.9588 50.3109V52.8856H33.6369V50.2979C33.7407 50.3097 33.8562 50.3109 33.9588 50.3109ZM32.7232 50.259V52.8338C32.6195 52.8338 32.504 52.822 32.4014 52.809V50.2331C32.504 50.2448 32.6065 50.259 32.7232 50.259ZM31.4736 50.1046V52.6793C31.3652 52.6643 31.2577 52.6431 31.1517 52.6157V50.0397C31.2543 50.0656 31.358 50.0916 31.4736 50.1046ZM30.2381 49.8075V52.3834C30.1284 52.3612 30.0205 52.3313 29.915 52.2938V49.7179C30.0188 49.7568 30.1343 49.7827 30.2381 49.8075ZM28.9884 49.3571V51.9331C28.8778 51.8938 28.7703 51.8465 28.6666 51.7916V49.2156C28.7691 49.2675 28.8729 49.3182 28.9884 49.3571ZM27.7517 48.6875V51.2634C27.6391 51.189 27.5316 51.107 27.4299 51.0182V48.4434C27.5336 48.533 27.6362 48.6108 27.7517 48.6875ZM26.5162 47.5286V50.1175C26.3853 49.9664 26.2769 49.7973 26.1943 49.6153V47.0264C26.2839 47.1938 26.3877 47.3612 26.5162 47.5286Z" fill="#D89B39"/>
<path d="M36.6846 44.3514L37.3213 43.9824L36.8379 43.703L36.193 44.0779C36.1164 44.052 35.5658 43.7172 34.6038 43.7136H34.5921C34.078 43.7136 33.6183 43.8303 33.2257 44.0567C32.5773 44.4339 32.4653 44.7805 33.261 45.5586L33.4049 45.6989L32.0291 46.4982C31.9913 46.4428 31.6447 46.1799 31.5233 45.4879L30.3066 45.5575C30.4717 46.4063 31.1956 46.8366 31.2875 46.9297L30.7829 47.2221L31.2663 47.5015L31.7744 47.2068C31.8522 47.2327 32.444 47.5876 33.4155 47.5958C33.9342 47.6017 34.4152 47.485 34.8125 47.2539C35.178 47.0417 35.3548 46.8236 35.336 46.6079C35.3147 46.3638 35.1179 46.0585 34.75 45.7001L34.6086 45.5586L35.9443 44.7829C35.9879 44.8371 36.272 45.0588 36.45 45.5681L37.6125 45.4466C37.454 45.0661 37.1958 44.7354 36.865 44.4893L36.6846 44.3514ZM33.7196 46.8649C33.2634 47.1302 32.8248 46.9321 32.4287 46.826L33.7574 46.0538L33.8375 46.1658C33.9484 46.319 33.9908 46.4511 33.9672 46.5678C33.9448 46.681 33.8623 46.7824 33.7196 46.8649ZM34.2525 45.2061L34.1747 45.0765C34.14 45.0248 34.1161 44.9665 34.1046 44.9053C34.093 44.8441 34.094 44.7812 34.1075 44.7204C34.1382 44.6025 34.223 44.5023 34.3598 44.4222C34.8255 44.1498 35.343 44.4174 35.5482 44.4528L34.2525 45.2061Z" fill="#FED57A"/>
<path d="M41.7632 42.4415C41.6783 44.7133 41.9436 45.3181 41.4154 46.3438C41.3248 46.5169 41.217 46.6804 41.0936 46.8319C39.9193 48.4623 37.2408 49.3548 35.2083 49.5234C35.1046 49.5363 34.9891 49.5493 34.8865 49.5493C34.5786 49.5859 34.2687 49.6032 33.9587 49.6012H33.6368C33.328 49.6012 33.0191 49.5752 32.7232 49.5493C32.406 49.5493 31.2648 49.4114 30.238 49.0989C29.1038 48.8466 27.3001 47.9224 26.5161 46.8319C26.3853 46.6808 26.2769 46.5116 26.1942 46.3296C25.9588 45.9182 25.8344 45.4526 25.8335 44.9786L25.8453 42.3896C25.8453 42.853 25.9632 42.3743 26.1942 42.8129C26.2838 42.9803 26.3876 43.1477 26.5161 43.3151C26.8556 43.7867 27.4097 44.2465 27.7516 44.474C28.4213 44.9164 29.1494 45.2632 29.9149 45.5044C29.9763 45.5268 30.6459 45.7201 31.1528 45.8262C31.565 45.9141 31.9819 45.9786 32.4013 46.0196C32.5039 46.0314 32.6064 46.0443 32.7232 46.0443C33.0179 46.0703 33.328 46.0962 33.6368 46.0832C33.7406 46.0962 33.8561 46.0962 33.9587 46.0962C34.2676 46.0962 34.5776 46.0844 34.8865 46.0443C34.9891 46.0443 35.1046 46.0325 35.2083 46.0196C37.4424 45.8321 40.3485 44.8324 41.4154 42.8506C41.6465 42.4132 41.7632 42.8919 41.7632 42.4415Z" fill="#F9BB4A"/>
<path d="M39.4101 39.1547C42.526 40.9549 42.5484 43.8751 39.4526 45.6742C36.3496 47.4779 31.3062 47.4744 28.1903 45.6742C25.0743 43.8751 25.0578 40.9585 28.1596 39.1547C31.2566 37.3557 36.2942 37.3557 39.4101 39.1547Z" fill="#FED57A"/>
<path d="M38.2487 40.1285C40.7198 41.3899 40.7375 43.4401 38.2829 44.7027C35.8225 45.9665 31.8224 45.9642 29.3513 44.7027C26.8803 43.4401 26.8673 41.3935 29.3278 40.1285C31.7835 38.867 35.7765 38.867 38.2487 40.1285Z" fill="#EFAC41"/>
<path d="M41.4143 43.7807V46.3425C41.3242 46.516 41.2167 46.6799 41.0936 46.8318V44.2829C41.2222 44.1155 41.3235 43.9481 41.4143 43.7807ZM40.1788 45.1837V47.7466C40.0802 47.8354 39.9722 47.9132 39.857 47.9789V45.4159C39.9725 45.3511 40.0762 45.2744 40.1788 45.1837ZM38.9291 45.957V48.5188C38.8266 48.5707 38.724 48.6226 38.6073 48.6733V46.0985C38.724 46.0466 38.8254 46.0077 38.9291 45.957ZM37.6936 46.4463V49.0211C37.5911 49.047 37.4873 49.0859 37.3718 49.1118V46.5359C37.4873 46.5099 37.5911 46.4852 37.6936 46.4463ZM36.444 46.7681V49.3429C36.3414 49.3689 36.2259 49.3818 36.1221 49.4078V46.8318C36.2259 46.807 36.3414 46.7941 36.444 46.7681ZM35.2084 46.9485V49.5233C35.1047 49.5363 34.9892 49.5492 34.8866 49.5492V46.9744C34.9892 46.9744 35.1047 46.9615 35.2084 46.9485ZM33.9588 47.0251V49.6011H33.6369V47.0122C33.7407 47.0251 33.8562 47.0251 33.9588 47.0251ZM32.7232 46.9744V49.5492C32.6195 49.5492 32.504 49.5374 32.4014 49.5233V46.9485C32.504 46.9603 32.6065 46.9744 32.7232 46.9744ZM31.4736 46.82V49.3948C31.3652 49.3798 31.2577 49.3585 31.1517 49.3311V46.7552C31.2543 46.7811 31.358 46.807 31.4736 46.82ZM30.2381 46.5229V49.0989C30.1284 49.0763 30.0204 49.046 29.915 49.0081V46.4333C30.0188 46.4722 30.1343 46.497 30.2381 46.5229ZM28.9884 46.0726V48.6485C28.8778 48.6092 28.7703 48.562 28.6666 48.5071V45.9311C28.7691 45.983 28.8729 46.0337 28.9884 46.0726ZM27.7517 45.4029V47.9789C27.6391 47.9044 27.5316 47.8225 27.4299 47.7337V45.1589C27.5336 45.2485 27.6362 45.3263 27.7517 45.4029ZM26.5162 44.244V46.8318C26.3853 46.6807 26.2769 46.5116 26.1943 46.3296V43.7418C26.2839 43.9092 26.3877 44.0766 26.5162 44.244Z" fill="#D89B39"/>
<path d="M36.6846 41.0669L37.3213 40.6979L36.8379 40.4185L36.193 40.7934C36.1812 40.7922 34.5779 39.9893 33.2257 40.7721C32.5773 41.1494 32.4653 41.496 33.261 42.2741L33.4049 42.4132L32.0291 43.2125C31.9913 43.1583 31.6447 42.8942 31.5233 42.2034L30.3066 42.2729C30.4717 43.1217 31.1956 43.5509 31.2875 43.644L30.7829 43.9376L31.2663 44.217L31.7744 43.9211C31.7862 43.9222 33.4308 44.7711 34.8125 43.9682C35.178 43.756 35.3548 43.5391 35.336 43.3233C35.2959 42.8706 34.6758 42.3507 34.6086 42.2741L35.9443 41.4984C35.9879 41.5526 36.272 41.7742 36.45 42.2835L37.6125 42.1621C37.3295 41.4665 36.7837 41.1588 36.6846 41.0669ZM33.2068 43.7124C32.9062 43.7124 32.681 43.6086 32.4287 43.5414L33.7574 42.7692L33.8375 42.8812C33.9484 43.0345 33.9908 43.1665 33.9672 43.2821C33.913 43.565 33.4992 43.7124 33.2068 43.7124ZM34.2525 41.9204C34.2124 41.8379 34.0486 41.6634 34.1075 41.4347C34.1947 41.094 34.704 40.9337 35.2027 41.0704L35.5482 41.1683L34.2513 41.9216L34.2525 41.9204Z" fill="#FED57A"/>
<path d="M41.7632 39.3551L41.7502 41.9299C41.7502 42.6137 41.4696 43.2951 41.0936 43.7454C40.7187 44.2653 40.0797 44.7676 39.8569 44.8925C39.6329 45.0717 39.1872 45.3052 38.9302 45.4325C38.5176 45.6388 38.1038 45.8038 37.6935 45.9347C37.3858 46.0125 37.0958 46.1269 36.4439 46.2565C36.1491 46.3308 35.5715 46.4075 35.2083 46.4369C35.1046 46.4499 34.9891 46.4629 34.8865 46.4629C34.5786 46.4994 34.2687 46.5168 33.9587 46.5147H33.6368C33.2796 46.5147 32.5227 46.4523 32.4013 46.4369C31.0102 46.3214 29.0272 45.785 27.7516 44.8925C27.3107 44.5978 26.8273 44.1781 26.5161 43.7454C26.3853 43.5943 26.2769 43.4252 26.1942 43.2432C25.9586 42.8315 25.8342 42.3654 25.8335 41.891L25.8453 39.3032C25.8453 39.7665 25.9632 39.2879 26.1942 39.7265C26.4992 40.2826 26.9212 40.7661 27.4309 41.1435C27.5335 41.2331 27.6361 41.3098 27.7516 41.3876C29.2642 42.3496 31.2023 43.0098 33.9587 43.0098C34.2676 43.0098 34.5776 42.9968 34.8865 42.9579C36.056 42.9579 38.2936 42.3743 39.4572 41.6575C39.5987 41.5797 39.7284 41.4901 39.8569 41.4005C40.108 41.2602 40.7564 40.7344 41.0936 40.2664C41.2221 40.099 41.3246 39.9316 41.4154 39.7642C41.6465 39.3268 41.7632 39.8054 41.7632 39.3551Z" fill="#F9BB4A"/>
<path d="M39.4101 36.0683C42.526 37.8685 42.5484 40.7887 39.4526 42.5878C36.3496 44.3915 31.3062 44.388 28.1903 42.5878C25.0743 40.7887 25.0578 37.872 28.1596 36.0683C31.2566 34.2692 36.2942 34.2692 39.4101 36.0683Z" fill="#FED57A"/>
<path d="M38.2487 37.042C40.7198 38.3035 40.7375 40.3537 38.2829 41.6151C35.8225 42.8801 31.8224 42.8766 29.3513 41.6151C26.8803 40.3537 26.8673 38.307 29.3278 37.042C31.7835 35.7806 35.7765 35.7806 38.2487 37.042Z" fill="#EFAC41"/>
<path d="M41.4143 40.6943V43.2549C41.3242 43.4284 41.2167 43.5923 41.0936 43.7442V41.1953C41.2222 41.0279 41.3247 40.8605 41.4155 40.6931L41.4143 40.6943ZM40.1788 42.0972V44.6602C40.0802 44.7489 39.9722 44.8268 39.857 44.8925V42.3295C39.9725 42.2646 40.0762 42.188 40.1788 42.0972ZM38.9291 42.8706V45.4324C38.8266 45.4843 38.724 45.5362 38.6073 45.5869V43.0121C38.724 42.9602 38.8254 42.9213 38.9291 42.8706ZM37.6936 43.3599V45.9346C37.5911 45.9606 37.4873 45.9995 37.3718 46.0254V43.4495C37.4873 43.4235 37.5911 43.3976 37.6936 43.3599ZM36.444 43.6817V46.2565C36.3414 46.2824 36.2259 46.2954 36.1221 46.3213V43.7454C36.2259 43.7206 36.3414 43.7076 36.444 43.6817ZM35.2084 43.8621V46.4369C35.1047 46.4498 34.9892 46.4628 34.8866 46.4628V43.888C34.9892 43.888 35.1047 43.8751 35.2084 43.8621ZM33.9588 43.9387V46.5147H33.6369V43.9257C33.7407 43.9387 33.8562 43.9387 33.9588 43.9387ZM32.7232 43.888V46.4628C32.6195 46.4628 32.504 46.451 32.4014 46.4369V43.8621C32.504 43.8739 32.6065 43.888 32.7232 43.888ZM31.4736 43.7324V46.3084C31.3651 46.293 31.2577 46.2713 31.1517 46.2435V43.6687C31.2543 43.6947 31.358 43.7206 31.4736 43.7324ZM30.2381 43.4377V46.0125C30.1284 45.9899 30.0204 45.9596 29.915 45.9217V43.3469C30.0188 43.3858 30.1343 43.4117 30.2381 43.4377ZM28.9884 42.9861V45.5621C28.8778 45.5228 28.7703 45.4755 28.6666 45.4206V42.8447C28.7691 42.8965 28.8729 42.9472 28.9884 42.9861ZM27.7517 42.3165V44.8925C27.6391 44.818 27.5316 44.7361 27.4299 44.6473V42.0713C27.5336 42.1621 27.6362 42.2387 27.7517 42.3165ZM26.5162 41.1576V43.7454C26.3853 43.5943 26.2769 43.4251 26.1943 43.2431V40.6554C26.2839 40.8228 26.3877 40.9902 26.5162 41.1576Z" fill="#D89B39"/>
<path d="M36.6844 37.9804L37.321 37.6114L36.8376 37.332L36.1927 37.7069C36.181 37.7058 34.5776 36.9029 33.2254 37.6857C32.8623 37.8979 32.6843 38.1101 32.6984 38.3153C32.7302 38.7456 33.3374 39.2513 33.4046 39.3268L32.0288 40.1261C31.991 40.0719 31.6444 39.8078 31.523 39.1169L30.3052 39.1865C30.4702 40.0353 31.1953 40.4644 31.2872 40.5576L30.7826 40.85L31.266 41.1305L31.7741 40.8346C31.7859 40.8346 33.4305 41.6846 34.8122 40.8818C35.1777 40.6696 35.3545 40.4527 35.3357 40.2369C35.2956 39.7842 34.6755 39.2643 34.6083 39.1877L35.944 38.4119C35.9876 38.4662 36.2717 38.6878 36.4498 39.1971L37.6122 39.0745C37.3292 38.3801 36.7834 38.0724 36.6844 37.9804ZM33.2065 40.626C32.9059 40.626 32.6807 40.5222 32.4284 40.455L33.7571 39.6828C33.8019 39.7594 34.0129 39.974 33.9669 40.1968C33.9127 40.4786 33.4989 40.626 33.2065 40.626ZM34.2522 38.834C34.2121 38.7515 34.0483 38.5758 34.1072 38.3483C34.1945 38.0076 34.7038 37.8472 35.2024 37.984L35.5479 38.0818L34.2511 38.8352L34.2522 38.834Z" fill="#FED57A"/>
<path d="M41.7632 36.0706C41.6783 38.3412 42.0167 39.3527 41.0936 40.4609C40.7187 40.9808 40.0797 41.483 39.8569 41.6068C39.6329 41.7872 39.1872 42.0194 38.9302 42.1491C37.8751 42.6749 36.4533 43.0486 35.2083 43.1524C35.1046 43.1653 34.9891 43.1783 34.8865 43.1783C33.1051 43.4011 30.4349 43.0203 28.6665 42.135C28.4814 42.0359 28.0546 41.819 27.7516 41.6068C27.639 41.5327 27.5315 41.4512 27.4298 41.3628C27.0793 41.1125 26.7709 40.8081 26.5161 40.4609C26.3853 40.3098 26.2769 40.1407 26.1942 39.9587C25.9586 39.5469 25.8342 39.0809 25.8335 38.6064L25.8453 36.0187C25.8453 36.482 25.9632 36.0034 26.1942 36.4407C26.4992 36.9969 26.9212 37.4804 27.4309 37.8578C27.5335 37.9474 27.6361 38.0252 27.7516 38.103C28.4214 38.545 29.1495 38.8914 29.9149 39.1322C31.1953 39.6121 33.5897 39.8361 34.8865 39.6745C35.3427 39.6745 36.4698 39.5095 37.3717 39.236C38.1498 39.0627 39.5786 38.4084 40.1787 37.8837C40.6974 37.49 41.0971 37.0703 41.4154 36.4808C41.6465 36.0423 41.7632 36.5209 41.7632 36.0706Z" fill="#F9BB4A"/>
<path d="M39.4101 32.7837C42.526 34.5828 42.5484 37.5042 39.4526 39.3032C36.3496 41.107 31.3062 41.1034 28.1903 39.3032C25.0743 37.5042 25.0578 34.5875 28.1596 32.7837C31.2566 30.9847 36.2942 30.9847 39.4101 32.7837Z" fill="#FED57A"/>
<path d="M38.2487 33.7575C40.7198 35.0189 40.7375 37.0679 38.2829 38.3306C35.8225 39.5944 31.8224 39.592 29.3513 38.3306C26.8803 37.0691 26.8673 35.0225 29.3278 33.7575C31.7835 32.496 35.7765 32.496 38.2487 33.7575Z" fill="#EFAC41"/>
<path d="M41.4143 37.4098V39.9716C41.3242 40.1451 41.2167 40.309 41.0936 40.4609V37.912C41.2222 37.7446 41.3235 37.5772 41.4143 37.4098ZM40.1788 38.8127V41.3757C40.0801 41.464 39.9722 41.5415 39.857 41.6068V39.0462C39.9725 38.9813 40.0762 38.9035 40.1788 38.8127ZM38.9291 39.5861V42.1479C38.8266 42.1998 38.724 42.2517 38.6073 42.3024V39.7276C38.724 39.6757 38.8254 39.6368 38.9291 39.5861ZM37.6936 40.0754V42.6501C37.5911 42.6761 37.4873 42.715 37.3718 42.7409V40.165C37.4873 40.139 37.5911 40.1131 37.6936 40.0754ZM36.444 40.3972V42.972C36.3414 42.9979 36.2259 43.0109 36.1221 43.0368V40.4609C36.2259 40.4349 36.3414 40.422 36.444 40.3972ZM35.2084 40.5776V43.1524C35.1047 43.1653 34.9892 43.1783 34.8866 43.1783V40.6023C34.9892 40.6023 35.1047 40.5906 35.2084 40.5776ZM33.9588 40.6542V43.2302H33.6369V40.6412C33.7407 40.6542 33.8562 40.6542 33.9588 40.6542ZM32.7232 40.6023V43.1783C32.6195 43.1783 32.504 43.1665 32.4014 43.1524V40.5788C32.504 40.5906 32.6065 40.6023 32.7232 40.6023ZM31.4736 40.4491V43.0239C31.3651 43.0085 31.2577 42.9868 31.1517 42.959V40.3842C31.2543 40.4102 31.358 40.4361 31.4736 40.4491ZM30.2381 40.152V42.7279C30.1284 42.7054 30.0204 42.675 29.915 42.6372V40.0624C30.0188 40.1001 30.1343 40.1261 30.2381 40.152ZM28.9884 39.7016V42.2764C28.8778 42.2371 28.7703 42.1899 28.6666 42.1349V39.5602C28.7691 39.6109 28.8729 39.6627 28.9884 39.7016ZM27.7517 39.032V41.6068C27.6391 41.5327 27.5316 41.4512 27.4299 41.3627V38.7868C27.5336 38.8776 27.6362 38.9542 27.7517 39.032ZM26.5162 37.8731V40.4609C26.3853 40.3098 26.2769 40.1406 26.1943 39.9586V37.3721C26.2839 37.5395 26.3877 37.7069 26.5162 37.8743V37.8731Z" fill="#D89B39"/>
<path d="M36.6844 34.6959L37.321 34.3269L36.8376 34.0475L36.1927 34.4224C36.1161 34.3964 35.5656 34.0616 34.6036 34.0581H34.5918C34.0778 34.0581 33.618 34.1736 33.2254 34.4012C32.8623 34.6134 32.6843 34.8256 32.6984 35.0307C32.7302 35.461 33.3374 35.9668 33.4046 36.0422L32.0288 36.8415C31.991 36.7873 31.6444 36.5232 31.523 35.8324L30.3052 35.9008C30.4702 36.7496 31.1953 37.1799 31.2872 37.273L30.7826 37.5654L31.266 37.8448L31.7741 37.5501C31.7859 37.5501 33.4305 38.4001 34.8122 37.5972C35.1777 37.385 35.3545 37.1681 35.3357 36.9524C35.3144 36.7083 35.1176 36.403 34.7497 36.0434L34.6083 35.9031L35.944 35.1274C35.9876 35.1816 36.2717 35.4033 36.4498 35.9126L37.6122 35.7899C37.3292 35.0956 36.7834 34.7879 36.6844 34.6959ZM33.2065 37.3414C32.9059 37.3414 32.6807 37.2377 32.4284 37.1705L33.7571 36.3983L33.8372 36.5091C33.9481 36.6624 33.9905 36.7944 33.9669 36.9123C33.9127 37.194 33.4989 37.3414 33.2065 37.3414ZM34.2522 35.5494L34.1744 35.4209C34.1395 35.3691 34.1156 35.3107 34.104 35.2493C34.0925 35.1878 34.0936 35.1247 34.1072 35.0637C34.1379 34.9458 34.2228 34.8468 34.3595 34.7666C34.8252 34.4931 35.3427 34.7607 35.5479 34.7973L34.2522 35.5494Z" fill="#FED57A"/>
</svg>
