<svg width="34" height="35" viewBox="0 0 34 35" fill="none" xmlns="http://www.w3.org/2000/svg">
<g clip-path="url(#clip0_6121_4435)">
<path d="M29.9301 19.5681C29.0573 17.5592 27.8507 15.6232 26.3436 13.8133C25.9476 13.3384 25.5322 12.8738 25.1004 12.4225C25.7715 11.9305 26.208 11.1366 26.208 10.2427C26.208 8.99215 25.3538 7.93739 24.1982 7.6312L25.7023 5.3587C26.1613 4.6627 26.0729 3.72512 25.4923 3.1298C24.0738 1.67346 22.5395 0.965437 20.8016 0.965437C19.4867 0.965437 18.1834 1.34528 16.507 1.95804L16.4932 1.96319C16.4891 1.96352 16.4817 1.96399 16.4702 1.96399C16.2257 1.96399 15.7314 1.76059 15.2955 1.58117L15.2374 1.55733C14.4838 1.24004 13.4528 0.806763 12.2909 0.806763C11.0089 0.806763 9.82509 1.32744 8.77243 2.35446C8.20333 2.89971 8.06659 3.76905 8.44306 4.47655L10.1019 7.55371C8.73286 7.68379 7.65828 8.84009 7.65828 10.2427C7.65828 11.1358 8.09401 11.9291 8.76398 12.4211C8.33281 12.8726 7.91816 13.3376 7.52365 13.8122C6.02345 15.6055 4.81648 17.5421 3.93565 19.5693C2.83722 22.1069 2.28027 24.7578 2.28027 27.4487C2.28027 31.3898 5.48659 34.5961 9.42761 34.5961H24.4386C28.3797 34.5961 31.586 31.3898 31.586 27.4487C31.586 24.7578 31.0291 22.1068 29.9301 19.5681ZM12.2909 2.78854C13.0546 2.78854 13.8077 3.10562 14.4723 3.38538L14.5414 3.41385C15.2061 3.6874 15.8339 3.94576 16.4703 3.94576C16.7304 3.94576 16.9676 3.90348 17.1953 3.81648C18.6645 3.27975 19.7807 2.94721 20.8017 2.94721C21.9665 2.94721 22.9463 3.39628 23.9606 4.39946L21.8811 7.54143H12.3467L10.2613 3.6732C10.9139 3.07035 11.562 2.78854 12.2909 2.78854ZM10.3594 9.5232H23.5067C23.9034 9.5232 24.2262 9.84597 24.2262 10.2427C24.2262 10.6393 23.9034 10.9621 23.5067 10.9621H10.3594C9.96275 10.9621 9.63999 10.6393 9.63999 10.2427C9.64006 9.84597 9.96275 9.5232 10.3594 9.5232ZM24.4386 32.6142H9.42761C6.57934 32.6142 4.26205 30.297 4.26205 27.4486C4.26205 25.0302 4.76416 22.6441 5.7538 20.3578C6.55846 18.5059 7.66535 16.7314 9.04566 15.0814C9.66463 14.3367 10.3355 13.6191 11.0437 12.9439H22.8179C23.5284 13.6205 24.2009 14.3381 24.8212 15.0821C26.2074 16.7468 27.3148 18.5218 28.112 20.3567C29.1021 22.6441 29.6043 25.0303 29.6043 27.4488C29.6042 30.297 27.2869 32.6142 24.4386 32.6142Z" fill="#6143F1"/>
<path d="M16.9361 19.915H18.8608C19.408 19.915 19.8517 19.4713 19.8517 18.9241C19.8517 18.3769 19.408 17.9332 18.8608 17.9332H17.927V16.7792C17.927 16.232 17.4833 15.7883 16.9361 15.7883C16.3889 15.7883 15.9452 16.232 15.9452 16.7792V18.1066C14.8239 18.5131 14.0205 19.5888 14.0205 20.8487C14.0205 22.4563 15.3284 23.7642 16.9361 23.7642C17.451 23.7642 17.8699 24.1831 17.8699 24.698C17.8699 25.2129 17.451 25.6318 16.9361 25.6318H15.0114C14.4642 25.6318 14.0205 26.0755 14.0205 26.6227C14.0205 27.1699 14.4642 27.6136 15.0114 27.6136H15.9452V28.7676C15.9452 29.3148 16.3889 29.7585 16.9361 29.7585C17.4833 29.7585 17.927 29.3148 17.927 28.7676V27.4402C19.0483 27.0337 19.8517 25.9579 19.8517 24.6981C19.8517 23.0904 18.5438 21.7825 16.9361 21.7825C16.4212 21.7825 16.0023 21.3637 16.0023 20.8488C16.0023 20.3339 16.4212 19.915 16.9361 19.915Z" fill="#6143F1"/>
</g>
<defs>
<clipPath id="clip0_6121_4435">
<rect width="33.7893" height="33.7893" fill="white" transform="translate(0.0410156 0.806641)"/>
</clipPath>
</defs>
</svg>
