<svg width="124" height="170" viewBox="0 0 124 170" fill="none" xmlns="http://www.w3.org/2000/svg">
<path d="M57.5447 169.866C80.4072 169.866 98.9408 166.293 98.9408 161.886C98.9408 157.478 80.4072 153.906 57.5447 153.906C34.6823 153.906 16.1487 157.478 16.1487 161.886C16.1487 166.293 34.6823 169.866 57.5447 169.866Z" fill="#D1C7B8"/>
<path d="M45.8231 162.2C45.8006 162.247 45.7732 162.291 45.7416 162.331C44.9652 163.422 42.4061 161.787 37.5189 162.055C32.4539 162.337 29.4902 162.833 32.2094 160.799C34.9233 158.769 39.8601 156.136 39.8601 156.136L43.2143 154.675L46.0125 158.953C46.0125 158.953 46.0605 159.141 46.1067 159.444C46.2013 160.098 46.2849 161.278 45.8231 162.2ZM64.0992 160.696C58.913 160.528 57.5285 161.593 55.8759 160.682C54.218 159.776 55.4324 154.635 55.4324 154.635L57.847 149.563L61.11 151.856C61.11 151.856 61.2563 151.961 61.5109 152.146C63.2884 153.444 70.4676 158.716 72.0183 160.362C72.0277 160.376 72.0385 160.389 72.0505 160.401C73.7423 162.241 69.2808 160.858 64.0992 160.696Z" fill="#49331D"/>
<g style="mix-blend-mode:soft-light" opacity="0.3">
<path d="M64.0992 160.696C58.913 160.528 57.5285 161.593 55.8759 160.682C54.218 159.776 55.4324 154.635 55.4324 154.635L57.847 149.563L61.11 151.856C61.11 151.856 61.2563 151.961 61.5109 152.146C60.2501 152.946 58.3753 154.495 58.2467 156.698C58.0766 159.613 66.5601 159.465 72.0183 160.362C72.0277 160.376 72.0385 160.389 72.0505 160.401C73.7423 162.241 69.2808 160.858 64.0992 160.696ZM37.3534 161.185C41.076 161.413 43.8264 161.876 45.7416 162.331C44.9652 163.422 42.4061 161.787 37.5189 162.055C32.4539 162.337 29.4902 162.833 32.2094 160.799C34.9233 158.769 39.8601 156.136 39.8601 156.136L43.2143 154.675L46.0125 158.953C46.0125 158.953 46.0605 159.141 46.1067 159.444C44.4685 158.961 41.6152 158.406 38.662 159.146C34.1075 160.284 32.053 160.867 37.3534 161.185Z" fill="black"/>
</g>
<path d="M61.1105 151.856L58.5704 153.097L55.4329 154.635C55.4329 154.635 53.0731 137.366 52.7651 116.276L52.7651 116.192C52.7519 115.154 52.7393 114.105 52.7372 113.047C49.3042 137.677 46.013 158.953 46.013 158.953L42.7955 157.48L39.8606 156.136L42.6301 108.669L61.7059 99.9478L61.6454 105.114L61.1105 151.856Z" fill="#303C49"/>
<path d="M52.7339 113.047C52.6799 112.666 52.6587 112.286 52.6202 111.905C52.5942 111.525 52.5719 111.144 52.5582 110.763C52.5272 110.002 52.521 109.242 52.5285 108.481L52.5304 108.287L52.702 108.233C53.9683 107.836 55.2453 107.477 56.5625 107.26C55.353 107.86 54.1032 108.315 52.8427 108.733L53.016 108.486C53.0107 109.246 52.9918 110.007 52.948 110.767C52.9278 111.147 52.8991 111.527 52.8669 111.908C52.8219 112.287 52.7944 112.668 52.7339 113.047Z" fill="black"/>
<g style="mix-blend-mode:soft-light" opacity="0.3">
<path d="M57.747 106.632L61.6454 105.114L61.7059 99.9478L42.6301 108.669L39.8606 156.136L42.7955 157.48L43.0786 154.735L47.6165 110.577L52.7724 108.569L52.8326 108.546L52.7651 116.192L52.7651 116.276C53.0731 137.366 55.4329 154.635 55.4329 154.635L58.5704 153.097L58.518 150.035L57.747 106.632Z" fill="black"/>
</g>
<path d="M96.7745 57.0752L90.5086 60.1622L89.8016 87.1077L67.9636 97.0866L42.6047 108.683L36.3423 111.544L36.0136 125.432L2.72022 140.072L0.137695 128.138L6.48464 125.345L24.1279 117.587L24.1362 117.192L24.4561 103.704L30.7187 100.843L38.3348 97.3623L42.4461 95.4788L45.7541 93.9681L49.9462 92.048L53.7693 90.3032L56.3553 89.118L60.2591 87.3364L60.522 87.2119L63.6127 85.8025L66.8755 84.3098L69.6635 83.0327L77.9159 79.2626L77.9229 78.9735L78.6176 52.322L84.8835 49.235L103.499 40.0618L108.019 51.4731L108.041 51.522L96.7745 57.0752Z" fill="#2E4F19"/>
<path d="M114.309 48.3718L108.018 51.4729L96.7769 57.012L96.7733 57.075L90.5074 60.162L89.8004 87.1075L67.9623 97.0864L42.6035 108.683L36.341 111.544L36.0124 125.432L8.95787 137.278L6.4834 125.345L24.1267 117.586L24.1349 117.192L30.3962 114.436L30.7174 100.843L38.3335 97.362L42.4449 95.4786L45.7528 93.9679L49.945 92.0478L53.768 90.303L56.354 89.1178L60.2579 87.3362L60.5208 87.2117L63.6115 85.8023L66.8742 84.3096L69.6622 83.0325L77.9146 79.2624L77.9216 78.9733L84.1841 76.1125L84.8823 49.2348L84.8859 49.1719L109.767 36.9116L114.309 48.3718Z" fill="#6A9B4B"/>
<path d="M123.99 38.2481L111.228 58.0584L107.174 64.3471L101.054 48.2536L94.9333 32.1653L123.99 38.2481Z" fill="#2E4F19"/>
<path d="M123.989 38.248L111.227 58.0583L110.694 56.6591L104.574 40.5707L123.989 38.248Z" fill="#6A9B4B"/>
<path d="M44.9341 99.4434L45.3562 101.549C45.3562 101.549 46.7066 105.046 47.4947 106.447C48.2828 107.848 49.2648 109.15 50.3621 108.888C51.4593 108.627 53.3485 106.745 53.3485 106.745C53.3485 106.745 53.9083 107.452 54.3634 107.482C54.8185 107.513 56.5983 106.679 56.7555 106.046C56.9127 105.413 54.8738 103.267 54.2331 101.886C54.7151 100.218 55.025 99.4406 54.6148 98.6406C54.2046 97.8406 50.4069 97.8182 48.374 96.8065C46.8606 96.3705 44.9341 99.4434 44.9341 99.4434Z" fill="#F5BE9B"/>
<g style="mix-blend-mode:soft-light" opacity="0.5">
<path d="M56.7547 106.045C56.5998 106.677 54.8159 107.51 54.3654 107.48C53.91 107.45 53.3466 106.743 53.3466 106.743C53.3466 106.743 51.4571 108.628 50.3606 108.886C49.2637 109.15 48.2829 107.847 47.4945 106.446C46.7061 105.046 45.3567 101.549 45.3567 101.549L44.9341 99.4412C44.9341 99.4412 46.8584 96.369 48.3715 96.8072C48.4624 96.8501 48.5533 96.8931 48.6491 96.9363C48.5417 97.9347 48.3645 100.297 48.7774 102.826C49.1685 105.221 53.603 104.96 56.0658 104.624C56.5059 105.254 56.8192 105.781 56.7547 106.045Z" fill="black"/>
</g>
<path d="M57.6025 62.5192C57.2616 62.3805 56.9158 62.2416 56.5608 62.0914C55.2506 61.5457 53.8749 60.9429 52.5963 60.3625C51.3654 59.8063 50.2266 59.272 49.3128 58.8423C48.0549 58.2422 47.2326 57.8449 47.2326 57.8449L44.611 56.606C44.611 56.606 43.5197 57.1121 42.0032 57.8266C41.2299 58.1908 40.3497 58.6162 39.4448 59.0453C36.6124 60.4089 33.5896 61.9176 33.1425 62.3352C32.2789 63.1514 27.7092 85.021 27.5345 87.1732C27.5302 87.2967 27.5498 87.42 27.592 87.5351C27.6132 87.5944 27.6389 87.6593 27.6692 87.7297C27.7065 87.8147 27.7493 87.8967 27.7974 87.9752C27.8283 88.0352 27.869 88.0958 27.9094 88.1617C28.0802 88.4294 28.2673 88.6846 28.4695 88.9258C28.5426 89.0202 28.6207 89.1149 28.7085 89.2103C29.54 90.1476 30.4243 91.0297 31.3564 91.8514C31.4871 91.9707 31.6226 92.0904 31.7628 92.2156C32.6978 93.0416 33.734 93.9007 34.8294 94.7584C34.9656 94.8676 35.1021 94.9715 35.2432 95.0809C36.2448 95.8587 37.2912 96.629 38.3348 97.3622C39.2887 98.0315 40.2445 98.6693 41.1743 99.2475C41.364 99.3655 41.5488 99.4832 41.734 99.5956C42.1423 99.844 42.5414 100.081 42.9267 100.302C43.7925 100.797 44.6133 101.22 45.356 101.549C46.0712 100.581 46.6365 99.7394 47.0799 99.0478C47.995 97.6033 48.3708 96.8072 48.3708 96.8072C48.3708 96.8072 48.1434 96.5761 47.7544 96.1657C47.5136 95.9127 47.2078 95.5921 46.8513 95.2155C46.8614 95.2109 46.8712 95.2116 46.8813 95.207L45.7541 93.968L49.9463 92.0479L53.7693 90.3031L56.3553 89.1179L60.2592 87.3364C60.3467 87.3528 60.4297 87.3636 60.5172 87.38C60.5206 87.3223 60.5236 87.2699 60.5221 87.2118C60.5784 85.9099 60.6264 84.3284 60.6337 83.1075C60.6405 82.7394 60.6353 82.4074 60.6273 82.1225C61.4922 83.3913 62.6004 84.7027 63.6128 85.8024L66.8755 84.3097L69.6635 83.0326C67.2917 78.6936 60.8757 67.0817 57.6025 62.5192ZM43.2562 91.2843C42.7855 90.7579 42.3111 90.2102 41.837 89.6572C41.7771 89.59 41.722 89.5232 41.6669 89.4563C39.6372 87.0882 37.6779 84.6089 36.6389 82.7862C37.3862 81.1831 38.3245 78.7503 38.8059 77.4927L38.8062 77.4874L38.8175 77.4618C39.0036 76.9689 39.1147 76.6657 39.1147 76.6657C39.1147 76.6657 41.7406 85.4968 42.753 86.765C43.7703 88.0334 42.885 88.9692 42.9401 89.6257C43.0099 90.1542 43.109 90.6777 43.2369 91.1935C43.2456 91.2231 43.2521 91.2535 43.2562 91.2843Z" fill="#9EA7AF"/>
<path d="M57.4652 69.2767C58.2077 70.0967 58.808 71.0517 59.2383 72.0969C59.6767 73.149 59.9214 74.2642 60.1298 75.3743C60.3246 76.4868 60.462 77.6098 60.5414 78.7385C60.6307 79.8643 60.6592 80.9946 60.6268 82.1239L60.1665 78.7846C60.0022 77.6765 59.8488 76.5689 59.6483 75.4733C59.47 74.3789 59.2163 73.3001 58.8893 72.2458C58.719 71.7222 58.5092 71.2143 58.2619 70.7273C58.0198 70.2293 57.7539 69.7452 57.4652 69.2767ZM39.1127 76.6667C39.2658 75.6217 39.5597 74.6323 39.8866 73.6559C40.2279 72.6852 40.6034 71.728 41.1205 70.8266C40.9685 71.8719 40.6747 72.8614 40.3467 73.8374C40.0043 74.8077 39.6289 75.7649 39.1127 76.6667ZM33.1443 62.3354C33.5607 62.3822 33.9712 62.4776 34.3683 62.6197C34.7655 62.7553 35.1523 62.9235 35.5252 63.1231C35.9023 63.3225 36.2591 63.563 36.5901 63.8408C36.9179 64.1214 37.2356 64.4486 37.4211 64.8621C37.0882 64.6109 36.7399 64.3839 36.3787 64.1826C36.0247 63.9804 35.6681 63.7814 35.3048 63.5922C34.5857 63.1956 33.8539 62.8221 33.1443 62.3354Z" fill="#737D84"/>
<g style="mix-blend-mode:soft-light" opacity="0.3">
<path d="M60.2589 87.3364L56.3551 89.1179L53.7691 90.3032L49.946 92.0479L45.7539 93.9681L43.2367 91.1935L41.8368 89.6573L41.6706 89.4724L41.6666 89.4563L38.8057 77.4927L38.806 77.4874L38.8173 77.4619L40.9265 71.3905C41.0318 71.6082 43.8336 77.4238 49.3308 82.0352C50.5472 83.0625 51.8464 83.9722 53.2129 84.7537C54.1022 85.2652 55.0219 85.7137 55.9661 86.0962C57.3546 86.6625 58.7928 87.078 60.2589 87.3364ZM66.8752 84.3097L63.6125 85.8025C62.6001 84.7028 61.492 83.3913 60.6271 82.1226C60.635 82.4074 60.6402 82.7395 60.6335 83.1075C60.6097 83.0382 60.5925 82.9665 60.5821 82.8935C60.5821 82.8935 60.5879 76.1391 58.272 70.5034C58.3209 70.5909 58.3699 70.6784 58.4192 70.7607C58.4266 70.7807 58.4371 70.7992 58.4504 70.8154C61.6477 76.5101 64.7124 81.1904 66.8752 84.3097Z" fill="black"/>
</g>
<path d="M53.7689 90.3032L49.9459 92.0479C49.4935 90.2803 49.5229 86.2389 49.3306 82.0352C49.2927 81.2535 49.2504 80.4609 49.1978 79.6782C48.932 76.193 48.4978 72.7249 47.8967 69.2878L49.0471 67.6853L50.5443 68.9017C50.5447 68.9113 50.5476 68.9206 50.5525 68.9286C50.7438 69.4415 53.8107 77.7072 55.0056 81.7463C55.4158 83.1718 55.7366 84.625 55.9659 86.0962C56.1493 87.2509 56.2748 88.3018 56.355 89.1179L53.7689 90.3032Z" fill="#BA3E3E"/>
<g style="mix-blend-mode:soft-light" opacity="0.3">
<path d="M53.7689 90.3032L49.9459 92.0479C49.4935 90.2803 49.5229 86.2389 49.3306 82.0352C49.2927 81.2535 49.2504 80.4609 49.1978 79.6782C48.932 76.193 48.4978 72.7249 47.8967 69.2878L49.0471 67.6853L50.5443 68.9017C50.5447 68.9113 50.5476 68.9206 50.5525 68.9286C50.6557 69.4356 52.2432 77.0232 53.2128 84.7537C53.4426 86.6276 53.6425 88.5099 53.7689 90.3032Z" fill="black"/>
</g>
<path d="M44.5669 65.3402C44.5669 65.3402 46 67.977 47.8951 69.2884C49.6855 69.3739 50.5467 68.8993 50.5467 68.8993C50.5467 68.8993 51.2927 66.829 51.1148 64.6582C50.9368 62.4875 47.929 61.5651 47.8646 61.5694C47.8003 61.5736 45.3034 61.5095 45.2195 61.5726C45.1357 61.6357 44.5669 65.3402 44.5669 65.3402Z" fill="#D84C4C"/>
<path d="M52.4359 64.0369C52.3248 65.2667 52.195 66.2268 52.195 66.2268C52.195 66.2268 51.7764 65.8197 51.1426 65.3087C50.8797 65.0963 50.5785 64.8655 50.2523 64.6436C49.3081 63.975 48.1605 63.3401 47.1713 63.2739C46.6232 63.8216 45.9885 64.4214 45.3801 65.1599C45.2054 65.3746 45.0349 65.6002 44.8635 65.8414C44.5283 66.3133 44.234 66.817 43.9843 67.3462C43.2387 66.6279 42.5606 65.8331 41.9598 64.9731C40.866 63.4153 39.8814 61.4172 39.4447 59.0451C39.396 58.7838 39.3571 58.5233 39.3235 58.2578C40.0243 57.4518 41.3485 56.3242 42.1283 55.6814C42.4947 55.3848 42.7371 55.1904 42.7371 55.1904C43.6579 55.4153 46.7927 56.7044 49.3626 57.9873C50.7333 58.6739 51.9468 59.3606 52.5656 59.8758C52.5812 60.0296 52.5916 60.1882 52.5962 60.3622C52.6418 61.4341 52.5488 62.8599 52.4359 64.0369Z" fill="#BDC2C6"/>
<path d="M49.5751 54.2955L49.2988 59.0312C49.2988 59.0312 48.9857 60.1843 48.1765 61.6675C47.8764 62.228 47.5396 62.7649 47.1685 63.2743C46.4543 62.8981 45.7713 62.4579 45.1266 61.9583C43.9623 61.0694 42.8928 60.0462 41.9373 58.9071L42.3638 51.5964L49.5751 54.2955Z" fill="#F5BE9B"/>
<g style="mix-blend-mode:soft-light" opacity="0.3">
<path d="M47.0813 99.0479C46.6378 99.7395 46.0726 100.581 45.3574 101.549C39.0755 98.7596 27.3614 89.3202 27.5359 87.1733C27.7106 85.0211 32.2802 63.1515 33.1438 62.3353C33.591 61.9177 36.6137 60.409 39.4461 59.0454C39.3975 58.7842 39.3586 58.5236 39.3249 58.2581C40.0257 57.4521 41.35 56.3246 42.1297 55.6818L42.3681 51.5964L49.5794 54.2955L49.364 57.9876C50.7348 58.6743 51.9482 59.3609 52.567 59.8762C52.5826 60.0299 52.593 60.1886 52.5976 60.3626C53.8763 60.943 55.2519 61.5458 56.5621 62.0916C55.263 62.9107 53.8786 63.5637 52.4373 64.0372C52.0061 64.1821 51.5605 64.3208 51.0916 64.4368C50.8168 64.5132 50.5377 64.5787 50.2537 64.644C48.6492 64.9851 47.0174 65.1581 45.3815 65.1603C45.1257 65.1642 44.8652 65.1626 44.6002 65.1554C43.7556 65.1409 42.879 65.0823 41.9612 64.9735C40.0253 64.7532 38.1082 64.3731 36.2269 63.8368C32.538 82.238 32.5044 84.4154 32.8126 86.5472C33.0804 88.3604 43.8795 96.6329 47.0813 99.0479Z" fill="black"/>
</g>
<path d="M78.5547 96.3781C77.6295 96.6813 76.2446 96.6001 75.6748 94.826C75.1469 93.1739 74.9385 92.164 75.4263 91.4274C75.9225 90.6696 76.8831 90.4169 77.6747 90.7806C77.702 90.7899 77.7285 90.802 77.7537 90.8166C78.9766 91.4454 79.8313 93.0308 79.8313 93.0308C80.0733 93.5205 80.1498 94.0848 80.0478 94.628C79.9459 95.1711 79.6717 95.6599 79.2719 96.0114C79.0554 96.179 78.8125 96.3032 78.5547 96.3781Z" fill="#F5BE9B"/>
<path d="M74.5792 97.6877C73.7776 97.8411 72.7588 97.6238 72.309 96.2228C71.8373 94.7525 71.6531 93.8504 72.084 93.1909C72.2644 92.9266 72.5099 92.7213 72.7932 92.5982C73.0765 92.4751 73.3862 92.439 73.6875 92.494C73.8525 92.5184 74.013 92.5703 74.1629 92.6481C75.2545 93.2109 76.0151 94.6222 76.0151 94.6222C76.2318 95.0593 76.3004 95.5633 76.2093 96.0485C76.1182 96.5336 75.873 96.97 75.5154 97.2834C75.2352 97.491 74.9154 97.6292 74.5792 97.6877Z" fill="#F5BE9B"/>
<path d="M71.7243 98.3697C71.0722 98.5286 70.1973 98.3894 69.8228 97.2101C69.4434 96.0286 69.2921 95.3007 69.6417 94.7728C69.7678 94.5854 69.9353 94.4343 70.1292 94.333C70.3231 94.2316 70.5373 94.1833 70.7529 94.1921C70.9472 94.1978 71.1384 94.2465 71.3142 94.3354C72.1913 94.7848 72.8039 95.9226 72.8039 95.9226C72.9786 96.2741 73.0341 96.6795 72.961 97.0699C72.8879 97.4603 72.6906 97.8114 72.4029 98.0635C72.1998 98.2166 71.9684 98.321 71.7243 98.3697ZM81.7164 94.9132C80.852 95.0192 79.8195 94.7113 79.3478 93.241C78.8198 91.589 78.6114 90.579 79.0992 89.8424C79.307 89.5377 79.5919 89.3029 79.9201 89.1658C80.2484 89.0287 80.6064 88.9949 80.952 89.0685C81.1165 89.0991 81.2763 89.154 81.4267 89.2317C82.6496 89.8604 83.5043 91.4458 83.5043 91.4458C83.7455 91.9358 83.8216 92.4998 83.7197 93.0428C83.6177 93.5857 83.3441 94.0745 82.9448 94.4265C82.5794 94.6953 82.1572 94.8626 81.7164 94.9132Z" fill="#F5BE9B"/>
<g style="mix-blend-mode:soft-light" opacity="0.5">
<path d="M71.7243 98.3697C71.0722 98.5286 70.1973 98.3894 69.8228 97.2101C69.4434 96.0286 69.2921 95.3007 69.6417 94.7728C69.7678 94.5854 69.9353 94.4343 70.1292 94.333C70.3231 94.2316 70.5373 94.1833 70.7529 94.1921C70.3295 94.7957 69.8603 96.1684 71.7243 98.3697ZM74.5815 97.6879C73.78 97.8412 72.7611 97.6239 72.3114 96.223C71.8396 94.7526 71.6554 93.8505 72.0864 93.1911C72.2667 92.9267 72.5123 92.7214 72.7956 92.5983C73.0788 92.4752 73.3885 92.4392 73.6899 92.4942C73.1346 93.0408 72.4203 94.4799 74.5815 97.6879ZM78.5568 96.3786C77.6316 96.6817 76.2467 96.6006 75.6769 94.8264C75.149 93.1744 74.9406 92.1644 75.4284 91.4278C75.9246 90.6701 76.8852 90.4174 77.6768 90.7811C77.1797 90.9607 76.1851 91.6225 77.1155 93.8545C77.6466 95.1239 78.1532 95.9043 78.5568 96.3786ZM81.7164 94.9132C80.852 95.0192 79.8195 94.7113 79.3478 93.241C78.8198 91.589 78.6114 90.579 79.0992 89.8424C79.307 89.5377 79.5919 89.3029 79.9201 89.1658C80.2484 89.0287 80.6064 88.9949 80.952 89.0685C80.2993 89.8237 79.5921 91.5535 81.7164 94.9132Z" fill="black"/>
</g>
<path d="M32.5065 42.8672C31.9056 43.2952 31.4414 43.4884 31.0863 43.518C29.6783 43.6452 29.9027 41.3247 29.9027 41.3247C29.9027 41.3247 24.1808 37.0922 26.5201 34.5543C26.8739 34.1473 27.3392 33.8712 27.8489 33.7656C29.9145 33.3599 32.0706 36.1145 32.0706 36.1145C32.0706 36.1145 35.4649 40.7549 32.5065 42.8672Z" fill="#F5BE9B"/>
<g style="mix-blend-mode:soft-light" opacity="0.67">
<path d="M32.5072 42.8672C31.9063 43.2952 31.4422 43.4884 31.087 43.518C31.5766 42.7544 31.2617 41.1969 30.6702 40.5658C29.9062 39.7519 26.013 36.2587 28.534 36.3488C28.7635 36.3555 28.9911 36.3962 29.2102 36.4698C30.9489 37.0011 32.1672 39.2276 32.5625 40.0363C30.946 36.6028 29.5922 36.3384 29.5922 36.3384C29.2467 35.3956 28.4272 34.4099 27.8496 33.7656C29.9153 33.3599 32.0714 36.1145 32.0714 36.1145C32.0714 36.1145 35.4657 40.7549 32.5072 42.8672Z" fill="black"/>
</g>
<path d="M32.4138 40.2018C31.6946 39.1986 31.0514 38.3429 30.2498 37.7403C29.8522 37.4278 29.4117 37.1832 28.9442 37.0152C28.4658 36.806 27.9398 36.7226 27.3535 36.553C27.8889 36.2426 28.4963 36.1033 29.1034 36.1517C29.737 36.1909 30.3463 36.4264 30.8571 36.8297C31.363 37.2197 31.7714 37.7371 32.0463 38.3363C32.3058 38.922 32.466 39.5562 32.4138 40.2018Z" fill="#D3805F"/>
<path d="M61.9526 44.8378C62.4991 45.3427 62.9372 45.5962 63.2861 45.6729C64.6683 45.9868 64.7154 43.6545 64.7154 43.6545C64.7154 43.6545 70.8847 40.2178 68.8587 37.3878C68.555 36.9368 68.1254 36.6008 67.6319 36.4281C65.6295 35.7501 63.17 38.1958 63.17 38.1958C63.17 38.1958 59.2627 42.3475 61.9526 44.8378Z" fill="#F5BE9B"/>
<g style="mix-blend-mode:soft-light" opacity="0.67">
<path d="M61.9526 44.8378C62.4991 45.3427 62.9372 45.5962 63.2861 45.6729C62.8891 44.85 63.3826 43.3466 64.0428 42.7992C64.8955 42.0936 69.1645 39.1466 66.6526 38.8999C66.4241 38.8759 66.1935 38.886 65.9676 38.9298C64.1807 39.2251 62.713 41.2718 62.2268 42.0216C64.2299 38.8303 65.6038 38.7485 65.6038 38.7485C66.0562 37.8591 66.9839 36.9903 67.6319 36.4281C65.6295 35.7501 63.17 38.1958 63.17 38.1958C63.17 38.1958 59.2627 42.3475 61.9526 44.8378Z" fill="black"/>
</g>
<path d="M62.3542 42.2057C62.3774 41.5581 62.6101 40.9502 62.9357 40.4037C63.278 39.8458 63.7434 39.3869 64.2907 39.0674C64.8445 38.7354 65.4764 38.5829 66.1096 38.6285C66.7176 38.6614 67.3041 38.8806 67.7992 39.26C67.1978 39.3502 66.6662 39.3627 66.1672 39.5065C65.6838 39.6109 65.2184 39.7948 64.7875 40.0519C63.9221 40.5429 63.1844 41.3061 62.3542 42.2057Z" fill="#D3805F"/>
<path d="M66.2714 23.0222C66.8682 23.4348 67.4221 23.9145 67.9236 24.4533C69.3265 25.9379 71.0133 28.5265 70.3439 31.9668C70.2371 32.5194 70.0793 33.0592 69.8729 33.5783C69.5523 34.3886 69.1483 35.1581 68.6683 35.8725C67.4963 37.653 65.6767 39.5864 62.9751 41.6486L61.9358 44.3408L32.5519 38.1152C32.5519 38.1152 29.6472 35.5376 27.3555 32.0112C25.2561 28.7782 23.6721 24.7441 25.318 21.1672C25.9807 19.7256 27.1706 18.3557 29.0634 17.1422C29.0634 17.1422 26.4122 17.175 25.2106 20.0918C25.2106 20.0918 25.0516 16.0858 29.2548 16.4204C29.2548 16.4204 28.5898 15.1647 25.7124 15.7094C25.7124 15.7094 27.7103 14.2647 29.3568 15.4795C29.473 14.7345 29.6367 13.9988 29.8465 13.2777C31.0522 8.9901 34.9468 -0.0129247 46.2629 0.632284C45.4865 0.61396 37.2608 0.663447 32.0896 10.8175C32.3326 10.4665 40.9096 -1.79519 50.3093 1.32086C59.8424 4.48229 62.0732 9.99522 66.7977 9.78431C65.0978 9.99479 63.3757 9.75338 61.7836 9.08142C59.2813 7.9971 55.9063 5.22544 55.6964 5.05436C55.8782 5.25716 58.8418 8.53124 62.3884 10.0668C66.0526 11.6523 69.3883 9.98295 72.6258 10.0426C72.6258 10.0426 72.5714 10.0782 72.4654 10.144C71.7449 10.6033 68.7905 12.4663 67.5286 13.0071C67.7502 12.9322 71.3508 11.704 73.7445 9.80345C73.7445 9.80345 76.2602 20.9318 66.4724 22.0907C66.4724 22.0907 73.4081 23.1073 74.4899 14.6618C74.4899 14.6618 75.3533 23.8683 66.2714 23.0222Z" fill="#493938"/>
<path d="M65.0079 21.9925L64.8622 23.0538L64.6805 24.3735L63.4017 33.6833L63.0367 36.3505L62.2498 42.0736L62.0996 43.1682L61.9369 44.3406C65.9477 57.6186 47.0347 58.7191 47.0347 58.7191C46.9113 58.6801 46.7879 58.6409 46.6647 58.5991C27.291 52.2949 32.2509 42.0369 32.2509 42.0369C32.2388 41.3464 32.2061 39.7544 32.169 37.7417C32.0492 31.4952 31.8493 21.192 31.8493 21.192C45.7268 14.2366 65.0079 21.9925 65.0079 21.9925Z" fill="#F5BE9B"/>
<path d="M63.0391 36.3505L62.2523 42.0736L62.102 43.1682C57.3081 45.825 53.8397 42.0068 53.9677 40.8883C54.076 39.931 60.2657 38.164 63.0391 36.3505ZM64.683 24.3734L63.4042 33.6833C59.2465 31.448 42.1488 29.1625 46.9599 25.9882C51.4471 23.0249 61.8857 24.0376 64.683 24.3734Z" fill="#FCD5C0"/>
<g style="mix-blend-mode:soft-light" opacity="0.67">
<path d="M38.2581 22.8041C38.2581 22.8041 30.7345 44.0663 46.8196 56.0776C46.8196 56.0776 52.9087 57.4272 58.695 54.049C58.282 54.3073 52.3788 57.9384 46.6647 58.5991C27.291 52.2949 32.2509 42.0369 32.2509 42.0369C32.2388 41.3464 32.2061 39.7544 32.169 37.7417C32.0492 31.4952 31.8493 21.192 31.8493 21.192C45.7268 14.2366 65.0079 21.9925 65.0079 21.9925L64.8622 23.0538C63.3232 22.4658 51.9267 18.4422 38.2581 22.8041Z" fill="black"/>
</g>
<path d="M46.3246 0.633155C46.3042 0.631922 46.285 0.632259 46.2646 0.631104C46.3039 0.632047 46.3246 0.633155 46.3246 0.633155Z" fill="#493938"/>
<g style="mix-blend-mode:soft-light" opacity="0.67">
<path d="M39.7095 37.8567C40.9009 37.7454 41.7323 36.005 41.5665 33.9695C41.4007 31.934 40.3005 30.3741 39.1091 30.4855C37.9177 30.5968 37.0863 32.3371 37.2521 34.3726C37.4179 36.4082 38.5182 37.968 39.7095 37.8567Z" fill="black"/>
</g>
<path d="M39.5888 37.4256C40.4378 37.3463 41.0303 36.106 40.9122 34.6554C40.794 33.2048 40.0099 32.0932 39.1609 32.1725C38.3118 32.2518 37.7193 33.4921 37.8375 34.9427C37.9557 36.3933 38.7397 37.505 39.5888 37.4256Z" fill="#211F2D"/>
<path d="M39.2386 33.8926C39.4516 33.6913 39.4719 33.3431 39.2839 33.115C39.096 32.8868 38.7709 32.8651 38.5578 33.0664C38.3448 33.2677 38.3245 33.6159 38.5125 33.844C38.7004 34.0722 39.0255 34.094 39.2386 33.8926Z" fill="white"/>
<path d="M39.6622 34.1817C39.6598 34.2234 39.6458 34.2635 39.6221 34.2968C39.5984 34.3301 39.566 34.3551 39.5291 34.3687C39.4921 34.3823 39.4522 34.3838 39.4144 34.3731C39.3766 34.3624 39.3426 34.3399 39.3168 34.3085C39.2909 34.2771 39.2743 34.2382 39.2691 34.1967C39.2639 34.1552 39.2703 34.113 39.2874 34.0754C39.3046 34.0378 39.3318 34.0065 39.3656 33.9855C39.3994 33.9644 39.4383 33.9546 39.4773 33.9572C39.5296 33.9607 39.5785 33.9863 39.6132 34.0284C39.6478 34.0705 39.6655 34.1256 39.6622 34.1817Z" fill="white"/>
<g style="mix-blend-mode:soft-light" opacity="0.67">
<path d="M57.4254 35.6792C57.791 33.6738 57.1359 31.8491 55.9621 31.6037C54.7884 31.3582 53.5405 32.7849 53.1749 34.7903C52.8093 36.7957 53.4644 38.6204 54.6382 38.8658C55.8119 39.1113 57.0598 37.6845 57.4254 35.6792Z" fill="black"/>
</g>
<path d="M56.6186 36.1446C56.8791 34.7155 56.4122 33.4152 55.5757 33.2403C54.7393 33.0653 53.85 34.0821 53.5894 35.5112C53.3289 36.9403 53.7958 38.2407 54.6323 38.4156C55.4687 38.5905 56.358 37.5738 56.6186 36.1446Z" fill="#211F2D"/>
<path d="M55.4709 34.6035C55.4367 34.7061 55.3749 34.7956 55.2933 34.8606C55.2117 34.9257 55.1139 34.9633 55.0123 34.9688C54.9107 34.9743 54.8098 34.9474 54.7225 34.8915C54.6351 34.8356 54.5652 34.7533 54.5216 34.6548C54.478 34.5564 54.4626 34.4463 54.4774 34.3385C54.4922 34.2307 54.5365 34.13 54.6047 34.0492C54.6729 33.9683 54.762 33.911 54.8607 33.8844C54.9593 33.8577 55.0631 33.8631 55.1589 33.8996C55.2875 33.9487 55.3925 34.0504 55.451 34.1824C55.5095 34.3144 55.5167 34.4658 55.4709 34.6035ZM55.5401 35.3192C55.527 35.3586 55.5033 35.393 55.4719 35.418C55.4405 35.443 55.4029 35.4574 55.3639 35.4595C55.3249 35.4616 55.2861 35.4513 55.2526 35.4298C55.219 35.4084 55.1922 35.3767 55.1754 35.3389C55.1586 35.3011 55.1527 35.2588 55.1584 35.2174C55.1641 35.1759 55.1811 35.1373 55.2073 35.1062C55.2335 35.0751 55.2678 35.0531 55.3057 35.0429C55.3436 35.0327 55.3834 35.0347 55.4203 35.0487C55.4696 35.0676 55.51 35.1067 55.5325 35.1574C55.555 35.2081 55.5577 35.2663 55.5401 35.3192Z" fill="white"/>
<path d="M54.4185 44.4405C54.3138 46.1017 53.0129 47.4894 51.1068 48.2562C49.8923 48.7469 48.4282 48.9826 46.8714 48.8784C45.1007 48.7599 43.5013 48.221 42.2836 47.419C40.7481 46.4106 39.8155 44.9855 39.8962 43.4685L54.4185 44.4405Z" fill="#211F2D"/>
<path d="M46.6725 44.7098L46.7455 44.7147L46.7454 44.7174C46.7454 44.7174 46.7193 44.7157 46.6725 44.7098ZM46.8436 41.4184L46.951 41.4171C46.9471 41.4218 46.9441 41.4274 46.9422 41.4334L46.8436 41.4184ZM46.8436 41.4184L46.744 41.4201C46.7429 41.4139 46.7406 41.408 46.7372 41.4028L46.8436 41.4184ZM46.6725 44.7098C46.5967 44.7074 46.5576 44.7048 46.5576 44.7048L46.5578 44.7021L46.6725 44.7098Z" fill="#211F2D"/>
<path d="M53.167 57.5652C51.1632 58.1655 49.1088 58.552 47.034 58.7192C43.3149 57.5366 40.4707 56.2108 38.3072 54.8379C29.9591 49.538 31.6793 43.5213 32.1528 42.2717C32.2114 42.1186 32.2502 42.037 32.2502 42.037C32.2381 41.3465 32.2054 39.7545 32.1683 37.7418L34.6247 41.7221C34.6247 41.7221 36.8257 51.9631 37.4437 43.8846L38.8481 43.8188C38.8481 43.8188 38.8851 52.0224 44.3848 52.3905L44.4488 51.2928L42.5934 49.0378C43.2664 49.3096 43.9557 49.5328 44.6566 49.7058C46.3027 50.1188 48.5974 50.4097 50.2255 49.4701C50.2228 49.4727 50.2228 49.4727 50.2226 49.4755C50.1467 49.5657 48.9266 51.0486 48.0607 51.2177L48.2729 52.6507C48.2729 52.6507 55.206 53.667 55.6372 45.021L56.8928 44.948C56.8928 44.948 57.9661 54.3256 59.8041 43.0148L62.2491 42.0737L62.1947 42.4682L61.9362 44.3407C64.3848 52.4477 58.289 56.0154 53.167 57.5652ZM41.1874 28.9415C38.962 29.2131 36.2321 30.5949 36.2321 30.5949L36.2179 29.1332C36.3897 28.2531 36.8928 27.4372 37.4989 26.8302C38.3966 25.9369 39.5191 25.499 40.1324 25.9802C40.6808 26.4067 40.9452 27.215 41.0713 27.8795C41.1387 28.2292 41.1775 28.5846 41.1874 28.9415Z" fill="#493938"/>
<path d="M41.0729 27.8795C39.0625 28.8637 38.0062 27.764 37.5005 26.8302C38.3982 25.9369 39.5207 25.499 40.134 25.9802C40.6824 26.4067 40.9467 27.215 41.0729 27.8795Z" fill="#604746"/>
<path d="M58.5672 30.9333C56.8666 29.3722 54.0632 28.1709 54.0632 28.1709L55.0534 27.1648C55.7723 26.7005 56.6729 26.5399 57.5007 26.6022C58.7227 26.6986 59.7863 27.2811 59.8746 28.0899C59.9562 28.8104 59.5832 29.5681 59.2146 30.1194C59.0212 30.4103 58.8046 30.6826 58.5672 30.9333Z" fill="#493938"/>
<path d="M59.2161 30.1193C57.1745 29.2119 57.2076 27.6346 57.5022 26.6021C58.7242 26.6985 59.7878 27.281 59.8761 28.0898C59.9577 28.8104 59.5847 29.568 59.2161 30.1193ZM46.3244 0.633149C46.3041 0.63192 46.2849 0.632256 46.2646 0.631104C46.3038 0.632045 46.3244 0.633149 46.3244 0.633149Z" fill="#604746"/>
<path d="M73.7445 9.80337C73.7445 9.80337 73.261 16.7888 62.2022 17.0721C51.1406 17.358 36.9905 6.23881 31.3004 19.1843C31.3004 19.1843 31.0942 11.3676 39.4326 5.93123C39.2173 5.98692 32.3126 7.89399 30.737 17.4896C30.737 17.4896 29.9041 16.0152 29.8465 13.2776C31.0532 8.98953 34.9464 -0.0120347 46.2633 0.631378C45.4862 0.612805 37.2606 0.662398 32.0896 10.8174C32.3326 10.4664 40.9096 -1.79527 50.3093 1.32078C59.8424 4.48221 62.0732 9.99515 66.7977 9.78423C65.0978 9.99471 63.3757 9.7533 61.7836 9.08134C59.2813 7.99702 55.9063 5.22536 55.6964 5.05428C55.8783 5.25709 58.8418 8.53117 62.3884 10.0667C66.0526 11.6522 69.3883 9.98287 72.6258 10.0425C72.6258 10.0425 72.5714 10.0781 72.4654 10.1439C71.614 10.6477 67.4513 12.8953 61.6003 12.2233C55.0186 11.466 39.6747 -0.596606 31.7583 16.4505C31.9088 16.2054 37.0889 7.91644 45.122 9.46346C53.2766 11.0354 67.909 20.2158 73.7445 9.80337ZM65.8293 29.3879C66.6027 31.7921 68.4283 32.9881 69.8729 33.5782C69.5523 34.3886 69.1483 35.1581 68.6684 35.8724C61.1723 31.6726 66.0359 26.2054 67.9236 24.4533C69.3265 25.9378 71.0133 28.5265 70.3439 31.9668C67.0403 31.6503 65.8999 29.5244 65.8293 29.3879ZM27.3555 32.0112C25.2561 28.7781 23.6721 24.744 25.318 21.1672C26.9951 22.4402 31.9304 26.8724 27.3555 32.0112Z" fill="#604746"/>
<path d="M55.261 45.2876C52.7318 45.023 47.7701 44.7666 46.7469 44.715L46.5592 44.7024C45.5353 44.6171 40.5851 44.2101 38.0448 44.1353C35.2016 44.0488 35.721 41.877 35.721 41.877C35.721 41.877 35.6448 43.1841 36.9672 43.2221C38.2924 43.2575 38.8374 41.4547 38.8374 41.4547L46.7454 41.4205L46.845 41.4187L46.9436 41.4337L49.9066 41.845L53.3553 42.3226L54.0694 42.4237L54.7836 42.5219C54.7836 42.5219 54.9239 43.3024 55.3791 43.8908C55.506 44.0671 55.6648 44.2142 55.846 44.3231C56.0272 44.4321 56.2272 44.5007 56.4338 44.5249C57.7529 44.6637 57.8292 43.3566 57.8292 43.3566C57.8292 43.3566 58.0921 45.5808 55.261 45.2876Z" fill="#493938"/>
<path d="M51.25 44.0714L44.2092 43.6002C47.3215 43.4721 49.1257 42.4321 49.9061 41.845L53.3548 42.3226C52.4806 43.7108 51.25 44.0714 51.25 44.0714ZM55.3785 43.8908C54.185 45.0081 52.2744 44.1932 52.2744 44.1932C53.023 43.9714 53.6622 43.1114 54.0688 42.4236L54.783 42.5219C54.783 42.5219 54.9233 43.3023 55.3785 43.8908Z" fill="#604746"/>
<path d="M49.5571 39.4635C49.4938 40.548 48.2604 41.3481 46.8022 41.2505C45.344 41.1529 44.2132 40.1946 44.2765 39.1101C44.3397 38.0255 45.4723 38.1124 46.9305 38.21C48.3887 38.3076 49.6203 38.3789 49.5571 39.4635Z" fill="#FCD5C0"/>
<path d="M49.5571 39.4386C49.6615 39.7661 49.5907 40.1535 49.4304 40.483C49.2581 40.8089 49.0147 41.0853 48.7211 41.2886C48.1356 41.6729 47.4538 41.8545 46.7684 41.8088C46.0831 41.7631 45.4275 41.4922 44.8911 41.0331C44.6231 40.7923 44.4135 40.4856 44.2803 40.1391C44.1596 39.7905 44.1341 39.3963 44.2766 39.0852C44.4662 39.7393 44.8978 40.0662 45.3521 40.3044C46.2969 40.7516 47.3597 40.8234 48.3495 40.5069C48.8284 40.3316 49.2945 40.0626 49.5571 39.4386Z" fill="#D3805F"/>
<path d="M53.1663 57.5647C52.4433 52.3686 57.2134 50.1645 59.2597 48.9696C61.4439 47.6971 61.6088 44.8707 61.6088 44.8707L60.1757 45.8767L62.1941 42.4678L61.9356 44.3403C64.3842 52.4472 58.2884 56.015 53.1663 57.5647ZM50.2249 49.4696C50.2222 49.4723 50.2222 49.4723 50.222 49.4751C49.4832 50.2919 47.8048 51.7778 46.3637 51.2608C45.6257 51.0028 45.0122 50.444 44.656 49.7053C46.3021 50.1183 48.5968 50.4093 50.2249 49.4696Z" fill="#604746"/>
<path d="M45.7002 35.2492L49.0738 35.4751L48.9203 34.6368L45.8033 34.4282L45.7002 35.2492Z" fill="#7F2828"/>
<path d="M38.3072 54.8377C29.9591 49.5378 31.6793 43.5211 32.1528 42.2715C33.5943 43.9913 37.8622 49.4976 38.3072 54.8377Z" fill="#604746"/>
<path d="M50.962 54.5071C51.0069 53.737 49.1881 52.9886 46.8995 52.8354C44.611 52.6823 42.7193 53.1823 42.6744 53.9524C42.6294 54.7224 44.4483 55.4709 46.7368 55.624C49.0254 55.7772 50.917 55.2771 50.962 54.5071Z" fill="#604746"/>
<path d="M45.8616 32.7756L48.9419 32.9817L48.8079 33.3868L48.7185 33.6568L46.0598 33.4789L45.8616 32.7756Z" fill="#D84A4A"/>
<path d="M33.8266 32.0686L31.4624 34.73L31.5082 35.8371L33.924 34.185L33.8266 32.0686Z" fill="#7F2828"/>
<path d="M61.1374 33.8965L63.8262 37.8424L63.7345 38.7825L60.7986 35.4712L61.1374 33.8965Z" fill="#7F2828"/>
<mask id="mask0_3334_2775" style="mask-type:luminance" maskUnits="userSpaceOnUse" x="33" y="32" width="14" height="7">
<path style="mix-blend-mode:multiply" d="M46.1057 33.6951L45.5705 35.0612L44.8634 36.8615C44.705 37.2655 44.4328 37.6063 44.0847 37.8364C43.7366 38.0664 43.33 38.1742 42.9219 38.1447L40.3644 37.9623L37.2202 37.7407C36.5244 37.6908 35.8631 37.3983 35.3372 36.908C34.8113 36.4176 34.4497 35.7563 34.3078 35.0252L34.2012 34.4741L33.8834 32.8322C33.8637 32.7301 33.8663 32.6245 33.891 32.5236C33.9156 32.4227 33.9617 32.3293 34.0256 32.2505C34.0894 32.1718 34.1694 32.1099 34.2592 32.0697C34.349 32.0294 34.4463 32.0119 34.5435 32.0184L45.5636 32.756C45.6644 32.7628 45.7621 32.7954 45.8487 32.8509C45.9353 32.9065 46.0082 32.9835 46.0613 33.0755C46.1144 33.1675 46.1461 33.2717 46.1538 33.3795C46.1616 33.4873 46.1451 33.5955 46.1057 33.6951Z" fill="url(#paint0_linear_3334_2775)"/>
</mask>
<g mask="url(#mask0_3334_2775)">
<path d="M46.106 33.6958L45.5708 35.0619L44.8636 36.8623C44.7053 37.2662 44.433 37.607 44.0849 37.8371C43.7368 38.0672 43.3303 38.175 42.9222 38.1455L40.3647 37.9631L37.2204 37.7414C36.5247 37.6915 35.8633 37.3991 35.3374 36.9087C34.8115 36.4184 34.45 35.7571 34.3081 35.0259L34.2015 34.4748L33.8836 32.833C33.864 32.7308 33.8666 32.6252 33.8912 32.5243C33.9159 32.4234 33.9619 32.33 34.0258 32.2513C34.0897 32.1725 34.1696 32.1106 34.2594 32.0704C34.3492 32.0301 34.4465 32.0126 34.5437 32.0192L45.5639 32.7567C45.6646 32.7635 45.7624 32.7961 45.849 32.8517C45.9356 32.9073 46.0084 32.9843 46.0615 33.0762C46.1146 33.1682 46.1464 33.2724 46.1541 33.3802C46.1618 33.488 46.1453 33.5962 46.106 33.6958Z" fill="url(#paint1_linear_3334_2775)"/>
</g>
<mask id="mask1_3334_2775" style="mask-type:luminance" maskUnits="userSpaceOnUse" x="34" y="33" width="7" height="5">
<path style="mix-blend-mode:multiply" d="M40.3646 37.9621L37.2203 37.7404C36.5246 37.6905 35.8633 37.3981 35.3374 36.9077C34.8115 36.4174 34.4499 35.7561 34.308 35.0249L34.2014 34.4738C34.8109 34.1459 35.4847 33.9788 36.1667 33.9863C36.8487 33.9939 37.5192 34.1759 38.1222 34.5172C38.7252 34.8585 39.2434 35.3492 39.6334 35.9484C40.0235 36.5476 40.2742 37.238 40.3646 37.9621Z" fill="url(#paint2_linear_3334_2775)"/>
</mask>
<g mask="url(#mask1_3334_2775)">
<path d="M40.3634 37.9621L37.2191 37.7404C36.5234 37.6905 35.862 37.3981 35.3361 36.9077C34.8102 36.4174 34.4487 35.7561 34.3068 35.0249L34.2002 34.4738C34.8097 34.1459 35.4835 33.9788 36.1655 33.9863C36.8475 33.9939 37.518 34.1759 38.121 34.5172C38.724 34.8585 39.2421 35.3492 39.6322 35.9484C40.0223 36.5476 40.273 37.238 40.3634 37.9621Z" fill="url(#paint3_linear_3334_2775)"/>
</g>
<mask id="mask2_3334_2775" style="mask-type:luminance" maskUnits="userSpaceOnUse" x="40" y="32" width="7" height="4">
<path style="mix-blend-mode:multiply" d="M46.1082 33.6948L45.573 35.0609C45.0949 35.2488 44.5859 35.3292 44.0775 35.2972C43.5691 35.2652 43.0724 35.1214 42.6182 34.8747C42.164 34.6281 41.762 34.284 41.4374 33.8638C41.1128 33.4435 40.8725 32.9562 40.7314 32.4321L45.5661 32.7557C45.6669 32.7625 45.7646 32.7951 45.8512 32.8507C45.9378 32.9062 46.0107 32.9832 46.0638 33.0752C46.1169 33.1672 46.1486 33.2714 46.1563 33.3792C46.1641 33.487 46.1476 33.5952 46.1082 33.6948Z" fill="url(#paint4_linear_3334_2775)"/>
</mask>
<g mask="url(#mask2_3334_2775)">
<path d="M46.1053 33.6948L45.5701 35.0609C45.092 35.2488 44.5829 35.3292 44.0746 35.2972C43.5662 35.2652 43.0694 35.1214 42.6152 34.8747C42.161 34.6281 41.7591 34.284 41.4345 33.8638C41.1099 33.4435 40.8696 32.9562 40.7285 32.4321L45.5632 32.7557C45.6639 32.7625 45.7617 32.7951 45.8483 32.8507C45.9349 32.9062 46.0078 32.9832 46.0608 33.0752C46.1139 33.1672 46.1457 33.2714 46.1534 33.3792C46.1611 33.487 46.1446 33.5952 46.1053 33.6948Z" fill="url(#paint5_linear_3334_2775)"/>
</g>
<path d="M46.284 32.9273C46.2085 32.7977 46.1052 32.6892 45.9828 32.6108C45.8603 32.5324 45.7222 32.4864 45.5799 32.4764L34.5597 31.7389C34.4223 31.7292 34.2846 31.7539 34.1577 31.8111C34.0308 31.8683 33.918 31.9564 33.8284 32.0684C33.7422 32.1766 33.6785 32.3033 33.6418 32.4401C33.6049 32.5871 33.6004 32.7414 33.6286 32.8906L34.0532 35.0807C34.2068 35.8718 34.5979 36.5873 35.1668 37.1179C35.7357 37.6486 36.4511 37.9653 37.2038 38.0197L42.903 38.4236L42.9108 38.4241C43.3722 38.4552 43.8313 38.3319 44.2245 38.0715C44.6177 37.811 44.9256 37.4261 45.1057 36.97L46.3479 33.8064C46.3905 33.7006 46.4131 33.5868 46.4145 33.4715C46.4228 33.2802 46.3774 33.0906 46.284 32.9273ZM34.1681 32.5286C34.182 32.4943 34.2006 32.4625 34.2233 32.4342C34.2605 32.3876 34.3074 32.351 34.3601 32.3273C34.4129 32.3035 34.4701 32.2933 34.5271 32.2974L45.5473 33.035C45.6066 33.0389 45.6641 33.058 45.7151 33.0907C45.766 33.1233 45.8089 33.1687 45.84 33.2228C45.8684 33.2723 45.8858 33.3282 45.8907 33.386C45.8994 33.4549 45.8908 33.5249 45.8658 33.589L44.6236 36.7527C44.4849 37.1023 44.2483 37.3972 43.9463 37.5964C43.6444 37.7957 43.2921 37.8896 42.9382 37.8652L37.239 37.4613C36.6003 37.4147 35.9932 37.1457 35.5105 36.6952C35.0278 36.2448 34.6958 35.6377 34.5651 34.9664L34.1405 32.7763C34.1234 32.6927 34.1331 32.6055 34.1681 32.5286Z" fill="#7F2828"/>
<path d="M46.2824 32.9273C46.2069 32.7977 46.1036 32.6892 45.9812 32.6108C45.8588 32.5324 45.7207 32.4864 45.5783 32.4764L34.5581 31.7389C34.4207 31.7292 34.2831 31.7539 34.1561 31.8111C34.0292 31.8683 33.9165 31.9564 33.8269 32.0684C33.7406 32.1766 33.677 32.3033 33.6402 32.4401C33.6383 32.5194 33.6443 32.5988 33.6578 32.6768L34.0824 34.8669C34.237 35.6575 34.6284 36.3723 35.1971 36.9028C35.7658 37.4333 36.4807 37.7504 37.233 37.8058L42.9322 38.2097L42.94 38.2102C43.4018 38.2413 43.8612 38.1178 44.2545 37.8567C44.6478 37.5957 44.9555 37.2101 45.1351 36.7533L46.3773 33.5897C46.3931 33.5518 46.405 33.5122 46.413 33.4715C46.4213 33.2802 46.3758 33.0906 46.2824 32.9273ZM45.8642 33.589L44.622 36.7527C44.4834 37.1023 44.2467 37.3972 43.9448 37.5965C43.6428 37.7957 43.2905 37.8896 42.9366 37.8652L37.2375 37.4613C36.5987 37.4147 35.9917 37.1457 35.5089 36.6952C35.0262 36.2448 34.6942 35.6377 34.5636 34.9664L34.139 32.7763C34.1467 32.5853 34.1852 32.3973 34.2526 32.2203C34.2898 32.1738 34.3366 32.1372 34.3893 32.1134C34.4421 32.0897 34.4993 32.0795 34.5564 32.0836L45.5765 32.8212C45.6357 32.8251 45.6932 32.8441 45.744 32.8767C45.7949 32.9093 45.8378 32.9545 45.869 33.0085C45.9002 33.0625 45.9189 33.1237 45.9234 33.1871C45.928 33.2504 45.9183 33.3139 45.8952 33.3724L45.8892 33.386C45.8978 33.4549 45.8892 33.5249 45.8642 33.589Z" fill="#D84A4A"/>
<mask id="mask3_3334_2775" style="mask-type:luminance" maskUnits="userSpaceOnUse" x="48" y="33" width="14" height="7">
<path style="mix-blend-mode:multiply" d="M48.7663 33.8728L49.1385 35.2996L49.6309 37.1802C49.7411 37.6021 49.9716 37.9766 50.2902 38.2513C50.6089 38.526 50.9997 38.6872 51.4081 38.7123L53.9669 38.8723L57.1125 39.0716C57.8086 39.1149 58.4988 38.9129 59.0776 38.4965C59.6564 38.0801 60.092 37.4721 60.3178 36.7655L60.4876 36.233L60.9938 34.6463C61.0252 34.5476 61.0349 34.4424 61.0222 34.339C61.0094 34.2356 60.9746 34.1368 60.9204 34.0502C60.8662 33.9635 60.7941 33.8915 60.7096 33.8395C60.6252 33.7876 60.5307 33.7573 60.4335 33.7508L49.4133 33.0133C49.3125 33.0066 49.2118 33.0258 49.1194 33.0695C49.027 33.1131 48.9458 33.1798 48.8824 33.2639C48.819 33.3481 48.7754 33.4473 48.7552 33.5532C48.735 33.6592 48.7388 33.7687 48.7663 33.8728Z" fill="url(#paint6_linear_3334_2775)"/>
</mask>
<g mask="url(#mask3_3334_2775)">
<path d="M48.766 33.8728L49.1383 35.2996L49.6307 37.1802C49.7408 37.6021 49.9714 37.9766 50.29 38.2513C50.6086 38.526 50.9995 38.6872 51.4078 38.7123L53.9667 38.8723L57.1122 39.0716C57.8083 39.1149 58.4985 38.9129 59.0774 38.4965C59.6562 38.0801 60.0918 37.4721 60.3176 36.7655L60.4874 36.233L60.9936 34.6463C61.025 34.5476 61.0347 34.4424 61.0219 34.339C61.0092 34.2356 60.9744 34.1368 60.9202 34.0502C60.866 33.9635 60.7938 33.8915 60.7094 33.8395C60.6249 33.7876 60.5304 33.7573 60.4333 33.7508L49.4131 33.0133C49.3123 33.0066 49.2115 33.0258 49.1191 33.0695C49.0268 33.1131 48.9455 33.1798 48.8821 33.2639C48.8188 33.3481 48.7752 33.4473 48.755 33.5532C48.7348 33.6592 48.7386 33.7687 48.766 33.8728Z" fill="url(#paint7_linear_3334_2775)"/>
</g>
<mask id="mask4_3334_2775" style="mask-type:luminance" maskUnits="userSpaceOnUse" x="53" y="35" width="8" height="5">
<path style="mix-blend-mode:multiply" d="M53.9688 38.8729L57.1143 39.0722C57.8104 39.1155 58.5006 38.9135 59.0795 38.497C59.6583 38.0806 60.0939 37.4727 60.3197 36.7661L60.4895 36.2335C59.9229 35.8269 59.2737 35.5712 58.5961 35.4878C57.9185 35.4043 57.2322 35.4955 56.5941 35.7538C55.9561 36.012 55.385 36.4298 54.9283 36.9724C54.4716 37.5149 54.1426 38.1665 53.9688 38.8729Z" fill="url(#paint8_linear_3334_2775)"/>
</mask>
<g mask="url(#mask4_3334_2775)">
<path d="M53.9688 38.8726L57.1143 39.0719C57.8104 39.1152 58.5006 38.9132 59.0795 38.4968C59.6583 38.0804 60.0939 37.4724 60.3197 36.7658L60.4895 36.2333C59.9229 35.8267 59.2737 35.571 58.5961 35.4875C57.9185 35.4041 57.2322 35.4953 56.5941 35.7535C55.9561 36.0117 55.385 36.4296 54.9283 36.9721C54.4716 37.5147 54.1426 38.1663 53.9688 38.8726Z" fill="url(#paint9_linear_3334_2775)"/>
</g>
<mask id="mask5_3334_2775" style="mask-type:luminance" maskUnits="userSpaceOnUse" x="48" y="33" width="7" height="3">
<path style="mix-blend-mode:multiply" d="M48.7663 33.8728L49.1385 35.2996C49.591 35.5497 50.0868 35.6974 50.5949 35.7334C51.1031 35.7695 51.6127 35.693 52.092 35.5089C52.5714 35.3248 53.0102 35.0369 53.3811 34.6632C53.752 34.2895 54.0471 33.838 54.248 33.3368L49.4133 33.0133C49.3125 33.0066 49.2118 33.0258 49.1194 33.0695C49.027 33.1131 48.9458 33.1798 48.8824 33.2639C48.819 33.3481 48.7754 33.4473 48.7552 33.5532C48.735 33.6592 48.7388 33.7687 48.7663 33.8728Z" fill="url(#paint10_linear_3334_2775)"/>
</mask>
<g mask="url(#mask5_3334_2775)">
<path d="M48.766 33.8728L49.1383 35.2996C49.5908 35.5497 50.0866 35.6974 50.5947 35.7334C51.1028 35.7695 51.6124 35.693 52.0918 35.5089C52.5711 35.3248 53.0099 35.0369 53.3808 34.6632C53.7518 34.2895 54.0469 33.838 54.2478 33.3368L49.4131 33.0133C49.3123 33.0066 49.2115 33.0258 49.1191 33.0695C49.0268 33.1131 48.9455 33.1798 48.8821 33.2639C48.8188 33.3481 48.7752 33.4473 48.755 33.5532C48.7348 33.6592 48.7386 33.7687 48.766 33.8728Z" fill="url(#paint11_linear_3334_2775)"/>
</g>
<path d="M48.4834 33.6104C48.4714 33.7249 48.4806 33.8408 48.5106 33.9515L49.3754 37.2561C49.5011 37.7327 49.7618 38.1556 50.1217 38.4665C50.4816 38.7774 50.9227 38.9609 51.3842 38.9915L51.392 38.9921L57.0938 39.3512C57.8469 39.3976 58.5936 39.1788 59.2197 38.7281C59.8459 38.2774 60.3171 37.6196 60.5615 36.8552L61.2374 34.7388C61.2827 34.5944 61.2961 34.4408 61.2766 34.2899C61.2561 34.1494 61.2077 34.0152 61.1347 33.8963C61.0588 33.7732 60.9572 33.6708 60.8379 33.5971C60.7186 33.5234 60.5849 33.4805 60.4474 33.4718L49.4272 32.7343C49.1938 32.7177 48.9638 32.8004 48.787 32.9644C48.6103 33.1285 48.5012 33.3606 48.4834 33.6104ZM60.7427 34.557L60.0668 36.6735C59.8592 37.3222 59.4592 37.8803 58.9279 38.2628C58.3965 38.6454 57.7629 38.8314 57.1237 38.7925L51.422 38.4333C51.0679 38.4104 50.7293 38.2703 50.4529 38.0323C50.1765 37.7943 49.9759 37.4702 49.879 37.1048L49.0142 33.8001C48.9969 33.7332 48.9965 33.6625 49.0131 33.5953C49.0247 33.5386 49.0484 33.4855 49.0823 33.4402C49.1195 33.3906 49.1673 33.3513 49.2217 33.3257C49.276 33.3001 49.3353 33.2888 49.3946 33.2928L60.4148 34.0304C60.4719 34.0339 60.5274 34.0517 60.577 34.0823C60.6266 34.1128 60.6688 34.1554 60.7003 34.2065C60.7196 34.2377 60.7344 34.2717 60.7442 34.3076C60.7699 34.3886 60.7694 34.4764 60.7427 34.557Z" fill="#7F2828"/>
<path d="M48.4858 33.6104C48.489 33.6518 48.4963 33.6927 48.5075 33.7324L49.3723 37.037C49.4974 37.5141 49.7579 37.9378 50.1178 38.2492C50.4777 38.5607 50.9191 38.7445 51.3809 38.7753L51.3888 38.7758L57.0905 39.1349C57.8435 39.1802 58.5897 38.9609 59.2156 38.5104C59.8416 38.0599 60.313 37.4028 60.5583 36.639L61.2341 34.5225C61.2567 34.4469 61.2718 34.3689 61.2791 34.2899C61.2585 34.1494 61.2102 34.0152 61.1372 33.8963C61.0613 33.7732 60.9597 33.6708 60.8404 33.5971C60.721 33.5234 60.5873 33.4805 60.4499 33.4718L49.4297 32.7343C49.1963 32.7177 48.9663 32.8004 48.7895 32.9644C48.6128 33.1285 48.5036 33.3606 48.4858 33.6104ZM49.0155 33.5953L49.0111 33.581C48.995 33.5199 48.9928 33.4556 49.0047 33.3934C49.0166 33.3311 49.0422 33.2729 49.0794 33.2235C49.1167 33.1741 49.1644 33.1349 49.2187 33.1094C49.273 33.0838 49.3322 33.0726 49.3914 33.0766L60.4116 33.8141C60.4687 33.8177 60.5242 33.8354 60.5738 33.866C60.6234 33.8966 60.6656 33.9391 60.6971 33.9903C60.7434 34.1748 60.7597 34.3666 60.7452 34.557L60.0693 36.6735C59.8617 37.3222 59.4617 37.8803 58.9303 38.2628C58.399 38.6454 57.7654 38.8314 57.1262 38.7925L51.4244 38.4333C51.0704 38.4104 50.7318 38.2703 50.4554 38.0323C50.1789 37.7943 49.9784 37.4702 49.8815 37.1048L49.0167 33.8001C48.9994 33.7332 48.999 33.6625 49.0155 33.5953Z" fill="#D84A4A"/>
<path d="M51.1086 48.2564C49.8941 48.7471 48.43 48.9827 46.8732 48.8785C45.1025 48.76 43.5031 48.2212 42.2854 47.4192C43.9612 47.0995 48.2204 46.2939 51.1086 48.2564Z" fill="#F9F5F4"/>
<defs>
<linearGradient id="paint0_linear_3334_2775" x1="40.3761" y1="26.7605" x2="39.496" y2="39.9058" gradientUnits="userSpaceOnUse">
<stop offset="0.108" stop-color="white"/>
<stop offset="0.896"/>
</linearGradient>
<linearGradient id="paint1_linear_3334_2775" x1="40.3763" y1="26.7612" x2="39.4962" y2="39.9066" gradientUnits="userSpaceOnUse">
<stop offset="0.108" stop-color="white"/>
<stop offset="0.896" stop-color="white"/>
</linearGradient>
<linearGradient id="paint2_linear_3334_2775" x1="37.6222" y1="30.3211" x2="37.037" y2="39.0621" gradientUnits="userSpaceOnUse">
<stop offset="0.108" stop-color="white"/>
<stop offset="0.896"/>
</linearGradient>
<linearGradient id="paint3_linear_3334_2775" x1="37.621" y1="30.3211" x2="37.0358" y2="39.0621" gradientUnits="userSpaceOnUse">
<stop offset="0.108" stop-color="white"/>
<stop offset="0.896" stop-color="white"/>
</linearGradient>
<linearGradient id="paint4_linear_3334_2775" x1="43.615" y1="29.9437" x2="43.1974" y2="36.1818" gradientUnits="userSpaceOnUse">
<stop offset="0.108" stop-color="white"/>
<stop offset="0.896"/>
</linearGradient>
<linearGradient id="paint5_linear_3334_2775" x1="43.6121" y1="29.9437" x2="43.1945" y2="36.1818" gradientUnits="userSpaceOnUse">
<stop offset="0.108" stop-color="white"/>
<stop offset="0.896" stop-color="white"/>
</linearGradient>
<linearGradient id="paint6_linear_3334_2775" x1="55.223" y1="27.7546" x2="54.3429" y2="40.9003" gradientUnits="userSpaceOnUse">
<stop offset="0.108" stop-color="white"/>
<stop offset="0.896"/>
</linearGradient>
<linearGradient id="paint7_linear_3334_2775" x1="55.2227" y1="27.7546" x2="54.3426" y2="40.9003" gradientUnits="userSpaceOnUse">
<stop offset="0.108" stop-color="white"/>
<stop offset="0.896" stop-color="white"/>
</linearGradient>
<linearGradient id="paint8_linear_3334_2775" x1="57.5436" y1="31.6554" x2="56.9583" y2="40.3969" gradientUnits="userSpaceOnUse">
<stop offset="0.108" stop-color="white"/>
<stop offset="0.896"/>
</linearGradient>
<linearGradient id="paint9_linear_3334_2775" x1="57.5436" y1="31.6551" x2="56.9583" y2="40.3967" gradientUnits="userSpaceOnUse">
<stop offset="0.108" stop-color="white"/>
<stop offset="0.896" stop-color="white"/>
</linearGradient>
<linearGradient id="paint10_linear_3334_2775" x1="51.6415" y1="30.4819" x2="51.2239" y2="36.7202" gradientUnits="userSpaceOnUse">
<stop offset="0.108" stop-color="white"/>
<stop offset="0.896"/>
</linearGradient>
<linearGradient id="paint11_linear_3334_2775" x1="51.6413" y1="30.4819" x2="51.2236" y2="36.7202" gradientUnits="userSpaceOnUse">
<stop offset="0.108" stop-color="white"/>
<stop offset="0.896" stop-color="white"/>
</linearGradient>
</defs>
</svg>
