<svg width="254" height="16" viewBox="0 0 254 16" fill="none" xmlns="http://www.w3.org/2000/svg">
<path d="M0.0636563 6.544L0.831656 0.279999H21.0397L20.3197 6.544H13.8397L10.7677 16H2.34366L5.41566 6.544H0.0636563ZM30.1178 6.496L27.0218 16H18.5978L23.7098 0.279999H40.9418C41.1818 0.279999 41.4218 0.352 41.6378 0.448C41.8298 0.568 42.0218 0.711999 42.1658 0.879999C42.3098 1.048 42.4298 1.24 42.5258 1.432C42.5978 1.624 42.6458 1.816 42.6458 2.008L42.1658 7.336C42.0698 7.624 41.9498 7.864 41.8058 8.08C41.6618 8.296 41.4938 8.488 41.3498 8.656C41.2058 8.824 41.0618 8.968 40.9178 9.088C40.7738 9.232 40.6538 9.328 40.5578 9.424L40.1738 9.76H41.7098L41.0858 16H33.7418C32.6378 16 31.6778 15.76 30.8618 15.232C30.0458 14.728 29.4218 14.056 29.0138 13.24L31.0298 7.096H33.4058L33.5978 6.496H30.1178ZM56.4247 16L56.7127 13.216H52.9207L54.9127 7.048H57.2647L57.3367 6.496H54.0007L50.9047 16H42.4807L46.8727 2.512C46.9687 2.2 47.1607 1.912 47.4727 1.624C47.7847 1.36 48.1447 1.12 48.5287 0.927999C48.9127 0.735999 49.3207 0.568 49.7527 0.448C50.1847 0.352 50.5687 0.279999 50.9047 0.279999H63.9847C64.4887 0.279999 64.8967 0.423999 65.2327 0.663999C65.5687 0.904 65.8087 1.216 66.0007 1.576C66.1687 1.96 66.2647 2.344 66.3127 2.752C66.3607 3.184 66.3607 3.568 66.3127 3.904L64.9687 16H56.4247ZM71.452 0.279999H79.876L74.764 16H66.34L71.452 0.279999ZM81.8817 0.279999H90.3057L87.2577 9.616H96.8337L96.1377 16H76.7697L81.8817 0.279999ZM116.808 16H97.5119L102.624 0.279999H119.856C120.096 0.279999 120.312 0.352 120.552 0.448C120.768 0.568 120.96 0.711999 121.128 0.879999C121.272 1.048 121.392 1.24 121.488 1.432C121.56 1.624 121.584 1.816 121.56 2.008L121.128 7.24L121.104 7.312C120.912 7.888 120.672 8.344 120.432 8.68C120.168 9.016 119.952 9.28 119.784 9.448L119.736 9.496C119.856 9.784 120 10.12 120.168 10.456C120.336 10.816 120.432 11.152 120.456 11.44C119.952 12.952 119.448 14.08 118.92 14.848C118.392 15.616 117.672 16 116.808 16ZM109.008 6.52L108 9.616H111.48C111.48 9.64 111.504 9.616 111.552 9.52C111.6 9.424 111.624 9.352 111.672 9.256C111.744 9.088 111.72 8.992 111.576 8.992H109.32L109.92 7.12H112.296C112.296 7.144 112.32 7.12 112.368 7.024C112.416 6.952 112.44 6.88 112.488 6.784C112.536 6.616 112.488 6.52 112.368 6.52H109.008ZM125.733 0.279999H134.157L131.109 9.616H140.685L139.989 16H120.621L125.733 0.279999ZM155.307 16L155.595 13.216H151.803L153.795 7.048H156.147L156.219 6.496H152.883L149.787 16H141.363L145.755 2.512C145.851 2.2 146.043 1.912 146.355 1.624C146.667 1.36 147.027 1.12 147.411 0.927999C147.795 0.735999 148.203 0.568 148.635 0.448C149.067 0.352 149.451 0.279999 149.787 0.279999H162.867C163.371 0.279999 163.779 0.423999 164.115 0.663999C164.451 0.904 164.691 1.216 164.883 1.576C165.051 1.96 165.147 2.344 165.195 2.752C165.243 3.184 165.243 3.568 165.195 3.904L163.851 16H155.307ZM185.743 16H165.223L167.287 9.64L176.311 6.496H168.319L170.335 0.279999H187.447L186.775 6.472L177.823 9.616H186.463L185.743 16ZM192.202 0.279999H208.162L207.466 6.544H198.586L198.418 7.048H202.234L202.018 9.112H197.746L197.578 9.616H207.178L206.458 16H187.09L192.202 0.279999ZM219.352 6.496L216.256 16H207.832L212.944 0.279999H230.176C230.416 0.279999 230.656 0.352 230.872 0.448C231.064 0.568 231.256 0.711999 231.4 0.879999C231.544 1.048 231.664 1.24 231.76 1.432C231.832 1.624 231.88 1.816 231.88 2.008L231.4 7.336C231.304 7.624 231.184 7.864 231.04 8.08C230.896 8.296 230.728 8.488 230.584 8.656C230.44 8.824 230.296 8.968 230.152 9.088C230.008 9.232 229.888 9.328 229.792 9.424L229.408 9.76H230.944L230.32 16H222.976C221.872 16 220.912 15.76 220.096 15.232C219.28 14.728 218.656 14.056 218.248 13.24L220.264 7.096H222.64L222.832 6.496H219.352ZM253.219 6.544H246.571L252.763 9.496C252.787 10.216 252.787 10.864 252.763 11.464C252.715 12.064 252.595 12.712 252.379 13.432C252.283 13.72 252.139 14.032 251.971 14.32C251.779 14.608 251.563 14.896 251.323 15.136C251.059 15.4 250.747 15.616 250.411 15.76C250.051 15.928 249.667 16 249.235 16H231.715L233.779 9.64H242.419L236.227 6.952C235.747 6.52 235.483 6.136 235.387 5.752C235.291 5.368 235.315 4.912 235.507 4.336L236.371 1.648C236.419 1.504 236.515 1.36 236.707 1.192C236.899 1.024 237.091 0.879999 237.331 0.735999C237.571 0.615999 237.811 0.519999 238.051 0.423999C238.291 0.327999 238.507 0.279999 238.699 0.279999H253.915L253.219 6.544Z" fill="#6143F0"/>
</svg>
