<svg width="36" height="37" viewBox="0 0 36 37" fill="none" xmlns="http://www.w3.org/2000/svg">
<rect y="0.5" width="36" height="36" rx="18" fill="#6143F0"/>
<path fill-rule="evenodd" clip-rule="evenodd" d="M18.4002 10.8004C19.0263 10.4241 19.84 10.4058 20.5348 10.9083C22.7523 12.5119 25.2917 15.3705 25.2917 19.4259C25.2917 22.5978 23.9289 24.6376 22.1938 25.8624C21.1277 26.6149 19.936 27.0507 18.8609 27.2714C18.4647 27.406 18.0834 27.4583 17.7778 27.4583C17.6922 27.4583 17.6008 27.455 17.5048 27.4478C17.3684 27.4549 17.2369 27.4583 17.1111 27.4583C15.8937 27.4583 14.0947 27.0548 12.5867 25.8383C11.0521 24.6002 9.875 22.5642 9.875 19.4259C9.875 16.862 11.2295 15.1376 12.5042 14.1652C13.0349 13.7603 13.6709 13.7536 14.1741 14.0283C14.6609 14.2941 15.0019 14.8063 15.0636 15.4079L15.1351 16.1061C15.1626 16.3745 15.2998 16.5972 15.4431 16.7056C15.5104 16.7565 15.565 16.7725 15.6014 16.7752C15.632 16.7775 15.6797 16.7734 15.7505 16.7274C16.2947 16.3737 16.708 15.7375 16.986 14.9888C17.2615 14.2471 17.375 13.4721 17.375 12.9444V12.6747C17.375 11.8641 17.787 11.1691 18.4002 10.8004ZM18.5262 26.0638C18.1714 26.1329 17.8327 26.175 17.5226 26.1948C17.1194 26.1539 16.6113 26.0163 16.1868 25.7253C15.6995 25.3911 15.2917 24.8387 15.2917 23.8703C15.2917 22.7018 16.0146 21.8143 16.7831 21.2458C16.7853 21.2542 16.7868 21.2648 16.7868 21.2778V21.2869C16.7868 21.4766 16.7867 21.7638 16.8225 22.0625C16.858 22.3595 16.9345 22.7248 17.1229 23.046C17.2541 23.2699 17.4559 23.4593 17.7299 23.54C17.9991 23.6193 18.2557 23.5694 18.4556 23.4749C18.8357 23.2954 19.1074 22.9205 19.2214 22.5252C19.5648 22.8049 19.875 23.2422 19.875 23.8703C19.875 24.8733 19.5021 25.4287 19.0936 25.7488C18.9146 25.8891 18.7186 25.9916 18.5262 26.0638ZM20.9313 25.1854C21.1153 25.0803 21.2964 24.9658 21.4729 24.8412C22.8859 23.8438 24.0417 22.1799 24.0417 19.4259C24.0417 15.9365 21.8566 13.4068 19.8023 11.9211C19.5317 11.7255 19.2611 11.7414 19.0442 11.8718C18.8145 12.0099 18.625 12.2939 18.625 12.6747V12.9444C18.625 13.6182 18.4859 14.5407 18.1578 15.424C17.8324 16.3004 17.2912 17.2169 16.4317 17.7755C15.8199 18.1731 15.1601 18.0588 14.6891 17.7026C14.2445 17.3664 13.9512 16.8154 13.8916 16.2335L13.8201 15.5353C13.7985 15.3253 13.6847 15.1853 13.5751 15.1255C13.4821 15.0747 13.3804 15.069 13.2624 15.159C12.2063 15.9646 11.125 17.3538 11.125 19.4259C11.125 22.2135 12.1516 23.8812 13.3716 24.8654C13.7029 25.1326 14.0525 25.3527 14.4058 25.5317C14.1782 25.0739 14.0417 24.5235 14.0417 23.8703C14.0417 22.1175 15.1418 20.893 16.0817 20.2101C16.5091 19.8995 17.0228 19.9088 17.415 20.1462C17.7935 20.3753 18.0368 20.799 18.0368 21.2778C18.0368 21.4734 18.0374 21.6945 18.0636 21.914C18.0679 21.95 18.0728 21.9845 18.0781 22.0175C18.2116 21.7104 18.457 21.4721 18.7475 21.3462C19.096 21.1951 19.5392 21.1982 19.9094 21.4765C20.4922 21.9149 21.125 22.7019 21.125 23.8703C21.125 24.3652 21.055 24.8022 20.9313 25.1854Z" fill="white"/>
</svg>
