<svg width="49" height="49" viewBox="0 0 49 49" fill="none" xmlns="http://www.w3.org/2000/svg">
<rect x="0.395294" y="0.418701" width="48.1395" height="48.1395" rx="24.0698" fill="#6143F0"/>
<path d="M30.7867 16.4651C30.7867 15.9113 30.3377 15.4622 29.7838 15.4622C29.2299 15.4622 28.7809 15.9113 28.7809 16.4651V17.8334C25.7858 15.7558 21.6718 16.0745 19.0199 18.7892C16.0282 21.8519 16.0282 26.8079 19.0199 29.8705C22.0244 32.9463 26.9057 32.9463 29.9102 29.8705C31.6531 28.0864 32.377 25.6627 32.0945 23.353C32.0273 22.8032 31.5271 22.412 30.9773 22.4793C30.4275 22.5465 30.0363 23.0467 30.1035 23.5965C30.3163 25.3358 29.7694 27.1442 28.4754 28.4689C26.2578 30.7391 22.6723 30.7391 20.4547 28.4689C18.2243 26.1856 18.2243 22.4742 20.4547 20.1909C22.2239 18.3798 24.8636 18.0135 26.9848 19.0921H26.238C25.6841 19.0921 25.2351 19.5411 25.2351 20.095C25.2351 20.6489 25.6841 21.0979 26.238 21.0979H29.7838C30.3377 21.0979 30.7867 20.6489 30.7867 20.095V16.4651Z" fill="white"/>
<path fill-rule="evenodd" clip-rule="evenodd" d="M24.4651 10.1134C16.526 10.1134 10.0901 16.5493 10.0901 24.4884C10.0901 32.4275 16.526 38.8634 24.4651 38.8634C32.4042 38.8634 38.8401 32.4275 38.8401 24.4884C38.8401 16.5493 32.4042 10.1134 24.4651 10.1134ZM12.0959 24.4884C12.0959 17.6571 17.6337 12.1192 24.4651 12.1192C31.2964 12.1192 36.8342 17.6571 36.8342 24.4884C36.8342 31.3197 31.2964 36.8576 24.4651 36.8576C17.6337 36.8576 12.0959 31.3197 12.0959 24.4884Z" fill="white"/>
</svg>
