<?xml version="1.0" encoding="UTF-8"?>
<svg id="Layer_2" data-name="Layer 2" xmlns="http://www.w3.org/2000/svg" viewBox="0 0 44.13 35.59">
  <defs>
    <style>
      .cls-1 {
        fill: #ed1c24;
      }

      .cls-1, .cls-2, .cls-3 {
        stroke-width: 0px;
      }

      .cls-2 {
        fill: #231f20;
      }

      .cls-3 {
        fill: #fff;
      }
    </style>
  </defs>
  <g id="Layer_1-2" data-name="Layer 1">
    <polygon class="cls-3" points="0 18.54 11.19 0 33.01 0 44.13 18.68 37.96 28.43 37.96 35.59 6.07 35.59 6.07 28.45 0 18.54"/>
    <path class="cls-1" d="M23.71,24.55c.47-1.09.58-1.87.42-3-.11-.82-.67-1.91-1.07-2.62-.08.49-.38,1.22-.87,1.74-.59.63-1.46,1.04-1.77,2.07-.14.47-.12.8.06,1.25.22.58.54.9,1.12,1.15-.58.02-1-.07-1.43-.44-.62-.52-.87-1.34-.87-2.05,0-.87.78-1.87,1.49-2.59.64-.65,1.09-1.13,1.49-2.02.36-.8.48-1.31.51-2.18.73.71,1.39,1.58,1.91,2.78.33.78.48,1.45.59,2.1.22,1.3-.38,2.69-1.57,3.79M25.59,15.39c-.62-.93-1.89-1.88-2.58-3.38-.45-.97-.63-1.57-.79-2.62-.29.46-.43.74-.62,1.26-.26.72-.36,1.15-.39,1.91-.04.79.2,1.23.22,2.02.02.68.18,1.11-.06,1.75-.22.6-.48.93-1.01,1.31.13-.65.13-1.04,0-1.69-.11-.53-.22-.84-.5-1.31.06.77.09,1.26-.23,1.97-.34.76-.77,1.09-1.4,2.24-.39.71-.54,1.98-.28,3.22.25,1.17.62,2.07,1.46,2.73.97.76,1.85.83,3.09.76,1.26-.06,2.05-.32,3.03-1.09,1.36-1.07,1.74-2.28,1.85-3.98.11-1.74-.63-3.32-1.8-5.08"/>
    <path class="cls-2" d="M24.6,5.61h10.33l-.87-1.44h-10.33l.87,1.44ZM16.86,9.9H6.58l-.86,1.44h10.27l.87-1.44ZM14.55,13.73l.58-.97H4.86l-.86,1.44h10.27l.28-.47ZM13.41,15.62H3.14l-.87,1.44h10.27l.87-1.44ZM31.48,17.06h10.33l-.87-1.44h-10.33l.86,1.44ZM20.3,4.17h-10.27l-.86,1.44h10.27l.86-1.44ZM22.02,1.31h-10.27l-.86,1.44h10.27l.87-1.44ZM33.21,2.75l-.87-1.44h-10.33l.87,1.44h10.33ZM7.49,28.51h29.15l.87-1.44H6.63l.87,1.44ZM32.34,18.48l.87,1.44h8.6l.87-1.44h-10.33ZM34.92,22.79h5.15l.87-1.44h-6.89l.87,1.44ZM26.32,8.47h10.33l-.86-1.44h-10.33l.86,1.44ZM9.97,21.35H3.19l.86,1.44h5.06l.86-1.44ZM36.64,25.65h1.71l.87-1.44h-3.45l.87,1.44ZM8.25,24.21h-3.35l.87,1.44h1.61l.87-1.44ZM28.04,11.34h10.33l-.86-1.44h-10.33l.86,1.44ZM29.48,13.73l.28.47h10.33l-.87-1.44h-10.33l.58.97ZM11.69,18.48H1.47l.87,1.44h8.5l.87-1.44ZM18.58,7.03h-10.27l-.86,1.44h10.27l.87-1.44Z"/>
    <path class="cls-1" d="M7.6,34.46v-4.28h2.21c.55,0,1.01.08,1.27.23.34.2.51.49.51.87s-.14.56-.48.91c.16.08.26.18.4.35.13.17.2.39.2.64,0,.18-.03.35-.09.5-.06.15-.15.27-.26.38-.08.07-.19.14-.33.21-.14.07-.29.12-.43.15-.14.03-.39.04-.73.04h-2.26ZM9.2,30.94v.75h.25c.15,0,.26-.03.32-.1.06-.07.09-.16.09-.27,0-.08-.02-.16-.05-.22-.04-.06-.08-.11-.14-.13-.04-.02-.13-.03-.27-.03h-.19ZM9.2,32.55v.97h.23c.16,0,.26-.04.31-.13.05-.09.08-.21.08-.36s-.02-.27-.08-.35c-.05-.08-.16-.12-.32-.12h-.23ZM11.96,34.46l1.39-4.28h2.23l1.1,4.28h-1.82l-.12-.68h-.78l-.17.68h-1.82ZM14.44,31.7l-.29,1.16h.47l-.18-1.16ZM16.38,30.18h1.57l.65,2.51.79-2.51h1.53l-1.38,4.28h-2.1l-1.07-4.28ZM25.37,34.46v-4.28h2.48c.29,0,.44.02.64.05.2.03.36.08.49.15.13.07.24.15.32.26.09.1.16.21.2.33.05.12.07.26.07.43,0,.21-.01.39-.08.54-.07.15-.16.27-.28.36-.09.07-.2.12-.33.15.17.11.27.2.39.38.13.19.16.33.2.54v.67c.01.1-.02.21.04.33.02.04.07.09.07.09h-1.63c-.13-.09-.06-.31-.07-.59v-.32c-.01-.14-.04-.26-.08-.34-.04-.08-.11-.14-.2-.18-.09-.04-.22-.06-.4-.06h-.07v1.49h-1.75ZM27.11,32.04h.22c.11,0,.24-.04.29-.11.04-.08.12-.18.12-.3s-.02-.23-.06-.3c-.04-.07-.12-.11-.22-.11h-.34v.82ZM30.11,30.18h1.64v4.28h-1.64v-4.28ZM20.37,34.46l1.39-4.28h2.23l1.1,4.28h-1.82l-.12-.68h-.79l-.17.68h-1.82ZM22.85,31.7l-.29,1.16h.47l-.18-1.16ZM32.13,34.46l1.39-4.28h2.23l1.1,4.28h-1.82l-.12-.68h-.79l-.17.68h-1.82ZM34.61,31.7l-.29,1.16h.47l-.18-1.16Z"/>
  </g>
</svg>