<?xml version="1.0" encoding="UTF-8"?>
<svg id="Layer_2" data-name="Layer 2" xmlns="http://www.w3.org/2000/svg" viewBox="0 0 27.99 27.99">
  <defs>
    <style>
      .cls-1 {
        fill: none;
      }

      .cls-1, .cls-2, .cls-3 {
        stroke-width: 0px;
      }

      .cls-2 {
        fill: #256cb5;
      }

      .cls-3 {
        fill: #76777a;
      }
    </style>
  </defs>
  <g id="Layer_1-2" data-name="Layer 1">
    <g>
      <path class="cls-3" d="M13.99,0C6.27,0,0,6.27,0,13.99s6.27,13.99,13.99,13.99,13.99-6.27,13.99-13.99S21.72,0,13.99,0M27.08,13.99c0,7.23-5.86,13.08-13.08,13.08S.91,21.22.91,13.99,6.77.91,13.99.91s13.08,5.86,13.08,13.08"/>
      <path class="cls-3" d="M13.99,5.7v.46c4.33,0,7.84,3.52,7.84,7.84h.46c0-4.58-3.72-8.3-8.3-8.3M13.99,21.84c-4.33,0-7.84-3.52-7.84-7.84h-.46c0,4.58,3.72,8.3,8.3,8.3"/>
      <path class="cls-3" d="M20.78,8.06c.19.2.46.53.62.73l2.83-1.8c-.14-.19-.37-.47-.54-.66l-1.79,1.19-.12.11.09-.13.79-1.58-.56-.56-1.58.79-.13.09.11-.12,1.19-1.79c-.21-.18-.41-.34-.67-.54l-1.8,2.83c.23.18.53.43.72.61l1.69-.88.11-.08-.08.11-.88,1.69Z"/>
      <path class="cls-3" d="M14.35,4.47l.77-1.73.05-.15v.16s.07,2.32.07,2.32c.27.03.55.06.83.11l-.13-3.43c-.39-.04-.77-.07-1.16-.09l-.76,1.89-.03.14-.03-.14-.76-1.89c-.39.02-.77.05-1.16.09l-.13,3.43c.28-.05.56-.08.83-.11l.08-2.32v-.16s.04.15.04.15l.77,1.73h.71Z"/>
      <path class="cls-3" d="M8.08,7.2c.45-.47.7-1.02.25-1.54-.24-.28-.65-.34-.99-.2h-.03s.01-.02.01-.02c.05-.13.08-.56-.28-.86-.18-.14-.4-.2-.63-.17-.42.04-.74.33-1.62,1.31-.27.3-.65.76-.88,1.07,0,0,2.42,2.29,2.42,2.29.8-.89,1.13-1.22,1.76-1.88M4.93,6.64c.49-.6,1-1.14,1.24-1.35.07-.07.15-.13.25-.16.16-.04.32.07.36.23.04.16-.07.32-.18.45-.26.29-1.2,1.28-1.2,1.28l-.47-.45ZM5.88,7.54s.92-.97,1.22-1.28c.12-.12.2-.2.28-.24.11-.05.22-.06.33,0,.1.07.15.19.12.3-.03.14-.14.27-.24.37-.13.14-1.22,1.3-1.22,1.31l-.49-.46Z"/>
      <path class="cls-2" d="M13.99,5.7v8.3H5.7c0-4.59,3.71-8.3,8.3-8.3"/>
      <path class="cls-2" d="M22.29,13.99c0,4.59-3.71,8.3-8.3,8.3v-8.3h8.3Z"/>
      <rect class="cls-1" x="0" y="0" width="27.99" height="27.99"/>
    </g>
  </g>
</svg>