<?xml version="1.0" encoding="UTF-8"?>
<svg id="Layer_2" data-name="Layer 2" xmlns="http://www.w3.org/2000/svg" viewBox="0 0 218.5 219">
  <defs>
    <style>
      .cls-1 {
        fill: #ba9747;
      }

      .cls-1, .cls-2 {
        stroke-width: 0px;
      }

      .cls-2 {
        fill: #8c8c8a;
      }
    </style>
  </defs>
  <g id="Layer_1-2" data-name="Layer 1">
    <g>
      <path class="cls-1" d="M195.93,40.97c-3.69-6.4-11.92-14.65-18.31-18.35l-27.49-15.91c-6.38-3.7-17.63-6.72-25-6.72h-31.75c-7.37,0-18.62,3.02-25,6.72l-27.49,15.91c-6.39,3.69-14.62,11.95-18.31,18.35l-15.87,27.56c-3.69,6.4-6.7,17.67-6.7,25.06v31.82c0,7.39,3.01,18.66,6.7,25.06l15.87,27.55c3.69,6.4,11.92,14.65,18.31,18.35l27.49,15.91c6.38,3.69,17.63,6.71,25,6.71h31.75c7.37,0,18.62-3.02,25-6.71l27.49-15.91c6.39-3.7,14.62-11.95,18.31-18.35l15.87-27.55c3.68-6.4,6.7-17.67,6.7-25.06v-31.82c0-7.39-3.01-18.66-6.7-25.06l-15.87-27.56ZM109.27,205.5c-53.42,0-96.73-42.98-96.73-96S55.86,13.5,109.27,13.5s96.73,42.98,96.73,96-43.31,96-96.73,96Z"/>
      <path class="cls-2" d="M179.33,80.2l-10.57-18.61c-2.71-4.77-8.52-10.67-13.22-13.42l-18.31-10.74c-4.7-2.76-12.63-4.92-18.05-4.92h-21.15c-5.43,0-13.35,2.16-18.05,4.92l-18.31,10.74c-4.7,2.76-10.5,8.65-13.22,13.43l-10.57,18.61c-2.71,4.77-4.84,12.83-4.84,18.34v21.49c0,5.51,2.12,13.57,4.84,18.34l10.57,18.61c2.71,4.78,8.52,10.67,13.22,13.43l18.32,10.75c4.7,2.76,12.63,4.91,18.05,4.91h21.15c5.42,0,13.35-2.16,18.05-4.91l18.31-10.74c4.7-2.75,10.5-8.65,13.22-13.43l10.57-18.61c2.71-4.77,4.84-12.83,4.84-18.34v-21.49c0-5.51-2.12-13.57-4.84-18.34ZM176.63,118.33c0,4.89-1.92,12.04-4.37,16.28l-9.55,16.52c-2.45,4.24-7.69,9.47-11.93,11.92l-16.54,9.54c-4.24,2.45-11.4,4.36-16.3,4.36h-19.1c-4.89,0-12.05-1.92-16.3-4.36l-16.54-9.54c-4.24-2.44-9.48-7.68-11.93-11.92l-9.55-16.52c-2.45-4.24-4.37-11.39-4.37-16.28v-19.07c0-4.89,1.92-12.04,4.37-16.28l9.55-16.52c2.45-4.24,7.69-9.47,11.93-11.92l16.54-9.54c4.24-2.45,11.4-4.36,16.3-4.36h19.1c4.9,0,12.06,1.92,16.3,4.36l16.54,9.54c4.24,2.45,9.48,7.68,11.93,11.92l9.55,16.52c2.45,4.24,4.37,11.39,4.37,16.28v19.07Z"/>
      <path class="cls-1" d="M76.61,131.38c-2.67,0-16.53,1.17-16.53-1.29,0-.7-.36-4.45.31-4.45.61,0,3.88.33,3.88-.25v-24.56c0-.74.37-6.32-.31-6.32s-3.88.35-3.88-.3c0-1.07-.59-5.09.51-5.22,7.33-.79,16.04-2.35,23.21-.03,8.21,2.66,10.22,13.06,4,19.02,5.31,2.96,7,9.36,5.08,15.03-2.31,6.84-9.99,8.37-16.27,8.37ZM71.52,125.17c5.41.18,14.53.95,14.53-6.83,0-5.95-5.63-6.62-10.28-6.62s-4.26-.54-4.26,3.84v9.61ZM77,105.63c3,0,4.59.77,6.42-2.2,1.27-2.06,1.35-5.21-.3-7.11-1.47-1.68-11.6-3.61-11.6-1.35v9.33c0,2.51,3.4,1.33,5.47,1.33Z"/>
      <path class="cls-1" d="M101.39,131.21c0-1.81-1.02-5.58,1.09-5.58s3.1.76,3.1-1.45v-18.59c0-3.07,1.78-10.53-1.85-10.53-3.81,0-3.89-.58-4.64,3.23-.62,3.18-2.48,2.1-5.49,2.1.07-3.67.13-7.34.2-11.01.02-1.25,5.73-.57,6.81-.57h24.69c-.13,3.67-.26,7.34-.39,11.01-.04,1.21-3.14.56-4.13.56-1.86,0-1.4-2.62-1.64-4.27-.27-1.9-6.35-1.52-6.35-.52v29.97c0,.36,3.91-.27,4.25.06.55.54,0,4.42,0,5.27,0,.67-2.82.31-3.38.31h-12.26Z"/>
      <path class="cls-1" d="M142.92,132.05c-18.37,0-23.25-26.59-12.46-38.76,5-5.66,13.84-6.62,20.65-4.14,5.52,2.01,3.7,4.56,3.2,9.84-.17,1.8-.24,1.45-2.08,1.45-2.62,0-2.91.58-3.24-2.07-.31-2.49.09-3.47-2.7-3.8-3.53-.41-7.05-.25-9.68,2.49-5.04,5.25-4.98,15.84-2.48,22.24,3.05,7.81,11.67,7.18,18.09,4.24.3,1.3,1.89,5.03,1.41,6.19-.82,1.98-8.92,2.31-10.71,2.31Z"/>
    </g>
  </g>
</svg>