<?xml version="1.0" encoding="UTF-8"?>
<svg id="Layer_2" data-name="Layer 2" xmlns="http://www.w3.org/2000/svg" viewBox="0 0 226.77 46.61">
  <defs>
    <style>
      .cls-1 {
        fill: #ed1c24;
        fill-rule: evenodd;
        stroke-width: 0px;
      }
    </style>
  </defs>
  <g id="Layer_1-2" data-name="Layer 1">
    <g>
      <path class="cls-1" d="M55.69,12.25l-18.84,10.98,9.95-15.95c-2.88-1.74-6.05-2.65-9.97-2.66-10.45-.01-18.98,8.2-18.94,18.65-.05,10.4,8.5,18.75,18.98,18.75,6.83,0,12.82-3.55,16.17-8.91l.89,2.74c-4.61,6.05-13.32,10.76-24.81,10.75C10.24,46.6,0,35.27,0,23.27,0,11.22,10.75,0,29.13,0c12.88,0,21.11,4.71,26.56,12.25"/>
      <path class="cls-1" d="M140.45,45.44V14.76c0-3.75-3.14-6.81-6.95-6.81-1.03,0-1.98.28-2.87.63l-11.01,5.15c-.51-3.27-3.36-5.77-6.82-5.77-1.03,0-1.94.24-2.84.58l-13.28,6.23h9.21v30.67h13.81v-27.25c-.01-1.89,1.54-3.42,3.46-3.42s3.44,1.54,3.44,3.42v27.25h13.85Z"/>
      <path class="cls-1" d="M93.26,16.35l8.22,29.11h-13.81l-1.8-6.43c-2.84,4.03-8.58,7.28-15.64,7.26-6.33.02-14.31-4.89-14.32-12.26.01-7.36,7.99-12.17,14.34-12.19,4.51.02,8.53,1.17,11.83,3.75l-3.08-10.86h-17.94l16.23-5.94c8.17-3.01,14.63,2.59,15.98,7.57M77.09,41.06c3.91,0,7.07-3.13,7.07-6.99s-3.17-6.99-7.07-6.99-7.09,3.12-7.09,6.99,3.18,6.99,7.09,6.99"/>
      <path class="cls-1" d="M145.04,27.27c0-10.67,8.75-19.32,19.55-19.32s19.56,8.66,19.56,19.32-8.76,19.31-19.56,19.31-19.55-8.63-19.55-19.31M169.18,43.68c2.32-.66,3.56-2.85,2.95-5.11l-6.87-24.86c-.6-2.2-2.83-3.52-5.19-2.86-2.22.61-3.54,2.83-2.89,5.1l6.89,24.85c.58,2.23,2.85,3.47,5.11,2.88"/>
      <path class="cls-1" d="M226.77,45.45h-13.87v-27.26c0-1.87-1.53-3.41-3.45-3.41s-3.46,1.53-3.46,3.41v27.26s-13.8,0-13.8,0V14.78h-9.21l13.27-6.24c.91-.35,1.82-.58,2.84-.58,3.46,0,6.32,2.49,6.83,5.77l11.01-5.15c.89-.34,1.85-.62,2.87-.62,3.82,0,6.96,3.04,6.96,6.8v30.69Z"/>
    </g>
  </g>
</svg>