<?xml version="1.0" encoding="UTF-8"?>
<svg id="Layer_2" data-name="Layer 2" xmlns="http://www.w3.org/2000/svg" xmlns:xlink="http://www.w3.org/1999/xlink" viewBox="0 0 352.86 131.92">
  <defs>
    <style>
      .cls-1 {
        fill: url(#linear-gradient);
        stroke-width: 0px;
      }
    </style>
    <linearGradient id="linear-gradient" x1="0" y1="65.96" x2="352.86" y2="65.96" gradientUnits="userSpaceOnUse">
      <stop offset=".02" stop-color="#f1cd76"/>
      <stop offset=".42" stop-color="#ffecb2"/>
      <stop offset=".71" stop-color="#d0a851"/>
      <stop offset="1" stop-color="#ffecb2"/>
    </linearGradient>
  </defs>
  <g id="CDM_GAAH_Primary__Landscape_Logo" data-name="CDM_GAAH_Primary_ Landscape_Logo">
    <g id="CDM_LANDSCAPE_LOCK_UP" data-name="CDM LANDSCAPE LOCK UP">
      <path id="CADBURY" class="cls-1" d="M351.34,64.15c-3.28-.55-4.79,2.98-10.26,10.69-5,7.04-15.14,18.84-19.49,16.44-4.41-2.43-1.38-11.74,1.61-18.28,1.83-4.02,2.96-8.36.74-8.8-2.31-.62-6.2,4.68-8.78,11.11-5.04,9.69-14.06,19.04-18.8,19.04-2.67,0-3.59-1.25-3.59-3.54,0-8.97,9.33-18.13,9.33-23.02,0-1.6-.67-2.88-1.99-2.88-2.39,0-4.68,3.62-10.38,3.62-1.84,0-3.62-.42-5.12-.94,1.33-5.02,1.27-9.62-2.77-9.62-3.32,0-5.73,2.73-5.73,7.57,0,2.48,1.24,4.55,3.02,6.08-3.62,11.17-11.49,22.32-17.89,21.25-2.69-.45-4.79-5-3.63-10.31,4.66-4.99,10.44-13.6,7.85-16.6-3.75-4.34-12.95,8.43-14.68,17.89-4.19,6.12-9.52,10.65-13.59,9.36-2.01-.63-2.7-2.37-2.62-4.65.26-7.36,4.13-11.76,6.94-15.71,2.05-2.88,4.5-7.28,2.11-8.5-1.91-.98-5.12.54-7.26,3.33-.07.09-.14.19-.21.28-3.81,4.21-10.41,7.92-17.5,10.14.11-.92.17-1.83.17-2.72,0-8.49-4.35-14.59-10.97-17.41,4.51-7.91,9.73-15.59,14.66-21.68,7.8-2.62,10.62-8.26,10.62-10.49,0-1.5-.71-2.56-2.21-2.56-3.37,0-9.77,5.39-14.73,10.46-3.52.54-7.04.76-10.98.76-16.79,0-26.78-7.49-32.35-7.49-2.56,0-3.71,1.86-3.71,3.62,0,3.54,3.89,9.02,3.89,20.06,0,4.12-.65,8.87-1.78,13.7-1.87-3.35-5.24-4.95-9.62-4.95-9.22,0-17.28,9.2-20.84,19.49-3.96,8.14-8.43,15.57-13.28,15.57-2.65,0-3.89-1.94-3.89-5.48,0-8.13,6.01-18.78,6.01-24.92,0-5.3-3.01-8.66-9.72-8.66-7.28,0-17.61,8.03-24.74,17.82-15.42,18.19-36.84,29.55-56.64,28.89-15.2-.35-26.34-10.78-26.34-26.16C12.02,40.23,46.09,4.77,83.74,4.77c12.21,0,20.38,6.34,20.55,19.42,0,24.04-26.09,41.14-43.41,41.14-7.95,0-12.8-4.98-12.8-12.57,0-12.9,12.55-23.49,27.05-28.79,1.59-.35,1.94-2.12-1.06-2.12-15.02.68-34.29,17.32-34.29,33.21,0,11.49,8.91,16.46,18.81,16.46,22.63,0,54.02-23.29,54.02-48.39,0-11.84-7.29-23.13-26.92-23.13C39.55,0,0,42.35,0,76.82c0,29.34,25.63,33.23,36.59,33.23,20.52,0,40.28-11.45,51.5-23.22-.68,2.26-1.06,4.48-1.06,6.56,0,5.83,3.01,9.72,8.48,9.72,6.54,0,14.49-6.54,20.15-14.14-.88,5.3,1.06,13.26,7.95,13.26,5.94,0,11.31-6.26,15.21-12.5,0,.02,0,.05,0,.07,0,6.28,3.98,12.02,10.52,12.02,18.38,0,30.67-30.4,30.67-54.8,0-3.98-.28-7.68-.92-10.93,8.25,2.25,17.06,3.06,24.52,3.06,2.89,0,5.56-.12,7.93-.34-3.75,4.56-7.74,10.75-11.34,17.43-.46-.02-.91-.06-1.38-.06-8.22,0-14.76,5.74-14.76,12.9,0,4.51,2.48,8.03,6.23,10.53-1.2,4.14-1.9,7.9-1.9,10.95,0,7.07,3.45,11.49,9.55,11.49,8.54,0,16.73-9.41,19.69-19.28,4.77-1.32,9.04-3.42,12.58-5.71-1.98,3.82-3.34,7.84-3.49,11.97-.15,4.26,1.53,10.47,7.65,10.68,4.79.17,10.74-2.36,16.38-9.25.84,4.73,3.54,7.27,7.18,7.97,10.83,2.06,19.93-10.53,24.59-24.8,1.4.56,2.85.86,4.18.86,1.58,0,3.08-.19,4.48-.52-3.59,5.52-6.66,13-6.67,18.64,0,6.34,3.66,8.15,7.97,8.07,7.44-.14,14.37-6.83,20.1-14.76-.01.3-.02.6-.03.9-.02,5.13,1.06,11.63,6.35,12.3,4.41.56,9.54-2.44,16.71-10.4,1.3-1.45,1.92-.9.91,1.03-5.53,10.59-14.43,26.63-14.64,35.96-.07,3.11,1.16,5.29,3.46,5.98,1.35.41,2.6.22,2.92-.52s-.11-2.02-.11-3.84c0-8.07,5.15-20.54,21.37-50.94,2.28-4.27,5.15-11.7,1.81-12.26ZM99.58,94.97c-2.13,0-3.71-1.21-3.71-4.04,0-9.02,15.73-31.11,23.51-31.11,2.3,0,3,1.24,3,3.54,0,9.19-15.03,31.62-22.8,31.62ZM150.97,95.91c-3.27,0-4.71-3.34-4.71-7.25,0-9.99,7.51-23.24,16.26-23.24,2.59,0,5.64,1.17,7.17,4.73-4.14,13.37-11.52,25.76-18.71,25.76ZM211.74,74.85c0,1.55-.21,3.23-.6,4.96-1.87.27-3.72.43-5.5.43-2.7,0-5.31-.39-7.63-1.14,1.72-5.11,4.24-10.73,7.22-16.37,3.95,2.4,6.51,6.74,6.51,12.12ZM189.47,69.28c0-4.42,3.56-8.6,8.24-8.6.07,0,.14,0,.2,0-2.42,4.87-4.56,9.85-6.2,14.53-1.41-1.61-2.25-3.59-2.25-5.94ZM198.75,96.5c-2.74,0-3.18-2.65-3.18-5.21s.49-5.42,1.35-8.61c3.33,1.02,6.99,1.54,10.58,1.54.79,0,1.57-.03,2.35-.08-2.42,6.49-6.82,12.37-11.1,12.37Z"/>
    </g>
  </g>
</svg>