<?xml version="1.0" encoding="UTF-8"?>
<svg id="Layer_2" data-name="Layer 2" xmlns="http://www.w3.org/2000/svg" viewBox="0 0 42.05 17.96">
  <defs>
    <style>
      .cls-1 {
        fill: #f58220;
      }

      .cls-1, .cls-2 {
        stroke-width: 0px;
      }

      .cls-2 {
        fill: #005baa;
      }
    </style>
  </defs>
  <g id="Layer_1-2" data-name="Layer 1">
    <g>
      <path class="cls-2" d="M1.1,14.78h.73l1.09,3.09h-.7l-.2-.64H.89l-.21.64h-.68l1.1-3.09ZM1.06,16.71h.79l-.39-1.22-.4,1.22Z"/>
      <path class="cls-2" d="M7.23,15.11c.09.13.14.29.14.47s-.05.34-.14.46c-.05.06-.13.12-.24.18.16.06.28.15.36.27.08.12.12.28.12.45s-.05.35-.14.49c-.06.1-.13.18-.22.24-.1.08-.22.13-.35.16-.13.03-.28.04-.44.04h-1.39v-3.09h1.49c.38,0,.64.12.8.33M5.55,15.32v.68h.75c.13,0,.24-.03.33-.08.08-.05.13-.14.13-.27,0-.14-.06-.24-.17-.29-.1-.03-.22-.05-.37-.05h-.67ZM5.55,16.51v.82h.75c.13,0,.24-.02.31-.05.14-.07.2-.2.2-.39,0-.16-.07-.27-.2-.33-.07-.03-.18-.05-.31-.05h-.76Z"/>
      <path class="cls-2" d="M9.11,14.78h.73l1.09,3.09h-.7l-.2-.64h-1.14l-.21.64h-.68l1.1-3.09ZM9.07,16.71h.79l-.39-1.22-.4,1.22Z"/>
      <polygon class="cls-2" points="11.52 14.78 12.19 14.78 13.42 16.94 13.42 14.78 14.02 14.78 14.02 17.88 13.38 17.88 12.12 15.68 12.12 17.88 11.52 17.88 11.52 14.78"/>
      <polygon class="cls-2" points="14.84 14.78 15.48 14.78 15.48 16.06 16.67 14.78 17.51 14.78 16.24 16.06 17.57 17.88 16.74 17.88 15.79 16.53 15.48 16.84 15.48 17.88 14.84 17.88 14.84 14.78"/>
      <polygon class="cls-2" points="21.78 14.78 21.78 15.33 20.85 15.33 20.85 17.88 20.2 17.88 20.2 15.33 19.27 15.33 19.27 14.78 21.78 14.78"/>
      <path class="cls-2" d="M24.74,17.6c-.23.24-.57.36-1.01.36s-.78-.12-1.01-.36c-.31-.29-.47-.72-.47-1.28s.16-.99.47-1.28c.23-.24.57-.36,1.01-.36s.78.12,1.01.36c.31.28.47.71.47,1.28s-.16.98-.47,1.28M24.34,17.13c.15-.19.23-.46.23-.81s-.08-.61-.23-.8c-.15-.19-.35-.28-.61-.28s-.46.09-.61.28c-.15.19-.23.46-.23.81s.08.62.23.81c.15.19.36.28.61.28s.46-.09.61-.28"/>
      <polygon class="cls-2" points="29.54 14.78 29.54 15.33 28.62 15.33 28.62 17.88 27.97 17.88 27.97 15.33 27.04 15.33 27.04 14.78 29.54 14.78"/>
      <path class="cls-2" d="M32.11,14.86c.11.05.21.12.29.22.07.08.12.17.16.26.04.09.06.2.06.33,0,.15-.04.29-.11.43-.07.14-.2.24-.37.3.14.06.24.14.3.24.06.11.09.27.09.48v.21c0,.14,0,.24.02.29.02.08.06.14.12.18v.08h-.71c-.02-.07-.03-.12-.04-.17-.02-.09-.03-.18-.03-.27v-.29c0-.2-.04-.33-.11-.39-.07-.07-.19-.1-.37-.1h-.63v1.21h-.63v-3.09h1.48c.21,0,.37.03.49.08M30.77,15.32v.83h.7c.14,0,.24-.02.31-.05.12-.06.18-.17.18-.35,0-.19-.06-.31-.18-.38-.07-.04-.17-.05-.3-.05h-.71Z"/>
      <path class="cls-2" d="M33.43,14.78h.66v1.9c0,.21.03.37.08.47.08.17.25.26.51.26s.43-.09.51-.26c.05-.1.08-.25.08-.47v-1.9h.66v1.9c0,.33-.05.58-.15.77-.19.34-.55.5-1.09.5s-.9-.17-1.09-.5c-.1-.18-.15-.44-.15-.77v-1.9Z"/>
      <path class="cls-2" d="M37.2,16.92c.02.14.06.25.12.32.11.13.29.19.55.19.16,0,.28-.02.38-.05.18-.06.28-.18.28-.36,0-.1-.05-.18-.14-.24-.09-.05-.23-.1-.43-.14l-.33-.07c-.33-.07-.55-.15-.68-.24-.21-.14-.31-.37-.31-.67,0-.28.1-.51.31-.69.2-.18.5-.27.9-.27.33,0,.61.09.84.26.23.17.36.42.37.75h-.62c-.01-.19-.09-.32-.25-.4-.1-.05-.23-.08-.39-.08-.17,0-.31.03-.41.1-.1.07-.15.16-.15.28,0,.11.05.19.15.25.06.04.2.08.41.13l.54.13c.24.06.42.13.53.22.18.15.28.36.28.63s-.11.52-.33.7c-.22.19-.53.28-.93.28s-.73-.09-.96-.28c-.23-.18-.35-.44-.35-.76h.62Z"/>
      <polygon class="cls-2" points="42.05 14.78 42.05 15.33 41.12 15.33 41.12 17.88 40.47 17.88 40.47 15.33 39.54 15.33 39.54 14.78 42.05 14.78"/>
      <path class="cls-2" d="M8.39,0h10.61v1.01h-8.09c-.56,0-1.01.45-1.01,1.01v8.05c0,.56.45,1,1.01,1h8.09v1.01h-10.61c-.84,0-1.52-.67-1.52-1.51V1.51C6.87.68,7.55,0,8.39,0"/>
      <path class="cls-2" d="M25.07,1.01c-.56,0-1.01.45-1.01,1.01v8.05c0,.56.45,1,1.01,1s1.01-.45,1.01-1V2.02c0-.56-.45-1.01-1.01-1.01M29.11,2v8.06c0,.05,0,.1.01.14h0v.02h0s0,.02,0,.02h0s0,.01,0,.01h0s0,.02,0,.02h0s0,.01,0,.01h0s0,.02,0,.02h0s0,.01,0,.01h0s0,.02,0,.02c0,.02,0,.03.01.04v.03s.02.03.02.03v.02s.01.02.02.03v.02s.02.01.02.01v.02s.01.01.01.01v.02c.04.05.07.1.1.14,0,0,.02.02.02.03.05.05.1.1.16.15.02.02.04.03.07.05h.02c.07.05.14.09.21.11.01,0,.02,0,.03.01.03,0,.27.03.27.03,1.14-.13,2.02-1.09,2.02-2.25s-.88-2.13-2.02-2.25v-1.05c1.14-.12,2.03-1.09,2.03-2.25,0-1.05-.72-1.94-1.69-2.19-.08-.03-.16-.05-.24-.06-.03,0-.06,0-.09,0-.55,0-1,.44-1.01.99M32.99,5.73c1.27.45,2.19,1.66,2.19,3.08,0,1.8-1.46,3.26-3.26,3.27h-11.9v-1.01c.56,0,1.01-.45,1.01-1V2.02c0-.56-.45-1.01-1.01-1.01V0h11.6s.04,0,.06,0c.71,0,1.36.26,1.87.67.64.5,1.12,1.28,1.12,2.33h0c0,.19-.01.35-.04.5-.16.97-.78,1.79-1.64,2.22"/>
      <path class="cls-1" d="M11.42,6.04c0-2.22,1.81-4.03,4.04-4.03s4.05,1.8,4.05,4.03-1.81,4.03-4.05,4.03-4.04-1.81-4.04-4.03M15.84,4.19c.63-.07,1.21-.32,1.68-.7-.47-.38-1.05-.63-1.68-.7v1.4ZM13.4,3.49c.47.38,1.05.63,1.68.7v-1.4c-.63.07-1.21.32-1.68.7M15.09,4.95c-.84-.08-1.6-.41-2.21-.92-.36.46-.6,1.02-.67,1.63h2.88v-.71ZM18.06,4.03c-.61.51-1.38.84-2.22.92v.71h2.89c-.07-.61-.31-1.17-.67-1.63M15.09,7.88c-.63.07-1.21.32-1.68.7.47.38,1.05.63,1.68.7v-1.4ZM17.52,8.59c-.47-.38-1.05-.63-1.68-.7v1.4c.63-.07,1.21-.32,1.68-.7M15.84,7.13c.84.08,1.6.41,2.22.92.36-.46.6-1.02.67-1.63h-2.89v.71ZM12.87,8.04c.61-.51,1.38-.84,2.21-.92v-.71h-2.88c.07.61.31,1.17.67,1.63"/>
    </g>
  </g>
</svg>