<?xml version="1.0" encoding="UTF-8"?>
<svg id="Layer_2" data-name="Layer 2" xmlns="http://www.w3.org/2000/svg" viewBox="0 0 56.69 11.65">
  <defs>
    <style>
      .cls-1 {
        fill: #ed1c24;
        fill-rule: evenodd;
        stroke-width: 0px;
      }
    </style>
  </defs>
  <g id="Layer_1-2" data-name="Layer 1">
    <g>
      <path class="cls-1" d="M13.92,3.06l-4.71,2.75,2.49-3.99c-.72-.44-1.51-.66-2.49-.67-2.61,0-4.75,2.05-4.73,4.66-.01,2.6,2.12,4.69,4.75,4.69,1.71,0,3.2-.89,4.04-2.23l.22.68c-1.15,1.51-3.33,2.69-6.2,2.69C2.56,11.65,0,8.82,0,5.82,0,2.81,2.69,0,7.28,0c3.22,0,5.28,1.18,6.64,3.06"/>
      <path class="cls-1" d="M35.11,11.36V3.69c0-.94-.78-1.7-1.74-1.7-.26,0-.49.07-.72.16l-2.75,1.29c-.13-.82-.84-1.44-1.71-1.44-.26,0-.48.06-.71.15l-3.32,1.56h2.3v7.67h3.45v-6.81c0-.47.38-.86.86-.86s.86.38.86.86v6.81h3.46Z"/>
      <path class="cls-1" d="M23.32,4.09l2.05,7.28h-3.45l-.45-1.61c-.71,1.01-2.14,1.82-3.91,1.82-1.58,0-3.58-1.22-3.58-3.07,0-1.84,2-3.04,3.59-3.05,1.13,0,2.13.29,2.96.94l-.77-2.72h-4.48l4.06-1.48c2.04-.75,3.66.65,4,1.89M19.27,10.27c.98,0,1.77-.78,1.77-1.75s-.79-1.75-1.77-1.75-1.77.78-1.77,1.75.79,1.75,1.77,1.75"/>
      <path class="cls-1" d="M36.26,6.82c0-2.67,2.19-4.83,4.89-4.83s4.89,2.16,4.89,4.83-2.19,4.83-4.89,4.83-4.89-2.16-4.89-4.83M42.3,10.92c.58-.16.89-.71.74-1.28l-1.72-6.21c-.15-.55-.71-.88-1.3-.72-.55.15-.88.71-.72,1.28l1.72,6.21c.14.56.71.87,1.28.72"/>
      <path class="cls-1" d="M56.69,11.36h-3.47v-6.81c0-.47-.38-.85-.86-.85s-.86.38-.86.85v6.81s-3.45,0-3.45,0V3.7h-2.3l3.32-1.56c.23-.09.46-.14.71-.14.86,0,1.58.62,1.71,1.44l2.75-1.29c.22-.08.46-.15.72-.15.96,0,1.74.76,1.74,1.7v7.67Z"/>
    </g>
  </g>
</svg>