<?xml version="1.0" encoding="UTF-8"?>
<svg id="Layer_2" data-name="Layer 2" xmlns="http://www.w3.org/2000/svg" viewBox="0 0 42.59 13.4">
  <defs>
    <style>
      .cls-1 {
        fill: #e1232c;
        stroke-width: 0px;
      }
    </style>
  </defs>
  <g id="Layer_1-2" data-name="Layer 1">
    <path class="cls-1" d="M18.46,13.4c-1.02-.72-2.26-1.03-3.39-.99-1.14.05-1.65.9-1.65.9-.52-.9-1.53-1.45-3.1-1.44-2.54.03-5.06,1.2-7.05,1.2S-.04,11.87,0,9.73C.08,5.97,3.24,2.59,5.61,1.07,6.97.19,8.1-.07,8.85.02c.54.06,1.2.69.79,1.62-.6,1.36-1.44,1.24-1.41.6.02-.42.29-.69.5-.83.14-.09.37-.12.49-.12.12-.1.21-.84-.76-.6-.98.25-2.14,1.2-3.26,2.44-1.12,1.24-2.85,3.58-3.28,6.04-.2,1.14-.07,3.22,2.63,3.19,2.28-.02,5.65-1.53,8.75-1.5,1.2.01,2.25.33,3.06.84.81.5,1.77,1.22,2.11,1.71M19.18,6.59h.47s-2.34,3.4-3.67,3.25c-.74-.09-.52-1-.52-1,0,0-1.04,1.22-1.99.98-.86-.22-.31-1.67-.31-1.67-.1.04-1.97,2.16-3.29,1.65-1.38-.53-.67-2.31-.4-2.84.22-.45.47-.89.47-.89,0,0-.21.06-.35.09-.13.03-.33.07-.33.07,0,0-.65,1.06-1.05,1.59-.4.53-2.09,2.35-3.09,1.99-1-.36-.75-1.76-.19-2.87.91-1.8,3.06-4.02,4.36-3.69,1.31.33.22,2.47.22,2.47,0,0,.26.03.89-.39.9-.62,2.09-2.27,3.37-2.08.6.09,1.17.71.4,1.89-.25.38-.66.72-.98.38-.2-.21-.03-.59.18-.85.29-.37.69-.32.69-.32,0,0,.21-.49-.33-.48-.44,0-1.55,1.03-2.17,2.06-.57.95-1.44,2.56-.57,2.92.8.32,2.32-1.49,3.03-2.44.71-.95,2.31-3.1,3.66-3.19.47-.03.74.39.74.39l.15-.25h1.35s-2.54,4.25-2.74,4.57c-.16.25-.36.82.21.5.57-.32,1.77-1.86,1.77-1.86M8.74,6.16s-.36-.11-.69-.32c-.33-.21-.48-.53-.49-.55-.01-.02-.03,0-.04.02-.01.02-.08.11-.56.82-.48.71-1.19,2.15-.53,2.4.43.16,1.14-.59,1.53-1.09.36-.46.79-1.17.8-1.21.02-.04,0-.05-.02-.06M9.27,3.9c-.35-.27-1.25.36-1.25,1,0,.66.81.84.91.85,0,0,.1.03.13-.05.02-.05.13-.26.26-.58.12-.33.28-.97-.05-1.21M16.13,7.44c.54-.75,2.04-3.36,2.04-3.36,0,0-.02-.18-.2-.19-.21-.01-.55.06-1.24.92-.69.87-1.22,1.55-1.61,2.27-.42.78-.61,1.33-.37,1.48.07.04.17.05.26.03.16-.04.37-.2.66-.53.13-.16.29-.36.46-.61M22.18,3.38h-1.28l-.72,1.17h1.28l.72-1.17ZM38.98,12.22c-.1,0-.19.04-.26.11-.07.07-.11.16-.11.26s.04.19.11.27c.07.07.16.11.26.11s.19-.04.26-.11c.07-.08.11-.16.11-.27s-.04-.19-.11-.26c-.07-.08-.16-.11-.26-.11M39.42,12.6c0,.12-.04.22-.13.31-.09.08-.19.13-.31.13s-.22-.04-.31-.13c-.08-.08-.12-.19-.12-.31s.04-.22.13-.31c.08-.08.18-.13.3-.13s.22.04.31.13c.09.08.13.19.13.31M39.09,12.5s-.01-.06-.03-.07c-.02-.01-.05-.02-.1-.02h-.08v.17h.08s.06,0,.08,0c.03-.01.05-.04.05-.08M38.8,12.36h.17c.06,0,.1,0,.13.02.06.02.08.06.08.12,0,.04-.01.07-.04.09-.02.01-.04.02-.07.03.04,0,.07.02.08.04.02.03.03.05.03.08v.03s0,.02,0,.04v.03h0s-.08,0-.08,0h0s0,0,0-.01h0v-.05c0-.05-.01-.09-.05-.11-.02,0-.05-.02-.09-.02h-.07v.19h-.08v-.48ZM41.05,1.28c-.94.61-2.25,1.16-3.51,1.04-.32.33-.66.71-1,1.13,2.18.43,4.09-.92,5.11-2.08.63-.72.95-1.37.95-1.37,0,0-.61.67-1.54,1.27M37.31,11.22c-.18.29-.39.85.21.5.73-.42,1.76-2,1.76-2h.47s-.62.98-1.42,1.87c-.74.82-1.64,1.56-2.27,1.49-.74-.09-.51-1.06-.51-1.06,0,0-1.06,1.13-1.79,1.05-.99-.11-.69-1.34-.69-1.34,0,0-1.12,1.38-1.88,1.34-1.2-.07-.9-1.53-.56-2.56.18-.55.34-.98.34-.98,0,0-.12.03-.38.07-.13.02-.37.03-.37.03,0,0-.5.88-.89,1.41-.4.53-2.09,2.35-3.09,1.99-.92-.34-.62-1.75-.08-2.88.78-1.63,2.98-3.99,4.25-3.68,1.31.32.03,2.73.03,2.73,0,0,0,0,.01.01.03,0,.09.02.25-.01.25-.05.48-.14.48-.14,0,0,1.32-2.78,2.78-4.6,1.46-1.82,4.37-4.95,5.52-4.19.28.18.15.82-.23,1.6-.17.05-.34.1-.51.13.25-.46.42-.84.47-1.11.17-.94-2.02,1.04-3.58,3.17-1.56,2.13-2.5,4.06-2.5,4.06,0,0,.31-.18.81-.58.51-.41,1.21-1.06,1.98-1.86.51-.54,1.12-1.21,1.69-1.96.17,0,.34-.03.5-.05-.63.85-1.3,1.63-1.86,2.21-.62.63-1.3,1.31-1.88,1.81-.93.78-1.65,1.23-1.65,1.23,0,0-1.37,2.76-.62,2.94.43.1,1.3-1.23,1.3-1.23,0,0,1.12-1.72,1.81-2.5.92-1.06,1.72-1.67,2.51-1.68.47,0,.74.49.74.49l.22-.34h1.34s-2.51,4.27-2.71,4.59M29.75,9.53s-.32-.14-.62-.39c-.3-.25-.45-.54-.46-.56-.01-.02-.02,0-.04.01-.02.02-.07.06-.55.77-.48.71-1.21,2.17-.55,2.41.42.16,1.13-.59,1.52-1.09.36-.46.7-1.05.71-1.09.02-.04,0-.05-.02-.06M30.43,8.34c.12-.33.28-.97-.05-1.21-.35-.27-1.25.36-1.25,1,0,.66.63.95.79.99.09.02.12.02.16-.05.03-.05.23-.4.36-.73M38.15,7.44s.04-.09.04-.09c0,0-.02-.18-.2-.19-.21,0-.49.03-1.24.86-.74.82-1.19,1.53-1.58,2.25-.42.78-.59,1.36-.35,1.51.07.04.17.05.25.03.17-.04.35-.2.64-.52.13-.16.28-.38.46-.62.49-.67,1.72-2.78,1.97-3.21M41.05,1.28c-.94.61-2.25,1.16-3.51,1.04-.32.33-.66.71-1,1.13,2.18.43,4.09-.92,5.11-2.08.63-.72.95-1.37.95-1.37,0,0-.61.67-1.54,1.27M34.92,2.86c-1.03-.53-1.79-1.18-2.57-1.58-.75-.39-1.23-.55-1.84-.47-.1.01-.25.06-.25.06,0,0,.31,1.07-.93,2.86-1.25,1.82-2.39,1.81-2.72,1.31-.34-.53.1-1.6.83-2.56.77-1,2.11-1.83,2.11-1.83,0,0-.43-.26-1.48.34-1.03.58-2.8,1.97-4.44,4.32-1.64,2.34-1.96,3.63-2.2,4.65-.24,1.01-.02,2.1,1.1,2.1s2.43-1.71,2.79-2.31c.69-1.11,1.13-2.81.2-2.58-.46.12-.83.63-1.07,1.12-.24.5-.34.98-.34.98,0,0-.39.14-.91.53-.52.39-.86.76-.86.76,0,0,0-.81.65-2.12.65-1.31,1.83-1.91,2.5-1.97.61-.05,1.39.46.72,2.36-.66,1.9-2.63,4.2-4.69,4.23-1.91.03-3.15-2.41-.5-6.66C23.96,1.69,27.4.25,28.52.09c1.12-.16,1.48.33,1.48.33,0,0,.94-.44,2.12-.36,1.36.09,2.42,1.06,3.81,1.74-.36.35-.71.72-1.02,1.06M29.84,1.02s-.8.32-1.73,1.35c-.93,1.03-1.47,2.18-1.07,2.49.16.12.51.13,1.15-.45.5-.45,1.01-1.04,1.36-1.89.42-1.02.28-1.48.28-1.49"/>
  </g>
</svg>