<?xml version="1.0" encoding="UTF-8"?>
<svg id="Layer_2" data-name="Layer 2" xmlns="http://www.w3.org/2000/svg" viewBox="0 0 28.35 6.26">
  <defs>
    <style>
      .cls-1 {
        fill: #f6d017;
      }

      .cls-1, .cls-2 {
        stroke-width: 0px;
      }

      .cls-2 {
        fill: #b9122b;
      }
    </style>
  </defs>
  <g id="Layer_1-2" data-name="Layer 1">
    <g>
      <rect class="cls-1" width="28.35" height="6.26"/>
      <path class="cls-2" d="M4.99,1.12l-.91,1.23h4.94c.25,0,.25.09.12.26-.12.17-.33.46-.46.63-.06.09-.18.24.2.24h2.02s.33-.44.6-.81c.37-.5.03-1.55-1.29-1.55h-5.22Z"/>
      <path class="cls-2" d="M3.71,5.13l1.82-2.47h2.26c.25,0,.25.09.12.26-.12.17-.33.46-.46.63-.06.09-.18.24.2.24h3.02c-.25.34-1.07,1.34-2.53,1.34H3.71Z"/>
      <polygon class="cls-2" points="14.13 3.79 13.14 5.13 10.54 5.13 11.53 3.79 14.13 3.79"/>
      <polygon class="cls-2" points="18.12 3.49 11.75 3.49 13.49 1.12 16.09 1.12 15.1 2.48 16.26 2.48 17.26 1.12 19.86 1.12 18.12 3.49"/>
      <polygon class="cls-2" points="17.89 3.79 16.91 5.13 14.31 5.13 15.29 3.79 17.89 3.79"/>
      <polygon class="cls-2" points="0 4.32 3.83 4.32 3.62 4.6 0 4.6 0 4.32"/>
      <polygon class="cls-2" points="0 3.79 4.22 3.79 4.01 4.08 0 4.08 0 3.79"/>
      <polygon class="cls-2" points="0 4.85 3.44 4.85 3.24 5.13 0 5.13 0 4.85"/>
      <polygon class="cls-2" points="28.35 4.6 24.53 4.6 24.74 4.32 28.35 4.32 28.35 4.6"/>
      <polygon class="cls-2" points="28.35 5.13 24.14 5.13 24.35 4.85 28.35 4.85 28.35 5.13"/>
      <polygon class="cls-2" points="25.13 3.79 28.35 3.79 28.35 4.08 24.92 4.08 25.13 3.79"/>
      <polygon class="cls-2" points="23.46 1.12 21.72 3.49 18.96 3.49 20.7 1.12 23.46 1.12"/>
      <path class="cls-2" d="M18.74,3.79s-.19.26-.28.38c-.33.44-.04.96,1.03.96h4.18l.99-1.34h-5.91Z"/>
    </g>
  </g>
</svg>