<?xml version="1.0" encoding="UTF-8"?>
<svg id="Layer_2" data-name="Layer 2" xmlns="http://www.w3.org/2000/svg" viewBox="0 0 697.84 164.95">
  <defs>
    <style>
      .cls-1 {
        fill: #005198;
        stroke-width: 0px;
      }
    </style>
  </defs>
  <g id="Layer_1-2" data-name="Layer 1">
    <g id="Ebene_1">
      <path id="path10" class="cls-1" d="M480.17,26.52l43.66,111.32h-18.85l-7.38-18.73h-38.07l-8.07,18.73h-28.81l-24.48-37.02v37.02h-18.39V36.47l33.87.04c11.41,0,29.54,8.57,29.37,31.18-.16,24.51-18.69,30.68-24.97,31.98,6.12,8.68,12.47,17.92,18.69,26.69l42.8-99.85h.63s0,0,0,0ZM398.18,81.96h15.08c9.39,0,11.31-7.52,11.31-14.26,0-7.24-2.94-12.81-11.15-12.81h-15.25s0,27.07,0,27.07h0ZM467.37,100.8h23.08l-11.05-28.09-12.04,28.09h0Z"/>
      <path id="path12" class="cls-1" d="M98.56,137.23l-26.16,27.73-22.16-81.65L0,27.63l72.56,7.58,54.14,36.82,22.95,35.74-83.15-56.74-26.86-3.47,76.87,83.6,6.71-20.58c9.1,9.1,22.75,13.43,35.52,9.1,11.05-3.47,20.8-14.73,22.99-25.99,2.58-13.21-1.95-25.56-12.14-34.22-7.57-6.71-17.76-9.97-28.18-7.37-7.14,1.95-13.86,5.41-19.25,11.26l-16.04-10.61c14.09-17.33,36.18-24.48,57.61-18.41,18.85,5.85,35.75,25.13,37.47,44.84,2.15,24.69-8.67,45.92-31.42,56.1-10.58,4.98-25.1,7.36-36.81,2.82l-9.06,26.85-25.37-27.73h0ZM78.39,135.44l8.73-11.28-16.74-18.56,8,29.83h0Z"/>
      <path id="path14" class="cls-1" d="M59.1,60.73c0-2.84,2.28-5.13,5.09-5.13s5.09,2.3,5.09,5.13-2.28,5.13-5.09,5.13c-2.81,0-5.09-2.3-5.09-5.13Z"/>
      <polygon id="polygon16" class="cls-1" points="545.82 150.4 485.17 0 504.42 .02 545.93 102.96 573.11 36.47 592.63 36.47 545.82 150.4"/>
      <polygon id="polygon18" class="cls-1" points="619.78 137.84 601.59 137.84 601.59 36.47 619.78 36.47 619.78 137.84"/>
      <polygon id="polygon20" class="cls-1" points="697.84 54.88 672.5 54.88 672.5 137.84 654.41 137.84 654.41 54.88 629.4 54.88 629.4 36.47 697.84 36.47 697.84 54.88"/>
      <path id="path22" class="cls-1" d="M314.17,84.8c0,15.98-2.15,34.39,17.63,34.39,19.28,0,17.4-18.18,17.4-34.42v-48.3h18.16v64.4c0,13.53-9.53,36.96-35.56,36.96-25.96,0-35.79-23.44-35.79-36.96V36.47s18.16,0,18.16,0c0,0,0,45.74,0,48.34h0Z"/>
      <path id="path24" class="cls-1" d="M241.94,119.39c-3.64.68-7.81.66-11.01.67V54.52c3.24,0,7.34.01,11.05.69,21.1,3.86,26.53,22.17,26.56,32.86.03,10.59-5.49,27.45-26.59,31.31h0ZM230.13,36.47c-7.61,0-14.16,0-18.13,0v101.36c5.89,0,10.22,0,16.8,0,29.04,0,57.25-15.48,57.25-50.75,0-30.08-18.55-50.62-55.93-50.62h0Z"/>
    </g>
  </g>
</svg>