<?xml version="1.0" encoding="UTF-8"?>
<svg id="Layer_2" data-name="Layer 2" xmlns="http://www.w3.org/2000/svg" viewBox="0 0 37.55 23.16">
  <defs>
    <style>
      .cls-1, .cls-2, .cls-3, .cls-4, .cls-5, .cls-6, .cls-7, .cls-8, .cls-9, .cls-10 {
        stroke-width: 0px;
      }

      .cls-1, .cls-3, .cls-7, .cls-8 {
        fill-rule: evenodd;
      }

      .cls-1, .cls-4 {
        fill: #641b00;
      }

      .cls-2 {
        fill: #8bc53f;
      }

      .cls-3, .cls-10 {
        fill: #007136;
      }

      .cls-5 {
        fill: #f48120;
      }

      .cls-6, .cls-8 {
        fill: #fff100;
      }

      .cls-7, .cls-9 {
        fill: #fff;
      }
    </style>
  </defs>
  <g id="Layer_1-2" data-name="Layer 1">
    <g>
      <g>
        <path class="cls-2" d="M28.59,7.44c0-.72-1.03-1.99-1.75-1.99H1.31c-.72,0-1.31.59-1.31,1.31v15.06c0,.72.59,1.31,1.31,1.31h25.74c.72,0,1.31-.48,1.31-1.2l.39-4.27,4.05-.34-2.06-4.17-1.34-2.62,1.21-2.71-.21-.75-1.81.38h0Z"/>
        <path class="cls-3" d="M2.08,20.13c.16,0,.27-.03.34-.07.12-.06.17-.19.18-.37v-2.97c0-.18-.06-.3-.16-.36-.06-.04-.18-.06-.35-.07v-.16h1.82c.35,0,.64.04.87.12.44.16.66.45.66.86,0,.25-.09.46-.27.61-.18.15-.37.24-.57.28v.06c.22.05.41.12.57.22.32.2.47.49.47.85,0,.34-.15.62-.45.83-.3.21-.7.32-1.2.32h-1.89v-.16h0ZM4.27,17.81c.12-.13.19-.34.19-.66,0-.23-.04-.43-.13-.59-.08-.16-.24-.24-.47-.24-.12,0-.21.02-.25.07-.05.04-.07.12-.07.23v1.38c.36,0,.61-.06.73-.19h0ZM3.58,19.95c.05.09.14.13.28.13.28,0,.47-.08.59-.24.11-.16.17-.38.17-.68,0-.44-.12-.73-.37-.87-.15-.09-.38-.13-.7-.12v1.54c0,.11.02.19.05.24h0Z"/>
        <path class="cls-3" d="M7.91,18.83l-.56-1.42h-.05l-.53,1.42h1.14ZM5.7,20.13c.14-.01.26-.08.34-.2.06-.08.14-.25.24-.52l1.31-3.36h.16l1.31,3.23c.15.36.26.6.33.7.07.1.18.15.31.15v.16h-1.91v-.16c.19,0,.32-.03.38-.05.06-.03.09-.09.09-.2,0-.05-.01-.12-.05-.22-.02-.06-.04-.13-.08-.21l-.15-.37h-1.32c-.09.25-.14.4-.17.48-.05.16-.08.27-.08.35,0,.09.06.15.17.19.07.02.17.03.3.04v.16h-1.2v-.16h0Z"/>
        <path class="cls-10" d="M9.95,20.13c.22,0,.36-.05.42-.13.06-.08.09-.2.09-.36v-2.91c-.18-.21-.29-.33-.33-.37-.04-.04-.1-.06-.17-.07v-.16h1.25l2.02,2.59h.03v-1.83c0-.21-.04-.36-.11-.44-.07-.09-.22-.14-.44-.16v-.16h1.27v.16c-.19.03-.31.07-.37.13-.06.05-.09.17-.09.36v3.62h-.16l-2.59-3.29h-.04v2.41c0,.19.02.32.07.4.08.13.24.19.48.2v.16h-1.33v-.16h0Z"/>
        <path class="cls-10" d="M14.25,20.13c.16,0,.27-.03.34-.07.11-.06.17-.19.17-.37v-2.97c0-.18-.05-.3-.16-.36-.06-.04-.18-.06-.35-.07v-.16h1.99v.16c-.2.02-.34.06-.41.12-.07.06-.11.21-.11.44v1.31l1.27-1.34c.09-.09.14-.16.17-.19.03-.04.04-.09.04-.14,0-.08-.03-.13-.1-.15-.07-.02-.2-.04-.39-.05v-.16h1.7v.16c-.3.03-.56.12-.76.27-.2.16-.58.53-1.14,1.13l1.8,2.32c.04.05.08.08.11.1.04.01.1.02.18.03v.16h-1.98v-.16c.18,0,.3-.01.37-.02.07-.01.1-.05.1-.1,0-.03-.01-.06-.03-.1-.02-.04-.06-.1-.11-.17l-1.07-1.39-.15.15v1.2c0,.18.06.3.17.36.07.04.18.06.34.07v.16h-1.98v-.16h0Z"/>
        <path class="cls-10" d="M2.04,10.74v-.1c.09,0,.16-.02.2-.05.06-.04.09-.12.09-.23v-1.92c0-.12-.03-.19-.09-.23-.03-.03-.1-.04-.19-.05v-.1h1.85v.8h-.08c-.04-.26-.11-.43-.21-.52-.1-.09-.28-.14-.53-.14-.1,0-.16.01-.19.04-.03.02-.04.07-.04.15v.92c.18,0,.31-.04.37-.12.06-.08.11-.24.15-.46h.08v1.34h-.08c-.02-.23-.07-.39-.14-.48-.07-.09-.2-.14-.38-.14v.96c0,.08.02.14.05.17.04.03.11.05.22.05.2,0,.37-.05.5-.15.13-.1.24-.28.34-.55h.09l-.13.82h-1.87Z"/>
        <path class="cls-10" d="M4.55,8.43c.21-.28.49-.42.82-.42.13,0,.27.03.4.09.13.06.21.09.25.09s.06-.02.08-.04c.02-.03.04-.08.05-.14h.09v.93h-.08c-.08-.2-.16-.36-.24-.48-.15-.21-.32-.32-.51-.32-.21,0-.36.11-.45.33-.1.22-.14.53-.14.94,0,.33.04.63.13.88.09.26.26.39.51.39.14,0,.23-.03.28-.11.03-.04.04-.1.04-.18v-.42c0-.12-.03-.2-.09-.24-.04-.02-.12-.04-.23-.04v-.1h1.1v.1c-.11,0-.18.03-.22.08-.03.05-.05.14-.05.28v.5c-.07.05-.19.11-.34.16-.16.05-.34.08-.53.08-.36,0-.64-.14-.85-.42-.2-.26-.3-.58-.3-.98s.1-.73.31-1h0Z"/>
        <path class="cls-10" d="M7.74,8.06v.1c-.11,0-.18.02-.21.03-.03.01-.05.04-.05.08,0,.02,0,.04,0,.06,0,.02.02.06.04.11l.4.95h.03l.34-.7s.04-.1.07-.16c.04-.09.05-.17.05-.21,0-.07-.02-.12-.07-.14-.03-.02-.1-.03-.2-.04v-.1h.7v.1c-.05.01-.09.02-.12.04-.04.02-.07.06-.1.11l-.61,1.23v.73c0,.15.02.25.06.29.04.04.12.07.24.07v.1h-1.12v-.1c.12,0,.2-.03.24-.08.04-.05.06-.14.06-.29v-.58l-.58-1.32c-.04-.09-.09-.15-.14-.18-.04-.02-.08-.03-.11-.03v-.1h1.07Z"/>
        <path class="cls-3" d="M10.16,9.32c.1-.08.15-.25.15-.52,0-.18-.02-.33-.07-.44-.05-.11-.14-.17-.28-.17-.06,0-.11.01-.14.03-.03.02-.04.05-.04.11v1.07c.19,0,.32-.03.38-.08h0ZM8.99,10.64c.11,0,.18-.04.21-.08.04-.05.05-.14.05-.28v-1.75c0-.15-.02-.24-.05-.28-.04-.04-.11-.07-.21-.08v-.1h1.03c.27,0,.48.06.62.17.14.11.22.3.22.56,0,.13-.03.25-.09.37-.05.11-.15.21-.28.27-.1.05-.19.08-.29.09-.1.01-.24.02-.43.02v.74c0,.15.02.24.06.29.04.04.11.07.22.08v.1h-1.07v-.1h0Z"/>
        <path class="cls-10" d="M10.98,8.06h1.93v.8s-.09,0-.09,0c-.03-.28-.12-.48-.26-.58-.08-.05-.2-.09-.36-.09v2.09c0,.15.02.24.06.29.04.05.13.07.26.07v.1h-1.14v-.1c.13,0,.21-.02.25-.07.04-.05.06-.15.06-.29v-2.09c-.16,0-.28.04-.36.09-.15.1-.24.3-.26.58h-.09v-.8h0Z"/>
        <path class="cls-10" d="M13.09,10.64c.09,0,.16-.02.2-.04.06-.04.1-.12.1-.24v-1.92c0-.12-.03-.2-.09-.24-.04-.02-.11-.04-.2-.04v-.1h1.12v.1c-.1,0-.17.02-.21.04-.06.04-.09.12-.09.24v1.92c0,.11.03.19.08.22.05.04.13.06.23.06v.1h-1.12v-.1h0Z"/>
        <path class="cls-3" d="M15.54,9.81l-.31-.92h-.03l-.29.92h.62ZM14.34,10.64c.08,0,.14-.05.19-.13.03-.05.07-.16.13-.33l.71-2.17h.09l.72,2.08c.08.23.14.38.18.45.04.07.1.1.17.1v.1h-1.04v-.1c.1,0,.17-.02.2-.03.03-.02.05-.06.05-.13,0-.03,0-.08-.03-.14,0-.04-.02-.08-.04-.13l-.08-.24h-.72c-.05.16-.08.26-.09.31-.03.1-.04.18-.04.22,0,.06.03.1.09.12.04.02.09.02.16.02v.1h-.66v-.1h0Z"/>
        <path class="cls-10" d="M16.65,10.64c.12,0,.2-.03.23-.08.03-.05.05-.13.05-.23v-1.88c-.1-.14-.16-.21-.18-.24-.03-.03-.05-.04-.1-.05v-.1h.68l1.1,1.67h.02v-1.18c0-.13-.02-.23-.06-.29-.04-.06-.12-.09-.24-.1v-.1h.69v.1c-.1.02-.17.05-.2.08-.03.03-.05.11-.05.23v2.34h-.09l-1.41-2.12h-.02v1.56c0,.12.01.21.04.26.04.08.13.13.26.13v.1h-.73v-.1h0Z"/>
        <path class="cls-10" d="M2.08,15.54c.2,0,.34-.03.43-.08.13-.07.19-.2.19-.39v-3.22c0-.19-.06-.32-.19-.39-.08-.04-.22-.07-.43-.08v-.17h3.95v1.34h-.17c-.09-.41-.23-.7-.43-.87-.2-.17-.58-.25-1.13-.25-.2,0-.33.02-.39.07-.05.04-.08.13-.08.25v1.54c.37,0,.63-.07.76-.23.13-.16.23-.41.3-.76h.18v2.25h-.18c-.05-.36-.14-.62-.29-.79-.14-.17-.4-.25-.77-.25v1.55c0,.2.06.34.18.39.13.05.32.08.58.08v.17h-2.51v-.17h0Z"/>
        <path class="cls-3" d="M10.42,14.73c.15-.32.22-.74.22-1.25,0-.71-.16-1.24-.48-1.6-.31-.36-.74-.54-1.28-.54-.75,0-1.26.3-1.54.9-.14.32-.22.73-.22,1.24s.07.94.22,1.25c.28.59.79.89,1.54.89s1.26-.3,1.53-.89h0ZM10.89,11.76c.55.44.83,1.01.83,1.71s-.28,1.27-.83,1.71c-.53.43-1.2.65-2.01.65-.85,0-1.55-.24-2.09-.71-.5-.45-.75-.99-.75-1.62,0-.7.26-1.27.79-1.72.53-.45,1.21-.68,2.05-.68s1.48.22,2.01.65h0Z"/>
        <path class="cls-3" d="M14.06,15.54c.17-.01.3-.03.38-.07.14-.07.2-.19.2-.37v-3.28c0-.17-.06-.29-.19-.36-.07-.04-.2-.07-.39-.08v-.17h2.13c.86,0,1.51.22,1.96.66.41.4.62.93.62,1.61,0,.6-.21,1.11-.62,1.53-.47.47-1.09.7-1.89.7h-2.2v-.17h0ZM15.84,15.39c.05.06.15.09.3.09.41,0,.75-.14,1.01-.42.27-.28.4-.81.4-1.61,0-.47-.07-.88-.22-1.21-.23-.54-.62-.82-1.17-.82-.18,0-.3.04-.35.11-.04.05-.06.14-.06.28v3.27c0,.14.04.24.08.3h0Z"/>
        <path class="cls-3" d="M13.02,14.73c.15-.32.22-.74.22-1.25,0-.71-.16-1.24-.48-1.6-.31-.36-.74-.54-1.28-.54-.75,0-1.26.3-1.54.9-.14.32-.22.73-.22,1.24s.07.94.22,1.25c.28.59.79.89,1.54.89s1.25-.3,1.53-.89h0ZM13.5,11.76c.55.44.82,1.01.82,1.71s-.27,1.27-.82,1.71c-.54.43-1.2.65-2.01.65-.85,0-1.55-.24-2.09-.71-.5-.45-.75-.99-.75-1.62,0-.7.26-1.27.79-1.72.53-.45,1.22-.68,2.05-.68s1.48.22,2.01.65h0Z"/>
        <path class="cls-7" d="M2.23,20.05c.16,0,.27-.03.34-.07.12-.06.17-.19.17-.37v-2.97c0-.18-.05-.3-.16-.36-.07-.04-.18-.06-.36-.07v-.16h1.82c.35,0,.64.04.87.13.44.16.66.45.66.86,0,.25-.09.46-.27.61-.18.15-.37.24-.58.28v.06c.22.04.41.12.57.22.31.21.47.49.47.85,0,.34-.15.62-.45.83-.3.21-.7.31-1.2.31h-1.9v-.16h0ZM4.42,17.74c.12-.12.19-.34.19-.66,0-.23-.04-.43-.12-.59-.08-.16-.24-.24-.47-.24-.12,0-.21.02-.26.07-.05.04-.07.12-.07.23v1.38c.37,0,.61-.06.73-.19h0ZM3.73,19.88c.05.09.14.13.28.13.28,0,.47-.08.58-.24.11-.16.17-.38.17-.67,0-.44-.13-.73-.37-.87-.15-.09-.39-.13-.71-.12v1.54c0,.11.02.19.05.24h0Z"/>
        <path class="cls-7" d="M8.06,18.76l-.56-1.42h-.05l-.53,1.42h1.14ZM5.86,20.05c.14,0,.25-.08.34-.2.06-.08.14-.25.24-.52l1.31-3.36h.16l1.31,3.23c.15.36.26.59.33.7.07.1.18.15.31.15v.16h-1.91v-.16c.19,0,.32-.02.38-.05.06-.03.09-.09.09-.2,0-.05-.01-.12-.04-.22-.02-.06-.05-.13-.08-.21l-.15-.37h-1.32c-.09.25-.14.4-.17.48-.05.16-.08.27-.08.34,0,.09.06.15.17.19.07.02.17.03.3.03v.16h-1.2v-.16h0Z"/>
        <path class="cls-9" d="M10.1,20.05c.22,0,.36-.05.42-.13.06-.08.09-.2.09-.36v-2.91c-.18-.21-.29-.33-.33-.37-.04-.04-.1-.06-.17-.07v-.16h1.25l2.02,2.59h.03v-1.83c0-.21-.04-.36-.11-.44-.07-.09-.22-.14-.44-.16v-.16h1.27v.16c-.18.03-.31.07-.37.13-.06.05-.09.18-.09.36v3.62h-.16l-2.59-3.28h-.04v2.41c0,.19.02.32.07.4.08.13.24.19.48.2v.16h-1.33v-.16h0Z"/>
        <path class="cls-9" d="M14.4,20.05c.16,0,.27-.03.34-.07.11-.06.17-.19.17-.37v-2.97c0-.18-.05-.3-.15-.36-.06-.04-.18-.06-.35-.07v-.16h1.99v.16c-.2.02-.34.06-.41.12-.07.06-.11.21-.11.44v1.31l1.27-1.34c.09-.09.14-.16.17-.2.03-.04.04-.09.04-.14,0-.08-.03-.13-.1-.15-.07-.02-.2-.04-.4-.05v-.16h1.71v.16c-.3.02-.56.11-.76.27-.2.15-.58.53-1.14,1.13l1.8,2.32s.07.08.11.1c.04.01.1.02.18.03v.16h-1.98v-.16c.18,0,.3,0,.36-.02.07-.01.1-.05.1-.1,0-.03-.01-.06-.03-.1-.02-.04-.06-.1-.11-.17l-1.07-1.4-.15.16v1.2c0,.18.06.3.17.36.06.04.18.06.34.07v.16h-1.98v-.16h0Z"/>
        <path class="cls-9" d="M2.19,10.67v-.1c.09,0,.16-.02.2-.05.06-.04.09-.12.09-.23v-1.92c0-.12-.03-.19-.09-.23-.04-.02-.1-.04-.19-.05v-.1h1.85v.8h-.08c-.04-.26-.11-.43-.21-.52-.1-.09-.27-.14-.53-.14-.1,0-.16.01-.19.04-.03.02-.04.07-.04.15v.92c.18,0,.31-.04.37-.12.06-.08.11-.24.15-.46h.08v1.34h-.08c-.02-.23-.07-.38-.14-.48-.07-.09-.2-.14-.38-.14v.96c0,.08.02.14.05.17.04.03.11.04.22.04.2,0,.37-.05.5-.15.13-.1.24-.28.34-.55h.09l-.13.82h-1.87Z"/>
        <path class="cls-9" d="M4.7,8.36c.21-.28.49-.42.82-.42.13,0,.26.03.4.09.13.06.22.09.25.09.03,0,.06-.02.08-.04.02-.03.04-.08.05-.14h.09v.93h-.08c-.08-.2-.16-.36-.24-.48-.15-.21-.32-.32-.51-.32-.21,0-.36.11-.45.33-.1.22-.14.54-.14.94,0,.33.04.63.13.89.09.26.26.39.51.39.14,0,.23-.04.28-.11.03-.04.04-.1.04-.18v-.42c0-.12-.03-.2-.09-.24-.04-.02-.12-.03-.23-.04v-.1h1.1v.1c-.11,0-.18.03-.22.08-.03.05-.05.14-.05.28v.51c-.07.05-.19.11-.34.16-.16.05-.34.08-.54.08-.35,0-.64-.14-.85-.42-.2-.26-.3-.59-.3-.98s.1-.73.31-1h0Z"/>
        <path class="cls-9" d="M7.89,7.99v.1c-.11,0-.18.02-.21.03-.03.01-.05.04-.05.08,0,.02,0,.04,0,.06,0,.02.02.06.04.11l.4.95h.03l.34-.7s.04-.09.07-.16c.04-.09.05-.16.06-.21,0-.07-.02-.12-.07-.14-.03-.02-.1-.03-.2-.04v-.1h.7v.1c-.05.01-.09.03-.12.04-.04.02-.07.06-.1.11l-.61,1.23v.73c0,.15.02.25.06.29.04.04.12.07.24.07v.1h-1.11v-.1c.12,0,.2-.03.24-.07.04-.05.06-.14.06-.29v-.58l-.58-1.32c-.04-.09-.09-.15-.14-.18-.04-.02-.07-.03-.11-.04v-.1h1.07Z"/>
        <path class="cls-7" d="M10.31,9.25c.1-.08.15-.25.15-.52,0-.18-.03-.33-.07-.44-.05-.11-.14-.17-.28-.17-.06,0-.11,0-.14.03-.03.02-.04.05-.04.11v1.07c.19,0,.32-.03.38-.08h0ZM9.14,10.57c.11,0,.18-.04.21-.08.04-.05.05-.14.05-.28v-1.75c0-.15-.02-.24-.05-.28-.04-.04-.11-.07-.21-.08v-.1h1.03c.27,0,.48.05.62.16.14.11.21.3.21.57,0,.13-.03.25-.08.37-.06.11-.15.2-.28.27-.1.05-.19.08-.29.09-.1,0-.24.01-.43.01v.74c0,.15.02.24.06.29.04.04.12.07.22.07v.1h-1.07v-.1h0Z"/>
        <path class="cls-9" d="M11.13,7.99h1.93v.8s-.09,0-.09,0c-.03-.28-.12-.48-.26-.58-.08-.06-.2-.09-.36-.09v2.09c0,.15.02.24.06.29.04.05.13.07.26.07v.1h-1.15v-.1c.13,0,.21-.02.25-.07.04-.05.06-.15.06-.29v-2.09c-.16,0-.27.04-.36.09-.15.1-.24.3-.26.58h-.09v-.8h0Z"/>
        <path class="cls-9" d="M13.24,10.57c.09,0,.15-.02.2-.04.06-.04.1-.12.1-.24v-1.92c0-.12-.03-.2-.09-.23-.04-.03-.1-.04-.2-.05v-.1h1.12v.1c-.1,0-.17.02-.21.04-.06.04-.09.12-.09.24v1.92c0,.11.02.19.07.22.05.04.13.05.23.05v.1h-1.12v-.1h0Z"/>
        <path class="cls-7" d="M15.69,9.74l-.31-.92h-.03l-.29.92h.62ZM14.49,10.57c.08,0,.14-.05.19-.13.03-.05.08-.16.13-.33l.71-2.17h.09l.72,2.09c.08.23.14.38.18.45.04.07.1.1.17.1v.1h-1.04v-.1c.1,0,.17-.02.2-.03.03-.02.05-.06.05-.13,0-.03,0-.08-.02-.14,0-.04-.02-.08-.04-.14l-.08-.24h-.72c-.05.16-.08.26-.09.31-.03.1-.04.18-.04.22,0,.06.03.1.09.13.04.01.09.02.16.02v.1h-.65v-.1h0Z"/>
        <path class="cls-9" d="M16.8,10.57c.12,0,.19-.03.23-.08.03-.05.05-.13.05-.23v-1.88c-.1-.14-.16-.21-.18-.24-.02-.02-.05-.04-.09-.05v-.1h.68l1.1,1.67h.01v-1.18c0-.13-.02-.23-.06-.29-.04-.06-.12-.09-.24-.1v-.1h.69v.1c-.1.02-.17.05-.2.08-.03.04-.05.11-.05.23v2.34h-.09l-1.41-2.12h-.02v1.56c0,.12.01.21.04.26.04.08.13.13.26.13v.1h-.72v-.1h0Z"/>
        <path class="cls-9" d="M2.23,15.47c.2,0,.34-.03.43-.08.13-.07.19-.2.19-.39v-3.22c0-.19-.06-.32-.19-.39-.08-.04-.22-.07-.43-.08v-.17h3.95v1.34h-.17c-.09-.41-.23-.7-.44-.87-.21-.17-.58-.25-1.13-.25-.2,0-.33.02-.39.07-.05.04-.08.13-.08.25v1.54c.38,0,.63-.07.76-.23.13-.16.24-.41.3-.76h.18v2.25h-.18c-.05-.36-.14-.62-.29-.79-.14-.16-.4-.25-.77-.25v1.55c0,.21.06.34.19.39.13.05.32.08.58.07v.17h-2.51v-.17h0Z"/>
        <path class="cls-7" d="M10.57,14.66c.15-.32.22-.74.22-1.25,0-.71-.16-1.24-.48-1.6-.31-.36-.74-.54-1.28-.54-.75,0-1.26.3-1.54.9-.15.32-.22.73-.22,1.24s.07.94.22,1.25c.28.59.79.89,1.54.89s1.26-.3,1.53-.89h0ZM11.05,11.69c.55.44.82,1.02.82,1.72s-.28,1.27-.82,1.72c-.54.43-1.21.65-2.01.65-.85,0-1.55-.24-2.09-.71-.5-.45-.75-.98-.75-1.62,0-.7.26-1.27.79-1.72.53-.46,1.22-.68,2.05-.68s1.48.22,2.01.65h0Z"/>
        <path class="cls-7" d="M14.21,15.47c.17,0,.3-.03.38-.07.14-.07.2-.19.2-.37v-3.28c0-.17-.06-.29-.19-.36-.08-.04-.2-.07-.39-.08v-.17h2.13c.86,0,1.51.22,1.96.66.41.4.61.93.61,1.6,0,.6-.21,1.11-.62,1.53-.47.47-1.1.7-1.89.7h-2.2v-.17h0ZM15.99,15.32c.05.06.15.09.3.09.41,0,.75-.14,1.02-.42.26-.28.4-.81.4-1.6,0-.47-.07-.87-.22-1.21-.23-.54-.62-.82-1.17-.82-.18,0-.3.04-.35.11-.04.05-.05.14-.05.28v3.27c0,.14.03.24.08.3h0Z"/>
        <path class="cls-7" d="M13.17,14.66c.15-.32.22-.74.22-1.25,0-.71-.16-1.24-.47-1.6-.32-.36-.74-.54-1.28-.54-.75,0-1.26.3-1.54.9-.15.32-.22.73-.22,1.24s.07.94.22,1.25c.28.59.79.89,1.54.89s1.25-.3,1.53-.89h0ZM13.65,11.69c.55.44.82,1.02.82,1.72s-.28,1.27-.82,1.72c-.54.43-1.21.65-2.01.65-.85,0-1.55-.24-2.09-.71-.5-.45-.75-.98-.75-1.62,0-.7.26-1.27.79-1.72.53-.46,1.21-.68,2.05-.68s1.48.22,2.01.65h0Z"/>
      </g>
      <path class="cls-4" d="M21.9,12.18c-.21.44-.48,1.17-.01,1.31-.04-.18,0-.29,0-.49.15.18.02.41.17.55.4-.61,0-.93-.14-1.36"/>
      <path class="cls-4" d="M22.05,13.7s-.08-.01-.11-.04c0,0-.01-.01-.02-.02-.02,0-.05,0-.08,0-.15-.04-.26-.14-.32-.27-.12-.26-.04-.69.23-1.26.03-.06.09-.1.16-.09.07,0,.12.05.14.11.03.1.08.19.13.29.15.3.35.68,0,1.21-.02.04-.07.06-.12.07,0,0-.01,0-.02,0M21.88,12.83s.09.02.12.06c.02.02.03.04.05.07-.02-.12-.08-.24-.14-.37-.03.09-.06.18-.08.26.02,0,.03,0,.05,0"/>
      <path class="cls-4" d="M21.06,11.94c-.04.41-.04,1.07.36,1.04-.08-.13-.09-.23-.15-.39.17.1.13.32.29.39.14-.6-.27-.74-.5-1.04"/>
      <path class="cls-4" d="M21.4,13.15c-.13,0-.24-.05-.32-.15-.17-.18-.23-.55-.18-1.08,0-.07.05-.12.12-.14.06-.02.13,0,.17.06.05.07.12.13.18.19.22.2.48.45.35.99,0,.05-.04.09-.08.11-.04.02-.09.02-.14,0,0,0,0,0-.01,0-.02,0-.04.01-.06.02,0,0-.03,0-.03,0M21.2,12.32s0,.08,0,.12c.03-.01.07-.02.1,0-.03-.04-.07-.08-.11-.12"/>
      <path class="cls-4" d="M21.22,13.04c-.07.45-.04,1.05.44,1.07-.11-.1-.12-.25-.17-.38.14.12.21.43.4.4.02-.5-.31-.8-.68-1.09"/>
      <path class="cls-4" d="M21.87,14.3c-.05,0-.1-.01-.14-.03-.02,0-.04.01-.07.01-.18-.01-.33-.08-.44-.21-.22-.27-.21-.72-.16-1.04.01-.06.05-.1.1-.13.05-.02.12-.01.16.02.39.31.76.65.74,1.23,0,.08-.06.14-.14.15,0,0-.04,0-.05,0M21.35,13.36c0,.1,0,.19.02.26,0,0,.01-.02.03-.02.05-.04.11-.04.16-.02-.06-.08-.13-.15-.21-.22"/>
      <path class="cls-4" d="M22.97,15.16c-.12.37-.18.74.23.92.05-.16.03-.18.01-.31.11.11.11.16.08.3.31-.4-.03-.67-.32-.92"/>
      <path class="cls-4" d="M23.2,16.24s-.05,0-.06-.01c-.59-.26-.41-.84-.32-1.12.02-.05.06-.09.11-.11.05-.01.11,0,.15.03l.04.03c.28.24.7.6.3,1.11-.04.05-.11.07-.17.06-.02,0-.03,0-.05,0M23.06,15.46c-.02.11-.02.2,0,.27.01-.04.04-.08.08-.1.02,0,.03-.01.05-.01-.03-.05-.08-.1-.14-.16"/>
      <path class="cls-4" d="M22.41,14.56c.26-.44,0-.76-.12-1.09-.26.33-.43,1.01-.03,1.09-.06-.1-.03-.24-.03-.37.11.1.02.28.18.36"/>
      <path class="cls-4" d="M22.25,14.73s-.02,0-.03,0c-.16-.03-.28-.14-.33-.29-.11-.32.05-.79.27-1.06.04-.04.09-.07.15-.06.06,0,.1.05.12.1.02.06.05.11.07.17.13.28.29.63.04,1.07-.04.07-.14.1-.21.06-.02.02-.05.02-.08.02M22.23,14.04s.08.01.11.04c0,0,0,0,0,0-.01-.09-.04-.18-.08-.26-.03.07-.05.15-.07.22.01,0,.02,0,.04,0"/>
      <path class="cls-4" d="M22.69,15.39c.38-.48.1-.72-.08-1.05-.2.4-.34.8-.05,1.03.07-.16.09-.27.07-.34.13.06,0,.21.06.35"/>
      <path class="cls-4" d="M22.69,15.55h-.02s-.04-.01-.06-.02h0s-.1,0-.14-.03c-.43-.35-.14-.95,0-1.23.03-.05.08-.09.14-.09.07,0,.12.03.14.09.03.05.06.1.08.15.16.27.36.59-.02,1.08-.03.04-.08.06-.13.06M22.64,14.87s.05,0,.07.02c0,0,0,0,0,0-.01-.07-.04-.13-.08-.2-.03.07-.05.14-.06.19.02,0,.04-.01.06-.01"/>
      <path class="cls-4" d="M22.25,15.09c0-.33-.27-.79-.75-.92.04.32.08.95.56.96-.08-.07-.2-.18-.13-.3,0,.11.19.31.31.26"/>
      <path class="cls-4" d="M22.06,15.29h0c-.59-.01-.67-.71-.71-1.04v-.07c-.02-.05,0-.11.05-.14.04-.03.1-.05.15-.03.55.15.86.67.86,1.08,0,.07-.04.13-.11.16-.05.02-.1.02-.15.01-.03.02-.05.04-.09.04M21.7,14.43c.02.12.05.23.09.32,0,0,0,0,0-.01.03-.05.08-.08.14-.08-.06-.09-.14-.17-.24-.24"/>
      <path class="cls-4" d="M23.83,16.88c-.02-.07-.2-.16-.1-.3.03.12.15.18.19.26.04,0,.12-.15.08-.29-.07-.28-.32-.29-.56-.55-.13.32-.04.86.39.88"/>
      <path class="cls-4" d="M23.83,17.04h0c-.2-.01-.37-.11-.47-.28-.14-.22-.17-.56-.06-.83.02-.05.07-.09.12-.1.06-.01.11,0,.15.05.08.09.17.15.25.2.14.09.29.19.35.42.04.15,0,.3-.06.38-.04.06-.09.1-.15.11,0,0-.01,0-.02,0-.03.02-.07.04-.11.04M23.55,16.3c0,.07.01.14.03.21,0,0,0-.02.02-.02.03-.04.08-.06.13-.06-.03-.02-.05-.04-.09-.06-.03-.02-.06-.04-.09-.06"/>
      <path class="cls-4" d="M24.09,16.65c-.06.25-.16.79.26.9.01-.11.04-.22-.03-.34.12.1.1.25.09.34.06-.03.22-.08.15-.31-.06-.22-.27-.44-.48-.59"/>
      <path class="cls-4" d="M24.35,17.71s-.03,0-.04,0c-.25-.06-.4-.25-.43-.54-.02-.16,0-.35.06-.56.02-.05.05-.09.1-.11.05-.02.11-.01.15.02.13.09.45.35.54.68.06.22-.01.38-.22.48-.03.01-.06.02-.09.02-.02,0-.04.01-.06.01M24.2,16.95c0,.06,0,.11,0,.15,0,0,.01-.02.02-.02.02-.02.04-.03.06-.03-.02-.03-.05-.06-.09-.1"/>
      <path class="cls-4" d="M22.73,16.02c.09-.43-.56-.78-.96-.72.27.22.32.83.85.75-.1-.06-.2-.11-.22-.27.08.09.18.19.33.24"/>
      <path class="cls-4" d="M22.52,16.22c-.38,0-.55-.3-.67-.53-.06-.11-.12-.21-.18-.27-.05-.04-.07-.11-.05-.17.02-.06.07-.11.13-.12.33-.05.78.14,1,.4.13.16.18.33.14.51,0,.05-.04.08-.08.11-.03.02-.07.03-.11.02-.02.01-.04.03-.06.03-.04,0-.08.01-.12.01M22.12,15.51s.01.02.02.03c.04.07.07.13.11.19.02-.04.05-.07.09-.09,0,0,.01,0,.02,0-.07-.05-.15-.09-.24-.12"/>
      <path class="cls-4" d="M22.41,16.17c.15.31.48.81.88.62-.09-.06-.19-.04-.23-.18.11.06.16.08.29.09-.11-.48-.59-.59-.94-.54"/>
      <path class="cls-4" d="M23.11,16.99c-.41,0-.71-.47-.84-.75-.02-.05-.02-.1,0-.15.02-.05.07-.08.12-.09.41-.07.99.07,1.12.66.01.05,0,.1-.04.14-.01.01-.02.02-.03.03-.01.04-.04.07-.08.09-.08.04-.16.06-.25.06M22.68,16.32c.07.1.14.19.22.25,0-.04.03-.07.06-.1.02-.01.04-.02.06-.03-.1-.08-.23-.12-.33-.13"/>
      <path class="cls-4" d="M24.02,17.5c-.01-.42-.49-.53-.81-.63.13.4.34.86.74.72-.14-.05-.25-.12-.23-.24.07.1.17.18.31.15"/>
      <path class="cls-4" d="M23.82,17.78c-.46,0-.66-.58-.76-.86-.02-.06,0-.12.04-.16.04-.04.11-.06.16-.04l.06.02c.34.1.85.25.87.76,0,.06-.03.11-.08.14-.01.05-.05.09-.1.11-.06.02-.13.03-.19.03M23.49,17.12c.03.06.05.11.08.15.02-.03.05-.06.08-.08-.05-.03-.11-.05-.17-.08"/>
      <path class="cls-4" d="M24.19,17.56c-.05.15-.23.16-.54.12.58.32.72.08.93.32.3.33,1.13,1.33,2.34,1.98,0-.03-.02-.05.04-.07-.96-.46-2.09-1.68-2.27-2.02-.09-.16.19-.31,0-.69,0,.17-.09.37-.22.42-.06.02-.11.04-.26-.05"/>
      <path class="cls-4" d="M26.92,20.14s-.05,0-.08-.02c-1.14-.62-1.96-1.54-2.31-1.93l-.07-.08c-.06-.06-.09-.06-.2-.07-.14-.01-.35-.03-.69-.21-.07-.04-.1-.12-.08-.19.02-.07.1-.12.17-.11.2.02.36.03.37,0,.02-.04.05-.08.1-.1.05-.02.09-.01.14.01.08.04.11.05.11.05.07-.02.14-.15.14-.26,0-.07.05-.14.12-.17.07-.02.15.01.19.08.15.29.07.5.03.62,0,.03-.02.06-.02.08.16.3,1.25,1.49,2.2,1.94.06.03.09.09.09.15,0,.04-.01.07-.04.1,0,0,0,.01,0,.02-.02.05-.05.08-.09.1-.02,0-.04.01-.06.01"/>
      <path class="cls-6" d="M21.9,12.18c-.21.44-.48,1.17-.01,1.31-.04-.18,0-.29,0-.49.15.18.02.41.17.55.4-.61,0-.93-.14-1.36"/>
      <path class="cls-6" d="M21.06,11.94c-.04.41-.04,1.07.36,1.04-.08-.13-.09-.23-.15-.39.17.1.13.32.29.39.14-.6-.27-.74-.5-1.04"/>
      <path class="cls-6" d="M21.22,13.04c-.07.45-.04,1.05.44,1.07-.11-.1-.12-.25-.17-.38.14.12.21.43.4.4.02-.5-.31-.8-.68-1.09"/>
      <path class="cls-6" d="M22.97,15.16c-.12.37-.18.74.23.92.05-.16.03-.18.01-.31.11.11.11.16.08.3.31-.4-.03-.67-.32-.92"/>
      <path class="cls-6" d="M22.41,14.56c.26-.44,0-.76-.12-1.09-.26.33-.43,1.01-.03,1.09-.06-.1-.03-.24-.03-.37.11.1.02.28.18.36"/>
      <path class="cls-6" d="M22.69,15.39c.38-.48.1-.72-.08-1.05-.2.4-.34.8-.05,1.03.07-.16.09-.27.07-.34.13.06,0,.21.06.35"/>
      <path class="cls-6" d="M22.25,15.09c0-.33-.27-.79-.75-.92.04.32.08.95.56.96-.08-.07-.2-.18-.13-.3,0,.11.19.31.31.26"/>
      <path class="cls-6" d="M22.73,16.02c.09-.43-.56-.78-.96-.72.27.22.32.83.85.75-.1-.06-.2-.11-.22-.27.08.09.18.19.33.24"/>
      <path class="cls-6" d="M22.41,16.17c.15.31.48.81.88.62-.09-.06-.19-.04-.23-.18.11.06.16.08.29.09-.11-.48-.59-.59-.94-.54"/>
      <path class="cls-6" d="M24.19,17.56c-.05.15-.23.16-.54.12.58.32.72.08.93.32.3.33,1.13,1.33,2.34,1.98,0-.03-.02-.05.04-.07-.96-.46-2.09-1.68-2.27-2.02-.09-.16.19-.31,0-.69,0,.17-.09.37-.22.42-.06.02-.11.04-.26-.05"/>
      <path class="cls-4" d="M23.8,10.59c-.35.42-.84,1.15-.37,1.43,0-.21.07-.32.13-.54.12.24-.09.46.03.65.6-.56.25-1.02.21-1.53"/>
      <path class="cls-4" d="M23.59,12.31s-.02,0-.02,0c-.05,0-.1-.04-.13-.08,0,0,0-.02-.01-.02-.03,0-.06,0-.08-.02-.15-.09-.24-.22-.27-.38-.06-.32.14-.77.6-1.32.05-.06.13-.08.2-.06.07.02.12.09.13.16,0,.12.03.23.06.35.09.37.19.84-.33,1.33-.03.03-.08.05-.12.05M23.56,11.29c.07,0,.13.04.16.11.01.03.03.06.03.08.01-.14-.02-.28-.06-.44-.06.09-.11.18-.15.26,0,0,0,0,.01,0"/>
      <path class="cls-4" d="M22.95,10.1c-.15.44-.34,1.16.11,1.24-.06-.16-.04-.27-.05-.47.16.16.06.39.21.51.32-.62-.1-.88-.27-1.28"/>
      <path class="cls-4" d="M23.21,11.57s-.08-.01-.11-.04h0s-.05,0-.07,0c-.15-.03-.27-.11-.34-.24-.14-.25-.11-.66.1-1.24.03-.07.09-.12.17-.12.07,0,.14.04.17.11.04.09.09.17.15.26.18.28.4.63.12,1.18-.03.05-.07.08-.12.09-.01,0-.03,0-.04,0M23,10.69s.06,0,.09.02c-.02-.05-.05-.1-.09-.16-.01.05-.02.1-.03.14,0,0,.02,0,.03,0"/>
      <path class="cls-4" d="M22.82,11.36c-.2.48-.34,1.14.19,1.3-.1-.14-.07-.31-.09-.46.12.17.11.53.33.55.16-.54-.12-.97-.44-1.38"/>
      <path class="cls-4" d="M23.27,12.92s-.01,0-.02,0c-.09,0-.15-.04-.2-.08-.03,0-.05,0-.08,0-.2-.06-.34-.18-.43-.36-.17-.36-.03-.84.11-1.19.02-.06.08-.1.15-.11.06,0,.13.02.17.07.34.44.66.93.47,1.54-.02.08-.1.13-.17.13M22.93,12.01s.08.01.11.04c-.04-.1-.1-.2-.16-.3-.03.1-.05.2-.05.29.01,0,.02-.01.03-.02.02,0,.04-.01.07-.01"/>
      <path class="cls-4" d="M24.16,14.16c-.23.37-.4.76,0,1.07.09-.16.08-.19.1-.33.09.16.07.2,0,.35.45-.35.14-.74-.1-1.09"/>
      <path class="cls-4" d="M24.26,15.43s-.06,0-.09-.02c-.04,0-.09-.01-.12-.04-.58-.44-.22-1.03-.05-1.31.03-.05.09-.09.15-.09.06,0,.12.03.16.08l.03.05c.24.34.6.85.03,1.29-.03.03-.07.04-.11.04M24.18,14.51c-.05.12-.08.21-.07.3.03-.04.07-.07.12-.08.02,0,.04,0,.06,0-.02-.06-.06-.13-.11-.21"/>
      <path class="cls-4" d="M23.7,13.34c.4-.41.22-.83.16-1.23-.38.29-.75.99-.33,1.19-.03-.13.03-.27.07-.41.09.14-.05.31.09.44"/>
      <path class="cls-4" d="M23.7,13.53s-.08-.01-.12-.04c-.04.01-.09,0-.13-.01-.16-.08-.27-.23-.28-.41-.04-.38.27-.85.58-1.09.05-.04.12-.05.18-.02.06.02.1.08.11.15,0,.07.02.13.03.2.07.35.15.78-.25,1.18-.04.04-.08.06-.13.06M23.61,12.72c.06,0,.12.03.15.08,0,0,0,0,0,.01.01-.1,0-.2-.02-.31-.05.07-.1.15-.14.22"/>
      <path class="cls-4" d="M23.8,14.32c.54-.42.31-.76.2-1.17-.33.39-.59.78-.33,1.12.11-.15.17-.28.17-.36.12.11-.06.24-.03.4"/>
      <path class="cls-4" d="M23.8,14.51s-.05,0-.07-.01c-.02,0-.04-.02-.06-.04h0c-.06,0-.11-.03-.15-.07-.38-.5.11-1.07.34-1.35.05-.05.11-.08.18-.06.07.02.12.07.14.13.02.06.04.12.05.18.11.33.24.75-.32,1.18-.03.03-.07.04-.11.04M23.83,13.74s.08.01.11.04c0,0,0,0,0,0,0-.08,0-.16-.03-.24-.05.07-.09.14-.12.2,0,0,.02,0,.03,0"/>
      <path class="cls-4" d="M23.39,13.88c.08-.37-.08-.94-.57-1.22-.04.36-.17,1.07.35,1.21-.06-.1-.17-.26-.06-.37-.03.12.12.39.27.37"/>
      <path class="cls-4" d="M23.38,14.06s-.09,0-.13-.03c-.04.02-.08.02-.12.01-.64-.17-.54-.96-.49-1.33v-.08c.02-.06.05-.11.11-.14.05-.03.12-.03.17,0,.56.31.76.96.66,1.42-.02.08-.08.13-.16.14,0,0-.02,0-.03,0M22.97,13.01c-.01.14-.01.27,0,.38,0,0,0,0,.01-.01.05-.05.11-.06.17-.05-.04-.11-.11-.22-.2-.32"/>
      <path class="cls-4" d="M24.63,16.27c0-.09-.18-.24-.03-.35,0,.14.12.24.14.34.05,0,.17-.14.17-.3,0-.33-.27-.4-.47-.76-.23.31-.28.93.19,1.07"/>
      <path class="cls-4" d="M24.63,16.45s-.04,0-.05,0c-.21-.07-.37-.22-.44-.43-.09-.28-.03-.66.16-.92.04-.05.1-.08.16-.07.06,0,.12.04.15.09.07.12.14.21.22.29.13.14.27.29.27.56,0,.23-.19.51-.38.48-.02.01-.05.02-.08.02M24.48,15.56c-.02.08-.02.16-.02.23,0,0,.02-.01.02-.02.04-.04.1-.05.16-.04-.02-.03-.05-.06-.08-.09-.03-.03-.05-.05-.08-.09"/>
      <path class="cls-4" d="M24.98,16.09c-.14.26-.4.83.04,1.06.05-.12.11-.23.07-.39.11.14.04.3,0,.4.07-.02.26-.03.25-.29,0-.26-.17-.55-.36-.78"/>
      <path class="cls-4" d="M25.11,17.34s-.05,0-.07,0c-.04,0-.08,0-.12-.02-.25-.14-.37-.39-.33-.71.02-.18.1-.38.22-.6.03-.05.08-.09.14-.1.06,0,.12.02.16.06.12.14.4.51.41.89,0,.26-.12.41-.37.47-.01,0-.03,0-.04,0M25.02,16.46c-.02.06-.04.11-.05.17.01,0,.02-.02.03-.02.03-.01.06-.02.08-.02-.02-.04-.04-.09-.07-.13"/>
      <path class="cls-4" d="M23.66,15.04c.21-.45-.41-1-.86-1.05.23.31.12,1,.72,1.05-.09-.09-.19-.18-.17-.36.07.12.15.26.3.36"/>
      <path class="cls-4" d="M23.66,15.22s-.05,0-.07-.01c-.02.01-.05.02-.08.01-.53-.04-.64-.47-.73-.78-.04-.14-.07-.26-.13-.34-.04-.06-.05-.13-.01-.2.04-.06.11-.1.18-.09.36.04.77.32.95.65.13.22.14.46.05.66-.02.05-.06.08-.12.1-.02,0-.03,0-.05,0M23.13,14.3s0,.03.01.04c.03.09.05.17.07.23.03-.04.07-.07.12-.08,0,0,.02,0,.03,0-.06-.07-.14-.14-.23-.19"/>
      <path class="cls-4" d="M23.27,15.1c.08.38.3,1.02.79.91-.08-.09-.2-.1-.2-.25.11.09.15.14.29.18.01-.55-.48-.81-.88-.84"/>
      <path class="cls-4" d="M23.96,16.21c-.41,0-.72-.38-.87-1.07-.01-.06,0-.12.04-.16.04-.04.09-.07.15-.06.51.04,1.06.38,1.05,1.03,0,.06-.03.11-.08.15-.01,0-.02.02-.04.02-.03.04-.07.07-.11.08-.05,0-.09.01-.14.01M23.53,15.35c.05.13.1.25.17.34.02-.04.05-.07.09-.09.02-.01.05-.02.07-.02-.08-.11-.21-.19-.33-.24"/>
      <path class="cls-4" d="M24.67,17c.1-.47-.39-.72-.71-.91.04.47.13,1.03.61.99-.14-.1-.24-.2-.19-.33.06.12.14.24.29.24"/>
      <path class="cls-4" d="M24.53,17.27c-.65,0-.72-.81-.75-1.16,0-.07.03-.13.08-.17.06-.04.13-.04.19,0l.06.03c.32.19.87.5.74,1.07-.01.06-.06.11-.12.13-.03.05-.09.09-.15.09-.02,0-.04,0-.06,0M24.19,16.45c.01.07.03.13.05.19.03-.03.07-.05.11-.06-.04-.04-.1-.09-.16-.13"/>
      <path class="cls-4" d="M24.84,17.12c-.1.15-.29.11-.63-.02.55.51.76.29.93.61.24.45.87,1.77,2.02,2.81.01-.03,0-.06.06-.07-.92-.77-1.83-2.41-1.94-2.83-.05-.19.29-.29.19-.76-.03.18-.19.38-.36.4-.07,0-.13,0-.28-.13"/>
      <path class="cls-4" d="M27.17,20.7s-.09-.02-.12-.05c-1.09-.99-1.73-2.22-2-2.75l-.06-.11c-.04-.09-.08-.1-.2-.14-.15-.05-.38-.13-.7-.43-.06-.06-.08-.15-.03-.23.05-.07.14-.11.22-.07.18.07.38.13.41.09.03-.05.08-.08.13-.08.05,0,.11.01.15.05.03.02.09.08.11.08.08,0,.19-.12.21-.25.02-.08.09-.15.18-.15.08,0,.16.06.18.14.09.36-.06.57-.14.69-.02.03-.04.06-.05.08.1.37.97,1.97,1.87,2.73.06.05.08.12.06.19-.01.04-.04.08-.07.1,0,0,0,.01,0,.02-.03.04-.08.07-.13.08,0,0-.02,0-.02,0"/>
      <path class="cls-6" d="M23.8,10.59c-.35.42-.84,1.15-.37,1.43,0-.21.07-.32.13-.54.12.24-.09.46.03.65.6-.56.25-1.02.21-1.53"/>
      <path class="cls-6" d="M22.95,10.1c-.15.44-.34,1.16.11,1.24-.06-.16-.04-.27-.05-.47.16.16.06.39.21.51.32-.62-.1-.88-.27-1.28"/>
      <path class="cls-6" d="M22.82,11.36c-.2.48-.34,1.14.19,1.3-.1-.14-.07-.31-.09-.46.12.17.11.53.33.55.16-.54-.12-.97-.44-1.38"/>
      <path class="cls-6" d="M23.7,13.34c.4-.41.22-.83.16-1.23-.38.29-.75.99-.33,1.19-.03-.13.03-.27.07-.41.09.14-.05.31.09.44"/>
      <path class="cls-6" d="M24.98,16.09c-.14.26-.4.83.04,1.06.05-.12.11-.23.07-.39.11.14.04.3,0,.4.07-.02.26-.03.25-.29,0-.26-.17-.55-.36-.78"/>
      <path class="cls-6" d="M24.84,17.12c-.1.15-.29.11-.63-.02.55.51.76.29.93.61.24.45.87,1.77,2.02,2.81.01-.03,0-.06.06-.07-.92-.77-1.83-2.41-1.94-2.83-.05-.19.29-.29.19-.76-.03.18-.19.38-.36.4-.07,0-.13,0-.28-.13"/>
      <path class="cls-4" d="M26.11,9.76c-.47.36-1.17,1.02-.74,1.42.05-.22.15-.32.26-.54.06.28-.21.46-.12.7.78-.45.51-1.02.6-1.57"/>
      <path class="cls-4" d="M25.51,11.53s-.05,0-.07-.01c-.06-.02-.1-.06-.12-.12,0,0,0-.02,0-.03-.03,0-.06-.02-.08-.05-.14-.13-.21-.29-.2-.47.02-.36.34-.78.95-1.25.06-.05.15-.06.22-.01.07.04.11.12.1.2-.02.12-.02.25-.02.39,0,.41,0,.93-.68,1.32-.03.02-.06.03-.1.03M25.67,10.44c.08.01.14.07.16.15,0,.03.01.07.01.1.05-.14.05-.3.05-.48-.09.08-.16.16-.23.23"/>
      <path class="cls-4" d="M25.32,9.02c-.27.42-.65,1.14-.19,1.34-.02-.19.03-.3.06-.51.13.21-.03.43.1.59.49-.58.11-.96.03-1.42"/>
      <path class="cls-4" d="M25.29,10.65h0c-.06,0-.11-.03-.15-.07,0,0,0,0,0,0-.02,0-.05,0-.07-.02-.16-.07-.26-.18-.31-.34-.09-.3.05-.73.41-1.3.04-.07.13-.1.21-.09.08.02.14.08.16.16.02.1.06.2.1.31.12.34.27.76-.17,1.28-.04.04-.09.07-.15.07M25.21,9.66s.09.02.12.05c-.01-.06-.03-.12-.06-.19-.02.05-.04.1-.06.14"/>
      <path class="cls-4" d="M24.89,10.32c-.33.46-.63,1.12-.11,1.42-.07-.17,0-.34.02-.51.09.21-.01.59.22.66.3-.53.11-1.05-.13-1.57"/>
      <path class="cls-4" d="M25.02,12.09s-.04,0-.06,0c-.09-.03-.15-.08-.2-.14-.03,0-.05-.01-.08-.03-.19-.11-.32-.28-.36-.48-.09-.42.17-.9.41-1.23.04-.06.11-.09.18-.08.07,0,.13.05.16.12.26.55.47,1.14.12,1.75-.04.06-.1.1-.17.1M24.8,11.03c.06,0,.12.03.16.08-.02-.12-.06-.24-.1-.36-.05.1-.1.21-.12.3.01,0,.02,0,.04-.01.01,0,.02,0,.03,0"/>
      <path class="cls-4" d="M25.62,13.61c-.33.34-.61.7-.26,1.14.14-.15.13-.18.18-.33.06.19.03.23-.08.37.56-.26.33-.75.16-1.18"/>
      <path class="cls-4" d="M25.46,14.99s-.09-.02-.13-.05c-.05,0-.09-.03-.12-.07-.5-.61.02-1.14.27-1.4.05-.05.11-.07.18-.06.07.01.12.06.15.12l.02.06c.17.42.43,1.05-.28,1.38-.03.01-.05.02-.08.02M25.55,13.99c-.09.11-.13.21-.15.29.04-.04.09-.06.15-.06.02,0,.04,0,.07.01-.01-.07-.03-.15-.06-.25"/>
      <path class="cls-4" d="M25.34,12.64c.52-.33.43-.83.47-1.26-.47.21-1.03.86-.64,1.18,0-.15.1-.28.18-.41.06.17-.13.32,0,.49"/>
      <path class="cls-4" d="M25.34,12.84c-.06,0-.12-.03-.16-.08-.05,0-.1-.01-.13-.04-.15-.13-.23-.3-.2-.51.05-.41.49-.83.88-1.01.06-.03.14-.02.2.02.06.04.09.11.08.18,0,.07,0,.15-.01.22-.01.38-.03.86-.55,1.19-.03.02-.07.03-.11.03M25.39,11.96c.06.02.12.06.14.12,0,0,0,0,0,.01.04-.1.05-.22.06-.34-.07.06-.14.13-.2.2"/>
      <path class="cls-4" d="M25.19,13.7c.68-.31.51-.73.5-1.19-.45.33-.82.68-.63,1.1.16-.14.25-.25.26-.33.11.14-.12.23-.13.42"/>
      <path class="cls-4" d="M25.19,13.9s-.08-.01-.11-.04c-.02-.01-.04-.03-.05-.05,0,0,0,0,0,0-.06-.01-.11-.06-.14-.11-.28-.62.38-1.11.69-1.34.06-.05.14-.05.2-.02.07.03.11.1.11.17,0,.07,0,.14.01.21.03.38.07.85-.63,1.17-.03.01-.05.02-.08.02M25.34,13.09c.05,0,.11.03.14.07,0,0,0,0,0,.01.03-.08.03-.17.03-.27-.07.07-.13.13-.17.18"/>
      <path class="cls-4" d="M24.87,13.13c.18-.37.15-1.02-.3-1.42-.13.37-.44,1.09.08,1.36-.04-.12-.12-.31.03-.4-.06.12.03.44.2.46"/>
      <path class="cls-4" d="M24.87,13.33s-.02,0-.03,0c-.06,0-.11-.03-.16-.06-.05,0-.09,0-.14-.02-.63-.34-.34-1.14-.2-1.53l.03-.08c.02-.06.08-.11.14-.13.06-.02.13,0,.18.05.52.47.56,1.21.35,1.66-.03.07-.11.11-.18.11M24.64,12.11c-.05.14-.08.28-.08.4,0,0,0,0,.02-.01.06-.04.13-.04.2,0-.02-.13-.06-.26-.13-.39"/>
      <path class="cls-4" d="M25.6,15.96c.02-.09-.12-.29.06-.38-.04.15.07.28.07.39.05.02.21-.1.25-.27.08-.35-.19-.49-.31-.91-.32.27-.52.91-.07,1.18"/>
      <path class="cls-4" d="M25.73,16.17s-.04,0-.06,0c0,0-.01,0-.02,0-.05.01-.1,0-.14-.02-.21-.12-.34-.32-.36-.56-.03-.32.13-.71.4-.94.05-.05.12-.06.19-.04.06.02.12.07.13.14.04.15.1.26.16.36.11.18.21.37.15.65-.06.23-.26.43-.44.43M25.62,15.18c-.04.08-.07.16-.08.24,0,0,.02-.01.03-.01.05-.03.12-.03.17,0-.02-.03-.04-.07-.06-.11-.02-.04-.04-.07-.06-.11"/>
      <path class="cls-4" d="M26.01,15.86c-.21.24-.62.78-.22,1.13.08-.11.17-.21.16-.39.08.18-.02.33-.09.42.08,0,.28.03.34-.25.06-.28-.05-.63-.19-.91"/>
      <path class="cls-4" d="M25.92,17.22h-.02s-.08-.01-.11-.03c-.04,0-.09-.02-.12-.05-.23-.2-.3-.5-.17-.82.07-.18.19-.38.37-.58.04-.05.11-.07.17-.06.06,0,.12.05.15.1.09.18.3.63.21,1.04-.04.19-.16.41-.49.41M25.96,16.25c-.04.06-.07.11-.09.17.01,0,.03-.01.04-.01.03,0,.06,0,.09,0-.01-.05-.02-.1-.04-.15"/>
      <path class="cls-4" d="M24.87,14.42c.34-.42-.18-1.16-.65-1.32.17.39-.11,1.08.51,1.29-.07-.12-.16-.23-.09-.42.04.15.1.32.23.45"/>
      <path class="cls-4" d="M24.87,14.62s-.08-.01-.11-.04c-.03,0-.06,0-.09,0-.54-.18-.56-.65-.58-1,0-.15-.01-.3-.05-.39-.03-.07-.02-.16.04-.21.05-.06.14-.08.21-.05.37.12.73.52.85.92.08.27.04.52-.11.71-.03.04-.09.07-.14.08h-.01M24.49,13.51s0,.03,0,.04c0,.1,0,.19.02.26.04-.04.09-.05.14-.05.01,0,.02,0,.03,0-.05-.09-.12-.18-.2-.26"/>
      <path class="cls-4" d="M24.44,14.4c0,.43.07,1.15.61,1.16-.07-.11-.18-.15-.15-.32.09.13.13.18.26.27.15-.59-.31-.98-.73-1.11"/>
      <path class="cls-4" d="M25.06,15.75h0c-.53,0-.82-.5-.81-1.36,0-.06.03-.12.08-.16.05-.04.12-.05.18-.03.53.17,1.03.66.86,1.35-.02.06-.06.11-.12.14-.02,0-.03.01-.05.01-.04.03-.09.05-.14.05M24.66,14.72c.01.14.04.28.1.4.03-.04.07-.06.12-.07.03,0,.05,0,.08,0-.06-.14-.17-.25-.29-.33"/>
      <path class="cls-4" d="M25.47,16.75c.22-.47-.24-.86-.53-1.14-.07.51-.11,1.12.4,1.2-.13-.14-.2-.27-.12-.39.03.14.09.29.25.33"/>
      <path class="cls-4" d="M25.34,17.01s-.02,0-.03,0c-.76-.11-.62-1.07-.57-1.42.01-.07.06-.14.13-.16.07-.02.15,0,.2.04l.05.05c.3.28.8.75.52,1.32-.03.06-.09.1-.16.11-.04.04-.09.06-.15.06M25.09,16.05c0,.08,0,.15,0,.21.04-.02.09-.04.13-.03-.04-.06-.09-.12-.14-.18"/>
      <path class="cls-4" d="M25.62,16.91c-.15.14-.34.04-.66-.17.46.68.74.5.84.87.14.53.49,2.08,1.45,3.46.02-.02.01-.06.08-.06-.79-1.04-1.35-3-1.36-3.47,0-.22.38-.24.38-.76-.08.18-.3.36-.47.33-.08-.01-.14-.02-.26-.2"/>
      <path class="cls-4" d="M27.25,21.27s-.01,0-.02,0c-.06,0-.11-.04-.14-.08-.91-1.31-1.28-2.77-1.45-3.4l-.03-.13c-.03-.1-.06-.12-.17-.19-.15-.09-.37-.23-.64-.62-.05-.08-.04-.18.02-.25.07-.07.17-.08.25-.02.09.06.3.2.39.2.04-.04.11-.06.17-.06.06,0,.12.04.15.08.07.11.09.11.12.12h0c.08,0,.21-.1.26-.21.04-.08.13-.13.22-.11.09.02.16.1.16.19,0,.4-.2.59-.32.69-.03.02-.06.06-.07.07.01.42.54,2.32,1.32,3.34.05.06.05.15.02.21-.02.04-.06.07-.1.09,0,0-.01.01-.01.02-.04.04-.09.06-.14.06"/>
      <path class="cls-6" d="M25.62,16.91c-.15.14-.34.04-.66-.17.46.68.74.5.84.87.14.53.49,2.08,1.45,3.46.02-.02.01-.06.08-.06-.79-1.04-1.35-3-1.36-3.47,0-.22.38-.24.38-.76-.08.18-.3.36-.47.33-.08-.01-.14-.02-.26-.2"/>
      <path class="cls-1" d="M26.57,7.02c-.37.39-.88,1.81-.89,2.05,0,.02.01.04.03.04.02,0,.04,0,.04-.02,0-.24.43-1.52.84-2.03.02-.02.04-.05.05-.07-.02-.01-.06.02-.07.03M26.36,6.39s-.04.03-.05.05c-.46.82-.77,2.15-.77,2.4,0,.02.02.03.03.04.02,0,.03,0,.03-.02,0-.24.29-1.52.72-2.39,0-.01.03-.05.04-.07M26.32,5.59s-.05.02-.06.03c-.78,1.12-.87,2.12-.94,2.88v.04s.01.04.03.04c.02,0,.04,0,.04-.02v-.04c.08-.75.12-1.7.87-2.83,0-.01.06-.08.07-.11M25.67,5.7s-.05.04-.06.05c-.62,1.17-.58,2.82-.58,2.84,0,.02.02.04.04.04.02,0,.03,0,.03-.03,0-.02-.07-1.68.54-2.84,0-.01.02-.05.03-.06M25.04,6.07s-.06.09-.07.13c-.17.65-.29,1.42-.18,2.93,0,.02.02.04.04.04.02,0,.03,0,.03-.03-.08-1.13-.12-1.95.13-2.92,0-.02.05-.13.05-.14"/>
      <path class="cls-4" d="M24.83,9.17h0s-.04-.03-.04-.05c-.11-1.55.02-2.32.18-2.93,0-.04.04-.11.07-.13h0s0,0,0,0c0,0,0,.02-.03.11,0,.02-.01.03-.01.04-.26.96-.22,1.75-.13,2.92,0,.01,0,.02-.01.03,0,0-.02,0-.03,0M25.02,6.1s-.04.07-.04.1c-.16.61-.29,1.38-.18,2.92,0,.01.02.03.03.03,0,0,.01,0,.02,0,0,0,0,0,0-.01-.09-1.18-.12-1.96.13-2.93,0,0,0-.02.01-.04,0-.02.02-.05.02-.07M25.72,9.12h0s0,0-.01,0c-.02,0-.04-.03-.04-.05.01-.26.52-1.66.89-2.05,0,0,.04-.04.06-.04,0,0,.01,0,.02,0h0s0,.01,0,.01c-.01.02-.04.05-.05.07-.4.51-.83,1.8-.84,2.02,0,.02-.01.03-.03.03M26.62,7s-.04.02-.05.03c-.37.39-.88,1.79-.89,2.04,0,.01.01.03.03.03.01,0,.02,0,.02-.01,0-.23.42-1.51.84-2.03.01-.02.03-.04.04-.06M25.58,8.89s0,0-.01,0c-.02,0-.04-.03-.04-.05,0-.24.32-1.59.78-2.4,0,0,.04-.05.05-.05h.02s0,.01,0,.01c0,.02-.02.05-.03.06h0c-.43.88-.72,2.16-.72,2.39,0,0,0,.02-.01.03,0,0-.01,0-.02,0M26.34,6.42s-.01.01-.02.02c-.45.81-.77,2.15-.77,2.39,0,.02.01.03.03.03,0,0,.01,0,.02,0,0,0,0,0,0-.01,0-.23.29-1.52.72-2.4h0s.01-.02.01-.03M25.07,8.64h0s-.04-.03-.04-.05c0-.02-.03-1.67.59-2.84h0s.03-.06.06-.06h.01,0s-.02.06-.03.08c-.6,1.14-.54,2.77-.54,2.84,0,.01,0,.02-.01.03,0,0-.01,0-.02,0M25.65,5.72s-.03.02-.03.04h0c-.61,1.17-.58,2.82-.58,2.84,0,.01.01.03.03.03,0,0,.01,0,.02,0,0,0,0,0,0-.01,0-.07-.06-1.7.54-2.84,0,0,.02-.03.02-.05M25.35,8.6s-.01,0-.01,0c-.02,0-.04-.03-.04-.05v-.08c.08-.74.18-1.75.95-2.85,0-.01.03-.04.06-.04,0,0,.01,0,.02,0h0s0,.01,0,.01c0,.02-.04.06-.06.09,0,0,0,.01-.01.02-.7,1.06-.78,1.96-.85,2.68,0,.05-.01.1-.02.15v.04s-.02.03-.04.03M26.3,5.59s-.03.02-.04.04c-.77,1.09-.86,2.1-.94,2.84v.08s0,.03.02.03c.01,0,.03,0,.03-.01v-.03s.01-.1.02-.15c.07-.72.15-1.63.85-2.69,0,0,0,0,.01-.02.01-.02.04-.06.05-.08"/>
      <path class="cls-4" d="M34.22,9.46c.13.6.25,1.59-.36,1.63.1-.21.09-.35.15-.61-.24.18-.14.51-.37.64-.32-.88.28-1.16.57-1.65"/>
      <path class="cls-4" d="M33.65,11.32s-.05,0-.07-.01c-.06-.02-.1-.07-.12-.12-.28-.77.07-1.18.35-1.51.09-.11.18-.21.24-.32.04-.07.13-.11.21-.1.09.01.15.08.17.16.17.79.15,1.34-.08,1.63-.11.15-.27.23-.47.24-.03,0-.07,0-.1-.02,0,0-.02.01-.03.02-.03.02-.07.03-.1.03M34.1,9.96c-.12.15-.23.27-.28.42.02-.02.05-.04.07-.07.07-.05.16-.06.23-.01,0-.1,0-.22-.02-.34"/>
      <path class="cls-4" d="M35.33,9.4c-.07.52-.25,1.34-.75,1.19.14-.14.18-.26.3-.44-.24.08-.26.36-.47.4,0-.79.55-.84.93-1.15"/>
      <path class="cls-4" d="M34.7,10.82c-.06,0-.11,0-.17-.03-.03,0-.05-.02-.07-.04,0,0,0,0-.01,0-.06.01-.12,0-.17-.04-.05-.04-.07-.1-.07-.16,0-.71.4-.94.72-1.13.1-.06.2-.12.28-.18.07-.05.16-.06.23-.02.07.04.12.12.1.21-.12.92-.4,1.39-.84,1.39M34.88,9.95s.09.01.12.04c.02-.05.03-.1.04-.15-.06.04-.12.07-.17.11h0Z"/>
      <path class="cls-4" d="M34.81,10.73c-.04.58-.25,1.31-.86,1.2.17-.09.23-.27.32-.42-.21.1-.38.48-.61.38.11-.63.62-.91,1.15-1.16"/>
      <path class="cls-4" d="M34.07,12.15s-.1,0-.16-.01c-.03,0-.06-.02-.08-.04-.08.02-.17.01-.25-.02-.09-.04-.14-.13-.12-.23.13-.72.7-1.04,1.27-1.31.06-.03.14-.02.2.02.06.04.1.11.09.19-.06.89-.41,1.41-.95,1.41M34.28,11.31c.06,0,.11.02.15.07.01.01.02.02.03.04.04-.1.07-.21.1-.32-.12.07-.23.14-.32.22.01,0,.03,0,.04,0"/>
      <path class="cls-4" d="M32.04,12.86c.04.49.02.97-.56,1.08-.01-.21.02-.23.07-.38-.18.11-.18.16-.18.35-.28-.58.23-.82.66-1.05"/>
      <path class="cls-4" d="M31.48,14.14s-.07,0-.11-.03c-.08,0-.15-.04-.19-.12-.35-.73.28-1.07.69-1.29l.06-.03c.06-.03.14-.03.2,0,.06.03.1.1.11.17.03.37.09,1.14-.72,1.29-.01,0-.03,0-.04,0M31.62,13.36s.04.02.06.04c.05.04.07.09.08.14.05-.08.07-.19.08-.33-.09.05-.16.1-.22.15"/>
      <path class="cls-4" d="M32.91,12.28c-.2-.62.21-.95.47-1.32.23.48.25,1.38-.28,1.37.1-.11.11-.29.13-.45-.16.09-.1.34-.32.4"/>
      <path class="cls-4" d="M33.1,12.53h0c-.05,0-.1-.02-.14-.05-.11.03-.21-.03-.25-.14-.19-.61.11-1,.36-1.32.05-.06.09-.12.14-.18.04-.06.11-.09.19-.09.07,0,.14.05.17.12.19.4.26,1.03.03,1.39-.11.18-.29.27-.49.27M33.3,11.4c-.07.1-.14.2-.18.31,0,0,0,0,.01,0,.06-.03.13-.04.2,0,0-.09,0-.19-.02-.29"/>
      <path class="cls-4" d="M32.31,13.22c-.33-.7.08-.92.4-1.28.13.56.19,1.09-.24,1.3-.03-.21-.03-.36.01-.44-.18.04-.06.27-.18.42"/>
      <path class="cls-4" d="M32.48,13.44s-.07,0-.09-.02c0,0,0,0,0,0-.03,0-.05.01-.08,0-.07,0-.14-.05-.17-.12-.34-.72,0-1.07.28-1.35.05-.05.1-.1.15-.16.05-.06.13-.08.21-.06.07.02.13.08.15.15.09.4.29,1.22-.34,1.53-.03.02-.06.02-.09.02M32.49,12.59s.08.01.11.03c0-.07,0-.16-.02-.25-.07.07-.13.15-.16.23,0,0,0,0,.01,0,.02,0,.03,0,.05,0"/>
      <path class="cls-4" d="M32.95,12.98c.11-.42.56-.91,1.19-.93-.14.38-.37,1.16-.97,1.04.11-.07.3-.17.25-.34-.03.14-.32.33-.47.23"/>
      <path class="cls-4" d="M33.3,13.3c-.05,0-.11,0-.17-.02-.05-.01-.09-.04-.12-.07-.06,0-.12-.02-.17-.06-.08-.05-.11-.14-.09-.23.13-.51.66-1.06,1.39-1.09.07,0,.13.03.17.08.04.06.05.13.03.19l-.03.08c-.14.39-.4,1.11-1.01,1.11M33.47,12.54c.07.02.12.07.15.14,0,0,0,.01,0,.02.08-.11.15-.24.2-.38-.14.05-.26.13-.36.22"/>
      <path class="cls-4" d="M30.47,14.75c.05-.09.29-.15.21-.34-.07.14-.24.18-.31.27-.05-.02-.1-.22-.02-.39.16-.33.48-.26.85-.52.07.43-.2,1.08-.73.98"/>
      <path class="cls-4" d="M30.57,14.96s-.09,0-.14-.01c-.05,0-.1-.04-.13-.08,0,0-.02,0-.02,0-.07-.03-.12-.09-.15-.18-.04-.12-.06-.31.03-.49.14-.27.35-.35.55-.42.12-.04.24-.09.37-.18.06-.04.13-.05.2-.02.06.03.11.09.12.16.05.33-.05.71-.26.95-.15.18-.36.28-.58.28M30.74,14.21c.06.01.11.06.14.12,0,.01,0,.02.01.03.04-.07.08-.16.1-.25-.04.02-.09.03-.13.05-.05.02-.09.03-.13.05"/>
      <path class="cls-4" d="M30.22,14.39c0,.33-.03,1.03-.58,1.05.01-.14,0-.28.13-.42-.19.09-.2.28-.21.4-.06-.06-.25-.16-.11-.42.14-.26.46-.47.76-.6"/>
      <path class="cls-4" d="M29.64,15.64s-.08-.01-.11-.03c-.04,0-.08-.02-.11-.05-.24-.2-.29-.42-.15-.68.21-.38.68-.61.87-.69.06-.03.13-.02.19.02.06.04.09.1.09.17,0,.28-.02.52-.09.71-.12.34-.37.54-.69.54h0ZM29.86,14.83s.05.03.07.06c0,.01.02.02.02.04.02-.06.03-.12.04-.19-.05.03-.09.06-.14.1"/>
      <path class="cls-4" d="M32.09,14c.02-.56.92-.8,1.4-.62-.4.2-.64.94-1.26.69.14-.04.28-.08.35-.28-.13.09-.29.19-.48.21"/>
      <path class="cls-4" d="M32.47,14.33c-.11,0-.21-.02-.32-.07-.03-.01-.06-.03-.08-.05-.05,0-.09-.02-.12-.05-.04-.04-.07-.1-.07-.16.02-.55.64-.88,1.24-.88.16,0,.32.03.44.08.08.03.13.1.13.18,0,.08-.04.16-.12.19-.1.05-.2.16-.3.28-.19.21-.44.48-.8.48M32.67,13.61s.02.01.03.02c.05.03.07.08.08.14.06-.06.13-.13.19-.2.01-.01.02-.02.03-.03-.12.01-.23.04-.33.08"/>
      <path class="cls-4" d="M32.44,14.27c-.28.34-.83.87-1.26.51.13-.04.25,0,.33-.15-.16.04-.23.05-.39.04.27-.56.9-.57,1.32-.4"/>
      <path class="cls-4" d="M31.5,15.11c-.16,0-.32-.05-.45-.16-.04-.03-.07-.08-.08-.14-.01-.01-.02-.03-.03-.04-.03-.06-.03-.13,0-.19.19-.4.55-.61,1.01-.61.19,0,.39.04.57.11.06.03.11.08.12.14.02.06,0,.13-.04.18-.26.32-.67.71-1.1.71M31.61,14.45s.05.03.06.05c.03.04.05.09.04.14.11-.05.23-.14.35-.26-.14-.01-.3,0-.45.07"/>
      <path class="cls-4" d="M30.06,15.46c.13-.52.76-.52,1.18-.55-.28.45-.67.97-1.12.69.19-.03.34-.08.36-.23-.12.09-.27.17-.42.09"/>
      <path class="cls-4" d="M30.38,15.88c-.13,0-.25-.04-.37-.11-.06-.04-.1-.1-.1-.17-.05-.05-.07-.12-.05-.2.16-.64.87-.68,1.29-.7h.08c.08,0,.15.03.19.1.04.06.04.15,0,.21-.27.43-.6.86-1.04.86M30.6,15.2s.07.07.08.12c.05-.05.1-.11.15-.17-.08.01-.16.03-.23.05"/>
      <path class="cls-4" d="M29.83,15.49c.02.21.24.26.64.3-.82.23-.92-.1-1.25.13-.46.33-1.78,1.33-3.47,1.79,0-.03.03-.06-.02-.1,1.32-.3,3.07-1.49,3.4-1.86.15-.17-.15-.44.2-.86-.06.2,0,.49.16.58.07.04.13.07.34.01"/>
      <path class="cls-4" d="M25.75,17.92s-.08-.01-.12-.04c-.05-.03-.08-.09-.09-.15,0,0,0-.01,0-.02-.02-.04-.03-.09-.02-.14.02-.08.08-.14.16-.16,1.3-.29,2.99-1.46,3.29-1.79,0,0-.01-.05-.01-.09-.02-.17-.06-.44.21-.76.06-.07.17-.1.26-.05.08.05.13.15.1.24-.04.14.01.31.06.34t.04.02s.06,0,.13-.03c.06-.02.12,0,.17.03.05.03.08.09.09.15,0,.05.16.09.46.12.1.01.17.09.18.19,0,.1-.05.19-.15.22-.38.11-.72.1-.92.07-.09-.01-.12-.06-.27.04l-.11.08c-.54.39-1.82,1.3-3.42,1.74-.02,0-.04,0-.05,0"/>
      <path class="cls-6" d="M34.22,9.46c.13.6.25,1.59-.36,1.63.1-.21.09-.35.15-.61-.24.18-.14.51-.37.64-.32-.88.28-1.16.57-1.65"/>
      <path class="cls-6" d="M35.33,9.4c-.07.52-.25,1.34-.75,1.19.14-.14.18-.26.3-.44-.24.08-.26.36-.47.4,0-.79.55-.84.93-1.15"/>
      <path class="cls-6" d="M34.81,10.73c-.04.58-.25,1.31-.86,1.2.17-.09.23-.27.32-.42-.21.1-.38.48-.61.38.11-.63.62-.91,1.15-1.16"/>
      <path class="cls-6" d="M32.04,12.86c.04.49.02.97-.56,1.08-.01-.21.02-.23.07-.38-.18.11-.18.16-.18.35-.28-.58.23-.82.66-1.05"/>
      <path class="cls-6" d="M32.91,12.28c-.2-.62.21-.95.47-1.32.23.48.25,1.38-.28,1.37.1-.11.11-.29.13-.45-.16.09-.1.34-.32.4"/>
      <path class="cls-6" d="M32.31,13.22c-.33-.7.08-.92.4-1.28.13.56.19,1.09-.24,1.3-.03-.21-.03-.36.01-.44-.18.04-.06.27-.18.42"/>
      <path class="cls-6" d="M30.47,14.75c.05-.09.29-.15.21-.34-.07.14-.24.18-.31.27-.05-.02-.1-.22-.02-.39.16-.33.48-.26.85-.52.07.43-.2,1.08-.73.98"/>
      <path class="cls-6" d="M30.22,14.39c0,.33-.03,1.03-.58,1.05.01-.14,0-.28.13-.42-.19.09-.2.28-.21.4-.06-.06-.25-.16-.11-.42.14-.26.46-.47.76-.6"/>
      <path class="cls-6" d="M29.83,15.49c.02.21.24.26.64.3-.82.23-.92-.1-1.25.13-.46.33-1.78,1.33-3.47,1.79,0-.03.03-.06-.02-.1,1.32-.3,3.07-1.49,3.4-1.86.15-.17-.15-.44.2-.86-.06.2,0,.49.16.58.07.04.13.07.34.01"/>
      <path class="cls-1" d="M35.68,6.98c.03.56-.5,2.03-.66,2.23-.01.01-.04.02-.05.01-.02,0-.03-.03-.01-.04.15-.2.67-1.51.69-2.18,0-.02,0-.07,0-.09.02,0,.03.05.03.07M36.27,6.61s0,.06,0,.07c-.18.96-.82,2.23-.98,2.43-.01.01-.04.02-.05,0-.02,0-.02-.03-.01-.04.16-.19.79-1.41,1.02-2.39,0-.02.01-.06.02-.08M36.84,6.01s.03.05.03.07c-.12,1.41-.73,2.27-1.18,2.93l-.02.03s-.03.02-.05.01c-.02,0-.03-.02-.02-.04l.02-.03c.45-.65,1.04-1.43,1.2-2.84,0-.02.01-.11.02-.13M37.28,6.53s.01.06,0,.08c-.29,1.35-1.42,2.64-1.43,2.65-.01.01-.04.02-.06,0-.02,0-.02-.03-.01-.04.01-.01,1.18-1.29,1.47-2.62,0-.02.01-.06.02-.07M37.54,7.24s-.01.11-.03.15c-.3.63-.72,1.32-1.81,2.45-.01.01-.04.02-.05,0-.02,0-.02-.03,0-.04.82-.84,1.4-1.47,1.85-2.42,0-.01.05-.14.06-.14"/>
      <path class="cls-4" d="M35.67,9.86s-.02,0-.03,0c-.01,0-.02-.02-.02-.03,0,0,0-.02,0-.03.86-.88,1.41-1.48,1.85-2.42,0,0,0-.02.02-.04.03-.1.04-.1.05-.11h0s0,0,0,0c.01.03-.01.12-.03.15-.28.59-.69,1.3-1.82,2.45-.01.01-.02.02-.04.02M37.53,7.28s-.02.05-.03.07c0,.02-.02.04-.02.04-.44.94-.99,1.54-1.85,2.42,0,0,0,0,0,.02,0,0,0,0,.01.01.01,0,.03,0,.04,0,1.12-1.15,1.53-1.86,1.81-2.45.01-.03.03-.08.03-.11M35.83,9.28s-.02,0-.03,0c-.01,0-.02-.02-.02-.03,0-.01,0-.02,0-.03.05-.05,1.18-1.31,1.46-2.62,0-.02.02-.06.02-.07h0s0,0,0,0c.03.02.02.06.01.08h0c-.29,1.36-1.42,2.65-1.43,2.66-.01.01-.02.02-.04.02M37.28,6.55s-.01.04-.01.06c-.29,1.32-1.42,2.57-1.47,2.63,0,0,0,0,0,.01,0,0,0,.01.01.02.01,0,.03,0,.04,0,.01-.01,1.14-1.3,1.43-2.65h0s0-.04,0-.06M34.99,9.23s-.02,0-.02,0c-.01,0-.02-.02-.02-.03,0-.01,0-.02,0-.03.14-.18.67-1.5.69-2.17,0-.03,0-.07,0-.09h0s0,0,0,0c.04,0,.04.08.04.08.03.56-.5,2.02-.66,2.23,0,.01-.03.02-.04.02M35.65,6.92s0,.05,0,.07c-.02.69-.54,1.99-.69,2.18,0,0,0,0,0,.01,0,0,0,.01.01.02.02,0,.04,0,.04,0,.16-.21.69-1.67.66-2.22,0-.02-.01-.04-.02-.06M35.26,9.14s-.02,0-.03,0c-.01,0-.02-.02-.02-.03,0,0,0-.02,0-.03.15-.18.78-1.4,1.02-2.38,0-.02.01-.06.02-.08h0s.01,0,.01,0c.02.01.01.08.01.08-.18.95-.82,2.24-.99,2.43,0,.01-.02.02-.04.02M36.27,6.66s0,.03-.01.03c-.24.99-.87,2.21-1.03,2.39,0,0,0,0,0,.01,0,0,0,.01.01.02.01,0,.03,0,.04,0,.16-.19.8-1.47.98-2.42,0,0,0-.02,0-.02M35.63,9.06s-.01,0-.02,0c-.01,0-.02-.01-.03-.02,0-.01,0-.02,0-.03l.02-.03s.06-.09.09-.13c.43-.62.96-1.39,1.11-2.7,0,0,0,0,0-.02,0-.03,0-.1.02-.12h0s0,0,0,0c.03,0,.04.04.03.08-.12,1.39-.72,2.26-1.15,2.89l-.05.07s-.02.02-.04.02M36.85,6.02s-.01.08-.01.1c0,0,0,.01,0,.02-.15,1.31-.69,2.09-1.12,2.71-.03.04-.06.09-.09.13l-.02.03s0,0,0,.01c0,0,0,.01.01.01.01,0,.03,0,.04,0l.05-.07c.43-.63,1.03-1.5,1.15-2.88,0-.02,0-.05-.01-.06"/>
      <path class="cls-4" d="M32.31,6.95c.31.63.71,1.68.05,1.88.06-.26,0-.42,0-.71-.21.27-.02.6-.23.8-.59-.87-.01-1.34.18-1.97"/>
      <path class="cls-4" d="M32.14,9.15h-.03c-.07,0-.13-.04-.17-.1-.52-.76-.25-1.31-.04-1.75.07-.14.14-.28.18-.42.03-.09.11-.16.2-.17.1,0,.18.04.23.13.41.82.53,1.43.36,1.81-.08.19-.24.33-.45.4-.04.01-.07.01-.11,0,0,0-.02.02-.02.03-.04.04-.1.06-.16.06M32.31,7.53c-.09.19-.17.36-.2.54.02-.03.04-.06.07-.1.06-.08.16-.1.25-.08-.03-.11-.07-.23-.12-.37"/>
      <path class="cls-4" d="M33.52,6.58c.07.59.09,1.54-.49,1.51.12-.19.12-.33.2-.57-.24.15-.18.47-.41.57-.22-.86.37-1.07.7-1.52"/>
      <path class="cls-4" d="M32.82,8.33s-.07,0-.1-.02c-.06-.03-.11-.09-.12-.15-.2-.78.18-1.14.48-1.44.1-.09.19-.18.26-.28.06-.08.16-.11.25-.09.09.02.16.1.17.2.09.77.01,1.29-.23,1.56-.12.14-.29.21-.47.21-.04,0-.08,0-.11-.03,0,0-.01,0-.02.01-.03.01-.06.02-.1.02M33.22,7.3s.06,0,.09.02c0-.06,0-.12,0-.18-.06.06-.11.11-.16.17.02,0,.04,0,.06,0"/>
      <path class="cls-4" d="M33.31,8.18c.11.65.09,1.51-.61,1.56.16-.14.17-.36.24-.55-.2.17-.29.63-.57.59-.05-.72.43-1.17.95-1.59"/>
      <path class="cls-4" d="M32.4,10s-.04,0-.07,0c-.11-.02-.19-.11-.2-.22-.06-.82.48-1.33,1.03-1.78.06-.05.15-.07.23-.04.08.03.13.1.15.18.08.47.11,1.11-.2,1.51-.15.19-.37.3-.63.32-.03,0-.07,0-.1-.01-.06.03-.13.05-.21.05M32.94,8.95s.09.01.13.04c.01,0,.03.02.04.03.02-.11.03-.24.02-.38-.11.1-.21.21-.29.33.03-.02.07-.02.1-.02"/>
      <path class="cls-4" d="M30.85,11.28c.17.52.28,1.05-.31,1.33-.07-.23-.04-.25-.03-.44-.16.17-.15.23-.1.44-.46-.56.03-.96.44-1.33"/>
      <path class="cls-4" d="M30.53,12.84s-.05,0-.07,0c-.09.02-.18,0-.24-.08-.58-.71.01-1.24.41-1.6l.06-.05c.06-.05.14-.07.21-.05.08.02.14.08.16.15.13.4.41,1.23-.44,1.62-.03.01-.06.02-.1.02M30.53,11.93s.05,0,.08.02c.06.03.11.08.12.14.03-.1.03-.23,0-.39-.08.08-.15.16-.2.23"/>
      <path class="cls-4" d="M31.65,10.39c-.38-.62-.03-1.1.15-1.57.39.47.65,1.44.07,1.57.08-.15.04-.34.02-.53-.15.15-.02.4-.24.52"/>
      <path class="cls-4" d="M31.86,10.63s-.08,0-.11-.03c-.11.06-.24.02-.31-.09-.38-.62-.15-1.13.03-1.54.03-.08.07-.16.1-.24.03-.08.1-.13.18-.15.08-.02.17.02.22.08.32.39.57,1.06.41,1.52-.07.22-.24.38-.47.43-.02,0-.04,0-.05,0M31.83,9.33c-.05.13-.1.26-.12.39,0,0,0,0,.01-.01.06-.05.13-.08.21-.06-.02-.1-.06-.21-.11-.32"/>
      <path class="cls-4" d="M31.25,11.59c-.56-.68-.16-1.03.08-1.51.3.58.51,1.14.1,1.49-.1-.22-.13-.39-.1-.49-.18.1,0,.31-.08.51"/>
      <path class="cls-4" d="M31.25,11.82c-.07,0-.14-.03-.18-.09-.57-.69-.29-1.17-.06-1.55.04-.07.08-.14.12-.21.04-.08.12-.13.21-.13h0c.09,0,.17.05.21.13.21.41.65,1.25.04,1.77-.06.05-.13.06-.21.05,0,0,0,0,0,0-.03.01-.05.02-.08.03-.01,0-.02,0-.04,0M31.32,10.58c-.06.1-.1.2-.11.3,0,0,0,0,.01,0,.06-.03.12-.03.19-.01-.02-.08-.05-.17-.09-.27"/>
      <path class="cls-4" d="M31.88,11.15c0-.48.37-1.15,1.05-1.35-.05.46-.09,1.38-.78,1.4.1-.11.29-.27.17-.44,0,.16-.26.45-.45.38"/>
      <path class="cls-4" d="M32.15,11.43c-.05,0-.1-.02-.14-.05-.07.01-.14,0-.2-.01-.1-.03-.16-.12-.16-.22,0-.59.43-1.34,1.22-1.57.07-.02.15,0,.22.04.06.05.09.13.08.2v.1c-.06.48-.16,1.48-1,1.51h0M32.33,10.53c.08,0,.15.04.2.11,0,0,0,.01.01.02.06-.13.09-.29.12-.47-.14.09-.25.21-.33.34h0Z"/>
      <path class="cls-4" d="M29.65,13.76c.03-.11.28-.24.14-.43-.04.18-.21.26-.27.38-.06-.01-.17-.22-.12-.42.09-.41.45-.42.8-.81.19.45.08,1.23-.54,1.28"/>
      <path class="cls-4" d="M29.65,14c-.06,0-.11-.02-.15-.05,0,0-.02,0-.03,0-.08-.02-.15-.07-.21-.16-.07-.11-.15-.32-.1-.55.07-.33.29-.48.49-.61.12-.08.24-.16.36-.3.05-.06.13-.09.21-.07.08.01.14.06.17.14.16.38.14.87-.06,1.19-.15.24-.39.39-.67.41h-.02M29.79,13.1c.07,0,.14.03.18.09,0,.01.01.02.02.03.03-.09.04-.19.04-.3-.04.03-.09.06-.12.09-.05.03-.09.06-.13.09"/>
      <path class="cls-4" d="M29.27,13.44c.1.36.25,1.14-.35,1.3-.03-.16-.07-.31.03-.5-.18.15-.14.36-.12.49-.09-.05-.31-.11-.23-.44.08-.32.37-.64.67-.86"/>
      <path class="cls-4" d="M28.92,14.98s-.05,0-.07,0c-.05,0-.09,0-.13-.02-.32-.15-.43-.38-.35-.7.12-.48.57-.85.76-.99.06-.04.14-.06.22-.03.07.03.13.08.15.16.09.31.12.58.1.81-.04.41-.25.68-.61.78-.02,0-.04,0-.06,0M29,14.02s.07.02.09.05c.01,0,.02.02.03.03,0-.07,0-.14,0-.22-.04.05-.09.09-.12.14"/>
      <path class="cls-4" d="M31.22,12.51c-.14-.62.79-1.13,1.36-1.06-.38.32-.44,1.2-1.2,1.1.14-.09.29-.16.31-.4-.12.13-.26.28-.48.36"/>
      <path class="cls-4" d="M31.5,12.79s-.1,0-.15-.01c-.04,0-.07-.02-.1-.04-.05,0-.1,0-.15-.02-.06-.03-.1-.09-.12-.15-.06-.26,0-.51.2-.75.31-.39.94-.65,1.42-.59.09.01.17.08.19.17.03.09,0,.18-.07.24-.1.08-.17.23-.26.39-.17.33-.42.77-.97.77M31.75,11.92s.02,0,.03.01c.06.03.1.07.13.13.05-.07.1-.16.15-.27,0-.02.02-.03.03-.05-.12.04-.24.1-.34.17"/>
      <path class="cls-4" d="M31.68,12.7c-.21.45-.67,1.18-1.25.91.13-.08.27-.06.32-.26-.16.09-.23.12-.41.15.14-.69.83-.87,1.34-.8"/>
      <path class="cls-4" d="M30.68,13.9c-.12,0-.23-.03-.35-.08-.06-.03-.1-.07-.12-.13-.02-.01-.03-.02-.04-.04-.05-.05-.07-.13-.06-.21.18-.85,1-1.07,1.6-.98.07.01.14.05.17.12.03.07.04.14,0,.21-.19.41-.61,1.1-1.21,1.1M30.81,13.13s.06.02.08.04c.04.03.07.08.09.14.11-.09.21-.23.31-.37-.14.02-.33.07-.48.2"/>
      <path class="cls-4" d="M29.39,14.66c0-.61.69-.78,1.15-.93-.18.57-.46,1.24-1.04,1.06.2-.08.35-.19.33-.35-.11.14-.25.26-.44.22"/>
      <path class="cls-4" d="M29.68,15.06c-.08,0-.17-.01-.26-.04-.07-.02-.13-.08-.15-.16-.07-.04-.12-.12-.11-.2,0-.74.74-.97,1.23-1.12l.08-.02c.08-.03.18,0,.24.06.06.06.08.15.06.24-.12.37-.4,1.25-1.08,1.25M29.91,14.23c.05.02.1.06.12.11.04-.07.08-.14.12-.22-.09.04-.17.07-.24.11"/>
      <path class="cls-4" d="M29.15,14.75c.08.22.34.22.78.15-.83.48-1.03.14-1.33.49-.42.49-1.59,1.94-3.31,2.91-.01-.03.02-.07-.05-.1,1.37-.69,2.96-2.47,3.22-2.97.12-.23-.28-.44-.01-.99,0,.24.13.53.33.59.09.03.16.05.38-.08"/>
      <path class="cls-4" d="M25.29,18.54s-.05,0-.08-.01c-.06-.02-.11-.08-.14-.14,0,0,0-.01,0-.02-.03-.04-.06-.09-.06-.15,0-.09.05-.18.13-.22,1.35-.68,2.88-2.41,3.12-2.86,0,0-.03-.06-.04-.1-.07-.18-.18-.47.03-.9.05-.1.16-.15.26-.12.11.03.18.12.18.24,0,.16.1.34.16.36.02,0,.03.01.04.01,0,0,.04,0,.15-.07.06-.03.13-.04.2-.02.06.02.12.07.14.14,0,.02.07.07.53,0,.11-.02.22.05.25.16.04.11-.01.22-.11.28-.48.27-.79.3-.99.32-.16.02-.2.02-.28.11l-.1.12c-.49.58-1.64,1.93-3.27,2.84-.04.02-.07.03-.12.03"/>
      <path class="cls-6" d="M32.31,6.95c.31.63.71,1.68.05,1.88.06-.26,0-.42,0-.71-.21.27-.02.6-.23.8-.59-.87-.01-1.34.18-1.97"/>
      <path class="cls-6" d="M33.52,6.58c.07.59.09,1.54-.49,1.51.12-.19.12-.33.2-.57-.24.15-.18.47-.41.57-.22-.86.37-1.07.7-1.52"/>
      <path class="cls-6" d="M33.31,8.18c.11.65.09,1.51-.61,1.56.16-.14.17-.36.24-.55-.2.17-.29.63-.57.59-.05-.72.43-1.17.95-1.59"/>
      <path class="cls-6" d="M31.65,10.39c-.38-.62-.03-1.1.15-1.57.39.47.65,1.44.07,1.57.08-.15.04-.34.02-.53-.15.15-.02.4-.24.52"/>
      <path class="cls-6" d="M31.25,11.59c-.56-.68-.16-1.03.08-1.51.3.58.51,1.14.1,1.49-.1-.22-.13-.39-.1-.49-.18.1,0,.31-.08.51"/>
      <path class="cls-6" d="M31.88,11.15c0-.48.37-1.15,1.05-1.35-.05.46-.09,1.38-.78,1.4.1-.11.29-.27.17-.44,0,.16-.26.45-.45.38"/>
      <path class="cls-6" d="M29.27,13.44c.1.36.25,1.14-.35,1.3-.03-.16-.07-.31.03-.5-.18.15-.14.36-.12.49-.09-.05-.31-.11-.23-.44.08-.32.37-.64.67-.86"/>
      <path class="cls-6" d="M29.15,14.75c.08.22.34.22.78.15-.83.48-1.03.14-1.33.49-.42.49-1.59,1.94-3.31,2.91-.01-.03.02-.07-.05-.1,1.37-.69,2.96-2.47,3.22-2.97.12-.23-.28-.44-.01-.99,0,.24.13.53.33.59.09.03.16.05.38-.08"/>
      <path class="cls-8" d="M29.39,14.66c0-.61.69-.78,1.15-.92-.18.57-.46,1.24-1.04,1.06.2-.08.35-.19.33-.35-.11.14-.25.26-.44.22M31.68,12.7c-.21.45-.67,1.18-1.25.91.13-.08.27-.06.32-.26-.16.09-.23.12-.41.15.14-.69.83-.87,1.34-.8M31.22,12.51c-.14-.62.79-1.13,1.36-1.06-.38.32-.44,1.2-1.2,1.1.14-.09.29-.16.31-.4-.12.13-.26.28-.48.36M29.65,13.76c.03-.11.28-.24.14-.43-.04.18-.21.26-.27.38-.06-.01-.17-.21-.12-.42.09-.41.45-.42.8-.81.19.45.08,1.23-.54,1.28M30.85,11.28c.17.52.28,1.05-.31,1.33-.07-.23-.04-.25-.03-.44-.16.17-.15.23-.1.44-.46-.56.03-.96.44-1.33"/>
      <path class="cls-4" d="M29.68,5.25c.48.59,1.16,1.6.52,1.98,0-.29-.1-.44-.17-.75-.16.33.13.64-.05.9-.84-.78-.34-1.42-.3-2.12"/>
      <path class="cls-4" d="M29.98,7.62c-.06,0-.13-.02-.17-.07-.73-.68-.58-1.32-.46-1.84.04-.17.08-.33.09-.49,0-.1.08-.19.18-.22.1-.03.21,0,.27.08.63.77.91,1.38.83,1.83-.04.23-.17.41-.38.53-.04.02-.08.03-.12.03,0,.01-.01.02-.02.03-.04.06-.11.1-.18.11-.01,0-.02,0-.03,0M29.83,5.86c-.05.23-.1.42-.08.61.01-.04.03-.08.04-.11.05-.1.15-.15.25-.14-.06-.11-.13-.23-.21-.36"/>
      <path class="cls-4" d="M30.87,4.57c.21.6.47,1.6-.15,1.72.08-.23.05-.38.08-.65-.22.22-.08.54-.29.7-.44-.86.13-1.23.37-1.78"/>
      <path class="cls-4" d="M30.5,6.59s-.04,0-.06,0c-.07-.02-.13-.06-.17-.13-.4-.77-.09-1.25.16-1.64.08-.12.15-.24.21-.36.04-.1.14-.16.24-.15.1,0,.2.07.23.17.29.8.33,1.38.13,1.72-.1.18-.27.29-.48.33-.03,0-.07,0-.1,0,0,0,0,0-.01,0-.04.03-.1.05-.15.05M30.8,5.2c-.05.08-.09.15-.12.22.05-.03.11-.04.16-.03,0-.06-.02-.12-.04-.19"/>
      <path class="cls-4" d="M31.04,6.3c.28.66.46,1.57-.27,1.79.13-.19.09-.42.12-.64-.17.23-.16.73-.46.76-.23-.75.17-1.34.61-1.91"/>
      <path class="cls-4" d="M30.43,8.47c-.11,0-.21-.07-.24-.18-.26-.86.18-1.52.65-2.14.05-.07.14-.11.23-.1.09.01.16.07.2.15.2.48.39,1.15.16,1.64-.11.24-.32.41-.59.49-.04.01-.07.01-.11,0-.07.06-.17.11-.28.12h-.02M30.96,6.84c-.09.14-.17.28-.23.42.07-.06.17-.08.25-.04.02,0,.03.01.05.02,0-.12-.03-.26-.07-.4"/>
      <path class="cls-4" d="M29.19,10.18c.31.51.56,1.05,0,1.48-.13-.22-.11-.26-.13-.46-.13.22-.1.28,0,.49-.63-.48-.2-1.02.14-1.51"/>
      <path class="cls-4" d="M29.05,11.95c-.05,0-.11-.02-.15-.05-.79-.61-.29-1.32.04-1.79l.05-.07c.05-.07.12-.11.22-.11.08,0,.16.05.21.12.24.39.73,1.2-.07,1.81-.05.04-.11.06-.17.05-.04.02-.08.03-.12.03M29.05,10.95s.04,0,.05,0c.07.01.13.06.16.12,0-.12-.03-.25-.1-.41-.07.11-.12.2-.15.29,0,0,.02,0,.03,0"/>
      <path class="cls-4" d="M29.82,9.05c-.55-.56-.3-1.15-.23-1.7.52.4,1.03,1.36.46,1.65.05-.18-.05-.37-.1-.56-.12.19.07.43-.13.61"/>
      <path class="cls-4" d="M29.82,9.31c-.07,0-.13-.03-.18-.08-.55-.56-.44-1.16-.34-1.63.02-.09.03-.19.05-.28.01-.09.07-.17.15-.2.08-.03.18-.02.25.03.44.33.86.99.81,1.5-.03.26-.16.46-.39.57-.05.03-.12.03-.18.02-.05.04-.11.06-.16.06M29.76,7.88c-.02.15-.04.29-.03.44,0,0,0,0,0-.01.05-.07.13-.11.21-.12-.05-.1-.11-.21-.19-.31"/>
      <path class="cls-4" d="M29.69,10.41c-.75-.58-.42-1.06-.28-1.62.46.54.82,1.08.47,1.55-.16-.22-.23-.38-.23-.49-.17.15.08.32.04.56"/>
      <path class="cls-4" d="M29.69,10.66c-.05,0-.11-.02-.15-.05-.77-.59-.59-1.17-.45-1.63.03-.08.05-.17.07-.25.02-.09.1-.16.19-.18.09-.02.19.01.25.08.32.38,1,1.17.47,1.87-.05.06-.12.1-.2.1h-.01s-.05.04-.08.05c-.03.01-.06.02-.1.02M29.52,9.33c-.03.12-.05.23-.04.34,0,0,0,0,.01-.01.05-.05.12-.07.19-.06-.04-.08-.09-.17-.16-.27"/>
      <path class="cls-4" d="M30.26,9.8c-.12-.51.11-1.31.78-1.69.06.49.24,1.48-.48,1.67.08-.14.24-.35.08-.5.04.17-.17.54-.38.52"/>
      <path class="cls-4" d="M30.27,10.05s-.03,0-.04,0c-.11,0-.2-.09-.22-.2-.14-.63.13-1.52.91-1.96.07-.04.16-.04.24,0,.08.04.13.11.14.19v.1c.08.52.22,1.6-.67,1.84-.06.02-.12.01-.17-.01-.06.02-.12.03-.18.03M30.63,9.02c.07,0,.13.03.18.08,0,0,.01.01.02.02.03-.15.03-.33.01-.53-.12.13-.21.29-.27.44.02,0,.04,0,.05,0"/>
      <path class="cls-4" d="M28.54,13.1c0-.12.24-.33.04-.49,0,.19-.16.33-.19.47-.07,0-.23-.19-.23-.42,0-.45.37-.55.64-1.05.31.43.39,1.28-.25,1.48"/>
      <path class="cls-4" d="M28.54,13.36s-.08,0-.11-.03c-.01,0-.02,0-.03,0h0c-.28,0-.5-.36-.5-.66,0-.37.18-.58.37-.77.11-.11.21-.23.31-.4.04-.07.12-.12.21-.13.09,0,.17.03.22.1.26.36.35.88.22,1.28-.1.29-.31.51-.61.6-.02,0-.05.01-.07.01M28.58,12.36c.06,0,.12.02.16.06.01,0,.02.02.03.03.01-.1,0-.21-.02-.32-.04.05-.08.08-.11.12-.04.05-.08.09-.11.12.02,0,.04,0,.06,0"/>
      <path class="cls-4" d="M28.06,12.86c.19.36.55,1.14-.05,1.47-.06-.16-.15-.31-.09-.53-.15.2-.06.42-.01.55-.1-.03-.36-.04-.35-.41,0-.36.24-.77.5-1.08"/>
      <path class="cls-4" d="M27.9,14.59s-.04,0-.06,0h-.03c-.35-.08-.52-.3-.52-.66.01-.53.4-1.04.57-1.23.05-.06.14-.09.22-.09.08.01.16.06.2.13.16.31.26.59.3.83.06.44-.1.79-.45.98-.04.02-.09.03-.14.03-.03.01-.06.02-.09.02M27.91,13.54s.07,0,.11.02c.02,0,.03.02.05.03-.01-.07-.03-.15-.06-.23-.03.06-.07.12-.09.18h0Z"/>
      <path class="cls-4" d="M29.88,11.39c-.3-.62.56-1.39,1.19-1.45-.32.44-.17,1.38-1,1.45.13-.12.27-.24.23-.5-.09.17-.21.37-.41.5"/>
      <path class="cls-4" d="M30.07,11.65s-.06,0-.09-.02c-.05.02-.11.02-.16,0-.07-.02-.13-.07-.16-.14-.13-.28-.11-.6.07-.91.26-.46.83-.85,1.32-.9.1-.01.2.04.25.13.05.09.04.19-.02.28-.08.11-.13.28-.18.47-.12.43-.27,1.02-1,1.08h-.02M30.3,10.65s.03,0,.04,0c.07.01.12.05.16.11.03-.09.06-.2.1-.32,0-.02.01-.04.01-.06-.12.07-.23.17-.32.27"/>
      <path class="cls-4" d="M30.42,11.49c-.11.53-.42,1.41-1.1,1.27.12-.12.27-.13.28-.35-.15.13-.22.19-.4.25-.01-.77.67-1.12,1.22-1.17"/>
      <path class="cls-4" d="M29.47,13.02c-.06,0-.13,0-.2-.02-.06-.01-.12-.05-.16-.11-.02,0-.04-.02-.05-.03-.07-.05-.11-.12-.11-.2-.02-.89.74-1.36,1.45-1.43.08,0,.16.03.21.08.05.06.07.14.06.22-.2.95-.63,1.48-1.2,1.48M29.61,12.15s.06,0,.1.02c.05.02.1.07.12.12.1-.12.17-.29.24-.47-.17.06-.34.17-.46.32"/>
      <path class="cls-4" d="M28.48,14.12c-.14-.64.54-.99.99-1.26-.06.65-.19,1.43-.85,1.37.2-.13.33-.28.27-.45-.08.17-.2.33-.41.33"/>
      <path class="cls-4" d="M28.68,14.49s-.05,0-.08,0c-.08,0-.16-.06-.2-.13-.08-.03-.15-.09-.17-.18-.18-.79.55-1.21,1.02-1.48l.08-.05c.08-.05.18-.05.26,0,.08.05.13.14.12.23-.04.48-.14,1.61-1.04,1.61M28.92,13.53c.06,0,.12.04.16.08.03-.08.05-.16.07-.26-.08.06-.16.12-.23.18"/>
      <path class="cls-4" d="M28.25,14.28c.14.21.41.15.87-.03-.77.71-1.06.4-1.29.84-.33.62-1.21,2.44-2.79,3.88-.02-.03,0-.08-.08-.09,1.28-1.06,2.53-3.33,2.68-3.92.07-.27-.41-.4-.26-1.05.05.25.27.53.49.54.1,0,.18.01.38-.18"/>
      <path class="cls-4" d="M25.03,19.23s-.02,0-.03,0c-.07,0-.14-.05-.18-.11,0,0-.01-.02-.02-.03-.05-.03-.08-.08-.09-.14-.03-.1,0-.2.08-.26,1.26-1.04,2.46-3.26,2.6-3.79,0,0-.04-.05-.07-.09-.12-.17-.31-.45-.19-.95.03-.12.13-.2.25-.19.12,0,.22.09.24.2.03.17.19.34.26.34h.03s.12-.07.15-.11c.06-.05.13-.08.2-.07.07,0,.14.05.18.11,0,.01.01.02.05.02.12,0,.32-.07.51-.15.11-.04.24,0,.3.1.06.1.05.24-.04.32-.44.41-.76.51-.97.59-.16.05-.21.07-.27.19l-.08.15c-.38.73-1.27,2.43-2.77,3.8-.05.04-.11.06-.17.06"/>
      <path class="cls-6" d="M28.06,12.86c.19.36.55,1.14-.05,1.47-.06-.16-.15-.31-.09-.53-.15.2-.06.42-.01.55-.1-.03-.36-.04-.35-.41,0-.36.24-.77.5-1.08"/>
      <path class="cls-6" d="M28.25,14.28c.14.21.41.15.87-.03-.77.71-1.06.4-1.29.84-.33.62-1.21,2.44-2.79,3.88-.02-.03,0-.08-.08-.09,1.28-1.06,2.53-3.33,2.68-3.92.07-.27-.41-.4-.26-1.05.05.25.27.53.49.54.1,0,.18.01.38-.18"/>
      <path class="cls-1" d="M29.9,1.72c.35.6.58,2.5.52,2.8,0,.02-.03.04-.05.04-.03,0-.04-.02-.04-.04.06-.3-.11-2.02-.46-2.76-.02-.03-.04-.08-.04-.1.02-.01.06.04.07.06M30.34,1s.04.06.05.08c.33,1.15.35,2.89.28,3.2,0,.02-.03.04-.05.04-.03,0-.04-.02-.04-.04.07-.3.07-1.98-.21-3.18,0-.02-.02-.07-.03-.1M30.63.02s.06.04.07.06c.65,1.61.47,2.89.34,3.85v.04s-.03.04-.06.04c-.02,0-.04-.01-.04-.04v-.05c.13-.96.35-2.14-.26-3.77,0-.02-.05-.12-.05-.15M31.4.34s.05.06.05.08c.43,1.64-.08,3.67-.09,3.7,0,.02-.03.04-.06.04-.03,0-.04-.02-.03-.04,0-.02.57-2.06.14-3.69,0-.02-.02-.07-.02-.09M32.08.98s.05.12.05.18c.03.85-.05,1.85-.62,3.69,0,.02-.03.04-.06.04-.02,0-.04-.02-.03-.04.43-1.38.71-2.38.67-3.67,0-.02-.03-.18-.02-.19"/>
      <path class="cls-4" d="M31.46,4.89h0s-.03,0-.04-.02c0-.01,0-.02,0-.04.45-1.44.71-2.4.67-3.67,0,0,0-.03,0-.05-.02-.12-.01-.14,0-.15h.01s0,0,0,0c.03.03.05.14.05.18.02.8-.03,1.8-.62,3.69,0,.03-.04.04-.06.04M32.09,1.02s0,.07.01.09c0,.03,0,.05,0,.05.04,1.27-.23,2.24-.67,3.67,0,0,0,.01,0,.02,0,0,.01,0,.02,0h0s0,0,0,0c.02,0,.04-.01.04-.03.59-1.88.64-2.88.62-3.68,0-.04-.01-.1-.03-.14M30.36,4.57s-.03,0-.04-.02c0,0-.01-.02,0-.04.05-.28-.1-2-.46-2.75-.02-.03-.04-.08-.04-.1h0s0-.01,0-.01c0,0,.01,0,.01,0,.03,0,.07.05.08.06.35.59.58,2.48.52,2.81,0,.03-.03.05-.06.05h0ZM29.84,1.68s.03.06.04.08c.37.77.51,2.48.46,2.77,0,0,0,.01,0,.01,0,0,.01,0,.02,0h0s0,0,0,0c.02,0,.04-.02.04-.03.06-.32-.17-2.21-.52-2.79,0-.02-.03-.04-.05-.05M30.61,4.32s-.03,0-.04-.02c0-.01-.01-.02,0-.04.06-.29.08-1.97-.21-3.17,0-.02-.02-.07-.02-.09h0s.02-.01.02-.01c.03,0,.06.08.06.08.33,1.14.35,2.9.28,3.2,0,.03-.03.05-.06.05h0ZM30.36,1.05s0,.03.01.04c.28,1.21.28,2.9.21,3.18,0,0,0,.01,0,.02,0,0,.01,0,.02,0h0s0,0,0,0c.02,0,.04-.01.04-.03.07-.3.05-2.05-.28-3.19,0,0,0-.02-.01-.03M31.31,4.17h0s-.03,0-.04-.02c0-.01,0-.02,0-.04.02-.09.56-2.09.14-3.68,0-.02-.02-.07-.02-.09v-.02s.01,0,.01,0c.04,0,.05.06.06.08h0c.43,1.64-.08,3.69-.09,3.71,0,.03-.04.05-.07.05M31.41.36s0,.05.01.07c.42,1.59-.12,3.6-.14,3.69,0,0,0,.01,0,.02,0,0,.01,0,.02,0h0s0,0,0,0c.02,0,.04-.01.04-.03,0-.02.52-2.06.09-3.69h0s-.01-.05-.03-.06M30.97,4.03s-.03,0-.04-.02c0,0-.01-.02-.01-.03v-.05c.01-.06.02-.13.03-.19.12-.92.28-2.06-.29-3.57,0,0,0-.01,0-.02-.02-.05-.05-.11-.05-.13h0s.01-.01.01-.01c0,0,0,0,.01,0,.04,0,.06.06.07.07.64,1.58.47,2.86.35,3.8v.1s-.04.05-.08.05h0M30.64.03s.03.09.04.12c0,0,0,.02,0,.02.57,1.52.42,2.66.29,3.58,0,.06-.02.13-.02.19v.04s0,.01,0,.02c0,0,.01,0,.02,0,.02,0,.04-.02.04-.04v-.1c.14-.93.3-2.21-.33-3.79-.01-.02-.03-.05-.04-.05"/>
      <path class="cls-8" d="M28.48,14.12c-.14-.64.54-.99.99-1.26-.06.65-.19,1.43-.85,1.37.2-.13.33-.28.27-.45-.08.17-.2.33-.41.33M30.42,11.49c-.11.53-.42,1.41-1.1,1.27.12-.12.27-.13.28-.35-.15.13-.22.19-.4.25-.01-.77.67-1.12,1.22-1.17M29.88,11.39c-.3-.62.56-1.39,1.19-1.45-.32.44-.17,1.38-1,1.45.13-.12.27-.24.23-.5-.09.17-.21.37-.41.5M28.54,13.1c0-.12.24-.33.04-.49,0,.19-.16.33-.19.47-.07,0-.23-.19-.23-.42,0-.45.37-.55.64-1.05.31.43.39,1.28-.25,1.48M30.26,9.8c-.12-.51.11-1.31.78-1.69.06.49.24,1.48-.48,1.67.08-.14.24-.35.08-.5.04.17-.17.54-.38.52M29.7,10.41c-.75-.58-.42-1.05-.28-1.62.46.54.82,1.08.47,1.55-.16-.21-.23-.38-.23-.49-.17.15.08.32.04.56M29.82,9.05c-.55-.56-.3-1.15-.23-1.7.52.4,1.03,1.36.46,1.65.05-.18-.05-.37-.1-.56-.12.19.07.43-.13.61M29.19,10.18c.31.51.56,1.05,0,1.48-.13-.22-.11-.26-.13-.46-.13.22-.1.28,0,.49-.63-.48-.2-1.02.14-1.51M31.04,6.3c.28.66.46,1.57-.27,1.79.13-.19.09-.42.12-.64-.17.23-.16.73-.46.76-.23-.75.17-1.34.61-1.91M30.87,4.57c.21.6.47,1.6-.15,1.72.08-.23.05-.38.07-.65-.22.22-.08.54-.29.7-.44-.86.13-1.23.37-1.78M29.68,5.25c.48.59,1.16,1.6.52,1.98,0-.29-.1-.44-.17-.75-.16.33.13.64-.05.9-.84-.78-.34-1.42-.3-2.12"/>
      <path class="cls-4" d="M24.57,2.22c.93.47,2.36,1.36,1.75,2.19-.16-.35-.37-.5-.64-.85-.02.51.52.73.44,1.15-1.48-.51-1.22-1.59-1.56-2.5"/>
      <path class="cls-4" d="M26.13,5.07s-.08,0-.11-.02c-1.3-.45-1.47-1.33-1.61-2.05-.04-.23-.09-.45-.16-.66-.05-.14-.01-.29.1-.38.11-.1.26-.12.39-.05,1.22.61,1.91,1.23,2.06,1.83.07.31.01.61-.18.87-.03.05-.08.08-.12.11,0,.02,0,.04,0,.05-.02.1-.08.19-.16.24-.05.03-.12.05-.18.05M25.1,2.92c.06.31.12.58.25.82,0-.05-.01-.11,0-.17,0-.14.1-.27.23-.32-.14-.11-.29-.22-.47-.33"/>
      <path class="cls-4" d="M25.68.71c.61.64,1.49,1.75.77,2.24-.03-.33-.15-.5-.27-.86-.16.4.2.73.03,1.04-1.04-.83-.52-1.61-.53-2.43"/>
      <path class="cls-4" d="M26.21,3.49c-.08,0-.16-.03-.22-.08-.93-.75-.81-1.52-.71-2.14.03-.2.06-.38.06-.56,0-.14.09-.27.22-.33.13-.05.28-.02.38.08.8.85,1.18,1.55,1.13,2.09-.03.28-.17.52-.42.68-.04.03-.08.04-.12.05,0,0,0,.01-.01.02-.05.09-.14.15-.24.17-.02,0-.04,0-.07,0M25.93,1.54c-.02.12-.03.23-.03.34.05-.06.11-.1.19-.12-.05-.07-.1-.14-.16-.22"/>
      <path class="cls-4" d="M26.86,2.79c.72.67,1.46,1.72.66,2.4.06-.31-.12-.58-.21-.87-.08.38.22,1-.15,1.21-.7-.82-.54-1.77-.3-2.74"/>
      <path class="cls-4" d="M27.16,5.88c-.1,0-.2-.04-.26-.12-.8-.93-.63-2.02-.37-3.05.03-.12.12-.21.24-.25.12-.03.25,0,.34.08.52.49,1.13,1.22,1.12,1.97,0,.36-.17.69-.46.95-.04.03-.08.06-.13.07-.06.12-.15.23-.29.31-.05.03-.11.04-.17.04M27.06,3.51c-.04.23-.06.44-.06.65.06-.11.17-.19.3-.19.03,0,.05,0,.07,0-.08-.15-.18-.31-.31-.47"/>
      <path class="cls-4" d="M26.71,8.69c.68.47,1.28,1,.82,1.86-.29-.2-.28-.26-.42-.5-.04.35.03.4.27.61-1.05-.26-.82-1.17-.67-1.98"/>
      <path class="cls-4" d="M27.37,11.01s-.05,0-.08,0c-1.33-.32-1.1-1.5-.95-2.27l.02-.11c.02-.11.1-.21.21-.25.11-.04.23-.03.33.04.51.36,1.59,1.09.93,2.32-.04.08-.11.13-.19.16-.07.08-.17.13-.27.13M27.11,9.71c.07,0,.14.02.2.06-.06-.15-.17-.29-.35-.46-.03.17-.04.32-.03.45.03-.02.07-.04.11-.05.02,0,.05,0,.07,0"/>
      <path class="cls-4" d="M26.87,6.92c-1.01-.4-1.02-1.28-1.23-2.01.88.21,2.06,1.13,1.49,1.82-.04-.25-.26-.44-.44-.65-.05.31.33.5.18.84"/>
      <path class="cls-4" d="M26.87,7.27s-.09,0-.13-.02c-1-.4-1.19-1.21-1.34-1.86-.03-.13-.06-.25-.1-.38-.03-.12,0-.25.08-.33.09-.09.21-.13.33-.1.73.17,1.63.76,1.85,1.44.11.33.05.67-.17.94-.05.07-.13.11-.21.12-.06.12-.18.2-.31.2M26.13,5.49c.05.2.11.39.21.56,0,0,0-.01,0-.02.02-.11.09-.21.2-.26-.12-.1-.26-.2-.41-.28"/>
      <path class="cls-4" d="M27.47,8.7c-1.27-.3-1.12-1.09-1.25-1.88.87.42,1.63.9,1.45,1.68-.32-.18-.5-.35-.56-.49-.13.28.28.36.37.68"/>
      <path class="cls-4" d="M27.47,9.05s-.05,0-.08,0c-1.3-.31-1.39-1.13-1.47-1.8-.01-.12-.03-.24-.05-.36-.02-.13.03-.26.13-.33.1-.08.24-.09.36-.04.62.29,1.9.91,1.64,2.07-.02.11-.1.2-.2.24,0,0-.01,0-.01,0-.02.04-.04.08-.07.11-.07.07-.16.1-.25.1M26.65,7.44c.03.17.06.32.13.45,0,0,0-.01,0-.02.04-.09.12-.15.21-.18-.1-.08-.21-.16-.35-.25"/>
      <path class="cls-4" d="M27.83,7.62c-.43-.58-.6-1.7.04-2.55.35.58,1.12,1.72.33,2.37.03-.22.1-.58-.18-.68.15.18.09.77-.19.86"/>
      <path class="cls-4" d="M27.83,7.96c-.11,0-.21-.05-.28-.14-.53-.71-.69-1.99.04-2.97.07-.09.18-.15.3-.14.12,0,.22.07.28.17l.08.12c.37.62,1.15,1.9.17,2.69-.06.05-.15.08-.22.08-.07.08-.16.13-.25.17-.04,0-.07.02-.11.02M27.89,5.77c-.08.24-.1.48-.09.7.09-.07.22-.09.34-.05.01,0,.02,0,.03.01-.05-.21-.15-.43-.28-.66"/>
      <path class="cls-4" d="M27.52,12.73c-.06-.16.12-.54-.23-.64.11.24-.02.5.02.7-.08.04-.4-.1-.53-.39-.26-.56.16-.9.22-1.67.63.37,1.2,1.4.51,2"/>
      <path class="cls-4" d="M27.28,13.14c-.26,0-.64-.23-.81-.6-.21-.46-.09-.82.03-1.17.07-.2.14-.41.16-.67,0-.12.08-.22.18-.28.1-.06.23-.05.33,0,.53.31.94.91.99,1.48.04.42-.11.81-.43,1.09-.07.06-.15.09-.24.08-.01,0-.02.02-.04.02-.06.03-.12.04-.19.04M27.23,11.38c-.03.08-.05.15-.07.22-.03.08-.05.15-.07.22.09-.06.2-.09.3-.06.02,0,.04.01.05.02-.04-.13-.12-.27-.21-.39"/>
      <path class="cls-4" d="M26.78,12.68c.44.34,1.32,1.13.75,1.86-.17-.16-.36-.31-.41-.62-.08.34.15.55.29.69-.14.02-.47.15-.67-.31-.19-.46-.13-1.09.03-1.63"/>
      <path class="cls-4" d="M27.19,15.01c-.2,0-.55-.07-.76-.56-.28-.68-.08-1.53.02-1.86.03-.11.12-.2.23-.23.11-.04.23-.01.32.06.38.29.66.59.84.87.32.52.31,1.04-.02,1.48-.04.05-.1.09-.16.11-.05.05-.11.08-.18.1h-.03c-.06.02-.15.04-.25.04M26.99,13.34c0,.1-.02.19-.02.28.05-.02.1-.03.15-.03.03,0,.05,0,.07.01-.06-.08-.13-.17-.21-.26"/>
      <path class="cls-4" d="M28.25,9.83c-.72-.62-.07-2.06.68-2.48-.16.73.56,1.83-.44,2.38.09-.23.2-.46.01-.75-.02.26-.06.57-.24.85"/>
      <path class="cls-4" d="M28.25,10.18c-.08,0-.16-.03-.23-.08-.32-.27-.47-.69-.43-1.18.07-.73.56-1.53,1.16-1.87.12-.07.27-.06.38.02.11.08.16.22.13.36-.04.18,0,.43.04.69.1.6.22,1.43-.65,1.92-.05.03-.1.04-.15.04-.05.05-.12.09-.2.1-.02,0-.03,0-.05,0M28.5,8.63c.06,0,.13.02.18.05,0-.13-.03-.29-.06-.46,0-.02,0-.05-.01-.08-.1.16-.19.34-.25.51.02,0,.03-.01.05-.02.03,0,.06-.01.08-.01"/>
      <path class="cls-4" d="M28.98,9.64c.15.73.26,2-.67,2.2.08-.22.27-.32.15-.59-.11.25-.16.35-.36.54-.45-.96.21-1.78.88-2.15"/>
      <path class="cls-4" d="M28.32,12.19c-.07,0-.13-.02-.19-.05-.03,0-.06,0-.09,0-.11-.02-.2-.09-.25-.19-.52-1.11.16-2.13,1.02-2.6.1-.05.21-.06.31-.01.1.05.17.14.2.24.31,1.47-.03,2.42-.94,2.61-.02,0-.05,0-.07,0M28.46,10.9h0c.08,0,.16.03.22.08.05-.22.05-.48.04-.72-.18.18-.33.4-.39.66.04-.02.09-.03.13-.03"/>
      <path class="cls-4" d="M28.01,14.03c-.54-.73.12-1.55.54-2.13.3.85.56,1.9-.29,2.2.17-.28.25-.53.08-.71,0,.26-.06.52-.32.65"/>
      <path class="cls-4" d="M28.26,14.44c-.07,0-.15-.02-.21-.06-.12.01-.24-.04-.32-.14-.66-.89.01-1.82.46-2.43l.08-.11c.07-.11.2-.16.33-.14.13.02.24.11.28.23.21.6.76,2.19-.5,2.64-.04.01-.08.02-.11.02M28.34,13.03s.1.01.14.03c0-.1-.03-.23-.05-.37-.07.12-.13.24-.18.35.03-.01.06-.01.1-.01"/>
      <path class="cls-4" d="M27.81,14.36c.29.19.59-.04,1.07-.52-.56,1.31-1.1,1.1-1.15,1.78-.06.96-.15,3.74-1.34,6.43-.05-.03-.04-.1-.15-.07,1.01-2.05,1.31-5.6,1.17-6.42-.06-.38-.74-.28-.91-1.17.2.29.64.51.93.4.12-.05.23-.08.38-.43"/>
      <path class="cls-4" d="M26.4,22.4c-.07,0-.13-.02-.19-.06-.01,0-.02-.02-.03-.02-.08-.02-.15-.06-.2-.12-.09-.11-.1-.25-.04-.38,1-2.01,1.27-5.46,1.14-6.21,0,0-.08-.05-.13-.08-.24-.15-.64-.4-.78-1.09-.03-.16.06-.32.21-.39.15-.06.33-.01.42.12.11.15.33.29.48.29.02,0,.03,0,.04,0,.06-.02.09-.03.18-.24.04-.1.12-.17.22-.2.1-.03.21-.02.29.04.11.01.31-.15.64-.47.12-.12.3-.14.44-.04.14.09.19.27.12.43-.33.76-.66,1.07-.88,1.27-.18.16-.22.2-.23.39v.23c-.08,1.13-.24,3.76-1.36,6.32-.04.09-.12.17-.22.19-.03.01-.07.01-.1.01"/>
      <path class="cls-6" d="M27.81,14.36c.29.19.59-.04,1.07-.52-.56,1.31-1.1,1.1-1.15,1.78-.06.96-.15,3.74-1.34,6.43-.05-.03-.04-.1-.15-.07,1.01-2.05,1.31-5.6,1.17-6.42-.06-.38-.74-.28-.91-1.17.2.29.64.51.93.4.12-.05.23-.08.38-.43"/>
      <path class="cls-8" d="M28.01,14.03c-.54-.73.12-1.55.54-2.13.3.85.56,1.89-.29,2.2.17-.28.25-.53.08-.71,0,.26-.06.52-.32.65M28.98,9.64c.15.73.26,2-.67,2.2.08-.22.27-.32.15-.59-.11.25-.16.35-.36.54-.45-.96.21-1.78.88-2.15M28.25,9.83c-.72-.62-.07-2.06.68-2.48-.16.73.56,1.83-.44,2.38.09-.23.2-.46.01-.75-.02.26-.06.57-.24.85M26.78,12.68c.44.34,1.32,1.13.75,1.86-.17-.16-.36-.31-.42-.62-.08.34.15.55.3.69-.14.02-.48.15-.67-.31-.19-.46-.13-1.09.03-1.63M27.52,12.73c-.06-.16.12-.54-.23-.64.11.24-.02.5.02.7-.08.04-.4-.1-.53-.39-.26-.56.16-.9.22-1.67.63.37,1.2,1.4.51,2M27.83,7.62c-.43-.58-.6-1.7.04-2.55.35.58,1.12,1.72.33,2.37.03-.22.1-.58-.18-.68.15.19.09.77-.19.86M27.47,8.7c-1.27-.3-1.12-1.09-1.25-1.88.87.42,1.63.9,1.45,1.68-.32-.18-.51-.35-.56-.49-.13.28.28.36.37.68M26.87,6.92c-1.01-.4-1.02-1.28-1.23-2.01.88.21,2.06,1.13,1.49,1.82-.04-.25-.26-.44-.44-.65-.05.31.33.5.18.84M26.71,8.69c.68.47,1.28,1,.82,1.86-.29-.2-.28-.26-.42-.5-.04.35.03.4.27.61-1.05-.26-.82-1.17-.67-1.98M26.86,2.79c.72.67,1.46,1.72.66,2.4.06-.31-.12-.58-.21-.87-.08.38.22,1-.15,1.21-.7-.82-.54-1.77-.3-2.74M25.68.71c.61.64,1.49,1.75.77,2.24-.03-.33-.15-.5-.27-.86-.16.4.2.73.03,1.04-1.04-.83-.52-1.61-.53-2.43M24.57,2.22c.93.47,2.36,1.36,1.75,2.19-.16-.35-.37-.5-.64-.85-.02.51.52.73.44,1.15-1.48-.51-1.22-1.59-1.56-2.5"/>
      <path class="cls-8" d="M25.47,16.75c.22-.47-.23-.86-.53-1.14-.07.51-.11,1.12.4,1.2-.13-.14-.2-.27-.12-.39.03.14.09.29.25.33M24.44,14.4c0,.43.07,1.15.61,1.16-.07-.11-.18-.15-.15-.32.09.13.13.18.26.27.15-.59-.31-.98-.73-1.11M24.87,14.42c.34-.42-.18-1.16-.65-1.32.17.39-.11,1.08.51,1.29-.07-.12-.16-.23-.09-.42.04.15.1.32.23.45M26.01,15.86c-.21.24-.62.78-.22,1.13.08-.11.17-.21.16-.39.08.18-.02.33-.09.42.08,0,.28.03.34-.25.06-.28-.05-.63-.19-.91M25.6,15.96c.02-.09-.12-.29.05-.38-.04.15.07.28.07.39.05.01.21-.1.25-.28.08-.35-.19-.49-.31-.91-.32.27-.52.91-.07,1.18M24.87,13.13c.18-.37.15-1.02-.3-1.42-.13.37-.44,1.09.08,1.36-.04-.12-.12-.31.03-.4-.06.12.03.44.2.46M25.19,13.7c.68-.31.51-.73.5-1.19-.45.33-.82.68-.63,1.1.16-.14.25-.25.26-.33.11.14-.12.23-.13.42M25.34,12.64c.52-.33.43-.83.47-1.26-.47.21-1.03.86-.64,1.18,0-.15.1-.28.18-.41.06.17-.13.32,0,.49M25.62,13.61c-.33.34-.61.71-.26,1.14.14-.15.13-.18.18-.33.06.19.03.23-.08.37.56-.26.33-.75.16-1.18M24.89,10.32c-.33.46-.63,1.12-.11,1.42-.07-.17,0-.34.02-.51.09.21-.01.59.22.66.3-.53.11-1.05-.13-1.57M25.32,9.02c-.27.42-.65,1.15-.19,1.34-.02-.19.03-.3.06-.51.13.21-.03.43.1.59.49-.58.12-.96.03-1.42M26.11,9.76c-.47.36-1.17,1.02-.74,1.42.05-.22.15-.32.26-.54.06.28-.21.46-.12.7.78-.45.51-1.02.6-1.57"/>
      <path class="cls-8" d="M24.67,17c.1-.47-.39-.72-.71-.91.04.47.13,1.03.61.99-.14-.1-.24-.2-.19-.33.06.12.14.24.29.24M23.27,15.1c.08.38.3,1.02.79.92-.08-.09-.2-.1-.2-.25.11.09.15.14.29.18.01-.55-.48-.81-.88-.84M23.66,15.04c.21-.45-.41-1-.86-1.05.23.31.12,1,.72,1.05-.09-.09-.19-.18-.17-.36.07.12.15.26.3.36M24.63,16.27c0-.09-.18-.24-.03-.35,0,.14.12.24.14.34.05,0,.17-.14.17-.3,0-.33-.27-.4-.47-.76-.23.31-.28.93.19,1.07M23.39,13.88c.08-.37-.08-.94-.57-1.22-.04.36-.17,1.07.35,1.21-.06-.1-.17-.26-.06-.37-.03.12.12.39.27.37M23.8,14.32c.54-.42.31-.76.2-1.17-.33.39-.59.78-.33,1.12.11-.15.17-.28.17-.35.12.11-.06.24-.03.4M24.16,14.16c-.23.37-.4.76,0,1.07.09-.16.08-.19.1-.33.09.16.07.2,0,.35.45-.35.14-.74-.1-1.09M24.02,17.5c-.01-.42-.49-.53-.81-.63.13.4.34.86.74.72-.14-.05-.25-.12-.23-.24.07.09.17.17.31.15M24.09,16.65c-.06.25-.16.79.26.9.01-.11.04-.22-.03-.34.12.1.1.25.09.34.06-.03.22-.08.15-.31-.06-.22-.27-.44-.48-.59M23.83,16.88c-.02-.07-.2-.16-.1-.3.03.12.15.18.19.26.04,0,.12-.15.08-.29-.07-.28-.32-.29-.56-.55-.13.32-.04.86.39.88"/>
      <path class="cls-8" d="M30.06,15.46c.13-.52.76-.52,1.18-.55-.28.45-.66.97-1.12.69.19-.03.34-.08.36-.23-.12.09-.27.17-.42.09M32.44,14.27c-.28.34-.83.87-1.26.51.13-.04.25,0,.33-.15-.16.04-.23.05-.39.04.27-.56.9-.57,1.32-.4M32.09,14c.02-.56.92-.8,1.4-.62-.4.2-.64.94-1.26.69.14-.04.28-.08.35-.28-.13.09-.29.19-.48.21M32.95,12.98c.11-.42.56-.91,1.19-.93-.14.38-.37,1.16-.97,1.04.11-.07.3-.17.25-.34-.03.14-.32.33-.47.23"/>
      <path class="cls-9" d="M33.68,15.55l-1.8,2.1-.09-.16c-.1-.17-.24-.31-.4-.39-.15-.07-.3-.1-.47-.11l-.25-.02,1.82-2.13c.14-.16.33-.24.52-.24.16,0,.32.05.45.17.49.43.23.78.23.78"/>
      <path class="cls-9" d="M20.7,19.43c0-.45.19-.97.5-1.36.3-.38.7-.63,1.1-.64h.01l2.84.38-.74.12s-.04.1-.03.16c.02.13.14.23.27.21l1.97-.23c.93-.08,3.56-.53,3.8-.57h.01c.1,0,.19,0,.27,0,.21,0,.37.02.46.07.1.05.16.11.23.27.04.09.06.18.06.28,0,.26-.14.5-.39.62h-.01s-4.33,1.27-4.33,1.27c-.04.01-.09.04-.12.07l-.35.41c-.09.1-.08.26.03.34.05.04.1.06.16.06.07,0,.14-.03.19-.09l.3-.35,4.27-1.25h.04c.35-.17.59-.48.67-.83v-.05s.05-.03.05-.03c.02-.02.04-.03.05-.05l2.42-2.82c.14-.16.33-.24.52-.24.16,0,.32.05.45.17.16.14.24.33.24.52,0,.16-.05.32-.17.45l-2.87,3.35-3.79,3.01h-6.5c-.9-.02-1.63-.74-1.63-1.64v-1.6Z"/>
      <path class="cls-5" d="M33.69,15.29s0,.09-.01.13c0,.02,0,.05,0,.07v.06s-1.8,2.1-1.8,2.1l-.09-.16c-.1-.17-.24-.31-.41-.39-.15-.07-.3-.1-.47-.11l-.25-.02,1.82-2.13c.14-.16.33-.24.52-.24.16,0,.32.05.45.17.16.14.24.33.24.52M20.7,19.43c0-.45.19-.97.5-1.36.3-.38.7-.63,1.1-.64h.01l2.2.33-.1.17s-.04.1-.03.16c.02.13.14.23.27.21l1.97-.23c.93-.08,3.56-.53,3.8-.57h.01c.1,0,.19,0,.27,0,.21,0,.37.02.46.07.1.05.16.11.23.27.04.09.06.18.06.28,0,.26-.14.5-.39.62h-.01s-4.33,1.27-4.33,1.27c-.04.01-.09.04-.12.07l-.35.41c-.09.1-.08.26.03.34.05.04.1.06.16.06.07,0,.14-.03.19-.09l.3-.35,4.27-1.25h.04c.35-.17.59-.48.67-.83v-.05s.05-.03.05-.03c.02-.02.04-.03.05-.05l2.42-2.82c.14-.16.33-.24.52-.24.16,0,.32.05.45.17.16.14.24.33.24.52,0,.16-.05.32-.17.45l-2.87,3.35-3.79,3.01h-6.5c-.9-.02-1.63-.74-1.63-1.64v-1.6ZM27.05,17.52c-.17.02-.32.04-.44.05h-.02s-4.22-.63-4.22-.63h-.04c-.62,0-1.14.35-1.51.83-.37.48-.6,1.08-.6,1.66v1.6c0,1.17.95,2.12,2.11,2.12h.86s5.73.01,5.73.01c.06,0,.11-.02.15-.05l3.87-3.08.04-.04,2.88-3.36c.19-.22.28-.5.28-.77,0-.33-.14-.66-.41-.9-.22-.19-.5-.28-.77-.28-.24,0-.48.07-.68.22l-.13.09-.06-.15c-.07-.17-.18-.32-.32-.45-.22-.19-.5-.29-.77-.29-.33,0-.66.14-.9.41l-.9,1.07-1.33,1.49c-.28.05-.67.11-1.08.18-.32.05-1.75.26-1.75.26"/>
    </g>
  </g>
</svg>