<?xml version="1.0" encoding="UTF-8"?>
<svg id="Layer_2" data-name="Layer 2" xmlns="http://www.w3.org/2000/svg" viewBox="0 0 56.69 39.76">
  <defs>
    <style>
      .cls-1 {
        fill: #cfd1d2;
      }

      .cls-1, .cls-2, .cls-3, .cls-4, .cls-5 {
        fill-rule: evenodd;
        stroke-width: 0px;
      }

      .cls-2 {
        fill: #919395;
      }

      .cls-3 {
        fill: #59595c;
      }

      .cls-4 {
        fill: #fff;
      }

      .cls-5 {
        fill: #00285d;
      }
    </style>
  </defs>
  <g id="Layer_1-2" data-name="Layer 1">
    <g>
      <path class="cls-5" d="M9.88,28.32h2.11c.2,0,.43-.16.51-.37l.09-.21h-1.11l.53-1.23h2.94,0s-1.17,2.73-1.17,2.73c-.23.5-.58.86-1.25.82h-5.29s2.7-6.29,2.7-6.29c.23-.51.58-.84,1.25-.83h5.3s-1.26,2.94-1.26,2.94h-1.83l.52-1.21h-2.31c-.08,0-.18.07-.21.15l-1.49,3.47h0Z"/>
      <path class="cls-5" d="M10.35,20.46h-5.31c-.67-.01-1.03.33-1.26.84-.09.19-.23.53-.42.94l-3.36,7.83h5.34c.67,0,1.03-.33,1.26-.83.09-.19.23-.53.42-.94H2.66s.9-2.09.9-2.09h2.45l.76-1.78h-2.45l.87-2.02c.04-.08.13-.16.21-.16h4.17s.77-1.78.77-1.78h0Z"/>
      <path class="cls-5" d="M49.62,25.92h2.1c.2,0,.42-.17.51-.37l.38-.86h-2.31c-.08,0-.18.07-.21.15l-.46,1.07h0ZM49.74,27.73h-.94c-.29.68-.54,1.24-.66,1.52-.23.5-.58.83-1.25.82h-.97l.99-2.33c.69-1.62,1.44-3.39,1.71-3.96.23-.5.58-.86,1.25-.82h5.29c-.69,1.61-1.44,3.39-1.71,3.96-.23.5-.58.86-1.25.82l1.65,2.33h-2.53l-1.58-2.34h0Z"/>
      <path class="cls-5" d="M22.66,22.96h.97c-.69,1.61-1.44,3.39-1.7,3.96-.23.5-.58.86-1.25.82h-1.24c-.29.69-.53,1.23-.66,1.51-.23.5-.58.86-1.25.82h-.98s1-2.33,1-2.33h-2.17c.69-1.62,1.44-3.39,1.7-3.96.23-.5.58-.86,1.25-.82h.97s-1.26,2.96-1.26,2.96h2.1c.2,0,.43-.17.51-.37.24-.59.48-1.18.74-1.77.23-.5.58-.84,1.25-.82h0Z"/>
      <path class="cls-5" d="M43.06,30.07h.98c.67.04,1.02-.32,1.25-.82l2.7-6.29h-.98c-.67-.03-1.02.32-1.25.82-.26.57-1.02,2.34-1.71,3.96l-1,2.33h0Z"/>
      <path class="cls-5" d="M25.22,25.92h2.07c.2,0,.42-.17.51-.37l.38-.86h-2.29c-.08,0-.18.07-.21.15l-.46,1.07h0ZM24.45,27.73h3.4c.69,0,1.02-.32,1.25-.82.26-.57,1.01-2.34,1.7-3.96h-5.3c-.67-.02-1.02.33-1.25.83l-2.69,6.29h.98c.68.01,1.02-.32,1.25-.82.13-.28.37-.83.66-1.52h0Z"/>
      <path class="cls-5" d="M30.88,30.07h.98c.67.04,1.02-.32,1.25-.82.25-.56.97-2.25,1.64-3.83.02-.04.29-.69.31-.73h2.16l.73-1.73h-5.28c-.67-.04-1.02.32-1.25.82l-.38.91h2.15s-2.3,5.38-2.3,5.38h0Z"/>
      <path class="cls-5" d="M39.55,25.92h2.06c.2,0,.43-.17.51-.37l.37-.86h-2.27c-.08,0-.18.07-.21.15l-.46,1.07h0ZM41.19,27.74h-2.42c-.29.68-.53,1.23-.66,1.51-.23.5-.58.86-1.27.82h-.95s.99-2.33.99-2.33c.69-1.62,1.44-3.39,1.71-3.96.23-.5.55-.83,1.25-.82h5.28s-2.7,6.29-2.7,6.29c-.23.5-.58.86-1.25.82h-.95l.96-2.33h0Z"/>
      <polygon class="cls-4" points="55.77 36.96 55.82 36.96 55.82 36.54 56.01 36.54 56.01 36.49 55.59 36.49 55.59 36.54 55.77 36.54 55.77 36.96 55.77 36.96"/>
      <polygon class="cls-4" points="56.62 36.49 56.69 36.49 56.69 36.96 56.64 36.96 56.64 36.56 56.64 36.56 56.43 36.96 56.39 36.96 56.18 36.56 56.18 36.56 56.18 36.96 56.13 36.96 56.13 36.49 56.2 36.49 56.41 36.9 56.62 36.49 56.62 36.49"/>
      <path class="cls-1" d="M51.06,36.09c.19-.26.4-.51.63-.75.23-.24.48-.46.73-.66l-.27,1.1-1.09.31h0Z"/>
      <path class="cls-3" d="M52.97,36.56c-.32-.03-.65-.09-.97-.17-.32-.08-.64-.18-.94-.31l1.09-.31.82.79h0Z"/>
      <path class="cls-2" d="M52.43,34.68c.13.3.25.6.34.92.09.32.16.64.2.96l-.82-.79.27-1.1h0Z"/>
      <path class="cls-2" d="M50.68,38.35c-.19-.26-.37-.54-.52-.83-.16-.29-.29-.6-.4-.9l.96.6-.04,1.13h0Z"/>
      <path class="cls-3" d="M51.72,36.68c-.13.3-.28.59-.46.87-.18.28-.37.55-.58.8l.04-1.13,1-.53h0Z"/>
      <path class="cls-1" d="M49.76,36.62c.32-.04.65-.05.98-.04.33.01.66.05.98.1l-1,.53-.96-.6h0Z"/>
      <path class="cls-3" d="M52.71,39.41c-.31.1-.63.18-.95.24-.33.06-.66.09-.98.1l.87-.73,1.07.39h0Z"/>
      <path class="cls-2" d="M51.45,37.91c.24.22.47.45.68.71.21.26.41.52.58.8l-1.07-.39-.2-1.12h0Z"/>
      <path class="cls-1" d="M50.78,39.76c.07-.32.16-.63.27-.95.11-.31.25-.61.4-.9l.2,1.12-.87.73h0Z"/>
      <path class="cls-2" d="M54.35,37.81c0,.32-.02.65-.07.98-.05.33-.12.65-.21.96l-.42-1.05.7-.89h0Z"/>
      <path class="cls-1" d="M52.53,38.55c.28-.16.57-.31.88-.43.31-.13.62-.23.94-.3l-.7.89-1.12-.16h0Z"/>
      <path class="cls-3" d="M54.08,39.76c-.28-.16-.55-.34-.82-.55-.26-.21-.51-.43-.73-.66l1.12.16.42,1.05h0Z"/>
      <path class="cls-2" d="M53.33,35.76c.31.1.61.22.91.37.3.15.58.31.85.49l-1.13.08-.63-.94h0Z"/>
      <path class="cls-1" d="M53.47,37.71c-.07-.32-.12-.64-.14-.97-.02-.33-.02-.66,0-.99l.63.94-.5,1.02h0Z"/>
      <path class="cls-3" d="M55.1,36.62c-.24.22-.5.42-.77.61-.28.19-.56.35-.85.49l.5-1.02,1.13-.08h0Z"/>
      <polygon class="cls-5" points="34.65 36.44 34.96 36.44 34.96 38.53 34.74 38.53 34.74 36.72 34.74 36.72 33.82 38.53 33.61 38.53 32.69 36.72 32.69 36.72 32.69 38.53 32.47 38.53 32.47 36.44 32.79 36.44 33.72 38.26 34.65 36.44 34.65 36.44"/>
      <path class="cls-5" d="M3.41,37.84c0,.21.06.36.18.48.16.16.45.24.81.24.2,0,.89-.04.89-.62,0-.5-.46-.55-.86-.59h0c-.42-.04-.73-.09-.73-.37,0-.14.07-.24.22-.31.15-.07.32-.08.49-.08.13,0,.37.02.51.16.06.06.1.16.1.26h.21c0-.15-.05-.3-.15-.4-.18-.18-.47-.21-.69-.21-.3,0-.59.06-.77.25-.09.09-.14.21-.14.34,0,.49.5.53.9.57.19.02.36.03.49.09.14.06.2.16.2.31,0,.1-.03.18-.1.24-.15.15-.47.17-.58.17-.28,0-.51-.06-.63-.18-.09-.09-.13-.2-.13-.35h-.21ZM5.62,36.44v.2h.81v1.88h.21v-1.88h.81v-.2h-1.83ZM8.47,36.44l-.96,2.09h.24s.27-.6.3-.64h1.05s.29.64.29.64h.24l-.96-2.09h-.2ZM8.57,36.73c.07.14.39.85.44.95h-.87c.05-.1.37-.81.43-.95h0ZM10.23,36.44v2.09h.22v-.91h.84c.37,0,.46.07.47.4,0,.34.02.45.07.49h.01s.22.01.22.01l-.04-.07c-.03-.06-.05-.19-.05-.53,0-.21-.12-.36-.3-.42.23-.1.33-.32.33-.49,0-.39-.24-.57-.72-.57h-1.07ZM11.31,36.65c.33,0,.49.12.49.36,0,.27-.17.41-.52.41h-.83v-.77h.86ZM14.5,36.44l-.96,2.09h.24s.27-.59.29-.64h1.05s.3.64.3.64h.24l-.96-2.09h-.2ZM14.6,36.73c.07.14.39.85.43.95h-.87c.05-.11.37-.81.44-.95h0ZM22.09,36.44l-.96,2.09h.24s.27-.59.29-.64h1.05s.3.64.3.64h.24l-.96-2.09h-.2ZM22.19,36.73c.07.14.39.85.43.95h-.87c.05-.11.37-.81.44-.95h0ZM16.33,36.44v2.09h1.5v-.2h-1.29v-1.88h-.22ZM18.3,36.44v2.09h1.5v-.2h-1.28v-1.88h-.22ZM20.25,36.44v2.09h.21v-2.09h-.21ZM25.56,36.44v1.74c-.13-.16-1.51-1.74-1.51-1.74h-.22v2.09h.21v-1.74c.13.16,1.51,1.74,1.51,1.74h.22v-2.09h-.21ZM29.32,36.44v2.09h1.68v-.2h-1.47v-.77h1.39v-.2h-1.39v-.7h1.45v-.2h-1.67ZM26.46,37.49c0,.66.46,1.09,1.13,1.09.63,0,1.01-.42,1.06-.84v-.05s-.22,0-.22,0v.04c-.08.4-.4.65-.84.65-.65,0-.91-.46-.91-.88,0-.52.38-.89.91-.89.41,0,.71.2.79.52v.04h.23v-.06c-.12-.45-.48-.71-1.03-.71-.77,0-1.14.57-1.14,1.09h0Z"/>
      <path class="cls-5" d="M1.16,36.44h-.2l-.96,2.09h.24s.27-.6.3-.64h1.05s.29.64.29.64h.24l-.96-2.09h0ZM.62,37.68c.05-.11.37-.81.43-.95.07.14.39.85.44.95h-.87Z"/>
      <path class="cls-5" d="M35.63,36.45v2.09h1.68v-.2h-1.47v-.77h1.39v-.2h-1.39v-.7h1.45v-.2h-1.67Z"/>
      <polygon class="cls-5" points="40.16 36.44 40.46 36.44 40.46 38.53 40.25 38.53 40.25 36.72 40.24 36.72 39.32 38.53 39.12 38.53 38.2 36.72 38.19 36.72 38.19 38.53 37.98 38.53 37.98 36.44 38.29 36.44 39.22 38.26 40.16 36.44 40.16 36.44"/>
      <path class="cls-5" d="M41.36,36.64h.93c.24,0,.41.08.41.34,0,.28-.19.37-.48.37h-.86v-.71h0ZM41.14,38.53h1.16c.32,0,.69-.16.69-.6,0-.27-.17-.47-.44-.51h0c.25-.07.36-.25.36-.46,0-.3-.17-.53-.58-.53h-1.19v2.09h0ZM41.36,37.55h.96c.25,0,.44.08.44.39,0,.29-.21.4-.49.4h-.91v-.79h0Z"/>
      <path class="cls-5" d="M43.67,36.44v2.09h1.68v-.2h-1.47v-.77h1.39v-.2h-1.39v-.7h1.45v-.2h-1.67Z"/>
      <path class="cls-5" d="M47.81,38.46c-.03-.07-.05-.19-.05-.53,0-.21-.12-.36-.3-.42.23-.1.33-.32.33-.49,0-.39-.24-.57-.72-.57h-1.07v2.09h.22v-.91h.85c.37,0,.46.07.47.4,0,.34.02.45.07.49h.01s.22.01.22.01l-.04-.07h0ZM47.05,37.42h-.83v-.77h.86c.33,0,.49.12.49.36,0,.27-.17.41-.52.41h0Z"/>
      <path class="cls-5" d="M31.29,4.53c.56.65,1.38.88,1.89.51.33-.24.46-.67.39-1.15.29.05.61.14.96.28.18.06.39-.68.12-.7-2.95-.43-4.59,1.95-4.55,1.92.45-.34.84-.63,1.2-.86h0ZM32.98,4.79c-.4.32-1.05.12-1.5-.38.62-.37,1.14-.56,1.71-.55.11.37,0,.76-.21.93h0Z"/>
      <path class="cls-5" d="M18.28,5.84c.51-1.66,1.39-3.17,2.54-4.42,5.08-2.14,11.65-2.13,16.55,1.82C34.28,1.68,25.18,0,18.28,5.84h0Z"/>
      <path class="cls-5" d="M17.99,11.28c-.23-1.2-.26-2.44-.09-3.65,3.6-3.66,8.99-6.05,14.63-4.88-3.09,0-10.51,2.12-14.54,8.52h0Z"/>
      <path class="cls-5" d="M19.91,15.78c-.6-.84-1.08-1.76-1.44-2.74,2.14-4.53,6.27-8.47,11.81-9.32-2.76,1.04-8.52,5.26-10.37,12.06h0Z"/>
      <path class="cls-5" d="M23.4,19c-.85-.5-1.62-1.11-2.31-1.81.74-4.78,3.66-9.78,8.34-12.38-.34.51-.5,1.1-.47,1.73-2.73,2.76-5.44,7.05-5.56,12.46h0Z"/>
      <path class="cls-5" d="M27.73,20.51c-.92-.12-1.81-.35-2.66-.68.03-4.33,1.44-9.47,3.99-12.62.14.55.41,1.12.84,1.69,2.03-2.37,4.36-4.05,7.25-4.79-3.94,1.49-10.09,6.26-9.42,16.4h0Z"/>
    </g>
  </g>
</svg>