<?xml version="1.0" encoding="UTF-8"?>
<svg id="Layer_2" data-name="Layer 2" xmlns="http://www.w3.org/2000/svg" viewBox="0 0 230.33 70.98">
  <defs>
    <style>
      .cls-1 {
        fill: #04955f;
        stroke-width: 0px;
      }
    </style>
  </defs>
  <g id="Layer_1-2" data-name="Layer 1">
    <g>
      <path class="cls-1" d="M17.61,20.96C4.22,34.72,1.31,50.11,9.95,58.36c1.58,1.57,3.57,2.81,5.89,3.73,3.34,1.36,7.18,1.96,11.3,1.87,5.92-.06,12.53-1.47,19.08-4.33,9.97-4.35,17.4-10.92,20.94-17.69,1.8-2.62,3.7-11.2-.68-15.1-.47-.42-.97-.81-1.47-1.18-.44,1.02-2.57,5.51-3.59,7.84-6.03.69-16.61-7.4-14.56-8.31,2.71-1.21,5.87-2.63,8.23-3.67-16.93-3.3-36.61,12.03-42.53,18.57C17.22,24.34,56.41-2.02,78.53,3.14c2.24-1.62,6.17-3.69,11.53-3.01-.44,2.02-1.66,5.03-3.13,7.21,3.89,4.02,2.8,11.13-1.62,19.19-4.48,9.06-12.1,18.52-22.14,26.69-22.63,18.39-49.03,23.3-58.97,10.97-.31-.38-.59-.78-.87-1.18C-3.8,53.45.68,36.6,15.26,21.62c3.51-3.61,7.35-6.85,11.37-9.67C33.05,7.41,41.12,2.93,50.67.12l-.97.63c-.68.26-1.67.67-2.9,1.2-2.46,1.06-5.87,2.64-9.7,4.75-3.08,1.69-6.44,3.76-9.77,6.12-3.46,2.36-6.74,5.09-9.72,8.14"/>
      <path class="cls-1" d="M103.75,65.02c.11-.17.22-.56.22-.74l.02-12.38c0-.65-.13-.87-.84-1.67h8.25v3.01c-.54-.89-.97-1.21-1.69-1.21h-3.42v4.57h3.7v2.45c-.5-.67-1.04-.89-2.25-.89h-1.49v5.84c1.28.2,1.73.24,2.64.24.35,0,.67,0,1-.02,1.6-.13,2.25-.39,3.57-1.39l-1.02,3.01h-9.48c.48-.35.65-.54.8-.82"/>
      <path class="cls-1" d="M128.04,53.02c-.22-.15-.41-.28-.58-.39-.91-.58-1.86-.82-3.27-.82-3.92,0-6.51,2.45-6.51,6.15s2.86,6.47,6.93,6.47c.76,0,1.47-.13,2.79-.52v-4.52c0-.2-.06-.54-.17-.78-.09-.24-.28-.45-.67-.82h3.25v7.77c-.48.11-.87.22-1.1.26-1.45.28-2.79.41-4.09.41-1.8,0-3.31-.26-4.57-.78-2.86-1.28-4.7-4.07-4.7-7.21,0-2.75,1.32-5.26,3.59-6.8,1.62-1.13,3.36-1.56,6.13-1.56,1.17,0,1.64.06,2.99.39v2.75Z"/>
      <path class="cls-1" d="M133.14,50.23l4.35,6.84,3.53-5.17c.15-.2.22-.48.22-.67,0-.28-.2-.52-.71-1h3.85l-6,8.66v5.39c0,.61.26,1.02,1.02,1.56h-4.37c.48-.35.67-.54.78-.82.06-.11.11-.28.17-.43.04-.19.06-.28.06-.3l.04-5.43-4.7-6.95c-.09-.09-.15-.17-.26-.3-.43-.45-.5-.52-1.02-.87-.15-.11-.39-.26-.69-.5h3.72Z"/>
      <path class="cls-1" d="M145.28,65.02c.09-.17.2-.56.2-.74l.02-12.38v-.3c0-.15-.07-.3-.15-.48-.11-.26-.28-.45-.69-.89h4.44c3.66,0,5.74,1.43,5.74,3.96,0,2.36-2.34,4.13-5.43,4.13-.46,0-.67-.02-1.21-.22,1.34-.17,1.88-.35,2.53-.71,1.08-.63,1.73-1.67,1.73-2.81,0-1.67-1.39-2.86-3.31-2.86-.19,0-.48,0-.87.02-.09.02-.26.02-.43.04v12.49c0,.2.07.52.17.76.13.26.3.48.78.8h-4.24c.43-.35.61-.54.74-.82"/>
      <path class="cls-1" d="M156.45,50.23h11.73l-.97,3.12c-.17-.3-.37-.5-.48-.61-.48-.43-1.39-.67-2.56-.67-.32,0-.58.02-1.19.09v12.12s.02.15.07.3c.04.15.09.3.15.43.13.26.37.48.84.82h-4.35c.46-.35.63-.56.74-.82.04-.09.11-.26.15-.43.02-.15.04-.24.04-.3v-12.1c-.74-.06-1.04-.06-1.34-.06-.43,0-.8.04-1.17.06-1.04.09-1.56.28-2.6.97l.93-2.92Z"/>
      <path class="cls-1" d="M177.64,65.02c.09-.17.2-.56.2-.74l.02-12.38v-.3c0-.15-.06-.3-.15-.48-.11-.26-.28-.45-.69-.89h4.44c3.66,0,5.74,1.43,5.74,3.96,0,2.36-2.34,4.13-5.43,4.13-.46,0-.67-.02-1.21-.22,1.34-.17,1.88-.35,2.53-.71,1.08-.63,1.73-1.67,1.73-2.81,0-1.67-1.39-2.86-3.31-2.86-.19,0-.48,0-.87.02-.09.02-.26.02-.43.04v12.49c0,.2.07.52.17.76.13.26.3.48.78.8h-4.24c.43-.35.61-.54.74-.82"/>
      <path class="cls-1" d="M197.21,49.89c4.85,0,8.14,3.31,8.14,8.16s-3.23,8.18-8.18,8.18-8.29-3.38-8.29-8.29,3.42-8.05,8.33-8.05M191.3,58.11c.15,3.77,2.79,6.56,6.21,6.56,3.18,0,5.48-2.64,5.48-6.28,0-3.83-2.6-6.8-5.95-6.8s-5.74,2.49-5.74,6.23v.28Z"/>
      <path class="cls-1" d="M209.63,63.8c.87.28,1.73.41,2.34.41,1.84,0,3.25-1.04,3.25-2.4,0-.48-.24-1.1-.5-1.39-.37-.35-1.32-.91-2.12-1.21l-2.1-.82c-2.01-.76-3.16-2.19-3.16-3.92,0-2.62,2.36-4.39,5.89-4.39,1.02,0,1.82.11,2.94.41v2.75c-1.39-1.06-2.1-1.36-3.36-1.36-1.84,0-3.07.91-3.07,2.29,0,.97.74,1.69,2.42,2.38l1.95.8c2.55,1.02,3.57,2.16,3.57,4.05,0,2.84-2.55,4.78-6.3,4.78-.5,0-1.04-.04-1.6-.11-.82-.13-1.1-.2-1.84-.48l-.8-2.94c1.02.63,1.41.82,2.49,1.15"/>
      <path class="cls-1" d="M217.51,50.23h11.73l-.97,3.12c-.17-.3-.37-.5-.48-.61-.48-.43-1.39-.67-2.56-.67-.32,0-.58.02-1.19.09v12.12s.02.15.07.3c.04.15.09.3.15.43.13.26.37.48.84.82h-4.35c.46-.35.63-.56.74-.82.04-.09.11-.26.15-.43.02-.15.04-.24.04-.3v-12.1c-.74-.06-1.04-.06-1.34-.06-.43,0-.8.04-1.17.06-1.04.09-1.56.28-2.6.97l.93-2.92Z"/>
      <polygon class="cls-1" points="185.93 34.29 188.14 36.07 189.78 33.98 187.59 32.26 185.93 34.29"/>
      <polygon class="cls-1" points="211.6 33.58 213.81 35.35 215.45 33.27 213.26 31.55 211.6 33.58"/>
      <polygon class="cls-1" points="183.89 32.26 182.23 34.29 184.43 36.07 186.07 33.99 183.89 32.26"/>
      <path class="cls-1" d="M205.13,23.47c.16-.75.27-2.09-1.74-4.89l-.72,2.54s.32.48.61,1.04c.29.53.58,1.19.71,1.74-.48.48-2.75,2.18-5.97,2.93-3.49.81-13.5,2.72-16.72-1.89-.47-.71-1.26-4.3-1.47-5.87-.21-1.55-1.22-6.79-3.68-9.76-.29,1.66-.43,3.24-.41,3.29,0,.01,2.84,6.77,3.22,10.33-.43,1.15-3.32,5.18-9.64,7.68-.88.3-2.88-.18-2.58-2.18.17-1.1.43-2.01.69-2.7.25-.69.5-1.18.6-1.38.07-.2.18-.47.24-.73.06-.26.1-.6-.3-.87-.14.07-.25.14-.43.33l-.16.52c-.09.27-.21.63-.37.93-.31.62-1.67,3.64-1.12,5.83.55,2.24,2.33,3.21,4.8,2.22,2.37-.94,7.44-4.25,9.02-7.72l.19.51c.31.8.82,1.77,1.55,2.36.35.28.73.59,1.18.89.46.31,1.01.61,1.68.87,1.35.51,3.2.84,5.98.68,5.5-.32,10.87-1.18,14.22-4.37.36-1.33.51-1.64.65-2.33"/>
      <path class="cls-1" d="M230.26,11.99c-.23-.9-1.99-6.11-2.58-7.18l-1.26,2.27s.27.49.27.83c0,.4,1.34,16.5,1.34,18.76s-.21,5.34-.32,7.01c.63-.97,2.08-3.23,1.96-6.48-.13-3.18-.63-13.11-.74-15.31l.36.36c.12.12.21.23.29.34.09.14.34.31.53.28.22-.04.32-.3.16-.89"/>
      <path class="cls-1" d="M221.56,4.81l-1.26,2.27s.27.49.27.83c0,.38,1.2,15.13,1.2,18.65-.09.09-.23.22-.42.35-.44.3-1.17.64-2.35.78-2.24.28-3-1.19-3.16-2.86-.08-.86-.18-1.95-.35-2.89-.16-.92-.4-1.8-.78-2.16-.3-.2-.77-.1-.97.6-.05.16-.09.39-.13.65l-.1.77c-.07.55-.12.97-.17,1.08-.11.22-.42.72-2.43,1.24-.41.09-1.16.15-2.72-2.83-.6,1.61-.75,2.03-.71,2.11.01.03,1.71,4.1,1.71,5.1-.23.46-2.07,4.03-18.32,8.83,1.47.08,8.56-.51,8.56-.51,0,0,2.14-.81,4.43-1.94,2.26-1.12,4.79-2.58,5.54-3.9.78-1.96,1.07-3.4,1.04-4.53.93.14,3.02-.12,3.73-1.81.03-.51.1-1.17.16-1.68.15.44.24.86.28,1.42.03.45.08,1.32.25,2.2.16.88.42,1.81.92,2.35.97,1.07,3.68,1.78,6.39-.38l.25-.31c.13-.2.31-.49.48-.84.34-.71.69-1.69.64-2.76-.2-4.23-.64-10.91-.69-12.73l.36.36c.12.12.21.23.29.34.09.14.34.31.53.28.22-.04.32-.3.16-.89-.23-.9-1.99-6.11-2.59-7.18"/>
      <path class="cls-1" d="M211.38,8.91l-21.17,7.02-.95,1.94s16.78-5.98,20.6-7.05c.33-.46,1.52-1.9,1.52-1.9"/>
      <path class="cls-1" d="M215.02,18.4c.99.74,1.52-.27,1.69-1.62.03-.17.04-.28.03-.36-.02-.08-.05-.12-.34.04l-.15.37c-.05.12-.1.24-.17.33-.12.16-.27.25-.54.1-.72-.4-.31-2.24.08-3.59.38-1.29.78-2.3.78-2.42,0-.05-.01-.15-.34-.12-.06.06-.12.16-.17.28-.09.24-.67,1.67-.95,2.82-.27,1.11-.81,3.52.07,4.18"/>
      <path class="cls-1" d="M183.91,9.76c.35.53,1.32,2.24,1.39,2.19.15-.1.25-.25.41-.62l.6-2.42c.05-.2.18-.37.32-.35.16.02.51.58.6.73l.31-.46c.12-.19.26-.43.3-.65-1.09-1.66-1.72-.54-1.87-.11-.14.38-.4,1.33-.6,2.2-.84-1.83-2.09-2.67-2.18-2.73,0,0-.14.3-.23.6-.08.3-.16.7-.09,1.09.12.75.79.63,1.04.54"/>
      <path class="cls-1" d="M115.89,30.3c1.48-.72,3.88-2.27,4.49-4.26.6-1.94.24-2.65-.41-3.09-.32-.23-1.23-.29-2.1-.31-.91-.03-1.89-.02-2.49-.07-1.06-.1-1.65-.48-2.07-1,.27-.64,1.91-3.07,3.45-3.91.68-.37,1.13-.3,1.39-.18.14.06.23.14.3.21l.31.41s.5-1.38.66-2.3c-.4-.91-1.2-.95-1.87-.75-.66.19-1.26.63-1.44.76-2.07,1.64-4.07,4.11-4.06,6.84,0,1.4,1.44,1.99,2.8,2.24,1.39.26,2.88.2,3.32.2.61,0,.95.1,1.17.19-.47.61-1.74,1.89-6.77,3.95-5.49,2.25-8.27-.2-9.22-2.33-.47-1.05-.34-2.58-.08-3.92.26-1.33.66-2.42.71-2.56.12-.34.07-.58-.23-.67-.16-.04-.3.03-.49.19,0,0-.67,1.83-.75,2.15-1.76,5.85.16,8.87,3.55,9.99,3.58,1.18,8.35-1.09,9.82-1.79"/>
      <path class="cls-1" d="M165.1,23.9c-.5-.89-1.5-1.12-2.3-1.12-.41,0-.78.04-1.28.14-.22-4.12-.58-9.35-.69-10.73,0-.12.02-.23.18-.3.25.26.43.5.59.73.09.14.34.31.53.28.22-.04.32-.3.16-.89-.23-.9-2.04-6.12-2.63-7.18l-1.26,2.27s.27.5.27.84c.29,2.56.67,7.74,1.12,15.51-.79.25-2.37.78-3.32,1.18.1-.5.24-1.37.29-2.04.07-1.04-1.41-3.52-3.54-3.9-2.02-.36-3.93,1.63-5.3,3.58-.69.99-1.27,2-1.68,2.77l-.57,1.14c-.34-.21-.54-.46-.65-.68-.06-.13-.11-.26-.14-.38l-.05-.31c-.01-.11.03-.3.12-.53.08-.22.19-.43.24-.55.08-.17.06-.32-.06-.53-.18-.14-.43-.01-.5.06-1.23,1.5-5.27,3-10.57,2.94-2.65-.03-4.3-.37-5.43-.82-.56-.22-1-.47-1.36-.73-.38-.26-.67-.53-.97-.78-1.12-.97-1.91-3.29-2.07-3.81,0,0-.74,1.9-.92,2.61,1.33,2.87,1.71,5.08,1.72,5.4-1.87,2.36-6.49,4.47-10.7,5.98-2.11.76-4.1,1.37-5.56,1.8l-1.74.53c-.19.06-.36.11-.48.17-.12.05-.23.13-.21.3,0,0,7.77-.6,8.84-.62,6.68-2,9.76-5.32,9.91-5.52.14-.19.32-.54.76-1.84.15-.46.26-.78.34-1.13.06-.29.1-.6.12-1.04,2.23,1.29,6.45,2.08,9.49,1.78,4.34-.42,6.75-1.57,7.9-2.31.05.8.27,1.31.52,1.66.14.2.3.33.64.57-.18.53-.32,1.37-.27,1.61.05.25.24.31.4.25.13-.03.28-.15.3-.26.01-.07.2-.68.41-1.23,1.63.49,3.88.14,5.93-.4,2.12-.56,4.07-1.33,4.98-1.67,1.56-.58,2.76-.95,3.33-1.12.11.59.5,2.02,1.68,2.49,1.33.52,1.96.09,2.27-.16.53-.43.95-1.56,1.23-2.61.12-.46.14-.78.12-1.01,0-.12-.03-.22-.12-.42M146.61,26.61c.56-1.12,3.03-5.65,5.69-5.61,1.78.03,2.77,2.35,3.07,3.15-.92.61-5.09,2.96-8.76,2.46M162.11,25.56c-.16-.16-.27-.31-.36-.46l.13-.02c.23-.02.58,0,1.06.14.6.19.69.66.69.92-.74.01-1.22-.28-1.52-.58"/>
      <path class="cls-1" d="M169.71,22.95c.05,1.1.13,2.25.16,3.32.02,1.07-.03,2.04.08,2.93.64-.98,1.63-2.55,1.5-5.79-.12-3.18-.53-9.27-.62-11.24,0-.13.02-.22.14-.28l.36.36c.12.12.21.23.29.34.1.14.34.31.54.28.22-.04.31-.3.16-.89-.23-.9-2.06-5.92-2.56-7.23l-1.29,2.33s.26.49.26.83c0,.4.9,12.78.99,15.04"/>
      <path class="cls-1" d="M152.61,34.37c-.11.15-.24.35-.35.55-.16.3.09.37.47.32l.12-.03,7.52-2.83s.31-.55.56-1.17c-6.82,2.4-8.12,2.89-8.32,3.16"/>
      <path class="cls-1" d="M143.88,15.26c.6-.14,1.24-.56,1.8-.98.55-.42,1.01-.85,1.25-1.04.44-.35.68-.21,1.19.3.23.12.58.17,1.14,0,1.11-.34,1.56-1.25,1.65-1.94.09-.71-.54-1.28-1.23-.8-.34.23-.81.85-1.42,1.13-.11-.11-.26-.16-.53-.15-.34.03-.73.29-1.13.62-.4.33-.82.73-1.26,1.08-.86.69-2.7,1.62-2.85,1.67-.08.03-.17.08-.25.39.12.05.5-.01,1.64-.29M149.68,11.78c.36-.3.59-.09.5.1-.13.09-.32.19-.53.29-.23.1-.39.16-.52.18.14-.17.34-.39.55-.57"/>
      <path class="cls-1" d="M150.18,11.88c.09-.2-.14-.4-.5-.1-.21.18-.41.4-.55.57.12-.02.29-.08.52-.18.22-.1.4-.2.53-.29"/>
      <path class="cls-1" d="M129.66,31.35l-.16.31-.17.46c0,.06.04.12.27.09,0,0,.1-.16.29-.39.06-.07.14-.07.35.03-.23.08-.49.25-.61.34-.17.18-.4.8-.35,1.11.05.28.41,2.91.63,3.42.23-.32.27-.78.26-1.19-.01-.4-.08-.76-.1-.87-.03-.22-.19-1.3-.28-1.87.46-.43,1.2-.26,1.28-.24l.26-.76c-.25-.12-.39-.27-.95-.74-.42-.11-.67.24-.71.3"/>
      <path class="cls-1" d="M124.61,9.76c.35.53,1.32,2.24,1.4,2.19.15-.1.25-.25.41-.62l.6-2.42c.04-.2.17-.37.31-.35.17.02.52.58.6.73l.32-.46c.12-.19.26-.43.29-.65-1.08-1.66-1.71-.54-1.86-.11-.14.38-.4,1.33-.61,2.2-.84-1.83-2.08-2.67-2.17-2.73,0,0-.14.3-.23.6-.08.3-.16.7-.09,1.09.12.75.79.63,1.04.54"/>
      <path class="cls-1" d="M104.44,17.82c1.25.93,1.94-.32,2.17-2.1.08-.42.04-.57-.35-.4l-.19.48c-.07.16-.14.31-.23.44-.17.23-.38.34-.74.14-.96-.53-.41-2.97.1-4.71.49-1.69,1.01-3.01,1.01-3.01,0,0,.01-.07-.12-.37-.1-.04-.19,0-.26.07-.08.08-.15.2-.22.36-.12.31-.87,2.18-1.24,3.68-.36,1.45-1.05,4.58.08,5.42"/>
      <rect class="cls-1" x="102.25" y="43.04" width="127.69" height="1.2"/>
    </g>
  </g>
</svg>