<?xml version="1.0" encoding="UTF-8"?>
<svg id="Layer_2" data-name="Layer 2" xmlns="http://www.w3.org/2000/svg" viewBox="0 0 43.68 7.09">
  <defs>
    <style>
      .cls-1 {
        fill: #0759a5;
        stroke-width: 0px;
      }
    </style>
  </defs>
  <g id="Layer_1-2" data-name="Layer 1">
    <g>
      <path class="cls-1" d="M28.84,3.6h-2.61s0-.21,0-.81.49-1.09,1.09-1.09h1.52v1.9h0ZM30.46,7.09V0h-3.1c-1.52,0-2.75,1.23-2.75,2.75v4.34h1.63v-1.87h2.6v1.87h1.62Z"/>
      <path class="cls-1" d="M15.37,3.6h-2.61v-.81c0-.6.49-1.09,1.09-1.09h1.52v1.9h0ZM16.99,7.09V0h-3.1C12.37,0,11.14,1.23,11.14,2.75v4.34h1.63v-1.87h2.6v1.87h1.62Z"/>
      <path class="cls-1" d="M35.73,4.73c0,.37-.31.67-.69.67h-.36s-1.8,0-1.8,0V1.69h1.97s.23.01.23.01c.17,0,.32.14.32.32,0,.11-.05.2-.14.26-.05.03-1.56,1.1-1.56,1.1l.93,1.32.74-.59.12.1.05.05c.12.12.2.29.2.47M36.55,3.05c.3-.32.48-.75.48-1.23C37.02.82,36.21,0,35.2,0h-.56s-1.76,0-1.76,0h-1.61v7.08h3.4s-.88,0,.38,0,2.29-1.03,2.29-2.29c0-.7-.3-1.32-.79-1.74,0,0,0,0,0,0h0Z"/>
      <polygon class="cls-1" points="5.42 0 5.42 7.08 10.33 7.08 10.33 5.39 7.04 5.39 7.04 0 5.42 0 5.42 0"/>
      <path class="cls-1" d="M17.8,7.09h1.63V1.69h1.28s.65,0,.65,0c.44,0,.8.35.8.79,0,.28-.15.53-.37.67-.12.08-1.67.88-1.67.88l.04.07,1.75,2.97h1.9l-1.43-2.48c.83-.38,1.4-1.22,1.4-2.19C23.77,1.09,22.69,0,21.36,0h-3.55"/>
      <polygon class="cls-1" points="41.71 0 40.4 2.28 39.1 0 37.12 0 39.58 3.94 39.58 7.08 41.2 7.08 41.2 3.93 43.68 0 41.71 0 41.71 0"/>
      <polygon class="cls-1" points="0 0 0 7.08 1.63 7.08 4.6 7.08 4.6 5.39 1.63 5.39 1.63 4.38 4.19 4.38 4.19 2.7 1.63 2.7 1.63 1.7 4.61 1.7 4.61 0 0 0 0 0"/>
    </g>
  </g>
</svg>