<?xml version="1.0" encoding="UTF-8"?>
<svg id="Layer_2" data-name="Layer 2" xmlns="http://www.w3.org/2000/svg" xmlns:xlink="http://www.w3.org/1999/xlink" viewBox="0 0 781.42 436.58">
  <defs>
    <style>
      .cls-1 {
        fill: #dca36d;
      }

      .cls-1, .cls-2, .cls-3 {
        stroke-width: 0px;
      }

      .cls-2 {
        fill: #000c8c;
      }

      .cls-4 {
        clip-path: url(#clippath);
      }

      .cls-3 {
        fill: none;
      }
    </style>
    <clipPath id="clippath">
      <rect class="cls-3" width="781.42" height="436.58"/>
    </clipPath>
  </defs>
  <g id="Layer_1-2" data-name="Layer 1">
    <g class="cls-4">
      <path class="cls-2" d="M470.07,435.01c0,.53.43.96.96.96h7.85c.53,0,.96-.43.96-.96v-27.39h8.88c.53,0,.96-.43.96-.96v-5.16c0-.53-.43-.96-.96-.96h-27.54c-.51,0-.96.43-.96.96v5.16c0,.53.45.96.96.96h8.89v27.39ZM449.35,412.48c0,3.75-2.18,5.16-5.92,5.16h-3.24v-10.33h3.24c3.74,0,5.92,1.37,5.92,5.16M458.96,412.48c0-8.07-5.95-11.95-14.98-11.95h-12.35c-.53,0-.96.43-.96.96v33.51c0,.53.43.96.96.96h7.59c.53,0,.96-.43.96-.96v-10.58h3.8c9.04,0,14.98-3.95,14.98-11.95M402.71,401.07c-.23-.38-.61-.53-1.06-.53h-8.07c-.89,0-1.24.66-.81,1.37l12.28,20.12v12.98c0,.53.43.96.96.96h7.9c.53,0,.96-.43.96-.96v-12.98l12.27-20.12c.43-.71.08-1.37-.81-1.37h-8.07c-.45,0-.83.15-1.06.53l-7.24,12.63-7.24-12.63ZM388.81,401.98c-3.44-1.37-7.34-2.05-11.49-2.05-12.98,0-20.23,7.77-20.23,18.33s7.75,18.32,20.81,18.32c4.1,0,7.97-.53,11.57-1.95.51-.2.84-.56.84-1.19v-16.81c0-.53-.43-.96-.96-.96h-13.79c-.51,0-.94.43-.94.96v4.2c0,.53.43.96.94.96h5.95v7.32c-1.16.33-2.23.38-3.29.38-6.68,0-11.19-3.92-11.19-11.24s4.66-11.24,11.79-11.24c2.96,0,6.08.66,8.73,1.95.68.33,1.47.08,1.52-.68l.43-5.16c.05-.56-.18-.94-.68-1.14M328.79,435.01c0,.53.43.96.96.96h24.05c.53,0,.96-.43.96-.96v-4.96c0-.53-.43-.96-.96-.96h-15.19v-7.69h13.62c.53,0,.96-.43.96-.96v-4.96c0-.53-.43-.96-.96-.96h-13.62v-7.09h14.81c.51,0,.94-.43.94-.96v-4.96c0-.53-.43-.96-.94-.96h-23.67c-.53,0-.96.43-.96.96v33.51Z"/>
      <path class="cls-2" d="M120.36,136.02c-55.67,0-91.38,37.97-91.38,90.74s34.43,90.74,95.24,90.74c13.2,0,28.96-2.25,37.65-5.79v-71.11h-43.12c-10.49,0-18.99-8.5-18.99-18.99,0-3.22,2.57-6.11,6.11-6.11h78.19c3.36,0,6.11,2.75,6.11,6.11v103.77c0,4.18-2.09,6.12-5.15,7.24-19.79,7.4-38.61,10.62-62.74,10.62C47.96,343.25.02,294.66.02,226.76s46.33-116.48,118.73-116.48c23.81,0,43.92,3.06,61.94,9.82,3.54,1.29,5.15,3.38,4.67,6.92l-.11.2c-5.77,10.49-17.87,15.58-29.51,12.76-10.87-2.64-22.6-3.95-35.38-3.95"/>
      <path class="cls-2" d="M238.42,114.14c12.21,0,22.2,9.99,22.2,22.2v196.93c0,3.37-2.75,6.11-6.12,6.11h-16.09c-3.54,0-6.12-2.89-6.12-6.11V120.25c0-3.22,2.57-6.11,6.12-6.11"/>
      <path class="cls-2" d="M414.05,136.02c-55.67,0-91.38,37.97-91.38,90.74s34.42,90.74,95.24,90.74c13.19,0,28.96-2.25,37.65-5.79v-71.11h-43.12c-10.48,0-18.98-8.5-18.98-18.99,0-3.22,2.57-6.11,6.11-6.11h78.19c3.36,0,6.12,2.75,6.12,6.11v103.77c0,4.18-2.09,6.12-5.14,7.24-19.79,7.4-38.62,10.62-62.75,10.62-74.33,0-122.27-48.59-122.27-116.48s46.34-116.48,118.73-116.48c23.81,0,43.92,3.06,61.94,9.82,3.54,1.29,5.15,3.38,4.67,6.92-5.84,10.61-18.06,15.74-29.84,12.9-10.81-2.61-22.46-3.89-35.16-3.89"/>
      <path class="cls-1" d="M734.46,141.02c2.71,7.7,4.74,15.36,6.21,22.94,8.27,41.69-2.45,80.77-33.33,108.95-30.6,26.35-69.13,32.99-108.42,21.86-.14-.04-.28-.08-.41-.12-.11-.03-.21-.06-.32-.09-8.72-2.47-17.55-5.84-26.27-10.03,18.78,34.94,55.76,58.72,98.21,58.72.39,0,.79,0,1.18,0,49-.51,90.41-32.66,104.76-77,3.5-10.81,5.39-22.35,5.39-34.33,0-37.54-18.53-70.72-46.99-90.89"/>
      <path class="cls-2" d="M734.46,141.02s0,0,0,0c-11.97-74.4-29.65-109.81-44.32-129.84,0,0-.03-.03-.04-.06,0,0-.01,0-.02-.02-.57-.78-5.3-7.1-11.21-9.84-1.7-.79-3.6-1.25-5.48-1.25-4.01,0-7.71,2.17-9.81,7.8-.74,1.99-1.12,4.09-1.21,6.21-.88,20.79,1.25,56.07,37.62,96.71,9.63,10.76,22.91,20.28,34.48,30.3"/>
      <path class="cls-2" d="M588.27,285.47c0-61.45,50.07-111.27,111.84-111.27,10.07,0,19.81,1.37,29.08,3.86-12.9-11.12-33.59-29.26-40.12-35.06-38.66-34.33-39.34-89.11-39.14-98.77-3.29,6.48-6.98,12.84-10.85,18.04-13.3,17.93-36,51.74-57.48,92.68-34.85,66.42-24.54,102.43-9.7,129.57,5.43,2.61,10.91,4.91,16.38,6.86v-5.92Z"/>
    </g>
  </g>
</svg>