<?xml version="1.0" encoding="UTF-8"?>
<svg id="Layer_2" data-name="Layer 2" xmlns="http://www.w3.org/2000/svg" viewBox="0 0 39.2 11.38">
  <defs>
    <style>
      .cls-1 {
        fill: none;
      }

      .cls-1, .cls-2, .cls-3, .cls-4, .cls-5 {
        stroke-width: 0px;
      }

      .cls-2 {
        fill: #003e7e;
      }

      .cls-3 {
        fill: #e22226;
      }

      .cls-4 {
        fill: #f7b219;
      }

      .cls-5 {
        fill: #fff;
      }
    </style>
  </defs>
  <g id="Layer_1-2" data-name="Layer 1">
    <g>
      <rect class="cls-4" y="1.58" width="39.2" height="9.8"/>
      <rect class="cls-3" width="39.2" height="1.58"/>
      <g>
        <rect class="cls-1" width="39.2" height="11.38"/>
        <path class="cls-5" d="M5.38,10.05c-2.07,0-3.75-1.25-3.75-2.52,0-1.61,1.68-2.69,3.75-2.69s3.76,1.08,3.76,2.69c0,1.27-1.68,2.52-3.76,2.52"/>
        <path class="cls-2" d="M10.12,8.68c.49.09,1.13.13,1.47-.28.32-.38.27-.91.29-1.41,0-1.27,0-2.55-.05-3.82h1.65c-.05,1.33-.06,2.59-.05,3.93,0,.71.03,1.44-.43,1.96-.57.67-1.41.82-2.3.82h-.18s-.39-1.18-.39-1.18Z"/>
        <path class="cls-2" d="M35.98,9.48c-.78-1.19-1.66-2.34-2.54-3.49h0c-.01,1.16.01,2.34.05,3.49h-1.49c.07-2.09.07-4.22,0-6.32h1.34c.78,1.19,1.67,2.35,2.54,3.5,0-1.16,0-2.35-.05-3.5h1.48c0,.69-.04,1.4-.04,2.09-.01,1.4,0,2.84.04,4.24h-1.32Z"/>
        <path class="cls-2" d="M23.72,9.48c-.06-1.7-.06-3.43-.03-5.15h0c.53,0,1.09.02,1.61.06v-1.23h-4.81v1.23c.52-.03,1.08-.06,1.61-.06.03,1.71.03,3.44-.03,5.15h1.65Z"/>
        <path class="cls-2" d="M28.42,9.67c-.39,0-.79-.04-1.13-.15-.57-.17-1.08-.62-1.29-1.18-.22-.52-.16-1.19-.17-1.76,0-1.13,0-2.28-.05-3.41h1.63c-.04,1.28-.05,2.59-.04,3.85.01.47.01.94.34,1.27.18.19.44.27.71.27.26,0,.53-.08.71-.27.33-.33.33-.81.34-1.27.01-1.25,0-2.57-.04-3.85h1.63c-.04,1.13-.06,2.28-.05,3.41-.01.57.05,1.24-.17,1.76-.21.56-.71,1.01-1.29,1.18-.35.11-.74.16-1.13.15"/>
        <path class="cls-2" d="M20.52,5.32c-.21-.77-.74-1.52-1.5-1.93-.46-.27-1.05-.4-1.63-.4-.58,0-1.17.13-1.63.4-.76.41-1.29,1.16-1.5,1.93-.23.97-.15,2.09.39,2.89.37.6.96,1.06,1.61,1.28.36.12.74.18,1.12.18h0c.38,0,.75-.06,1.12-.18.65-.22,1.24-.67,1.61-1.28.55-.8.62-1.92.39-2.89M19,6.73c-.04.51-.18.99-.51,1.39-.27.32-.67.47-1.09.47s-.83-.15-1.1-.47c-.33-.4-.47-.87-.51-1.39-.04-.82,0-1.64.56-2.24.27-.3.65-.42,1.04-.42.39,0,.77.13,1.04.42.56.6.6,1.42.56,2.24"/>
        <path class="cls-2" d="M6.68,4.96v-2.43c-.66,0-1.56.11-2.16.99-.27.42-.43.9-.51,1.46-.06.02-.12.03-.18.05-1.33.39-2.25,1.3-2.25,2.51,0,.98.99,1.94,2.38,2.35v.24h2.82v-.24c1.4-.4,2.39-1.37,2.39-2.35,0-1.27-1.04-2.22-2.49-2.57M2.19,6.25h.84c-.18.29-.3.62-.35.96h-.9c.05-.36.19-.68.41-.96M1.76,7.53s0-.09,0-.14h.9s0,.09,0,.14c0,.29.05.57.15.83h-.8c-.16-.26-.25-.55-.25-.83M3.96,9.7c-.8-.24-1.45-.66-1.83-1.16h.75c.22.49.61.89,1.08,1.16h0ZM3.96,9.5c-.38-.24-.69-.57-.88-.96h.88v.96ZM3.96,8.36h-.96c-.1-.26-.16-.54-.16-.83,0-.05,0-.09,0-.14h1.12v.97ZM3.96,7.22h-1.1c.05-.35.18-.68.38-.96h.72v.96ZM5.38,9.87c-.81,0-1.1-1.1-1.1-2.46s.27-2.46,1.1-2.46,1.1,1.1,1.1,2.46-.29,2.46-1.1,2.46M8.56,6.25c.21.28.36.61.41.96h-.9c-.05-.35-.17-.67-.35-.96h.84ZM6.78,6.25h.73c.2.29.33.61.38.96h-1.11v-.96ZM6.78,7.39h1.12s0,.09,0,.14c0,.29-.06.57-.16.83h-.97v-.97ZM6.78,8.54h.89c-.2.39-.51.73-.89.97v-.97ZM6.78,9.7c.48-.27.86-.68,1.09-1.17h.75c-.38.51-1.04.93-1.84,1.17M7.94,8.36c.1-.26.15-.54.15-.83,0-.05,0-.09,0-.14h.9s0,.09,0,.14c0,.28-.09.57-.25.83h-.8Z"/>
        <path class="cls-5" d="M5.48,3.19c-.13,0-.23.1-.23.23s.1.23.23.23.23-.1.23-.23-.1-.23-.23-.23M5.48,3.49s-.08-.03-.08-.08.03-.08.08-.08.08.03.08.08-.03.08-.08.08"/>
      </g>
    </g>
  </g>
</svg>