<?xml version="1.0" encoding="UTF-8"?>
<svg xmlns="http://www.w3.org/2000/svg" xmlns:xlink="http://www.w3.org/1999/xlink" viewBox="0 0 27.78 32.48">
  <defs>
    <style>
      .cls-1 {
        clip-path: url(#clippath);
      }

      .cls-2 {
        fill: #f9a020;
      }

      .cls-2, .cls-3, .cls-4, .cls-5, .cls-6, .cls-7, .cls-8, .cls-9, .cls-10, .cls-11, .cls-12, .cls-13, .cls-14 {
        stroke-width: 0px;
      }

      .cls-3 {
        fill: none;
      }

      .cls-4 {
        fill-rule: evenodd;
      }

      .cls-4, .cls-13 {
        fill: #231f20;
      }

      .cls-5 {
        fill: url(#Degrade_OR_LVQR-5);
      }

      .cls-6 {
        fill: url(#Degrade_OR_LVQR-3);
      }

      .cls-7 {
        fill: url(#Degrade_OR_LVQR-4);
      }

      .cls-8 {
        fill: url(#Degrade_OR_LVQR-2);
      }

      .cls-15 {
        clip-path: url(#clippath-1);
      }

      .cls-16 {
        clip-path: url(#clippath-4);
      }

      .cls-17 {
        clip-path: url(#clippath-3);
      }

      .cls-18 {
        clip-path: url(#clippath-2);
      }

      .cls-19 {
        clip-path: url(#clippath-5);
      }

      .cls-9 {
        fill: #c5c7c9;
        mix-blend-mode: multiply;
      }

      .cls-10 {
        fill: url(#Degrade_OR_LVQR);
      }

      .cls-11 {
        fill: #e1251b;
      }

      .cls-20 {
        isolation: isolate;
      }

      .cls-12 {
        fill: #fff;
      }

      .cls-14 {
        fill: #00458d;
      }
    </style>
    <clipPath id="clippath">
      <path class="cls-3" d="M4.98,23.65c.15-1.46.76-2.64,1.48-2.97-.01,0-.03,0-.04,0h-.01s-.21-.01-.21-.01h0c-.07-.01-.14-.02-.2-.02-1.13,0-1.82,1.55-1.91,3.02-.03.54.04,1.14.2,1.64.13.4.37.93.8,1.21.23.14.46.24.7.29-.6-.5-.94-1.75-.8-3.16Z"/>
    </clipPath>
    <clipPath id="clippath-1">
      <path class="cls-3" d="M5.8,24.73c.04-.23.11-.41.18-.46-.01,0-.03,0-.04,0,0,0-.01,0-.02,0-.1-.01-.19.23-.22.46-.01.09-.02.18-.01.27,0,.07.02.15.05.2.02.03.06.04.08.06-.04-.09-.05-.29-.02-.52Z"/>
    </clipPath>
    <clipPath id="clippath-2">
      <path class="cls-3" d="M7.81,23.92c-.03-.21-.09-.34-.15-.35-.02,0-.02,0-.05.02-.02.01-.04.02-.04.02.06.03.12.16.14.37.03.21,0,.41-.05.5.03-.01.07-.04.1-.1.05-.1.06-.31.04-.46Z"/>
    </clipPath>
    <clipPath id="clippath-3">
      <path class="cls-3" d="M26.84,17.08c-.56-1.26-1.34-2.01-2.08-2.02-.22,0-.44.06-.65.2h0s-.09.05-.09.05c.73.11,1.59.95,2.11,2.16.53,1.25.54,2.49.07,3.07.29-.14.53-.34.74-.63.47-.66.3-1.95-.09-2.83Z"/>
    </clipPath>
    <clipPath id="clippath-4">
      <path class="cls-3" d="M24.45,19.25c-.06-.23-.07-.44-.03-.51-.01,0-.03.01-.04.01,0,0-.01,0-.02,0-.09.03-.07.29,0,.53.02.09.06.18.1.25.03.06.08.14.13.17.03.02.07.02.09.02-.08-.06-.17-.25-.23-.48Z"/>
    </clipPath>
    <clipPath id="clippath-5">
      <path class="cls-3" d="M25.69,17.71c-.1-.16-.19-.26-.24-.24-.01,0-.01.01-.02.03,0,.02-.02.03-.02.03.05,0,.15.1.24.25.09.16.15.33.14.41.01-.02.03-.06.03-.11,0-.1-.07-.27-.14-.38Z"/>
    </clipPath>
    <linearGradient id="Degrade_OR_LVQR" data-name="Degrade OR LVQR" x1="-340.91" y1="-930.15" x2="-329.12" y2="-928.28" gradientTransform="translate(495.22 862.76) rotate(-10.58) skewX(-1.14)" gradientUnits="userSpaceOnUse">
      <stop offset="0" stop-color="#f89f20"/>
      <stop offset=".16" stop-color="#ffcd71"/>
      <stop offset=".25" stop-color="#ffcd71"/>
      <stop offset=".5" stop-color="#f89f20"/>
      <stop offset=".75" stop-color="#ffcd71"/>
      <stop offset=".87" stop-color="#ffcd71"/>
      <stop offset=".99" stop-color="#f89f20"/>
    </linearGradient>
    <linearGradient id="Degrade_OR_LVQR-2" data-name="Degrade OR LVQR" x1="-279.78" y1="-614.77" x2="-266.69" y2="-614.77" gradientTransform="translate(366.14 572.94) rotate(-7.82)" xlink:href="#Degrade_OR_LVQR"/>
    <linearGradient id="Degrade_OR_LVQR-3" data-name="Degrade OR LVQR" x1="-280.1" y1="-614.19" x2="-267.01" y2="-614.19" gradientTransform="translate(366.14 572.94) rotate(-7.82)" xlink:href="#Degrade_OR_LVQR"/>
    <linearGradient id="Degrade_OR_LVQR-4" data-name="Degrade OR LVQR" x1="-280.06" y1="-614.75" x2="-266.97" y2="-614.75" gradientTransform="translate(366.14 572.94) rotate(-7.82)" xlink:href="#Degrade_OR_LVQR"/>
    <linearGradient id="Degrade_OR_LVQR-5" data-name="Degrade OR LVQR" x1="-203.81" y1="-449.71" x2="-196.72" y2="-456.06" gradientTransform="translate(258.64 428.77) rotate(-6.43)" xlink:href="#Degrade_OR_LVQR"/>
  </defs>
  <g class="cls-20">
    <g id="Layer_2" data-name="Layer 2">
      <g id="Layer_1-2" data-name="Layer 1">
        <g>
          <path id="Rouge" class="cls-11" d="M11.97,31.77s0,0,0,0h0s0,0,0,0ZM9.59,28.73s-.02-.02-.08,0c-.01.02-.08.08-.02.08.03,0,.06.05.11.04.02-.03.02-.03.06-.04.02-.04,0-.1-.02-.11-.02,0-.03,0-.05.02,0,0,0,.01,0,.02ZM10.49,29.96s.12-.02.11-.1c-.03,0-.04-.03-.08,0s-.07.09-.03.1ZM11.69,31.47s.07,0,.07-.01.04-.06.07-.07c.13-.02.13-.11-.04-.06-.01,0-.06.05-.07.04-.05-.03.07-.15.02-.19-.02-.08-.06.05-.08.07-.07.08-.06.06-.02.15,0,.01-.02.02-.04-.02-.03-.04-.06-.05-.1-.07,0,0-.01-.03,0-.03.05.01.08,0,.1-.03.02-.02.03-.04.02-.05h-.02s.06-.08.02-.12c-.06,0-.04-.05-.09,0-.03.03.03.06,0,.1-.01,0-.03,0-.04,0-.01.01-.02-.01-.04,0-.02.03-.04.01-.05,0,0-.02,0-.03.02-.04s.03.01.04,0-.04-.03-.09-.04-.08,0-.08-.03c0-.05.05,0,.09,0,.03,0,.06-.02.06-.02,0-.03.12-.02.05-.07-.02-.01-.05,0-.06-.02-.02-.03,0-.03.08-.03.09-.02.04-.04.02-.04-.05,0,.02-.07-.04-.07-.03,0-.09.11-.13.02-.02-.04.03-.09-.01-.09-.03-.01-.03,0-.06.03,0,0-.01.03-.05.02-.06,0-.03-.07.02-.08.11-.09-.03-.12-.08-.01-.02.04-.08.04-.08,0,0-.03,0-.09.03-.1.03,0,.08-.02.11-.07.04-.06-.05-.05-.09-.03-.03.02-.07.03-.1,0-.01-.09.13-.08.08-.15-.03-.05-.04,0-.05.02-.01.03-.1.02-.11,0-.02-.04.01-.06.02-.11-.1,0-.05-.03-.09-.03-.04,0-.09.09-.14.04-.04-.03,0-.08.06-.08.02,0,.02-.04.04-.06.07-.11,0-.03,0-.07,0-.03-.01,0-.03-.02s-.04.01-.05.03c-.04.05-.02.08-.05.09-.17.06-.03-.11-.07-.12-.01-.01.02-.02.03-.03.02-.02,0-.05,0-.06,0-.04.1-.02.06-.06-.06-.07-.13.05-.21-.03,0-.05-.02-.08,0-.1.01-.01.02.01.04,0,.07-.04-.03-.08-.04-.05-.02.03-.07.06-.1.03-.04-.03,0-.09.02-.11.01-.01.07,0,.1-.04.02-.03-.02-.04-.04-.04-.02,0-.03.04-.04.03,0,0-.01-.01-.03-.01-.17,0-.05-.08-.05-.09-.04-.05-.09-.01-.11-.03-.03-.02-.03-.06-.01-.06,0,0,.04,0,.04-.03,0-.07-.06-.02-.05-.07.02-.06-.04,0-.04,0-.01,0,0,.06.02.07,0,.03.02.02,0,.06-.03.02-.07-.04-.12,0-.06,0-.03-.05.02-.07.02,0-.02-.03-.04-.04-.02-.04.07-.13.02-.19-.02-.02-.08.08-.13.05-.04-.03.01-.11,0-.15-.02-.02-.07,0-.07.03s-.03.02-.02.11c0,.03-.07,0-.12-.02-.01,0-.01-.04,0-.05.03-.01.03-.03.07-.03,0,0-.01-.01-.01-.02,0-.02.02-.02.02-.02.01-.01,0-.03,0-.06,0-.01,0-.02.02-.02.05.02.08-.07.08-.08-.02-.03-.04-.04-.08,0-.01,0,.02.06-.05.07,0,0-.03,0-.04-.02.03-.08-.08-.04-.04-.11,0-.02.05,0,.06-.01.02-.01.07-.04-.04-.03-.04,0-.06.05-.1,0-.03-.03-.01-.05.01-.05.02,0,.07-.01.07-.02.03-.04-.03-.02-.03-.06s.04-.01.05-.03c0,0,.02-.04,0-.06-.02-.03-.07.03-.07.04,0,.05-.04.08-.1.05.03-.06-.07-.1,0-.16.01-.01,0-.03-.02-.02-.03,0-.06.04-.07.05,0,.01.03.06,0,.08-.13,0-.1.05-.12.06-.01,0-.01-.02-.07,0-.02-.03-.04-.06-.07-.1h0s.02-.01.03,0c.05.05.15.01.18-.07,0-.02,0-.03,0-.04.01-.02.05-.05.06-.07.02-.03.02-.06-.02-.05-.03.02-.05.02-.06.03-.01.02,0,.03,0,.05,0,.04-.03.02-.05.03s-.02.09-.04.1c-.03.01-.03-.1-.09-.05,0,.01,0,.03-.02.04-.01.01-.03,0-.03-.01,0-.01.02-.03,0-.05-.01-.01-.03-.01-.03.01-.04-.06-.09-.13-.13-.19.02,0,.03,0,.03-.02,0-.02,0-.02-.01-.05-.01-.02-.04-.03-.06-.01h-.01s-.05-.06-.07-.1h0s.02-.06.02-.1c0-.03-.06-.05-.04.02,0,.02-.01.03-.02.03-.03-.04-.06-.09-.09-.13,0,0,0-.02.04-.02.05-.01.04-.06,0-.06-.03,0-.02,0-.03-.02-.03,0-.04.04-.05.05-.03-.04-.06-.09-.08-.13,0-.01,0-.02-.01-.02-.01-.02-.02-.04-.04-.06.02,0,.02-.01.04-.05-.01-.04-.03-.04-.09-.06-.02-.03-.02-.05,0-.06.06.02.07-.01.06-.03,0-.03-.05-.07-.07-.03-.02.03,0,.04,0,.05-.03.04-.04.03-.06,0-.02-.04-.05-.07-.07-.11,0,0,.02,0,.02-.04.01-.02.07,0,.05-.03-.02-.02.03-.06,0-.08-.01-.01-.04,0-.04,0-.01.03-.02.11-.08.07-.02-.02-.04-.08,0-.13.01-.02.05-.01.06-.06,0-.03-.04-.06-.06-.04-.01.02-.02.03,0,.05.02.02,0,.05-.03.08t-.03,0s-.04-.07-.06-.1c.02,0,.06,0,.04-.03-.01-.01-.03-.02-.05,0,0,.01,0,.02,0,.03-.02-.04-.04-.07-.06-.11,0,0,.02.01.02.02.02.01.05,0,.06-.02s0-.09-.03-.07c-.03.02-.04.04-.04.07-.02-.03-.04-.07-.06-.1.02,0,.05-.04.03-.05-.01-.01-.03-.02-.06.01-.02-.03-.03-.06-.05-.08.01,0,.01-.07-.02-.09-.01,0-.01.01-.02.02-.02-.03-.04-.07-.06-.1,0,0,.04,0,.04-.05,0-.02-.02-.03-.05-.02,0,0-.01,0-.01.02-.07-.12-.13-.24-.19-.35,0,0-3.56-4.77-3.56-4.77l-.21-.02s-.08,0-.11-.01c-1.74-.23-2.24-1.5-2.57-2.25-.03-.06-.05-.12-.08-.18-.07-.16-.24-.45-.29-.51,0,0,0,0,0-.01.04-.25.05-.56.04-.92-.03-.65.14-1.18.51-1.55.62-.64,1.68-.77,2.46-.77.15,0,.28,0,.39.01l.42.02-.38-.29c-.22-.17-.49-.48-.81-.85-.08-.1-.17-.2-.26-.3-.46-.52-.82-.93-1.63-1.58-.29-.23-.43-.73-.33-1.09.1-.36.42-.61.91-.69.08-.01.17-.02.27-.02.53,0,1.2.29,1.9.68,1.25.69,1.9.78,2.31.79.11,0,.2,0,.29-.01.07,0,.13,0,.19,0,.08,0,.14,0,.2.03l.12.03.06-.11c.51-1.02,2.11-2.2,3.28-2.44.79-.16,1.39-.21,2.31-.21.14,0,.28,0,.43,0h.03s.02,0,.02,0c.27-.09.54-.2.83-.32.6-.24,1.22-.49,1.72-.54.11-.01.23-.02.36-.02.76,0,1.62.21,2.3.55l.08.04.07-.05c.23-.16.41-.24.59-.33.23-.11.45-.21.75-.47.93-.81,1.38-.88,1.86-.96.06,0,.13-.01.2-.01.33,0,.64.11.77.28.22.28.19.5-.13.9-.69.88-.81,1.36-.9,1.75-.04.15-.07.28-.13.41l-.19.38.39-.18c.75-.36,1.34-.56,1.75-.61.17-.02.31-.03.44-.03.59,0,.98.2,1.32,1.26.05.14.15.4.24.55-.08.23-.1.83-.11,1.02-.01.39-.1,1.14-.56,1.8l-.1.15-1.82,4.73-.08.31c-.18.7-.61,1.28-.83,1.51h-.01s0,.02,0,.02c-.9,1.37-.55,3.06-.32,4.18.02.11.04.21.06.31.18.93.28,1.97-.37,2.63-.64.64-2.35,1.16-3.35,1.15-.04,0-.08,0-.12,0-1.11-.06-1.57-.59-2.16-1.27-.06-.07-.12-.13-.18-.2l-.1-.12-.11.11c-.49.48-1.98,2.38-2.71,3.81,0,0-.02-.03-.06,0-.05.03-.01.09-.02.08-.04.04-.09.02-.14.09-.03.13-.09.06-.12-.02-.09.06-.14.01-.17-.02-.03,0-.02-.02-.05-.02,0-.03,0-.04-.03-.08-.08,0-.09.04-.12.1-.02.02-.05.03-.08,0-.04-.04.07-.06.05-.14-.02-.1-.09-.05-.09,0,0,.05-.03.06-.04.05-.03-.06-.03-.07-.08-.06,0,0-.03,0-.03,0,0-.04.03-.07.06-.08.04-.01.06-.06-.02-.07-.04,0-.09.05-.11.09-.05-.01-.01-.1-.06-.16-.05-.06-.05.04-.04.07,0,.03-.05.02-.06,0s0-.02-.02-.03c-.01-.01-.02-.02-.02-.04.03.02.12-.12,0-.08-.04.01-.04.03-.1,0-.02-.01-.02-.03,0-.03.03,0,.1-.03.11-.04.06-.11-.01-.1-.06-.11-.07.01-.03.04-.07.07.01.01,0,.05-.01.04-.02-.02-.04-.03-.05,0,0,0,0,.02,0,.02s0,0-.02,0c0-.01,0-.03-.04-.05s-.04-.06,0-.04ZM8.33,26.71s-.03-.03-.04,0c0,.02.01.02.02.02.02.02.04,0,.02-.02ZM8.76,27.64s0,.02.04.01.04-.05.01-.06c-.02,0-.04,0-.05.01s-.01.03,0,.04ZM9.37,28.3s.02,0,.04.01c.02,0,.03-.04.01-.06-.01,0-.02-.02-.04,0,0,0-.03.04-.01.05ZM8.78,27.44s.03-.02.02-.04-.07,0-.07.02c0,.02.04.03.05.02ZM8.89,27.76s-.08-.02-.1,0c0,.04.01.04.02.06.06,0,.07-.01.07-.06ZM9.27,28.09s.03,0,.04,0c.02-.01.02-.03,0-.05-.02,0-.03,0-.04,0-.01.02-.01.03,0,.04ZM10.08,29.06s-.02.01-.02.03c0,.03.04.05.05.02.05-.06,0-.09-.04-.05ZM12.44,31.68s-.03.03-.02.03.02.03.06,0c.04-.02.01-.09-.03-.04ZM11.88,31.18c-.06-.01-.05.03-.05.04,0,.04.05.02.09,0,.04-.03.01-.1-.04-.04ZM9.03,27.75s0,.04,0,.05.02.01.04.01.01-.01.01-.02c0-.02-.02-.07-.05-.04ZM9.02,27.94s-.02.04,0,.05c.02,0,.03.02.05.02.03-.01.01-.03.02-.06-.02-.03-.05-.01-.06,0ZM9.18,28.11c0-.05-.02-.04-.04-.07,0-.01-.02-.01-.04,0,0,.06.03.08-.02.1-.01,0,0,.03,0,.05.04,0,.02-.01.06-.02,0-.01,0-.05.04-.06ZM9.38,28.39s-.05.01-.07,0c-.02-.06.03-.1-.01-.18-.03,0-.01,0-.03-.01-.04-.03-.05-.01-.06.01,0,.02,0,.04.01.06,0,0,.02,0,.03.01.04.05-.03.05-.05.1.02.03.05-.02.07,0,.02.03-.01.06.03.07.03,0,.03,0,.04-.01.05,0,.04.01.07,0,.03,0,0-.06-.03-.06ZM11.08,30.21s-.04-.03-.06-.01c-.03.04-.03.08.03.06.04,0,.04-.05.02-.05ZM12.41,31.76s-.03,0-.03,0c-.02-.02-.05-.05-.06-.02-.03.05,0,.08.06.08.05,0,.05-.04.03-.06ZM11.47,30.72s-.06-.04-.08,0c-.02.03.02.06.05.04.01,0,.05-.03.04-.05ZM12.11,31.48s0-.06-.02-.08-.05,0-.06.02c-.03.04,0,.04.02.06.01.03.06.03.06,0ZM12.2,31.63s-.06-.04-.09-.02-.03.05,0,.07.05.05.07.04c.01-.01,0-.03.01-.04.02,0,.04-.04,0-.06ZM12.27,31.52s-.03-.03-.05,0c0,.01-.02.02,0,.05.02.03.06.02.05,0,0-.02.02-.03,0-.05ZM11.68,30.99s-.03.06-.02.08c.02.03.07,0,.07-.02,0-.03-.03-.08-.05-.06ZM12.67,31.91s-.02-.06-.09-.05c-.05,0-.06,0-.08.05h-.02s-.02.02,0,.02.04-.02.07-.03c0,0,.02.06.04.07.07.03.08-.04.08-.06ZM12.76,32.08s.03-.07-.02-.1c-.02-.01-.06,0-.07.01-.02.02-.01.06,0,.07.02,0,.06.03.06.03,0,0,.03,0,.03-.01ZM12.82,31.9s.02-.04,0-.07c-.01-.02-.06-.05-.09-.03-.02.01-.03.07,0,.1.03.02.08.03.09,0ZM12.92,31.93s-.05.04-.07.04c-.03.05-.03.14.05.14.05,0,.04-.08.07-.11.02-.02.01-.1-.04-.08ZM9.75,28.9s-.04,0-.05-.02c0,0-.02-.03-.05-.02-.02.01-.05.03-.02.08.01.02.06.02.1.02.02-.01.03-.04.01-.06ZM9.59,28.91c0-.06-.09-.06-.07.04.02.02.03.04.05.06,0,0,0,0,0,0,0-.02.04-.06.01-.09ZM9.82,29.05s-.05-.05-.11-.04c-.06.02,0,.09.06.09.03,0,.05-.04.05-.05ZM9.76,29.16c-.04-.05-.06.02-.06.02.02.02.02.06.03.08.04,0,.05-.07.03-.1ZM9.93,29.37s-.04-.01-.06.02c-.01.02,0,.04,0,.06.02,0,.04,0,.06,0,.02-.02.03-.06,0-.08ZM10.06,29.29s-.04-.04-.06-.03c-.04.01-.1.04,0,.1.03.01.05.01.07.01s.03-.07-.01-.09ZM10.19,29.63s.03,0,.05,0c.02,0,0-.1-.02-.13-.04-.01-.06-.03-.09,0-.03.06.04.04.06.13ZM10.12,29.6s.02-.04,0-.05c-.03,0-.04-.04-.06,0-.01.03-.01.04-.03.08,0,0,.01.02.02.03.03-.04.05-.03.06-.05ZM10.4,29.61s-.05-.08-.09-.04c0,.02-.03.07-.02.08.02.02.06.03.11.02.02-.04,0-.04,0-.06ZM10.24,29.85s.03-.03.06-.05c0-.01.01-.03,0-.05-.07-.04-.04.03-.11.05-.02,0,.03.09.05.05ZM10.43,29.76s-.07,0-.08.03c0,.06.02.08.07.1.01,0,.01-.02.03-.03s0-.04,0-.04c-.02-.01,0-.03,0-.06ZM10.61,30.07s.03-.04.02-.06-.09-.03-.13,0,.07.1.11.07ZM10.43,30s-.1.02-.07.06c.01.02.04.02.05,0,.02-.01.04-.05.01-.07ZM10.55,30.23s.02.02.04.02c0,.05.05.01.07,0,.03-.04,0-.09-.06-.07-.01,0-.07.02-.04.06ZM10.88,30.49s.05-.03.07-.04c.05-.01.03-.06,0-.06-.02,0-.06-.03-.15.02-.01,0-.02.01,0,.02.06.02,0,.06.07.08ZM10.95,30.6s.05.04.09.03c.02-.01,0-.03.02-.05.04,0,.05-.04.04-.06-.02,0-.06-.03-.08,0,0,.03-.03,0-.05.02s-.02.04-.01.06ZM11.02,30.65s-.02.01-.07.02c-.02,0,0,.05.02.06s.04,0,.05,0c.03-.01.04-.05.02-.06,0,0,0-.01-.02-.02ZM11.19,30.89s.04.02.05,0c.01-.03,0-.04,0-.06,0-.02-.06-.04-.08-.02-.02.02.01.07.03.08ZM11.32,31c.06.01.1-.06.08-.1-.02-.02,0-.03-.02-.04-.03-.01-.09,0-.08.04,0,.01-.01.09.02.1ZM11.17,30.92s-.07-.02-.05.03c0,0,.02,0,.03.01.01.01.03.01.03,0,0-.02,0-.03,0-.04ZM10.77,30.4s-.04-.01-.08.01c0,.01,0,.03,0,.03,0,0,0,.02.01.03.02.01.04,0,.04,0,.01-.02.04-.06.03-.07ZM12.17,31.98s.03.02.04.04c.02,0,.04-.02.02-.03-.02-.05-.06-.03-.06,0ZM12.38,32.11s-.01-.03-.03-.02c-.01,0-.02.02-.01.04.01,0,.02.02.03.03,0,0,0,0,.02,0,0-.02,0-.03,0-.05Z"/>
          <path id="Blanc" class="cls-12" d="M6.49,27.13c.79-.09,1.72-1.16,1.91-2.96.15-1.43-.1-2.66-.66-3.28-.26-.29-.58-.45-.96-.49.04-.06.05-.13.07-.22.01-.09,0-.23-.08-.33-.06-.07-.14-.12-.23-.13-.01,0-.03,0-.04,0-.19,0-.35.13-.42.35-.03.09-.04.2-.03.29-.02,0-.04,0-.06,0-1.31,0-2.1,1.65-2.2,3.29-.07,1.14.3,2.58,1.14,3.11.41.26.82.38,1.27.38.1,0,.19,0,.29-.02ZM7.4,15.52l.05-.05c.71-.72.71-1.71.7-2-.03-.43-.15-.77-.33-.92-.18-.14-.37-.2-.67-.2-.03,0-.05,0-.08,0-.03,0-.05,0-.08,0-.59,0-1.53-.19-2.11-.54l-.03-.02c-.59-.36-1.49-.95-2.16-1.01-.04,0-.08,0-.12,0-.37,0-.65.19-.75.46-.1.28.01.67.26.87.64.51,1,.87,1.56,1.41l.07.07c.18.17.33.34.49.51.41.45.8.87,1.46,1.2h.03s.03.01.03.01c.34.03.7.08,1.01.13.22.03.43.06.61.08h.07ZM19.26,26.75c.58-.14,1.01-.37,1.17-.64.12-.2.17-.4.18-.65v-.5s-.28.42-.28.42c-.13.19-.3.45-1.13.66-.37.09-.64.13-.89.13-.35,0-.66-.09-.92-.27l-.44-.29.22.48c.08.18.28.42.44.55.2.15.48.23.83.23.24,0,.52-.04.82-.11ZM19.81,22.46c.21-.08.41-.16.58-.2.36-.09.82-.13.82-.13l.24-.02-.12-.2c-.14-.24-.4-.36-.76-.36-.09,0-.19,0-.29.02-.49.08-.93.33-1.31.56-.24.14-.46.27-.67.34l-.54.17.55.12c.08.02.17.03.26.03.41,0,.84-.17,1.23-.32ZM21.06,11.36l.15-.16c.36-.4.51-.91.65-1.36.05-.16.09-.3.14-.43.14-.37.42-.81.7-1.12.02-.02.04-.04.06-.07.17-.18.43-.45.2-.71-.11-.12-.26-.18-.46-.18-.07,0-.15,0-.24.02-.44.08-.92.4-1.52.99-.27.27-.55.41-.79.53-.14.07-.26.13-.38.21l-.18.12.18.12c.49.34.94.94,1.39,1.83l.1.2ZM20.46,14.77l.25-.11c.16-.07.39-.14.56-.17l.3-.05-.23-.21c-.19-.17-.46-.27-.73-.28-.03,0-.07,0-.1,0l-.35.04.27.23c.06.05.09.16.07.27l-.05.27ZM19.86,14.84c.23-.02.4-.22.37-.45-.02-.2-.15-.36-.32-.37h0s-.03,0-.04,0c-.07,0-.14.03-.25.09-.11.07-.22.16-.22.3,0,.28.21.43.41.43.01,0,.03,0,.04,0ZM25.95,20.93c.49-.13.89-.41,1.21-.86.54-.75.38-2.13-.06-3.11-.61-1.37-1.48-2.18-2.34-2.18-.21,0-.42.05-.63.14-.03-.11-.09-.19-.12-.23-.05-.06-.18-.17-.34-.17-.05,0-.1.01-.15.03-.12.05-.17.14-.2.2-.05.14.01.27.04.32.02.03.06.11.13.16-.67.38-.92,1.16-.7,2.24v.04s.04.03.04.03c.45.5.66,1.06.65,1.67v.04s.02.04.02.04c.48.83,1.35,1.66,2.2,1.67.09,0,.18-.01.26-.03ZM16.06,17.56c.08.49.02.82-.43,1.38-.57.71-.65,2.11.09,2.94s1.51.82,2.23.55c.78-.29,1.61-1.04,2.59-1.15.74-.08,1.19.34,1.34.61.73-.69,1.13-1.36,1.36-2.3.17-.7-.12-2.17-1.25-2.59-.85-.31-1.12-.31-2.09-1,.15.34.45.76-.48,1.22-1.14.56-2.66.52-3.35.32Z"/>
          <g id="Black">
            <path id="Ombre" class="cls-9" d="M10.39,24c2.36,1.31,2.5.92,3.47,1.68s1.43,1.71,1.43,1.71c0,0-.88,1.22-1.43,1.88s-.95-.53-1.36-1.79-3.54-4.27-2.11-3.48Z"/>
            <path class="cls-3" d="M5.03,26.6c.48.3.96.4,1.46.35.71-.08,1.6-1.12,1.77-2.82.18-1.8-.23-3.78-1.85-3.61-.05,0-.04-.02-.03-.06.03-.05.05-.1.16-.12.13-.02.14-.06.16-.21.01-.09-.01-.27-.18-.29-.16-.01-.25.11-.3.25-.04.13-.03.29.02.38.02.03,0,.04-.03.04-1.31-.21-2.17,1.41-2.27,3.13-.06,1.06.26,2.46,1.07,2.97Z"/>
            <path class="cls-3" d="M24.08,15.09s-.07.01-.07-.03c.01-.14-.07-.26-.11-.31-.03-.04-.17-.16-.31-.1-.18.08-.12.25-.09.31.13.25.24.02.37.15.06.05.02.07,0,.08-.93.31-1.13,1.2-.93,2.21.53.59.7,1.21.68,1.78.71,1.21,1.71,1.72,2.29,1.56.44-.12.82-.37,1.12-.8.51-.72.33-2.06-.08-2.96-.65-1.45-1.75-2.56-2.9-1.9Z"/>
            <g>
              <path class="cls-13" d="M6.37,18.93c.47-.36,1.03-1.02,1.37-1.83-1.09-.43-2.24-.64-3.48-.47-.74.1-1.24.46-1.46.88.35-.15.75-.29,1.59-.4.85-.11,1.61.02,1.99.16-.38.07-.68.4-.71,1.07.4-.38.75-.62,1.08-.77-.24.34-.46.86-.38,1.36Z"/>
              <path class="cls-13" d="M12.91,20.05c.16-.08.43-.11.69-.09.38.04.67.05.77-.09-.18-.04-.33-.09-.52-.18-.24-.12-.51-.16-.75-.13-.67.11-.97.83-.73,1.39.07-.54.27-.77.54-.91Z"/>
              <path class="cls-13" d="M17.47,20.39c.13-.02.22-.07.25-.17.27-.03.52.07.78.35.02.02.06,0,.06-.02-.1-.79-.76-1.13-1.27-1.05-.3.05-.48.27-.43.48.09.33.4.45.61.41Z"/>
              <path class="cls-13" d="M21.31,19.78c.02-.32.16-.53.32-.61.07.06.21.07.32.03.17-.07.32-.28.28-.58-.03-.19-.23-.35-.48-.24-.44.19-.75.77-.53,1.4.02.07.08.06.09,0Z"/>
              <path class="cls-13" d="M23.29,13.33c-.17-.44-.52-.71-.88-.87.53-.48,1.35-.89,2.05-.98-.2-.21-.47-.31-.8-.26-.45.07-1.52.82-1.81,1.23.13.56.56,1.49.88,1.69.01-.56-.27-1.03-.39-1.26.26.13.59.28.95.45Z"/>
              <g>
                <path class="cls-13" d="M27.35,16.82c-.49-1.1-1.13-1.85-1.82-2.17.44-.62.57-1.36.59-1.88.02-.54.06-.9.11-1,.01-.02,0-.06-.02-.1-.08-.12-.17-.36-.23-.52-.4-1.25-.9-1.46-1.92-1.33-.5.06-1.18.33-1.8.62.24-.48.05-.9,1.01-2.13.3-.38.44-.7.13-1.09-.22-.27-.74-.38-1.11-.32-.52.08-1,.17-1.94.99-.49.43-.76.4-1.32.78-.91-.45-2.01-.62-2.75-.55-.77.08-1.77.59-2.59.87-1.15-.02-1.81.02-2.77.21-1.18.24-2.84,1.44-3.38,2.52-.52-.15-.9.36-2.96-.78-.98-.55-1.79-.74-2.28-.66-1.33.23-1.21,1.52-.64,2.03.81.71,1.15,1.05,1.61,1.57.42.48.8.94,1.08,1.16-.73-.04-3.57-.14-3.46,2.47.02.42,0,.71-.04.9,0,.03,0,.08.04.13.03.04.19.3.27.47.34.74.8,2.25,2.77,2.51.04,0,.08,0,.12.01-.29.6-.46,1.33-.51,2.05-.07,1.18.29,2.73,1.26,3.34.44.28,1.01.49,1.73.41.49-.06.99-.41,1.38-.98.41-.59.67-1.35.75-2.21.09-.84.04-1.5-.06-2.01,1.07,1.61,2.77,2.59,4.19,2.96.04,0,.06,0,.07-.03,0-.02,0-.05-.03-.07-1.91-.9-3.99-2.81-4.35-4.86-.29-1.63.23-2.8.23-2.8-.19.02-.41.24-.45.32-.06.1-.29.77-.32.88-.14.46-.42.96-.88,1.38-.04-.27-.23-.44-.51-.46-.28-.02-.58.18-.64.62-.56.03-1.03.33-1.4.79-.01,0-.03,0-.04,0-.57.02-2.02-.05-2.72-2.47-.66-2.26,1.06-2.67,1.73-2.76,2.32-.31,4.89.72,4.89.72.04-.22-.32-.95-.41-1,1.05-1.06.86-2.44.36-3.15.61-1.11,1.92-1.98,2.83-2.26.53-.16,2.57-.19,3-.29.43-.1,1.57-.7,2.33-.76.87-.07,2.08.22,2.55.52.63.4,1.09.94,1.47,1.53-.07-.01-.23.02-.31.02-.42.02-.85.62-1.15.64.06.19.23.37.38.35.2-.04.52-.45.93-.51.12-.02.25-.02.37.04.58.69.77,2.18.79,2.62-.04-.09-.38-.34-.62-.42.04-.12.08-.29.04-.46-.16.25-.44.41-.78.49.05-.14.09-.4,0-.6-.11.22-.34.51-.57.63.04-.32,0-.58-.12-.69-.72,1.21-.34,2.23-.34,2.23.37,1.15,2.14,1.68,2.54,1.81.58.18.81.38,1.09.79.7,1.05.11,2.78-.86,3.53-.01,0-.32-.56-1.44-.33-1.17.24-2.45,1.27-3.2,1.33-.69.05-1.46-.46-1.82-1.33-.19-.45-.22-1-.13-1.48-.32.25-.43.88-.4,1.47-.52.07-1.17-.05-1.44-.52-.22.26-.35.55-.27.89.21.83,1.27,1.42,1.94,2.08.64.62,1.16,1.53,1.64,2.57.32.69.91,1.23,1.71,1.19.49-.03,1.38-.19,1.98-.59.51-.34.66-.92.56-1.5-.21-1.21-.53-2.38.73-3.12-.35,1.52,0,3.44.07,3.91.15,1.03.13,1.41-.3,1.88-.45.5-2.07.99-2.95,1.02-.66.02-1.3-.2-1.89-.82-.2-.21-1.94-2.27-2.74-2.62-.14-.06-.15.03-.12.06.63.64,1.16,1.31,1.67,2.02-.59.61-2.16,2.92-2.91,4.29.04,0,.05.01.07.04,0,.02-.01.04-.04.03-.01,0,0-.03-.02-.03-.01,0-.02,0-.03,0-.03.06-.06.11-.09.17,0,0,0,0,0,0,0,0,.01,0,.01,0,.03-.06.03-.08.11-.08.04.03-.08.09-.05.13.03.02.07-.04.12-.04.02.02-.03.06-.02.08.02.01,0,.06.04.06.02,0,.04-.02.04-.07,0-.04.03-.03.05-.01,0,.07.06-.03.07-.02.02.02-.02.11.03.15.04.05.01-.1.07-.07,0,.02.02.03.02.05,0,.04.01.1.05.12.06-.01.04.01.08.03,0,0,.05-.05.02-.05-.1-.01,0-.05-.03-.08-.01,0-.03.02-.04.01-.02-.01-.02-.06,0-.09,0-.02.03-.02.03,0,0,.02.02.02.02.03,0,.03.04.03.06.05,0,.01.02-.01.04-.03.02-.02,0,0,.02-.03,0,0-.02,0-.03-.02-.02-.03,0-.04.02-.05.02-.01.04,0,.05,0,.04-.04.02-.08.03-.11-.02.01-.04.03-.05,0,0-.02.01-.03.03-.02,0,0,.01.01.01.02.02,0,.03-.01.04-.02.01-.02.03-.05.04-.07-.02,0,0-.05.03-.05.73-1.38,2.13-3.18,2.63-3.67.67.76,1.14,1.45,2.44,1.52.96.05,2.87-.47,3.59-1.19.69-.7.61-1.77.41-2.76-.22-1.14-.71-2.94.23-4.38.24-.24.68-.83.87-1.57.69.95,1.54,1.39,2.16,1.39.68,0,1.33-.51,1.68-1,.62-.87.42-2.35-.03-3.36ZM6.23,20.5s.05,0,.03-.04c-.05-.08-.06-.25-.02-.38.04-.14.14-.26.3-.25.17.02.19.2.18.29-.02.16-.04.19-.16.21-.12.02-.13.07-.16.12-.02.03-.02.06.03.06,1.62-.17,2.03,1.81,1.85,3.61-.17,1.7-1.06,2.74-1.77,2.82-.5.06-.98-.04-1.46-.35-.81-.51-1.13-1.91-1.07-2.97.1-1.72.96-3.33,2.27-3.13ZM7.37,15.31c-.43-.05-1.04-.15-1.62-.21-.88-.43-1.26-1.05-1.91-1.68-.59-.57-.98-.91-1.64-1.49-.34-.29-.41-1.14.49-1.06.65.05,1.56.67,2.13,1.01.63.38,1.66.58,2.27.56.36-.01.52.06.65.17.37.29.49,1.82-.38,2.69ZM16.44,23.7c-.04-.11.06-.18.13-.11.24.21.38.27.89.2.4-.05.81.14,1.1.38.11.09.3.18.35.13.04-.04.03-.13,0-.19-.05-.1-.18-.22-.26-.28.11-.15.39-.39.69-.42.41-.04.66.17.75.51.15.57-.46,1.3-1.3,1.41-1.07.15-2.1-.96-2.35-1.63ZM20.33,25.99c-.14.22-.54.44-1.08.57-.69.16-1.22.14-1.53-.1-.15-.11-.33-.34-.39-.49.59.39,1.24.33,1.93.16.87-.21,1.07-.49,1.22-.72,0,.23-.05.41-.15.57ZM20.38,22.07c-.58.14-1.37.63-2.01.49.55-.18,1.18-.77,1.95-.89.4-.06.75,0,.9.26,0,0-.47.04-.85.14ZM12.76,32.03s-.04-.01-.06-.02c0-.01,0-.03,0-.05.02-.01.04-.01.06,0,.01.02.01.03.01.07,0,0,0,.01-.01,0ZM12.81,31.83s-.01.03-.04,0c0,0,0-.02,0-.03.01,0,.02-.01.04,0,0,0,.02.02,0,.02ZM12.95,32.02s-.03,0-.04-.02c-.02,0-.01-.03,0-.04.02,0,.02-.01.04-.02.02-.01.06,0,0,.08ZM13.09,32.08s-.03,0-.04.03c-.02,0-.05-.01-.04-.04,0-.01.02-.02.02-.02.02,0,.02.01.05,0,.02,0,.03.03.01.02ZM19.68,9.15c.31-.21.75-.31,1.19-.76.65-.65,1.09-.88,1.44-.95.27-.05.43-.01.55.11.16.18-.08.38-.26.57-.33.35-.6.81-.73,1.17-.19.49-.29,1.23-.75,1.74-.38-.76-.85-1.48-1.44-1.89ZM21.27,14.3c-.19.03-.42.11-.59.18.02-.15-.02-.32-.13-.41.23-.02.52.05.72.23ZM19.72,14.2c.13-.08.16-.07.2-.06.09,0,.16.11.17.22.01.14-.09.27-.23.28-.14.01-.28-.08-.28-.27,0-.05.04-.1.15-.17ZM22.29,16.89c-.53-.39-2.4-.43-2.72-1.63.41-.18.99-.25,1.64-.17-.07-.12-.26-.2-.43-.26.1-.08.41-.15.67-.09.58.09,1.02,1.3.84,2.15ZM22.54,15.16c-.15-.38-.61-.7-.7-.77.04-1.36-.05-2-.42-2.76,1.01-.68,1.99-1.16,2.58-1.25.93-.14,1.33.06,1.52,1.62.12,1.03-.14,1.9-.66,2.48-.02,0-.04,0-.06,0-.2,0-.43.07-.56.13-.05-.08-.32-.47-.76-.27-.41.18-.33.6-.24.77-.04.05-.1.11-.16.11-.21,0-.34-.02-.53-.06ZM27.06,19.95c-.31.43-.68.68-1.12.8-.58.16-1.59-.35-2.29-1.56.02-.57-.16-1.19-.68-1.78-.2-1.01,0-1.9.93-2.21.03,0,.06-.03,0-.08-.14-.12-.24.11-.37-.15-.03-.06-.1-.23.09-.31.15-.06.28.06.31.1.04.05.12.17.11.31,0,.04.02.06.07.03,1.15-.66,2.25.44,2.9,1.9.4.9.59,2.24.08,2.96Z"/>
                <path class="cls-13" d="M23.29,13.33c-.17-.44-.52-.71-.88-.87.53-.48,1.35-.89,2.05-.98-.2-.21-.47-.31-.8-.26-.45.07-1.52.82-1.81,1.23.13.56.56,1.49.88,1.69.01-.56-.27-1.03-.39-1.26.26.13.59.28.95.45Z"/>
              </g>
            </g>
            <path class="cls-13" d="M12.88,32.36s-.01-.04-.02-.05c-.02-.03.03-.06.08-.06.05,0-.03.05,0,.06.04.04-.02.07-.04.04Z"/>
            <path class="cls-13" d="M12.51,32.15s.01.02.03.02c.03,0,.03-.04,0-.06-.03-.02-.05,0-.04.03Z"/>
            <path class="cls-13" d="M12.75,32.28s0-.04.01-.06c0-.01.02-.02.03-.02.01,0,.03.03.02.06,0,.01-.05.06-.06.02Z"/>
            <path class="cls-13" d="M13.14,32.25s0,.07.01.07c0-.02.01-.03.02-.05,0-.02-.02-.02-.03-.02Z"/>
            <path class="cls-13" d="M12.65,32.18s-.02.08,0,.09c.01,0,.03-.03.03-.05s-.02-.04-.03-.03Z"/>
            <path class="cls-13" d="M12.97,32.43s0,.08.04.04c0,0,.02-.02.01-.03-.01,0-.03-.03-.05,0Z"/>
            <path class="cls-4" d="M12.74,30.11h.09v-.16h.08s.03,0,.03,0h.02s.02.02.02.02v.02s.02.02.02.02v.03s0,.03,0,.03h0s0,.02,0,.02h0s.09.01.09.01v-.02s-.01,0-.01,0h0s0-.04,0-.04v-.06s-.02-.03-.02-.03l-.02-.02h-.02s0-.01,0-.01h.03s.02-.03.02-.03v-.02s.02-.02.02-.02v-.03s0-.03,0-.03v-.03s-.02-.02-.02-.02l-.02-.02h-.03s-.03-.02-.03-.02h-.04s-.05,0-.05,0h-.15v.42ZM12.83,29.88v-.13h.09s.03,0,.03,0h.02s.01.02.01.02v.02s.01.02.01.02v.02s0,.01,0,.01h-.01s-.02.02-.02.02h-.02s-.02,0-.02,0h-.03s-.06,0-.06,0ZM12.89,30.21h-.05s-.05-.02-.05-.02l-.04-.02-.04-.02-.04-.03-.03-.04-.03-.04-.02-.05v-.05s-.01-.05-.01-.05v-.05s.01-.05.01-.05l.02-.04.03-.04.03-.04.04-.03.04-.03.04-.02h.05s.05-.01.05-.01h.05s.05.01.05.01l.04.02.04.03.04.03.03.04.02.04.02.04v.05s.02.05.02.05v.05s-.02.05-.02.05l-.02.05-.02.04-.03.04-.04.03-.04.02-.04.02h-.05s-.05.02-.05.02ZM12.89,30.28h.05s.05-.01.05-.01h.05s.04-.04.04-.04l.04-.03.04-.03.03-.04.03-.04.02-.04.02-.05v-.05s.01-.05.01-.05v-.05s-.01-.05-.01-.05l-.02-.04-.02-.05-.03-.04-.03-.04-.04-.03-.04-.03-.04-.02-.05-.02h-.05s-.05-.01-.05-.01h-.05s-.05.01-.05.01l-.05.02-.04.02-.04.03-.04.03-.03.04-.03.04-.02.05-.02.04v.05s-.01.05-.01.05v.05s.01.05.01.05l.02.05.02.04.03.04.03.04.04.03.04.03.05.02h.05s.05.02.05.02h.05Z"/>
          </g>
          <g id="Boucle_Gauche" data-name="Boucle Gauche">
            <g class="cls-1">
              <g>
                <polygon class="cls-14" points="5.1 19.71 4.87 20.07 6.93 21.5 7.17 21.13 5.1 19.71"/>
                <polygon class="cls-14" points="4.83 20.44 4.6 20.76 6.67 22.19 6.9 21.87 4.83 20.44"/>
                <polygon class="cls-14" points="4.57 21.18 4.34 21.51 6.41 22.93 6.64 22.61 4.57 21.18"/>
                <polygon class="cls-14" points="4.3 21.96 4.07 22.3 6.14 23.73 6.37 23.39 4.3 21.96"/>
                <polygon class="cls-14" points="4.04 22.8 3.81 23.14 5.87 24.57 6.11 24.23 4.04 22.8"/>
                <polygon class="cls-14" points="3.77 23.63 3.54 23.96 5.61 25.39 5.84 25.06 3.77 23.63"/>
                <polygon class="cls-14" points="3.51 24.38 3.28 24.65 5.34 26.08 5.58 25.81 3.51 24.38"/>
                <polygon class="cls-14" points="4 25.47 3.77 25.82 5.84 27.25 6.07 26.86 4 25.47"/>
              </g>
            </g>
            <path class="cls-11" d="M5.75,24.37h-.02s0,0,0,0c-.15-.06-.17-.27-.19-.39,0-.01,0-.02,0-.03,0-.03-.01-.08-.02-.09,0,0,0,0,0,0,0-.04.01-.09.02-.15,0-.11.03-.19.07-.25.07-.1.16-.11.23-.1.01,0,.03,0,.03,0h.04s-.03-.04-.03-.04c-.02-.03-.04-.08-.06-.15,0-.02-.01-.03-.02-.05-.03-.09-.06-.16-.12-.27-.02-.04-.03-.11-.01-.17.01-.06.05-.09.09-.1,0,0,.02,0,.02,0,.05,0,.1.05.16.12.1.13.15.15.19.15,0,0,.02,0,.03,0,0,0,.01,0,.02,0,0,0,.01,0,.02,0h.01s0-.01,0-.01c.06-.16.22-.33.33-.36.07-.02.13-.02.21,0,.01,0,.02,0,.04,0h0s0,0,0,0c.03-.01.05-.03.08-.04.06-.03.12-.07.16-.07.01,0,.02,0,.03,0,.07,0,.14.05.19.11h0s0,0,0,0c.02-.02.04-.03.06-.05.02-.02.04-.03.07-.07.1-.12.14-.13.18-.13,0,0,.01,0,.02,0,.03,0,.05.03.06.05.01.05,0,.08-.03.14-.08.13-.09.21-.11.27,0,.02-.01.04-.02.06l-.02.06.04-.03c.07-.05.13-.08.17-.08.02,0,.03,0,.04,0,.05,0,.08.04.1.22,0,.02,0,.07.01.09-.01.04-.02.13-.03.16,0,.06-.03.18-.08.28v.02s-.25.74-.25.74v.05c-.04.11-.09.2-.11.23h0s0,0,0,0c-.1.21-.1.49-.1.67,0,.02,0,.03,0,.05,0,.15,0,.32-.08.42-.07.1-.23.16-.32.15,0,0,0,0-.01,0-.1-.02-.13-.11-.17-.23,0-.01,0-.02-.01-.03v-.02s-.02.02-.02.02c-.06.08-.25.42-.33.65,0,0,0,.02-.03,0,0,0-.02-.03-.02-.03-.06-.11-.1-.23-.18-.47-.04-.12-.09-.35-.13-.54,0,0-.23-.81-.23-.81Z"/>
            <path class="cls-12" d="M6.7,23.66s-.02,0-.02,0c0,0-.01,0-.02,0h-.02s.01-.04.01-.04c0-.02,0-.04,0-.06h0s0-.01,0-.01v-.08s.02.06.02.06c0,0,0,.02.01.02,0,0,.01.02.02.03h0s0,0,0,0c0,0,0,.01,0,.02,0,0,0,.02,0,.02l.02.05h-.03Z"/>
            <path class="cls-12" d="M6.58,23.65s-.03-.03-.03-.08c0-.01,0-.03.03-.05.01,0,.02-.01.02,0,0,0,0,0,0,0,.01,0,.02.03.02.07,0,.04-.02.07-.04.07,0,0,0,0,0,0Z"/>
            <path class="cls-12" d="M6.53,23.7s-.02-.04-.02-.06h0s0,0,0,0c0-.02.01-.05.02-.06l.02-.02v.04s0,0,0,.02c0,.01,0,.02.01.04l.02.03h-.02s-.02.03-.02.03h0s0,0,0,0Z"/>
            <path class="cls-12" d="M5.82,25.31s-.07-.03-.11-.08c-.07-.1-.07-.33-.05-.52.04-.26.13-.52.25-.51,0,0,0,0,0,0,0-.02,0-.03,0-.05.01-.04.03-.05.04-.05,0,0,0,0,0,0,0,0,.01.01.02.02,0,.02,0,.04,0,.05,0,.01,0,.03,0,.03.03.01.06.04.08.09.04.11.04.31,0,.54-.05.29-.15.45-.22.46,0,0-.02,0-.03,0Z"/>
            <path class="cls-12" d="M6.12,23.44s-.03-.01-.05-.02c-.03-.01-.06-.02-.09-.03h0s0,0,0,0c-.05-.06-.08-.13-.11-.21-.01-.03-.02-.06-.03-.09h0c-.04-.11-.07-.17-.11-.26-.02-.03-.02-.09,0-.14.01-.04.04-.07.07-.06,0,0,0,0,.01,0,.06.02.13.11.18.18h0c.05.07.13.11.18.11,0,0,0,0,0,0,0,0,0,0,0,0,.03,0,.04.02.06.04.01.03.02.08.01.15,0,.05-.02.21-.1.32h0s0,0,0,0Z"/>
            <path class="cls-12" d="M6.91,25.4s-.05-.02-.07-.05c-.01-.02-.03-.06-.03-.09v-.08s.02.05.02.05c.02.03.05.05.08.05.02,0,.05,0,.08-.01.08-.02.1-.06.11-.09l.03-.06v.08s-.02.07-.04.1c-.02.04-.06.07-.11.09-.03,0-.05.01-.07,0Z"/>
            <path class="cls-12" d="M6.99,24.74s-.02,0-.02,0l-.05-.02.05-.02s.04-.03.07-.05c.04-.03.08-.07.13-.08,0,0,.02,0,.03,0,.03,0,.05.03.06.07v.03s-.01,0-.01,0c0,0-.04,0-.08.01-.02,0-.04.02-.06.03-.04.02-.08.04-.11.04Z"/>
            <path class="cls-12" d="M7.4,22.89c-.02-.15-.05-.25-.09-.31v-.02s0-.02,0-.02c.01-.01.02-.02.04-.03.02-.02.05-.04.08-.08.06-.09.11-.13.15-.14,0,0,.01,0,.02,0,.02,0,.03.01.04.03.02.04-.01.09-.03.11,0,0,0,0,0,.01-.03.05-.06.11-.08.17,0,.02-.01.04-.02.07-.02.07-.04.15-.08.21l-.02.02v-.03Z"/>
            <path class="cls-12" d="M7.31,23.43s0-.04,0-.04l-.02-.04h.03s0,0,0,0c.02,0,.05.02.06.05l.02.04h-.03s-.04.02-.05.03h-.02s0-.03,0-.03Z"/>
            <path class="cls-12" d="M7.24,23.48s-.03-.03-.03-.07c0-.02.01-.04.02-.05.01,0,.02-.01.02-.01,0,0,0,0,0,0h0s.02.03.02.06c0,.04-.02.07-.04.07,0,0,0,0,0,0Z"/>
            <path class="cls-12" d="M7.65,24.53c-.08-.01-.14-.16-.17-.29h0s0-.01,0-.01c.01-.1,0-.19-.03-.28h0s0-.01,0-.01c0-.18.04-.3.1-.35,0,0,0-.02,0-.03,0,0,0-.03,0-.05,0,0,0-.02.02-.03,0,0,0,0,.01,0,.01,0,.02.02.03.03,0,0,0,.02,0,.04.02-.01.04-.02.06-.02.08.01.14.15.17.38.02.16.01.39-.05.5-.04.07-.08.11-.12.12,0,0-.02,0-.02,0Z"/>
            <path class="cls-12" d="M6.86,23.87c0,.08-.01.13-.06.22-.06.11-.09.33-.04.48s.12.15.19.11c.07-.04.16-.15.25-.16.07,0,.1.07.11.11.08-.1.12-.21.16-.36.03-.11.03-.35-.07-.43-.07-.06-.09-.06-.17-.18,0,.06.03.13-.06.19-.11.08-.24.05-.3.01Z"/>
            <g>
              <path class="cls-13" d="M5.97,23.99c.05-.05.11-.15.15-.28-.09-.08-.19-.13-.3-.11-.07,0-.12.06-.14.13.03-.02.07-.04.15-.05.08,0,.14.02.17.05-.03,0-.07.06-.08.16.04-.06.08-.09.11-.11-.03.05-.06.13-.06.22Z"/>
              <path class="cls-13" d="M6.7,23.06s.03-.03.03-.07c-.05,0-.09-.07-.16-.07-.07,0-.13.19-.16.32,0,0,0,0,0,0,.05-.13.09-.2.14-.21.06-.02.1.04.14.03Z"/>
              <path class="cls-13" d="M6.54,24.25s.04-.01.06,0c.03.01.06.02.07,0-.01,0-.03-.02-.04-.03-.02-.02-.04-.03-.06-.03-.06,0-.1.12-.09.22.02-.09.04-.12.06-.14Z"/>
              <path class="cls-13" d="M6.93,24.35s.02,0,.02-.02c.02,0,.04.02.06.07,0,0,0,0,0,0,0-.13-.05-.19-.09-.18-.03,0-.05.04-.05.07,0,.05.03.08.05.07Z"/>
              <path class="cls-13" d="M7.28,24.3c0-.05.02-.08.04-.09,0,.01.02.01.03,0,.02,0,.03-.04.03-.09,0-.03-.01-.06-.04-.04-.04.03-.08.12-.07.22,0,.01,0,.01,0,0Z"/>
              <path class="cls-13" d="M6.75,23.71s0,0,0-.01c-.01-.05,0-.07,0-.12-.06-.06-.08-.1-.09-.2-.02,0-.03.05-.02.09-.03,0-.06,0-.09-.03,0,.02,0,.05.01.07-.01,0-.03.02-.05.03-.03.01-.06.02-.07.02,0,.02.03.05.05.05-.02.02-.05.06-.09.08,0,.01.04.03.05.03-.01.03-.03.06-.06.08.02,0,.04,0,.07,0-.01.03-.03.07-.04.1.11-.18.21-.24.32-.18ZM6.69,23.6s0,.03.01.04c-.02,0-.03,0-.05,0,0-.02.01-.05,0-.07h0s.02.02.03.04ZM6.58,23.54s.02,0,.02,0c0,0,.01.02.01.04,0,.02-.01.05-.03.05-.01,0-.03-.02-.02-.05,0,0,0-.02.02-.03ZM6.54,23.59s0,.01,0,.02c0,.02,0,.03.02.05-.01,0-.02.02-.02.02,0,0-.01-.02-.01-.04,0-.01,0-.04.02-.04Z"/>
              <path class="cls-13" d="M7.57,23.28c0-.07-.03-.12-.06-.15.05-.07.13-.13.2-.14-.01-.04-.04-.06-.07-.05-.04,0-.15.12-.18.18,0,.09.02.25.05.28.01-.09,0-.17-.01-.21.02.02.05.05.08.08Z"/>
              <path class="cls-13" d="M7.87,23.89c-.02-.18-.07-.31-.12-.37.05-.1.07-.21.08-.3.01-.09.02-.15.03-.16,0,0,0,0,0-.02,0-.02,0-.06-.01-.09-.01-.21-.06-.25-.15-.24-.05,0-.11.04-.17.08.03-.07.02-.15.13-.33.03-.06.05-.11.03-.17-.01-.05-.06-.07-.09-.06-.05,0-.09.02-.19.14-.05.06-.07.06-.13.11-.07-.08-.17-.12-.23-.12-.07,0-.17.08-.24.11-.1-.02-.16-.02-.25,0-.11.02-.28.2-.34.37-.04-.03-.09.05-.25-.16-.08-.1-.15-.13-.19-.12-.12.02-.14.23-.09.31.06.11.08.18.12.27.03.08.05.16.08.2-.06-.01-.31-.06-.35.36,0,.07-.01.11-.02.14,0,0,0,.01,0,.02,0,0,.01.05.02.08.02.12.03.37.2.44,0,0,0,0,.01,0-.04.09-.06.21-.08.33-.03.19-.02.44.05.55.03.05.08.09.15.09.04,0,.09-.06.14-.14.05-.09.08-.21.1-.35.02-.13.03-.24.03-.33.07.27.2.45.32.53,0,0,0,0,0,0,0,0,0,0,0-.01-.15-.17-.31-.5-.3-.83,0-.27.07-.45.07-.45-.02,0-.04.03-.05.05,0,.02-.04.12-.04.14-.02.07-.05.15-.1.21,0-.04-.01-.07-.04-.08-.02,0-.05.02-.07.09-.05,0-.1.04-.14.11,0,0,0,0,0,0-.05,0-.18-.03-.2-.43-.02-.37.14-.42.2-.43.21-.02.42.17.42.17,0-.04-.01-.16-.02-.17.11-.16.12-.38.09-.51.07-.17.2-.3.29-.33.05-.02.23,0,.27-.01.04-.01.15-.1.22-.1.08,0,.18.06.22.11.05.07.08.16.1.26,0,0-.02,0-.03,0-.04,0-.09.09-.11.09,0,.03.01.06.03.06.02,0,.05-.07.09-.07.01,0,.02,0,.03.01.04.12.03.36.03.43,0-.01-.03-.06-.05-.07,0-.02.01-.05.01-.07-.02.04-.05.06-.08.07,0-.02.01-.06.01-.1-.01.03-.04.08-.06.1,0-.05,0-.09,0-.11-.08.19-.07.36-.07.36.01.19.16.3.19.32.05.04.07.07.08.14.04.18-.04.45-.14.56,0,0-.02-.09-.12-.07-.11.03-.24.18-.31.18-.06,0-.12-.09-.14-.24,0-.08,0-.16.01-.24-.03.04-.05.14-.06.23-.05,0-.1-.02-.12-.1-.02.04-.04.08-.04.14,0,.14.09.24.14.36.05.11.08.26.1.43.02.12.06.21.13.21.04,0,.13-.01.19-.07.05-.05.07-.14.08-.24,0-.2,0-.39.12-.5-.06.24-.06.56-.06.63,0,.17-.01.23-.06.3-.05.08-.2.14-.28.13-.06,0-.11-.05-.15-.15-.01-.04-.13-.39-.2-.45-.01-.01-.01,0-.01,0,.05.11.08.23.11.35-.07.1-.27.51-.35.71.01.02.02.04.03.06,0,0,.02.02.03-.01.08-.22.27-.56.33-.64.05.13.08.25.19.27.08.02.26-.04.34-.15.07-.11.08-.28.08-.44,0-.19-.01-.48.1-.71.03-.04.07-.13.1-.24.04.16.11.24.17.25.06,0,.13-.07.17-.14.07-.13.08-.38.05-.54ZM5.94,24.24s0,0,0,0c0-.01,0-.04,0-.06,0-.02.02-.04.03-.04.01,0,.01.03.01.05,0,.03,0,.03-.02.03-.01,0-.01,0-.02.02,0,0,0,0,0,0,.15,0,.15.32.1.6-.04.27-.14.43-.21.44-.05,0-.09-.02-.12-.07-.06-.09-.07-.32-.04-.49.04-.28.14-.53.25-.48ZM6.13,23.42s-.09-.04-.14-.05c-.07-.08-.09-.18-.14-.29-.04-.1-.07-.16-.12-.26-.03-.05-.02-.18.06-.16.06.02.13.12.17.18.05.07.14.11.19.12.03,0,.05.02.06.03.03.05.01.3-.08.43ZM6.79,24.88s0-.03.01-.02c.02.04.03.05.08.04.04,0,.07.03.09.07,0,.02.02.03.03.02,0,0,0-.02,0-.03,0-.02-.01-.04-.02-.05.01-.02.04-.06.07-.06.04,0,.06.03.06.09,0,.09-.06.2-.14.21-.1.01-.17-.18-.18-.29ZM7.09,25.29s-.06.07-.11.08c-.06.02-.11,0-.13-.03-.01-.02-.02-.06-.03-.08.05.07.1.07.17.05.08-.02.1-.07.12-.1,0,.04-.01.07-.02.09ZM7.16,24.66c-.05.02-.13.09-.19.06.05-.02.12-.11.19-.12.04,0,.07,0,.08.05,0,0-.04,0-.08.01ZM7.32,22.56s.07-.04.12-.11c.07-.1.11-.13.14-.14.02,0,.04,0,.05.02.01.03-.01.06-.03.09-.03.05-.07.12-.08.18-.02.08-.05.2-.1.27-.02-.13-.05-.25-.1-.32ZM7.37,23.41s-.04.01-.06.02c0-.02,0-.05,0-.07.02,0,.05.01.06.05ZM7.24,23.38s.02,0,.02,0c0,0,.01.02.01.04,0,.02-.01.04-.03.04-.01,0-.02-.02-.02-.05,0,0,0-.02.02-.03ZM7.42,23.84c-.04-.07-.21-.1-.21-.29.04-.02.09-.03.15,0,0-.02-.02-.04-.03-.05.01-.01.04-.02.06,0,.05.02.07.22.04.36ZM7.47,23.57c0-.06-.04-.12-.05-.13.03-.22.03-.32,0-.45.1-.1.2-.16.25-.17.08-.01.12.02.11.28,0,.17-.04.31-.1.39,0,0,0,0,0,0-.02,0-.04,0-.05.01,0-.01-.02-.08-.06-.05-.04.03-.04.09-.03.12,0,0-.01.02-.02.02-.02,0-.03,0-.05-.02ZM7.79,24.39c-.03.07-.07.1-.11.12-.05.02-.13-.08-.18-.28.01-.09,0-.19-.03-.3,0-.17.03-.31.12-.35,0,0,0,0,0-.01,0-.02-.02.01-.03-.03,0-.01,0-.04.01-.05.01,0,.02.01.03.02,0,0,0,.03,0,.05,0,0,0,0,0,0,.11-.09.19.1.22.34.02.15.01.37-.04.48Z"/>
            </g>
            <g class="cls-15">
              <g>
                <polygon class="cls-14" points="5.88 24.1 5.83 24.21 5.99 24.47 6.04 24.35 5.88 24.1"/>
                <polygon class="cls-14" points="5.8 24.27 5.76 24.36 5.92 24.61 5.96 24.53 5.8 24.27"/>
                <polygon class="cls-14" points="5.73 24.41 5.71 24.51 5.87 24.77 5.89 24.66 5.73 24.41"/>
                <polygon class="cls-14" points="5.69 24.59 5.67 24.69 5.83 24.94 5.85 24.85 5.69 24.59"/>
                <polygon class="cls-14" points="5.66 24.76 5.63 24.85 5.79 25.1 5.81 25.01 5.66 24.76"/>
                <polygon class="cls-14" points="5.67 24.99 5.65 25.07 5.8 25.33 5.83 25.24 5.67 24.99"/>
              </g>
            </g>
            <g class="cls-18">
              <path class="cls-14" d="M7.91,24.52l-.38-.06v-.12s.39.06.39.06v.12ZM7.92,24.23l-.38-.06v.1s.37.06.37.06v-.1ZM7.92,24.06l-.38-.06v.1s.37.06.37.06v-.1ZM7.91,23.89l-.38-.06v.1s.37.06.37.06v-.1ZM7.91,23.73l-.38-.06v.09s.37.06.37.06v-.09ZM7.89,23.59l-.38-.06v.09s.37.06.37.06v-.09Z"/>
            </g>
            <path class="cls-2" d="M5.73,21.81l.1.16.11-.09-.04.19.1.16-.13-.03-.05.19-.04-.22-.13-.04.11-.1-.03-.22ZM6.39,21.62l-.11.04.11.1v.21s.07-.15.07-.15l.11.09-.07-.19.06-.15-.11.03-.07-.18v.2ZM7.08,21.55l-.11-.02.09.14-.03.18.08-.1.09.13-.03-.19.08-.1-.1-.03-.04-.19-.03.18ZM7.65,21.79l-.09-.07.05.16-.05.15.09-.05.06.16v-.19s.09-.05.09-.05l-.09-.07v-.19s-.06.14-.06.14Z"/>
          </g>
          <g id="Boucle_Droite" data-name="Boucle Droite">
            <g class="cls-17">
              <g id="Right_ear-rings" data-name="Right ear-rings">
                <g>
                  <polygon class="cls-14" points="28.65 20.6 24.39 20.53 24.39 19.98 28.66 20.06 28.65 20.6"/>
                  <polygon class="cls-14" points="28.46 19.72 24.2 19.64 24.21 19.3 28.47 19.38 28.46 19.72"/>
                  <rect class="cls-14" x="25.96" y="16.67" width=".38" height="4.26" transform="translate(6.89 44.61) rotate(-88.98)"/>
                  <rect class="cls-14" x="25.76" y="15.88" width=".39" height="4.26" transform="translate(7.49 43.64) rotate(-88.98)"/>
                  <rect class="cls-14" x="25.58" y="15.09" width=".38" height="4.26" transform="translate(8.09 42.68) rotate(-88.99)"/>
                  <rect class="cls-14" x="25.39" y="14.34" width=".38" height="4.26" transform="translate(8.66 41.75) rotate(-88.98)"/>
                  <polygon class="cls-14" points="27.67 15.98 23.41 15.9 23.41 15.56 27.68 15.64 27.67 15.98"/>
                  <rect class="cls-14" x="25.01" y="12.99" width=".38" height="4.26" transform="translate(9.63 40.05) rotate(-88.98)"/>
                </g>
              </g>
            </g>
            <path class="cls-11" d="M24.8,19.58c.1.15.25.33.33.42.16.18.25.26.34.33,0,0,.02.01.03.02.02,0,.02,0,.02-.01-.03-.25-.02-.65,0-.75v-.02s.02.01.02.01c0,0,.02.02.02.02.08.08.14.14.22.11,0,0,0,0,0,0,.07-.03.16-.17.17-.28.01-.12-.05-.26-.11-.39,0-.01-.01-.03-.02-.04-.07-.15-.18-.38-.19-.6h0s0,0,0,0c0-.04,0-.13-.02-.23v-.05s-.12-.69-.12-.69v-.02c0-.1-.03-.2-.05-.25,0-.03-.04-.11-.04-.14-.01-.02-.03-.05-.04-.07-.07-.13-.11-.16-.15-.15,0,0-.02,0-.03.01-.03.01-.06.05-.09.11l-.02.03v-.06s-.01-.04-.02-.06c-.01-.05-.03-.12-.02-.25,0-.06,0-.09-.03-.12-.02-.02-.04-.03-.07-.03,0,0,0,0-.01,0-.03.02-.06.03-.09.16,0,.04-.02.06-.03.08,0,.01-.02.03-.03.05h0s0,0,0,0c-.07-.04-.14-.05-.19-.04,0,0-.02,0-.03,0-.03.02-.07.06-.1.11-.02.02-.03.04-.05.06h0s0,0,0,0c-.01,0-.02,0-.03,0-.07.02-.12.04-.17.07-.08.06-.15.26-.14.43v.02s-.01,0-.01,0c0,0-.01,0-.02,0,0,0,0,0-.02,0,0,0-.01,0-.02,0-.03,0-.09.01-.23-.07-.08-.04-.15-.06-.19-.05,0,0-.02,0-.02,0-.04.02-.05.07-.04.13,0,.06.04.12.08.15.1.08.16.14.22.2.01.01.03.03.04.04.05.05.08.09.11.11l.05.03h-.04s-.02.01-.03.02c-.07.02-.15.07-.17.19-.01.07,0,.16.04.26.02.06.04.11.04.15,0,0,0,0,0,0,0,0,.04.05.05.07,0,0,.01.02.02.03.07.11.18.29.34.27,0,0,0,0,.01,0h.02s.54.62.54.62Z"/>
            <path class="cls-12" d="M24.77,17.9s-.01,0-.02,0c0,0-.01,0-.02,0h-.02s0-.03,0-.03c0-.02,0-.04-.02-.05h0s0,0,0,0l-.04-.07.05.04s.01,0,.02.01c0,0,.02.01.02.02h0s0,0,0,0c0,0,0,0,0,.01,0,0,.01.01.01.02l.04.04h-.03Z"/>
            <path class="cls-12" d="M24.67,17.94s-.04-.01-.05-.06c0-.01,0-.03,0-.05,0-.01.01-.02.02-.02,0,0,0,0,0,0,.01,0,.03.02.04.05.01.03.01.07,0,.08,0,0,0,0,0,0Z"/>
            <path class="cls-12" d="M24.64,18s-.03-.02-.04-.05h0s0,0,0,0c0-.02,0-.05,0-.06v-.03s.02.04.02.04c0,0,0,0,0,.02,0,.01.01.02.03.03l.02.02v.02s-.02.02-.02.02h0s0,0,0,0Z"/>
            <path class="cls-12" d="M24.71,19.78s-.08.01-.12-.01c-.1-.05-.2-.27-.26-.45-.08-.26-.1-.55,0-.59,0,0,0,0,0,0,0-.01-.01-.03-.01-.05,0-.04,0-.06.02-.07,0,0,0,0,0,0,0,0,.02,0,.03.01.01.01.02.03.02.05,0,.01,0,.03,0,.04.03,0,.07.01.1.05.08.08.16.26.22.48.08.29.06.49,0,.53,0,0-.01.01-.02.01Z"/>
            <path class="cls-12" d="M24.2,17.94s-.03,0-.05,0c-.03,0-.06,0-.09,0h0s0,0,0,0c-.07-.03-.13-.09-.18-.14-.02-.02-.04-.04-.07-.07h0c-.08-.08-.13-.12-.21-.19-.03-.02-.06-.08-.07-.12,0-.04.01-.08.04-.08,0,0,0,0,.01,0,.06,0,.17.05.23.1h0c.07.04.15.05.2.03,0,0,0,0,0,0,0,0,0,0,0,0,.02,0,.04,0,.07.01.02.02.05.07.07.13.02.04.07.19.04.32h0s0,0,0,0Z"/>
            <path class="cls-12" d="M25.61,19.3s-.05,0-.07,0c-.02-.01-.04-.04-.06-.07l-.04-.06.05.03s.05.02.08,0c.02,0,.03-.02.06-.05.05-.06.05-.1.04-.13v-.07s.02.07.02.07c.01.04.02.07.02.1,0,.04-.02.09-.05.13-.02.02-.03.03-.05.04Z"/>
            <path class="cls-12" d="M25.42,18.7s-.01,0-.02,0h-.04s.03-.04.03-.04c.01-.02.02-.04.03-.07.02-.04.03-.09.06-.12,0,0,.01,0,.02-.01.02,0,.05,0,.07.03l.02.03h-.01s-.03.03-.05.05c0,.01-.02.03-.03.05-.02.03-.04.07-.07.08Z"/>
            <path class="cls-12" d="M25.02,17.01c-.07-.11-.14-.19-.19-.23h-.02s0-.03,0-.03c0-.01.01-.02.02-.04.01-.02.02-.04.03-.09.01-.09.03-.14.06-.16,0,0,.01,0,.02,0,.01,0,.03,0,.04.02.03.03.02.07.02.1,0,0,0,0,0,.01,0,.05,0,.11,0,.16,0,.02,0,.04.01.06.01.06.03.14.02.2v.02s-.02-.02-.02-.02Z"/>
            <path class="cls-12" d="M25.15,17.48s-.01-.03-.02-.04l-.03-.03h.02s0-.01,0-.02c.02,0,.04,0,.06.02l.03.02h-.02s-.02.04-.03.05v.02s-.02-.04-.02-.04Z"/>
            <path class="cls-12" d="M25.11,17.55s-.04-.01-.05-.05c0-.02,0-.03,0-.05,0-.01,0-.02.01-.02,0,0,0,0,0,0h0s.03.02.04.04c.01.03.01.06,0,.07,0,0,0,0,0,0Z"/>
            <path class="cls-12" d="M25.81,18.26c-.06.02-.15-.07-.23-.18h0s0-.01,0-.01c-.03-.08-.07-.16-.12-.22h0s0,0,0,0c-.07-.14-.09-.26-.06-.32,0,0-.01-.01-.02-.02,0,0-.01-.02-.02-.04,0,0,0-.02,0-.03,0,0,0,0,0,0,.01,0,.02,0,.03.02,0,0,.01.01.02.03,0-.02.02-.03.04-.03.06-.02.15.07.26.25.07.12.15.31.15.42,0,.07-.01.12-.04.15,0,0,0,0-.02.01Z"/>
            <path class="cls-12" d="M24.98,18.02c.03.07.04.12.04.21,0,.12.06.33.16.43s.15.08.19.02c.04-.06.06-.2.12-.24.05-.03.1.02.12.05.02-.12,0-.22-.02-.36-.02-.1-.11-.3-.21-.33-.07-.02-.09-.02-.19-.09.03.04.07.1.03.18-.05.11-.16.14-.22.13Z"/>
            <path class="cls-13" d="M24.3,18.5c.02-.07.03-.19.02-.32-.11-.04-.22-.04-.31.03-.06.04-.08.11-.08.18.02-.03.05-.07.11-.11.07-.04.14-.04.17-.03-.03.02-.04.08,0,.18.01-.07.03-.12.05-.15,0,.06,0,.14.04.22Z"/>
            <path class="cls-13" d="M24.53,17.39s.01-.04,0-.07c-.04.02-.1-.03-.15,0-.06.03-.04.21,0,.33,0,0,0,0,0,0-.01-.13,0-.21.03-.24.05-.04.1,0,.13-.03Z"/>
            <path class="cls-13" d="M24.83,17.92s0,0,0-.01c-.03-.04-.04-.06-.05-.1-.07-.03-.1-.05-.15-.14-.01.01,0,.05.02.09-.03.01-.05.02-.08,0,0,.02.02.04.04.06,0,0-.01.02-.03.04-.02.02-.04.04-.05.04.02.02.05.03.06.02,0,.02-.02.07-.04.11.01,0,.04.01.05,0,0,.03,0,.07-.02.09.02,0,.04-.01.05-.02,0,.03,0,.07.01.1.02-.21.07-.29.19-.28ZM24.74,17.85s.02.02.02.03c-.01,0-.03,0-.04.01,0-.02,0-.05-.02-.07h0s.03.01.04.03ZM24.62,17.85s.01-.01.01-.01c0,0,.02.01.03.03,0,.02,0,.04,0,.05-.01,0-.03,0-.04-.04,0,0,0-.02,0-.03ZM24.61,17.9s0,0,0,.02c0,.02.02.03.03.04,0,0-.01.02-.01.02,0,0-.02-.02-.03-.03,0-.01,0-.03,0-.05Z"/>
            <path class="cls-13" d="M25.72,17.66c-.08-.14-.16-.22-.22-.25,0-.09-.03-.19-.05-.26-.02-.07-.04-.12-.04-.14,0,0,0,0,0-.01-.01-.01-.03-.04-.04-.06-.09-.16-.13-.18-.19-.14-.03.02-.06.06-.09.12,0-.07-.04-.12-.03-.3,0-.06,0-.1-.04-.15-.03-.03-.07-.04-.09-.03-.03.02-.06.04-.09.16-.01.07-.04.07-.06.13-.09-.05-.18-.05-.23-.03-.05.02-.1.11-.15.17-.09.02-.14.04-.21.08-.08.06-.16.27-.15.44-.05-.01-.06.07-.29-.05-.11-.06-.19-.06-.23-.04-.11.07-.03.26.04.32.1.08.15.13.22.2.06.06.12.12.15.15-.06.01-.32.08-.17.48.02.07.04.11.04.14,0,0,0,.01.01.02,0,0,.03.04.05.07.07.11.19.33.37.31,0,0,0,0,.01,0,0,.11.03.23.07.34.06.19.17.43.28.49.05.03.11.04.16,0,.04-.03.06-.1.06-.21,0-.11-.02-.23-.06-.37-.04-.13-.07-.23-.11-.31.17.21.35.3.47.31,0,0,0,0,0,0,0,0,0,0,0,0-.19-.07-.45-.3-.59-.6-.11-.24-.12-.43-.12-.43-.01,0-.02.05-.02.06,0,.02.02.13.02.14.01.07.02.16,0,.24-.02-.04-.04-.06-.07-.05-.02,0-.04.04-.02.11-.04.02-.07.08-.08.17,0,0,0,0,0,0-.05.02-.17.06-.36-.3-.18-.34-.05-.45,0-.48.18-.11.44-.02.44-.02,0-.03-.07-.13-.08-.14.03-.19-.05-.39-.13-.48,0-.18.06-.33.11-.39.03-.03.19-.08.22-.1.03-.02.08-.13.14-.15.06-.02.16,0,.21.03.06.04.12.11.18.18,0,0-.02,0-.02,0-.03.01-.03.1-.05.11.01.02.03.05.04.04.01,0,.02-.07.04-.09,0,0,.02,0,.03,0,.07.08.16.28.18.34,0-.01-.04-.04-.06-.04,0-.02,0-.04-.02-.06,0,.04-.01.07-.03.08,0-.02-.01-.06-.03-.08,0,.03,0,.08-.01.1-.01-.05-.03-.08-.04-.09,0,.18.08.32.08.32.08.15.23.19.27.19.05.01.07.03.11.08.1.13.14.38.11.51,0,0-.05-.07-.11,0-.07.07-.11.25-.16.28-.05.03-.13-.02-.2-.14-.04-.06-.07-.14-.08-.21-.01.05.01.14.04.23-.04.03-.09.03-.13-.03,0,.05,0,.09.03.14.06.12.17.17.25.25.08.07.16.19.25.33.06.09.13.15.18.12.03-.02.09-.07.11-.15.02-.06,0-.15-.04-.23-.08-.17-.16-.33-.11-.47.05.23.17.49.2.55.06.14.08.2.07.28,0,.09-.09.21-.15.25-.04.03-.1.02-.17-.06-.03-.02-.26-.27-.33-.3-.01,0,0,0,0,.01.08.08.15.16.23.25-.01.12,0,.59.02.82.02.01.03.03.05.03,0,0,.02,0,.02-.03-.03-.24-.02-.64,0-.74.09.09.16.18.25.14.07-.03.17-.17.18-.3.01-.12-.05-.27-.11-.41-.07-.16-.19-.4-.2-.63,0-.04,0-.13-.02-.24.09.11.17.15.21.14.04-.02.06-.1.06-.18,0-.13-.09-.33-.16-.45ZM24.37,18.74s0,0,0,0c0-.01-.02-.04-.02-.06,0-.02,0-.05.01-.05.01,0,.03.02.03.04,0,.03,0,.03,0,.04,0,0,0,.01,0,.02,0,0,0,0,0,0,.12-.08.26.21.34.5.08.27.06.47,0,.51-.04.03-.08.03-.14,0-.09-.05-.19-.26-.25-.43-.08-.28-.09-.56.02-.57ZM24.19,17.92s-.09,0-.14.01c-.1-.04-.16-.13-.25-.21-.08-.07-.13-.12-.22-.19-.05-.03-.09-.16,0-.17.06,0,.16.06.23.1.07.04.17.05.22.03.03,0,.05,0,.06,0,.04.04.13.26.11.41ZM25.31,18.91s0-.03,0-.02c.03.02.04.03.07,0,.03-.02.06,0,.1.02.01,0,.03.02.03,0,0,0,0-.02,0-.03,0-.01-.02-.03-.03-.03,0-.03,0-.07.03-.08.03-.02.05,0,.08.05.04.08.03.2-.02.24-.07.06-.2-.08-.25-.17ZM25.7,19.12s-.01.08-.05.12c-.04.05-.08.06-.11.04-.02-.01-.04-.04-.05-.06.06.04.1,0,.14-.04.05-.06.05-.1.05-.14.01.03.02.06.02.09ZM25.51,18.56s-.06.13-.12.13c.03-.04.04-.14.09-.18.02-.02.05-.02.08.01,0,0-.03.02-.05.04ZM24.83,16.77s.04-.06.05-.12c.02-.1.03-.14.06-.15.02-.01.03,0,.04,0,.02.02.01.05,0,.08,0,.05,0,.12,0,.17.01.07.04.17.03.25-.06-.1-.13-.19-.19-.23ZM25.19,17.45s-.02.02-.03.04c0-.02-.02-.04-.03-.05.02,0,.04,0,.06.02ZM25.08,17.46s0-.01.01-.01c0,0,.02.01.02.03,0,.02,0,.04,0,.05,0,0-.02,0-.03-.03,0,0,0-.02,0-.03ZM25.38,17.78c-.06-.04-.19,0-.27-.17.02-.03.06-.06.11-.06-.01-.01-.03-.02-.04-.03,0-.01.02-.03.04-.03.04,0,.13.16.16.28ZM25.32,17.54s-.08-.08-.09-.09c-.06-.19-.1-.27-.16-.37.04-.11.08-.19.12-.22.06-.03.09-.02.18.19.06.14.08.26.07.35,0,0,0,0,0,0-.01,0-.03.02-.03.03,0-.01-.04-.06-.06-.02-.02.03,0,.09.02.11,0,0,0,.02,0,.02-.01,0-.02,0-.04,0ZM25.85,18.09c0,.07-.01.11-.03.14-.03.04-.12,0-.23-.16-.03-.08-.07-.16-.13-.23-.06-.13-.09-.26-.04-.32,0,0,0,0,0-.01-.01-.01-.01.02-.03-.01,0,0-.02-.03,0-.04,0-.01.02,0,.03,0,0,0,.02.02.02.04,0,0,0,0,0,0,.04-.11.17.01.28.19.07.11.15.29.15.4Z"/>
            <path class="cls-13" d="M24.87,18.47s.03-.03.05-.03c.03,0,.05-.01.05-.03-.02,0-.03,0-.05-.01-.02-.01-.05,0-.06,0-.05.04-.03.15.01.23-.02-.08-.02-.12,0-.15Z"/>
            <path class="cls-13" d="M25.22,18.4s.01-.02,0-.03c.02-.01.04,0,.07.03,0,0,0,0,0,0-.05-.11-.11-.14-.14-.12-.02.01-.02.05,0,.08.02.05.05.05.06.04Z"/>
            <path class="cls-13" d="M25.46,18.21s-.01-.08,0-.09c0,0,.02,0,.02,0,0-.01,0-.05,0-.09-.01-.03-.03-.04-.04-.02-.02.04-.01.13.03.21,0,0,0,0,0,0Z"/>
            <path class="cls-13" d="M25.28,17.27c-.03-.06-.07-.09-.1-.1.01-.08.05-.15.09-.17-.02-.02-.05-.03-.07-.02-.03.02-.06.14-.07.2.04.07.11.19.14.21-.03-.08-.07-.14-.09-.16.02.01.05.03.09.04Z"/>
            <g class="cls-16">
              <g>
                <polygon class="cls-14" points="24.26 18.63 24.26 18.76 24.5 18.93 24.51 18.8 24.26 18.63"/>
                <polygon class="cls-14" points="24.27 18.83 24.26 18.93 24.5 19.1 24.51 19 24.27 18.83"/>
                <polygon class="cls-14" points="24.26 19 24.28 19.11 24.53 19.27 24.51 19.17 24.26 19"/>
                <polygon class="cls-14" points="24.31 19.19 24.32 19.28 24.56 19.45 24.55 19.36 24.31 19.19"/>
                <polygon class="cls-14" points="24.36 19.37 24.36 19.46 24.61 19.62 24.6 19.54 24.36 19.37"/>
                <polygon class="cls-14" points="24.45 19.56 24.45 19.64 24.7 19.8 24.69 19.72 24.45 19.56"/>
              </g>
            </g>
            <g class="cls-19">
              <g id="Right_ear-rings-2" data-name="Right ear-rings">
                <g>
                  <polygon class="cls-14" points="25.97 18.15 25.7 18.24 25.67 18.14 25.94 18.05 25.97 18.15"/>
                  <polygon class="cls-14" points="25.91 18.01 25.63 18.1 25.61 18.01 25.88 17.92 25.91 18.01"/>
                  <polygon class="cls-14" points="25.85 17.88 25.57 17.97 25.55 17.88 25.82 17.78 25.85 17.88"/>
                  <polygon class="cls-14" points="25.78 17.74 25.5 17.83 25.47 17.74 25.75 17.65 25.78 17.74"/>
                  <polygon class="cls-14" points="25.72 17.61 25.44 17.7 25.42 17.61 25.7 17.52 25.72 17.61"/>
                  <polygon class="cls-14" points="25.65 17.49 25.36 17.58 25.34 17.5 25.62 17.4 25.65 17.49"/>
                </g>
              </g>
            </g>
            <path class="cls-2" d="M23.17,16.76l.12.1.05-.11.03.17.12.1h-.1s.03.19.03.19l-.1-.17h-.1s.04-.11.04-.11l-.09-.17ZM23.5,16.4l-.07.08.12.05.08.19v-.16s.12.04.12.04l-.12-.14v-.16s-.08.07-.08.07l-.12-.14.07.19ZM24,16.01l-.1.03.13.1.06.2.03-.13.13.09-.11-.18.02-.14-.1.02-.11-.18.05.19ZM24.69,15.97l-.11-.02.13.14.03.18.06-.09.13.13-.09-.2.05-.1-.11-.03-.1-.19.02.18Z"/>
          </g>
          <g id="Marque">
            <path id="Trait" class="cls-10" d="M7.15,10.13s-.05,0-.07-.02l-.02-.02v-.04s.02-.04.04-.05c.85-.52,1.77-.96,2.73-1.33.96-.37,1.97-.66,2.99-.86l.11-.02c.98-.19,1.98-.29,2.97-.31,1.02-.02,2.03.05,3,.2h.03s.04.06.04.06v.04s-.06.05-.09.04c-4.1-.46-7.82.27-11.72,2.3,0,0-.01,0-.02,0Z"/>
            <g id="Etoiles">
              <polyline class="cls-8" points="11.09 1.55 11.61 1.77 11.32 1.25 11.68 .8 11.13 .92 10.83 .41 10.77 1 10.23 1.15 10.75 1.39 10.72 1.99 11.09 1.55"/>
              <polyline class="cls-6" points="16.87 1.27 16.39 1.51 16.62 1 16.24 .6 16.77 .67 17.01 .17 17.12 .73 17.64 .83 17.18 1.1 17.26 1.66 16.87 1.27"/>
              <polyline class="cls-7" points="13.99 1.16 13.55 1.52 13.68 .94 13.22 .6 13.78 .57 13.94 0 14.15 .56 14.71 .55 14.28 .92 14.47 1.49 13.99 1.16"/>
              <polyline class="cls-5" points="8.11 2.47 8.64 2.58 8.28 2.15 8.54 1.65 8.05 1.87 7.67 1.45 7.73 2.02 7.25 2.26 7.77 2.39 7.84 2.95 8.11 2.47"/>
            </g>
            <path class="cls-11" d="M10.16,5.01c.09.31-.2.66-.63.79-.6.19-1.15-.13-1.33-.74-.2-.68.2-1.27.78-1.45.24-.08.52-.07.8.02-.04.17-.08.34-.12.51-.17-.07-.32-.08-.46-.04-.3.09-.46.39-.36.75.11.38.42.51.73.41.2-.06.38-.2.5-.42.04.05.07.1.09.16ZM8.48,5.97c-.11.13-.23.22-.35.27-.2.08-.41,0-.52-.22-.03.28-.18.49-.43.58-.43.17-.84-.08-1.04-.62-.27-.73.02-1.4.68-1.66.25-.1.55-.12.85-.07.13.37.27.73.4,1.1.12.33.23.59.4.62ZM7.31,5.2c-.05-.14-.11-.29-.16-.43-.06,0-.13,0-.19.02-.21.08-.39.4-.21.87.1.27.26.42.46.37.24-.06.29-.34.11-.83ZM4.66,3.81c-.09.04-.18.1-.27.18.45.27.8,1.68.94,2.7-.98-1.39-1.46-1.77-2.15-1.42-.1.05-.29.19-.39.32.92.08,1.67,1.05,2.43,1.92.25-.12.5-.24.75-.36-.09-1.56-.18-2.6-.47-3.12-.17-.31-.52-.38-.85-.22ZM4.13,7.99c-.08.14-.2.25-.3.3-.18.1-.37.06-.5-.13,0,.27-.1.47-.31.59-.16.09-.34.11-.5.06-.02.22-.11.43-.26.56-.37.32-.74.65-1.1.97-.18-.74-.33-1.44-.59-2.06-.2-.47-.41-.79-.57-.84.08-.11.16-.19.23-.25.34-.31.67-.1.81.24.23.54.39,1.18.49,1.88.37-.31.56-.48.7-.69-.09-.08-.18-.19-.25-.32-.35-.64-.11-1.29.41-1.58.22-.12.5-.2.78-.19.17.32.34.63.51.95.15.28.29.51.45.51ZM2.95,7.46c-.07-.13-.14-.25-.2-.38-.06,0-.12.01-.17.05-.18.1-.3.42-.08.83.13.24.3.37.47.28.17-.1.22-.35-.01-.77ZM19.95,1.77c-.23-.02-.41.14-.44.32-.03.19.11.38.34.4.23.02.41-.14.44-.33.03-.19-.11-.37-.34-.39ZM24.3,3.91c.18.04.36.09.54.13.05-.15.1-.3.14-.46-.18-.04-.36-.09-.54-.13.06-.19.12-.37.18-.56-.24,0-.48.02-.72.03-.04.12-.07.25-.11.37-.09-.02-.18-.04-.27-.07-.05.15-.09.3-.14.46.09.02.18.04.26.06-.1.35-.2.7-.3,1.05-.09.29-.06.66.39.78.32.08.64-.08.7-.28,0-.03.02-.07.01-.1-.13.05-.24.05-.32.03-.15-.04-.21-.15-.14-.38.1-.32.2-.63.3-.95ZM23.03,2.96c.23.04.42-.1.47-.29.05-.18-.07-.38-.3-.42-.23-.04-.42.1-.47.28-.05.19.07.39.3.43ZM19.02,3.92c.05-.46.1-.92.16-1.38-.22-.02-.44-.03-.66-.04-.03.34-.06.68-.1,1.02-.04.49-.23.69-.42.68-.16,0-.23-.2-.21-.44.04-.43.08-.86.12-1.28-.22,0-.44,0-.66-.01-.04.47-.07.93-.1,1.4-.05.57.34.88.6.86.23-.02.48-.1.62-.33.01.23.15.36.35.37.12,0,.26-.03.4-.11-.14-.09-.12-.38-.09-.73ZM12.16,4.29c-.04-.19-.08-.38-.12-.57-.12-.56-.53-.74-.88-.66-.23.05-.42.22-.49.47-.1-.42-.2-.83-.3-1.25-.22.05-.44.1-.66.16.25,1.02.49,2.04.74,3.06.22-.06.44-.11.66-.16-.08-.32-.15-.64-.23-.96-.12-.48,0-.72.19-.76.17-.04.28.12.33.37.06.28.12.56.18.83.07.32.27.41.52.36.12-.03.25-.1.37-.21-.16-.05-.24-.33-.31-.67ZM19.24,4.76l.61.06c.1-.72.2-1.44.31-2.16-.22-.02-.43-.04-.65-.06-.09.72-.18,1.45-.27,2.17ZM16.18,2.3c.27,0,.54.07.79.23l-.1,2.6c-.22,0-.43,0-.65.01.01-.32.02-.63.03-.95-.14.25-.34.39-.6.39-.47,0-.74-.41-.72-.98.03-.8.61-1.29,1.25-1.3ZM16.31,2.83c-.05-.03-.12-.05-.19-.05-.23,0-.51.24-.52.75-.01.3.07.52.28.51.21,0,.39-.23.41-.75,0-.16.01-.31.02-.47ZM22.68,3.03c-.17.71-.33,1.41-.5,2.12.2.04.4.08.6.12.18-.7.36-1.41.54-2.11-.21-.05-.42-.09-.64-.13ZM14.28,4.26c.04.32-.28.62-.73.69-.62.09-1.12-.3-1.21-.93-.11-.77.4-1.23.92-1.31.53-.08.84.2.88.52.05.35-.2.75-.77.83-.09.01-.21.02-.3.03.1.23.29.39.6.34.2-.03.4-.14.55-.34.03.06.06.11.06.17ZM13,3.72c.06,0,.11,0,.16-.01.32-.05.42-.22.4-.36-.02-.12-.11-.19-.23-.17-.21.03-.33.28-.33.55ZM22.3,3.53c.07-.19.14-.38.22-.57-.05-.03-.11-.04-.16-.05-.27-.04-.52.08-.68.29.01-.25-.13-.41-.35-.44-.13-.02-.25,0-.41.06.14.1.1.39.03.74-.08.45-.16.9-.25,1.35.21.03.43.06.64.09.05-.29.11-.59.16-.88.1-.46.28-.7.65-.64.05,0,.1.02.15.04ZM25.27,5.46c-.06.07-.14.12-.24.13-.1.01-.18,0-.26-.06-.08-.05-.12-.13-.13-.22-.01-.09.01-.17.07-.24.06-.07.14-.12.24-.13.1-.01.18,0,.26.06.08.05.12.13.13.22.01.09-.01.17-.07.25M24.76,5.09c-.05.06-.07.13-.06.21.01.08.05.14.11.19.07.05.14.06.22.05.08-.01.15-.05.2-.11.05-.06.07-.13.06-.21,0-.08-.05-.14-.11-.19-.07-.05-.14-.06-.22-.05-.08.01-.15.05-.2.11M24.97,5.08s.08,0,.11,0c.04,0,.07.04.07.08,0,.03,0,.06-.03.08-.01,0-.03.02-.05.03.03,0,.05,0,.07.03.02.02.03.03.03.05,0,0,0,.02,0,.03,0,0,0,.02,0,.03,0,0,0,.02,0,.02,0,0,0,0,0,0-.02,0-.04,0-.06,0,0,0,0,0,0,0,0,0,0,0,0,0,0,0,0,0,0-.01,0,0,0-.02,0-.03,0-.04-.02-.07-.05-.08-.02,0-.04,0-.08,0-.02,0-.04,0-.05,0,0,.05.01.09.02.14-.02,0-.05,0-.07,0-.02-.12-.03-.24-.05-.36.04,0,.09-.01.13-.02h0ZM25.05,5.13s-.05,0-.08,0c-.02,0-.04,0-.06,0,0,.04.01.09.02.13.02,0,.04,0,.06,0,.03,0,.05,0,.06-.02.03-.01.04-.03.03-.06,0-.03-.01-.04-.03-.05"/>
          </g>
          <path class="cls-11" d="M17.11,5.59c.11,0,.21-.05.23-.12.01-.07-.07-.13-.18-.13-.11,0-.21.05-.22.12-.01.07.06.13.17.13ZM17.68,5.62c.1,0,.21-.04.23-.11l-.16-.14c-.11,0-.22.04-.23.11-.02.07.06.13.17.14ZM18.29,7.05c-.09-.02-.18.02-.2.09-.02.07.04.14.12.15.09.02.18-.02.2-.09.02-.07-.04-.14-.12-.16ZM19.42,5.53c.14.37-.03.81-.17,1.16-.02.04-.06.1-.15.09-.1-.02-.14-.02-.28-.04-.09-.02-.12-.03-.11-.1.01-.06.04-.15.06-.21.07-.3-.09-.39-.5-.34.06.07.05.28.01.42,0,.04-.01.08-.02.12-.01.03,0,.04-.13.03-.12-.01-.13,0-.27-.02-.12-.02-.11-.04-.11-.06,0,0,.06-.44.21-.77-.11-.04-.3-.09-.46-.1-.32-.03-.68.12-.78.33-.07.15-.07.44.23.5.13.03.34.03.46-.12-.02.04-.04.11-.06.15-.02.04-.19.04-.19.04-.07,0-.58,0-.72,0-.16,0-.15-.06-.14-.09,0-.16,0-.32,0-.39-.03-.14-.33-.15-.51-.09.13.21.12.44.11.65,0,.09.01.24-.1.3-.18.09-.41.06-.5-.03-.04.15.07.34.43.31.28-.03.53-.16.54-.44.05.02.09.04.14.04.13,0,.35,0,.48,0,.08,0,.17,0,.26,0,.17,0,.25-.07.3-.11.05.06.1.12.23.13.2.01.47.03.48.04.13.02.18-.02.24-.06.05.05.09.07.26.11.18.02.27.04.46.06.37.05.45.05.58-.2.03-.06.1-.21.16-.36.2-.48.36-1.01-.41-.95ZM17.45,6.09c-.06.2-.17.28-.29.27-.09,0-.12-.06-.12-.14,0-.17.13-.34.37-.34.03,0,.07,0,.09,0-.02.08-.03.12-.05.19ZM15.18,5.66c.1,0,.2-.07.21-.15.01-.08-.07-.14-.18-.14-.01,0-.03,0-.04,0-.01,0-.03,0-.04.01-.02,0-.05.02-.06.03-.04.03-.06.07-.07.11,0,.08.07.13.18.13ZM14.64,5.71c.11-.01.22-.08.22-.16,0-.08-.09-.14-.2-.13-.11.01-.21.09-.21.17.04.1.09.13.19.12ZM15.48,6.32c.04-.31-.14-.54-.53-.5-.39.04-.63.3-.64.62-.01.34.21.53.56.5.35-.04.57-.3.62-.61ZM14.88,6.65c-.11.01-.16-.11-.15-.29.01-.17.04-.31.2-.32.12,0,.14.12.12.29-.02.18-.05.3-.17.31ZM13.71,5.49c-.08,0-.18.03-.31.07.3.41.21,1.04.17,1.51.18-.03.27-.04.44-.06,0-.06,0-.12,0-.18.02-.26.1-.67.06-.97-.02-.15-.07-.27-.18-.33-.05-.03-.12-.05-.2-.04ZM20.79,5.81c-.07-.09-.21-.14-.47-.13.12.47-.28,1.06-.49,1.47.17.02.25.04.42.07.03-.06.06-.12.09-.18.12-.24.37-.58.46-.86.02-.07.04-.14.04-.2,0-.06-.02-.11-.05-.16ZM11.64,6.17c.11-.02.21-.1.2-.18,0-.08-.11-.13-.23-.11-.12.02-.21.1-.2.18.01.08.11.13.22.1ZM13.34,6.12c.02-.25-.04-.4-.17-.48-.13-.07-.32-.06-.55.03.15.11.22.52.25.83,0,.12,0,.22.02.33,0,.05,0,.08-.08.09-.2.03-.3.05-.5.09.02-.08.05-.23.04-.33-.03-.33-.32-.5-.61-.44-.29.06-.52.36-.64.65-.09-.29-.26-.23-.59-.1.11.09.22.33.27.58-.02.02-.05.03-.08.04-.16.05-.23.08-.39.13-.08.03-.13,0-.14-.05-.15-.36-.29-.72-.43-1.09-.17.06-.24.08-.43.14.16.36.31.73.47,1.09.13.26.26.27.6.16.81-.25,1.64-.46,2.48-.61.32-.04.49-.15.49-.41,0-.09,0-.67,0-.67ZM11.71,7.14l-.53.13s0-.02,0-.03c.12-.46.29-.63.44-.67.11-.02.21.06.24.23.03.19-.04.29-.15.33ZM5.61,8.44c-.05-.07-.18-.08-.28-.01-.05.03-.09.08-.11.12,0,.02-.01.05-.01.07,0,0,0,0,0,0,0,0,0,0,0,0,0,0,0,.01,0,.02,0,.01,0,.02.01.03h.27c.1-.05.15-.16.1-.24ZM8.62,7.21c-.27.07-.49.38-.56.75.1-.04.19-.07.29-.1-.02-.06,0-.12,0-.16.02-.1.09-.17.18-.2.12-.04.28-.05.4.11.05.06.08.11.16.35-.38.14-.75.29-1.11.46-.02-.06-.08-.2-.1-.26-.04-.09-.06-.22-.3-.21-.22,0-.54.29-.54.3-.08.06-.13.07-.14.06-.03-.03.07-.12.07-.12,0,0,.29-.25.63-.5.34-.25.24-.52.24-.52-.3.24-.6.48-.89.73,0,0-.36.31-.3.45.06.14.18.3.38.13.07-.06.15-.14.21-.19.08-.07.21-.06.24.02.03.08.1.21.14.29-.26.12-.77.42-.8.43-.11.06-.19-.04-.23-.09-.14-.19-.24-.41-.31-.57-.13.03-.28.11-.43.19-.29.17-.37.49-.27.75.04.09.14.25.27.38.07.06.14.12.21.15.04.02.08.03.11.03.02,0,.04,0,.06,0,.02,0,.04,0,.06-.01.24-.08.24-.34.15-.59,0,.01.02.02.03.03.08.1.18.14.28.07.89-.49,1.81-.91,2.77-1.28.02-.21-.02-.46-.17-.69-.16-.25-.53-.25-.77-.18ZM6.3,9.45c-.07.05-.18.01-.26-.09-.17-.21-.23-.48-.05-.63.03-.02.06-.03.08-.04.06.11.09.16.15.27.16.29.17.42.08.49ZM6.07,8.16c-.04-.07-.16-.08-.27-.02-.11.06-.16.17-.11.24l.27.02c.1-.06.16-.16.12-.24Z"/>
          <path class="cls-12" d="M12.8,16.45c-.2,0-.36-.16-.36-.36s.16-.36.36-.36.36.16.36.36-.16.36-.36.36Z"/>
          <path class="cls-12" d="M12.11,15.96s-.43.53.09.86l.23-.18s-.35-.28-.32-.68Z"/>
          <path class="cls-12" d="M13.26,15.69s.19.17.12.67l.82-.02s-.25-.85-.94-.65Z"/>
          <path class="cls-13" d="M13.3,12.69c.18-.04.31-.22.22-.44-.57.08-1.09-.38-1.82-.28-.82.11-1.28,1.24-1.37,2.05,0,.03.04.04.05.02.39-.84.76-1.3,1.3-1.41.7-.14,1.19.15,1.62.07Z"/>
          <path class="cls-13" d="M14.69,16.52c-.18-.31-.19-.42-.2-.73-.72-.31-.99-.53-1.25-1.14-.18.06-.27.31-.11.58-.36.04-.65.02-1.01-.14.01.13.11.27.2.41-.13.02-.26.12-.48.2-.29.1-.61.17-.76.16.13.14.4.28.65.23-.15.14-.54.39-.9.56.11.08.42.15.57.14-.08.18-.31.39-.56.53.2.01.5,0,.73-.04-.11.17-.24.42-.27.65,1.05-1.21,2.03-1.62,3.37-1.33.04,0,.05-.05.03-.08ZM12.16,16.71s-.26-.18-.11-.56c0,0,.01-.02.05-.06,0,0,0,.02,0,.02,0,.04,0,.08.01.12,0,0,0,.02,0,.03,0,.04.02.08.03.12,0,0,0,0,0,0,.02.04.03.07.06.11,0,0,0,.01,0,.02.02.03.05.07.07.1-.04.03-.09.06-.13.1ZM12.8,16.35c-.14,0-.26-.12-.26-.26s.12-.26.26-.26.26.12.26.26-.12.26-.26.26ZM13.51,16.25s0-.02,0-.03c0-.03,0-.07,0-.1s0-.07,0-.1c0,0,0,0,0-.01,0-.03-.01-.06-.02-.08,0,0,0,0,0,0-.02-.06-.04-.12-.08-.17h0c.27.03.45.16.63.51,0,0-.23-.02-.54,0Z"/>
        </g>
      </g>
    </g>
  </g>
</svg>