<?xml version="1.0" encoding="UTF-8"?>
<svg id="Layer_2" data-name="Layer 2" xmlns="http://www.w3.org/2000/svg" xmlns:xlink="http://www.w3.org/1999/xlink" viewBox="0 0 290.82 157.71">
  <defs>
    <style>
      .cls-1 {
        fill: none;
      }

      .cls-1, .cls-2, .cls-3, .cls-4, .cls-5, .cls-6, .cls-7, .cls-8, .cls-9, .cls-10, .cls-11, .cls-12, .cls-13, .cls-14, .cls-15, .cls-16, .cls-17, .cls-18, .cls-19, .cls-20, .cls-21, .cls-22, .cls-23, .cls-24, .cls-25, .cls-26, .cls-27, .cls-28, .cls-29, .cls-30, .cls-31, .cls-32, .cls-33, .cls-34, .cls-35 {
        stroke-width: 0px;
      }

      .cls-2 {
        fill: url(#linear-gradient);
      }

      .cls-3 {
        fill: url(#linear-gradient-29);
      }

      .cls-4 {
        fill: url(#linear-gradient-30);
      }

      .cls-5 {
        fill: url(#linear-gradient-31);
      }

      .cls-6 {
        fill: url(#linear-gradient-28);
      }

      .cls-7 {
        fill: url(#linear-gradient-25);
      }

      .cls-8 {
        fill: url(#linear-gradient-11);
      }

      .cls-9 {
        fill: url(#linear-gradient-12);
      }

      .cls-10 {
        fill: url(#linear-gradient-13);
      }

      .cls-11 {
        fill: url(#linear-gradient-10);
      }

      .cls-12 {
        fill: url(#linear-gradient-17);
      }

      .cls-13 {
        fill: url(#linear-gradient-16);
      }

      .cls-14 {
        fill: url(#linear-gradient-19);
      }

      .cls-15 {
        fill: url(#linear-gradient-15);
      }

      .cls-16 {
        fill: url(#linear-gradient-23);
      }

      .cls-17 {
        fill: url(#linear-gradient-21);
      }

      .cls-18 {
        fill: url(#linear-gradient-18);
      }

      .cls-19 {
        fill: url(#linear-gradient-14);
      }

      .cls-20 {
        fill: url(#linear-gradient-22);
      }

      .cls-21 {
        fill: url(#linear-gradient-20);
      }

      .cls-22 {
        fill: url(#linear-gradient-27);
      }

      .cls-23 {
        fill: url(#linear-gradient-24);
      }

      .cls-24 {
        fill: url(#linear-gradient-26);
      }

      .cls-25 {
        fill: #32bcad;
      }

      .cls-26 {
        fill: url(#linear-gradient-4);
      }

      .cls-27 {
        fill: url(#linear-gradient-2);
      }

      .cls-28 {
        fill: url(#linear-gradient-3);
      }

      .cls-29 {
        fill: url(#linear-gradient-8);
      }

      .cls-30 {
        fill: url(#linear-gradient-9);
      }

      .cls-31 {
        fill: url(#linear-gradient-7);
      }

      .cls-32 {
        fill: url(#linear-gradient-5);
      }

      .cls-33 {
        fill: url(#linear-gradient-6);
      }

      .cls-34 {
        fill: #fff;
      }

      .cls-35 {
        fill: #26247b;
      }
    </style>
    <linearGradient id="linear-gradient" x1="160.2" y1="69.97" x2="178.15" y2="69.97" gradientUnits="userSpaceOnUse">
      <stop offset="0" stop-color="#fff200"/>
      <stop offset="0" stop-color="#fff200"/>
      <stop offset=".58" stop-color="#e5d600"/>
      <stop offset="1" stop-color="#d8c800"/>
    </linearGradient>
    <linearGradient id="linear-gradient-2" x1="108.91" y1="66.95" x2="157.6" y2="66.95" gradientUnits="userSpaceOnUse">
      <stop offset="0" stop-color="#0089cf"/>
      <stop offset="0" stop-color="#0089cf"/>
      <stop offset=".6" stop-color="#00a2e5"/>
      <stop offset=".99" stop-color="#00aeef"/>
      <stop offset="1" stop-color="#00aeef"/>
    </linearGradient>
    <linearGradient id="linear-gradient-3" x1="201.72" y1="72.35" x2="190.6" y2="62.7" gradientUnits="userSpaceOnUse">
      <stop offset="0" stop-color="#8b0030"/>
      <stop offset=".1" stop-color="#a6053c"/>
      <stop offset=".22" stop-color="#c00a47"/>
      <stop offset=".35" stop-color="#d40e50"/>
      <stop offset=".5" stop-color="#e21156"/>
      <stop offset=".68" stop-color="#ea1359"/>
      <stop offset=".99" stop-color="#ed145b"/>
      <stop offset="1" stop-color="#ed145b"/>
    </linearGradient>
    <linearGradient id="linear-gradient-4" x1="160.6" y1="8.33" x2="181.85" y2="8.33" gradientUnits="userSpaceOnUse">
      <stop offset="0" stop-color="#c81d6f"/>
      <stop offset=".21" stop-color="#c31c6f"/>
      <stop offset=".45" stop-color="#b51b71"/>
      <stop offset=".71" stop-color="#9d1a73"/>
      <stop offset=".98" stop-color="#7d1877"/>
      <stop offset="1" stop-color="#7a1878"/>
    </linearGradient>
    <linearGradient id="linear-gradient-5" x1="192.6" y1="33.76" x2="207.01" y2="33.76" gradientUnits="userSpaceOnUse">
      <stop offset="0" stop-color="#50b848"/>
      <stop offset="0" stop-color="#50b848"/>
      <stop offset=".15" stop-color="#62bc44"/>
      <stop offset=".53" stop-color="#8dc83c"/>
      <stop offset=".82" stop-color="#a8cf36"/>
      <stop offset="1" stop-color="#b2d235"/>
    </linearGradient>
    <linearGradient id="linear-gradient-6" x1="82.49" y1="46.06" x2="99.67" y2="46.06" xlink:href="#linear-gradient"/>
    <linearGradient id="linear-gradient-7" x1="147.57" y1="52.17" x2="160.4" y2="52.17" gradientUnits="userSpaceOnUse">
      <stop offset="0" stop-color="#ffcb05"/>
      <stop offset="1" stop-color="#f58220"/>
    </linearGradient>
    <linearGradient id="linear-gradient-8" x1="180.52" y1="95.36" x2="194.93" y2="95.36" xlink:href="#linear-gradient-5"/>
    <linearGradient id="linear-gradient-9" x1="210.32" y1="145.16" x2="223.14" y2="145.16" xlink:href="#linear-gradient-7"/>
    <linearGradient id="linear-gradient-10" x1="101.88" y1="28.83" x2="113.92" y2="28.83" xlink:href="#linear-gradient-2"/>
    <linearGradient id="linear-gradient-11" x1="190.24" y1="43.44" x2="148.15" y2="31.32" xlink:href="#linear-gradient-4"/>
    <linearGradient id="linear-gradient-12" x1="134.32" y1="37.53" x2="114.18" y2="34.58" xlink:href="#linear-gradient-4"/>
    <linearGradient id="linear-gradient-13" x1="152.75" y1="61.4" x2="203.21" y2="10.51" gradientUnits="userSpaceOnUse">
      <stop offset="0" stop-color="#81b5bf"/>
      <stop offset="0" stop-color="#81b5bf"/>
      <stop offset=".45" stop-color="#49a1ab"/>
      <stop offset="1" stop-color="#008791"/>
    </linearGradient>
    <linearGradient id="linear-gradient-14" x1="201.28" y1="96.69" x2="189.98" y2="72.29" xlink:href="#linear-gradient-7"/>
    <linearGradient id="linear-gradient-15" x1="167.86" y1="77.95" x2="87.91" y2="59.23" gradientUnits="userSpaceOnUse">
      <stop offset="0" stop-color="#50b848"/>
      <stop offset=".18" stop-color="#50b848"/>
      <stop offset="1" stop-color="#b2d235"/>
    </linearGradient>
    <linearGradient id="linear-gradient-16" x1="115.81" y1="84.24" x2="165.35" y2="84.24" xlink:href="#linear-gradient-3"/>
    <linearGradient id="linear-gradient-17" x1="14.16" y1="118.64" x2="73.3" y2="118.64" gradientUnits="userSpaceOnUse">
      <stop offset=".99" stop-color="#ed145b"/>
      <stop offset="1" stop-color="#ed145b"/>
    </linearGradient>
    <linearGradient id="linear-gradient-18" x1="114.5" y1="125.79" x2="154.4" y2="125.79" xlink:href="#linear-gradient-17"/>
    <linearGradient id="linear-gradient-19" x1="75.96" y1="119.32" x2="112.58" y2="119.32" xlink:href="#linear-gradient-17"/>
    <linearGradient id="linear-gradient-20" x1="219.53" y1="119.31" x2="256.04" y2="119.31" xlink:href="#linear-gradient-17"/>
    <linearGradient id="linear-gradient-21" x1="180.28" y1="119" x2="216.46" y2="119" xlink:href="#linear-gradient-17"/>
    <linearGradient id="linear-gradient-22" x1="260.67" y1="111.94" x2="277.35" y2="111.94" xlink:href="#linear-gradient-17"/>
    <linearGradient id="linear-gradient-23" x1="95.37" y1="150.38" x2="108.44" y2="150.38" xlink:href="#linear-gradient-2"/>
    <linearGradient id="linear-gradient-24" x1="73.98" y1="95.55" x2="85.26" y2="95.55" xlink:href="#linear-gradient"/>
    <linearGradient id="linear-gradient-25" x1="163.16" y1="101.52" x2="177.79" y2="101.52" xlink:href="#linear-gradient-5"/>
    <linearGradient id="linear-gradient-26" x1="162.97" y1="107.01" x2="177.11" y2="107.01" xlink:href="#linear-gradient-4"/>
    <linearGradient id="linear-gradient-27" x1="165.48" y1="113.12" x2="176.14" y2="113.12" xlink:href="#linear-gradient"/>
    <linearGradient id="linear-gradient-28" x1="164.51" y1="118.88" x2="175.15" y2="118.88" xlink:href="#linear-gradient-2"/>
    <linearGradient id="linear-gradient-29" x1="162.5" y1="130.39" x2="173.23" y2="130.39" xlink:href="#linear-gradient-13"/>
    <linearGradient id="linear-gradient-30" x1="157.36" y1="136.42" x2="175.24" y2="136.42" xlink:href="#linear-gradient-7"/>
    <linearGradient id="linear-gradient-31" x1="157.07" y1="140.45" x2="174.75" y2="140.45" xlink:href="#linear-gradient-3"/>
  </defs>
  <g id="Layer_1-2" data-name="Layer 1">
    <g>
      <path class="cls-2" d="M165.39,54.81c-7.87,4.75-4.45,19.44-4.45,19.44l4.16,11.28,3.71,1.78s-2.23-11.58-2.23-17.96,7.72-5.64,7.72-5.64c2.08-1.48,3.86-3.12,3.86-6.38,0-2.19-2.2-4.71-6.01-4.71-1.88,0-4.16.61-6.76,2.18"/>
      <path class="cls-27" d="M121.38,56.29c-4.16.3-12.47,5.79-12.47,11.43s3.71,10.09,7.87,9.35c4.15-.74,3.56-7.27,3.86-9.35.29-2.08,5.04-6.83,15.14-4.31,10.09,2.52,21.82,14.25,21.82,14.25-11.49-19.38-28.28-21.43-34.54-21.43-.69,0-1.26.03-1.67.06"/>
      <path class="cls-28" d="M199.08,43.6c0,1,.44,4.34,5.01,4.79,4.56.44.33,13.8-9.13,17.25-9.46,3.45-19.7,5.01-21.6,21.37h0c.09-.12,8.51-11.7,18.48-13.69,10.02-2,19.04-9.24,20.93-19.37,1.89-10.13-3.01-15.81-7.35-15.81s-6.35,4.45-6.35,5.45"/>
      <path class="cls-35" d="M214,57.18s8.61-4.9,11.73-2.38c3.12,2.52,5.79,7.57,10.69,5.05,4.9-2.52.44-12.47-9.2-11.58-9.65.89-13.21,8.91-13.21,8.91"/>
      <path class="cls-26" d="M161.17,7.52c2.92,4.67,7.8,1.69,11.77,1.11,3.97-.58,8.87,8.03,8.87,8.03,0,0,1.03-8.71-6.82-14.4-2.22-1.61-4.52-2.26-6.62-2.26-5.31,0-9.3,4.18-7.2,7.52"/>
      <path class="cls-25" d="M221.77,74.02s7.72,3.07,7.7,6.44c-.02,3.36-1.93,7.76,2.3,9.64,4.22,1.89,8.4-6.24,2.76-12.09-5.64-5.85-12.76-3.98-12.76-3.98"/>
      <path class="cls-34" d="M191.05,24.62s2.28-8.16,5.69-8.51c3.41-.35,8.08,1.11,9.53-3.38,1.46-4.48-7.24-7.84-12.56-1.48-5.32,6.35-2.66,13.37-2.66,13.37"/>
      <path class="cls-32" d="M194.37,29.44c-3.98,7.27,0,13.63,0,13.63,0,0,.64-8.45,3.92-9.45,3.28-1,8.14-.48,8.69-5.17.28-2.4-1.99-3.99-4.81-3.99s-5.86,1.44-7.8,4.98"/>
      <path class="cls-33" d="M85.58,39.97c-4.13,0-4.74,8.19,2,11.1,6.78,2.93,12.09-1.13,12.09-1.13,0,0-7.55.13-8.71-2.7-1.16-2.82-1.11-7.18-5.3-7.28h-.08Z"/>
      <path class="cls-31" d="M147.59,47.11c.37,4.26,4.78,3.93,7.73,4.93,2.94,1,3.28,8.67,3.28,8.67,0,0,3.79-5.65.39-12.34-1.71-3.36-4.66-4.74-7.14-4.74s-4.44,1.36-4.26,3.48"/>
      <path class="cls-29" d="M182.29,91.03c-3.98,7.27,0,13.63,0,13.63,0,0,.64-8.45,3.92-9.45,3.28-1,8.14-.49,8.69-5.17.28-2.4-1.99-3.99-4.81-3.99s-5.86,1.44-7.8,4.98"/>
      <path class="cls-30" d="M211.73,148.96c1.7,3.36,4.66,4.74,7.14,4.74,2.46,0,4.44-1.36,4.26-3.48-.37-4.25-4.78-3.92-7.72-4.93-2.94-1.01-3.28-8.68-3.28-8.68,0,0-3.79,5.65-.39,12.34"/>
      <path class="cls-11" d="M102.17,28.09c1.59,2.75,4.46,1.13,6.75.87,2.3-.26,4.95,4.79,4.95,4.79,0,0,.76-4.99-3.64-8.42-1.32-1.03-2.71-1.44-3.97-1.44-2.96,0-5.21,2.27-4.09,4.19"/>
      <path class="cls-8" d="M148.54,30.55c0,5.49,1.78,10.24,6.38,10.69,4.6.44,4.15-8.16,4.15-8.16,2.67-2.97,11.87-7.42,21.82,2.97,9.94,10.39,4.9,21.67,4.9,21.67,0,0,3.86,4.6,3.86-9.8s-8.76-24.64-22.71-26.87c-1.99-.31-3.79-.46-5.41-.46-9.72,0-13,5.25-13,9.96"/>
      <path class="cls-9" d="M118.71,25.06c-5.79,7.72-2.08,20.04,5.64,25.08s10.54,2.08,10.54,2.08c0,0-12.02-11.87-8.9-15.14,3.12-3.27,7.72-6.09,5.94-11.43-1.01-3.02-3.25-5.28-6.05-5.28-2.15,0-4.64,1.34-7.16,4.69"/>
      <path class="cls-10" d="M159.5,14.28c-3.96,0-7.76.47-11.15,1.27-13.69,3.23-13.69,12.02-12.35,17.03,1.33,5.01,8.35,6.57,11.58,4.56,3.23-2,4.9-12.24,13.47-13.02,8.57-.78,23.82,5.45,25.49,21.37,1.67,15.92-7.46,13.92-16.09,23.27-8.63,9.35-3.73,26.22-3.73,26.22h7.46s1.34-.72,1.34-9.74,5.56-12.58,10.02-17.25c4.45-4.67,17.48-19.48,7.24-36.51-7.71-12.82-21.21-17.19-33.26-17.19h0"/>
      <path class="cls-19" d="M171.25,95.03h0s4.16,0,4.16,0c0,0,4.53-10.76,14.99-13.14,10.46-2.37,14.69,1.26,18.03,5.49,3.34,4.23,9.8,3.85,12.47.7,2.67-3.15,4.53-11.54-6.68-16.36-2.48-1.07-5.79-1.64-9.5-1.64-13.07,0-30.93,7.13-33.47,24.94"/>
      <path class="cls-15" d="M97.78,52.73c-10.54,7.27-12.91,18.85-7.42,26.12,5.49,7.27,15.14,1.78,15.14-2.52s-3.12-11.43,6.68-16.03c9.8-4.6,39.78-2.34,53.58,34.67h3.86s-6.24-28-26.87-40.76c-9.68-5.99-17.86-8.28-24.89-8.28-7.97,0-14.48,2.94-20.08,6.8"/>
      <path class="cls-13" d="M115.81,85.35c-.22,4.68,4.01,7.79,10.02,7.12,6.01-.67,4.01-6.34,4.01-6.34,0,0,2.67-5.68,16.14-3.23,13.47,2.45,17.7,12.08,17.7,12.08h1.67s-.34-5.62-2.23-8.29c-1.89-2.67-12.02-12.47-27.39-13.13-.62-.03-1.23-.04-1.82-.04-13.89,0-17.89,7.36-18.11,11.84"/>
      <path class="cls-12" d="M60.88,123.83c0-4.24.03-8.48-.01-12.73-.02-2.6-3.02-5.16-5.38-4.51-1.06.29-2.09.92-2.95,1.62-2.91,2.4-4.33,5.52-4.29,9.32.04,4.1.02,8.2.04,12.31,0,1.31.7,1.98,2.06,2,1.16.02,1.57.54,1.48,1.7-.08,1.1-.04,2.2-.06,3.31-.02,1.07-.36,1.41-1.44,1.42-3.1.02-6.2.05-9.31.08-.87,0-1.44-.61-1.45-1.52,0-7.58.02-15.16-.03-22.74,0-1.48-.19-2.96-.46-4.41-.48-2.56-3.94-4-6.18-2.7-4.23,2.46-6.19,6.15-6.16,11,.02,3.86-.02,7.73-.04,11.59,0,1.84.55,2.38,2.38,2.13.92-.12,1.45.24,1.49,1.11.06,1.48.05,2.96,0,4.44-.03.68-.39,1.13-1.2,1.12-4.41-.05-8.82-.09-13.24-.11-1.6,0-1.88-.26-1.85-1.85.02-1.03,0-2.07,0-3.1-.02-1.38.31-1.68,1.74-1.58.27.02.56.04.83,0,1-.13,1.39-.77,1.39-1.73-.01-3.14-.02-6.28-.02-9.42,0-3.9.01-7.79.02-11.69,0-1.54-.41-1.94-1.98-1.94-1.77,0-2.05-.31-1.98-2.02.03-.89-.03-1.79-.09-2.69-.11-1.62.31-2.07,1.9-2.07,3,0,6,0,9,0,1.4,0,1.71.34,1.56,1.73-.03.27-.16.57-.11.81.09.4.26,1.04.48,1.08.44.07,1.12-.03,1.37-.34,2.94-3.57,6.85-4.53,11.2-4.13,2.94.27,5.2,1.84,6.91,4.23.89,1.25,1.49,1.32,2.55.18,2.44-2.63,5.44-4.17,8.95-4.72,4.13-.65,8.5,1.4,10.3,5.13.74,1.53,1.1,3.36,1.14,5.07.14,6.65.09,13.31.09,19.97,0,2.25.23,2.54,2.45,2.46.84-.03,1.26.34,1.28,1.12.03,1.48.04,2.96,0,4.45-.02.72-.39,1.1-1.2,1.08-3.14-.04-6.28-.04-9.41-.05-1.53,0-1.78-.25-1.78-1.81,0-4.21,0-8.42,0-12.62h0Z"/>
      <path class="cls-18" d="M150.88,123.3c0,4.45,0,8.9,0,13.35,0,2.94-.42,5.8-2.14,8.26-2.02,2.89-4.76,4.83-8.21,5.7-1.14.28-2.26.63-3.4.89-3.78.83-7.57.57-11.28-.27-3.64-.83-6.81-2.67-8.81-5.98-.72-1.2-1.19-2.56-1.66-3.88-.27-.75.18-1.19.95-1.18,2,.04,4,.09,5.99.09.92,0,1.47.32,1.98,1.15,1.79,2.89,4.54,4,7.84,3.8,2.04-.13,4.1-.07,6.02-1.16,1.9-1.08,3.24-2.63,3.66-4.63.47-2.24.44-4.58.53-6.88.02-.35-.46-.97-.78-1.02-.41-.06-1.04.2-1.31.53-1.9,2.32-4.37,3.75-7.26,4.19-6.11.92-11.27-.95-14.99-6-1.4-1.9-2.39-4.1-2.77-6.51-.22-1.43-.75-2.84-.76-4.26-.02-2.04.25-4.09.52-6.13.32-2.46,1.28-4.71,2.57-6.81,1.47-2.4,3.44-4.24,5.99-5.5,3.34-1.65,6.87-1.72,10.4-1.13,2.26.38,4.12,1.8,5.91,3.23.5.4,1.14.63,1.72.93.16-.67.47-1.34.44-2-.06-1.69.08-1.9,1.8-1.89,2.9,0,5.79,0,8.69.01,1.45,0,1.82.38,1.85,1.84.02,1.2.01,2.41,0,3.62,0,.87-.41,1.32-1.34,1.32-1.86,0-2.21.39-2.21,2.26,0,4.69,0,9.38,0,14.07h.03ZM123.29,118.48c.21,2.57.82,4.97,2.16,7.17,1.31,2.15,3.28,3.49,5.64,4.04,2.73.64,5.2-.4,7.2-2.23,1.35-1.23,2.49-2.67,3.11-4.52,1.64-4.89,1.53-9.51-1.99-13.55-1.02-1.18-2.46-2.24-3.92-2.72-2.49-.83-4.91-.22-7.11,1.36-3.61,2.59-4.66,6.36-5.09,10.45"/>
      <path class="cls-14" d="M109.12,119.66c0,2.97,0,5.93,0,8.89,0,.41,0,.83.04,1.24.14,1.55.63,2.05,2.17,1.94.99-.07,1.22.43,1.23,1.21.02,1.34.02,2.69,0,4.04-.02,1.04-.41,1.41-1.48,1.41-2.76.01-5.52.01-8.28,0-.99,0-1.36-.42-1.31-1.42.04-.79.32-1.82-.6-2.06-.52-.14-1.36.46-1.89.92-3.26,2.77-7.05,3.56-11.19,3.17-2.85-.27-5.53-1.11-7.69-2.97-3.27-2.79-4.6-6.44-4.03-10.73.48-3.65,2.69-5.99,5.86-7.55,1.89-.93,3.84-1.65,5.96-1.91,2.59-.32,5.15-.87,7.73-1.27,1.16-.18,2.33-.26,3.49-.34,1.63-.11,2.29-.72,2.23-2.32-.11-2.8-1.72-5.91-5.28-6.22-2.04-.18-4.02-.4-5.97.52-1.58.75-2.72,1.82-3.37,3.43-.61,1.52-.75,1.57-2.37,1.53-1.62-.04-3.24,0-4.86,0-1.62,0-1.77-.26-1.37-1.83.83-3.2,2.57-5.75,5.32-7.58,2.17-1.46,4.65-2.1,7.22-2.17,2.75-.07,5.53-.1,8.25.25,3.64.46,6.61,2.36,8.65,5.44,1.33,2,1.68,4.34,1.66,6.73-.02,2.55,0,5.11,0,7.66h-.11ZM91.6,133.16c1.86.23,3.46-.39,4.91-1.23,3.69-2.16,4.97-5.6,4.79-9.71-.07-1.56-.61-2.09-2.25-2.01-2.95.14-5.9.16-8.74,1.26-2.2.85-4.01,2.02-5.02,4.26-1,2.22-.38,4.05,1.24,5.48,1.44,1.27,3.13,2.13,5.07,1.96"/>
      <path class="cls-21" d="M252.57,120.12c0,3.21.01,6.41,0,9.61,0,1.3.54,1.91,1.84,1.95,1.36.05,1.63.32,1.64,1.65,0,1.21.02,2.41,0,3.62-.02,1.16-.36,1.46-1.49,1.46-2.59,0-5.17,0-7.76-.01-1.49,0-1.72-.31-1.75-1.76-.01-.55-.35-1.09-.53-1.64-.55.2-1.2.26-1.64.61-3.06,2.42-6.44,3.66-10.41,3.36-2.12-.17-4.21-.34-6.12-1.29-2.65-1.31-4.75-3.12-5.96-5.97-1.08-2.56-.86-5.15-.7-7.74.11-1.79,1.35-3.14,2.72-4.21,2.59-2.03,5.49-3.35,8.77-3.86,2.75-.43,5.47-1.03,8.22-1.48.98-.16,1.99-.13,2.99-.16,1.91-.06,2.46-.62,2.47-2.49,0-1.99-.91-3.56-2.19-4.97l-.41-.31c-3.53-1.42-8.02-1.83-11.03,1.68-.45.53-.76,1.22-1.01,1.88-.36.94-.97,1.37-1.96,1.34-1.86-.07-3.72-.1-5.58-.18-1.22-.05-1.39-.47-1.15-1.66.4-1.91,1.27-3.53,2.43-5.06,1.05-1.38,2.41-2.31,3.89-3.16,2-1.15,4.2-1.66,6.43-1.69,3.16-.03,6.39-.08,9.47.5,5.07.96,8.85,5.39,8.95,10.69.06,3.1.01,6.21.01,9.31h-.11M240.93,120.22v-.05c-1.14.09-2.29.09-3.4.29-1.11.2-2.24.46-3.25.93-1.48.69-3,1.42-4.24,2.45-.8.66-1.37,1.84-1.61,2.88-.42,1.86,1.47,4.72,3.42,5.84,1.4.8,2.89.53,4.34.55,1.83.02,3.46-.72,4.85-1.8,3.15-2.4,4.03-5.77,3.76-9.56-.06-.87-.55-1.44-1.41-1.52-.82-.08-1.65-.01-2.47-.01"/>
      <path class="cls-17" d="M216.35,106.9c0,1.76-.04,3.52.01,5.27.02.89-.29,1.27-1.19,1.25-1.83-.03-3.65-.06-5.48,0-1.16.04-1.58-.76-1.96-1.55-1.73-3.67-4.74-5.54-8.64-5.79-2.88-.19-5.19,1.34-7.07,3.47-3.04,3.44-3.12,7.56-2.72,11.79.29,3.04,1.31,5.8,3.59,7.89,2.63,2.41,5.65,3.39,9.22,2.17,2.55-.87,4.42-2.43,5.62-4.82.56-1.11,1.34-1.7,2.7-1.58,1.54.14,3.1.03,4.65.03,1.26,0,1.58.39,1.25,1.57-1.88,6.93-8,11.75-15.03,12.33-2.63.22-5.25.3-7.8-.46-4.55-1.35-8.09-4.04-10.44-8.19-2.58-4.58-3.21-9.48-2.56-14.66.26-2.08.73-4.06,1.49-5.98,1.44-3.63,3.8-6.52,7.27-8.39,2.73-1.47,5.64-2.49,8.78-2.31,3.18.18,6.12,1.18,8.61,3.26.27.22.51.48.8.66.86.54,1.56.17,1.63-.85.13-1.97.15-1.96,2.13-1.89,1.17.05,2.34.04,3.52.03,1.46-.01,1.56.08,1.57,1.59,0,1.72,0,3.45,0,5.17h.03Z"/>
      <path class="cls-20" d="M272.97,108.5v21.11c0,1.77.55,2.27,2.33,2.12,1.68-.14,2.09.28,2.04,1.97-.03,1,0,2,.02,3,.01,1.26-.38,1.68-1.66,1.69-4.49.02-8.97.02-13.45.02-.99,0-1.41-.48-1.41-1.49,0-1.24,0-2.48,0-3.71,0-1.14.43-1.55,1.56-1.46,1.68.13,2.18-.33,2.18-2.03-.01-11.9-.02-23.8-.04-35.7,0-1.5-.47-1.94-2.01-1.95-1.53,0-1.96-.56-1.82-2.12.09-.88.07-1.79,0-2.68-.09-1.27.36-1.8,1.61-1.79,2.97.01,5.93,0,8.9,0,1.5,0,1.83.32,1.83,1.81v21.21h-.07Z"/>
      <path class="cls-16" d="M97.54,153.7c4.69,5.23,10.9,3.84,10.9,3.84,0,0-6.58-2.89-6.46-5.8.12-2.91,1.9-6.65-1.69-8.41-.39-.19-.78-.28-1.17-.28-3.16,0-5.77,5.99-1.59,10.65"/>
      <path class="cls-25" d="M277.69,126.98s6.55,2.61,6.53,5.46c-.02,2.85-1.63,6.58,1.95,8.18,3.58,1.6,7.12-5.29,2.34-10.26-4.78-4.96-10.82-3.38-10.82-3.38"/>
      <path class="cls-23" d="M75.66,92.11c-3.36,5.28-.67,10.27-.67,10.27,0,0,.9-6.34,3.42-6.93,2.52-.6,6.16.03,6.81-3.47.35-1.9-1.5-3.26-3.81-3.26-1.95,0-4.21.97-5.75,3.39"/>
      <path class="cls-35" d="M4.59,135.38s-2.1-8.13.65-10.12c2.76-1.99,7.48-3.06,6.5-7.63-.98-4.57-10.11-3.12-11.51,4.97-1.41,8.09,4.37,12.79,4.37,12.79"/>
      <path class="cls-7" d="M176,99.69c-3.48-.61-6.96-1.23-10.44-1.86-.16-.03-.3-.04-.44-.04-.65,0-1.04.34-1.18,1.1-.24,1.31-.46,2.64-.77,3.93,0,.02,0,.03-.01.05l13.97,2.38c.18-1.11.37-2.22.54-3.34.29-1.8.11-1.91-1.68-2.22Z"/>
      <path class="cls-24" d="M163.13,103.01c-.38,1.66-.16,1.95,1.63,2.24,1.64.26,2.21.94,1.93,2.58-.08.51-.17,1.01-.25,1.52l9.71,1.65c.32-1.87.64-3.74.95-5.62l-13.98-2.38Z"/>
      <path class="cls-22" d="M166.42,109.49c-.31,1.87-.63,3.75-.94,5.62l9.69,1.65c.32-1.87.64-3.74.97-5.62l-9.71-1.65Z"/>
      <path class="cls-6" d="M174.99,117.84c.05-.32.11-.63.16-.95l-9.69-1.65c-.31,1.87-.63,3.75-.95,5.62l9.71,1.65c.26-1.56.53-3.11.79-4.67h-.03Z"/>
      <path class="cls-1" d="M163.94,98.89c-.24,1.31-.46,2.64-.77,3.93-.44,1.82-.26,2.13,1.59,2.43,1.64.26,2.21.94,1.93,2.58-1.32,7.95-2.66,15.9-4.02,23.84-.29,1.69-1.25,2.25-2.89,1.82-1.29-.34-1.85.02-2.05,1.3-.2,1.32-.39,2.64-.6,3.96-.25,1.53.09,2.02,1.59,2.27.5.09,1.01.18,1.51.26,3.99.68,7.98,1.36,11.98,2.02,1.51.25,2.2-.26,2.36-1.55.15-1.24.37-2.47.61-3.7.21-1.07-.23-1.92-1.21-2.21-1.63-.47-1.87-.85-1.58-2.54.88-5.15,1.75-10.31,2.63-15.46h-.03c.9-5.32,1.84-10.62,2.69-15.93.29-1.8.11-1.91-1.68-2.22-3.48-.61-6.96-1.23-10.44-1.86-.16-.03-.3-.04-.44-.04-.65,0-1.04.34-1.18,1.1"/>
      <path class="cls-3" d="M163.52,126.75c-.28,1.64-.56,3.28-.84,4.92-.04.25-.1.48-.18.69l9.8,1.67c.02-.21.05-.44.09-.71.28-1.64.56-3.27.83-4.91l-9.71-1.65Z"/>
      <path class="cls-4" d="M173.98,135.85c-1.31-.38-1.72-.7-1.68-1.69l-9.84-1.67c-.44,1.05-1.32,1.36-2.66,1-1.29-.34-1.85.02-2.05,1.3-.13.87-.26,1.74-.39,2.61l17.42,2.96c.12-.77.26-1.54.41-2.3.21-1.07-.23-1.92-1.21-2.21Z"/>
      <path class="cls-5" d="M174.75,140.5l-17.42-2.96c-.06.41-.13.81-.19,1.22-.25,1.53.09,2.02,1.59,2.27.5.09,1.01.18,1.51.26,3.99.68,7.98,1.36,11.98,2.02,1.51.25,2.2-.26,2.36-1.55.05-.42.11-.84.18-1.26Z"/>
      <path class="cls-35" d="M164.49,121c-.32,1.87-.64,3.75-.96,5.62l9.72,1.65c.32-1.87.64-3.75.96-5.62l-9.72-1.65Z"/>
    </g>
  </g>
</svg>