<?xml version="1.0" encoding="UTF-8"?>
<svg xmlns="http://www.w3.org/2000/svg" xmlns:xlink="http://www.w3.org/1999/xlink" viewBox="0 0 424.24 188.07">
  <defs>
    <style>
      .cls-1 {
        clip-path: url(#clippath);
      }

      .cls-2 {
        fill: none;
      }

      .cls-2, .cls-3, .cls-4, .cls-5, .cls-6, .cls-7, .cls-8, .cls-9, .cls-10 {
        stroke-width: 0px;
      }

      .cls-3 {
        fill: url(#linear-gradient);
      }

      .cls-11 {
        mix-blend-mode: multiply;
      }

      .cls-12 {
        clip-path: url(#clippath-1);
      }

      .cls-13 {
        clip-path: url(#clippath-4);
      }

      .cls-14 {
        clip-path: url(#clippath-3);
      }

      .cls-15 {
        clip-path: url(#clippath-2);
      }

      .cls-16 {
        clip-path: url(#clippath-7);
      }

      .cls-17 {
        clip-path: url(#clippath-8);
      }

      .cls-18 {
        clip-path: url(#clippath-6);
      }

      .cls-19 {
        clip-path: url(#clippath-5);
      }

      .cls-20 {
        clip-path: url(#clippath-9);
      }

      .cls-4 {
        fill: #001a70;
      }

      .cls-21 {
        mix-blend-mode: darken;
        opacity: .6;
      }

      .cls-5 {
        fill: url(#linear-gradient-4);
      }

      .cls-6 {
        fill: url(#linear-gradient-2);
      }

      .cls-7 {
        fill: url(#linear-gradient-3);
      }

      .cls-8 {
        fill: url(#linear-gradient-5);
      }

      .cls-22 {
        isolation: isolate;
      }

      .cls-9 {
        fill: #fff;
      }

      .cls-10 {
        fill: #fd0;
      }
    </style>
    <clipPath id="clippath">
      <rect class="cls-2" width="407.72" height="128.73"/>
    </clipPath>
    <clipPath id="clippath-1">
      <path class="cls-2" d="M0,128.73c29.78-13.55,47.8-50.85,56.37-68.63.24-.5.72-.82,1.27-.87,17.11-1.42,49.74-6.17,118.04-22.95,80.76-19.85,109.42-27.29,132.15-28.79,37.57-2.48,72.53,9.07,99.89,58.19C387.14,17.85,344.92-2.27,307.35.21c-22.73,1.5-51.4,8.94-132.16,28.79-69.68,17.12-102.23,21.72-119.06,23.04-3.17.25-5.89,2.35-6.9,5.37-8.6,25.67-30.3,57.07-49.23,71.32"/>
    </clipPath>
    <linearGradient id="linear-gradient" x1="1484.92" y1="1331.67" x2="1486.62" y2="1331.67" gradientTransform="translate(-358560.35 321615.2) scale(241.47 -241.47)" gradientUnits="userSpaceOnUse">
      <stop offset="0" stop-color="#f6abcc"/>
      <stop offset=".07" stop-color="#f6abcc"/>
      <stop offset=".2" stop-color="#fce8f1"/>
      <stop offset=".29" stop-color="#fffafc"/>
      <stop offset=".37" stop-color="#fce8f1"/>
      <stop offset=".52" stop-color="#f6accc"/>
      <stop offset=".71" stop-color="#fbdce9"/>
      <stop offset=".81" stop-color="#fffafc"/>
      <stop offset=".88" stop-color="#fce8f1"/>
      <stop offset=".91" stop-color="#fadbe9"/>
      <stop offset=".95" stop-color="#f6b9d5"/>
      <stop offset=".99" stop-color="#f298c1"/>
      <stop offset="1" stop-color="#f298c1"/>
    </linearGradient>
    <clipPath id="clippath-2">
      <rect class="cls-2" x="9.39" y="57.33" width="414.85" height="130.74"/>
    </clipPath>
    <clipPath id="clippath-3">
      <path class="cls-2" d="M424.24,57.33c-29.77,13.55-47.79,50.84-56.36,68.62-.24.5-.73.83-1.28.88-17.11,1.42-49.74,6.17-118.03,22.95-80.76,19.85-112.99,29.23-135.72,30.73-37.57,2.48-76.09-6.41-103.45-55.53,20.58,47.82,62.07,65.58,103.94,62.81,22.73-1.5,54.96-10.88,135.72-30.73,69.68-17.13,102.23-21.72,119.06-23.04,3.17-.25,5.89-2.35,6.9-5.37,8.6-25.67,30.3-57.07,49.23-71.32"/>
    </clipPath>
    <linearGradient id="linear-gradient-2" x1="1485.06" y1="1331.56" x2="1486.76" y2="1331.56" gradientTransform="translate(-365051.75 327452.38) scale(245.82 -245.82)" gradientUnits="userSpaceOnUse">
      <stop offset="0" stop-color="#f8bcd6"/>
      <stop offset=".07" stop-color="#f8bcd6"/>
      <stop offset=".2" stop-color="#fce8f1"/>
      <stop offset=".29" stop-color="#fffafc"/>
      <stop offset=".37" stop-color="#fce8f1"/>
      <stop offset=".52" stop-color="#f6accc"/>
      <stop offset=".71" stop-color="#fbdce9"/>
      <stop offset=".81" stop-color="#fffafc"/>
      <stop offset=".88" stop-color="#fce8f1"/>
      <stop offset=".91" stop-color="#fadbe9"/>
      <stop offset=".95" stop-color="#f6b9d5"/>
      <stop offset=".99" stop-color="#f298c1"/>
      <stop offset="1" stop-color="#f298c1"/>
    </linearGradient>
    <clipPath id="clippath-4">
      <rect class="cls-2" y="3.56" width="407.72" height="125.17"/>
    </clipPath>
    <clipPath id="clippath-5">
      <path class="cls-2" d="M56.37,60.1c.24-.5.72-.82,1.27-.87,17.11-1.42,49.74-6.17,118.04-22.95,80.76-19.85,109.42-27.29,132.15-28.79,37.57-2.48,72.53,9.07,99.89,58.19C384.65,17.98,345.16,1.31,307.59,3.79c-22.73,1.5-51.4,8.94-132.16,28.79-74.06,18.2-103.53,22.08-119.14,23.06-1.45.09-2.75.99-3.28,2.34C40.89,88.84,20.3,116.82,0,128.73c29.78-13.55,47.8-50.85,56.37-68.63"/>
    </clipPath>
    <linearGradient id="linear-gradient-3" x1="1484.92" y1="1331.67" x2="1486.62" y2="1331.67" gradientTransform="translate(-358560.26 321616.27) scale(241.47 -241.47)" gradientUnits="userSpaceOnUse">
      <stop offset="0" stop-color="#f39dc3"/>
      <stop offset=".07" stop-color="#f39dc3"/>
      <stop offset=".2" stop-color="#fad2e3"/>
      <stop offset=".37" stop-color="#fad0e2"/>
      <stop offset=".52" stop-color="#f6accc"/>
      <stop offset=".7" stop-color="#f5b7d3"/>
      <stop offset=".81" stop-color="#fbdae8"/>
      <stop offset=".93" stop-color="#f6aacb"/>
      <stop offset=".98" stop-color="#f298c1"/>
      <stop offset="1" stop-color="#f298c1"/>
    </linearGradient>
    <clipPath id="clippath-6">
      <rect class="cls-2" x="9.39" y="57.33" width="414.85" height="130.74"/>
    </clipPath>
    <clipPath id="clippath-7">
      <path class="cls-2" d="M113.32,187.79c22.73-1.5,54.96-10.88,135.72-30.73,69.68-17.13,102.23-21.72,119.06-23.04,3.17-.25,5.89-2.35,6.9-5.37,8.6-25.67,30.3-57.07,49.23-71.32-27,15.4-44.22,52.34-52.95,70.6-.59,1.22-1.76,2.03-3.1,2.15-17.64,1.58-52.72,6.9-119.38,23.28-80.76,19.85-112.99,29.23-135.72,30.73-40.79,2.7-80.99-12.17-103.69-59.11,20.58,47.82,62.07,65.58,103.94,62.81"/>
    </clipPath>
    <linearGradient id="linear-gradient-4" x1="1485.06" y1="1331.56" x2="1486.76" y2="1331.56" gradientTransform="translate(-365051.75 327452.38) scale(245.82 -245.82)" gradientUnits="userSpaceOnUse">
      <stop offset="0" stop-color="#f39dc3"/>
      <stop offset=".07" stop-color="#f39dc3"/>
      <stop offset=".21" stop-color="#f5b7d3"/>
      <stop offset=".37" stop-color="#fad0e2"/>
      <stop offset=".52" stop-color="#f6accc"/>
      <stop offset=".7" stop-color="#f5b7d3"/>
      <stop offset=".81" stop-color="#fbdae8"/>
      <stop offset=".93" stop-color="#f6aacb"/>
      <stop offset=".98" stop-color="#f298c1"/>
      <stop offset="1" stop-color="#f298c1"/>
    </linearGradient>
    <clipPath id="clippath-8">
      <rect class="cls-2" x="317.88" y="24.12" width="11.18" height="28.8"/>
    </clipPath>
    <clipPath id="clippath-9">
      <path class="cls-2" d="M327.73,38.76c2.85-5.25.9-11.7-4.02-14.64,6.87,11.42-9.86,17.24-4.91,28.8.44-7.17,6.33-9.36,8.93-14.16"/>
    </clipPath>
    <linearGradient id="linear-gradient-5" x1="1503.81" y1="1423.35" x2="1505.51" y2="1423.35" gradientTransform="translate(24081.77 25155.31) rotate(-90) scale(16.69 -16.69)" gradientUnits="userSpaceOnUse">
      <stop offset="0" stop-color="#f38ab8"/>
      <stop offset="0" stop-color="#f38ab8"/>
      <stop offset=".28" stop-color="#fad2e3"/>
      <stop offset=".75" stop-color="#f497c0"/>
      <stop offset="1" stop-color="#f8c2da"/>
    </linearGradient>
  </defs>
  <g class="cls-22">
    <g id="Layer_2" data-name="Layer 2">
      <g id="Layer_1-2" data-name="Layer 1">
        <g>
          <path class="cls-9" d="M407.72,65.68C387.14,17.85,344.92-2.27,307.35.21c-22.73,1.5-51.4,8.94-132.15,28.79-69.68,17.12-102.23,21.72-119.06,23.04-3.17.25-5.89,2.35-6.9,5.37C40.63,83.07,18.93,114.48,0,128.73c2.76-.76,6.77-2.45,9.39-3.75,20.58,47.82,62.07,65.58,103.94,62.81,22.73-1.5,54.96-10.88,135.72-30.73,69.68-17.12,102.23-21.72,119.06-23.04,3.17-.25,5.89-2.35,6.9-5.37,8.6-25.67,30.3-57.07,49.23-71.32-5.7,2.23-11.24,5.04-16.52,8.35"/>
          <path class="cls-4" d="M407.72,65.68c-18.35,13.37-32.83,35.83-40.43,51.33-.25.5-.73.83-1.29.88-17.11,1.42-49.74,6.17-118.03,22.95-80.76,19.85-112.99,29.23-135.72,30.73-39.34,2.6-75.92-3.25-102.86-46.59,21.67-12.19,39.01-38.49,47.56-55.94.25-.5.73-.83,1.28-.87,17.11-1.42,49.74-6.17,118.04-22.95,80.76-19.85,109.42-27.29,132.15-28.79,39.34-2.6,72.36,5.91,99.3,49.25"/>
          <path class="cls-10" d="M0,128.73c29.78-13.55,47.8-50.85,56.37-68.63.24-.5.72-.82,1.27-.87,17.11-1.42,49.74-6.17,118.04-22.96,80.76-19.85,109.42-27.29,132.15-28.79,37.57-2.48,72.53,9.07,99.89,58.19C387.14,17.85,344.92-2.27,307.35.21c-22.73,1.5-51.4,8.94-132.15,28.79-69.68,17.12-102.23,21.72-119.06,23.04-3.17.25-5.89,2.35-6.9,5.37C40.63,83.07,18.93,114.48,0,128.73"/>
          <g class="cls-21">
            <g class="cls-1">
              <g class="cls-12">
                <rect class="cls-3" x="-3.88" y="-15.58" width="415.47" height="157.6" transform="translate(-3.73 13.58) rotate(-3.78)"/>
              </g>
            </g>
          </g>
          <path class="cls-10" d="M424.24,57.33c-29.77,13.55-47.79,50.84-56.36,68.62-.24.5-.73.83-1.28.88-17.11,1.42-49.74,6.17-118.03,22.95-80.76,19.85-112.99,29.23-135.72,30.73-37.57,2.48-76.09-6.41-103.45-55.53,20.58,47.82,62.07,65.58,103.93,62.81,22.73-1.5,54.96-10.88,135.72-30.73,69.68-17.13,102.23-21.72,119.06-23.04,3.17-.25,5.89-2.35,6.9-5.37,8.6-25.67,30.3-57.07,49.23-71.32"/>
          <g class="cls-21">
            <g class="cls-15">
              <g class="cls-14">
                <rect class="cls-6" x="5.45" y="43.8" width="422.73" height="160.29" transform="translate(-7.7 14.57) rotate(-3.78)"/>
              </g>
            </g>
          </g>
          <g class="cls-11">
            <g class="cls-13">
              <g class="cls-19">
                <rect class="cls-7" x="-3.76" y="-12" width="415.24" height="154.03" transform="translate(-3.84 13.59) rotate(-3.78)"/>
              </g>
            </g>
          </g>
          <g class="cls-11">
            <g class="cls-18">
              <g class="cls-16">
                <rect class="cls-5" x="5.45" y="43.8" width="422.73" height="160.29" transform="translate(-7.7 14.57) rotate(-3.78)"/>
              </g>
            </g>
          </g>
          <path class="cls-9" d="M164.58,70.11l-14.79,3.64s-.51,1.93.81,5.31c4.67,11.95,11.05,29.1,17.09,47.86,1.67,5.19,3.83,4.78,3.83,4.78l5.04-1.27s15.63-44.32,20.82-59.07c2.3-6.54,4.67-10.45,4.67-10.45l-10.07,2.4s-2.08.46-4.21,6.34c-3.39,9.38-13.06,36.48-13.06,36.48,0,0-.5-.1-1.2-2.01-1.98-5.43-5.9-16.25-7.79-21.67-3.31-9.52-1.16-12.35-1.16-12.35"/>
          <path class="cls-9" d="M213.79,67.52c2.57-3.19,2.82-6.98.45-8.73-2.37-1.75-6.62-.86-9.02,2.4-2.4,3.25-2.43,7.31-.06,9.06,2.37,1.75,6.11.43,8.64-2.72"/>
          <path class="cls-9" d="M203.97,78.76s-1.74.58-1.95,3.86c-.59,9.13-1.64,26.46-2.12,35.71-.26,5.12,1.67,6.03,1.67,6.03l12.79-2.96s-3-2.32-2.58-10.24c.37-6.86,1.25-20.01,1.77-26.42.57-7.12,2.58-8.95,2.58-8.95l-12.17,2.98Z"/>
          <path class="cls-9" d="M268.36,54.29c2.57-3.2,2.82-6.98.45-8.73-2.37-1.75-6.62-.86-9.02,2.4-2.4,3.25-2.43,7.31-.06,9.06,2.37,1.75,6.11.43,8.64-2.72"/>
          <path class="cls-9" d="M258.54,65.53s-1.74.58-1.95,3.86c-.59,9.13-1.64,26.46-2.12,35.71-.26,5.12,1.67,6.03,1.67,6.03l12.79-2.96s-3-2.32-2.58-10.24c.37-6.86,1.25-20.01,1.77-26.42.57-7.12,2.58-8.95,2.58-8.95l-12.17,2.98Z"/>
          <path class="cls-9" d="M245.11,68.37c-1.7.41-3.81.9-6.07,1.42.32-5.35.62-10.35.84-14.12.06-.98-.41-1.39-.41-1.39,0,0-7.08,4.25-9.4,5.66-.7.43-1.9,1.2-1.99,2.62-.17,2.62-.4,6.06-.65,9.88-.45.1-.89.2-1.31.29-4.16.93-5.83,3.04-6.14,5.4-.3,2.32-.92,8.2-.92,8.2,0,0,1.39-3.14,7.76-4.46-.51,7.94-1.03,16.07-1.36,21.43-.37,6.14,1.57,14.87,10.28,14.18,8.4-.67,12.44-5.47,12.7-7.68.1-2.2.35-7.92.35-7.92-5.83,7.22-12.13,6.67-11.53-2.81.31-4.92.75-12.1,1.2-19.5,2.17-.42,4.24-.83,5.98-1.16,3.34-.65,6.79-2.55,7.15-7.35.17-2.37.44-6.56.44-6.56,0,0-.69,2.42-6.9,3.9"/>
          <path class="cls-9" d="M300.93,53.42c-19.58,1.29-27.66,21.34-26.89,33.03,1.07,16.11,12.48,17.36,19.11,16.92,9.56-.63,18.43-5.24,20.67-9.51,1.41-2.68,1.31-10.71,1.31-10.71,0,0-7.94,10.6-19.02,11.21-7.65.42-8.93-5.63-9.39-11.35l29.47-7.33c1.74-21.56-8.64-22.69-15.26-22.25M305.17,70.14l-18.02,4.44c1.34-6.68,5.12-13.05,11.88-13.52,7.11-.49,6.14,9.08,6.14,9.08"/>
          <path class="cls-9" d="M356.41,50.69l.49-6.37s.51-3.23-4.92-2.87c-18.71,1.24-28.24,10.69-27.59,20.49.67,10.11,9.77,9.9,14.12,10.21,5.85.42,8.94.81,9.22,4.97.29,4.31-4.62,7.82-9.93,8.18-8.47.56-13.12-3.93-13.12-3.93l-.62,7.3s-.52,4.6,10.43,3.88c18.03-1.19,25.73-12.01,25.17-20.44-1.16-17.55-23.41-8.07-23.89-15.37-.44-6.68,13.07-9.34,20.65-6.05"/>
          <path class="cls-9" d="M127.12,114.02c-2.8-2.56-4.52-6.34-4.83-11.09-.36-5.43,1.14-10.08,3.63-13.82-.02-.38-.04-.79-.05-1.15-.25-5.6,1.76-9,1.76-9l-13.37,3.33c-1.22.3-2.21,1.17-2.69,2.33l-14.28,35.04s-6.97-18.02-8.85-24.1c-1.48-4.81-.24-6.97-.24-6.97l-15.22,3.74s-6.63,51.69-7.8,60.98c-.39,3.08.61,3.77.61,3.77l11.47-2.72c-.68-.43-1-2.2-.69-7.3.58-9.63,3.87-35.34,3.87-35.34l11.92,32c.27.72,1.03,1.13,1.78.95l3.43-.81,16.4-39.94s.76,25.38,1.2,34.21c.33,6.72,2.48,6.45,2.48,6.45l13.49-3.12s-2.76-2.55-3.02-7.74c-.27-5.24-.63-12.35-1-19.68"/>
          <path class="cls-9" d="M132.55,129.04c.75-16.72,19.48-7.59,23.09-15.1,1.17,17.74-16.4,8.97-23.09,15.1"/>
          <path class="cls-9" d="M146.82,90.25s.44.05.57-.73c.22-1.26.67-4.11.67-4.11,0,0,.26-2.36-4.7-2.03-7.07.47-17.05,7.76-16.29,19.22.56,8.48,6.31,10.76,12.05,10.38,5.2-.34,9.03-3.2,9.2-4.66.32-2.83.59-4.42.69-5.38.06-.61-.14-.84-.44-.94-.58,1.09-3.13,4.87-7.32,5.15-2.97.2-6.35-.79-6.69-6.06-.56-8.41,3.68-12.44,8.95-12.78,1.86-.12,2.92,1.08,3.32,1.94"/>
          <path class="cls-10" d="M323.72,24.11c4.91,2.94,6.86,9.39,4.02,14.64-2.6,4.79-8.48,6.98-8.93,14.16-4.1-3.82-4.85-9.82-2.12-14.8,2.77-5.07,7.88-7.63,7.04-14"/>
          <g class="cls-11">
            <g class="cls-17">
              <g class="cls-20">
                <rect class="cls-8" x="312.93" y="23.59" width="18.59" height="29.84" transform="translate(-1.84 21.33) rotate(-3.78)"/>
              </g>
            </g>
          </g>
          <path class="cls-10" d="M404.84,32.09c.01,2.76-1.71,4.81-4.77,4.82-3.02.02-4.93-2.01-4.94-4.77-.01-2.67,1.87-4.81,4.89-4.82,3.06-.01,4.81,2.03,4.82,4.77M400.06,35.64c2.12-.01,3.36-1.4,3.35-3.54-.01-2.13-1.27-3.5-3.38-3.49-2.09.01-3.46,1.48-3.45,3.53.01,2.1,1.4,3.51,3.49,3.5M401.19,32.86c1.55-.44,1.37-3.07-.9-3.06-.78,0-1.41,0-2.18.01l.02,4.76h1.35s0-1.43,0-1.43h.55s.79,1.41.79,1.41h1.46s-1.1-1.7-1.1-1.7ZM400.35,30.97c.66,0,.68,1.06.02,1.06h-.92s0-1.06,0-1.06h.91Z"/>
        </g>
      </g>
    </g>
  </g>
</svg>