<?xml version="1.0" encoding="UTF-8"?>
<svg id="Layer_2" data-name="Layer 2" xmlns="http://www.w3.org/2000/svg" viewBox="0 0 31.91 33.95">
  <defs>
    <style>
      .cls-1, .cls-2, .cls-3, .cls-4, .cls-5 {
        stroke-width: 0px;
      }

      .cls-1, .cls-4 {
        fill: #e8392e;
      }

      .cls-2 {
        fill: #a1241a;
      }

      .cls-2, .cls-3, .cls-4 {
        fill-rule: evenodd;
      }

      .cls-3, .cls-5 {
        fill: #ffde17;
      }
    </style>
  </defs>
  <g id="Layer_1-2" data-name="Layer 1">
    <g>
      <g>
        <path class="cls-1" d="M.9,26.01c0-1.62,0-1.91-.02-2.24-.02-.35-.11-.52-.45-.59-.08-.02-.26-.03-.35-.03-.04,0-.08-.02-.08-.06,0-.06.05-.08.17-.08.47,0,1.12.03,1.17.03.11,0,.9-.03,1.23-.03.65,0,1.35.06,1.9.46.26.19.72.7.72,1.41,0,.77-.32,1.54-1.26,2.4.85,1.09,1.56,2.02,2.16,2.66.56.59,1.01.71,1.27.75.2.03.34.03.41.03.05,0,.09.03.09.06,0,.06-.06.08-.25.08h-.74c-.58,0-.84-.05-1.11-.2-.45-.24-.81-.75-1.4-1.53-.44-.57-.92-1.27-1.13-1.54-.04-.04-.07-.06-.14-.06l-1.28-.02c-.05,0-.07.03-.07.08v.25c0,1,0,1.82.05,2.26.03.3.09.53.41.57.14.02.37.04.47.04.06,0,.08.03.08.06,0,.05-.05.08-.17.08-.57,0-1.23-.03-1.28-.03,0,0-.66.03-.98.03-.11,0-.17-.02-.17-.08,0-.03.02-.06.08-.06.09,0,.22-.02.31-.04.21-.04.26-.27.3-.57.05-.44.05-1.26.05-2.26v-1.83ZM1.73,26.91c0,.05.02.09.07.12.16.09.63.17,1.09.17.25,0,.54-.03.78-.2.36-.25.63-.81.63-1.6,0-1.3-.69-2.08-1.8-2.08-.31,0-.59.03-.69.06-.05.02-.08.06-.08.12v3.4Z"/>
        <path class="cls-1" d="M10.26,22.85c2.34,0,4.08,1.47,4.08,3.9s-1.64,4.25-4.15,4.25c-2.85,0-4.03-2.21-4.03-4.08,0-1.68,1.23-4.06,4.09-4.06ZM10.48,30.6c.93,0,2.87-.54,2.87-3.56,0-2.49-1.52-3.83-3.16-3.83-1.73,0-3.03,1.14-3.03,3.42,0,2.42,1.45,3.98,3.33,3.98Z"/>
        <path class="cls-1" d="M16.56,28.16c0-.56-.1-.79-.24-1.09-.07-.17-1.47-2.45-1.83-2.99-.26-.39-.52-.64-.71-.77-.16-.1-.35-.17-.45-.17-.05,0-.1-.02-.1-.07,0-.04.04-.07.13-.07.2,0,.98.03,1.03.03.07,0,.47-.03.87-.03.11,0,.13.03.13.07s-.06.05-.16.09c-.08.04-.14.1-.14.19,0,.12.05.25.14.41.17.3,1.72,2.98,1.91,3.28.2-.44,1.52-2.71,1.73-3.05.13-.22.18-.4.18-.53,0-.15-.04-.26-.17-.29-.09-.03-.16-.05-.16-.1,0-.04.06-.06.17-.06.27,0,.6.03.69.03.06,0,.81-.03,1.01-.03.07,0,.14.02.14.06,0,.05-.05.08-.14.08-.11,0-.31.04-.48.15-.21.13-.32.25-.55.53-.34.42-1.8,2.86-1.98,3.3-.16.37-.16.7-.16,1.04v.89c0,.17,0,.6.03,1.04.02.3.11.53.43.57.14.02.37.04.47.04.06,0,.08.03.08.06,0,.05-.05.08-.17.08-.57,0-1.23-.03-1.28-.03s-.71.03-1.02.03c-.11,0-.17-.02-.17-.08,0-.03.02-.06.08-.06.09,0,.22-.02.31-.04.21-.04.3-.27.32-.57.03-.44.03-.87.03-1.04v-.89Z"/>
        <path class="cls-1" d="M22.46,23.26c.12-.34.17-.4.23-.4s.1.05.23.37c.16.39,1.79,4.69,2.42,6.27.38.92.68,1.09.9,1.15.15.05.31.06.41.06.06,0,.11.01.11.06,0,.06-.1.08-.21.08-.16,0-.92,0-1.63-.02-.2-.01-.31-.01-.31-.07,0-.04.03-.06.07-.07.06-.02.13-.11.06-.28l-.97-2.56s-.04-.06-.09-.06h-2.23c-.05,0-.08.03-.1.08l-.62,1.84c-.09.26-.14.51-.14.7,0,.21.22.3.39.3h.1c.07,0,.1.02.1.06,0,.06-.06.08-.16.08-.25,0-.7-.03-.81-.03s-.69.03-1.17.03c-.14,0-.2-.02-.2-.08,0-.04.04-.06.09-.06.07,0,.22-.01.3-.02.48-.06.69-.46.87-.98l2.36-6.45ZM23.54,27.41c.05,0,.05-.03.04-.07l-.99-2.81c-.05-.16-.1-.16-.16,0l-.91,2.81c-.02.05,0,.07.03.07h1.98Z"/>
        <path class="cls-1" d="M28.75,27.86c0,1.53.04,2.19.23,2.38.17.17.44.24,1.25.24.55,0,1.01-.01,1.26-.31.14-.17.24-.43.27-.62.01-.08.03-.13.09-.13.05,0,.06.04.06.16s-.07.74-.16,1.04c-.07.24-.1.28-.65.28-.75,0-1.29-.02-1.72-.03-.44-.02-.76-.03-1.06-.03-.04,0-.22.01-.43.01-.21.01-.44.02-.59.02-.11,0-.17-.02-.17-.08,0-.03.02-.06.08-.06.09,0,.22-.02.31-.04.21-.04.26-.27.3-.57.05-.44.05-1.26.05-2.26v-1.83c0-1.62,0-1.91-.02-2.24-.02-.35-.1-.52-.45-.59-.08-.02-.26-.03-.35-.03-.04,0-.08-.02-.08-.06,0-.06.05-.08.17-.08.47,0,1.12.03,1.17.03s.81-.03,1.12-.03c.11,0,.17.02.17.08,0,.04-.04.06-.08.06-.07,0-.22.01-.34.03-.3.05-.38.23-.41.59-.02.33-.02.62-.02,2.24v1.85Z"/>
      </g>
      <g>
        <path class="cls-1" d="M7.26,33.65c-.29-.25-.36-.57-.36-.85,0-.19.07-.52.33-.78.18-.17.45-.3.9-.3.12,0,.29,0,.43.03.11.02.21.04.3.04.03,0,.04.01.04.03,0,.02,0,.06-.01.16,0,.09,0,.25,0,.29,0,.04-.02.06-.03.06-.02,0-.02-.02-.02-.06,0-.11-.05-.22-.13-.29-.1-.09-.32-.16-.58-.16-.38,0-.56.1-.66.2-.22.2-.27.46-.27.75,0,.55.43,1.03,1.07,1.03.22,0,.37-.02.49-.13.06-.06.1-.19.11-.24,0-.03,0-.04.03-.04.01,0,.03.02.03.04,0,.02-.04.27-.07.37-.01.05-.02.06-.07.08-.12.05-.34.06-.53.06-.44,0-.74-.1-.97-.31Z"/>
        <path class="cls-1" d="M9.67,32.58c0-.44,0-.52,0-.61,0-.1-.02-.15-.12-.16-.02,0-.07,0-.1,0,0,0-.02-.01-.02-.02,0-.02.01-.02.05-.02.13,0,.33,0,.34,0,.02,0,.64,0,.71,0,.06,0,.11-.01.13-.02.01,0,.03-.01.04-.01.01,0,.01.01.01.03,0,.02-.02.05-.02.13,0,.03,0,.15-.02.19,0,.01-.01.03-.03.03-.02,0-.02-.01-.02-.04,0-.02,0-.07-.02-.1-.02-.05-.05-.07-.21-.09-.05,0-.39-.01-.43-.01-.01,0-.02.01-.02.03v.78s0,.03.02.03c.04,0,.43,0,.49,0,.07,0,.11-.01.15-.04.02-.02.03-.04.04-.04,0,0,.02,0,.02.02s-.02.06-.03.16c0,.06-.01.16-.01.19,0,.02,0,.05-.03.05-.01,0-.02-.01-.02-.03,0-.03,0-.06-.01-.09-.01-.04-.04-.07-.15-.09-.08-.01-.4-.01-.45-.01-.02,0-.02,0-.02.02v.24c0,.1,0,.43,0,.49,0,.19.06.23.35.23.08,0,.22,0,.3-.03.08-.03.12-.08.13-.2,0-.03.01-.04.03-.04.01,0,.02.02.02.04s-.02.21-.04.28c-.02.07-.05.07-.17.07-.22,0-.39,0-.51-.01-.12,0-.2,0-.25,0,0,0-.06,0-.13,0-.06,0-.12,0-.17,0-.03,0-.05,0-.05-.02,0,0,0-.02.02-.02.03,0,.06,0,.09-.01.06,0,.06-.07.08-.15.02-.12.02-.34.02-.62v-.5Z"/>
        <path class="cls-1" d="M11.42,32.58c0-.44,0-.52,0-.61,0-.1-.02-.15-.12-.16-.02,0-.07,0-.1,0,0,0-.02-.01-.02-.02,0-.02.01-.02.05-.02.13,0,.33,0,.35,0,.03,0,.28,0,.37,0,.19,0,.4.02.55.12.07.05.21.19.21.39,0,.21-.09.42-.36.65.24.3.45.56.62.74.16.16.26.19.33.2.06,0,.09,0,.1,0,.02,0,.03.01.03.02,0,.02-.02.02-.07.02h-.18c-.17,0-.24-.02-.32-.06-.13-.07-.23-.21-.4-.42-.12-.15-.26-.34-.32-.42-.01-.01-.02-.02-.04-.02h-.38s-.02,0-.02.02v.07c0,.27,0,.5.01.61.01.08.03.14.12.15.04,0,.1.01.13.01.02,0,.02.01.02.02,0,.02-.01.02-.05.02-.16,0-.35,0-.36,0,0,0-.2,0-.29,0-.03,0-.05,0-.05-.02,0,0,0-.02.02-.02.03,0,.06,0,.09-.01.06-.01.06-.07.08-.15.02-.12.02-.34.02-.62v-.5ZM11.68,32.82s0,.03.02.04c.04.02.19.04.33.04.07,0,.15,0,.22-.05.1-.07.18-.22.18-.44,0-.36-.19-.56-.51-.56-.09,0-.18,0-.21.02-.01,0-.02.02-.02.03v.92Z"/>
        <path class="cls-1" d="M14.76,31.81c.04-.09.05-.11.07-.11.03,0,.04.04.07.11.05.12.53,1.3.71,1.73.11.25.19.29.25.31.04.01.09.02.12.02.02,0,.04,0,.04.02,0,.02-.03.02-.07.02-.04,0-.26,0-.47,0-.06,0-.1,0-.1-.02,0-.01,0-.01.02-.02.02,0,.05-.03.03-.08l-.27-.65s0-.02-.03-.02h-.68s-.02,0-.03.02l-.17.46c-.03.07-.04.14-.04.19,0,.06.05.08.1.08h.03s.03.01.03.02c0,.02-.02.02-.04.02-.07,0-.23,0-.27,0-.03,0-.18,0-.3,0-.04,0-.06,0-.06-.02,0-.01.01-.02.03-.02.02,0,.06,0,.09,0,.13-.02.19-.12.25-.26l.69-1.79ZM15.09,33s.01,0,.01-.02l-.29-.78s-.03-.04-.05,0l-.28.78s0,.02,0,.02h.6Z"/>
        <path class="cls-1" d="M18.79,33.55c.01.1.03.25.15.3.08.03.16.03.19.03.01,0,.02,0,.02.02,0,.02-.03.03-.06.03-.07,0-.4,0-.5-.02-.07,0-.08-.02-.08-.03,0,0,0-.02.02-.02.02,0,.02-.05.01-.1l-.14-1.45h0l-.71,1.46c-.06.12-.08.15-.1.15-.03,0-.05-.03-.1-.13-.08-.14-.27-.51-.35-.66-.09-.18-.33-.66-.38-.78h-.01l-.11,1.29s0,.1,0,.14c0,.04.03.07.07.08.05.01.09.02.12.02.01,0,.02.01.02.02,0,.02-.02.03-.05.03-.11,0-.25,0-.27,0-.03,0-.17,0-.25,0-.03,0-.05,0-.05-.03,0-.01.01-.02.03-.02.02,0,.04,0,.09,0,.1-.02.1-.12.11-.23l.21-1.86s.02-.05.03-.05c.02,0,.04,0,.06.04l.89,1.77.86-1.77s.03-.05.05-.05.04.02.04.08l.2,1.75Z"/>
        <path class="cls-1" d="M19.94,33.09c0,.28,0,.5.01.62,0,.08.02.14.11.15.04,0,.11.01.13.01.02,0,.02.01.02.02,0,.02-.01.02-.05.02-.17,0-.35,0-.37,0-.02,0-.2,0-.29,0-.03,0-.05,0-.05-.02,0,0,0-.02.02-.02.03,0,.06,0,.09-.01.06-.01.07-.07.08-.15.01-.12.02-.34.02-.62v-.5c0-.44,0-.52,0-.61,0-.1-.03-.14-.09-.16-.03,0-.07-.01-.09-.01-.01,0-.02-.01-.02-.02,0-.02.01-.02.05-.02.1,0,.28,0,.3,0,.01,0,.2,0,.3,0,.03,0,.05,0,.05.02,0,0-.01.02-.02.02-.02,0-.04,0-.07,0-.08.02-.1.06-.1.16,0,.09,0,.17,0,.61v.5Z"/>
        <path class="cls-1" d="M20.85,33.65c-.29-.25-.36-.57-.36-.85,0-.19.07-.52.33-.78.18-.17.45-.3.9-.3.12,0,.29,0,.43.03.11.02.2.04.3.04.03,0,.04.01.04.03,0,.02,0,.06-.01.16,0,.09,0,.25,0,.29,0,.04-.02.06-.03.06-.02,0-.02-.02-.02-.06,0-.11-.05-.22-.13-.29-.1-.09-.32-.16-.58-.16-.38,0-.56.1-.67.2-.22.2-.27.46-.27.75,0,.55.43,1.03,1.07,1.03.22,0,.37-.02.49-.13.06-.06.1-.19.11-.24,0-.03.01-.04.03-.04.01,0,.03.02.03.04,0,.02-.04.27-.07.37-.02.05-.02.06-.07.08-.12.05-.34.06-.53.06-.44,0-.74-.1-.97-.31Z"/>
        <path class="cls-1" d="M23.75,31.81c.04-.09.05-.11.07-.11.03,0,.04.04.07.11.05.12.53,1.3.71,1.73.11.25.19.29.25.31.04.01.09.02.12.02.02,0,.04,0,.04.02,0,.02-.03.02-.07.02-.04,0-.26,0-.47,0-.06,0-.1,0-.1-.02,0-.01,0-.01.02-.02.02,0,.05-.03.03-.08l-.27-.65s0-.02-.03-.02h-.68s-.02,0-.03.02l-.17.46c-.03.07-.04.14-.04.19,0,.06.05.08.1.08h.03s.03.01.03.02c0,.02-.02.02-.04.02-.07,0-.23,0-.27,0-.03,0-.18,0-.3,0-.04,0-.06,0-.06-.02,0-.01.01-.02.03-.02.02,0,.06,0,.09,0,.13-.02.19-.12.25-.26l.7-1.79ZM24.08,33s.01,0,0-.02l-.29-.78s-.03-.04-.05,0l-.28.78s0,.02.01.02h.6Z"/>
      </g>
      <path class="cls-2" d="M25.96,10c0,5.53-4.48,10.01-10.01,10.01S5.95,15.53,5.95,10,10.43,0,15.95,0s10.01,4.48,10.01,10Z"/>
      <path class="cls-4" d="M25.38,10c0,5.21-4.22,9.43-9.42,9.43S6.53,15.21,6.53,10,10.75.58,15.95.58s9.42,4.22,9.42,9.42Z"/>
      <path class="cls-2" d="M25.96,10c0,5.53-4.48,10.01-10.01,10.01S5.95,15.53,5.95,10,10.43,0,15.95,0s10.01,4.48,10.01,10Z"/>
      <path class="cls-4" d="M25.38,10c0,5.21-4.22,9.43-9.42,9.43S6.53,15.21,6.53,10,10.75.58,15.95.58s9.42,4.22,9.42,9.42Z"/>
      <g>
        <path class="cls-5" d="M16.22,7.37c-.06-.07-.15-.11-.24-.12-.19-.01-.36.13-.37.32,0,.09.02.18.09.25.06.07.15.11.24.12h.03c.18,0,.33-.14.34-.32,0-.09-.02-.18-.08-.25Z"/>
        <path class="cls-5" d="M16.22,6.59c-.06-.07-.15-.11-.24-.12-.19-.01-.36.13-.37.32,0,.09.02.18.09.25.06.07.15.11.24.12h.03c.18,0,.33-.14.34-.32,0-.09-.02-.18-.08-.25Z"/>
        <path class="cls-5" d="M16.22,5.8c-.06-.07-.15-.11-.24-.12-.19-.01-.36.13-.37.32,0,.09.02.18.09.25.06.07.15.11.24.12,0,0,.02,0,.02,0,.18,0,.33-.14.35-.32,0-.09-.02-.18-.08-.25Z"/>
      </g>
      <rect class="cls-5" x="10.4" y="14.51" width="11.11" height=".25"/>
      <path class="cls-5" d="M16.22,7.37c-.06-.07-.15-.11-.24-.12-.19-.01-.36.13-.37.32,0,.09.02.18.09.25.06.07.15.11.24.12h.03c.18,0,.33-.14.34-.32,0-.09-.02-.18-.08-.25Z"/>
      <path class="cls-5" d="M16.22,6.59c-.06-.07-.15-.11-.24-.12-.19-.01-.36.13-.37.32,0,.09.02.18.09.25.06.07.15.11.24.12h.03c.18,0,.33-.14.34-.32,0-.09-.02-.18-.08-.25Z"/>
      <path class="cls-5" d="M16.22,5.8c-.06-.07-.15-.11-.24-.12-.19-.01-.36.13-.37.32,0,.09.02.18.09.25.06.07.15.11.24.12,0,0,.02,0,.02,0,.18,0,.33-.14.35-.32,0-.09-.02-.18-.08-.25Z"/>
      <rect class="cls-5" x="10.4" y="13.96" width="11.11" height=".48"/>
      <path class="cls-3" d="M23.07,8.51c-.22-.07-.39-.12-.53-.16,0,0,0,0,0,0,0-1.83-2.35-3.31-5.25-3.31-.07,0-.12.06-.12.12,0,.35-.29.64-.64.64-.07,0-.12.05-.12.12v2.16c0,.17-.26.34-.46.34s-.46-.17-.46-.34v-2.16c0-.07-.05-.12-.12-.12-.36,0-.64-.29-.64-.64,0-.06-.05-.12-.12-.12-2.89,0-5.25,1.49-5.25,3.31,0,0,0,0,0,0-.14.04-.32.1-.53.16,0,0,0,.26,1.11,3.76l-.43.43.79.79h0s.1.32.1.32h11.11l.1-.34.78-.78-.42-.42c1.11-3.51,1.11-3.76,1.11-3.76ZM10.47,13.1l-.4-.41.4-.4.4.4-.4.41ZM12.85,13.1c-.22,0-.4-.18-.4-.41s.18-.4.4-.4.41.18.41.4-.18.41-.41.41ZM16,13.31l-.62-.62.62-.62.62.62-.62.62ZM19.06,13.1c-.22,0-.4-.18-.4-.41s.18-.4.4-.4.4.18.4.4-.18.41-.4.41ZM19.58,11.25h.16c.1,0,.17-.08.17-.17,0-.09-.08-.16-.17-.16h-.37s0-.05,0-.05c.07-.11.17-.24.32-.26.09-.01.19.03.3.12.05.04.07.05.09.05.02,0,.03-.02.03-.05,0-.09-.39-.51-.54-.5h0c-.09.01-.18.18-.25.35h-.13l.38-.84-.47-.73-.5.73.4.84h-.12c-.07-.16-.17-.31-.26-.3,0,0,0,0,0,0-.15.02-.54.49-.53.57v.02s.02.02.02.02h.02s.03-.01.08-.06c.09-.09.18-.14.27-.15.17-.02.28.12.36.24v.04s-.39,0-.39,0c-.09,0-.17.08-.17.17,0,.09.08.16.18.16h.16c-.03.39-.63.78-.97.78-.78,0-1.16-.44-1.25-.86l.45-.78-.02-.03s0,0,.01,0h-.01l-.84-1.07-.82,1.07h-.01s0,0,.01,0l-.02.03.45.8c-.1.42-.48.83-1.24.83-.34,0-.94-.39-.97-.78h.16c.09,0,.17-.07.18-.16,0-.09-.07-.17-.17-.17h-.39s0-.04,0-.04c.08-.11.19-.26.36-.24.08.01.17.06.27.15.05.05.07.06.08.06h.01s.02-.02.02-.02v-.02c0-.08-.39-.55-.53-.57h0c-.09,0-.19.14-.26.3h-.12l.4-.84-.5-.73-.47.73.38.84h-.13c-.07-.17-.16-.33-.25-.35h0c-.15,0-.54.41-.54.5,0,.02.01.04.03.05.02,0,.03,0,.09-.05.11-.09.21-.13.3-.12.14.02.25.15.32.26v.06s-.37,0-.37,0c-.09,0-.17.07-.17.16,0,.09.07.16.17.17h.16c-.01.12-.13.81-.9.81-.96,0-1.67-1.64-.92-1.67.21,0,.59.2.67.29l-.35-1.62-.45.65c-.13.16-.62.11-.67-.61,0-.04,0-.64.26-.95l-.37.11c.06-1.64,2.22-2.97,4.89-3,.05.39.36.7.76.76v2.05c0,.33.38.58.7.58s.7-.25.7-.58v-2.05c.39-.05.7-.36.76-.76,2.67.04,4.83,1.36,4.89,3l-.37-.11c.26.31.27.91.26.95-.05.71-.53.77-.67.61l-.45-.65-.35,1.62c.08-.09.45-.3.67-.29.75.03.04,1.67-.92,1.67-.77,0-.88-.69-.9-.81ZM21.43,13.11l-.42-.42.42-.42.42.42-.42.42Z"/>
      <rect class="cls-5" x="10.4" y="14.51" width="11.11" height=".25"/>
      <path class="cls-5" d="M15.95,3.63c-.53,0-.97.43-.97.97s.43.96.97.96.96-.43.96-.96-.43-.97-.96-.97ZM15.95,3.74c.38,0,.7.25.81.59h-1.63c.11-.34.43-.59.81-.59ZM16.14,4.61c0,.1-.08.18-.19.18s-.19-.08-.19-.18.08-.19.19-.19.19.08.19.19ZM15.95,5.46c-.38,0-.7-.25-.81-.59h1.63c-.12.34-.43.59-.81.59Z"/>
    </g>
  </g>
</svg>