<?xml version="1.0" encoding="UTF-8"?>
<svg id="Layer_2" data-name="Layer 2" xmlns="http://www.w3.org/2000/svg" viewBox="0 0 56.69 36.02">
  <defs>
    <style>
      .cls-1 {
        fill: #f59f1d;
      }

      .cls-1, .cls-2 {
        stroke-width: 0px;
      }

      .cls-2 {
        fill: #00539b;
      }
    </style>
  </defs>
  <g id="LOGO">
    <g>
      <path class="cls-2" d="M48.51,25.39c-.7-1.25-2.05-2.08-4.01-2.47h-.02s-.02,0-.02,0c-.4-.06-1.32-.33-1.62-.8-.07-.11-.14-.28-.05-.59.02-.05.21-.47.92-.47.46,0,1.03.17,1.7.49l.72.35,1.78-4.22-.76-.27c-.07-.02-1.62-.56-3.42-.56-1.96,0-3.48.65-4.44,1.86.34-5.26.38-7.44.38-7.48v-.63s-6.03-1.17-6.03-1.17l.05.97c.17,3.28.24,7.26.27,9.58-.56-.16-1.14-.23-1.73-.23-2.1,0-3.97,1.01-5.15,2.57l.75-5.66-.7-.04c1.31-.63,2.21-1.97,2.21-3.52,0-2.15-1.75-3.9-3.9-3.9-1.75,0-3.23,1.15-3.72,2.74l-4.12-3.12-4,7.69.23-6.09-6.31.79,1.27,23.12,4.74-.43.06-8.83.11-.17,5.13,11.11,5.65-2.05-1.27-2.39,2.58.35.44-3.32c.96,2.37,3.28,4.04,5.98,4.04.56,0,1.11-.07,1.65-.21-.01.52-.02.82-.02.82l-.02.64,4.19.89.08-.85c.09-.96.17-1.88.24-2.77l.58.22c.09.03,2.21.84,4.5.84,2.75,0,4.62-1.16,5.39-3.34.03-.07.65-1.83-.28-3.5ZM17.13,20.09l4.46-6.32c.19,1.1.84,2.04,1.74,2.62l-.92-.06-.64,12.51-4.64-8.76ZM32.12,28.55c-1.31,0-2.38-1.07-2.38-2.38s1.07-2.38,2.38-2.38,2.38,1.07,2.38,2.38-1.07,2.38-2.38,2.38ZM44.18,27.28c-.04.12-.28.59-1.22.59h0c-.65,0-1.47-.23-2.44-.67l-.74-.34-1.4,3.81c.2-2.38.38-4.51.52-6.41.86,1.29,2.42,2.11,4.63,2.46.14.02.53.15.64.33.02.02.05.08.01.23Z"/>
      <g>
        <polygon class="cls-1" points="12.72 11.14 7.99 11.73 9.18 33.35 12.45 33.06 12.51 24.69 13.51 23.23 18.91 34.92 23.09 33.4 15.93 19.88 21.12 12.54 17.54 9.82 12.4 19.7 12.72 11.14"/>
        <polygon class="cls-1" points="22.87 17.14 22.17 30.7 24.87 31.07 26.7 17.38 22.87 17.14"/>
        <path class="cls-1" d="M46.64,18.14s-6.68-2.34-7.89,2.92c0,0-1.13,4.02,4.63,4.92,0,0,1.6.26,1.26,1.52,0,0-.63,2.26-4.7.39l-1.03,2.79s7.2,2.76,8.91-2.05c0,0,1.45-3.94-3.73-4.97,0,0-2.86-.42-2.29-2.37,0,0,.63-1.92,3.68-.42l1.16-2.73Z"/>
        <path class="cls-1" d="M28.31,13.11c0,1.73-1.41,3.14-3.14,3.14s-3.14-1.41-3.14-3.14,1.41-3.14,3.14-3.14,3.14,1.41,3.14,3.14Z"/>
        <path class="cls-1" d="M34.1,10.53c.17,3.36.25,7.61.28,10.73-.76-.37-1.6-.58-2.5-.58-3.14,0-5.69,2.55-5.69,5.69s2.55,5.69,5.69,5.69c.87,0,1.69-.2,2.43-.54-.03,1.23-.05,1.94-.05,1.94l2.73.58c1.5-16.69,1.58-22.63,1.58-22.63l-4.47-.87ZM31.79,29.47c-1.73,0-3.14-1.41-3.14-3.14s1.41-3.14,3.14-3.14,3.14,1.41,3.14,3.14-1.41,3.14-3.14,3.14Z"/>
      </g>
      <g>
        <path class="cls-2" d="M7.26,2.56c.33-.73-.12-1.01-1.2-1.01h-1.79c-.39,0-.47-.03-.39-.22l.13-.28c.08-.18.19-.22.58-.22h2.35c.49,0,.69.06.95.16l.23-.99H3.45c-.89,0-1.59.41-1.94,1.19l-.5,1.12c-.39.83-.11,1.08.9,1.08h2.06c.39,0,.46.04.38.22l-.16.34c-.08.19-.18.22-.58.22H1.16c-.5,0-.7-.09-.91-.19l-.25,1.02h4.56c1.21,0,1.78-.44,2.14-1.22l.56-1.22Z"/>
        <path class="cls-2" d="M19.5,2.83c.58,0,.84.07,1.08.13l.5-1.09c-.3.06-.62.13-1.2.13h-1.8s.54-1.17.54-1.17h2.06c.59,0,.85.07,1.09.13l.23-.96h-5.74c.04.2.03.38-.19.86l-1.5,3.28c-.14.3-.25.48-.37.62-.15-.27-.27-.57-.34-.79l-.81-2.5,1.67-.98c.48-.28.74-.37,1.1-.49h-2.31c-.02.06-.03.13-.06.19-.08.17-.2.29-.6.54l-2.43,1.51.63-1.39c.22-.48.39-.66.6-.86h-2.95c.04.2.04.38-.18.86l-1.5,3.28c-.22.47-.38.66-.6.86h2.94c-.03-.2-.03-.39.18-.86l.35-.75.83-.51.51,2.12h8.57s.67-.96.67-.96c-.29.06-.61.13-1.2.13h-2.2l.62-1.34h1.8Z"/>
        <path class="cls-2" d="M27.08,3.79s-.8.19-1.8.19c0,0-.98,0-1.18,0-.26,0-.34-.07-.24-.32.1-.25,1.07-2.35,1.07-2.35.03-.08.16-.28.47-.28h1.86c.46,0,.88.16.88.16l.3-1.15h-.01s0-.03,0-.03h-3.98c-1.08,0-1.86.39-2.35,1.47l-.94,2.06c-.49,1.07-.07,1.47,1.01,1.47h4.09s.84-1.21.84-1.21Z"/>
        <path class="cls-2" d="M34.31,4.14l1.5-3.28c.21-.47.39-.66.6-.86h-2.94c.04.2.03.38-.18.86l-.52,1.14h-1.89s.52-1.14.52-1.14c.22-.48.38-.66.6-.86h-2.94c.04.2.03.38-.19.86l-1.5,3.28c-.22.47-.39.66-.6.86h2.95c-.03-.2-.03-.39.19-.86l.6-1.31h1.88s-.6,1.31-.6,1.31c-.22.47-.39.66-.6.86h2.94c-.04-.2-.03-.39.19-.86Z"/>
        <path class="cls-2" d="M39.61,4.17h-2.19s.61-1.34.61-1.34h1.8c.58,0,.84.07,1.08.13l.5-1.09c-.3.06-.62.13-1.2.13h-1.81l.54-1.17h2.06c.6,0,.85.07,1.09.13l.23-.96h-5.74c.03.2.03.38-.19.86l-1.5,3.28c-.22.47-.39.66-.6.86h5.84s.67-.96.67-.96c-.28.06-.61.13-1.2.13Z"/>
        <path class="cls-2" d="M47.78,2.83c.55-.03,1.05-.07,1.39-.8l.42-.92c.38-.84-.06-1.1-1.21-1.1h-5.45c.1.2.09.38-.13.86l-1.5,3.28c-.22.47-.38.66-.6.86h2.94c-.03-.2-.03-.39.18-.86l.6-1.31h.78s.21,2.17.21,2.17h2.83c-.14-.19-.14-.45-.2-.77l-.26-1.41ZM47.05,1.11l-.27.61c-.11.24-.22.28-.55.28h-1.43s.54-1.17.54-1.17h1.42c.32,0,.4.03.29.28Z"/>
        <path class="cls-2" d="M52.48,1.05c.09-.18.19-.22.59-.22h2.35c.49,0,.69.07.95.17l.33-.99h-4.79c-.89,0-1.58.41-1.94,1.19l-.5,1.12c-.39.83-.11,1.08.9,1.08h2.06c.39,0,.46.04.38.22l-.16.34c-.08.19-.18.22-.58.22h-2.44c-.49,0-.7-.09-.91-.19l-.24,1.02h4.56c1.22,0,1.78-.44,2.14-1.23l.56-1.22c.33-.73-.12-1.01-1.2-1.01h-1.79c-.39,0-.47-.03-.39-.22l.13-.28Z"/>
      </g>
    </g>
  </g>
</svg>