<?xml version="1.0" encoding="UTF-8"?>
<svg id="Layer_2" data-name="Layer 2" xmlns="http://www.w3.org/2000/svg" viewBox="0 0 56.96 32.49">
  <defs>
    <style>
      .cls-1 {
        fill: #00674e;
        stroke: #00674e;
        stroke-width: .27px;
      }

      .cls-2 {
        fill: #fddd00;
        stroke-width: 0px;
      }
    </style>
  </defs>
  <g id="Layer_1-2" data-name="Layer 1">
    <g>
      <path class="cls-1" d="M31.95,1.5c.56-.17.79-.25,1.4-.34.69-.08,1.36.17,1.87.43,2.18,1.28,3.31,2.59,3.72,4.73.81,4.15-3.67,8.37-10.03,8.64-.15-.02-.09-.09,0-.1,5.29-.58,8.91-4.18,8.14-8.11-.4-2.09-2.73-4.03-5.13-5.11l.02-.13"/>
      <path class="cls-2" d="M29.77,5.88c4.62,3.09,3.4,7.8-3.74,8.74-.11.02-.11.09,0,.11.7.03,1.4.03,2.12-.05,5.28-.54,8.9-4.02,8.13-7.83-.42-2.03-2.66-3.9-5.05-4.93-.16-.06-.28-.03-.46.03-1.02.4-4.39,1.86-.99,3.94"/>
      <path class="cls-2" d="M25.01,13.48c-.57.17-.81.25-1.41.35-.69.09-1.35-.17-1.86-.44-2.19-1.29-3.31-2.59-3.72-4.74-.81-4.15,3.64-8.39,9.98-8.66.15,0,.1.12,0,.13-5.27.58-8.88,4.18-8.11,8.12.4,2.09,2.71,4.03,5.11,5.1v.14"/>
      <path class="cls-1" d="M27.19,9.11c-4.61-3.09-3.4-7.8,3.73-8.74.11-.02.1-.1,0-.12-.68-.02-1.4,0-2.11.07-5.29.54-8.89,4.02-8.12,7.83.41,2.02,2.66,3.9,5.07,4.93.14.06.26.04.45-.03,1-.39,4.37-1.85.99-3.93"/>
      <path class="cls-1" d="M44.51,21.83h1.65c.37,0,.5.17.59.6l.33,2.25c.09.72.17,1.21.21,1.66h.03c.15-.44.28-.89.57-1.67l.91-2.38c.12-.31.34-.45.6-.45h1.54c.4,0,.47.22.23.75l-2,4.33c-1.03,2.09-2.03,3.41-2.98,4.3-.65.6-1.31.9-1.86,1.09-.42.15-.59-.06-.64-.24l-.39-1.51c-.04-.23.06-.31.24-.37.29-.1.59-.24.89-.43.48-.31.85-.68,1.07-1.07.05-.11.07-.19.03-.36l-1.3-5.99c-.06-.24.03-.51.31-.51"/>
      <path class="cls-1" d="M.97,26.57c.66.25,1.56.46,2.36.46.75,0,1.45-.32,1.46-.95.02-.51-.46-.81-1.39-1.28-1.05-.55-2.28-1.36-2.24-2.82.03-2.25,2.08-3.59,4.61-3.59.87,0,1.39.09,1.94.23.2.04.66.22.54.85l-.33,1.31c-.07.26-.31.23-.48.17-.49-.16-1.24-.32-1.89-.3-.98,0-1.5.46-1.51.92-.02.5.74.83,1.54,1.29,1.32.66,2.19,1.49,2.16,2.74-.04,2.58-2.31,3.69-4.72,3.69-1.05-.02-1.78-.16-2.43-.36-.26-.08-.5-.3-.45-.66l.35-1.5c.06-.22.26-.29.48-.19"/>
      <path class="cls-1" d="M51.55,27.08c.46.21,1.13.47,1.75.47.49,0,.71-.31.71-.54,0-.26-.23-.47-.86-.75-.83-.4-1.62-1-1.62-1.96,0-1.6,1.41-2.62,3.41-2.62.65,0,1.15.1,1.55.22.3.08.38.34.3.6l-.36,1.06c-.06.14-.16.17-.32.11-.32-.14-.75-.27-1.29-.27-.48,0-.82.19-.79.55.02.19.29.41.84.66.77.38,1.73.93,1.73,2.01,0,1.72-1.48,2.68-3.56,2.63-.54,0-1.52-.31-2-.59-.16-.1-.32-.27-.21-.61l.36-.93c.06-.12.21-.12.34-.05"/>
      <path class="cls-1" d="M18.42,29.13c-1.43.05-1.98-.55-1.82-1.47l1.01-5.32c.07-.34.3-.51.54-.51h1.46c.46,0,.47.36.43.65l-1.17,6.17c-.07.3-.21.45-.46.48"/>
      <path class="cls-1" d="M13.75,21.69c-.52,0-1.03.14-1.47.43-.28.17-.52.39-.73.66h-.03c.04-.85-.93-1.06-1.76-.99-.19.02-.3.21-.36.43l-1.54,8.33c-.18.93.39,1.53,1.79,1.48.28-.02.41-.18.45-.37l.57-2.67h.03c.25.16.74.3,1.24.3.12,0,.23,0,.34-.02,2.38-.18,3.85-2.37,3.85-4.79,0-1.54-.81-2.79-2.38-2.79M12.28,27.28c-.14.07-.29.11-.45.11-.33,0-.57-.12-.79-.33l.24-1.38c.16-.89.51-1.56,1-1.83.14-.08.29-.13.46-.13.55,0,.76.47.76.98,0,1.03-.51,2.23-1.22,2.57"/>
      <path class="cls-1" d="M21.82,21.79c.74-.04,1.87.09,1.76,1.18h.03c.7-.92,1.56-1.28,2.48-1.28,1.32,0,1.86.82,1.86,1.97,0,.32-.05.9-.13,1.25l-.75,3.88c-.03.19-.18.34-.44.36-1.42.06-1.97-.55-1.8-1.47l.44-2.5c.05-.23.07-.51.07-.75,0-.44-.13-.71-.55-.71-.6,0-1.26.81-1.55,2.3l-.49,2.56c-.1.36-.28.55-.61.55h-1.48c-.37,0-.44-.44-.37-.74l1.19-6.23c.06-.24.18-.35.36-.36"/>
      <path class="cls-1" d="M29.92,21.79c.74-.04,1.87.09,1.76,1.18h.02c.7-.92,1.56-1.28,2.47-1.28,1.33,0,1.88.82,1.88,1.97,0,.32-.07.9-.13,1.25l-.75,3.88c-.05.19-.18.34-.44.36-1.43.06-1.98-.55-1.81-1.47l.43-2.5c.05-.23.08-.51.08-.75,0-.44-.14-.71-.55-.71-.6,0-1.27.81-1.55,2.3l-.49,2.56c-.09.36-.29.55-.61.55h-1.48c-.4,0-.45-.44-.38-.74l1.18-6.23c.05-.24.18-.35.37-.36"/>
      <path class="cls-1" d="M40.26,26.45c2.2-.14,3.4-.91,3.4-2.47s-1.18-2.3-2.69-2.3c-.24,0-.5.02-.71.04-2.29.37-3.6,2.39-3.6,4.42s1.02,3.05,3.15,3.16h.45c.51,0,1.09-.1,1.63-.29.36-.11.57-.41.65-.75l.22-1c.03-.17-.15-.21-.35-.12-.56.18-1.24.32-1.78.34-.14,0-.27,0-.37-.01-.76-.09-1.15-.57-1.22-1,.44.02.83.02,1.22,0M40.26,23.63c.14-.04.28-.06.44-.06.47,0,.75.25.75.54v.03c0,.38-.33.61-1.18.71-.31.02-.72.04-1.2.04.09-.45.45-1.09,1.2-1.27"/>
      <path class="cls-2" d="M19.06,21.17c-.93,0-1.64-.64-1.64-1.67,0-1.14.93-1.92,1.99-1.92.99,0,1.7.65,1.7,1.66,0,1.24-.96,1.93-2.03,1.93"/>
    </g>
  </g>
</svg>