<?xml version="1.0" encoding="UTF-8"?>
<svg id="Layer_2" data-name="Layer 2" xmlns="http://www.w3.org/2000/svg" viewBox="0 0 39.27 16.92">
  <defs>
    <style>
      .cls-1, .cls-2 {
        fill: none;
      }

      .cls-1, .cls-3, .cls-4 {
        stroke-width: 0px;
      }

      .cls-2 {
        stroke: #000;
        stroke-miterlimit: 10;
        stroke-width: .5px;
      }

      .cls-3 {
        fill: #d62027;
      }

      .cls-3, .cls-4 {
        fill-rule: evenodd;
      }

      .cls-4 {
        fill: #000;
      }
    </style>
  </defs>
  <g id="Layer_1-2" data-name="Layer 1">
    <g>
      <polyline class="cls-4" points=".25 5.71 38.81 5.71 38.81 6.39 .25 6.39"/>
      <path class="cls-3" d="M32.38,13.89c-2.57,1.81-7.37,3.03-12.85,3.03s-10.28-1.22-12.85-3.03c3.33,1.03,7.87,1.66,12.85,1.66s9.52-.63,12.85-1.66"/>
      <path class="cls-4" d="M38.81,11.3v.53h-1.29c-.37,0-.66-.03-.88-.09-.43-.12-.75-.41-.95-.86-.15-.32-.22-.69-.22-1.1,0-.49.1-.91.3-1.28.17-.31.38-.52.63-.64.26-.12.62-.18,1.09-.18h1.33v.53h-1.29c-.28,0-.5.02-.64.07-.14.04-.26.12-.36.24-.11.13-.19.31-.26.54-.06.23-.09.48-.09.75,0,.51.12.9.36,1.17.11.12.24.21.39.26.15.05.37.07.66.07h1.24ZM32.48,11.83v-4.15h.66v4.15h-.66ZM27.29,9.54h1.19c.35,0,.58-.04.7-.12.16-.12.24-.3.24-.54,0-.28-.09-.47-.26-.58-.1-.06-.32-.09-.68-.09h-1.19v1.33ZM27.29,10.07v1.76h-.66v-4.15h1.89c.54,0,.93.07,1.14.22.14.1.26.23.34.4.08.16.12.34.12.53,0,.36-.11.64-.35.84-.13.11-.3.19-.51.25.28.12.47.27.57.44.1.17.17.45.19.84.02.25.03.4.04.45,0,.05.03.11.07.18h-.68s-.04-.09-.05-.13c0-.04-.02-.2-.05-.47-.04-.44-.16-.74-.36-.91-.2-.17-.55-.25-1.05-.25h-.66ZM22.4,8.2h-1.44v-.53h3.54v.53h-1.44v3.62h-.66v-3.62ZM19.07,11.3v.53h-1.29c-.37,0-.66-.03-.88-.09-.43-.12-.75-.41-.95-.86-.15-.32-.22-.69-.22-1.1,0-.49.1-.91.3-1.28.16-.31.38-.52.63-.64.25-.12.62-.18,1.09-.18h1.33v.53h-1.29c-.28,0-.49.02-.64.07-.14.04-.26.12-.36.24-.11.13-.19.31-.26.54-.06.23-.09.48-.09.75,0,.51.12.9.36,1.17.11.12.24.21.39.26.15.05.37.07.66.07h1.24ZM13.57,7.68v.53h-1.21c-.22,0-.4.02-.52.05-.12.03-.23.08-.33.16-.13.11-.24.24-.3.41-.07.17-.11.38-.12.65h2.48v.53h-2.48c0,.3.06.57.2.81.1.18.23.3.39.38.16.07.37.11.65.11h1.25v.53h-1.37c-.35,0-.63-.04-.85-.12-.39-.14-.68-.45-.86-.93-.1-.26-.15-.57-.15-.95,0-.5.08-.91.24-1.21.17-.34.4-.59.67-.73.27-.14.65-.21,1.14-.21h1.17ZM5.81,7.68h.66v2.41c0,.26.02.46.04.6.03.14.08.25.15.33.19.19.5.29.9.28h.89v.53h-1.02c-.32,0-.58-.03-.77-.09-.19-.06-.36-.17-.5-.32-.13-.13-.22-.29-.27-.48-.05-.19-.08-.44-.08-.77v-2.49ZM3.46,7.68v.53h-1.21c-.22,0-.4.02-.52.05-.12.03-.23.08-.33.16-.13.11-.24.24-.3.41-.07.17-.11.38-.12.65h2.48v.53H.98c0,.3.06.57.2.81.1.18.23.3.39.38.16.07.37.11.65.11h1.24v.53h-1.37c-.35,0-.63-.04-.85-.12-.39-.14-.68-.45-.86-.93-.1-.26-.15-.57-.15-.95,0-.5.08-.91.24-1.21.17-.34.4-.59.67-.73.27-.14.65-.21,1.14-.21h1.17Z"/>
      <path class="cls-1" d="M38.81,11.3v.53h-1.29c-.37,0-.66-.03-.88-.09-.43-.12-.75-.41-.95-.86-.15-.32-.22-.69-.22-1.1,0-.49.1-.91.3-1.28.17-.31.38-.52.63-.64.26-.12.62-.18,1.09-.18h1.33v.53h-1.29c-.28,0-.5.02-.64.07-.14.04-.26.12-.36.24-.11.13-.19.31-.26.54-.06.23-.09.48-.09.75,0,.51.12.9.36,1.17.11.12.24.21.39.26.15.05.37.07.66.07h1.24ZM32.48,11.83v-4.15h.66v4.15h-.66ZM27.29,9.54h1.19c.35,0,.58-.04.7-.12.16-.12.24-.3.24-.54,0-.28-.09-.47-.26-.58-.1-.06-.32-.09-.68-.09h-1.19v1.33ZM27.29,10.07v1.76h-.66v-4.15h1.89c.54,0,.93.07,1.14.22.14.1.26.23.34.4.08.16.12.34.12.53,0,.36-.11.64-.35.84-.13.11-.3.19-.51.25.28.12.47.27.57.44.1.17.17.45.19.84.02.25.03.4.04.45,0,.05.03.11.07.18h-.68s-.04-.09-.05-.13c0-.04-.02-.2-.05-.47-.04-.44-.16-.74-.36-.91-.2-.17-.55-.25-1.05-.25h-.66ZM22.4,8.2h-1.44v-.53h3.54v.53h-1.44v3.62h-.66v-3.62ZM19.07,11.3v.53h-1.29c-.37,0-.66-.03-.88-.09-.43-.12-.75-.41-.95-.86-.15-.32-.22-.69-.22-1.1,0-.49.1-.91.3-1.28.16-.31.38-.52.63-.64.25-.12.62-.18,1.09-.18h1.33v.53h-1.29c-.28,0-.49.02-.64.07-.14.04-.26.12-.36.24-.11.13-.19.31-.26.54-.06.23-.09.48-.09.75,0,.51.12.9.36,1.17.11.12.24.21.39.26.15.05.37.07.66.07h1.24ZM13.57,7.68v.53h-1.21c-.22,0-.4.02-.52.05-.12.03-.23.08-.33.16-.13.11-.24.24-.3.41-.07.17-.11.38-.12.65h2.48v.53h-2.48c0,.3.06.57.2.81.1.18.23.3.39.38.16.07.37.11.65.11h1.25v.53h-1.37c-.35,0-.63-.04-.85-.12-.39-.14-.68-.45-.86-.93-.1-.26-.15-.57-.15-.95,0-.5.08-.91.24-1.21.17-.34.4-.59.67-.73.27-.14.65-.21,1.14-.21h1.17ZM5.81,7.68h.66v2.41c0,.26.02.46.04.6.03.14.08.25.15.33.19.19.5.29.9.28h.89v.53h-1.02c-.32,0-.58-.03-.77-.09-.19-.06-.36-.17-.5-.32-.13-.13-.22-.29-.27-.48-.05-.19-.08-.44-.08-.77v-2.49ZM3.46,7.68v.53h-1.21c-.22,0-.4.02-.52.05-.12.03-.23.08-.33.16-.13.11-.24.24-.3.41-.07.17-.11.38-.12.65h2.48v.53H.98c0,.3.06.57.2.81.1.18.23.3.39.38.16.07.37.11.65.11h1.24v.53h-1.37c-.35,0-.63-.04-.85-.12-.39-.14-.68-.45-.86-.93-.1-.26-.15-.57-.15-.95,0-.5.08-.91.24-1.21.17-.34.4-.59.67-.73.27-.14.65-.21,1.14-.21h1.17Z"/>
      <path class="cls-4" d="M30.42.79v3.09h1.06c.47,0,.8-.14.99-.41.17-.25.26-.61.26-1.08,0-.54-.1-.95-.3-1.22-.1-.13-.22-.23-.37-.29-.15-.06-.36-.09-.62-.09h-1.01ZM29.76.26h1.59c.44,0,.76.03.97.09.38.12.68.39.89.81.15.29.22.67.22,1.14,0,.93-.25,1.55-.75,1.87-.15.1-.32.16-.49.2-.17.03-.43.05-.78.05h-1.65V.26ZM28.38.26v.53h-1.21c-.22,0-.4.02-.52.05-.12.03-.23.08-.33.16-.13.11-.24.24-.3.41-.07.16-.11.38-.12.65h2.48v.53h-2.48c0,.3.06.57.2.81.1.18.23.3.39.38.16.07.37.11.65.11h1.24v.53h-1.37c-.35,0-.63-.04-.85-.12-.39-.14-.68-.45-.86-.93-.1-.25-.15-.57-.15-.95,0-.5.08-.91.24-1.21.17-.34.4-.59.67-.73.27-.14.65-.21,1.14-.21h1.17ZM19.07.26l.75,3.47.85-3.47h.82l.83,3.47.76-3.47h.7l-1.06,4.15h-.84l-.82-3.37-.86,3.37h-.83l-1.03-4.15h.72ZM16.98.26v.53h-1.21c-.22,0-.4.02-.52.05-.12.03-.23.08-.33.16-.13.11-.24.24-.3.41-.07.16-.11.38-.12.65h2.48v.53h-2.48c0,.3.06.57.2.81.1.18.23.3.39.38.16.07.37.11.65.11h1.24v.53h-1.37c-.35,0-.63-.04-.85-.12-.39-.14-.67-.45-.86-.93-.1-.25-.15-.57-.15-.95,0-.5.08-.91.24-1.21.17-.34.4-.59.67-.73.27-.14.65-.21,1.14-.21h1.17ZM9.02,4.41v-.53h1.79c.28,0,.47-.03.59-.1.18-.11.27-.29.27-.54,0-.32-.12-.52-.36-.6-.11-.03-.32-.05-.63-.05h-.35c-.48,0-.82-.06-1.03-.2-.3-.19-.44-.48-.44-.89,0-.26.07-.5.21-.7.13-.2.3-.34.51-.42.21-.08.51-.12.89-.12h1.71v.53h-1.71c-.18,0-.32,0-.41.02-.1.02-.18.05-.25.09-.16.1-.24.27-.24.5,0,.21.07.36.21.45.14.09.37.13.69.13h.25c.35,0,.62.02.79.05.17.03.32.09.43.18.13.1.24.24.32.42.07.17.11.37.11.58,0,.49-.19.83-.57,1.03-.12.06-.26.1-.41.12-.15.02-.38.03-.68.03h-1.71ZM4.84.26h.66v2.41c0,.26.02.46.04.6.03.14.08.25.15.33.19.19.5.29.9.28h.89v.53h-1.02c-.32,0-.58-.03-.77-.09-.19-.06-.36-.17-.5-.32-.13-.13-.22-.29-.27-.48-.05-.19-.08-.44-.08-.77V.26ZM3.46.26v.53h-1.21c-.22,0-.39.02-.52.05-.12.03-.23.08-.33.16-.13.11-.24.24-.3.41-.07.16-.11.38-.12.65h2.48v.53H.98c0,.3.06.57.2.81.1.18.23.3.39.38.16.07.37.11.65.11h1.25v.53h-1.37c-.35,0-.63-.04-.85-.12-.39-.14-.67-.45-.86-.93-.1-.25-.15-.57-.15-.95,0-.5.08-.91.24-1.21.17-.34.4-.59.67-.73.27-.14.65-.21,1.14-.21h1.17ZM36.47,2.74l-1.66-2.48h.77l1.24,1.96,1.21-1.96h.77l-1.66,2.48v1.67h-.66v-1.67Z"/>
      <path class="cls-2" d="M30.42.79v3.09h1.06c.47,0,.8-.14.99-.41.17-.25.26-.61.26-1.08,0-.54-.1-.95-.3-1.22-.1-.13-.22-.23-.37-.29-.15-.06-.36-.09-.62-.09h-1.01ZM29.76.26h1.59c.44,0,.76.03.97.09.38.12.68.39.89.81.15.29.22.67.22,1.14,0,.93-.25,1.55-.75,1.87-.15.1-.32.16-.49.2-.17.03-.43.05-.78.05h-1.65V.26ZM28.38.26v.53h-1.21c-.22,0-.4.02-.52.05-.12.03-.23.08-.33.16-.13.11-.24.24-.3.41-.07.16-.11.38-.12.65h2.48v.53h-2.48c0,.3.06.57.2.81.1.18.23.3.39.38.16.07.37.11.65.11h1.24v.53h-1.37c-.35,0-.63-.04-.85-.12-.39-.14-.68-.45-.86-.93-.1-.25-.15-.57-.15-.95,0-.5.08-.91.24-1.21.17-.34.4-.59.67-.73.27-.14.65-.21,1.14-.21h1.17ZM19.07.26l.75,3.47.85-3.47h.82l.83,3.47.76-3.47h.7l-1.06,4.15h-.84l-.82-3.37-.86,3.37h-.83l-1.03-4.15h.72ZM16.98.26v.53h-1.21c-.22,0-.4.02-.52.05-.12.03-.23.08-.33.16-.13.11-.24.24-.3.41-.07.16-.11.38-.12.65h2.48v.53h-2.48c0,.3.06.57.2.81.1.18.23.3.39.38.16.07.37.11.65.11h1.24v.53h-1.37c-.35,0-.63-.04-.85-.12-.39-.14-.67-.45-.86-.93-.1-.25-.15-.57-.15-.95,0-.5.08-.91.24-1.21.17-.34.4-.59.67-.73.27-.14.65-.21,1.14-.21h1.17ZM9.02,4.41v-.53h1.79c.28,0,.47-.03.59-.1.18-.11.27-.29.27-.54,0-.32-.12-.52-.36-.6-.11-.03-.32-.05-.63-.05h-.35c-.48,0-.82-.06-1.03-.2-.3-.19-.44-.48-.44-.89,0-.26.07-.5.21-.7.13-.2.3-.34.51-.42.21-.08.51-.12.89-.12h1.71v.53h-1.71c-.18,0-.32,0-.41.02-.1.02-.18.05-.25.09-.16.1-.24.27-.24.5,0,.21.07.36.21.45.14.09.37.13.69.13h.25c.35,0,.62.02.79.05.17.03.32.09.43.18.13.1.24.24.32.42.07.17.11.37.11.58,0,.49-.19.83-.57,1.03-.12.06-.26.1-.41.12-.15.02-.38.03-.68.03h-1.71ZM4.84.26h.66v2.41c0,.26.02.46.04.6.03.14.08.25.15.33.19.19.5.29.9.28h.89v.53h-1.02c-.32,0-.58-.03-.77-.09-.19-.06-.36-.17-.5-.32-.13-.13-.22-.29-.27-.48-.05-.19-.08-.44-.08-.77V.26ZM3.46.26v.53h-1.21c-.22,0-.39.02-.52.05-.12.03-.23.08-.33.16-.13.11-.24.24-.3.41-.07.16-.11.38-.12.65h2.48v.53H.98c0,.3.06.57.2.81.1.18.23.3.39.38.16.07.37.11.65.11h1.25v.53h-1.37c-.35,0-.63-.04-.85-.12-.39-.14-.67-.45-.86-.93-.1-.25-.15-.57-.15-.95,0-.5.08-.91.24-1.21.17-.34.4-.59.67-.73.27-.14.65-.21,1.14-.21h1.17ZM36.47,2.74l-1.66-2.48h.77l1.24,1.96,1.21-1.96h.77l-1.66,2.48v1.67h-.66v-1.67Z"/>
    </g>
  </g>
</svg>