<?xml version="1.0" encoding="UTF-8"?>
<svg id="Layer_2" data-name="Layer 2" xmlns="http://www.w3.org/2000/svg" viewBox="0 0 42.04 6.75">
  <defs>
    <style>
      .cls-1 {
        fill: #0054d7;
        stroke-width: 0px;
      }
    </style>
  </defs>
  <g id="Layer_1-2" data-name="Layer 1">
    <g>
      <path class="cls-1" d="M4.79,2.7c-.02.07-.05.15-.07.22-.39,1.24-.79,2.49-1.18,3.73-.02.08-.06.1-.14.1-.43,0-.86,0-1.29,0-.07,0-.1-.02-.12-.09C1.34,4.46.68,2.27.02.07c0-.02-.01-.04-.02-.07.03,0,.06,0,.08,0C.57,0,1.06,0,1.56,0c.07,0,.09.02.11.08.41,1.33.83,2.66,1.24,3.99,0,.02.02.05.03.09.02-.04.03-.06.04-.08.33-1.07.66-2.13.98-3.2.08-.27.16-.53.24-.8.02-.06.04-.08.1-.08.35,0,.69,0,1.04,0,.06,0,.09.02.11.08.37,1.25.74,2.5,1.11,3.75.03.11.06.21.1.34.02-.05.03-.08.04-.1.41-1.33.83-2.65,1.24-3.98.02-.07.05-.09.12-.09.48,0,.96,0,1.44,0,.03,0,.05,0,.09,0,0,.03-.01.06-.02.08-.66,2.19-1.32,4.39-1.98,6.58-.02.06-.04.08-.11.08-.44,0-.87,0-1.31,0-.07,0-.09-.02-.11-.09-.41-1.29-.82-2.58-1.23-3.86-.01-.03-.02-.07-.03-.1h-.02Z"/>
      <path class="cls-1" d="M10.25,0h.09c.46,0,.92,0,1.38,0,.07,0,.09.02.09.09,0,1.19,0,2.37,0,3.56,0,.22.01.43.07.64.13.45.41.77.85.93.47.17.95.17,1.42,0,.51-.18.79-.56.88-1.09.02-.15.03-.3.03-.45,0-1.19,0-2.38,0-3.57V0s.06,0,.09,0c.47,0,.93,0,1.4,0,.06,0,.09.01.09.08,0,1.22,0,2.44,0,3.66,0,.49-.08.98-.29,1.43-.37.79-.99,1.27-1.83,1.46-.49.11-1,.13-1.5.09-.43-.03-.84-.11-1.22-.3-.77-.36-1.22-.98-1.43-1.79-.07-.29-.11-.58-.11-.88,0-1.22,0-2.44,0-3.67,0-.03,0-.05,0-.09Z"/>
      <path class="cls-1" d="M29.92,0h1.55s0,.07,0,.1c0,1.2,0,2.4,0,3.6,0,.22.02.43.09.64.12.38.35.66.71.82.53.23,1.08.24,1.61.03.48-.19.74-.58.81-1.08.02-.15.03-.31.03-.46,0-1.18,0-2.36,0-3.54,0-.03,0-.06,0-.1.03,0,.05,0,.07,0,.47,0,.94,0,1.41,0,.06,0,.08.02.08.08,0,1.3.01,2.6-.01,3.9-.02.8-.3,1.52-.92,2.07-.36.32-.79.5-1.25.6-.49.11-.98.12-1.48.08-.49-.04-.96-.15-1.39-.4-.65-.38-1.04-.95-1.22-1.67-.08-.3-.11-.6-.11-.91,0-1.22,0-2.43,0-3.65V0Z"/>
      <path class="cls-1" d="M27.34,1.33c-.05,0-.09,0-.13,0-1.14,0-2.28,0-3.42,0q-.12,0-.12-.12c0-.37,0-.74,0-1.1V0h5.6s0,.05,0,.08c0,.31,0,.61,0,.92,0,.04-.02.08-.04.11-1.21,1.42-2.43,2.83-3.64,4.24-.01.02-.03.04-.05.07h3.73s0,.06,0,.08c0,.39,0,.77,0,1.16,0,.07-.02.08-.09.08-1.84,0-3.68,0-5.52,0-.07,0-.09-.02-.09-.09,0-.3,0-.6,0-.89,0-.04.02-.08.04-.11,1.2-1.4,2.41-2.79,3.61-4.19.03-.04.06-.08.1-.13Z"/>
      <path class="cls-1" d="M22.95,0c0,.1,0,.19,0,.28,0,.24,0,.47,0,.71,0,.04-.02.09-.04.12-1.08,1.26-2.16,2.52-3.24,3.78-.13.15-.26.3-.39.46-.02.02-.03.04-.05.07h3.73v.1c0,.37,0,.74,0,1.11q0,.11-.11.11c-1.52,0-3.04,0-4.56,0-.31,0-.63,0-.94,0-.07,0-.09-.02-.09-.09,0-.3,0-.6,0-.9,0-.04.02-.08.04-.11,1.22-1.41,2.43-2.83,3.65-4.24.02-.02.04-.05.07-.08-.05,0-.09,0-.12,0-1.14,0-2.29,0-3.43,0q-.11,0-.11-.11c0-.37,0-.74,0-1.11V0h5.6Z"/>
      <path class="cls-1" d="M41.22,2.77c-.05.17-.09.32-.13.48-.06.22-.12.43-.17.65-.02.07-.05.09-.11.09-.71,0-1.41,0-2.12,0-.17,0-.14,0-.14.14,0,.84,0,1.69,0,2.53,0,.07-.02.1-.09.1-.46,0-.92,0-1.38,0-.07,0-.09-.02-.09-.09,0-2.19,0-4.38,0-6.57,0-.07.02-.09.09-.09,1.63,0,3.26,0,4.89,0,.02,0,.04,0,.08,0-.03.12-.06.24-.1.36-.08.29-.16.59-.24.88-.02.07-.05.09-.12.09-.98,0-1.95,0-2.93,0q-.12,0-.12.11c0,.41,0,.82,0,1.23,0,.07.02.09.09.09.83,0,1.65,0,2.48,0,.03,0,.06,0,.11,0Z"/>
    </g>
  </g>
</svg>