<svg width="32" height="32" viewBox="0 0 32 32" fill="none" xmlns="http://www.w3.org/2000/svg">
<g clip-path="url(#clip0_6169_4472)">
<path d="M19.4268 3.20728V4.54728H18.4801C17.3468 4.54728 16.4268 5.46727 16.4268 6.60061V8.11394C16.4268 9.24728 17.3468 10.1673 18.4801 10.1673H21.7068C22.1001 10.1673 22.4268 10.4939 22.4268 10.8873V12.4006C22.4268 12.8006 22.1068 13.1206 21.7068 13.1206H18.4801C18.0868 13.1206 17.7601 12.7939 17.7601 12.4006V11.6406H16.4268V12.4006C16.4268 13.5339 17.3468 14.4539 18.4801 14.4539H19.4268V15.7939H20.7601V14.4673H21.7068C22.8401 14.4673 23.7601 13.5473 23.7601 12.4139V10.9006C23.7601 9.76728 22.8401 8.84728 21.7068 8.84728H18.4801C18.0868 8.84728 17.7601 8.52061 17.7601 8.12727V6.60061C17.7601 6.20061 18.0801 5.88061 18.4801 5.88061H21.7068C22.1001 5.88061 22.4268 6.20727 22.4268 6.60061V7.36061H23.7601V6.60061C23.7601 5.46727 22.8401 4.54728 21.7068 4.54728H20.7601V3.20728H19.4268Z" fill="white"/>
<path d="M10.9268 9.50016C10.9268 14.5535 15.0401 18.6735 20.1001 18.6735C25.1601 18.6735 29.2668 14.5602 29.2668 9.50016C29.2668 4.44683 25.1534 0.333496 20.0934 0.333496C15.0334 0.333496 10.9268 4.44683 10.9268 9.50016ZM27.9334 9.50016C27.9334 13.8202 24.4201 17.3402 20.0934 17.3402C15.7668 17.3402 12.2534 13.8268 12.2534 9.50016C12.2534 5.18016 15.7668 1.66683 20.0934 1.66683C24.4201 1.66683 27.9334 5.18016 27.9334 9.50016Z" fill="white"/>
<path d="M0.333008 18.4667V31.6666H7.10634V29.9466H21.9797C22.733 29.9466 23.4397 29.6533 23.973 29.12L30.8397 22.2533C31.9397 21.1533 31.9397 19.3667 30.8397 18.2667C29.7397 17.1667 27.953 17.1667 26.853 18.2667L22.6997 22.4267C22.5063 21.06 21.3263 20.0067 19.9063 20.0067H16.5263C15.373 18.6267 13.7063 17.8467 11.8997 17.8467C10.093 17.8467 8.42634 18.6267 7.27301 20.0067H7.09967V18.4667H0.333008ZM5.77301 30.3333H1.66634V19.8H5.77301V20.0067V29.9533V30.3333ZM7.93301 21.34L8.13301 21.0733C9.03301 19.8733 10.4063 19.18 11.8997 19.18C13.393 19.18 14.7663 19.8733 15.6663 21.0733L15.8663 21.34H19.9063C20.7263 21.34 21.393 22.0067 21.393 22.8267C21.393 23.64 20.733 24.3067 19.9197 24.3133H12.8663V25.6467H19.9197H21.3597L27.793 19.2133C28.373 18.6333 29.313 18.6333 29.893 19.2133C30.473 19.7933 30.473 20.7333 29.893 21.3133L23.0263 28.18C22.7463 28.46 22.373 28.6133 21.973 28.6133H7.10634V21.34H7.93301Z" fill="white"/>
</g>
<defs>
<clipPath id="clip0_6169_4472">
<rect width="32" height="32" fill="white"/>
</clipPath>
</defs>
</svg>
