<svg width="32" height="32" viewBox="0 0 32 32" fill="none" xmlns="http://www.w3.org/2000/svg">
<path d="M20.8301 6.15859V7.78878H11.1697V6.15859C11.1697 5.67557 11.5923 5.25293 12.0753 5.25293C12.1357 5.25293 19.9848 5.25293 19.9848 5.25293C20.4074 5.25293 20.8301 5.67557 20.8301 6.15859ZM9.96214 11.0492V13.585H0.301758V11.9548C0.301758 11.4718 0.724399 11.0492 1.20742 11.0492H9.96214ZM31.698 14.2492V15.8793H22.0376V13.3435H30.7923C31.2753 13.4039 31.698 13.7661 31.698 14.2492ZM11.1697 8.99633V26.7473H20.8301V8.99633H11.1697ZM17.5093 18.5359H14.4904V17.5699H15.5772V14.4303L14.4904 14.9737V13.8869L15.7584 13.2227H16.6036V17.5699H17.5093V18.5359ZM0.301758 14.7926V26.7473H9.96214V14.7926H0.301758ZM6.64138 20.2869V21.1322H3.56214V20.6492C3.56214 20.4076 3.62251 20.2265 3.74327 19.985C3.86402 19.8039 4.04515 19.6227 4.22629 19.502C4.40742 19.3812 4.58855 19.2605 4.76968 19.0793C4.95081 18.9586 5.13195 18.8378 5.31308 18.7171C5.49421 18.5963 5.61497 18.4756 5.67534 18.3548C5.73572 18.2341 5.7961 18.1133 5.7961 18.0529C5.7961 17.8114 5.73572 17.5095 5.07157 17.5095C4.64893 17.5095 4.28666 17.6303 3.9244 17.8114H3.86402H3.74327V17.6303V17.0265L3.86402 16.9661C4.28666 16.7246 4.76968 16.6039 5.31308 16.6039C5.73572 16.6039 6.09798 16.7246 6.39987 16.9661C6.70176 17.2076 6.82251 17.5699 6.82251 17.9322C6.82251 18.1737 6.76214 18.3548 6.64138 18.5359C6.52063 18.7171 6.39987 18.8982 6.21874 19.019C6.03761 19.1397 5.91685 19.2605 5.67534 19.4416C5.43383 19.6831 5.2527 19.8039 5.07157 19.9246C4.83006 20.0454 4.7093 20.1661 4.58855 20.2869H6.64138ZM22.0376 17.1473V26.7473H31.698V17.1473H22.0376ZM27.8338 22.0378C27.5923 22.2793 27.1697 22.3397 26.747 22.3397C26.3244 22.3397 25.9018 22.2793 25.5395 22.0982L25.4187 22.0378V21.2529H25.6602H25.7206C26.0225 21.4341 26.3244 21.4944 26.6867 21.4944C27.0489 21.4944 27.3508 21.4341 27.4112 21.2529C27.4716 21.1926 27.4716 21.1322 27.4716 21.0718C27.4716 20.951 27.4716 20.5888 26.5055 20.5888H26.0225V19.8039H26.3848C26.6867 19.8039 26.9282 19.7435 27.1093 19.6831C27.2301 19.6227 27.2904 19.502 27.2904 19.3812C27.2904 19.2605 27.2301 19.2001 27.1697 19.1397C27.0489 19.0793 26.8678 19.019 26.6263 19.019C26.264 19.019 25.9621 19.0793 25.7206 19.2605V19.3209H25.4791V19.1397V18.5963L25.5999 18.5359C25.9621 18.3548 26.3848 18.2341 26.8074 18.2341C27.2301 18.2341 27.5923 18.3548 27.8338 18.5359C28.1357 18.7171 28.2565 19.019 28.2565 19.3812C28.2565 19.7435 28.1357 20.0454 27.8942 20.2265C28.2565 20.4076 28.4376 20.7699 28.4376 21.1926C28.3169 21.5548 28.1357 21.8567 27.8338 22.0378Z" fill="#6E7191"/>
</svg>
