<svg width="32" height="32" viewBox="0 0 32 32" fill="none" xmlns="http://www.w3.org/2000/svg">
<g clip-path="url(#clip0_6159_5025)">
<path d="M30.4078 25.911L24.978 20.4812C24.0544 19.5528 22.7068 19.3166 21.5608 19.7649L20.0254 18.2294C21.4904 16.3784 22.3716 14.044 22.3716 11.4997C22.3716 5.50126 17.5104 0.640015 11.512 0.640015C5.51366 0.640015 0.652344 5.50126 0.652344 11.4997C0.652344 17.498 5.51366 22.3593 11.512 22.3593C14.0428 22.3593 16.3654 21.4866 18.2116 20.0356L19.7498 21.5738C19.3023 22.7181 19.5373 24.0684 20.4616 24.9975L25.8914 30.4273C27.1551 31.6783 29.172 31.6632 30.4078 30.4273C31.6598 29.1752 31.6598 27.1567 30.4078 25.911ZM2.56876 11.4997C2.56876 6.56814 6.58047 2.55643 11.512 2.55643C16.4435 2.55643 20.4553 6.56814 20.4553 11.4997C20.4553 16.4312 16.4435 20.4429 11.512 20.4429C6.58047 20.4429 2.56876 16.4312 2.56876 11.4997ZM29.5071 29.5203C29.2675 29.7725 28.8517 29.7786 28.6063 29.5203C28.3572 29.2711 28.3572 28.8687 28.6063 28.6195C28.8544 28.3715 28.8533 27.9594 28.6063 27.7125L26.9647 26.0771C26.7155 25.828 26.7155 25.4255 26.9647 25.1764C27.2138 24.9272 27.6226 24.9272 27.8717 25.1764L29.5071 26.8117C30.2741 27.5787 30.2399 28.8003 29.5071 29.5203Z" fill="white"/>
<path d="M11.5126 3.83411C9.46516 3.83411 7.54004 4.63135 6.09243 6.07923C5.84289 6.32876 5.84289 6.73305 6.09243 6.98259C6.34196 7.23212 6.74619 7.23212 6.99572 6.98259C8.20219 5.77606 9.80641 5.11174 11.5126 5.11174C13.219 5.11174 14.8232 5.77606 16.0297 6.98259C16.2792 7.23212 16.6835 7.23212 16.933 6.98259C17.1825 6.73305 17.1825 6.32876 16.933 6.07923C15.4851 4.63135 13.5603 3.83411 11.5126 3.83411Z" fill="white"/>
<path d="M30.4078 25.911L24.978 20.4812C24.0544 19.5528 22.7068 19.3166 21.5608 19.7649L20.0254 18.2294C21.4904 16.3784 22.3716 14.044 22.3716 11.4997C22.3716 5.50126 17.5104 0.640015 11.512 0.640015C5.51366 0.640015 0.652344 5.50126 0.652344 11.4997C0.652344 17.498 5.51366 22.3593 11.512 22.3593C14.0428 22.3593 16.3654 21.4866 18.2116 20.0356L19.7498 21.5738C19.3023 22.7181 19.5373 24.0684 20.4616 24.9975L25.8914 30.4273C27.1551 31.6783 29.172 31.6632 30.4078 30.4273C31.6598 29.1752 31.6598 27.1567 30.4078 25.911ZM2.56876 11.4997C2.56876 6.56814 6.58047 2.55643 11.512 2.55643C16.4435 2.55643 20.4553 6.56814 20.4553 11.4997C20.4553 16.4312 16.4435 20.4429 11.512 20.4429C6.58047 20.4429 2.56876 16.4312 2.56876 11.4997ZM29.5071 29.5203C29.2675 29.7725 28.8517 29.7786 28.6063 29.5203C28.3572 29.2711 28.3572 28.8687 28.6063 28.6195C28.8544 28.3715 28.8533 27.9594 28.6063 27.7125L26.9647 26.0771C26.7155 25.828 26.7155 25.4255 26.9647 25.1764C27.2138 24.9272 27.6226 24.9272 27.8717 25.1764L29.5071 26.8117C30.2741 27.5787 30.2399 28.8003 29.5071 29.5203Z" fill="white"/>
<path d="M11.5126 3.83423C9.46516 3.83423 7.54004 4.63148 6.09243 6.07935C5.84289 6.32888 5.84289 6.73317 6.09243 6.98271C6.34196 7.23224 6.74619 7.23224 6.99572 6.98271C8.20219 5.77618 9.80641 5.11186 11.5126 5.11186C13.219 5.11186 14.8232 5.77618 16.0297 6.98271C16.2792 7.23224 16.6835 7.23224 16.933 6.98271C17.1825 6.73317 17.1825 6.32888 16.933 6.07935C15.4851 4.63148 13.5603 3.83423 11.5126 3.83423Z" fill="white"/>
</g>
<defs>
<clipPath id="clip0_6159_5025">
<rect width="32" height="32" fill="white"/>
</clipPath>
</defs>
</svg>
