<svg width="32" height="32" viewBox="0 0 32 32" fill="none" xmlns="http://www.w3.org/2000/svg">
<g clip-path="url(#clip0_6144_2267)">
<path d="M30.4078 25.9109L24.978 20.481C24.0544 19.5527 22.7068 19.3165 21.5608 19.7648L20.0254 18.2293C21.4904 16.3783 22.3716 14.0439 22.3716 11.4995C22.3716 5.50114 17.5104 0.639893 11.512 0.639893C5.51366 0.639893 0.652344 5.50114 0.652344 11.4995C0.652344 17.4979 5.51366 22.3592 11.512 22.3592C14.0428 22.3592 16.3654 21.4865 18.2116 20.0355L19.7498 21.5737C19.3023 22.718 19.5373 24.0683 20.4616 24.9974L25.8914 30.4272C27.1551 31.6782 29.172 31.6631 30.4078 30.4272C31.6598 29.1751 31.6598 27.1566 30.4078 25.9109ZM2.56876 11.4995C2.56876 6.56802 6.58047 2.55631 11.512 2.55631C16.4435 2.55631 20.4553 6.56802 20.4553 11.4995C20.4553 16.4311 16.4435 20.4428 11.512 20.4428C6.58047 20.4428 2.56876 16.4311 2.56876 11.4995ZM29.5071 29.5201C29.2675 29.7724 28.8517 29.7785 28.6063 29.5201C28.3572 29.271 28.3572 28.8686 28.6063 28.6194C28.8544 28.3713 28.8533 27.9593 28.6063 27.7123L26.9647 26.0769C26.7155 25.8279 26.7155 25.4254 26.9647 25.1763C27.2138 24.9271 27.6226 24.9271 27.8717 25.1763L29.5071 26.8116C30.2741 27.5786 30.2399 28.8001 29.5071 29.5201Z" fill="#6143F1"/>
<path d="M11.5126 3.83398C9.46516 3.83398 7.54004 4.63123 6.09243 6.0791C5.84289 6.32864 5.84289 6.73293 6.09243 6.98246C6.34196 7.232 6.74619 7.232 6.99572 6.98246C8.20219 5.77594 9.80641 5.11162 11.5126 5.11162C13.219 5.11162 14.8232 5.77594 16.0297 6.98246C16.2792 7.232 16.6835 7.232 16.933 6.98246C17.1825 6.73293 17.1825 6.32864 16.933 6.0791C15.4851 4.63123 13.5603 3.83398 11.5126 3.83398Z" fill="#6143F1"/>
<path d="M30.4078 25.9109L24.978 20.481C24.0544 19.5527 22.7068 19.3165 21.5608 19.7648L20.0254 18.2293C21.4904 16.3783 22.3716 14.0439 22.3716 11.4995C22.3716 5.50114 17.5104 0.639893 11.512 0.639893C5.51366 0.639893 0.652344 5.50114 0.652344 11.4995C0.652344 17.4979 5.51366 22.3592 11.512 22.3592C14.0428 22.3592 16.3654 21.4865 18.2116 20.0355L19.7498 21.5737C19.3023 22.718 19.5373 24.0683 20.4616 24.9974L25.8914 30.4272C27.1551 31.6782 29.172 31.6631 30.4078 30.4272C31.6598 29.1751 31.6598 27.1566 30.4078 25.9109ZM2.56876 11.4995C2.56876 6.56802 6.58047 2.55631 11.512 2.55631C16.4435 2.55631 20.4553 6.56802 20.4553 11.4995C20.4553 16.4311 16.4435 20.4428 11.512 20.4428C6.58047 20.4428 2.56876 16.4311 2.56876 11.4995ZM29.5071 29.5201C29.2675 29.7724 28.8517 29.7785 28.6063 29.5201C28.3572 29.271 28.3572 28.8686 28.6063 28.6194C28.8544 28.3713 28.8533 27.9593 28.6063 27.7123L26.9647 26.0769C26.7155 25.8279 26.7155 25.4254 26.9647 25.1763C27.2138 24.9271 27.6226 24.9271 27.8717 25.1763L29.5071 26.8116C30.2741 27.5786 30.2399 28.8001 29.5071 29.5201Z" fill="#6143F1"/>
<path d="M11.5126 3.83398C9.46516 3.83398 7.54004 4.63123 6.09243 6.0791C5.84289 6.32864 5.84289 6.73293 6.09243 6.98246C6.34196 7.232 6.74619 7.232 6.99572 6.98246C8.20219 5.77594 9.80641 5.11162 11.5126 5.11162C13.219 5.11162 14.8232 5.77594 16.0297 6.98246C16.2792 7.232 16.6835 7.232 16.933 6.98246C17.1825 6.73293 17.1825 6.32864 16.933 6.0791C15.4851 4.63123 13.5603 3.83398 11.5126 3.83398Z" fill="#6143F1"/>
</g>
<defs>
<clipPath id="clip0_6144_2267">
<rect width="32" height="32" fill="white"/>
</clipPath>
</defs>
</svg>
