<svg width="32" height="32" viewBox="0 0 32 32" fill="none" xmlns="http://www.w3.org/2000/svg">
<path d="M28.0852 28.4965H3.91355C3.20204 28.4955 2.51997 28.2123 2.01697 27.7091C1.51397 27.2059 1.23112 26.5237 1.23047 25.8122V9.31369C1.23145 8.60229 1.51452 7.92031 2.01762 7.41733C2.52072 6.91435 3.20276 6.63143 3.91416 6.63062H28.0859C28.797 6.63159 29.4788 6.9145 29.9818 7.41733C30.4847 7.92016 30.7678 8.60189 30.7689 9.31308V25.8115C30.7683 26.5232 30.4853 27.2054 29.9822 27.7087C29.4791 28.2119 28.7969 28.4956 28.0852 28.4965ZM3.91355 7.86077C3.52836 7.86142 3.15915 8.01481 2.88689 8.28729C2.61464 8.55978 2.46156 8.92912 2.46124 9.31431V25.8128C2.46189 26.1979 2.61519 26.567 2.88755 26.8392C3.1599 27.1114 3.52908 27.2646 3.91416 27.2651H28.0859C28.4707 27.2644 28.8397 27.1113 29.1119 26.8392C29.3841 26.5671 29.5373 26.1983 29.5382 25.8134V9.31492C29.5378 8.92963 29.3847 8.5602 29.1123 8.28769C28.8399 8.01519 28.4705 7.86187 28.0852 7.86138L3.91355 7.86077Z" fill="#6E7191"/>
<path d="M23.0679 17.2965H18.1547C17.9914 17.2965 17.8349 17.2317 17.7195 17.1163C17.6041 17.0009 17.5393 16.8444 17.5393 16.6812C17.5393 16.5179 17.6041 16.3614 17.7195 16.246C17.8349 16.1306 17.9914 16.0658 18.1547 16.0658H23.0679C23.9111 16.0685 24.7358 15.8181 25.4353 15.3472C26.1348 14.8762 26.6769 14.2063 26.9916 13.4239L29.2205 7.91192C29.2504 7.83648 29.295 7.7677 29.3516 7.70954C29.4082 7.65139 29.4758 7.60501 29.5504 7.57307C29.625 7.54114 29.7052 7.52428 29.7864 7.52347C29.8675 7.52266 29.9481 7.53791 30.0233 7.56835C30.0985 7.59879 30.167 7.64381 30.2248 7.70082C30.2826 7.75783 30.3285 7.82571 30.3599 7.90054C30.3913 7.97537 30.4076 8.05568 30.4079 8.13685C30.4082 8.21801 30.3924 8.29843 30.3614 8.37346L28.1325 13.8855C27.7266 14.8955 27.0269 15.7606 26.124 16.3687C25.2211 16.9768 24.1565 17.3 23.0679 17.2965ZM13.9528 17.2965H8.9325C7.8439 17.3 6.7793 16.9768 5.87639 16.3687C4.97348 15.7606 4.27381 14.8955 3.86788 13.8855L1.74604 8.64423C1.6907 8.49422 1.69592 8.32857 1.76059 8.18235C1.82526 8.03612 1.9443 7.92081 2.09251 7.86082C2.24072 7.80083 2.40645 7.80088 2.55462 7.86096C2.70279 7.92104 2.82177 8.03643 2.88635 8.18269L5.00881 13.4239C5.3235 14.2063 5.86563 14.8762 6.5651 15.3472C7.26458 15.8181 8.08925 16.0685 8.9325 16.0658H13.9528C14.116 16.0658 14.2725 16.1306 14.3879 16.246C14.5034 16.3614 14.5682 16.5179 14.5682 16.6812C14.5682 16.8444 14.5034 17.0009 14.3879 17.1163C14.2725 17.2317 14.116 17.2965 13.9528 17.2965Z" fill="#6E7191"/>
<path d="M17.1514 19.7256H14.9643C14.534 19.7261 14.121 19.5558 13.8161 19.2521C13.5112 18.9485 13.3392 18.5362 13.3379 18.1059V15.2C13.3385 14.7689 13.5101 14.3557 13.815 14.0509C14.1199 13.7461 14.5332 13.5747 14.9643 13.5742H17.1508C17.581 13.5755 17.9932 13.7474 18.2968 14.0522C18.6005 14.357 18.7708 14.7698 18.7705 15.2V18.1059C18.77 18.5353 18.5992 18.947 18.2955 19.2506C17.9919 19.5543 17.5802 19.7251 17.1508 19.7256H17.1514ZM14.9643 14.805C14.9123 14.8044 14.8606 14.8142 14.8124 14.8338C14.7641 14.8535 14.7203 14.8826 14.6835 14.9194C14.6466 14.9561 14.6175 14.9999 14.5978 15.0481C14.578 15.0963 14.5681 15.148 14.5686 15.2V18.1059C14.5685 18.1576 14.5786 18.2088 14.5985 18.2565C14.6184 18.3042 14.6477 18.3474 14.6846 18.3837C14.7214 18.4199 14.7652 18.4484 14.8132 18.4675C14.8613 18.4866 14.9126 18.4959 14.9643 18.4948H17.1508C17.2019 18.4948 17.2524 18.4847 17.2996 18.4652C17.3468 18.4457 17.3897 18.417 17.4258 18.3809C17.4619 18.3448 17.4906 18.3019 17.5101 18.2547C17.5296 18.2075 17.5397 18.157 17.5397 18.1059V15.2C17.5407 15.1484 17.5313 15.0971 17.5122 15.0491C17.4931 15.0011 17.4646 14.9575 17.4284 14.9207C17.3921 14.8839 17.3489 14.8547 17.3013 14.8348C17.2536 14.8149 17.2024 14.8048 17.1508 14.805H14.9643ZM20.4474 7.86096H11.5539C11.3907 7.86096 11.2341 7.79612 11.1187 7.68071C11.0033 7.56531 10.9385 7.40878 10.9385 7.24557V5.17665C10.9385 4.25419 11.7569 3.50342 12.7619 3.50342H19.2394C20.2443 3.50342 21.0628 4.25419 21.0628 5.17726V7.24557C21.0628 7.40878 20.9979 7.56531 20.8825 7.68071C20.7671 7.79612 20.6106 7.86096 20.4474 7.86096ZM12.1692 6.63019H19.832V5.17665C19.832 4.93665 19.56 4.73419 19.2394 4.73419H12.7619C12.4412 4.73419 12.1692 4.93726 12.1692 5.17726V6.63019Z" fill="#6E7191"/>
</svg>
