<svg width="32" height="32" viewBox="0 0 32 32" fill="none" xmlns="http://www.w3.org/2000/svg">
<path d="M28.0855 28.4965H3.91379C3.20228 28.4955 2.52021 28.2123 2.01721 27.7091C1.51421 27.2059 1.23136 26.5237 1.23071 25.8122V9.31369C1.23169 8.60229 1.51477 7.92031 2.01786 7.41733C2.52096 6.91435 3.203 6.63143 3.91441 6.63062H28.0861C28.7973 6.63159 29.4791 6.9145 29.982 7.41733C30.485 7.92016 30.768 8.60189 30.7692 9.31308V25.8115C30.7685 26.5232 30.4856 27.2054 29.9825 27.7087C29.4793 28.2119 28.7971 28.4956 28.0855 28.4965ZM3.91379 7.86077C3.5286 7.86142 3.15939 8.01481 2.88714 8.28729C2.61488 8.55978 2.46181 8.92912 2.46148 9.31431V25.8128C2.46213 26.1979 2.61544 26.567 2.88779 26.8392C3.16014 27.1114 3.52932 27.2646 3.91441 27.2651H28.0861C28.471 27.2644 28.8399 27.1113 29.1121 26.8392C29.3843 26.5671 29.5376 26.1983 29.5384 25.8134V9.31492C29.5381 8.92963 29.3849 8.5602 29.1125 8.28769C28.8401 8.01519 28.4708 7.86187 28.0855 7.86138L3.91379 7.86077Z" fill="#6143F0"/>
<path d="M23.0679 17.2965H18.1547C17.9914 17.2965 17.8349 17.2317 17.7195 17.1163C17.6041 17.0009 17.5393 16.8444 17.5393 16.6812C17.5393 16.5179 17.6041 16.3614 17.7195 16.246C17.8349 16.1306 17.9914 16.0658 18.1547 16.0658H23.0679C23.9111 16.0685 24.7358 15.8181 25.4353 15.3472C26.1348 14.8762 26.6769 14.2063 26.9916 13.4239L29.2205 7.91192C29.2504 7.83648 29.295 7.7677 29.3516 7.70954C29.4082 7.65139 29.4758 7.60501 29.5504 7.57307C29.625 7.54114 29.7052 7.52428 29.7864 7.52347C29.8675 7.52266 29.9481 7.53791 30.0233 7.56835C30.0985 7.59879 30.167 7.64381 30.2248 7.70082C30.2826 7.75783 30.3285 7.82571 30.3599 7.90054C30.3913 7.97537 30.4076 8.05568 30.4079 8.13685C30.4082 8.21801 30.3924 8.29843 30.3614 8.37346L28.1325 13.8855C27.7266 14.8955 27.0269 15.7606 26.124 16.3687C25.2211 16.9768 24.1565 17.3 23.0679 17.2965ZM13.9528 17.2965H8.9325C7.8439 17.3 6.7793 16.9768 5.87639 16.3687C4.97348 15.7606 4.27381 14.8955 3.86788 13.8855L1.74604 8.64423C1.6907 8.49422 1.69592 8.32857 1.76059 8.18235C1.82526 8.03612 1.9443 7.92081 2.09251 7.86082C2.24072 7.80083 2.40645 7.80088 2.55462 7.86096C2.70279 7.92104 2.82177 8.03643 2.88635 8.18269L5.00881 13.4239C5.3235 14.2063 5.86563 14.8762 6.5651 15.3472C7.26458 15.8181 8.08925 16.0685 8.9325 16.0658H13.9528C14.116 16.0658 14.2725 16.1306 14.3879 16.246C14.5034 16.3614 14.5682 16.5179 14.5682 16.6812C14.5682 16.8444 14.5034 17.0009 14.3879 17.1163C14.2725 17.2317 14.116 17.2965 13.9528 17.2965Z" fill="#6143F0"/>
<path d="M17.1509 19.7256H14.9638C14.5335 19.7261 14.1205 19.5558 13.8156 19.2521C13.5107 18.9485 13.3387 18.5362 13.3374 18.1059V15.2C13.338 14.7689 13.5096 14.3557 13.8145 14.0509C14.1194 13.7461 14.5327 13.5747 14.9638 13.5742H17.1503C17.5805 13.5755 17.9927 13.7474 18.2963 14.0522C18.6 14.357 18.7703 14.7698 18.77 15.2V18.1059C18.7695 18.5353 18.5987 18.947 18.2951 19.2506C17.9914 19.5543 17.5797 19.7251 17.1503 19.7256H17.1509ZM14.9638 14.805C14.9118 14.8044 14.8601 14.8142 14.8119 14.8338C14.7636 14.8535 14.7198 14.8826 14.683 14.9194C14.6461 14.9561 14.617 14.9999 14.5973 15.0481C14.5775 15.0963 14.5676 15.148 14.5681 15.2V18.1059C14.568 18.1576 14.5781 18.2088 14.598 18.2565C14.6179 18.3042 14.6472 18.3474 14.6841 18.3837C14.7209 18.4199 14.7647 18.4484 14.8127 18.4675C14.8608 18.4866 14.9121 18.4959 14.9638 18.4948H17.1503C17.2014 18.4948 17.2519 18.4847 17.2991 18.4652C17.3463 18.4457 17.3892 18.417 17.4253 18.3809C17.4614 18.3448 17.4901 18.3019 17.5096 18.2547C17.5292 18.2075 17.5392 18.157 17.5392 18.1059V15.2C17.5402 15.1484 17.5309 15.0971 17.5117 15.0491C17.4926 15.0011 17.4641 14.9575 17.4279 14.9207C17.3917 14.8839 17.3484 14.8547 17.3008 14.8348C17.2531 14.8149 17.2019 14.8048 17.1503 14.805H14.9638ZM20.4469 7.86096H11.5534C11.3902 7.86096 11.2336 7.79612 11.1182 7.68071C11.0028 7.56531 10.938 7.40878 10.938 7.24557V5.17665C10.938 4.25419 11.7564 3.50342 12.7614 3.50342H19.2389C20.2438 3.50342 21.0623 4.25419 21.0623 5.17726V7.24557C21.0623 7.40878 20.9975 7.56531 20.8821 7.68071C20.7666 7.79612 20.6101 7.86096 20.4469 7.86096ZM12.1688 6.63019H19.8315V5.17665C19.8315 4.93665 19.5595 4.73419 19.2389 4.73419H12.7614C12.4408 4.73419 12.1688 4.93726 12.1688 5.17726V6.63019Z" fill="#6143F0"/>
</svg>
