<svg width="32" height="32" viewBox="0 0 32 32" fill="none" xmlns="http://www.w3.org/2000/svg">
<g clip-path="url(#clip0_6169_4450)">
<path d="M24.0002 10.6666H22.6668V7.99992C22.6668 4.31992 19.6802 1.33325 16.0002 1.33325C12.3202 1.33325 9.3335 4.31992 9.3335 7.99992V10.6666H8.00016C6.52683 10.6666 5.3335 11.8599 5.3335 13.3333V26.6666C5.3335 28.1399 6.52683 29.3333 8.00016 29.3333H24.0002C25.4735 29.3333 26.6668 28.1399 26.6668 26.6666V13.3333C26.6668 11.8599 25.4735 10.6666 24.0002 10.6666ZM16.0002 22.6666C14.5268 22.6666 13.3335 21.4733 13.3335 19.9999C13.3335 18.5266 14.5268 17.3333 16.0002 17.3333C17.4735 17.3333 18.6668 18.5266 18.6668 19.9999C18.6668 21.4733 17.4735 22.6666 16.0002 22.6666ZM20.1335 10.6666H11.8668V7.99992C11.8668 5.71992 13.7202 3.86659 16.0002 3.86659C18.2802 3.86659 20.1335 5.71992 20.1335 7.99992V10.6666Z" fill="white"/>
</g>
<defs>
<clipPath id="clip0_6169_4450">
<rect width="32" height="32" fill="white"/>
</clipPath>
</defs>
</svg>
