<svg width="26" height="26" viewBox="0 0 26 26" fill="none" xmlns="http://www.w3.org/2000/svg">
<g clip-path="url(#clip0_6144_2284)">
<path d="M0.380859 16.5166C0.430883 16.5167 0.480433 16.5069 0.526634 16.4877C0.572836 16.4686 0.614769 16.4404 0.65 16.4049L4.28898 12.7659L5.94141 14.4219C5.99457 14.4756 6.05785 14.5182 6.12758 14.5472C6.19731 14.5763 6.27211 14.5913 6.34766 14.5913C6.42321 14.5913 6.49801 14.5763 6.56774 14.5472C6.63747 14.5182 6.70074 14.4756 6.75391 14.4219L10.6509 10.5244L12.2616 12.1357C12.3149 12.1891 12.3783 12.2315 12.448 12.2605C12.5177 12.2894 12.5924 12.3043 12.6679 12.3043C12.7434 12.3043 12.8181 12.2894 12.8878 12.2605C12.9575 12.2315 13.0208 12.1891 13.0741 12.1357L16.5202 8.68867V9.88102C16.5202 9.98203 16.5603 10.0789 16.6317 10.1503C16.7031 10.2217 16.8 10.2619 16.901 10.2619C17.002 10.2619 17.0989 10.2217 17.1703 10.1503C17.2417 10.0789 17.2819 9.98203 17.2819 9.88102V7.76953C17.2826 7.75685 17.2826 7.74413 17.2819 7.73145V7.71519C17.2819 7.70961 17.2819 7.70148 17.2783 7.69488C17.2748 7.68828 17.2753 7.68219 17.2738 7.67609C17.2722 7.67 17.2738 7.66441 17.2697 7.65883C17.2656 7.65324 17.2651 7.64664 17.2631 7.64055L17.257 7.62328C17.2545 7.61769 17.2519 7.61211 17.2489 7.60652C17.2458 7.60094 17.2438 7.59535 17.2407 7.58977C17.2377 7.58418 17.2346 7.5791 17.2316 7.57352C17.2286 7.56793 17.2255 7.56285 17.222 7.55777C17.2184 7.5527 17.2133 7.54609 17.2088 7.54L17.1996 7.52781C17.1834 7.50931 17.1656 7.49231 17.1463 7.47703L17.1351 7.46891L17.1163 7.45469L17.1016 7.44605C17.096 7.44237 17.0903 7.43898 17.0843 7.4359C17.0793 7.43285 17.0737 7.43082 17.0686 7.42828C17.0626 7.4251 17.0565 7.42222 17.0503 7.41965L17.0346 7.41406L17.0153 7.40746C17.0099 7.40564 17.0045 7.40411 16.999 7.40289L16.9792 7.39832L16.9599 7.39527H14.7865C14.6855 7.39527 14.5886 7.4354 14.5172 7.50682C14.4458 7.57825 14.4056 7.67512 14.4056 7.77613C14.4056 7.87714 14.4458 7.97402 14.5172 8.04544C14.5886 8.11687 14.6855 8.15699 14.7865 8.15699H15.9783L12.6659 11.4613L11.0551 9.85156C11.0018 9.79813 10.9385 9.75574 10.8687 9.72681C10.799 9.69789 10.7243 9.683 10.6488 9.683C10.5734 9.683 10.4986 9.69789 10.4289 9.72681C10.3592 9.75574 10.2959 9.79813 10.2426 9.85156L6.34766 13.748L4.69371 12.0936C4.64044 12.0401 4.57713 11.9976 4.50742 11.9687C4.4377 11.9397 4.36295 11.9248 4.28746 11.9248C4.21197 11.9248 4.13722 11.9397 4.0675 11.9687C3.99779 11.9976 3.93448 12.0401 3.88121 12.0936L0.111719 15.8666C0.0585222 15.9199 0.0223027 15.9877 0.0076348 16.0615C-0.00703305 16.1354 0.000508654 16.2119 0.0293074 16.2814C0.0581061 16.351 0.10687 16.4105 0.169441 16.4523C0.232011 16.4942 0.305581 16.5165 0.380859 16.5166ZM22.3691 7.52832C22.4439 7.52837 22.517 7.50644 22.5793 7.46526C22.6417 7.42408 22.6905 7.36547 22.7198 7.29672C22.7491 7.22798 22.7575 7.15213 22.744 7.07864C22.7305 7.00514 22.6957 6.93725 22.6439 6.8834L20.9874 5.1609H21.1905C21.5401 5.159 21.8789 5.0401 22.153 4.82316C22.4271 4.60623 22.6206 4.30375 22.7028 3.96398H23.1563C23.2573 3.96398 23.3541 3.92386 23.4256 3.85243C23.497 3.78101 23.5371 3.68413 23.5371 3.58312C23.5371 3.48211 23.497 3.38524 23.4256 3.31382C23.3541 3.24239 23.2573 3.20227 23.1563 3.20227H22.7058C22.6682 3.04912 22.608 2.90243 22.5271 2.76707H23.1563C23.2573 2.76707 23.3541 2.72694 23.4256 2.65552C23.497 2.58409 23.5371 2.48722 23.5371 2.38621C23.5371 2.2852 23.497 2.18833 23.4256 2.1169C23.3541 2.04548 23.2573 2.00535 23.1563 2.00535H20.0936C19.9926 2.00535 19.8958 2.04548 19.8243 2.1169C19.7529 2.18833 19.7128 2.2852 19.7128 2.38621C19.7128 2.48722 19.7529 2.58409 19.8243 2.65552C19.8958 2.72694 19.9926 2.76707 20.0936 2.76707H21.1925C21.3386 2.768 21.4815 2.80909 21.6058 2.88585C21.73 2.96261 21.8307 3.07208 21.8969 3.20227H20.0936C19.9926 3.20227 19.8958 3.24239 19.8243 3.31382C19.7529 3.38524 19.7128 3.48211 19.7128 3.58312C19.7128 3.68413 19.7529 3.78101 19.8243 3.85243C19.8958 3.92386 19.9926 3.96398 20.0936 3.96398H21.8969C21.8307 4.09417 21.73 4.20364 21.6058 4.2804C21.4815 4.35716 21.3386 4.39825 21.1925 4.39918H20.0936C20.019 4.39936 19.9461 4.42143 19.8839 4.46265C19.8217 4.50387 19.7729 4.56243 19.7437 4.63109C19.7144 4.69974 19.706 4.77546 19.7194 4.84887C19.7327 4.92229 19.7673 4.99017 19.8189 5.0441L22.0954 7.41152C22.131 7.4484 22.1737 7.4777 22.2209 7.49769C22.2681 7.51767 22.3189 7.52792 22.3702 7.52781L22.3691 7.52832ZM25.6191 25.2383H24.0109V15.0059C24.0106 14.7703 23.9169 14.5444 23.7503 14.3778C23.5837 14.2112 23.3578 14.1175 23.1222 14.1172H22.005V13.0559H22.879C23.3181 13.0555 23.7391 12.8809 24.0497 12.5704C24.3602 12.26 24.5349 11.839 24.5355 11.3999V10.1055C24.5355 10.0045 24.4953 9.90759 24.4239 9.83616C24.3525 9.76474 24.2556 9.72461 24.1546 9.72461H22.9023C22.585 9.72439 22.2743 9.81572 22.0076 9.98766V8.87047C24.242 8.67344 26.0025 6.76457 26.0025 4.4459C26 1.99266 24.0373 0 21.6242 0C19.2111 0 17.2489 1.99266 17.2489 4.44184C17.2489 6.76051 19.0084 8.66938 21.2433 8.86641V9.98359C20.9768 9.81162 20.6663 9.72028 20.3491 9.72055H19.0938C18.9927 9.72055 18.8959 9.76067 18.8244 9.8321C18.753 9.90352 18.7129 10.0004 18.7129 10.1014V11.3979C18.7134 11.8369 18.8881 12.2578 19.1985 12.5682C19.5089 12.8786 19.9298 13.0533 20.3689 13.0538H21.2428V14.1172H20.1256C19.89 14.1175 19.6641 14.2112 19.4975 14.3778C19.3309 14.5444 19.2372 14.7703 19.237 15.0059V25.2383H17.5988V17.291C17.5985 17.0554 17.5048 16.8295 17.3382 16.6629C17.1716 16.4963 16.9457 16.4026 16.7101 16.4023H13.714C13.4784 16.4026 13.2525 16.4963 13.0859 16.6629C12.9193 16.8295 12.8256 17.0554 12.8253 17.291V25.2383H11.1861V19.5762C11.1858 19.3406 11.0921 19.1147 10.9255 18.9481C10.7589 18.7815 10.533 18.6878 10.2974 18.6875H7.30133C7.06572 18.6878 6.83984 18.7815 6.67324 18.9481C6.50664 19.1147 6.41293 19.3406 6.41266 19.5762V25.2383H4.77344V21.968C4.77317 21.7324 4.67946 21.5065 4.51286 21.3399C4.34625 21.1733 4.12037 21.0796 3.88477 21.0793H0.888672C0.653064 21.0796 0.427183 21.1733 0.260583 21.3399C0.0939828 21.5065 0.000268806 21.7324 0 21.968L0 25.6191C0 25.7201 0.0401261 25.817 0.111551 25.8884C0.182976 25.9599 0.279849 26 0.380859 26H25.6191C25.7202 26 25.817 25.9599 25.8885 25.8884C25.9599 25.817 26 25.7201 26 25.6191C26 25.5181 25.9599 25.4213 25.8885 25.3498C25.817 25.2784 25.7202 25.2383 25.6191 25.2383ZM4.01172 25.2383H0.761719V21.968C0.761719 21.9343 0.775094 21.902 0.798903 21.8782C0.822711 21.8544 0.855002 21.841 0.888672 21.841H3.88477C3.91844 21.841 3.95073 21.8544 3.97454 21.8782C3.99834 21.902 4.01172 21.9343 4.01172 21.968V25.2383ZM10.4244 25.2383H7.17438V19.5762C7.17438 19.5425 7.18775 19.5102 7.21156 19.4864C7.23537 19.4626 7.26766 19.4492 7.30133 19.4492H10.2974C10.3311 19.4492 10.3634 19.4626 10.3872 19.4864C10.411 19.5102 10.4244 19.5425 10.4244 19.5762V25.2383ZM16.837 25.2383H13.587V17.291C13.587 17.2573 13.6004 17.2251 13.6242 17.2012C13.648 17.1774 13.6803 17.1641 13.714 17.1641H16.7101C16.7437 17.1642 16.7759 17.1776 16.7997 17.2014C16.8235 17.2252 16.8369 17.2574 16.837 17.291V25.2383ZM22.9023 10.4843H23.7763V11.3984C23.776 11.6355 23.6816 11.8629 23.5139 12.0306C23.3461 12.1982 23.1187 12.2925 22.8815 12.2926H22.005V11.3786C22.0052 11.2609 22.0286 11.1445 22.0738 11.0359C22.119 10.9273 22.1852 10.8286 22.2685 10.7456C22.3518 10.6625 22.4507 10.5967 22.5594 10.5519C22.6682 10.5071 22.7847 10.4841 22.9023 10.4843ZM18.0131 4.44133C18.0131 2.41008 19.6341 0.761211 21.6267 0.761211C23.6194 0.761211 25.2383 2.41262 25.2383 4.44184C25.2383 6.47105 23.6173 8.12144 21.6242 8.12144C19.631 8.12144 18.0106 6.47055 18.0106 4.44184L18.0131 4.44133ZM20.3694 12.2941C20.1323 12.2939 19.905 12.1996 19.7373 12.0319C19.5697 11.8643 19.4754 11.637 19.4751 11.3999V10.4858H20.3491C20.5862 10.4861 20.8135 10.5804 20.9811 10.748C21.1488 10.9157 21.2431 11.143 21.2433 11.3801V12.2941H20.3694ZM23.2492 25.2383H19.9992V15.0059C19.9993 14.9722 20.0127 14.94 20.0365 14.9162C20.0603 14.8925 20.0925 14.879 20.1261 14.8789H23.1222C23.1559 14.8789 23.1882 14.8923 23.212 14.9161C23.2358 14.9399 23.2492 14.9722 23.2492 15.0059V25.2383Z" fill="#6E7191"/>
</g>
<defs>
<clipPath id="clip0_6144_2284">
<rect width="26" height="26" fill="white"/>
</clipPath>
</defs>
</svg>
