<svg width="32" height="32" viewBox="0 0 32 32" fill="none" xmlns="http://www.w3.org/2000/svg">
<path d="M6.50142 0.998047C6.10372 1.00052 5.72302 1.15958 5.4418 1.4408C5.16058 1.72201 5.0015 2.10277 4.99902 2.50046V6.50112C4.99902 7.32319 5.67935 7.99973 6.50142 7.99973H7.50301C8.1531 7.98462 8.1531 7.01515 7.50301 6.99814H6.50142C6.43532 7.00021 6.3695 6.98881 6.30795 6.96463C6.24641 6.94046 6.19042 6.90403 6.1434 6.85754C6.09638 6.81105 6.0593 6.75548 6.03443 6.69421C6.00956 6.63294 5.99741 6.56723 5.99873 6.50112V2.50046C5.99718 2.43403 6.00912 2.36791 6.03383 2.30622C6.05854 2.24453 6.09552 2.1885 6.14251 2.14151C6.1895 2.09452 6.24553 2.05757 6.30722 2.03286C6.36891 2.00815 6.43498 1.99618 6.50142 1.99774H25.5034C25.7868 1.99774 26.0004 2.2151 26.0004 2.50046V6.50112C26.0022 6.56697 25.9906 6.63252 25.9663 6.69375C25.942 6.75497 25.9055 6.81064 25.859 6.85731C25.8125 6.90398 25.757 6.94067 25.6958 6.96521C25.6347 6.98975 25.5692 7.00161 25.5034 7.00005H24.5018C23.8517 7.01516 23.8517 7.98462 24.5018 7.99973H25.5034C25.9004 7.99824 26.2807 7.8399 26.5614 7.55918C26.8421 7.27846 27.0005 6.89812 27.002 6.50112V2.50046C27.0005 2.10312 26.8422 1.72241 26.5616 1.44108C26.281 1.15976 25.9007 1.00053 25.5034 0.998047H6.50142ZM7.50301 3.99907C6.83402 3.99907 6.83402 5.00067 7.50301 5.00067H21.9997V20.9997C22.0017 21.0658 21.9903 21.1316 21.9662 21.1932C21.942 21.2547 21.9055 21.3107 21.8591 21.3577C21.8126 21.4047 21.757 21.4418 21.6957 21.4667C21.6345 21.4916 21.5688 21.5037 21.5027 21.5024H19.9984V17.9987C19.9984 16.6229 18.8777 15.5004 17.5001 15.5004C16.1243 15.5004 15.0017 16.6229 15.0017 17.9987V22.9991C15.0017 24.6999 15.8125 26.1419 16.438 27.0017H15.5006C15.3685 27.0022 15.2419 27.0549 15.1484 27.1484C15.055 27.2418 15.0022 27.3684 15.0017 27.5006V30.4997C15.0017 30.7756 15.2247 30.9967 15.5006 30.9986H26.5503C26.6741 30.9864 26.7889 30.9286 26.8724 30.8363C26.9559 30.7441 27.0021 30.6241 27.002 30.4997V27.5006C27.0017 27.4348 26.9885 27.3698 26.9631 27.3091C26.9377 27.2485 26.9006 27.1934 26.854 27.1471C26.8073 27.1007 26.7519 27.064 26.6911 27.0391C26.6302 27.0142 26.5651 27.0015 26.4993 27.0017H25.6111L26.9906 20.0983C27.259 18.7622 27.0738 17.7625 25.9021 16.1996L24.9005 14.8673C24.8633 14.8093 24.8146 14.7597 24.7574 14.7214C24.7002 14.6832 24.6357 14.6571 24.568 14.6449C24.5003 14.6327 24.4307 14.6345 24.3637 14.6504C24.2968 14.6662 24.2338 14.6957 24.1787 14.737C24.1236 14.7783 24.0776 14.8304 24.0436 14.8903C24.0096 14.9501 23.9883 15.0163 23.981 15.0848C23.9737 15.1532 23.9807 15.2224 24.0013 15.2881C24.022 15.3537 24.056 15.4144 24.1011 15.4664L25.1008 16.8006C26.178 18.2368 26.2007 18.9511 26.0117 19.9017L24.5906 27.0017H17.7306C17.4093 26.6483 16.0014 24.991 16.0014 22.9991V17.9987C16.0014 17.1596 16.6629 16.5001 17.5001 16.5001C18.341 16.5001 18.9987 17.1596 18.9987 17.9987V21.9994C18.9987 22.2753 19.2254 22.4983 19.5014 22.4983H21.5027C21.8993 22.4963 22.2792 22.3378 22.5595 22.0571C22.8398 21.7764 22.9979 21.3963 22.9994 20.9997V4.99876H24.5037C25.1708 4.99876 25.1708 3.99717 24.5037 3.99717L7.50301 3.99907ZM9.49486 5.9909C9.4287 5.99138 9.36329 6.00504 9.30245 6.03104C9.2416 6.05704 9.18654 6.09486 9.14046 6.14234C9.09439 6.18983 9.05822 6.24604 9.03405 6.30763C9.00989 6.36923 8.99823 6.43498 8.99973 6.50112V20.9997C8.99973 21.8217 9.68006 22.4983 10.5021 22.4983H13.4993C14.2269 22.5625 14.2269 21.4363 13.4993 21.5024H10.5021C10.4358 21.5037 10.37 21.4915 10.3085 21.4667C10.247 21.4419 10.1912 21.4049 10.1445 21.3579C10.0977 21.311 10.0609 21.255 10.0363 21.1934C10.0117 21.1319 9.99978 21.0659 10.0013 20.9997V6.50112C10.0026 6.43409 9.99039 6.3675 9.96544 6.30527C9.94048 6.24304 9.90328 6.18647 9.85605 6.13888C9.80882 6.0913 9.75251 6.05369 9.69046 6.02827C9.62842 6.00285 9.5619 5.99013 9.49486 5.9909ZM11.001 6.50112V8.99948C10.9916 9.67603 12.0102 9.67603 12.0007 8.99948V6.49928C12.0007 6.36646 11.948 6.23903 11.8541 6.14511C11.7601 6.0512 11.6328 5.99845 11.4999 5.99845C11.3671 5.99845 11.2397 6.0512 11.1458 6.14511C11.0519 6.23903 10.9991 6.36646 10.9991 6.49928L11.001 6.50112ZM20.0003 6.50112V8.99948C19.9908 9.67603 21.0113 9.67603 21.0019 8.99948V6.49928C21.0019 6.43351 20.9889 6.36839 20.9637 6.30763C20.9386 6.24687 20.9017 6.19162 20.8552 6.14511C20.8087 6.09861 20.7535 6.06174 20.6927 6.03657C20.6319 6.01141 20.5668 5.99845 20.5011 5.99845C20.4353 5.99845 20.3702 6.01141 20.3094 6.03657C20.2487 6.06174 20.1934 6.09861 20.1469 6.14511C20.1004 6.19162 20.0636 6.24687 20.0384 6.30763C20.0132 6.36839 20.0003 6.43536 20.0003 6.50112ZM14.5066 9.00133C13.5806 9.00133 12.8001 9.64197 12.5752 10.4999H11.498C11.1654 10.4999 10.9991 10.7494 10.9991 10.9989C10.9991 11.2502 11.1654 11.4997 11.498 11.4997H12.5752C12.802 12.3577 13.5806 12.9983 14.5066 12.9983C15.6027 12.9983 16.506 12.0968 16.506 10.997C16.506 10.4395 16.9482 10.0011 17.5057 10.0011C18.0632 10.0011 18.5073 10.4395 18.5073 10.997C18.5073 11.5563 18.0632 11.9985 17.5057 11.9985C16.8386 11.9985 16.8386 13.0002 17.5057 13.0002C18.4317 13.0002 19.2084 12.3577 19.4333 11.4997H20.503C21.1701 11.4997 21.1701 10.4981 20.503 10.4981H19.4352C19.3236 10.0708 19.0738 9.69238 18.7249 9.4217C18.376 9.15102 17.9473 9.00323 17.5057 9.00133C16.9764 9.00232 16.469 9.21283 16.0944 9.58676C15.7197 9.96069 15.5083 10.4676 15.5063 10.997C15.5063 11.5563 15.0641 11.9985 14.5047 11.9985C14.3729 11.9996 14.2422 11.9744 14.1202 11.9244C13.9983 11.8744 13.8875 11.8007 13.7942 11.7075C13.701 11.6143 13.6273 11.5034 13.5773 11.3815C13.5273 11.2595 13.5021 11.1288 13.5031 10.997C13.5031 10.4395 13.9472 10.0011 14.5047 10.0011C15.1869 10.0162 15.1888 8.98621 14.5066 9.00133ZM11.001 13.0002V17.4998C11.001 17.7757 11.224 18.0006 11.4999 18.0006C12.1765 18.0006 12.7661 18.3313 13.1308 18.8397C13.5088 19.4255 14.3743 18.8094 13.9435 18.2595C13.7165 17.9378 13.4279 17.6644 13.0944 17.4551C12.7609 17.2459 12.3891 17.105 12.0007 17.0406V13.0002C12.0007 12.8674 11.948 12.74 11.8541 12.646C11.7601 12.5521 11.6328 12.4994 11.4999 12.4994C11.3671 12.4994 11.2397 12.5521 11.1458 12.646C11.0519 12.74 11.001 12.8674 11.001 13.0002ZM20.0003 13.0002V15.4494C19.9908 16.1259 21.0113 16.1259 21.0019 15.4494V13.0002C21.0019 12.9344 20.9889 12.8693 20.9637 12.8085C20.9386 12.7477 20.9017 12.6925 20.8552 12.646C20.8087 12.5995 20.7535 12.5627 20.6927 12.5375C20.6319 12.5123 20.5668 12.4994 20.5011 12.4994C20.4353 12.4994 20.3702 12.5123 20.3094 12.5375C20.2487 12.5627 20.1934 12.5995 20.1469 12.646C20.1004 12.6925 20.0636 12.7477 20.0384 12.8085C20.0132 12.8693 20.0003 12.9344 20.0003 13.0002ZM16.0014 28.0014H26.0004V29.9989H16.0033L16.0014 28.0014Z" fill="white"/>
</svg>
